# Created using Spin 3D

# Vertex Array 
v -0.050 0.500 -0.050 0 0 0
v 0.050 0.500 -0.050 0 0 0
v 0.050 0.500 -0.000 0 0 0
v -0.050 0.500 0.050 0 0 0
v 0.043 0.500 0.025 0 0 0
v 0.025 0.500 0.043 0 0 0
v -0.000 0.500 0.050 0 0 0
v 0.050 -0.500 -0.000 0 0 0
v 0.050 -0.500 -0.050 0 0 0
v -0.050 -0.500 -0.050 0 0 0
v -0.050 -0.500 0.050 0 0 0
v 0.043 -0.500 0.025 0 0 0
v 0.025 -0.500 0.043 0 0 0
v -0.000 -0.500 0.050 0 0 0
v -0.050 0.500 0.050 0 0 0
v -0.000 0.500 0.050 0 0 0
v -0.050 -0.500 0.050 0 0 0
v -0.000 -0.500 0.050 0 0 0
v 0.025 0.500 0.043 0 0 0
v 0.025 -0.500 0.043 0 0 0
v 0.043 0.500 0.025 0 0 0
v 0.043 -0.500 0.025 0 0 0
v 0.050 0.500 -0.000 0 0 0
v 0.050 -0.500 -0.000 0 0 0
v 0.050 0.500 -0.050 0 0 0
v 0.050 -0.500 -0.050 0 0 0
v -0.050 0.500 -0.050 0 0 0
v -0.050 -0.500 -0.050 0 0 0
v 0.050 -0.500 -0.050 0 0 0
v 0.050 0.500 -0.050 0 0 0
v -0.050 0.500 0.050 0 0 0
v -0.050 -0.500 0.050 0 0 0
v -0.050 -0.500 -0.050 0 0 0
v -0.050 0.500 -0.050 0 0 0

# Normal Array
vn -0.000 1.000 0.000
vn 0.000 1.000 0.000
vn 0.000 1.000 0.000
vn 0.000 1.000 0.000
vn 0.000 1.000 0.000
vn 0.000 -1.000 0.000
vn 0.000 -1.000 -0.000
vn 0.000 -1.000 0.000
vn 0.000 -1.000 0.000
vn 0.000 -1.000 -0.000
vn -0.000 0.000 1.000
vn 0.000 0.000 1.000
vn 0.259 0.000 0.966
vn 0.259 0.000 0.966
vn 0.707 0.000 0.707
vn 0.707 0.000 0.707
vn 0.966 0.000 0.259
vn 0.966 0.000 0.259
vn 1.000 0.000 0.000
vn 1.000 0.000 0.000
vn -0.000 -0.000 -1.000
vn -0.000 -0.000 -1.000
vn -1.000 -0.000 0.000
vn -1.000 -0.000 0.000

# Facets
f 1//1 3//1 2//1
f 3//2 1//2 4//2
f 3//3 4//3 5//3
f 5//4 4//4 6//4
f 6//5 4//5 7//5
f 8//6 10//6 9//6
f 10//7 8//7 11//7
f 11//8 8//8 12//8
f 11//9 12//9 13//9
f 11//10 13//10 14//10
f 15//11 17//11 16//11
f 16//12 17//12 18//12
f 16//13 18//13 19//13
f 19//14 18//14 20//14
f 19//15 20//15 21//15
f 21//16 20//16 22//16
f 21//17 22//17 23//17
f 23//18 22//18 24//18
f 23//19 24//19 25//19
f 25//20 24//20 26//20
f 27//21 29//21 28//21
f 30//22 29//22 27//22
f 31//23 33//23 32//23
f 34//24 33//24 31//24

# Thank you for using Spin 3D

