# Created using Spin 3D

# Vertex Array 
v -0.866 -0.102 0.500 0 0 0
v 0.866 -0.102 0.500 0 0 0
v 0.682 -0.102 0.394 0 0 0
v 0.000 -0.102 -1.000 0 0 0
v -0.682 -0.102 0.394 0 0 0
v 0.000 -0.102 -0.788 0 0 0

# Normal Array
vn 0.000 -1.000 -0.000
vn 0.000 -1.000 -0.000
vn 0.000 -1.000 -0.000
vn 0.000 -1.000 -0.000
vn -0.000 -1.000 -0.000
vn -0.000 -1.000 -0.000

# Facets
f 1//1 3//1 2//1
f 2//2 3//2 4//2
f 1//3 5//3 3//3
f 4//4 3//4 6//4
f 1//5 6//5 5//5
f 6//6 1//6 4//6

# Thank you for using Spin 3D

