# Created using Spin 3D

# Vertex Array 
v 0.000 0.020 -0.175 0 0 0
v 0.000 -0.000 -0.175 0 0 0
v 0.034 -0.000 -0.172 0 0 0
v 0.034 0.020 -0.172 0 0 0
v 0.067 -0.000 -0.162 0 0 0
v 0.067 0.020 -0.162 0 0 0
v 0.097 -0.000 -0.146 0 0 0
v 0.097 0.020 -0.146 0 0 0
v 0.124 -0.000 -0.124 0 0 0
v 0.124 0.020 -0.124 0 0 0
v 0.146 -0.000 -0.097 0 0 0
v 0.146 0.020 -0.097 0 0 0
v 0.162 -0.000 -0.067 0 0 0
v 0.162 0.020 -0.067 0 0 0
v 0.172 0.000 -0.034 0 0 0
v 0.172 0.020 -0.034 0 0 0
v 0.175 0.000 0.000 0 0 0
v 0.175 0.020 -0.000 0 0 0
v 0.172 0.000 0.034 0 0 0
v 0.172 0.020 0.034 0 0 0
v 0.162 0.000 0.067 0 0 0
v 0.162 0.020 0.067 0 0 0
v 0.146 0.000 0.097 0 0 0
v 0.146 0.020 0.097 0 0 0
v 0.124 0.000 0.124 0 0 0
v 0.124 0.020 0.124 0 0 0
v 0.097 0.000 0.146 0 0 0
v 0.097 0.020 0.146 0 0 0
v 0.067 0.000 0.162 0 0 0
v 0.067 0.020 0.162 0 0 0
v 0.034 0.000 0.172 0 0 0
v 0.034 0.020 0.172 0 0 0
v 0.000 0.000 0.175 0 0 0
v 0.000 0.020 0.175 0 0 0
v -0.034 0.000 0.172 0 0 0
v -0.034 0.020 0.172 0 0 0
v -0.067 0.000 0.162 0 0 0
v -0.067 0.020 0.162 0 0 0
v -0.097 0.000 0.146 0 0 0
v -0.097 0.020 0.146 0 0 0
v -0.124 0.000 0.124 0 0 0
v -0.124 0.020 0.124 0 0 0
v -0.146 0.000 0.097 0 0 0
v -0.146 0.020 0.097 0 0 0
v -0.162 0.000 0.067 0 0 0
v -0.162 0.020 0.067 0 0 0
v -0.172 0.000 0.034 0 0 0
v -0.172 0.020 0.034 0 0 0
v -0.175 0.000 0.000 0 0 0
v -0.175 0.020 -0.000 0 0 0
v -0.172 0.000 -0.034 0 0 0
v -0.172 0.020 -0.034 0 0 0
v -0.162 -0.000 -0.067 0 0 0
v -0.162 0.020 -0.067 0 0 0
v -0.146 -0.000 -0.097 0 0 0
v -0.146 0.020 -0.097 0 0 0
v -0.124 -0.000 -0.124 0 0 0
v -0.124 0.020 -0.124 0 0 0
v -0.097 -0.000 -0.146 0 0 0
v -0.097 0.020 -0.146 0 0 0
v -0.067 -0.000 -0.162 0 0 0
v -0.067 0.020 -0.162 0 0 0
v -0.034 -0.000 -0.172 0 0 0
v -0.034 0.020 -0.172 0 0 0
v 0.000 -0.000 -0.175 0 0 0
v 0.000 0.020 -0.175 0 0 0
v -0.009 0.011 -0.047 0 0 0
v 0.000 0.011 -0.048 0 0 0
v 0.009 0.011 -0.047 0 0 0
v 0.018 0.011 -0.044 0 0 0
v -0.018 0.011 -0.044 0 0 0
v 0.027 0.011 -0.040 0 0 0
v -0.027 0.011 -0.040 0 0 0
v 0.034 0.011 -0.034 0 0 0
v -0.034 0.011 -0.034 0 0 0
v -0.040 0.011 -0.027 0 0 0
v 0.040 0.011 -0.027 0 0 0
v 0.044 0.011 -0.018 0 0 0
v -0.044 0.011 -0.018 0 0 0
v 0.047 0.011 -0.009 0 0 0
v -0.047 0.011 -0.009 0 0 0
v -0.048 0.011 -0.000 0 0 0
v 0.048 0.011 -0.000 0 0 0
v 0.047 0.011 0.009 0 0 0
v -0.047 0.011 0.009 0 0 0
v -0.044 0.011 0.018 0 0 0
v 0.044 0.011 0.018 0 0 0
v -0.040 0.011 0.027 0 0 0
v 0.040 0.011 0.027 0 0 0
v -0.034 0.011 0.034 0 0 0
v 0.034 0.011 0.034 0 0 0
v 0.027 0.011 0.040 0 0 0
v -0.027 0.011 0.040 0 0 0
v 0.018 0.011 0.044 0 0 0
v -0.018 0.011 0.044 0 0 0
v -0.009 0.011 0.047 0 0 0
v 0.009 0.011 0.047 0 0 0
v 0.000 0.011 0.048 0 0 0
v 0.034 0.020 0.034 0 0 0
v 0.034 0.011 0.034 0 0 0
v 0.040 0.020 0.027 0 0 0
v 0.040 0.011 0.027 0 0 0
v 0.027 0.011 0.040 0 0 0
v 0.044 0.020 0.018 0 0 0
v 0.027 0.020 0.040 0 0 0
v 0.044 0.011 0.018 0 0 0
v 0.018 0.011 0.044 0 0 0
v 0.047 0.020 0.009 0 0 0
v 0.018 0.020 0.044 0 0 0
v 0.047 0.011 0.009 0 0 0
v 0.009 0.011 0.047 0 0 0
v 0.048 0.020 -0.000 0 0 0
v 0.009 0.020 0.047 0 0 0
v 0.048 0.011 -0.000 0 0 0
v 0.000 0.011 0.048 0 0 0
v 0.047 0.020 -0.009 0 0 0
v 0.000 0.020 0.048 0 0 0
v 0.047 0.011 -0.009 0 0 0
v -0.009 0.011 0.047 0 0 0
v 0.044 0.020 -0.018 0 0 0
v -0.009 0.020 0.047 0 0 0
v 0.044 0.011 -0.018 0 0 0
v -0.018 0.011 0.044 0 0 0
v 0.040 0.020 -0.027 0 0 0
v -0.018 0.020 0.044 0 0 0
v 0.040 0.011 -0.027 0 0 0
v -0.027 0.011 0.040 0 0 0
v 0.034 0.020 -0.034 0 0 0
v -0.027 0.020 0.040 0 0 0
v 0.034 0.011 -0.034 0 0 0
v -0.034 0.011 0.034 0 0 0
v 0.027 0.020 -0.040 0 0 0
v -0.034 0.020 0.034 0 0 0
v 0.027 0.011 -0.040 0 0 0
v -0.040 0.011 0.027 0 0 0
v 0.018 0.020 -0.044 0 0 0
v -0.040 0.020 0.027 0 0 0
v 0.018 0.011 -0.044 0 0 0
v -0.044 0.011 0.018 0 0 0
v 0.009 0.020 -0.047 0 0 0
v -0.044 0.020 0.018 0 0 0
v 0.009 0.011 -0.047 0 0 0
v -0.047 0.011 0.009 0 0 0
v 0.000 0.020 -0.048 0 0 0
v -0.047 0.020 0.009 0 0 0
v 0.000 0.011 -0.048 0 0 0
v -0.048 0.011 -0.000 0 0 0
v -0.009 0.020 -0.047 0 0 0
v -0.048 0.020 -0.000 0 0 0
v -0.009 0.011 -0.047 0 0 0
v -0.047 0.011 -0.009 0 0 0
v -0.018 0.020 -0.044 0 0 0
v -0.047 0.020 -0.009 0 0 0
v -0.018 0.011 -0.044 0 0 0
v -0.044 0.011 -0.018 0 0 0
v -0.027 0.020 -0.040 0 0 0
v -0.044 0.020 -0.018 0 0 0
v -0.027 0.011 -0.040 0 0 0
v -0.040 0.011 -0.027 0 0 0
v -0.034 0.020 -0.034 0 0 0
v -0.040 0.020 -0.027 0 0 0
v -0.034 0.011 -0.034 0 0 0
v 0.067 0.020 -0.162 0 0 0
v 0.097 0.020 -0.146 0 0 0
v 0.027 0.020 -0.040 0 0 0
v 0.018 0.020 -0.044 0 0 0
v 0.034 0.020 -0.034 0 0 0
v 0.034 0.020 -0.172 0 0 0
v 0.124 0.020 -0.124 0 0 0
v 0.009 0.020 -0.047 0 0 0
v 0.040 0.020 -0.027 0 0 0
v 0.000 0.020 -0.175 0 0 0
v 0.146 0.020 -0.097 0 0 0
v 0.000 0.020 -0.048 0 0 0
v 0.044 0.020 -0.018 0 0 0
v -0.034 0.020 -0.172 0 0 0
v 0.162 0.020 -0.067 0 0 0
v -0.009 0.020 -0.047 0 0 0
v 0.047 0.020 -0.009 0 0 0
v -0.067 0.020 -0.162 0 0 0
v 0.172 0.020 -0.034 0 0 0
v -0.018 0.020 -0.044 0 0 0
v 0.048 0.020 -0.000 0 0 0
v -0.097 0.020 -0.146 0 0 0
v 0.175 0.020 -0.000 0 0 0
v -0.027 0.020 -0.040 0 0 0
v 0.047 0.020 0.009 0 0 0
v -0.124 0.020 -0.124 0 0 0
v 0.172 0.020 0.034 0 0 0
v -0.034 0.020 -0.034 0 0 0
v 0.044 0.020 0.018 0 0 0
v -0.146 0.020 -0.097 0 0 0
v 0.162 0.020 0.067 0 0 0
v -0.040 0.020 -0.027 0 0 0
v 0.040 0.020 0.027 0 0 0
v -0.162 0.020 -0.067 0 0 0
v 0.146 0.020 0.097 0 0 0
v -0.044 0.020 -0.018 0 0 0
v 0.034 0.020 0.034 0 0 0
v -0.172 0.020 -0.034 0 0 0
v 0.124 0.020 0.124 0 0 0
v -0.047 0.020 -0.009 0 0 0
v 0.027 0.020 0.040 0 0 0
v -0.175 0.020 -0.000 0 0 0
v 0.097 0.020 0.146 0 0 0
v -0.048 0.020 -0.000 0 0 0
v 0.018 0.020 0.044 0 0 0
v -0.172 0.020 0.034 0 0 0
v 0.067 0.020 0.162 0 0 0
v -0.047 0.020 0.009 0 0 0
v 0.009 0.020 0.047 0 0 0
v -0.162 0.020 0.067 0 0 0
v 0.034 0.020 0.172 0 0 0
v -0.044 0.020 0.018 0 0 0
v 0.000 0.020 0.048 0 0 0
v -0.146 0.020 0.097 0 0 0
v 0.000 0.020 0.175 0 0 0
v -0.040 0.020 0.027 0 0 0
v -0.009 0.020 0.047 0 0 0
v -0.124 0.020 0.124 0 0 0
v -0.034 0.020 0.172 0 0 0
v -0.034 0.020 0.034 0 0 0
v -0.018 0.020 0.044 0 0 0
v -0.097 0.020 0.146 0 0 0
v -0.067 0.020 0.162 0 0 0
v -0.027 0.020 0.040 0 0 0

# Normal Array
vn 0.098 -0.000 -0.995
vn 0.098 -0.000 -0.995
vn 0.290 -0.000 -0.957
vn 0.290 -0.000 -0.957
vn 0.471 -0.000 -0.882
vn 0.471 -0.000 -0.882
vn 0.634 -0.000 -0.773
vn 0.634 -0.000 -0.773
vn 0.773 -0.000 -0.634
vn 0.773 -0.000 -0.634
vn 0.882 -0.000 -0.471
vn 0.882 -0.000 -0.471
vn 0.957 -0.000 -0.290
vn 0.957 -0.000 -0.290
vn 0.995 -0.000 -0.098
vn 0.995 -0.000 -0.098
vn 0.995 0.000 0.098
vn 0.995 0.000 0.098
vn 0.957 0.000 0.290
vn 0.957 0.000 0.290
vn 0.882 0.000 0.471
vn 0.882 0.000 0.471
vn 0.773 0.000 0.634
vn 0.773 0.000 0.634
vn 0.634 0.000 0.773
vn 0.634 0.000 0.773
vn 0.471 0.000 0.882
vn 0.471 0.000 0.882
vn 0.290 0.000 0.957
vn 0.290 0.000 0.957
vn 0.098 0.000 0.995
vn 0.098 0.000 0.995
vn -0.098 0.000 0.995
vn -0.098 0.000 0.995
vn -0.290 0.000 0.957
vn -0.290 0.000 0.957
vn -0.471 0.000 0.882
vn -0.471 0.000 0.882
vn -0.634 0.000 0.773
vn -0.634 0.000 0.773
vn -0.773 0.000 0.634
vn -0.773 0.000 0.634
vn -0.882 0.000 0.471
vn -0.882 0.000 0.471
vn -0.957 0.000 0.290
vn -0.957 0.000 0.290
vn -0.995 0.000 0.098
vn -0.995 0.000 0.098
vn -0.995 -0.000 -0.098
vn -0.995 -0.000 -0.098
vn -0.957 -0.000 -0.290
vn -0.957 -0.000 -0.290
vn -0.882 -0.000 -0.471
vn -0.882 -0.000 -0.471
vn -0.773 -0.000 -0.634
vn -0.773 -0.000 -0.634
vn -0.634 -0.000 -0.773
vn -0.634 -0.000 -0.773
vn -0.471 -0.000 -0.882
vn -0.471 -0.000 -0.882
vn -0.290 -0.000 -0.957
vn -0.290 -0.000 -0.957
vn -0.098 -0.000 -0.995
vn -0.098 -0.000 -0.995
vn 0.000 1.000 0.000
vn 0.000 1.000 -0.000
vn 0.000 1.000 0.000
vn -0.000 1.000 -0.000
vn -0.000 1.000 -0.000
vn -0.000 1.000 0.000
vn 0.000 1.000 0.000
vn 0.000 1.000 -0.000
vn 0.000 1.000 -0.000
vn 0.000 1.000 -0.000
vn 0.000 1.000 0.000
vn -0.000 1.000 -0.000
vn 0.000 1.000 -0.000
vn 0.000 1.000 0.000
vn 0.000 1.000 -0.000
vn 0.000 1.000 0.000
vn 0.000 1.000 0.000
vn 0.000 1.000 -0.000
vn 0.000 1.000 -0.000
vn 0.000 1.000 0.000
vn 0.000 1.000 0.000
vn 0.000 1.000 -0.000
vn 0.000 1.000 -0.000
vn 0.000 1.000 0.000
vn 0.000 1.000 0.000
vn 0.000 1.000 0.000
vn 0.000 1.000 0.000
vn 0.000 1.000 0.000
vn 0.000 1.000 0.000
vn 0.000 1.000 0.000
vn -0.773 -0.000 -0.634
vn -0.773 0.000 -0.634
vn -0.634 0.000 -0.773
vn -0.882 -0.000 -0.471
vn -0.634 -0.000 -0.773
vn -0.882 0.000 -0.471
vn -0.471 0.000 -0.882
vn -0.957 0.000 -0.290
vn -0.471 -0.000 -0.882
vn -0.957 0.000 -0.290
vn -0.290 0.000 -0.957
vn -0.995 0.000 -0.098
vn -0.290 -0.000 -0.957
vn -0.995 0.000 -0.098
vn -0.098 0.000 -0.995
vn -0.995 -0.000 0.098
vn -0.098 -0.000 -0.995
vn -0.995 -0.000 0.098
vn 0.098 0.000 -0.995
vn -0.957 -0.000 0.290
vn 0.098 0.000 -0.995
vn -0.957 -0.000 0.290
vn 0.290 0.000 -0.957
vn -0.882 -0.000 0.471
vn 0.290 0.000 -0.957
vn -0.882 0.000 0.471
vn 0.471 0.000 -0.882
vn -0.773 0.000 0.634
vn 0.471 0.000 -0.882
vn -0.773 0.000 0.634
vn 0.634 0.000 -0.773
vn -0.634 0.000 0.773
vn 0.634 0.000 -0.773
vn -0.634 0.000 0.773
vn 0.773 0.000 -0.634
vn -0.471 0.000 0.882
vn 0.773 0.000 -0.634
vn -0.471 0.000 0.882
vn 0.882 0.000 -0.471
vn -0.290 0.000 0.957
vn 0.882 0.000 -0.471
vn -0.290 0.000 0.957
vn 0.957 0.000 -0.290
vn -0.098 0.000 0.995
vn 0.957 0.000 -0.290
vn -0.098 0.000 0.995
vn 0.995 0.000 -0.098
vn 0.098 0.000 0.995
vn 0.995 0.000 -0.098
vn 0.098 0.000 0.995
vn 0.995 -0.000 0.098
vn 0.290 0.000 0.957
vn 0.995 -0.000 0.098
vn 0.290 0.000 0.957
vn 0.957 -0.000 0.290
vn 0.471 0.000 0.882
vn 0.957 0.000 0.290
vn 0.471 0.000 0.882
vn 0.882 0.000 0.471
vn 0.634 0.000 0.773
vn 0.882 0.000 0.471
vn 0.634 0.000 0.773
vn 0.773 0.000 0.634
vn 0.773 0.000 0.634
vn -0.000 1.000 -0.000
vn -0.000 1.000 -0.000
vn 0.000 1.000 0.000
vn 0.000 1.000 -0.000
vn 0.000 1.000 0.000
vn 0.000 1.000 -0.000
vn -0.000 1.000 -0.000
vn 0.000 1.000 -0.000
vn 0.000 1.000 -0.000
vn 0.000 1.000 -0.000
vn 0.000 1.000 -0.000
vn -0.000 1.000 -0.000
vn 0.000 1.000 -0.000
vn -0.000 1.000 0.000
vn 0.000 1.000 -0.000
vn -0.000 1.000 -0.000
vn 0.000 1.000 -0.000
vn -0.000 1.000 -0.000
vn 0.000 1.000 -0.000
vn -0.000 1.000 -0.000
vn 0.000 1.000 -0.000
vn -0.000 1.000 -0.000
vn 0.000 1.000 0.000
vn -0.000 1.000 -0.000
vn 0.000 1.000 0.000
vn -0.000 1.000 -0.000
vn 0.000 1.000 0.000
vn -0.000 1.000 -0.000
vn 0.000 1.000 0.000
vn 0.000 1.000 -0.000
vn 0.000 1.000 0.000
vn -0.000 1.000 -0.000
vn 0.000 1.000 0.000
vn -0.000 1.000 -0.000
vn 0.000 1.000 -0.000
vn -0.000 1.000 -0.000
vn 0.000 1.000 0.000
vn -0.000 1.000 -0.000
vn 0.000 1.000 0.000
vn -0.000 1.000 -0.000
vn 0.000 1.000 0.000
vn -0.000 1.000 -0.000
vn 0.000 1.000 0.000
vn -0.000 1.000 0.000
vn 0.000 1.000 0.000
vn -0.000 1.000 0.000
vn 0.000 1.000 0.000
vn -0.000 1.000 0.000
vn 0.000 1.000 0.000
vn -0.000 1.000 0.000
vn 0.000 1.000 0.000
vn -0.000 1.000 0.000
vn 0.000 1.000 0.000
vn -0.000 1.000 0.000
vn -0.000 1.000 0.000
vn -0.000 1.000 0.000
vn -0.000 1.000 0.000
vn -0.000 1.000 -0.000
vn -0.000 1.000 0.000
vn -0.000 1.000 0.000
vn -0.000 1.000 0.000
vn -0.000 1.000 0.000
vn -0.000 1.000 0.000
vn -0.000 1.000 0.000

# Facets
f 1//1 3//1 2//1
f 4//2 3//2 1//2
f 4//3 5//3 3//3
f 6//4 5//4 4//4
f 6//5 7//5 5//5
f 8//6 7//6 6//6
f 8//7 9//7 7//7
f 10//8 9//8 8//8
f 10//9 11//9 9//9
f 12//10 11//10 10//10
f 12//11 13//11 11//11
f 14//12 13//12 12//12
f 14//13 15//13 13//13
f 16//14 15//14 14//14
f 16//15 17//15 15//15
f 18//16 17//16 16//16
f 18//17 19//17 17//17
f 20//18 19//18 18//18
f 20//19 21//19 19//19
f 22//20 21//20 20//20
f 22//21 23//21 21//21
f 24//22 23//22 22//22
f 24//23 25//23 23//23
f 26//24 25//24 24//24
f 26//25 27//25 25//25
f 28//26 27//26 26//26
f 28//27 29//27 27//27
f 30//28 29//28 28//28
f 30//29 31//29 29//29
f 32//30 31//30 30//30
f 32//31 33//31 31//31
f 34//32 33//32 32//32
f 34//33 35//33 33//33
f 36//34 35//34 34//34
f 36//35 37//35 35//35
f 38//36 37//36 36//36
f 38//37 39//37 37//37
f 40//38 39//38 38//38
f 40//39 41//39 39//39
f 42//40 41//40 40//40
f 42//41 43//41 41//41
f 44//42 43//42 42//42
f 44//43 45//43 43//43
f 46//44 45//44 44//44
f 46//45 47//45 45//45
f 48//46 47//46 46//46
f 48//47 49//47 47//47
f 50//48 49//48 48//48
f 50//49 51//49 49//49
f 52//50 51//50 50//50
f 52//51 53//51 51//51
f 54//52 53//52 52//52
f 54//53 55//53 53//53
f 56//54 55//54 54//54
f 56//55 57//55 55//55
f 58//56 57//56 56//56
f 58//57 59//57 57//57
f 60//58 59//58 58//58
f 60//59 61//59 59//59
f 62//60 61//60 60//60
f 62//61 63//61 61//61
f 64//62 63//62 62//62
f 64//63 65//63 63//63
f 66//64 65//64 64//64
f 67//65 69//65 68//65
f 69//66 67//66 70//66
f 70//67 67//67 71//67
f 70//68 71//68 72//68
f 72//69 71//69 73//69
f 72//70 73//70 74//70
f 74//71 73//71 75//71
f 74//72 75//72 76//72
f 74//73 76//73 77//73
f 77//74 76//74 78//74
f 78//75 76//75 79//75
f 78//76 79//76 80//76
f 80//77 79//77 81//77
f 80//78 81//78 82//78
f 80//79 82//79 83//79
f 83//80 82//80 84//80
f 84//81 82//81 85//81
f 84//82 85//82 86//82
f 84//83 86//83 87//83
f 87//84 86//84 88//84
f 87//85 88//85 89//85
f 89//86 88//86 90//86
f 89//87 90//87 91//87
f 91//88 90//88 92//88
f 92//89 90//89 93//89
f 92//90 93//90 94//90
f 94//91 93//91 95//91
f 94//92 95//92 96//92
f 94//93 96//93 97//93
f 97//94 96//94 98//94
f 99//95 101//95 100//95
f 100//96 101//96 102//96
f 103//97 99//97 100//97
f 101//98 104//98 102//98
f 105//99 99//99 103//99
f 102//100 104//100 106//100
f 107//101 105//101 103//101
f 104//102 108//102 106//102
f 109//103 105//103 107//103
f 106//104 108//104 110//104
f 111//105 109//105 107//105
f 108//106 112//106 110//106
f 113//107 109//107 111//107
f 110//108 112//108 114//108
f 115//109 113//109 111//109
f 112//110 116//110 114//110
f 117//111 113//111 115//111
f 114//112 116//112 118//112
f 119//113 117//113 115//113
f 116//114 120//114 118//114
f 121//115 117//115 119//115
f 118//116 120//116 122//116
f 123//117 121//117 119//117
f 120//118 124//118 122//118
f 125//119 121//119 123//119
f 122//120 124//120 126//120
f 127//121 125//121 123//121
f 124//122 128//122 126//122
f 129//123 125//123 127//123
f 126//124 128//124 130//124
f 131//125 129//125 127//125
f 128//126 132//126 130//126
f 133//127 129//127 131//127
f 130//128 132//128 134//128
f 135//129 133//129 131//129
f 132//130 136//130 134//130
f 137//131 133//131 135//131
f 134//132 136//132 138//132
f 139//133 137//133 135//133
f 136//134 140//134 138//134
f 141//135 137//135 139//135
f 138//136 140//136 142//136
f 143//137 141//137 139//137
f 140//138 144//138 142//138
f 145//139 141//139 143//139
f 142//140 144//140 146//140
f 147//141 145//141 143//141
f 144//142 148//142 146//142
f 149//143 145//143 147//143
f 146//144 148//144 150//144
f 151//145 149//145 147//145
f 148//146 152//146 150//146
f 153//147 149//147 151//147
f 150//148 152//148 154//148
f 155//149 153//149 151//149
f 152//150 156//150 154//150
f 157//151 153//151 155//151
f 154//152 156//152 158//152
f 159//153 157//153 155//153
f 156//154 160//154 158//154
f 161//155 157//155 159//155
f 158//156 160//156 162//156
f 162//157 161//157 159//157
f 160//158 161//158 162//158
f 163//159 165//159 164//159
f 166//160 165//160 163//160
f 165//161 167//161 164//161
f 168//162 166//162 163//162
f 164//163 167//163 169//163
f 170//164 166//164 168//164
f 167//165 171//165 169//165
f 172//166 170//166 168//166
f 169//167 171//167 173//167
f 174//168 170//168 172//168
f 171//169 175//169 173//169
f 176//170 174//170 172//170
f 173//171 175//171 177//171
f 178//172 174//172 176//172
f 175//173 179//173 177//173
f 180//174 178//174 176//174
f 177//175 179//175 181//175
f 182//176 178//176 180//176
f 179//177 183//177 181//177
f 184//178 182//178 180//178
f 181//179 183//179 185//179
f 186//180 182//180 184//180
f 183//181 187//181 185//181
f 188//182 186//182 184//182
f 185//183 187//183 189//183
f 190//184 186//184 188//184
f 187//185 191//185 189//185
f 192//186 190//186 188//186
f 189//187 191//187 193//187
f 194//188 190//188 192//188
f 191//189 195//189 193//189
f 196//190 194//190 192//190
f 193//191 195//191 197//191
f 198//192 194//192 196//192
f 195//193 199//193 197//193
f 200//194 198//194 196//194
f 197//195 199//195 201//195
f 202//196 198//196 200//196
f 199//197 203//197 201//197
f 204//198 202//198 200//198
f 201//199 203//199 205//199
f 206//200 202//200 204//200
f 203//201 207//201 205//201
f 208//202 206//202 204//202
f 205//203 207//203 209//203
f 210//204 206//204 208//204
f 207//205 211//205 209//205
f 212//206 210//206 208//206
f 209//207 211//207 213//207
f 214//208 210//208 212//208
f 211//209 215//209 213//209
f 216//210 214//210 212//210
f 213//211 215//211 217//211
f 218//212 214//212 216//212
f 215//213 219//213 217//213
f 220//214 218//214 216//214
f 217//215 219//215 221//215
f 222//216 218//216 220//216
f 219//217 223//217 221//217
f 224//218 222//218 220//218
f 221//219 223//219 225//219
f 226//220 222//220 224//220
f 223//221 226//221 225//221
f 225//222 226//222 224//222

# Thank you for using Spin 3D

