# Created using Spin 3D

# Vertex Array 
v 0.761 0.145 0.282 0 0 0
v 0.789 0.145 0.266 0 0 0
v 0.761 0.039 0.282 0 0 0
v 0.789 0.039 0.266 0 0 0
v 0.789 0.145 0.234 0 0 0
v 0.789 0.039 0.234 0 0 0
v 0.761 0.145 0.217 0 0 0
v 0.761 0.039 0.217 0 0 0
v 0.733 0.145 0.234 0 0 0
v 0.733 0.039 0.234 0 0 0
v 0.733 0.145 0.266 0 0 0
v 0.733 0.039 0.266 0 0 0
v 0.761 0.145 0.282 0 0 0
v 0.761 0.039 0.333 0 0 0
v 0.761 -0.000 0.333 0 0 0
v 0.719 -0.000 0.322 0 0 0
v 0.719 0.039 0.322 0 0 0
v 0.689 -0.000 0.291 0 0 0
v 0.689 0.039 0.291 0 0 0
v 0.678 -0.000 0.250 0 0 0
v 0.678 0.039 0.250 0 0 0
v 0.689 -0.000 0.208 0 0 0
v 0.689 0.039 0.208 0 0 0
v 0.719 -0.000 0.178 0 0 0
v 0.719 0.039 0.178 0 0 0
v 0.761 -0.000 0.167 0 0 0
v 0.761 0.039 0.167 0 0 0
v 0.803 -0.000 0.178 0 0 0
v 0.803 0.039 0.178 0 0 0
v 0.833 -0.000 0.208 0 0 0
v 0.833 0.039 0.208 0 0 0
v 0.844 -0.000 0.250 0 0 0
v 0.844 0.039 0.250 0 0 0
v 0.833 -0.000 0.291 0 0 0
v 0.833 0.039 0.291 0 0 0
v 0.803 -0.000 0.322 0 0 0
v 0.803 0.039 0.322 0 0 0
v 0.761 -0.000 0.333 0 0 0
v 0.761 0.039 0.333 0 0 0
v 0.803 0.039 0.322 0 0 0
v 0.761 0.039 0.333 0 0 0
v 0.719 0.039 0.322 0 0 0
v 0.833 0.039 0.291 0 0 0
v 0.689 0.039 0.291 0 0 0
v 0.761 0.039 0.282 0 0 0
v 0.789 0.039 0.266 0 0 0
v 0.733 0.039 0.266 0 0 0
v 0.844 0.039 0.250 0 0 0
v 0.789 0.039 0.234 0 0 0
v 0.761 0.039 0.217 0 0 0
v 0.678 0.039 0.250 0 0 0
v 0.733 0.039 0.234 0 0 0
v 0.833 0.039 0.208 0 0 0
v 0.689 0.039 0.208 0 0 0
v 0.803 0.039 0.178 0 0 0
v 0.719 0.039 0.178 0 0 0
v 0.761 0.039 0.167 0 0 0
v 0.789 0.145 -0.266 0 0 0
v 0.761 0.145 -0.282 0 0 0
v 0.761 0.039 -0.282 0 0 0
v 0.789 0.039 -0.266 0 0 0
v 0.789 0.145 -0.234 0 0 0
v 0.789 0.039 -0.234 0 0 0
v 0.761 0.145 -0.217 0 0 0
v 0.761 0.039 -0.217 0 0 0
v 0.733 0.145 -0.234 0 0 0
v 0.733 0.039 -0.234 0 0 0
v 0.733 0.145 -0.266 0 0 0
v 0.733 0.039 -0.266 0 0 0
v 0.761 0.145 -0.282 0 0 0
v 0.761 0.000 -0.333 0 0 0
v 0.761 0.039 -0.333 0 0 0
v 0.719 0.000 -0.322 0 0 0
v 0.719 0.039 -0.322 0 0 0
v 0.689 0.000 -0.291 0 0 0
v 0.689 0.039 -0.291 0 0 0
v 0.678 0.000 -0.250 0 0 0
v 0.678 0.039 -0.250 0 0 0
v 0.689 0.000 -0.208 0 0 0
v 0.689 0.039 -0.208 0 0 0
v 0.719 0.000 -0.178 0 0 0
v 0.719 0.039 -0.178 0 0 0
v 0.761 0.000 -0.167 0 0 0
v 0.761 0.039 -0.167 0 0 0
v 0.803 0.000 -0.178 0 0 0
v 0.803 0.039 -0.178 0 0 0
v 0.833 0.000 -0.208 0 0 0
v 0.833 0.039 -0.208 0 0 0
v 0.844 0.000 -0.250 0 0 0
v 0.844 0.039 -0.250 0 0 0
v 0.833 0.000 -0.291 0 0 0
v 0.833 0.039 -0.291 0 0 0
v 0.803 0.000 -0.322 0 0 0
v 0.803 0.039 -0.322 0 0 0
v 0.761 0.000 -0.333 0 0 0
v 0.761 0.039 -0.333 0 0 0
v 0.719 0.039 -0.322 0 0 0
v 0.761 0.039 -0.333 0 0 0
v 0.803 0.039 -0.322 0 0 0
v 0.689 0.039 -0.291 0 0 0
v 0.833 0.039 -0.291 0 0 0
v 0.761 0.039 -0.282 0 0 0
v 0.678 0.039 -0.250 0 0 0
v 0.789 0.039 -0.266 0 0 0
v 0.733 0.039 -0.266 0 0 0
v 0.844 0.039 -0.250 0 0 0
v 0.733 0.039 -0.234 0 0 0
v 0.789 0.039 -0.234 0 0 0
v 0.689 0.039 -0.208 0 0 0
v 0.833 0.039 -0.208 0 0 0
v 0.761 0.039 -0.217 0 0 0
v 0.761 0.039 -0.167 0 0 0
v 0.719 0.039 -0.178 0 0 0
v 0.803 0.039 -0.178 0 0 0

# Normal Array
vn 0.500 0.000 0.866
vn 0.500 0.000 0.866
vn 1.000 0.000 0.000
vn 1.000 0.000 0.000
vn 0.500 0.000 -0.866
vn 0.500 -0.000 -0.866
vn -0.500 -0.000 -0.866
vn -0.500 0.000 -0.866
vn -1.000 -0.000 0.000
vn -1.000 0.000 0.000
vn -0.500 0.000 0.866
vn -0.500 -0.000 0.866
vn -0.259 -0.000 0.966
vn -0.259 0.000 0.966
vn -0.707 0.000 0.707
vn -0.707 0.000 0.707
vn -0.966 0.000 0.259
vn -0.966 0.000 0.259
vn -0.966 -0.000 -0.259
vn -0.966 -0.000 -0.259
vn -0.707 -0.000 -0.707
vn -0.707 -0.000 -0.707
vn -0.259 -0.000 -0.966
vn -0.259 0.000 -0.966
vn 0.259 -0.000 -0.966
vn 0.259 0.000 -0.966
vn 0.707 0.000 -0.707
vn 0.707 0.000 -0.707
vn 0.966 0.000 -0.259
vn 0.966 0.000 -0.259
vn 0.966 -0.000 0.259
vn 0.966 0.000 0.259
vn 0.707 0.000 0.707
vn 0.707 0.000 0.707
vn 0.259 0.000 0.966
vn 0.259 -0.000 0.966
vn 0.000 1.000 0.000
vn -0.000 1.000 0.000
vn -0.000 1.000 0.000
vn 0.000 1.000 0.000
vn -0.000 1.000 0.000
vn 0.000 1.000 -0.000
vn 0.000 1.000 0.000
vn 0.000 1.000 0.000
vn 0.000 1.000 0.000
vn 0.000 1.000 0.000
vn 0.000 1.000 -0.000
vn 0.000 1.000 0.000
vn -0.000 1.000 0.000
vn 0.000 1.000 0.000
vn -0.000 1.000 0.000
vn 0.000 1.000 0.000
vn -0.000 1.000 0.000
vn 0.000 1.000 0.000
vn 0.500 0.000 -0.866
vn 0.500 0.000 -0.866
vn 1.000 0.000 0.000
vn 1.000 -0.000 0.000
vn 0.500 -0.000 0.866
vn 0.500 -0.000 0.866
vn -0.500 -0.000 0.866
vn -0.500 -0.000 0.866
vn -1.000 0.000 0.000
vn -1.000 0.000 0.000
vn -0.500 0.000 -0.866
vn -0.500 0.000 -0.866
vn -0.259 0.000 -0.966
vn -0.259 0.000 -0.966
vn -0.707 0.000 -0.707
vn -0.707 0.000 -0.707
vn -0.966 0.000 -0.259
vn -0.966 0.000 -0.259
vn -0.966 0.000 0.259
vn -0.966 0.000 0.259
vn -0.707 0.000 0.707
vn -0.707 0.000 0.707
vn -0.259 0.000 0.966
vn -0.259 0.000 0.966
vn 0.259 -0.000 0.966
vn 0.259 0.000 0.966
vn 0.707 -0.000 0.707
vn 0.707 -0.000 0.707
vn 0.966 -0.000 0.259
vn 0.966 -0.000 0.259
vn 0.966 0.000 -0.259
vn 0.966 0.000 -0.259
vn 0.707 0.000 -0.707
vn 0.707 0.000 -0.707
vn 0.259 0.000 -0.966
vn 0.259 0.000 -0.966
vn -0.000 1.000 0.000
vn -0.000 1.000 0.000
vn 0.000 1.000 0.000
vn 0.000 1.000 0.000
vn 0.000 1.000 0.000
vn -0.000 1.000 0.000
vn 0.000 1.000 0.000
vn -0.000 1.000 0.000
vn 0.000 1.000 -0.000
vn 0.000 1.000 0.000
vn -0.000 1.000 0.000
vn 0.000 1.000 0.000
vn -0.000 1.000 0.000
vn 0.000 1.000 0.000
vn 0.000 1.000 0.000
vn -0.000 1.000 0.000
vn 0.000 1.000 -0.000
vn 0.000 1.000 0.000

# Facets
f 1//1 3//1 2//1
f 2//2 3//2 4//2
f 2//3 4//3 5//3
f 5//4 4//4 6//4
f 5//5 6//5 7//5
f 7//6 6//6 8//6
f 7//7 8//7 9//7
f 9//8 8//8 10//8
f 9//9 10//9 11//9
f 11//10 10//10 12//10
f 13//11 12//11 3//11
f 11//12 12//12 13//12
f 14//13 16//13 15//13
f 17//14 16//14 14//14
f 17//15 18//15 16//15
f 19//16 18//16 17//16
f 19//17 20//17 18//17
f 21//18 20//18 19//18
f 21//19 22//19 20//19
f 23//20 22//20 21//20
f 23//21 24//21 22//21
f 25//22 24//22 23//22
f 25//23 26//23 24//23
f 27//24 26//24 25//24
f 27//25 28//25 26//25
f 29//26 28//26 27//26
f 29//27 30//27 28//27
f 31//28 30//28 29//28
f 31//29 32//29 30//29
f 33//30 32//30 31//30
f 33//31 34//31 32//31
f 35//32 34//32 33//32
f 35//33 36//33 34//33
f 37//34 36//34 35//34
f 37//35 38//35 36//35
f 39//36 38//36 37//36
f 40//37 42//37 41//37
f 43//38 42//38 40//38
f 43//39 44//39 42//39
f 43//40 45//40 44//40
f 45//41 43//41 46//41
f 47//42 44//42 45//42
f 48//43 46//43 43//43
f 48//44 49//44 46//44
f 48//45 50//45 49//45
f 47//46 51//46 44//46
f 52//47 51//47 47//47
f 50//48 51//48 52//48
f 53//49 50//49 48//49
f 50//50 54//50 51//50
f 55//51 50//51 53//51
f 50//52 56//52 54//52
f 50//53 55//53 57//53
f 56//54 50//54 57//54
f 58//55 60//55 59//55
f 61//56 60//56 58//56
f 62//57 61//57 58//57
f 63//58 61//58 62//58
f 64//59 63//59 62//59
f 65//60 63//60 64//60
f 66//61 65//61 64//61
f 67//62 65//62 66//62
f 68//63 67//63 66//63
f 69//64 67//64 68//64
f 60//65 69//65 70//65
f 70//66 69//66 68//66
f 71//67 73//67 72//67
f 72//68 73//68 74//68
f 73//69 75//69 74//69
f 74//70 75//70 76//70
f 75//71 77//71 76//71
f 76//72 77//72 78//72
f 77//73 79//73 78//73
f 78//74 79//74 80//74
f 79//75 81//75 80//75
f 80//76 81//76 82//76
f 81//77 83//77 82//77
f 82//78 83//78 84//78
f 83//79 85//79 84//79
f 84//80 85//80 86//80
f 85//81 87//81 86//81
f 86//82 87//82 88//82
f 87//83 89//83 88//83
f 88//84 89//84 90//84
f 89//85 91//85 90//85
f 90//86 91//86 92//86
f 91//87 93//87 92//87
f 92//88 93//88 94//88
f 93//89 95//89 94//89
f 94//90 95//90 96//90
f 97//91 99//91 98//91
f 99//92 97//92 100//92
f 99//93 100//93 101//93
f 101//94 100//94 102//94
f 102//95 100//95 103//95
f 102//96 104//96 101//96
f 102//97 103//97 105//97
f 104//98 106//98 101//98
f 105//99 103//99 107//99
f 106//100 104//100 108//100
f 107//101 103//101 109//101
f 106//102 108//102 110//102
f 107//103 109//103 111//103
f 110//104 108//104 111//104
f 111//105 109//105 112//105
f 110//106 111//106 112//106
f 112//107 109//107 113//107
f 110//108 112//108 114//108

# Thank you for using Spin 3D

