# Created using Spin 3D

# Vertex Array 
v -0.027 0.021 -0.142
v 0.003 0.021 -0.145
v 0.048 0.021 -0.139
v -0.053 0.021 -0.134
v 0.082 0.021 -0.119
v -0.074 0.021 -0.119
v -0.089 0.021 -0.100
v 0.002 0.021 -0.098
v 0.104 0.021 -0.087
v -0.016 0.021 -0.095
v 0.021 0.021 -0.095
v 0.037 0.021 -0.085
v -0.098 0.021 -0.077
v -0.032 0.021 -0.086
v -0.043 0.021 -0.072
v -0.101 0.021 -0.051
v -0.048 0.021 -0.051
v 0.111 0.021 -0.044
v 0.049 0.021 -0.069
v 0.053 0.021 -0.044
v 0.049 0.021 -0.020
v 0.108 0.021 -0.017
v 0.037 0.021 -0.004
v 0.099 0.021 0.007
v 0.021 0.021 0.005
v 0.003 0.021 0.008
v 0.085 0.021 0.027
v -0.042 0.021 0.031
v -0.012 0.021 0.007
v -0.025 0.021 0.001
v -0.035 0.021 -0.007
v 0.066 0.021 0.041
v -0.073 0.021 0.140
v -0.042 0.021 -0.017
v -0.097 0.021 -0.017
v -0.033 0.021 0.094
v 0.084 0.021 0.094
v 0.084 0.021 0.140
v -0.039 0.021 0.034
v -0.034 0.021 0.039
v -0.025 0.021 0.044
v 0.043 0.021 0.050
v -0.013 0.021 0.049
v 0.001 0.021 0.052
v 0.018 0.021 0.053
v -0.101 0.000 -0.051
v -0.048 0.000 -0.051
v -0.043 -0.000 -0.072
v -0.098 0.000 -0.077
v -0.032 -0.000 -0.086
v -0.016 0.000 -0.095
v -0.089 0.000 -0.100
v 0.002 -0.000 -0.098
v 0.082 0.000 -0.119
v -0.074 -0.000 -0.119
v -0.053 -0.000 -0.134
v 0.048 0.000 -0.139
v -0.027 -0.000 -0.142
v 0.003 -0.000 -0.145
v 0.104 0.000 -0.087
v 0.021 -0.000 -0.095
v 0.037 0.000 -0.085
v 0.111 0.000 -0.044
v 0.049 0.000 -0.069
v 0.053 0.000 -0.044
v 0.049 0.000 -0.020
v 0.108 0.000 -0.017
v 0.037 0.000 -0.004
v 0.099 0.000 0.007
v 0.021 0.000 0.005
v 0.003 0.000 0.008
v 0.085 0.000 0.027
v -0.042 0.000 0.031
v -0.012 0.000 0.007
v -0.025 0.000 0.001
v -0.035 -0.000 -0.007
v 0.066 0.000 0.041
v -0.073 -0.000 0.140
v -0.042 -0.000 -0.017
v -0.097 -0.000 -0.017
v -0.033 0.000 0.094
v 0.084 0.000 0.094
v 0.084 0.000 0.140
v -0.039 -0.000 0.034
v -0.034 0.000 0.039
v -0.025 -0.000 0.044
v 0.043 0.000 0.050
v -0.013 0.000 0.049
v 0.001 0.000 0.052
v 0.018 0.000 0.053
v -0.027 -0.000 -0.142
v 0.003 -0.000 -0.145
v 0.003 0.021 -0.145
v -0.027 0.021 -0.142
v -0.053 -0.000 -0.134
v -0.053 0.021 -0.134
v -0.074 -0.000 -0.119
v -0.074 0.021 -0.119
v -0.089 0.000 -0.100
v -0.089 0.021 -0.100
v -0.098 0.000 -0.077
v -0.098 0.021 -0.077
v -0.101 0.000 -0.051
v -0.101 0.021 -0.051
v -0.048 0.000 -0.051
v -0.101 0.000 -0.051
v -0.101 0.021 -0.051
v -0.048 0.021 -0.051
v -0.043 -0.000 -0.072
v -0.048 0.000 -0.051
v -0.048 0.021 -0.051
v -0.043 0.021 -0.072
v -0.032 -0.000 -0.086
v -0.032 0.021 -0.086
v -0.016 0.000 -0.095
v -0.016 0.021 -0.095
v 0.002 -0.000 -0.098
v 0.002 0.021 -0.098
v 0.021 -0.000 -0.095
v 0.021 0.021 -0.095
v 0.037 0.000 -0.085
v 0.037 0.021 -0.085
v 0.049 0.000 -0.069
v 0.049 0.021 -0.069
v 0.053 0.000 -0.044
v 0.053 0.021 -0.044
v 0.049 0.000 -0.020
v 0.049 0.021 -0.020
v 0.037 0.000 -0.004
v 0.037 0.021 -0.004
v 0.021 0.000 0.005
v 0.021 0.021 0.005
v 0.003 0.000 0.008
v 0.003 0.021 0.008
v -0.012 0.000 0.007
v -0.012 0.021 0.007
v -0.025 0.000 0.001
v -0.025 0.021 0.001
v -0.035 -0.000 -0.007
v -0.035 0.021 -0.007
v -0.042 -0.000 -0.017
v -0.042 0.021 -0.017
v -0.097 -0.000 -0.017
v -0.042 -0.000 -0.017
v -0.042 0.021 -0.017
v -0.097 0.021 -0.017
v -0.073 -0.000 0.140
v -0.097 -0.000 -0.017
v -0.097 0.021 -0.017
v -0.073 0.021 0.140
v 0.084 0.000 0.140
v -0.073 -0.000 0.140
v -0.073 0.021 0.140
v 0.084 0.021 0.140
v 0.084 0.000 0.094
v 0.084 0.000 0.140
v 0.084 0.021 0.140
v 0.084 0.021 0.094
v -0.033 0.000 0.094
v 0.084 0.000 0.094
v 0.084 0.021 0.094
v -0.033 0.021 0.094
v -0.042 0.000 0.031
v -0.033 0.000 0.094
v -0.033 0.021 0.094
v -0.042 0.021 0.031
v -0.039 -0.000 0.034
v -0.042 0.000 0.031
v -0.042 0.021 0.031
v -0.039 0.021 0.034
v -0.034 0.000 0.039
v -0.034 0.021 0.039
v -0.025 -0.000 0.044
v -0.025 0.021 0.044
v -0.013 0.000 0.049
v -0.013 0.021 0.049
v 0.001 0.000 0.052
v 0.001 0.021 0.052
v 0.018 0.000 0.053
v 0.018 0.021 0.053
v 0.043 0.000 0.050
v 0.043 0.021 0.050
v 0.066 0.000 0.041
v 0.066 0.021 0.041
v 0.085 0.000 0.027
v 0.085 0.021 0.027
v 0.099 0.000 0.007
v 0.099 0.021 0.007
v 0.108 0.000 -0.017
v 0.108 0.021 -0.017
v 0.111 0.000 -0.044
v 0.111 0.021 -0.044
v 0.104 0.000 -0.087
v 0.104 0.021 -0.087
v 0.082 0.000 -0.119
v 0.082 0.021 -0.119
v 0.048 0.000 -0.139
v 0.048 0.021 -0.139
v 0.003 -0.000 -0.145
v 0.003 0.021 -0.145

# Normal Array
vn 0.000 1.000 -0.000
vn -0.000 1.000 0.000
vn -0.000 1.000 -0.000
vn -0.000 1.000 -0.000
vn -0.000 1.000 -0.000
vn 0.000 1.000 0.000
vn -0.000 1.000 0.000
vn 0.000 1.000 -0.000
vn 0.000 1.000 -0.000
vn -0.000 1.000 0.000
vn 0.000 1.000 0.000
vn 0.000 1.000 0.000
vn 0.000 1.000 -0.000
vn -0.000 1.000 -0.000
vn 0.000 1.000 -0.000
vn -0.000 1.000 -0.000
vn 0.000 1.000 -0.000
vn -0.000 1.000 0.000
vn -0.000 1.000 -0.000
vn -0.000 1.000 -0.000
vn -0.000 1.000 0.000
vn -0.000 1.000 0.000
vn -0.000 1.000 0.000
vn -0.000 1.000 -0.000
vn -0.000 1.000 0.000
vn 0.000 1.000 -0.000
vn -0.000 1.000 -0.000
vn 0.000 1.000 -0.000
vn 0.000 1.000 -0.000
vn 0.000 1.000 -0.000
vn -0.000 1.000 -0.000
vn -0.000 1.000 0.000
vn 0.000 1.000 0.000
vn -0.000 1.000 0.000
vn -0.000 1.000 0.000
vn -0.000 1.000 0.000
vn -0.000 1.000 0.000
vn -0.000 1.000 0.000
vn -0.000 1.000 -0.000
vn -0.000 1.000 0.000
vn -0.000 1.000 0.000
vn -0.000 1.000 0.000
vn -0.000 1.000 -0.000
vn -0.000 -1.000 0.000
vn -0.000 -1.000 0.000
vn -0.000 -1.000 -0.000
vn -0.000 -1.000 -0.000
vn 0.000 -1.000 -0.000
vn -0.000 -1.000 0.000
vn -0.000 -1.000 -0.000
vn 0.000 -1.000 0.000
vn 0.000 -1.000 -0.000
vn 0.000 -1.000 0.000
vn 0.000 -1.000 0.000
vn 0.000 -1.000 0.000
vn 0.000 -1.000 -0.000
vn 0.000 -1.000 -0.000
vn 0.000 -1.000 0.000
vn 0.000 -1.000 -0.000
vn 0.000 -1.000 -0.000
vn 0.000 -1.000 0.000
vn 0.000 -1.000 0.000
vn 0.000 -1.000 0.000
vn 0.000 -1.000 -0.000
vn 0.000 -1.000 0.000
vn 0.000 -1.000 0.000
vn 0.000 -1.000 0.000
vn 0.000 -1.000 0.000
vn 0.000 -1.000 0.000
vn 0.000 -1.000 0.000
vn 0.000 -1.000 0.000
vn 0.000 -1.000 0.000
vn 0.000 -1.000 0.000
vn 0.000 -1.000 0.000
vn 0.000 -1.000 -0.000
vn 0.000 -1.000 -0.000
vn 0.000 -1.000 0.000
vn 0.000 -1.000 -0.000
vn 0.000 -1.000 -0.000
vn 0.000 -1.000 -0.000
vn 0.000 -1.000 0.000
vn 0.000 -1.000 -0.000
vn 0.000 -1.000 -0.000
vn 0.000 -1.000 0.000
vn 0.000 -1.000 -0.000
vn 0.000 -1.000 0.000
vn -0.096 0.000 -0.995
vn -0.096 0.000 -0.995
vn -0.325 0.000 -0.946
vn -0.325 -0.000 -0.946
vn -0.566 0.000 -0.824
vn -0.566 0.000 -0.824
vn -0.782 0.000 -0.623
vn -0.782 -0.000 -0.623
vn -0.929 -0.000 -0.369
vn -0.929 0.000 -0.369
vn -0.994 0.000 -0.105
vn -0.994 -0.000 -0.105
vn -0.000 -0.000 1.000
vn -0.000 -0.000 1.000
vn 0.978 0.000 0.210
vn 0.978 -0.000 0.210
vn 0.785 -0.000 0.620
vn 0.785 0.000 0.620
vn 0.481 0.000 0.877
vn 0.481 0.000 0.877
vn 0.163 0.000 0.987
vn 0.163 0.000 0.987
vn -0.165 0.000 0.986
vn -0.165 0.000 0.986
vn -0.492 0.000 0.871
vn -0.492 -0.000 0.871
vn -0.818 -0.000 0.576
vn -0.818 -0.000 0.576
vn -0.988 0.000 0.156
vn -0.988 0.000 0.156
vn -0.988 0.000 -0.153
vn -0.988 -0.000 -0.153
vn -0.815 -0.000 -0.579
vn -0.815 -0.000 -0.579
vn -0.479 -0.000 -0.878
vn -0.479 -0.000 -0.878
vn -0.160 -0.000 -0.987
vn -0.160 -0.000 -0.987
vn 0.119 0.000 -0.993
vn 0.119 -0.000 -0.993
vn 0.365 -0.000 -0.931
vn 0.365 -0.000 -0.931
vn 0.602 0.000 -0.798
vn 0.602 -0.000 -0.798
vn 0.830 0.000 -0.558
vn 0.830 0.000 -0.558
vn 0.000 -0.000 -1.000
vn 0.000 0.000 -1.000
vn -0.989 0.000 0.149
vn -0.989 0.000 0.149
vn -0.000 0.000 1.000
vn -0.000 -0.000 1.000
vn 1.000 -0.000 0.000
vn 1.000 -0.000 0.000
vn 0.000 -0.000 -1.000
vn 0.000 -0.000 -1.000
vn 0.989 -0.000 -0.147
vn 0.989 0.000 -0.147
vn -0.730 -0.000 0.683
vn -0.730 -0.000 0.683
vn -0.633 0.000 0.774
vn -0.633 -0.000 0.774
vn -0.515 -0.000 0.857
vn -0.515 -0.000 0.857
vn -0.379 -0.000 0.925
vn -0.379 0.000 0.925
vn -0.233 0.000 0.972
vn -0.233 0.000 0.972
vn -0.068 0.000 0.998
vn -0.068 0.000 0.998
vn 0.117 0.000 0.993
vn 0.117 -0.000 0.993
vn 0.368 -0.000 0.930
vn 0.368 -0.000 0.930
vn 0.608 -0.000 0.794
vn 0.608 0.000 0.794
vn 0.807 0.000 0.591
vn 0.807 0.000 0.591
vn 0.936 0.000 0.352
vn 0.936 0.000 0.352
vn 0.994 0.000 0.108
vn 0.994 0.000 0.108
vn 0.986 0.000 -0.169
vn 0.986 -0.000 -0.169
vn 0.825 -0.000 -0.566
vn 0.825 -0.000 -0.566
vn 0.504 -0.000 -0.864
vn 0.504 0.000 -0.864
vn 0.149 0.000 -0.989
vn 0.149 -0.000 -0.989

# Facets
f 1//1 3//1 2//1
f 3//2 1//2 4//2
f 3//3 4//3 5//3
f 5//4 4//4 6//4
f 5//5 6//5 7//5
f 5//6 7//6 8//6
f 5//7 8//7 9//7
f 7//8 10//8 8//8
f 9//9 8//9 11//9
f 9//10 11//10 12//10
f 10//11 7//11 13//11
f 10//12 13//12 14//12
f 14//13 13//13 15//13
f 15//14 13//14 16//14
f 15//15 16//15 17//15
f 9//16 12//16 18//16
f 18//17 12//17 19//17
f 18//18 19//18 20//18
f 18//19 20//19 21//19
f 18//20 21//20 22//20
f 22//21 21//21 23//21
f 22//22 23//22 24//22
f 24//23 23//23 25//23
f 24//24 25//24 26//24
f 24//25 26//25 27//25
f 26//26 28//26 27//26
f 29//27 28//27 26//27
f 30//28 28//28 29//28
f 31//29 28//29 30//29
f 28//30 32//30 27//30
f 31//31 33//31 28//31
f 34//32 33//32 31//32
f 33//33 34//33 35//33
f 28//34 33//34 36//34
f 36//35 33//35 37//35
f 37//36 33//36 38//36
f 32//37 28//37 39//37
f 32//38 39//38 40//38
f 32//39 40//39 41//39
f 32//40 41//40 42//40
f 42//41 41//41 43//41
f 42//42 43//42 44//42
f 42//43 44//43 45//43
f 46//44 48//44 47//44
f 49//45 48//45 46//45
f 49//46 50//46 48//46
f 49//47 51//47 50//47
f 52//48 51//48 49//48
f 51//49 52//49 53//49
f 52//50 54//50 53//50
f 55//51 54//51 52//51
f 56//52 54//52 55//52
f 56//53 57//53 54//53
f 58//54 57//54 56//54
f 57//55 58//55 59//55
f 53//56 54//56 60//56
f 53//57 60//57 61//57
f 61//58 60//58 62//58
f 62//59 60//59 63//59
f 62//60 63//60 64//60
f 64//61 63//61 65//61
f 65//62 63//62 66//62
f 66//63 63//63 67//63
f 66//64 67//64 68//64
f 68//65 67//65 69//65
f 68//66 69//66 70//66
f 70//67 69//67 71//67
f 71//68 69//68 72//68
f 73//69 71//69 72//69
f 73//70 74//70 71//70
f 73//71 75//71 74//71
f 73//72 76//72 75//72
f 77//73 73//73 72//73
f 78//74 76//74 73//74
f 78//75 79//75 76//75
f 79//76 78//76 80//76
f 78//77 73//77 81//77
f 78//78 81//78 82//78
f 78//79 82//79 83//79
f 73//80 77//80 84//80
f 84//81 77//81 85//81
f 85//82 77//82 86//82
f 86//83 77//83 87//83
f 86//84 87//84 88//84
f 88//85 87//85 89//85
f 89//86 87//86 90//86
f 91//87 93//87 92//87
f 94//88 93//88 91//88
f 95//89 94//89 91//89
f 96//90 94//90 95//90
f 97//91 96//91 95//91
f 98//92 96//92 97//92
f 99//93 98//93 97//93
f 100//94 98//94 99//94
f 101//95 100//95 99//95
f 102//96 100//96 101//96
f 103//97 102//97 101//97
f 104//98 102//98 103//98
f 105//99 107//99 106//99
f 108//100 107//100 105//100
f 109//101 111//101 110//101
f 112//102 111//102 109//102
f 113//103 112//103 109//103
f 114//104 112//104 113//104
f 115//105 114//105 113//105
f 116//106 114//106 115//106
f 117//107 116//107 115//107
f 118//108 116//108 117//108
f 119//109 118//109 117//109
f 120//110 118//110 119//110
f 121//111 120//111 119//111
f 122//112 120//112 121//112
f 123//113 122//113 121//113
f 124//114 122//114 123//114
f 125//115 124//115 123//115
f 126//116 124//116 125//116
f 127//117 126//117 125//117
f 128//118 126//118 127//118
f 129//119 128//119 127//119
f 130//120 128//120 129//120
f 131//121 130//121 129//121
f 132//122 130//122 131//122
f 133//123 132//123 131//123
f 134//124 132//124 133//124
f 135//125 134//125 133//125
f 136//126 134//126 135//126
f 137//127 136//127 135//127
f 138//128 136//128 137//128
f 139//129 138//129 137//129
f 140//130 138//130 139//130
f 141//131 140//131 139//131
f 142//132 140//132 141//132
f 143//133 145//133 144//133
f 146//134 145//134 143//134
f 147//135 149//135 148//135
f 150//136 149//136 147//136
f 151//137 153//137 152//137
f 154//138 153//138 151//138
f 155//139 157//139 156//139
f 158//140 157//140 155//140
f 159//141 161//141 160//141
f 162//142 161//142 159//142
f 163//143 165//143 164//143
f 166//144 165//144 163//144
f 167//145 169//145 168//145
f 170//146 169//146 167//146
f 171//147 170//147 167//147
f 172//148 170//148 171//148
f 173//149 172//149 171//149
f 174//150 172//150 173//150
f 175//151 174//151 173//151
f 176//152 174//152 175//152
f 177//153 176//153 175//153
f 178//154 176//154 177//154
f 179//155 178//155 177//155
f 180//156 178//156 179//156
f 181//157 180//157 179//157
f 182//158 180//158 181//158
f 183//159 182//159 181//159
f 184//160 182//160 183//160
f 185//161 184//161 183//161
f 186//162 184//162 185//162
f 187//163 186//163 185//163
f 188//164 186//164 187//164
f 189//165 188//165 187//165
f 190//166 188//166 189//166
f 191//167 190//167 189//167
f 192//168 190//168 191//168
f 193//169 192//169 191//169
f 194//170 192//170 193//170
f 195//171 194//171 193//171
f 196//172 194//172 195//172
f 197//173 196//173 195//173
f 198//174 196//174 197//174
f 199//175 198//175 197//175
f 200//176 198//176 199//176

# Thank you for using Spin 3D

