# Created using Spin 3D

# Vertex Array 
v -0.006 0.021 0.065
v -0.006 0.021 -0.145
v 0.053 0.021 -0.145
v 0.053 0.021 0.136
v -0.045 0.021 0.097
v -0.067 0.021 0.092
v -0.031 0.021 0.049
v -0.067 0.021 0.044
v -0.027 0.021 0.105
v -0.014 0.021 0.118
v -0.006 0.021 0.136
v -0.031 -0.000 0.049
v -0.067 -0.000 0.044
v -0.067 -0.000 0.092
v -0.006 -0.000 0.065
v -0.045 -0.000 0.097
v 0.053 -0.000 0.136
v -0.027 -0.000 0.105
v -0.014 -0.000 0.118
v -0.006 -0.000 0.136
v 0.053 -0.000 -0.145
v -0.006 -0.000 -0.145
v -0.031 -0.000 0.049
v -0.006 -0.000 0.065
v -0.006 0.021 0.065
v -0.031 0.021 0.049
v -0.067 -0.000 0.044
v -0.067 0.021 0.044
v -0.067 -0.000 0.092
v -0.067 -0.000 0.044
v -0.067 0.021 0.044
v -0.067 0.021 0.092
v -0.045 -0.000 0.097
v -0.067 -0.000 0.092
v -0.067 0.021 0.092
v -0.045 0.021 0.097
v -0.027 -0.000 0.105
v -0.027 0.021 0.105
v -0.014 -0.000 0.118
v -0.014 0.021 0.118
v -0.006 -0.000 0.136
v -0.006 0.021 0.136
v 0.053 -0.000 0.136
v -0.006 -0.000 0.136
v -0.006 0.021 0.136
v 0.053 0.021 0.136
v 0.053 -0.000 -0.145
v 0.053 -0.000 0.136
v 0.053 0.021 0.136
v 0.053 0.021 -0.145
v -0.006 -0.000 -0.145
v 0.053 -0.000 -0.145
v 0.053 0.021 -0.145
v -0.006 0.021 -0.145
v -0.006 -0.000 0.065
v -0.006 -0.000 -0.145
v -0.006 0.021 -0.145
v -0.006 0.021 0.065

# Normal Array
vn -0.000 1.000 -0.000
vn -0.000 1.000 -0.000
vn -0.000 1.000 0.000
vn 0.000 1.000 0.000
vn -0.000 1.000 -0.000
vn 0.000 1.000 -0.000
vn 0.000 1.000 -0.000
vn -0.000 1.000 0.000
vn 0.000 1.000 -0.000
vn 0.000 -1.000 0.000
vn 0.000 -1.000 0.000
vn 0.000 -1.000 -0.000
vn 0.000 -1.000 -0.000
vn -0.000 -1.000 0.000
vn -0.000 -1.000 0.000
vn -0.000 -1.000 0.000
vn -0.000 -1.000 -0.000
vn 0.000 -1.000 0.000
vn 0.529 0.000 -0.848
vn 0.529 -0.000 -0.848
vn 0.144 -0.000 -0.990
vn 0.144 0.000 -0.990
vn -1.000 0.000 -0.000
vn -1.000 0.000 -0.000
vn -0.207 -0.000 0.978
vn -0.207 -0.000 0.978
vn -0.437 -0.000 0.900
vn -0.437 -0.000 0.900
vn -0.708 -0.000 0.706
vn -0.708 0.000 0.706
vn -0.900 0.000 0.436
vn -0.900 -0.000 0.436
vn -0.000 -0.000 1.000
vn -0.000 -0.000 1.000
vn 1.000 0.000 0.000
vn 1.000 0.000 0.000
vn 0.000 0.000 -1.000
vn 0.000 -0.000 -1.000
vn -1.000 0.000 -0.000
vn -1.000 -0.000 -0.000

# Facets
f 1//1 3//1 2//1
f 3//2 1//2 4//2
f 4//3 1//3 5//3
f 5//4 1//4 6//4
f 7//5 6//5 1//5
f 6//6 7//6 8//6
f 4//7 5//7 9//7
f 4//8 9//8 10//8
f 4//9 10//9 11//9
f 12//10 14//10 13//10
f 14//11 12//11 15//11
f 15//12 16//12 14//12
f 15//13 17//13 16//13
f 16//14 17//14 18//14
f 18//15 17//15 19//15
f 19//16 17//16 20//16
f 15//17 21//17 17//17
f 21//18 15//18 22//18
f 23//19 25//19 24//19
f 26//20 25//20 23//20
f 27//21 26//21 23//21
f 28//22 26//22 27//22
f 29//23 31//23 30//23
f 32//24 31//24 29//24
f 33//25 35//25 34//25
f 36//26 35//26 33//26
f 37//27 36//27 33//27
f 38//28 36//28 37//28
f 39//29 38//29 37//29
f 40//30 38//30 39//30
f 41//31 40//31 39//31
f 42//32 40//32 41//32
f 43//33 45//33 44//33
f 46//34 45//34 43//34
f 47//35 49//35 48//35
f 50//36 49//36 47//36
f 51//37 53//37 52//37
f 54//38 53//38 51//38
f 55//39 57//39 56//39
f 58//40 57//40 55//40

# Thank you for using Spin 3D

