# Created using Spin 3D

# Vertex Array 
v -0.029 0.021 0.025
v -0.029 0.021 -0.017
v -0.013 0.021 -0.017
v 0.080 0.021 -0.010
v 0.011 0.021 -0.020
v 0.090 0.021 -0.023
v 0.028 0.021 -0.028
v 0.098 0.021 -0.040
v 0.037 0.021 -0.041
v 0.040 0.021 -0.057
v 0.100 0.021 -0.060
v 0.037 0.021 -0.074
v 0.097 0.021 -0.084
v 0.026 0.021 -0.086
v 0.010 0.021 -0.094
v -0.008 0.021 -0.096
v 0.067 0.021 -0.001
v 0.086 0.021 -0.104
v 0.042 0.021 0.008
v 0.054 0.021 0.005
v 0.059 0.021 0.015
v -0.015 0.021 0.025
v 0.074 0.021 0.028
v 0.020 0.021 0.034
v 0.085 0.021 0.046
v 0.031 0.021 0.059
v 0.088 0.021 0.069
v 0.028 0.021 0.074
v 0.085 0.021 0.090
v 0.020 0.021 0.085
v 0.008 0.021 0.091
v 0.077 0.021 0.108
v -0.008 0.021 0.093
v -0.080 0.021 0.118
v -0.024 0.021 0.090
v 0.063 0.021 0.123
v -0.099 0.021 0.088
v -0.049 0.021 0.137
v 0.044 0.021 0.134
v 0.020 0.021 0.141
v -0.007 0.021 0.143
v -0.038 0.021 0.082
v -0.047 0.021 0.069
v -0.051 0.021 0.048
v -0.105 0.021 0.048
v -0.056 0.021 -0.139
v -0.010 0.021 -0.146
v 0.021 0.021 -0.143
v 0.048 0.021 -0.135
v -0.089 0.021 -0.119
v 0.070 0.021 -0.122
v -0.108 0.021 -0.087
v -0.028 0.021 -0.093
v -0.044 0.021 -0.084
v -0.115 0.021 -0.046
v -0.055 0.021 -0.069
v -0.059 0.021 -0.046
v 0.021 -0.000 -0.143
v -0.010 -0.000 -0.146
v -0.056 -0.000 -0.139
v 0.048 -0.000 -0.135
v -0.089 -0.000 -0.119
v 0.070 -0.000 -0.122
v 0.086 -0.000 -0.104
v -0.008 -0.000 -0.096
v 0.097 -0.000 -0.084
v -0.108 -0.000 -0.087
v -0.028 -0.000 -0.093
v -0.044 -0.000 -0.084
v -0.115 -0.000 -0.046
v -0.055 -0.000 -0.069
v -0.059 -0.000 -0.046
v 0.010 -0.000 -0.094
v 0.026 -0.000 -0.086
v 0.037 -0.000 -0.074
v 0.100 -0.000 -0.060
v 0.040 -0.000 -0.057
v 0.098 -0.000 -0.040
v 0.037 -0.000 -0.041
v 0.028 -0.000 -0.028
v 0.090 -0.000 -0.023
v 0.011 -0.000 -0.020
v 0.080 -0.000 -0.010
v -0.013 -0.000 -0.017
v -0.029 -0.000 0.025
v -0.029 -0.000 -0.017
v 0.067 -0.000 -0.001
v 0.042 -0.000 0.008
v 0.054 -0.000 0.005
v 0.059 -0.000 0.015
v -0.015 -0.000 0.025
v 0.074 -0.000 0.028
v 0.020 -0.000 0.034
v 0.085 -0.000 0.046
v 0.031 -0.000 0.059
v 0.088 -0.000 0.069
v 0.028 -0.000 0.074
v 0.085 -0.000 0.090
v 0.020 -0.000 0.085
v 0.008 -0.000 0.091
v 0.077 -0.000 0.108
v -0.008 -0.000 0.093
v -0.080 -0.000 0.118
v -0.024 -0.000 0.090
v 0.063 -0.000 0.123
v -0.099 -0.000 0.088
v -0.049 -0.000 0.137
v 0.044 -0.000 0.134
v 0.020 -0.000 0.141
v -0.007 -0.000 0.143
v -0.038 -0.000 0.082
v -0.047 -0.000 0.069
v -0.051 -0.000 0.048
v -0.105 -0.000 0.048
v -0.056 -0.000 -0.139
v -0.010 -0.000 -0.146
v -0.010 0.021 -0.146
v -0.056 0.021 -0.139
v -0.089 -0.000 -0.119
v -0.089 0.021 -0.119
v -0.108 -0.000 -0.087
v -0.108 0.021 -0.087
v -0.115 -0.000 -0.046
v -0.115 0.021 -0.046
v -0.059 -0.000 -0.046
v -0.115 -0.000 -0.046
v -0.115 0.021 -0.046
v -0.059 0.021 -0.046
v -0.055 -0.000 -0.069
v -0.059 -0.000 -0.046
v -0.059 0.021 -0.046
v -0.055 0.021 -0.069
v -0.044 -0.000 -0.084
v -0.044 0.021 -0.084
v -0.028 -0.000 -0.093
v -0.028 0.021 -0.093
v -0.008 -0.000 -0.096
v -0.008 0.021 -0.096
v 0.010 -0.000 -0.094
v 0.010 0.021 -0.094
v 0.026 -0.000 -0.086
v 0.026 0.021 -0.086
v 0.037 -0.000 -0.074
v 0.037 0.021 -0.074
v 0.040 -0.000 -0.057
v 0.040 0.021 -0.057
v 0.037 -0.000 -0.041
v 0.037 0.021 -0.041
v 0.028 -0.000 -0.028
v 0.028 0.021 -0.028
v 0.011 -0.000 -0.020
v 0.011 0.021 -0.020
v -0.013 -0.000 -0.017
v -0.013 0.021 -0.017
v -0.029 -0.000 -0.017
v -0.029 0.021 -0.017
v -0.029 -0.000 0.025
v -0.029 -0.000 -0.017
v -0.029 0.021 -0.017
v -0.029 0.021 0.025
v -0.015 -0.000 0.025
v -0.029 -0.000 0.025
v -0.029 0.021 0.025
v -0.015 0.021 0.025
v 0.020 -0.000 0.034
v 0.020 0.021 0.034
v 0.031 -0.000 0.059
v 0.020 -0.000 0.034
v 0.020 0.021 0.034
v 0.031 0.021 0.059
v 0.028 -0.000 0.074
v 0.031 -0.000 0.059
v 0.031 0.021 0.059
v 0.028 0.021 0.074
v 0.020 -0.000 0.085
v 0.020 0.021 0.085
v 0.008 -0.000 0.091
v 0.008 0.021 0.091
v -0.008 -0.000 0.093
v -0.008 0.021 0.093
v -0.024 -0.000 0.090
v -0.024 0.021 0.090
v -0.038 -0.000 0.082
v -0.038 0.021 0.082
v -0.047 -0.000 0.069
v -0.047 0.021 0.069
v -0.051 -0.000 0.048
v -0.051 0.021 0.048
v -0.105 -0.000 0.048
v -0.051 -0.000 0.048
v -0.051 0.021 0.048
v -0.105 0.021 0.048
v -0.099 -0.000 0.088
v -0.105 -0.000 0.048
v -0.105 0.021 0.048
v -0.099 0.021 0.088
v -0.080 -0.000 0.118
v -0.080 0.021 0.118
v -0.049 -0.000 0.137
v -0.049 0.021 0.137
v -0.007 -0.000 0.143
v -0.007 0.021 0.143
v 0.020 -0.000 0.141
v 0.020 0.021 0.141
v 0.044 -0.000 0.134
v 0.044 0.021 0.134
v 0.063 -0.000 0.123
v 0.063 0.021 0.123
v 0.077 -0.000 0.108
v 0.077 0.021 0.108
v 0.085 -0.000 0.090
v 0.085 0.021 0.090
v 0.088 -0.000 0.069
v 0.088 0.021 0.069
v 0.085 -0.000 0.046
v 0.085 0.021 0.046
v 0.074 -0.000 0.028
v 0.074 0.021 0.028
v 0.059 -0.000 0.015
v 0.059 0.021 0.015
v 0.042 -0.000 0.008
v 0.042 0.021 0.008
v 0.054 -0.000 0.005
v 0.042 -0.000 0.008
v 0.042 0.021 0.008
v 0.054 0.021 0.005
v 0.067 -0.000 -0.001
v 0.067 0.021 -0.001
v 0.080 -0.000 -0.010
v 0.080 0.021 -0.010
v 0.090 -0.000 -0.023
v 0.090 0.021 -0.023
v 0.098 -0.000 -0.040
v 0.098 0.021 -0.040
v 0.100 -0.000 -0.060
v 0.100 0.021 -0.060
v 0.097 -0.000 -0.084
v 0.097 0.021 -0.084
v 0.086 -0.000 -0.104
v 0.086 0.021 -0.104
v 0.070 -0.000 -0.122
v 0.070 0.021 -0.122
v 0.048 -0.000 -0.135
v 0.048 0.021 -0.135
v 0.021 -0.000 -0.143
v 0.021 0.021 -0.143
v -0.010 -0.000 -0.146
v -0.010 0.021 -0.146

# Normal Array
vn -0.000 1.000 0.000
vn -0.000 1.000 0.000
vn -0.000 1.000 0.000
vn 0.000 1.000 -0.000
vn 0.000 1.000 -0.000
vn -0.000 1.000 -0.000
vn -0.000 1.000 -0.000
vn -0.000 1.000 0.000
vn -0.000 1.000 0.000
vn -0.000 1.000 -0.000
vn -0.000 1.000 0.000
vn -0.000 1.000 -0.000
vn -0.000 1.000 0.000
vn 0.000 1.000 -0.000
vn -0.000 1.000 -0.000
vn -0.000 1.000 -0.000
vn 0.000 1.000 0.000
vn 0.000 1.000 0.000
vn -0.000 1.000 0.000
vn -0.000 1.000 -0.000
vn -0.000 1.000 0.000
vn 0.000 1.000 0.000
vn -0.000 1.000 -0.000
vn -0.000 1.000 0.000
vn -0.000 1.000 -0.000
vn -0.000 1.000 -0.000
vn -0.000 1.000 0.000
vn -0.000 1.000 0.000
vn 0.000 1.000 -0.000
vn 0.000 1.000 -0.000
vn -0.000 1.000 0.000
vn -0.000 1.000 -0.000
vn 0.000 1.000 -0.000
vn -0.000 1.000 0.000
vn 0.000 1.000 -0.000
vn -0.000 1.000 0.000
vn -0.000 1.000 0.000
vn -0.000 1.000 0.000
vn 0.000 1.000 -0.000
vn 0.000 1.000 -0.000
vn 0.000 1.000 -0.000
vn 0.000 1.000 -0.000
vn -0.000 1.000 -0.000
vn 0.000 1.000 0.000
vn -0.000 1.000 -0.000
vn -0.000 1.000 -0.000
vn -0.000 1.000 -0.000
vn -0.000 1.000 0.000
vn -0.000 1.000 0.000
vn 0.000 1.000 0.000
vn -0.000 1.000 -0.000
vn -0.000 1.000 0.000
vn -0.000 1.000 0.000
vn 0.000 1.000 0.000
vn -0.000 1.000 -0.000
vn 0.000 -1.000 0.000
vn 0.000 -1.000 -0.000
vn 0.000 -1.000 -0.000
vn 0.000 -1.000 0.000
vn 0.000 -1.000 -0.000
vn 0.000 -1.000 -0.000
vn 0.000 -1.000 -0.000
vn -0.000 -1.000 0.000
vn 0.000 -1.000 0.000
vn 0.000 -1.000 0.000
vn 0.000 -1.000 -0.000
vn -0.000 -1.000 -0.000
vn 0.000 -1.000 0.000
vn -0.000 -1.000 0.000
vn 0.000 -1.000 -0.000
vn 0.000 -1.000 -0.000
vn 0.000 -1.000 -0.000
vn 0.000 -1.000 -0.000
vn 0.000 -1.000 -0.000
vn 0.000 -1.000 -0.000
vn 0.000 -1.000 0.000
vn 0.000 -1.000 0.000
vn 0.000 -1.000 -0.000
vn 0.000 -1.000 -0.000
vn 0.000 -1.000 -0.000
vn 0.000 -1.000 0.000
vn -0.000 -1.000 -0.000
vn 0.000 -1.000 0.000
vn -0.000 -1.000 -0.000
vn 0.000 -1.000 0.000
vn 0.000 -1.000 0.000
vn -0.000 -1.000 -0.000
vn 0.000 -1.000 0.000
vn 0.000 -1.000 -0.000
vn 0.000 -1.000 -0.000
vn 0.000 -1.000 0.000
vn 0.000 -1.000 0.000
vn 0.000 -1.000 0.000
vn 0.000 -1.000 -0.000
vn 0.000 -1.000 0.000
vn 0.000 -1.000 -0.000
vn 0.000 -1.000 0.000
vn 0.000 -1.000 0.000
vn 0.000 -1.000 0.000
vn 0.000 -1.000 -0.000
vn 0.000 -1.000 -0.000
vn 0.000 -1.000 0.000
vn 0.000 -1.000 -0.000
vn -0.000 -1.000 -0.000
vn 0.000 -1.000 0.000
vn 0.000 -1.000 -0.000
vn 0.000 -1.000 -0.000
vn 0.000 -1.000 -0.000
vn 0.000 -1.000 0.000
vn 0.000 -1.000 -0.000
vn -0.144 -0.000 -0.990
vn -0.144 -0.000 -0.990
vn -0.524 0.000 -0.852
vn -0.524 0.000 -0.852
vn -0.853 0.000 -0.522
vn -0.853 -0.000 -0.522
vn -0.989 0.000 -0.148
vn -0.989 -0.000 -0.148
vn -0.000 -0.000 1.000
vn -0.000 0.000 1.000
vn 0.986 -0.000 0.169
vn 0.986 -0.000 0.169
vn 0.822 -0.000 0.570
vn 0.822 0.000 0.570
vn 0.489 -0.000 0.872
vn 0.489 0.000 0.872
vn 0.150 0.000 0.989
vn 0.150 0.000 0.989
vn -0.134 0.000 0.991
vn -0.134 -0.000 0.991
vn -0.432 -0.000 0.902
vn -0.432 -0.000 0.902
vn -0.759 -0.000 0.652
vn -0.759 -0.000 0.652
vn -0.979 0.000 0.202
vn -0.979 0.000 0.202
vn -0.980 0.000 -0.197
vn -0.980 0.000 -0.197
vn -0.793 0.000 -0.609
vn -0.793 -0.000 -0.609
vn -0.443 -0.000 -0.897
vn -0.443 -0.000 -0.897
vn -0.114 -0.000 -0.994
vn -0.114 -0.000 -0.994
vn 0.000 -0.000 -1.000
vn 0.000 -0.000 -1.000
vn -1.000 -0.000 -0.000
vn -1.000 -0.000 -0.000
vn -0.000 0.000 1.000
vn -0.000 0.000 1.000
vn -0.239 0.000 0.971
vn -0.239 -0.000 0.971
vn -0.912 -0.000 0.411
vn -0.912 0.000 0.411
vn -0.983 -0.000 -0.184
vn -0.983 -0.000 -0.184
vn -0.786 0.000 -0.618
vn -0.786 -0.000 -0.618
vn -0.452 0.000 -0.892
vn -0.452 0.000 -0.892
vn -0.136 0.000 -0.991
vn -0.136 -0.000 -0.991
vn 0.161 -0.000 -0.987
vn 0.161 0.000 -0.987
vn 0.506 0.000 -0.863
vn 0.506 0.000 -0.863
vn 0.832 0.000 -0.555
vn 0.832 -0.000 -0.555
vn 0.987 -0.000 -0.162
vn 0.987 -0.000 -0.162
vn 0.000 -0.000 -1.000
vn 0.000 0.000 -1.000
vn -0.988 -0.000 0.156
vn -0.988 0.000 0.156
vn -0.846 0.000 0.534
vn -0.846 -0.000 0.534
vn -0.520 0.000 0.854
vn -0.520 0.000 0.854
vn -0.147 0.000 0.989
vn -0.147 0.000 0.989
vn 0.085 -0.000 0.996
vn 0.085 0.000 0.996
vn 0.286 0.000 0.958
vn 0.286 0.000 0.958
vn 0.507 0.000 0.862
vn 0.507 0.000 0.862
vn 0.725 0.000 0.688
vn 0.725 -0.000 0.688
vn 0.900 -0.000 0.436
vn 0.900 -0.000 0.436
vn 0.990 -0.000 0.139
vn 0.990 0.000 0.139
vn 0.989 0.000 -0.148
vn 0.989 0.000 -0.148
vn 0.868 0.000 -0.496
vn 0.868 0.000 -0.496
vn 0.653 0.000 -0.757
vn 0.653 -0.000 -0.757
vn 0.391 -0.000 -0.920
vn 0.391 -0.000 -0.920
vn 0.220 -0.000 0.976
vn 0.220 -0.000 0.976
vn 0.407 0.000 0.914
vn 0.407 -0.000 0.914
vn 0.595 -0.000 0.804
vn 0.595 -0.000 0.804
vn 0.776 -0.000 0.631
vn 0.776 0.000 0.631
vn 0.918 0.000 0.396
vn 0.918 0.000 0.396
vn 0.993 0.000 0.116
vn 0.993 0.000 0.116
vn 0.990 -0.000 -0.142
vn 0.990 0.000 -0.142
vn 0.899 0.000 -0.438
vn 0.899 0.000 -0.438
vn 0.726 0.000 -0.688
vn 0.726 -0.000 -0.688
vn 0.511 -0.000 -0.860
vn 0.511 0.000 -0.860
vn 0.293 0.000 -0.956
vn 0.293 0.000 -0.956
vn 0.088 0.000 -0.996
vn 0.088 0.000 -0.996

# Facets
f 1//1 3//1 2//1
f 3//2 1//2 4//2
f 4//3 5//3 3//3
f 6//4 5//4 4//4
f 6//5 7//5 5//5
f 8//6 7//6 6//6
f 8//7 9//7 7//7
f 8//8 10//8 9//8
f 11//9 10//9 8//9
f 11//10 12//10 10//10
f 13//11 12//11 11//11
f 13//12 14//12 12//12
f 13//13 15//13 14//13
f 13//14 16//14 15//14
f 4//15 1//15 17//15
f 16//16 13//16 18//16
f 17//17 1//17 19//17
f 17//18 19//18 20//18
f 19//19 1//19 21//19
f 21//20 1//20 22//20
f 21//21 22//21 23//21
f 23//22 22//22 24//22
f 23//23 24//23 25//23
f 25//24 24//24 26//24
f 25//25 26//25 27//25
f 27//26 26//26 28//26
f 27//27 28//27 29//27
f 29//28 28//28 30//28
f 29//29 30//29 31//29
f 29//30 31//30 32//30
f 32//31 31//31 33//31
f 33//32 34//32 32//32
f 35//33 34//33 33//33
f 32//34 34//34 36//34
f 35//35 37//35 34//35
f 36//36 34//36 38//36
f 36//37 38//37 39//37
f 39//38 38//38 40//38
f 40//39 38//39 41//39
f 42//40 37//40 35//40
f 43//41 37//41 42//41
f 44//42 37//42 43//42
f 37//43 44//43 45//43
f 46//44 48//44 47//44
f 48//45 46//45 49//45
f 49//46 46//46 50//46
f 49//47 50//47 51//47
f 51//48 50//48 18//48
f 18//49 50//49 16//49
f 16//50 50//50 52//50
f 16//51 52//51 53//51
f 53//52 52//52 54//52
f 54//53 52//53 55//53
f 54//54 55//54 56//54
f 56//55 55//55 57//55
f 58//56 60//56 59//56
f 60//57 58//57 61//57
f 60//58 61//58 62//58
f 62//59 61//59 63//59
f 62//60 63//60 64//60
f 62//61 64//61 65//61
f 66//62 65//62 64//62
f 62//63 65//63 67//63
f 67//64 65//64 68//64
f 67//65 68//65 69//65
f 67//66 69//66 70//66
f 70//67 69//67 71//67
f 70//68 71//68 72//68
f 65//69 66//69 73//69
f 73//70 66//70 74//70
f 74//71 66//71 75//71
f 75//72 66//72 76//72
f 75//73 76//73 77//73
f 77//74 76//74 78//74
f 77//75 78//75 79//75
f 79//76 78//76 80//76
f 80//77 78//77 81//77
f 80//78 81//78 82//78
f 82//79 81//79 83//79
f 82//80 83//80 84//80
f 85//81 84//81 83//81
f 84//82 85//82 86//82
f 85//83 83//83 87//83
f 85//84 87//84 88//84
f 88//85 87//85 89//85
f 85//86 88//86 90//86
f 85//87 90//87 91//87
f 91//88 90//88 92//88
f 91//89 92//89 93//89
f 93//90 92//90 94//90
f 93//91 94//91 95//91
f 95//92 94//92 96//92
f 95//93 96//93 97//93
f 97//94 96//94 98//94
f 97//95 98//95 99//95
f 99//96 98//96 100//96
f 100//97 98//97 101//97
f 100//98 101//98 102//98
f 103//99 102//99 101//99
f 103//100 104//100 102//100
f 103//101 101//101 105//101
f 106//102 104//102 103//102
f 103//103 105//103 107//103
f 107//104 105//104 108//104
f 107//105 108//105 109//105
f 107//106 109//106 110//106
f 106//107 111//107 104//107
f 106//108 112//108 111//108
f 106//109 113//109 112//109
f 113//110 106//110 114//110
f 115//111 117//111 116//111
f 118//112 117//112 115//112
f 119//113 118//113 115//113
f 120//114 118//114 119//114
f 121//115 120//115 119//115
f 122//116 120//116 121//116
f 123//117 122//117 121//117
f 124//118 122//118 123//118
f 125//119 127//119 126//119
f 128//120 127//120 125//120
f 129//121 131//121 130//121
f 132//122 131//122 129//122
f 133//123 132//123 129//123
f 134//124 132//124 133//124
f 135//125 134//125 133//125
f 136//126 134//126 135//126
f 137//127 136//127 135//127
f 138//128 136//128 137//128
f 139//129 138//129 137//129
f 140//130 138//130 139//130
f 141//131 140//131 139//131
f 142//132 140//132 141//132
f 143//133 142//133 141//133
f 144//134 142//134 143//134
f 145//135 144//135 143//135
f 146//136 144//136 145//136
f 147//137 146//137 145//137
f 148//138 146//138 147//138
f 149//139 148//139 147//139
f 150//140 148//140 149//140
f 151//141 150//141 149//141
f 152//142 150//142 151//142
f 153//143 152//143 151//143
f 154//144 152//144 153//144
f 155//145 154//145 153//145
f 156//146 154//146 155//146
f 157//147 159//147 158//147
f 160//148 159//148 157//148
f 161//149 163//149 162//149
f 164//150 163//150 161//150
f 165//151 164//151 161//151
f 166//152 164//152 165//152
f 167//153 169//153 168//153
f 170//154 169//154 167//154
f 171//155 173//155 172//155
f 174//156 173//156 171//156
f 175//157 174//157 171//157
f 176//158 174//158 175//158
f 177//159 176//159 175//159
f 178//160 176//160 177//160
f 179//161 178//161 177//161
f 180//162 178//162 179//162
f 181//163 180//163 179//163
f 182//164 180//164 181//164
f 183//165 182//165 181//165
f 184//166 182//166 183//166
f 185//167 184//167 183//167
f 186//168 184//168 185//168
f 187//169 186//169 185//169
f 188//170 186//170 187//170
f 189//171 191//171 190//171
f 192//172 191//172 189//172
f 193//173 195//173 194//173
f 196//174 195//174 193//174
f 197//175 196//175 193//175
f 198//176 196//176 197//176
f 199//177 198//177 197//177
f 200//178 198//178 199//178
f 201//179 200//179 199//179
f 202//180 200//180 201//180
f 203//181 202//181 201//181
f 204//182 202//182 203//182
f 205//183 204//183 203//183
f 206//184 204//184 205//184
f 207//185 206//185 205//185
f 208//186 206//186 207//186
f 209//187 208//187 207//187
f 210//188 208//188 209//188
f 211//189 210//189 209//189
f 212//190 210//190 211//190
f 213//191 212//191 211//191
f 214//192 212//192 213//192
f 215//193 214//193 213//193
f 216//194 214//194 215//194
f 217//195 216//195 215//195
f 218//196 216//196 217//196
f 219//197 218//197 217//197
f 220//198 218//198 219//198
f 221//199 220//199 219//199
f 222//200 220//200 221//200
f 223//201 225//201 224//201
f 226//202 225//202 223//202
f 227//203 226//203 223//203
f 228//204 226//204 227//204
f 229//205 228//205 227//205
f 230//206 228//206 229//206
f 231//207 230//207 229//207
f 232//208 230//208 231//208
f 233//209 232//209 231//209
f 234//210 232//210 233//210
f 235//211 234//211 233//211
f 236//212 234//212 235//212
f 237//213 236//213 235//213
f 238//214 236//214 237//214
f 239//215 238//215 237//215
f 240//216 238//216 239//216
f 241//217 240//217 239//217
f 242//218 240//218 241//218
f 243//219 242//219 241//219
f 244//220 242//220 243//220
f 245//221 244//221 243//221
f 246//222 244//222 245//222
f 247//223 246//223 245//223
f 248//224 246//224 247//224

# Thank you for using Spin 3D

