# Created using Spin 3D

# Vertex Array 
v 0.250 0.200 0.500 0 0 0
v 0.250 0.200 -0.250 0 0 0
v 0.250 0.100 -0.250 0 0 0
v 0.250 0.100 0.500 0 0 0
v -0.500 0.200 0.250 0 0 0
v -0.500 0.100 0.250 0 0 0
v -0.500 0.100 -0.250 0 0 0
v -0.500 0.200 -0.250 0 0 0
v -0.500 0.200 0.250 0 0 0
v -0.500 0.200 -0.250 0 0 0
v 0.250 0.200 -0.250 0 0 0
v -0.250 0.200 0.250 0 0 0
v 0.250 0.200 0.500 0 0 0
v -0.250 0.200 0.500 0 0 0
v 0.250 0.200 -0.250 0 0 0
v -0.500 0.200 -0.250 0 0 0
v -0.500 0.100 -0.250 0 0 0
v 0.250 0.100 -0.250 0 0 0
v -0.250 0.200 0.250 0 0 0
v -0.250 0.100 0.250 0 0 0
v -0.500 0.100 0.250 0 0 0
v -0.500 0.200 0.250 0 0 0
v 0.250 0.100 -0.250 0 0 0
v -0.500 0.100 -0.250 0 0 0
v -0.500 0.100 0.250 0 0 0
v -0.250 0.100 0.250 0 0 0
v 0.250 0.100 0.500 0 0 0
v -0.250 0.100 0.500 0 0 0
v 0.250 0.200 0.500 0 0 0
v 0.250 0.100 0.500 0 0 0
v -0.250 0.100 0.500 0 0 0
v -0.250 0.200 0.500 0 0 0
v -0.250 0.200 0.500 0 0 0
v -0.250 0.100 0.500 0 0 0
v -0.250 0.100 0.250 0 0 0
v -0.250 0.200 0.250 0 0 0

# Normal Array
vn 1.000 -0.000 0.000
vn 1.000 -0.000 0.000
vn -1.000 0.000 -0.000
vn -1.000 0.000 -0.000
vn 0.000 1.000 0.000
vn 0.000 1.000 0.000
vn 0.000 1.000 0.000
vn 0.000 1.000 0.000
vn 0.000 0.000 -1.000
vn 0.000 0.000 -1.000
vn -0.000 -0.000 1.000
vn -0.000 -0.000 1.000
vn -0.000 -1.000 -0.000
vn -0.000 -1.000 -0.000
vn -0.000 -1.000 -0.000
vn -0.000 -1.000 -0.000
vn -0.000 0.000 1.000
vn -0.000 -0.000 1.000
vn -1.000 0.000 -0.000
vn -1.000 0.000 -0.000

# Facets
f 1//1 3//1 2//1
f 4//2 3//2 1//2
f 5//3 7//3 6//3
f 8//4 7//4 5//4
f 9//5 11//5 10//5
f 11//6 9//6 12//6
f 11//7 12//7 13//7
f 13//8 12//8 14//8
f 15//9 17//9 16//9
f 18//10 17//10 15//10
f 19//11 21//11 20//11
f 22//12 21//12 19//12
f 23//13 25//13 24//13
f 25//14 23//14 26//14
f 26//15 23//15 27//15
f 26//16 27//16 28//16
f 29//17 31//17 30//17
f 32//18 31//18 29//18
f 33//19 35//19 34//19
f 36//20 35//20 33//20

# Thank you for using Spin 3D

