# Created using Spin 3D

# Vertex Array 
v 0.029 0.021 0.142
v 0.003 0.021 0.144
v -0.022 0.021 0.142
v 0.051 0.021 0.135
v -0.044 0.021 0.135
v 0.068 0.021 0.124
v -0.061 0.021 0.124
v 0.081 0.021 0.111
v -0.074 0.021 0.111
v 0.003 0.021 0.105
v 0.019 0.021 0.102
v -0.012 0.021 0.102
v 0.031 0.021 0.095
v -0.024 0.021 0.095
v 0.089 0.021 0.094
v -0.082 0.021 0.094
v 0.039 0.021 0.083
v -0.032 0.021 0.083
v 0.092 0.021 0.076
v -0.085 0.021 0.076
v 0.042 0.021 0.069
v -0.035 0.021 0.069
v 0.090 0.021 0.059
v 0.039 0.021 0.054
v -0.083 0.021 0.059
v -0.032 0.021 0.054
v -0.025 0.021 0.043
v 0.083 0.021 0.043
v -0.076 0.021 0.043
v -0.013 0.021 0.036
v 0.032 0.021 0.043
v 0.020 0.021 0.036
v 0.003 0.021 0.034
v 0.072 0.021 0.029
v -0.065 0.021 0.029
v 0.056 0.021 0.018
v -0.049 0.021 0.018
v 0.003 0.021 -0.005
v 0.024 0.021 -0.008
v -0.017 0.021 -0.008
v 0.098 0.021 -0.012
v -0.091 0.021 -0.012
v 0.040 0.021 -0.018
v 0.051 0.021 -0.033
v 0.054 0.021 -0.053
v 0.112 0.021 -0.057
v 0.051 0.021 -0.071
v -0.033 0.021 -0.018
v -0.044 0.021 -0.033
v -0.047 0.021 -0.053
v -0.105 0.021 -0.057
v 0.108 0.021 -0.083
v 0.041 0.021 -0.086
v 0.025 0.021 -0.096
v -0.044 0.021 -0.071
v -0.101 0.021 -0.083
v 0.097 0.021 -0.105
v -0.090 0.021 -0.105
v -0.034 0.021 -0.086
v -0.018 0.021 -0.096
v 0.003 0.021 -0.100
v 0.081 0.021 -0.122
v -0.074 0.021 -0.122
v 0.059 0.021 -0.135
v -0.052 0.021 -0.135
v 0.033 0.021 -0.143
v -0.026 0.021 -0.143
v 0.003 0.021 -0.145
v -0.022 -0.000 0.142
v 0.003 -0.000 0.144
v 0.029 0.000 0.142
v 0.051 0.000 0.135
v -0.044 0.000 0.135
v 0.068 0.000 0.124
v -0.061 -0.000 0.124
v 0.081 0.000 0.111
v -0.074 -0.000 0.111
v 0.003 -0.000 0.105
v 0.019 0.000 0.102
v -0.012 0.000 0.102
v 0.031 0.000 0.095
v -0.024 0.000 0.095
v -0.082 0.000 0.094
v -0.032 0.000 0.083
v -0.085 -0.000 0.076
v -0.035 -0.000 0.069
v 0.089 0.000 0.094
v 0.039 0.000 0.083
v -0.083 -0.000 0.059
v -0.032 -0.000 0.054
v -0.025 -0.000 0.043
v 0.042 0.000 0.069
v 0.092 0.000 0.076
v 0.090 0.000 0.059
v 0.039 0.000 0.054
v -0.076 -0.000 0.043
v -0.013 0.000 0.036
v 0.083 0.000 0.043
v 0.003 0.000 0.034
v 0.032 0.000 0.043
v 0.020 0.000 0.036
v 0.072 0.000 0.029
v -0.065 0.000 0.029
v 0.056 0.000 0.018
v -0.049 0.000 0.018
v 0.003 0.000 -0.005
v 0.024 0.000 -0.008
v -0.017 0.000 -0.008
v 0.098 0.000 -0.012
v -0.091 -0.000 -0.012
v 0.040 0.000 -0.018
v 0.051 0.000 -0.033
v 0.054 -0.000 -0.053
v 0.112 0.000 -0.057
v 0.051 -0.000 -0.071
v -0.033 -0.000 -0.018
v -0.044 0.000 -0.033
v -0.047 0.000 -0.053
v -0.105 0.000 -0.057
v -0.044 -0.000 -0.071
v 0.108 0.000 -0.083
v 0.041 -0.000 -0.086
v 0.025 0.000 -0.096
v -0.101 0.000 -0.083
v -0.034 0.000 -0.086
v -0.018 0.000 -0.096
v 0.097 0.000 -0.105
v -0.090 -0.000 -0.105
v 0.003 -0.000 -0.100
v 0.081 -0.000 -0.122
v -0.074 -0.000 -0.122
v 0.059 -0.000 -0.135
v -0.052 -0.000 -0.135
v 0.033 0.000 -0.143
v -0.026 -0.000 -0.143
v 0.003 -0.000 -0.145
v -0.026 -0.000 -0.143
v 0.003 -0.000 -0.145
v 0.003 0.021 -0.145
v -0.026 0.021 -0.143
v -0.052 -0.000 -0.135
v -0.052 0.021 -0.135
v -0.074 -0.000 -0.122
v -0.074 0.021 -0.122
v -0.090 -0.000 -0.105
v -0.090 0.021 -0.105
v -0.101 0.000 -0.083
v -0.101 0.021 -0.083
v -0.105 0.000 -0.057
v -0.105 0.021 -0.057
v -0.091 -0.000 -0.012
v -0.091 0.021 -0.012
v -0.049 0.000 0.018
v -0.091 -0.000 -0.012
v -0.091 0.021 -0.012
v -0.049 0.021 0.018
v -0.065 0.000 0.029
v -0.049 0.000 0.018
v -0.049 0.021 0.018
v -0.065 0.021 0.029
v -0.076 -0.000 0.043
v -0.076 0.021 0.043
v -0.083 -0.000 0.059
v -0.083 0.021 0.059
v -0.085 -0.000 0.076
v -0.085 0.021 0.076
v -0.082 0.000 0.094
v -0.082 0.021 0.094
v -0.074 -0.000 0.111
v -0.074 0.021 0.111
v -0.061 -0.000 0.124
v -0.061 0.021 0.124
v -0.044 0.000 0.135
v -0.044 0.021 0.135
v -0.022 -0.000 0.142
v -0.022 0.021 0.142
v 0.003 -0.000 0.144
v 0.003 0.021 0.144
v 0.029 0.000 0.142
v 0.029 0.021 0.142
v 0.051 0.000 0.135
v 0.051 0.021 0.135
v 0.068 0.000 0.124
v 0.068 0.021 0.124
v 0.081 0.000 0.111
v 0.081 0.021 0.111
v 0.089 0.000 0.094
v 0.089 0.021 0.094
v 0.092 0.000 0.076
v 0.092 0.021 0.076
v 0.090 0.000 0.059
v 0.090 0.021 0.059
v 0.083 0.000 0.043
v 0.083 0.021 0.043
v 0.072 0.000 0.029
v 0.072 0.021 0.029
v 0.056 0.000 0.018
v 0.056 0.021 0.018
v 0.098 0.000 -0.012
v 0.056 0.000 0.018
v 0.056 0.021 0.018
v 0.098 0.021 -0.012
v 0.112 0.000 -0.057
v 0.098 0.000 -0.012
v 0.098 0.021 -0.012
v 0.112 0.021 -0.057
v 0.108 0.000 -0.083
v 0.108 0.021 -0.083
v 0.097 0.000 -0.105
v 0.097 0.021 -0.105
v 0.081 -0.000 -0.122
v 0.081 0.021 -0.122
v 0.059 -0.000 -0.135
v 0.059 0.021 -0.135
v 0.033 0.000 -0.143
v 0.033 0.021 -0.143
v 0.003 -0.000 -0.145
v 0.003 0.021 -0.145
v 0.020 0.000 0.036
v 0.003 0.000 0.034
v 0.003 0.021 0.034
v 0.020 0.021 0.036
v 0.032 0.000 0.043
v 0.032 0.021 0.043
v 0.039 0.000 0.054
v 0.039 0.021 0.054
v 0.042 0.000 0.069
v 0.042 0.021 0.069
v 0.039 0.000 0.083
v 0.039 0.021 0.083
v 0.031 0.000 0.095
v 0.031 0.021 0.095
v 0.019 0.000 0.102
v 0.019 0.021 0.102
v 0.003 -0.000 0.105
v 0.003 0.021 0.105
v -0.012 0.000 0.102
v -0.012 0.021 0.102
v -0.024 0.000 0.095
v -0.024 0.021 0.095
v -0.032 0.000 0.083
v -0.032 0.021 0.083
v -0.035 -0.000 0.069
v -0.035 0.021 0.069
v -0.032 -0.000 0.054
v -0.032 0.021 0.054
v -0.025 -0.000 0.043
v -0.025 0.021 0.043
v -0.013 0.000 0.036
v -0.013 0.021 0.036
v 0.003 0.000 0.034
v 0.003 0.021 0.034
v 0.025 0.000 -0.096
v 0.003 -0.000 -0.100
v 0.003 0.021 -0.100
v 0.025 0.021 -0.096
v 0.041 -0.000 -0.086
v 0.041 0.021 -0.086
v 0.051 -0.000 -0.071
v 0.051 0.021 -0.071
v 0.054 -0.000 -0.053
v 0.054 0.021 -0.053
v 0.051 0.000 -0.033
v 0.051 0.021 -0.033
v 0.040 0.000 -0.018
v 0.040 0.021 -0.018
v 0.024 0.000 -0.008
v 0.024 0.021 -0.008
v 0.003 0.000 -0.005
v 0.003 0.021 -0.005
v -0.017 0.000 -0.008
v -0.017 0.021 -0.008
v -0.033 -0.000 -0.018
v -0.033 0.021 -0.018
v -0.044 0.000 -0.033
v -0.044 0.021 -0.033
v -0.047 0.000 -0.053
v -0.047 0.021 -0.053
v -0.044 -0.000 -0.071
v -0.044 0.021 -0.071
v -0.034 0.000 -0.086
v -0.034 0.021 -0.086
v -0.018 0.000 -0.096
v -0.018 0.021 -0.096
v 0.003 -0.000 -0.100
v 0.003 0.021 -0.100

# Normal Array
vn -0.000 1.000 0.000
vn -0.000 1.000 -0.000
vn 0.000 1.000 0.000
vn 0.000 1.000 0.000
vn -0.000 1.000 -0.000
vn -0.000 1.000 -0.000
vn -0.000 1.000 0.000
vn -0.000 1.000 0.000
vn -0.000 1.000 0.000
vn -0.000 1.000 -0.000
vn -0.000 1.000 0.000
vn 0.000 1.000 -0.000
vn 0.000 1.000 0.000
vn 0.000 1.000 -0.000
vn 0.000 1.000 -0.000
vn 0.000 1.000 -0.000
vn 0.000 1.000 0.000
vn 0.000 1.000 0.000
vn 0.000 1.000 0.000
vn 0.000 1.000 0.000
vn 0.000 1.000 0.000
vn -0.000 1.000 -0.000
vn -0.000 1.000 -0.000
vn -0.000 1.000 0.000
vn -0.000 1.000 -0.000
vn -0.000 1.000 0.000
vn -0.000 1.000 -0.000
vn -0.000 1.000 0.000
vn -0.000 1.000 0.000
vn -0.000 1.000 0.000
vn -0.000 1.000 -0.000
vn 0.000 1.000 -0.000
vn -0.000 1.000 -0.000
vn -0.000 1.000 0.000
vn -0.000 1.000 -0.000
vn -0.000 1.000 0.000
vn -0.000 1.000 -0.000
vn -0.000 1.000 -0.000
vn -0.000 1.000 0.000
vn -0.000 1.000 -0.000
vn -0.000 1.000 0.000
vn -0.000 1.000 -0.000
vn -0.000 1.000 -0.000
vn -0.000 1.000 -0.000
vn -0.000 1.000 0.000
vn -0.000 1.000 -0.000
vn -0.000 1.000 -0.000
vn -0.000 1.000 0.000
vn -0.000 1.000 -0.000
vn 0.000 1.000 0.000
vn -0.000 1.000 0.000
vn -0.000 1.000 -0.000
vn -0.000 1.000 -0.000
vn -0.000 1.000 0.000
vn -0.000 1.000 -0.000
vn 0.000 1.000 -0.000
vn -0.000 1.000 0.000
vn -0.000 1.000 0.000
vn -0.000 1.000 0.000
vn 0.000 1.000 0.000
vn -0.000 1.000 -0.000
vn 0.000 1.000 -0.000
vn -0.000 1.000 0.000
vn -0.000 1.000 0.000
vn -0.000 1.000 -0.000
vn -0.000 1.000 -0.000
vn -0.000 1.000 -0.000
vn -0.000 1.000 -0.000
vn 0.000 1.000 0.000
vn 0.000 1.000 -0.000
vn 0.000 -1.000 0.000
vn 0.000 -1.000 -0.000
vn 0.000 -1.000 -0.000
vn 0.000 -1.000 0.000
vn 0.000 -1.000 0.000
vn 0.000 -1.000 -0.000
vn 0.000 -1.000 -0.000
vn 0.000 -1.000 0.000
vn 0.000 -1.000 -0.000
vn -0.000 -1.000 -0.000
vn 0.000 -1.000 0.000
vn 0.000 -1.000 -0.000
vn 0.000 -1.000 -0.000
vn 0.000 -1.000 -0.000
vn 0.000 -1.000 0.000
vn 0.000 -1.000 0.000
vn 0.000 -1.000 0.000
vn 0.000 -1.000 -0.000
vn 0.000 -1.000 -0.000
vn -0.000 -1.000 0.000
vn -0.000 -1.000 0.000
vn 0.000 -1.000 0.000
vn 0.000 -1.000 -0.000
vn 0.000 -1.000 0.000
vn 0.000 -1.000 0.000
vn 0.000 -1.000 0.000
vn 0.000 -1.000 -0.000
vn 0.000 -1.000 0.000
vn 0.000 -1.000 0.000
vn 0.000 -1.000 0.000
vn 0.000 -1.000 -0.000
vn 0.000 -1.000 -0.000
vn 0.000 -1.000 -0.000
vn 0.000 -1.000 -0.000
vn 0.000 -1.000 -0.000
vn 0.000 -1.000 -0.000
vn 0.000 -1.000 0.000
vn 0.000 -1.000 0.000
vn 0.000 -1.000 0.000
vn 0.000 -1.000 0.000
vn 0.000 -1.000 0.000
vn 0.000 -1.000 0.000
vn 0.000 -1.000 0.000
vn 0.000 -1.000 -0.000
vn -0.000 -1.000 0.000
vn 0.000 -1.000 0.000
vn 0.000 -1.000 0.000
vn 0.000 -1.000 0.000
vn -0.000 -1.000 -0.000
vn 0.000 -1.000 0.000
vn -0.000 -1.000 -0.000
vn -0.000 -1.000 0.000
vn 0.000 -1.000 -0.000
vn 0.000 -1.000 -0.000
vn 0.000 -1.000 -0.000
vn -0.000 -1.000 0.000
vn 0.000 -1.000 -0.000
vn 0.000 -1.000 0.000
vn 0.000 -1.000 -0.000
vn 0.000 -1.000 0.000
vn 0.000 -1.000 -0.000
vn -0.000 -1.000 0.000
vn 0.000 -1.000 -0.000
vn 0.000 -1.000 0.000
vn 0.000 -1.000 0.000
vn 0.000 -1.000 0.000
vn 0.000 -1.000 -0.000
vn 0.000 -1.000 -0.000
vn 0.000 -1.000 0.000
vn 0.000 -1.000 0.000
vn -0.090 0.000 -0.996
vn -0.090 0.000 -0.996
vn -0.288 0.000 -0.958
vn -0.288 -0.000 -0.958
vn -0.504 0.000 -0.864
vn -0.504 0.000 -0.864
vn -0.721 0.000 -0.692
vn -0.721 -0.000 -0.692
vn -0.897 -0.000 -0.441
vn -0.897 -0.000 -0.441
vn -0.990 0.000 -0.139
vn -0.990 -0.000 -0.139
vn -0.956 0.000 0.292
vn -0.956 -0.000 0.292
vn -0.575 -0.000 0.818
vn -0.575 0.000 0.818
vn -0.566 0.000 -0.824
vn -0.566 -0.000 -0.824
vn -0.786 0.000 -0.619
vn -0.786 -0.000 -0.619
vn -0.931 0.000 -0.365
vn -0.931 -0.000 -0.365
vn -0.993 -0.000 -0.122
vn -0.993 -0.000 -0.122
vn -0.990 -0.000 0.141
vn -0.990 0.000 0.141
vn -0.903 0.000 0.431
vn -0.903 0.000 0.431
vn -0.733 0.000 0.680
vn -0.733 0.000 0.680
vn -0.514 0.000 0.858
vn -0.514 0.000 0.858
vn -0.292 0.000 0.957
vn -0.292 0.000 0.957
vn -0.086 0.000 0.996
vn -0.086 -0.000 0.996
vn 0.086 0.000 0.996
vn 0.086 0.000 0.996
vn 0.292 0.000 0.957
vn 0.292 0.000 0.957
vn 0.514 0.000 0.858
vn 0.514 0.000 0.858
vn 0.733 0.000 0.680
vn 0.733 0.000 0.680
vn 0.903 0.000 0.431
vn 0.903 -0.000 0.431
vn 0.990 -0.000 0.141
vn 0.990 0.000 0.141
vn 0.993 0.000 -0.122
vn 0.993 0.000 -0.122
vn 0.931 0.000 -0.365
vn 0.931 0.000 -0.365
vn 0.786 0.000 -0.619
vn 0.786 -0.000 -0.619
vn 0.566 -0.000 -0.824
vn 0.566 -0.000 -0.824
vn 0.575 0.000 0.818
vn 0.575 0.000 0.818
vn 0.956 0.000 0.292
vn 0.956 0.000 0.292
vn 0.990 -0.000 -0.139
vn 0.990 0.000 -0.139
vn 0.897 0.000 -0.441
vn 0.897 0.000 -0.441
vn 0.721 0.000 -0.692
vn 0.721 0.000 -0.692
vn 0.504 -0.000 -0.864
vn 0.504 -0.000 -0.864
vn 0.288 -0.000 -0.958
vn 0.288 -0.000 -0.958
vn 0.090 -0.000 -0.996
vn 0.090 -0.000 -0.996
vn -0.148 0.000 0.989
vn -0.148 0.000 0.989
vn -0.514 0.000 0.857
vn -0.514 0.000 0.857
vn -0.829 0.000 0.560
vn -0.829 0.000 0.560
vn -0.985 0.000 0.175
vn -0.985 -0.000 0.175
vn -0.985 0.000 -0.173
vn -0.985 0.000 -0.173
vn -0.833 0.000 -0.554
vn -0.833 -0.000 -0.554
vn -0.528 0.000 -0.849
vn -0.528 0.000 -0.849
vn -0.157 0.000 -0.988
vn -0.157 0.000 -0.988
vn 0.157 -0.000 -0.988
vn 0.157 0.000 -0.988
vn 0.528 0.000 -0.849
vn 0.528 0.000 -0.849
vn 0.833 0.000 -0.554
vn 0.833 -0.000 -0.554
vn 0.985 -0.000 -0.173
vn 0.985 0.000 -0.173
vn 0.985 0.000 0.175
vn 0.985 -0.000 0.175
vn 0.829 -0.000 0.560
vn 0.829 -0.000 0.560
vn 0.514 -0.000 0.857
vn 0.514 -0.000 0.857
vn 0.148 -0.000 0.989
vn 0.148 0.000 0.989
vn -0.150 0.000 0.989
vn -0.150 0.000 0.989
vn -0.531 0.000 0.847
vn -0.531 -0.000 0.847
vn -0.842 -0.000 0.539
vn -0.842 0.000 0.539
vn -0.986 0.000 0.170
vn -0.986 -0.000 0.170
vn -0.984 -0.000 -0.177
vn -0.984 0.000 -0.177
vn -0.822 0.000 -0.570
vn -0.822 -0.000 -0.570
vn -0.518 -0.000 -0.855
vn -0.518 -0.000 -0.855
vn -0.158 -0.000 -0.987
vn -0.158 -0.000 -0.987
vn 0.158 -0.000 -0.987
vn 0.158 0.000 -0.987
vn 0.518 0.000 -0.855
vn 0.518 0.000 -0.855
vn 0.822 0.000 -0.570
vn 0.822 -0.000 -0.570
vn 0.984 -0.000 -0.177
vn 0.984 0.000 -0.177
vn 0.986 0.000 0.170
vn 0.986 -0.000 0.170
vn 0.842 -0.000 0.539
vn 0.842 0.000 0.539
vn 0.531 0.000 0.847
vn 0.531 0.000 0.847
vn 0.150 0.000 0.989
vn 0.150 0.000 0.989

# Facets
f 1//1 3//1 2//1
f 4//2 3//2 1//2
f 4//3 5//3 3//3
f 6//4 5//4 4//4
f 6//5 7//5 5//5
f 8//6 7//6 6//6
f 8//7 9//7 7//7
f 8//8 10//8 9//8
f 8//9 11//9 10//9
f 12//10 9//10 10//10
f 8//11 13//11 11//11
f 14//12 9//12 12//12
f 15//13 13//13 8//13
f 9//14 14//14 16//14
f 15//15 17//15 13//15
f 18//16 16//16 14//16
f 19//17 17//17 15//17
f 18//18 20//18 16//18
f 19//19 21//19 17//19
f 20//20 18//20 22//20
f 23//21 21//21 19//21
f 23//22 24//22 21//22
f 22//23 25//23 20//23
f 26//24 25//24 22//24
f 27//25 25//25 26//25
f 28//26 24//26 23//26
f 27//27 29//27 25//27
f 30//28 29//28 27//28
f 28//29 31//29 24//29
f 28//30 32//30 31//30
f 33//31 29//31 30//31
f 28//32 33//32 32//32
f 33//33 28//33 34//33
f 33//34 35//34 29//34
f 34//35 35//35 33//35
f 36//36 35//36 34//36
f 36//37 37//37 35//37
f 36//38 38//38 37//38
f 36//39 39//39 38//39
f 40//40 37//40 38//40
f 41//41 39//41 36//41
f 40//42 42//42 37//42
f 41//43 43//43 39//43
f 41//44 44//44 43//44
f 41//45 45//45 44//45
f 46//46 45//46 41//46
f 46//47 47//47 45//47
f 48//48 42//48 40//48
f 49//49 42//49 48//49
f 50//50 42//50 49//50
f 50//51 51//51 42//51
f 52//52 47//52 46//52
f 52//53 53//53 47//53
f 52//54 54//54 53//54
f 55//55 51//55 50//55
f 51//56 55//56 56//56
f 57//57 54//57 52//57
f 55//58 58//58 56//58
f 59//59 58//59 55//59
f 60//60 58//60 59//60
f 54//61 57//61 61//61
f 61//62 58//62 60//62
f 57//63 58//63 61//63
f 62//64 58//64 57//64
f 62//65 63//65 58//65
f 64//66 63//66 62//66
f 64//67 65//67 63//67
f 66//68 65//68 64//68
f 66//69 67//69 65//69
f 67//70 66//70 68//70
f 69//71 71//71 70//71
f 69//72 72//72 71//72
f 73//73 72//73 69//73
f 73//74 74//74 72//74
f 75//75 74//75 73//75
f 75//76 76//76 74//76
f 77//77 76//77 75//77
f 78//78 76//78 77//78
f 79//79 76//79 78//79
f 77//80 80//80 78//80
f 81//81 76//81 79//81
f 77//82 82//82 80//82
f 83//83 82//83 77//83
f 83//84 84//84 82//84
f 85//85 84//85 83//85
f 85//86 86//86 84//86
f 81//87 87//87 76//87
f 87//88 81//88 88//88
f 89//89 86//89 85//89
f 89//90 90//90 86//90
f 89//91 91//91 90//91
f 88//92 92//92 87//92
f 87//93 92//93 93//93
f 92//94 94//94 93//94
f 95//95 94//95 92//95
f 96//96 91//96 89//96
f 96//97 97//97 91//97
f 95//98 98//98 94//98
f 96//99 99//99 97//99
f 100//100 98//100 95//100
f 101//101 98//101 100//101
f 99//102 98//102 101//102
f 98//103 99//103 102//103
f 103//104 99//104 96//104
f 103//105 102//105 99//105
f 103//106 104//106 102//106
f 105//107 104//107 103//107
f 106//108 104//108 105//108
f 107//109 104//109 106//109
f 105//110 108//110 106//110
f 107//111 109//111 104//111
f 110//112 108//112 105//112
f 111//113 109//113 107//113
f 112//114 109//114 111//114
f 113//115 109//115 112//115
f 113//116 114//116 109//116
f 114//117 113//117 115//117
f 110//118 116//118 108//118
f 110//119 117//119 116//119
f 110//120 118//120 117//120
f 118//121 110//121 119//121
f 119//122 120//122 118//122
f 115//123 121//123 114//123
f 122//124 121//124 115//124
f 123//125 121//125 122//125
f 124//126 120//126 119//126
f 124//127 125//127 120//127
f 124//128 126//128 125//128
f 123//129 127//129 121//129
f 128//130 126//130 124//130
f 127//131 123//131 129//131
f 128//132 129//132 126//132
f 128//133 127//133 129//133
f 128//134 130//134 127//134
f 131//135 130//135 128//135
f 131//136 132//136 130//136
f 133//137 132//137 131//137
f 133//138 134//138 132//138
f 135//139 134//139 133//139
f 134//140 135//140 136//140
f 137//141 139//141 138//141
f 140//142 139//142 137//142
f 141//143 140//143 137//143
f 142//144 140//144 141//144
f 143//145 142//145 141//145
f 144//146 142//146 143//146
f 145//147 144//147 143//147
f 146//148 144//148 145//148
f 147//149 146//149 145//149
f 148//150 146//150 147//150
f 149//151 148//151 147//151
f 150//152 148//152 149//152
f 151//153 150//153 149//153
f 152//154 150//154 151//154
f 153//155 155//155 154//155
f 156//156 155//156 153//156
f 157//157 159//157 158//157
f 160//158 159//158 157//158
f 161//159 160//159 157//159
f 162//160 160//160 161//160
f 163//161 162//161 161//161
f 164//162 162//162 163//162
f 165//163 164//163 163//163
f 166//164 164//164 165//164
f 167//165 166//165 165//165
f 168//166 166//166 167//166
f 169//167 168//167 167//167
f 170//168 168//168 169//168
f 171//169 170//169 169//169
f 172//170 170//170 171//170
f 173//171 172//171 171//171
f 174//172 172//172 173//172
f 175//173 174//173 173//173
f 176//174 174//174 175//174
f 177//175 176//175 175//175
f 178//176 176//176 177//176
f 179//177 178//177 177//177
f 180//178 178//178 179//178
f 181//179 180//179 179//179
f 182//180 180//180 181//180
f 183//181 182//181 181//181
f 184//182 182//182 183//182
f 185//183 184//183 183//183
f 186//184 184//184 185//184
f 187//185 186//185 185//185
f 188//186 186//186 187//186
f 189//187 188//187 187//187
f 190//188 188//188 189//188
f 191//189 190//189 189//189
f 192//190 190//190 191//190
f 193//191 192//191 191//191
f 194//192 192//192 193//192
f 195//193 194//193 193//193
f 196//194 194//194 195//194
f 197//195 196//195 195//195
f 198//196 196//196 197//196
f 199//197 201//197 200//197
f 202//198 201//198 199//198
f 203//199 205//199 204//199
f 206//200 205//200 203//200
f 207//201 206//201 203//201
f 208//202 206//202 207//202
f 209//203 208//203 207//203
f 210//204 208//204 209//204
f 211//205 210//205 209//205
f 212//206 210//206 211//206
f 213//207 212//207 211//207
f 214//208 212//208 213//208
f 215//209 214//209 213//209
f 216//210 214//210 215//210
f 217//211 216//211 215//211
f 218//212 216//212 217//212
f 219//213 221//213 220//213
f 222//214 221//214 219//214
f 223//215 222//215 219//215
f 224//216 222//216 223//216
f 225//217 224//217 223//217
f 226//218 224//218 225//218
f 227//219 226//219 225//219
f 228//220 226//220 227//220
f 229//221 228//221 227//221
f 230//222 228//222 229//222
f 231//223 230//223 229//223
f 232//224 230//224 231//224
f 233//225 232//225 231//225
f 234//226 232//226 233//226
f 235//227 234//227 233//227
f 236//228 234//228 235//228
f 237//229 236//229 235//229
f 238//230 236//230 237//230
f 239//231 238//231 237//231
f 240//232 238//232 239//232
f 241//233 240//233 239//233
f 242//234 240//234 241//234
f 243//235 242//235 241//235
f 244//236 242//236 243//236
f 245//237 244//237 243//237
f 246//238 244//238 245//238
f 247//239 246//239 245//239
f 248//240 246//240 247//240
f 249//241 248//241 247//241
f 250//242 248//242 249//242
f 251//243 250//243 249//243
f 252//244 250//244 251//244
f 253//245 255//245 254//245
f 256//246 255//246 253//246
f 257//247 256//247 253//247
f 258//248 256//248 257//248
f 259//249 258//249 257//249
f 260//250 258//250 259//250
f 261//251 260//251 259//251
f 262//252 260//252 261//252
f 263//253 262//253 261//253
f 264//254 262//254 263//254
f 265//255 264//255 263//255
f 266//256 264//256 265//256
f 267//257 266//257 265//257
f 268//258 266//258 267//258
f 269//259 268//259 267//259
f 270//260 268//260 269//260
f 271//261 270//261 269//261
f 272//262 270//262 271//262
f 273//263 272//263 271//263
f 274//264 272//264 273//264
f 275//265 274//265 273//265
f 276//266 274//266 275//266
f 277//267 276//267 275//267
f 278//268 276//268 277//268
f 279//269 278//269 277//269
f 280//270 278//270 279//270
f 281//271 280//271 279//271
f 282//272 280//272 281//272
f 283//273 282//273 281//273
f 284//274 282//274 283//274
f 285//275 284//275 283//275
f 286//276 284//276 285//276

# Thank you for using Spin 3D

