# Created using Spin 3D

# Vertex Array 
v 0.000 0.130 -0.284 0 0 0
v -0.500 0.130 -0.284 0 0 0
v -0.500 0.130 -0.216 0 0 0
v 0.500 0.130 -0.284 0 0 0
v 0.500 0.130 -0.216 0 0 0
v -0.500 0.130 -0.216 0 0 0
v -0.500 0.260 -0.216 0 0 0
v 0.000 0.260 -0.216 0 0 0
v 0.500 0.130 -0.216 0 0 0
v 0.500 0.260 -0.216 0 0 0
v -0.500 0.200 -0.250 0 0 0
v 0.000 0.200 -0.250 0 0 0
v 0.000 0.200 -0.000 0 0 0
v -0.500 0.200 0.000 0 0 0
v -0.500 0.200 0.250 0 0 0
v 0.000 0.200 0.250 0 0 0
v -0.500 0.200 -0.250 0 0 0
v -0.500 0.142 -0.250 0 0 0
v 0.000 0.200 -0.250 0 0 0
v 0.000 0.142 -0.250 0 0 0
v 0.500 0.142 -0.250 0 0 0
v 0.500 0.200 -0.250 0 0 0
v 0.000 0.200 -0.250 0 0 0
v 0.500 0.200 -0.250 0 0 0
v 0.000 0.200 -0.000 0 0 0
v 0.500 0.200 -0.000 0 0 0
v 0.500 0.200 0.250 0 0 0
v 0.000 0.200 0.250 0 0 0
v 0.000 0.260 -0.284 0 0 0
v 0.500 0.260 -0.284 0 0 0
v 0.500 0.260 -0.216 0 0 0
v 0.000 0.260 -0.216 0 0 0
v 0.000 0.260 -0.284 0 0 0
v -0.500 0.260 -0.216 0 0 0
v -0.500 0.260 -0.284 0 0 0
v 0.500 0.260 -0.284 0 0 0
v 0.000 0.260 -0.284 0 0 0
v 0.000 0.130 -0.284 0 0 0
v 0.500 0.130 -0.284 0 0 0
v 0.000 0.260 -0.284 0 0 0
v -0.500 0.130 -0.284 0 0 0
v -0.500 0.260 -0.284 0 0 0
v 0.500 0.142 -0.000 0 0 0
v 0.500 0.142 -0.250 0 0 0
v 0.000 0.142 -0.250 0 0 0
v 0.000 0.142 -0.000 0 0 0
v -0.500 0.142 0.000 0 0 0
v -0.500 0.142 -0.250 0 0 0
v 0.000 0.142 0.250 0 0 0
v 0.500 0.142 0.250 0 0 0
v -0.500 0.142 0.250 0 0 0
v 0.500 0.130 0.284 0 0 0
v 0.500 0.130 0.216 0 0 0
v -0.500 0.130 0.216 0 0 0
v -0.500 0.130 0.284 0 0 0
v 0.000 0.130 0.284 0 0 0
v -0.500 0.260 0.216 0 0 0
v -0.500 0.130 0.216 0 0 0
v 0.500 0.130 0.216 0 0 0
v 0.000 0.260 0.216 0 0 0
v 0.500 0.260 0.216 0 0 0
v -0.500 0.142 0.250 0 0 0
v -0.500 0.200 0.250 0 0 0
v 0.000 0.200 0.250 0 0 0
v 0.000 0.142 0.250 0 0 0
v 0.500 0.142 0.250 0 0 0
v 0.500 0.200 0.250 0 0 0
v 0.500 0.260 0.284 0 0 0
v 0.000 0.260 0.284 0 0 0
v 0.500 0.260 0.216 0 0 0
v 0.000 0.260 0.216 0 0 0
v 0.000 0.260 0.284 0 0 0
v -0.500 0.260 0.216 0 0 0
v -0.500 0.260 0.284 0 0 0
v 0.500 0.260 0.284 0 0 0
v 0.500 0.130 0.284 0 0 0
v 0.000 0.130 0.284 0 0 0
v 0.000 0.260 0.284 0 0 0
v 0.000 0.260 0.284 0 0 0
v -0.500 0.130 0.284 0 0 0
v -0.500 0.260 0.284 0 0 0
v -0.039 0.469 -0.216 0 0 0
v -0.039 0.469 -0.000 0 0 0
v 0.000 0.469 -0.216 0 0 0
v -0.000 0.469 -0.000 0 0 0
v 0.039 0.469 -0.216 0 0 0
v 0.039 0.469 -0.000 0 0 0
v 0.039 0.469 0.216 0 0 0
v 0.000 0.469 0.216 0 0 0
v -0.039 0.469 0.216 0 0 0
v 0.012 0.520 -0.326 0 0 0
v 0.000 0.520 -0.328 0 0 0
v 0.000 0.469 -0.328 0 0 0
v 0.012 0.469 -0.326 0 0 0
v 0.023 0.520 -0.321 0 0 0
v 0.023 0.469 -0.321 0 0 0
v 0.032 0.520 -0.312 0 0 0
v 0.032 0.469 -0.312 0 0 0
v 0.037 0.520 -0.301 0 0 0
v 0.037 0.469 -0.301 0 0 0
v 0.039 0.520 -0.289 0 0 0
v 0.039 0.469 -0.289 0 0 0
v 0.039 0.520 -0.216 0 0 0
v 0.023 0.130 -0.321 0 0 0
v 0.012 0.130 -0.326 0 0 0
v 0.032 0.130 -0.312 0 0 0
v 0.000 0.469 -0.328 0 0 0
v 0.037 0.130 -0.301 0 0 0
v 0.000 0.130 -0.328 0 0 0
v 0.039 0.130 -0.289 0 0 0
v -0.012 0.469 -0.326 0 0 0
v -0.012 0.130 -0.326 0 0 0
v 0.039 0.260 -0.284 0 0 0
v 0.039 0.130 -0.284 0 0 0
v 0.039 0.469 -0.216 0 0 0
v 0.039 0.260 -0.216 0 0 0
v 0.039 0.469 -0.000 0 0 0
v 0.039 0.520 -0.000 0 0 0
v 0.039 0.520 0.216 0 0 0
v 0.039 0.469 0.216 0 0 0
v 0.039 0.469 0.289 0 0 0
v 0.039 0.260 0.216 0 0 0
v 0.039 0.260 0.284 0 0 0
v 0.039 0.130 0.284 0 0 0
v 0.039 0.520 0.289 0 0 0
v 0.039 0.130 0.289 0 0 0
v 0.037 0.469 0.301 0 0 0
v 0.037 0.520 0.301 0 0 0
v 0.037 0.130 0.301 0 0 0
v 0.032 0.469 0.312 0 0 0
v 0.032 0.520 0.312 0 0 0
v 0.032 0.130 0.312 0 0 0
v 0.023 0.469 0.321 0 0 0
v 0.023 0.520 0.321 0 0 0
v 0.023 0.130 0.321 0 0 0
v 0.012 0.469 0.326 0 0 0
v 0.012 0.520 0.326 0 0 0
v 0.012 0.130 0.326 0 0 0
v 0.000 0.469 0.328 0 0 0
v 0.000 0.520 0.328 0 0 0
v 0.000 0.469 0.328 0 0 0
v 0.000 0.130 0.328 0 0 0
v -0.012 0.469 0.326 0 0 0
v -0.012 0.130 0.326 0 0 0
v -0.023 0.469 0.321 0 0 0
v -0.023 0.130 0.321 0 0 0
v -0.032 0.469 0.312 0 0 0
v -0.032 0.130 0.312 0 0 0
v -0.037 0.469 0.301 0 0 0
v -0.037 0.130 0.301 0 0 0
v -0.039 0.469 0.289 0 0 0
v -0.039 0.130 0.289 0 0 0
v -0.039 0.260 0.284 0 0 0
v -0.039 0.130 0.284 0 0 0
v -0.039 0.469 0.216 0 0 0
v -0.039 0.260 0.216 0 0 0
v -0.012 0.520 0.326 0 0 0
v 0.000 0.520 0.328 0 0 0
v 0.000 0.469 0.328 0 0 0
v -0.023 0.520 0.321 0 0 0
v -0.032 0.520 0.312 0 0 0
v -0.037 0.520 0.301 0 0 0
v -0.039 0.520 0.289 0 0 0
v -0.039 0.520 0.216 0 0 0
v -0.039 0.520 -0.000 0 0 0
v -0.039 0.469 -0.000 0 0 0
v -0.039 0.469 -0.216 0 0 0
v -0.039 0.520 -0.216 0 0 0
v -0.039 0.520 -0.289 0 0 0
v -0.039 0.469 -0.289 0 0 0
v -0.039 0.260 -0.216 0 0 0
v -0.039 0.260 -0.284 0 0 0
v -0.039 0.130 -0.284 0 0 0
v -0.039 0.130 -0.289 0 0 0
v -0.037 0.520 -0.301 0 0 0
v -0.037 0.130 -0.301 0 0 0
v -0.037 0.469 -0.301 0 0 0
v -0.032 0.520 -0.312 0 0 0
v -0.032 0.130 -0.312 0 0 0
v -0.032 0.469 -0.312 0 0 0
v -0.023 0.520 -0.321 0 0 0
v -0.023 0.130 -0.321 0 0 0
v -0.023 0.469 -0.321 0 0 0
v -0.012 0.520 -0.326 0 0 0
v 0.000 0.520 -0.328 0 0 0
v 0.000 0.469 -0.328 0 0 0
v -0.039 0.130 -0.289 0 0 0
v -0.039 0.130 -0.284 0 0 0
v 0.000 0.130 -0.284 0 0 0
v -0.037 0.130 -0.301 0 0 0
v -0.032 0.130 -0.312 0 0 0
v -0.023 0.130 -0.321 0 0 0
v -0.012 0.130 -0.326 0 0 0
v 0.000 0.130 -0.328 0 0 0
v 0.012 0.130 -0.326 0 0 0
v 0.023 0.130 -0.321 0 0 0
v 0.032 0.130 -0.312 0 0 0
v 0.037 0.130 -0.301 0 0 0
v 0.039 0.130 -0.289 0 0 0
v 0.039 0.130 -0.284 0 0 0
v 0.000 0.469 -0.216 0 0 0
v 0.039 0.469 -0.216 0 0 0
v 0.039 0.260 -0.216 0 0 0
v 0.000 0.260 -0.216 0 0 0
v -0.039 0.260 -0.216 0 0 0
v -0.039 0.469 -0.216 0 0 0
v 0.000 0.520 0.328 0 0 0
v -0.012 0.520 0.326 0 0 0
v -0.023 0.520 0.321 0 0 0
v -0.032 0.520 0.312 0 0 0
v -0.037 0.520 0.301 0 0 0
v -0.039 0.520 0.289 0 0 0
v -0.039 0.520 0.216 0 0 0
v 0.000 0.520 0.216 0 0 0
v -0.000 0.520 -0.000 0 0 0
v -0.039 0.520 -0.000 0 0 0
v -0.039 0.520 -0.216 0 0 0
v 0.000 0.520 -0.216 0 0 0
v -0.039 0.520 -0.289 0 0 0
v -0.037 0.520 -0.301 0 0 0
v -0.032 0.520 -0.312 0 0 0
v -0.023 0.520 -0.321 0 0 0
v -0.012 0.520 -0.326 0 0 0
v 0.000 0.520 -0.328 0 0 0
v 0.012 0.520 -0.326 0 0 0
v 0.023 0.520 -0.321 0 0 0
v 0.032 0.520 -0.312 0 0 0
v 0.037 0.520 -0.301 0 0 0
v 0.039 0.520 -0.289 0 0 0
v 0.039 0.520 -0.216 0 0 0
v 0.039 0.520 -0.000 0 0 0
v 0.039 0.520 0.216 0 0 0
v 0.039 0.520 0.289 0 0 0
v 0.037 0.520 0.301 0 0 0
v 0.032 0.520 0.312 0 0 0
v 0.023 0.520 0.321 0 0 0
v 0.012 0.520 0.326 0 0 0
v 0.000 0.130 0.284 0 0 0
v -0.039 0.130 0.284 0 0 0
v -0.039 0.130 0.289 0 0 0
v 0.000 0.130 0.328 0 0 0
v -0.037 0.130 0.301 0 0 0
v -0.032 0.130 0.312 0 0 0
v -0.023 0.130 0.321 0 0 0
v -0.012 0.130 0.326 0 0 0
v 0.039 0.130 0.289 0 0 0
v 0.039 0.130 0.284 0 0 0
v 0.037 0.130 0.301 0 0 0
v 0.032 0.130 0.312 0 0 0
v 0.023 0.130 0.321 0 0 0
v 0.012 0.130 0.326 0 0 0
v 0.039 0.469 0.216 0 0 0
v 0.000 0.469 0.216 0 0 0
v 0.039 0.260 0.216 0 0 0
v 0.000 0.260 0.216 0 0 0
v -0.039 0.260 0.216 0 0 0
v -0.039 0.469 0.216 0 0 0

# Normal Array
vn 0.000 -1.000 -0.000
vn -0.000 -1.000 -0.000
vn 0.000 -1.000 -0.000
vn -0.000 -0.002 1.000
vn -0.000 -0.002 1.000
vn -0.000 -0.002 1.000
vn -0.000 1.000 0.000
vn -0.000 1.000 0.000
vn -0.000 1.000 -0.000
vn -0.000 1.000 -0.000
vn 0.000 0.000 -1.000
vn 0.000 0.000 -1.000
vn 0.000 0.000 -1.000
vn 0.000 0.000 -1.000
vn -0.000 1.000 0.000
vn -0.000 1.000 0.000
vn -0.000 1.000 -0.000
vn -0.000 1.000 -0.000
vn 0.000 1.000 0.000
vn 0.000 1.000 -0.000
vn -0.000 1.000 0.000
vn -0.000 1.000 0.000
vn 0.000 0.000 -1.000
vn 0.000 0.000 -1.000
vn 0.000 0.000 -1.000
vn 0.000 0.000 -1.000
vn 0.000 -1.000 -0.000
vn 0.000 -1.000 -0.000
vn 0.000 -1.000 -0.000
vn 0.000 -1.000 -0.000
vn 0.000 -1.000 0.000
vn 0.000 -1.000 0.000
vn 0.000 -1.000 0.000
vn 0.000 -1.000 0.000
vn 0.000 -1.000 0.000
vn 0.000 -1.000 0.000
vn 0.000 -0.707 0.707
vn -0.000 -0.002 -1.000
vn -0.000 -0.002 -1.000
vn -0.000 -0.002 -1.000
vn 0.000 -0.000 1.000
vn 0.000 0.000 1.000
vn 0.000 0.000 1.000
vn 0.000 0.000 1.000
vn 0.000 1.000 -0.000
vn 0.000 1.000 0.000
vn -0.000 1.000 -0.000
vn -0.000 1.000 -0.000
vn 0.000 0.000 1.000
vn 0.000 0.000 1.000
vn 0.000 0.000 1.000
vn 0.000 0.000 1.000
vn 0.000 -1.000 0.000
vn 0.000 -1.000 0.000
vn 0.000 -1.000 0.000
vn 0.000 -1.000 0.000
vn 0.000 -1.000 0.000
vn 0.000 -1.000 0.000
vn 0.000 -1.000 0.000
vn 0.000 -1.000 0.000
vn 0.156 0.000 -0.988
vn 0.156 0.000 -0.988
vn 0.454 0.000 -0.891
vn 0.454 0.000 -0.891
vn 0.707 0.000 -0.707
vn 0.707 0.000 -0.707
vn 0.891 0.000 -0.454
vn 0.891 0.000 -0.454
vn 0.988 0.000 -0.156
vn 0.988 0.000 -0.156
vn 1.000 0.000 0.000
vn 0.454 -0.000 -0.891
vn 0.454 -0.000 -0.891
vn 0.707 -0.000 -0.707
vn 0.707 -0.000 -0.707
vn 0.156 -0.000 -0.988
vn 0.891 -0.000 -0.454
vn 0.891 -0.000 -0.454
vn 0.156 -0.000 -0.988
vn 0.988 0.000 -0.156
vn 0.988 0.000 -0.156
vn -0.156 -0.000 -0.988
vn -0.156 -0.000 -0.988
vn 1.000 0.000 -0.000
vn 1.000 0.000 0.000
vn 1.000 0.000 0.000
vn 1.000 0.000 0.000
vn 1.000 -0.000 0.000
vn 1.000 -0.000 0.000
vn 1.000 0.000 0.000
vn 1.000 0.000 -0.000
vn 1.000 0.000 -0.000
vn 1.000 0.000 -0.000
vn 1.000 0.000 -0.000
vn 1.000 0.000 -0.000
vn 1.000 -0.000 0.000
vn 1.000 0.000 -0.000
vn 1.000 0.000 -0.000
vn 0.988 0.000 0.156
vn 0.988 0.000 0.156
vn 0.988 0.000 0.156
vn 0.988 0.000 0.156
vn 0.891 0.000 0.454
vn 0.891 -0.000 0.454
vn 0.891 0.000 0.454
vn 0.891 -0.000 0.454
vn 0.707 0.000 0.707
vn 0.707 -0.000 0.707
vn 0.707 0.000 0.707
vn 0.707 -0.000 0.707
vn 0.454 0.000 0.891
vn 0.454 -0.000 0.891
vn 0.454 0.000 0.891
vn 0.454 -0.000 0.891
vn 0.156 0.000 0.988
vn 0.156 0.000 0.988
vn 0.156 -0.000 0.988
vn 0.156 -0.000 0.988
vn -0.156 -0.000 0.988
vn -0.156 -0.000 0.988
vn -0.454 -0.000 0.891
vn -0.454 -0.000 0.891
vn -0.707 -0.000 0.707
vn -0.707 -0.000 0.707
vn -0.891 -0.000 0.454
vn -0.891 -0.000 0.454
vn -0.988 -0.000 0.156
vn -0.988 -0.000 0.156
vn -1.000 -0.000 -0.000
vn -1.000 0.000 0.000
vn -1.000 -0.000 0.000
vn -1.000 -0.000 0.000
vn -0.454 0.000 0.891
vn -0.156 0.000 0.988
vn -0.156 0.000 0.988
vn -0.454 0.000 0.891
vn -0.707 0.000 0.707
vn -0.707 0.000 0.707
vn -0.891 0.000 0.454
vn -0.891 0.000 0.454
vn -0.988 0.000 0.156
vn -0.988 0.000 0.156
vn -1.000 0.000 0.000
vn -1.000 0.000 0.000
vn -1.000 0.000 0.000
vn -1.000 -0.000 0.000
vn -1.000 -0.000 -0.000
vn -1.000 -0.000 -0.000
vn -1.000 0.000 -0.000
vn -1.000 0.000 -0.000
vn -1.000 -0.000 -0.000
vn -1.000 -0.000 -0.000
vn -1.000 0.000 0.000
vn -1.000 -0.000 -0.000
vn -0.988 0.000 -0.156
vn -0.988 -0.000 -0.156
vn -0.988 0.000 -0.156
vn -0.988 -0.000 -0.156
vn -0.891 0.000 -0.454
vn -0.891 -0.000 -0.454
vn -0.891 0.000 -0.454
vn -0.891 -0.000 -0.454
vn -0.707 0.000 -0.707
vn -0.707 -0.000 -0.707
vn -0.707 0.000 -0.707
vn -0.707 -0.000 -0.707
vn -0.454 -0.000 -0.891
vn -0.454 0.000 -0.891
vn -0.454 -0.000 -0.891
vn -0.454 0.000 -0.891
vn -0.156 0.000 -0.988
vn -0.156 0.000 -0.988
vn -0.000 -1.000 0.000
vn -0.000 -1.000 -0.000
vn -0.000 -1.000 -0.000
vn -0.000 -1.000 -0.000
vn -0.000 -1.000 -0.000
vn -0.000 -1.000 -0.000
vn 0.000 -1.000 -0.000
vn 0.000 -1.000 -0.000
vn 0.000 -1.000 -0.000
vn 0.000 -1.000 -0.000
vn 0.000 -1.000 -0.000
vn 0.000 -1.000 0.000
vn -0.000 0.000 1.000
vn -0.000 0.000 1.000
vn -0.000 0.000 1.000
vn -0.000 0.000 1.000
vn 0.000 1.000 0.000
vn 0.000 1.000 0.000
vn 0.000 1.000 0.000
vn 0.000 1.000 0.000
vn 0.000 1.000 0.000
vn -0.000 1.000 0.000
vn 0.000 1.000 -0.000
vn -0.000 1.000 0.000
vn 0.000 1.000 0.000
vn 0.000 1.000 0.000
vn 0.000 1.000 0.000
vn 0.000 1.000 0.000
vn 0.000 1.000 0.000
vn 0.000 1.000 0.000
vn 0.000 1.000 0.000
vn -0.000 1.000 0.000
vn 0.000 1.000 0.000
vn 0.000 1.000 -0.000
vn 0.000 1.000 -0.000
vn 0.000 1.000 -0.000
vn 0.000 1.000 -0.000
vn 0.000 1.000 0.000
vn 0.000 1.000 0.000
vn 0.000 1.000 0.000
vn -0.000 1.000 0.000
vn 0.000 1.000 -0.000
vn -0.000 1.000 0.000
vn 0.000 1.000 0.000
vn 0.000 1.000 0.000
vn 0.000 1.000 0.000
vn 0.000 1.000 0.000
vn 0.000 1.000 0.000
vn -0.000 -1.000 0.000
vn -0.000 -1.000 0.000
vn -0.000 -1.000 0.000
vn -0.000 -1.000 0.000
vn -0.000 -1.000 0.000
vn 0.000 -1.000 -0.000
vn 0.000 -1.000 0.000
vn 0.000 -1.000 0.000
vn 0.000 -1.000 0.000
vn 0.000 -1.000 0.000
vn 0.000 -1.000 0.000
vn -0.000 -1.000 -0.000
vn -0.000 0.000 -1.000
vn -0.000 0.000 -1.000
vn -0.000 0.000 -1.000
vn -0.000 0.000 -1.000

# Facets
f 1//1 3//1 2//1
f 3//2 1//2 4//2
f 3//3 4//3 5//3
f 6//4 8//4 7//4
f 8//5 6//5 9//5
f 8//6 9//6 10//6
f 11//7 13//7 12//7
f 14//8 13//8 11//8
f 15//9 13//9 14//9
f 16//10 13//10 15//10
f 17//11 19//11 18//11
f 18//12 19//12 20//12
f 20//13 19//13 21//13
f 21//14 19//14 22//14
f 23//15 25//15 24//15
f 24//16 25//16 26//16
f 26//17 25//17 27//17
f 27//18 25//18 28//18
f 29//19 31//19 30//19
f 32//20 31//20 29//20
f 33//21 34//21 32//21
f 35//22 34//22 33//22
f 36//23 38//23 37//23
f 39//24 38//24 36//24
f 38//25 41//25 40//25
f 40//26 41//26 42//26
f 43//27 45//27 44//27
f 46//28 45//28 43//28
f 47//29 45//29 46//29
f 48//30 45//30 47//30
f 43//31 49//31 46//31
f 46//32 49//32 47//32
f 50//33 49//33 43//33
f 47//34 49//34 51//34
f 52//35 54//35 53//35
f 54//36 52//36 55//36
f 55//37 52//37 56//37
f 57//38 59//38 58//38
f 59//39 57//39 60//39
f 59//40 60//40 61//40
f 62//41 64//41 63//41
f 65//42 64//42 62//42
f 66//43 64//43 65//43
f 67//44 64//44 66//44
f 68//45 70//45 69//45
f 69//46 70//46 71//46
f 71//47 73//47 72//47
f 72//48 73//48 74//48
f 75//49 77//49 76//49
f 78//50 77//50 75//50
f 79//51 80//51 77//51
f 81//52 80//52 79//52
f 82//53 84//53 83//53
f 83//54 84//54 85//54
f 84//55 86//55 85//55
f 85//56 86//56 87//56
f 87//57 88//57 85//57
f 85//58 88//58 89//58
f 85//59 89//59 83//59
f 83//60 89//60 90//60
f 91//61 93//61 92//61
f 94//62 93//62 91//62
f 95//63 94//63 91//63
f 96//64 94//64 95//64
f 97//65 96//65 95//65
f 98//66 96//66 97//66
f 99//67 98//67 97//67
f 100//68 98//68 99//68
f 101//69 100//69 99//69
f 102//70 100//70 101//70
f 103//71 102//71 101//71
f 104//72 94//72 96//72
f 105//73 94//73 104//73
f 104//74 96//74 106//74
f 106//75 96//75 98//75
f 105//76 107//76 94//76
f 106//77 98//77 108//77
f 108//78 98//78 100//78
f 109//79 107//79 105//79
f 108//80 100//80 110//80
f 110//81 100//81 102//81
f 109//82 111//82 107//82
f 112//83 111//83 109//83
f 113//84 110//84 102//84
f 110//85 113//85 114//85
f 113//86 102//86 115//86
f 113//87 115//87 116//87
f 115//88 102//88 103//88
f 115//89 103//89 117//89
f 117//90 103//90 118//90
f 118//91 119//91 117//91
f 117//92 119//92 120//92
f 119//93 121//93 120//93
f 121//94 122//94 120//94
f 121//95 123//95 122//95
f 121//96 124//96 123//96
f 125//97 121//97 119//97
f 124//98 121//98 126//98
f 125//99 127//99 121//99
f 121//100 127//100 126//100
f 128//101 127//101 125//101
f 126//102 127//102 129//102
f 128//103 130//103 127//103
f 127//104 130//104 129//104
f 131//105 130//105 128//105
f 129//106 130//106 132//106
f 131//107 133//107 130//107
f 130//108 133//108 132//108
f 134//109 133//109 131//109
f 132//110 133//110 135//110
f 134//111 136//111 133//111
f 133//112 136//112 135//112
f 137//113 136//113 134//113
f 135//114 136//114 138//114
f 137//115 139//115 136//115
f 140//116 139//116 137//116
f 136//117 141//117 138//117
f 138//118 141//118 142//118
f 141//119 143//119 142//119
f 142//120 143//120 144//120
f 143//121 145//121 144//121
f 144//122 145//122 146//122
f 145//123 147//123 146//123
f 146//124 147//124 148//124
f 147//125 149//125 148//125
f 148//126 149//126 150//126
f 149//127 151//127 150//127
f 150//128 151//128 152//128
f 153//129 152//129 151//129
f 152//130 153//130 154//130
f 153//131 151//131 155//131
f 153//132 155//132 156//132
f 157//133 145//133 143//133
f 157//134 143//134 158//134
f 158//135 143//135 159//135
f 160//136 145//136 157//136
f 160//137 147//137 145//137
f 161//138 147//138 160//138
f 161//139 149//139 147//139
f 162//140 149//140 161//140
f 162//141 151//141 149//141
f 163//142 151//142 162//142
f 163//143 155//143 151//143
f 164//144 155//144 163//144
f 165//145 155//145 164//145
f 166//146 155//146 165//146
f 165//147 167//147 166//147
f 168//148 167//148 165//148
f 169//149 167//149 168//149
f 170//150 167//150 169//150
f 170//151 171//151 167//151
f 170//152 172//152 171//152
f 170//153 173//153 172//153
f 173//154 170//154 174//154
f 175//155 170//155 169//155
f 174//156 170//156 176//156
f 177//157 170//157 175//157
f 176//158 170//158 177//158
f 178//159 177//159 175//159
f 176//160 177//160 179//160
f 180//161 177//161 178//161
f 179//162 177//162 180//162
f 181//163 180//163 178//163
f 179//164 180//164 182//164
f 183//165 180//165 181//165
f 182//166 180//166 183//166
f 182//167 183//167 112//167
f 184//168 183//168 181//168
f 112//169 183//169 111//169
f 111//170 183//170 184//170
f 185//171 111//171 184//171
f 186//172 111//172 185//172
f 187//173 189//173 188//173
f 190//174 189//174 187//174
f 191//175 189//175 190//175
f 192//176 189//176 191//176
f 193//177 189//177 192//177
f 189//178 193//178 194//178
f 195//179 189//179 194//179
f 189//180 195//180 196//180
f 189//181 196//181 197//181
f 189//182 197//182 198//182
f 189//183 198//183 199//183
f 189//184 199//184 200//184
f 201//185 203//185 202//185
f 204//186 203//186 201//186
f 201//187 205//187 204//187
f 206//188 205//188 201//188
f 207//189 209//189 208//189
f 207//190 210//190 209//190
f 207//191 211//191 210//191
f 207//192 212//192 211//192
f 207//193 213//193 212//193
f 213//194 207//194 214//194
f 215//195 213//195 214//195
f 216//196 213//196 215//196
f 215//197 217//197 216//197
f 218//198 217//198 215//198
f 218//199 219//199 217//199
f 218//200 220//200 219//200
f 218//201 221//201 220//201
f 218//202 222//202 221//202
f 218//203 223//203 222//203
f 223//204 218//204 224//204
f 218//205 225//205 224//205
f 225//206 218//206 226//206
f 226//207 218//207 227//207
f 227//208 218//208 228//208
f 228//209 218//209 229//209
f 229//210 218//210 230//210
f 230//211 218//211 231//211
f 231//212 218//212 215//212
f 215//213 214//213 231//213
f 231//214 214//214 232//214
f 214//215 233//215 232//215
f 233//216 214//216 207//216
f 233//217 207//217 234//217
f 234//218 207//218 235//218
f 235//219 207//219 236//219
f 236//220 207//220 237//220
f 238//221 240//221 239//221
f 240//222 238//222 241//222
f 240//223 241//223 242//223
f 242//224 241//224 243//224
f 243//225 241//225 244//225
f 244//226 241//226 245//226
f 238//227 246//227 241//227
f 246//228 238//228 247//228
f 241//229 246//229 248//229
f 241//230 248//230 249//230
f 241//231 249//231 250//231
f 241//232 250//232 251//232
f 252//233 254//233 253//233
f 253//234 254//234 255//234
f 255//235 256//235 253//235
f 253//236 256//236 257//236

# Thank you for using Spin 3D

