# Created using Spin 3D

# Vertex Array 
v -0.112 0.021 -0.132
v -0.112 0.021 -0.145
v 0.087 0.021 -0.145
v 0.087 0.021 -0.097
v -0.110 0.021 -0.107
v -0.044 0.021 -0.097
v -0.105 0.021 -0.085
v -0.044 0.021 -0.096
v -0.041 0.021 -0.082
v -0.097 0.021 -0.065
v -0.032 0.021 -0.070
v -0.015 0.021 -0.056
v -0.083 0.021 -0.046
v 0.011 0.021 -0.039
v -0.063 0.021 -0.029
v 0.033 0.021 -0.026
v -0.038 0.021 -0.011
v 0.050 0.021 -0.015
v 0.064 0.021 -0.002
v -0.025 0.021 -0.004
v -0.007 0.021 0.006
v 0.077 0.021 0.014
v 0.006 0.021 0.014
v 0.085 0.021 0.034
v 0.015 0.021 0.023
v 0.023 0.021 0.032
v 0.028 0.021 0.043
v 0.088 0.021 0.057
v 0.029 0.021 0.055
v 0.026 0.021 0.071
v 0.082 0.021 0.091
v 0.017 0.021 0.082
v 0.005 0.021 0.088
v -0.010 0.021 0.090
v -0.083 0.021 0.114
v -0.026 0.021 0.087
v 0.063 0.021 0.117
v -0.053 0.021 0.133
v 0.032 0.021 0.134
v -0.009 0.021 0.140
v -0.102 0.021 0.085
v -0.039 0.021 0.079
v -0.048 0.021 0.066
v -0.108 0.021 0.049
v -0.051 0.021 0.046
v -0.051 0.021 0.041
v -0.108 0.021 0.041
v -0.051 0.000 0.041
v -0.108 -0.000 0.041
v -0.108 -0.000 0.049
v -0.051 0.000 0.046
v -0.048 0.000 0.066
v -0.102 -0.000 0.085
v -0.039 0.000 0.079
v -0.026 0.000 0.087
v -0.083 -0.000 0.114
v -0.010 0.000 0.090
v 0.082 0.000 0.091
v 0.005 0.000 0.088
v 0.017 0.000 0.082
v 0.026 0.000 0.071
v 0.063 0.000 0.117
v -0.053 -0.000 0.133
v 0.032 0.000 0.134
v -0.009 0.000 0.140
v 0.088 0.000 0.057
v 0.029 0.000 0.055
v 0.028 0.000 0.043
v 0.085 0.000 0.034
v 0.023 0.000 0.032
v 0.015 0.000 0.023
v 0.006 0.000 0.014
v 0.077 0.000 0.014
v -0.007 0.000 0.006
v 0.064 0.000 -0.002
v -0.025 0.000 -0.004
v -0.038 -0.000 -0.011
v 0.050 0.000 -0.015
v 0.033 0.000 -0.026
v -0.063 0.000 -0.029
v 0.011 0.000 -0.039
v -0.083 -0.000 -0.046
v -0.015 0.000 -0.056
v -0.097 0.000 -0.065
v -0.032 0.000 -0.070
v -0.041 0.000 -0.082
v -0.105 0.000 -0.085
v -0.044 -0.000 -0.096
v -0.044 -0.000 -0.097
v -0.110 0.000 -0.107
v 0.087 0.000 -0.097
v -0.112 -0.000 -0.132
v 0.087 -0.000 -0.145
v -0.112 0.000 -0.145
v -0.110 0.000 -0.107
v -0.112 -0.000 -0.132
v -0.112 0.021 -0.132
v -0.110 0.021 -0.107
v -0.105 0.000 -0.085
v -0.105 0.021 -0.085
v -0.097 0.000 -0.065
v -0.097 0.021 -0.065
v -0.083 -0.000 -0.046
v -0.083 0.021 -0.046
v -0.063 0.000 -0.029
v -0.063 0.021 -0.029
v -0.038 -0.000 -0.011
v -0.038 0.021 -0.011
v -0.025 0.000 -0.004
v -0.025 0.021 -0.004
v -0.007 0.000 0.006
v -0.007 0.021 0.006
v 0.006 0.000 0.014
v 0.006 0.021 0.014
v 0.015 0.000 0.023
v 0.015 0.021 0.023
v 0.023 0.000 0.032
v 0.023 0.021 0.032
v 0.028 0.000 0.043
v 0.028 0.021 0.043
v 0.029 0.000 0.055
v 0.029 0.021 0.055
v 0.026 0.000 0.071
v 0.026 0.021 0.071
v 0.017 0.000 0.082
v 0.017 0.021 0.082
v 0.005 0.000 0.088
v 0.005 0.021 0.088
v -0.010 0.000 0.090
v -0.010 0.021 0.090
v -0.026 0.000 0.087
v -0.026 0.021 0.087
v -0.039 0.000 0.079
v -0.039 0.021 0.079
v -0.048 0.000 0.066
v -0.048 0.021 0.066
v -0.051 0.000 0.046
v -0.051 0.021 0.046
v -0.051 0.000 0.041
v -0.051 0.021 0.041
v -0.108 -0.000 0.041
v -0.051 0.000 0.041
v -0.051 0.021 0.041
v -0.108 0.021 0.041
v -0.108 -0.000 0.049
v -0.108 -0.000 0.041
v -0.108 0.021 0.041
v -0.108 0.021 0.049
v -0.102 -0.000 0.085
v -0.102 0.021 0.085
v -0.083 -0.000 0.114
v -0.083 0.021 0.114
v -0.053 -0.000 0.133
v -0.053 0.021 0.133
v -0.009 0.000 0.140
v -0.009 0.021 0.140
v 0.032 0.000 0.134
v 0.032 0.021 0.134
v 0.063 0.000 0.117
v 0.063 0.021 0.117
v 0.082 0.000 0.091
v 0.082 0.021 0.091
v 0.088 0.000 0.057
v 0.088 0.021 0.057
v 0.085 0.000 0.034
v 0.085 0.021 0.034
v 0.077 0.000 0.014
v 0.077 0.021 0.014
v 0.064 0.000 -0.002
v 0.064 0.021 -0.002
v 0.050 0.000 -0.015
v 0.050 0.021 -0.015
v 0.033 0.000 -0.026
v 0.033 0.021 -0.026
v 0.011 0.000 -0.039
v 0.011 0.021 -0.039
v -0.015 0.000 -0.056
v -0.015 0.021 -0.056
v -0.032 0.000 -0.070
v -0.032 0.021 -0.070
v -0.041 0.000 -0.082
v -0.041 0.021 -0.082
v -0.044 -0.000 -0.096
v -0.044 0.021 -0.096
v -0.044 -0.000 -0.097
v -0.044 0.021 -0.097
v 0.087 0.000 -0.097
v -0.044 -0.000 -0.097
v -0.044 0.021 -0.097
v 0.087 0.021 -0.097
v 0.087 -0.000 -0.145
v 0.087 0.000 -0.097
v 0.087 0.021 -0.097
v 0.087 0.021 -0.145
v -0.112 0.000 -0.145
v 0.087 -0.000 -0.145
v 0.087 0.021 -0.145
v -0.112 0.021 -0.145
v -0.112 -0.000 -0.132
v -0.112 0.000 -0.145
v -0.112 0.021 -0.145
v -0.112 0.021 -0.132

# Normal Array
vn -0.000 1.000 0.000
vn -0.000 1.000 0.000
vn -0.000 1.000 0.000
vn 0.000 1.000 -0.000
vn -0.000 1.000 -0.000
vn 0.000 1.000 0.000
vn -0.000 1.000 -0.000
vn -0.000 1.000 0.000
vn -0.000 1.000 0.000
vn -0.000 1.000 0.000
vn -0.000 1.000 -0.000
vn 0.000 1.000 -0.000
vn -0.000 1.000 0.000
vn -0.000 1.000 0.000
vn -0.000 1.000 -0.000
vn -0.000 1.000 -0.000
vn -0.000 1.000 0.000
vn -0.000 1.000 0.000
vn -0.000 1.000 -0.000
vn -0.000 1.000 0.000
vn -0.000 1.000 -0.000
vn 0.000 1.000 -0.000
vn 0.000 1.000 -0.000
vn -0.000 1.000 0.000
vn 0.000 1.000 0.000
vn -0.000 1.000 -0.000
vn -0.000 1.000 0.000
vn -0.000 1.000 -0.000
vn -0.000 1.000 -0.000
vn -0.000 1.000 0.000
vn -0.000 1.000 -0.000
vn -0.000 1.000 -0.000
vn -0.000 1.000 -0.000
vn -0.000 1.000 -0.000
vn -0.000 1.000 0.000
vn -0.000 1.000 -0.000
vn 0.000 1.000 0.000
vn 0.000 1.000 0.000
vn -0.000 1.000 -0.000
vn -0.000 1.000 0.000
vn -0.000 1.000 0.000
vn -0.000 1.000 0.000
vn -0.000 1.000 0.000
vn -0.000 1.000 0.000
vn -0.000 1.000 0.000
vn 0.000 -1.000 -0.000
vn 0.000 -1.000 -0.000
vn 0.000 -1.000 0.000
vn 0.000 -1.000 -0.000
vn 0.000 -1.000 0.000
vn 0.000 -1.000 -0.000
vn 0.000 -1.000 -0.000
vn 0.000 -1.000 0.000
vn 0.000 -1.000 -0.000
vn 0.000 -1.000 0.000
vn 0.000 -1.000 0.000
vn 0.000 -1.000 0.000
vn 0.000 -1.000 0.000
vn 0.000 -1.000 -0.000
vn 0.000 -1.000 -0.000
vn 0.000 -1.000 0.000
vn 0.000 -1.000 0.000
vn 0.000 -1.000 -0.000
vn 0.000 -1.000 0.000
vn 0.000 -1.000 0.000
vn 0.000 -1.000 -0.000
vn 0.000 -1.000 0.000
vn 0.000 -1.000 -0.000
vn 0.000 -1.000 0.000
vn 0.000 -1.000 0.000
vn 0.000 -1.000 -0.000
vn 0.000 -1.000 -0.000
vn 0.000 -1.000 0.000
vn 0.000 -1.000 0.000
vn 0.000 -1.000 0.000
vn -0.000 -1.000 -0.000
vn 0.000 -1.000 -0.000
vn 0.000 -1.000 0.000
vn 0.000 -1.000 0.000
vn 0.000 -1.000 -0.000
vn -0.000 -1.000 0.000
vn -0.000 -1.000 0.000
vn -0.000 -1.000 0.000
vn -0.000 -1.000 0.000
vn 0.000 -1.000 0.000
vn -0.000 -1.000 -0.000
vn 0.000 -1.000 -0.000
vn -0.000 -1.000 0.000
vn 0.000 -1.000 0.000
vn -0.000 -1.000 -0.000
vn -0.998 -0.000 0.061
vn -0.998 0.000 0.061
vn -0.978 0.000 0.207
vn -0.978 0.000 0.207
vn -0.915 0.000 0.403
vn -0.915 0.000 0.403
vn -0.803 0.000 0.596
vn -0.803 -0.000 0.596
vn -0.674 -0.000 0.739
vn -0.674 -0.000 0.739
vn -0.560 -0.000 0.828
vn -0.560 -0.000 0.828
vn -0.502 -0.000 0.865
vn -0.502 -0.000 0.865
vn -0.491 -0.000 0.871
vn -0.491 -0.000 0.871
vn -0.537 -0.000 0.843
vn -0.537 -0.000 0.843
vn -0.642 -0.000 0.767
vn -0.642 0.000 0.767
vn -0.777 0.000 0.629
vn -0.777 -0.000 0.629
vn -0.913 -0.000 0.408
vn -0.913 -0.000 0.408
vn -0.992 -0.000 0.125
vn -0.992 -0.000 0.125
vn -0.984 -0.000 -0.181
vn -0.984 0.000 -0.181
vn -0.773 -0.000 -0.634
vn -0.773 -0.000 -0.634
vn -0.427 -0.000 -0.904
vn -0.427 -0.000 -0.904
vn -0.133 -0.000 -0.991
vn -0.133 -0.000 -0.991
vn 0.163 -0.000 -0.987
vn 0.163 0.000 -0.987
vn 0.523 0.000 -0.852
vn 0.523 0.000 -0.852
vn 0.844 0.000 -0.536
vn 0.844 -0.000 -0.536
vn 0.989 -0.000 -0.147
vn 0.989 -0.000 -0.147
vn 1.000 -0.000 -0.000
vn 1.000 -0.000 -0.000
vn 0.000 -0.000 -1.000
vn 0.000 -0.000 -1.000
vn -1.000 0.000 0.000
vn -1.000 0.000 0.000
vn -0.986 0.000 0.164
vn -0.986 -0.000 0.164
vn -0.847 -0.000 0.532
vn -0.847 0.000 0.532
vn -0.527 0.000 0.850
vn -0.527 0.000 0.850
vn -0.145 0.000 0.989
vn -0.145 -0.000 0.989
vn 0.135 0.000 0.991
vn 0.135 0.000 0.991
vn 0.482 0.000 0.876
vn 0.482 0.000 0.876
vn 0.810 0.000 0.587
vn 0.810 -0.000 0.587
vn 0.983 -0.000 0.185
vn 0.983 0.000 0.185
vn 0.993 0.000 -0.119
vn 0.993 0.000 -0.119
vn 0.921 0.000 -0.391
vn 0.921 0.000 -0.391
vn 0.800 0.000 -0.600
vn 0.800 -0.000 -0.600
vn 0.667 -0.000 -0.745
vn 0.667 0.000 -0.745
vn 0.551 0.000 -0.835
vn 0.551 0.000 -0.835
vn 0.504 0.000 -0.863
vn 0.504 -0.000 -0.863
vn 0.534 0.000 -0.846
vn 0.534 -0.000 -0.846
vn 0.634 -0.000 -0.773
vn 0.634 -0.000 -0.773
vn 0.808 -0.000 -0.589
vn 0.808 0.000 -0.589
vn 0.973 0.000 -0.231
vn 0.973 0.000 -0.231
vn 1.000 0.000 -0.000
vn 1.000 0.000 -0.000
vn -0.000 0.000 1.000
vn -0.000 -0.000 1.000
vn 1.000 0.000 0.000
vn 1.000 0.000 0.000
vn 0.000 -0.000 -1.000
vn 0.000 -0.000 -1.000
vn -1.000 0.000 0.000
vn -1.000 -0.000 0.000

# Facets
f 1//1 3//1 2//1
f 3//2 1//2 4//2
f 4//3 1//3 5//3
f 4//4 5//4 6//4
f 7//5 6//5 5//5
f 6//6 7//6 8//6
f 8//7 7//7 9//7
f 9//8 7//8 10//8
f 9//9 10//9 11//9
f 11//10 10//10 12//10
f 12//11 10//11 13//11
f 12//12 13//12 14//12
f 14//13 13//13 15//13
f 14//14 15//14 16//14
f 16//15 15//15 17//15
f 16//16 17//16 18//16
f 18//17 17//17 19//17
f 19//18 17//18 20//18
f 19//19 20//19 21//19
f 19//20 21//20 22//20
f 22//21 21//21 23//21
f 22//22 23//22 24//22
f 24//23 23//23 25//23
f 24//24 25//24 26//24
f 24//25 26//25 27//25
f 24//26 27//26 28//26
f 28//27 27//27 29//27
f 28//28 29//28 30//28
f 28//29 30//29 31//29
f 31//30 30//30 32//30
f 31//31 32//31 33//31
f 31//32 33//32 34//32
f 34//33 35//33 31//33
f 36//34 35//34 34//34
f 31//35 35//35 37//35
f 37//36 35//36 38//36
f 37//37 38//37 39//37
f 39//38 38//38 40//38
f 36//39 41//39 35//39
f 42//40 41//40 36//40
f 43//41 41//41 42//41
f 43//42 44//42 41//42
f 45//43 44//43 43//43
f 46//44 44//44 45//44
f 44//45 46//45 47//45
f 48//46 50//46 49//46
f 50//47 48//47 51//47
f 50//48 51//48 52//48
f 50//49 52//49 53//49
f 53//50 52//50 54//50
f 53//51 54//51 55//51
f 53//52 55//52 56//52
f 56//53 55//53 57//53
f 56//54 57//54 58//54
f 59//55 58//55 57//55
f 60//56 58//56 59//56
f 61//57 58//57 60//57
f 56//58 58//58 62//58
f 56//59 62//59 63//59
f 63//60 62//60 64//60
f 63//61 64//61 65//61
f 61//62 66//62 58//62
f 67//63 66//63 61//63
f 68//64 66//64 67//64
f 68//65 69//65 66//65
f 70//66 69//66 68//66
f 71//67 69//67 70//67
f 72//68 69//68 71//68
f 72//69 73//69 69//69
f 74//70 73//70 72//70
f 74//71 75//71 73//71
f 76//72 75//72 74//72
f 77//73 75//73 76//73
f 77//74 78//74 75//74
f 77//75 79//75 78//75
f 80//76 79//76 77//76
f 80//77 81//77 79//77
f 82//78 81//78 80//78
f 82//79 83//79 81//79
f 84//80 83//80 82//80
f 84//81 85//81 83//81
f 84//82 86//82 85//82
f 87//83 86//83 84//83
f 87//84 88//84 86//84
f 87//85 89//85 88//85
f 89//86 87//86 90//86
f 90//87 91//87 89//87
f 92//88 91//88 90//88
f 92//89 93//89 91//89
f 93//90 92//90 94//90
f 95//91 97//91 96//91
f 98//92 97//92 95//92
f 99//93 98//93 95//93
f 100//94 98//94 99//94
f 101//95 100//95 99//95
f 102//96 100//96 101//96
f 103//97 102//97 101//97
f 104//98 102//98 103//98
f 105//99 104//99 103//99
f 106//100 104//100 105//100
f 107//101 106//101 105//101
f 108//102 106//102 107//102
f 109//103 108//103 107//103
f 110//104 108//104 109//104
f 111//105 110//105 109//105
f 112//106 110//106 111//106
f 113//107 112//107 111//107
f 114//108 112//108 113//108
f 115//109 114//109 113//109
f 116//110 114//110 115//110
f 117//111 116//111 115//111
f 118//112 116//112 117//112
f 119//113 118//113 117//113
f 120//114 118//114 119//114
f 121//115 120//115 119//115
f 122//116 120//116 121//116
f 123//117 122//117 121//117
f 124//118 122//118 123//118
f 125//119 124//119 123//119
f 126//120 124//120 125//120
f 127//121 126//121 125//121
f 128//122 126//122 127//122
f 129//123 128//123 127//123
f 130//124 128//124 129//124
f 131//125 130//125 129//125
f 132//126 130//126 131//126
f 133//127 132//127 131//127
f 134//128 132//128 133//128
f 135//129 134//129 133//129
f 136//130 134//130 135//130
f 137//131 136//131 135//131
f 138//132 136//132 137//132
f 139//133 138//133 137//133
f 140//134 138//134 139//134
f 141//135 143//135 142//135
f 144//136 143//136 141//136
f 145//137 147//137 146//137
f 148//138 147//138 145//138
f 149//139 148//139 145//139
f 150//140 148//140 149//140
f 151//141 150//141 149//141
f 152//142 150//142 151//142
f 153//143 152//143 151//143
f 154//144 152//144 153//144
f 155//145 154//145 153//145
f 156//146 154//146 155//146
f 157//147 156//147 155//147
f 158//148 156//148 157//148
f 159//149 158//149 157//149
f 160//150 158//150 159//150
f 161//151 160//151 159//151
f 162//152 160//152 161//152
f 163//153 162//153 161//153
f 164//154 162//154 163//154
f 165//155 164//155 163//155
f 166//156 164//156 165//156
f 167//157 166//157 165//157
f 168//158 166//158 167//158
f 169//159 168//159 167//159
f 170//160 168//160 169//160
f 171//161 170//161 169//161
f 172//162 170//162 171//162
f 173//163 172//163 171//163
f 174//164 172//164 173//164
f 175//165 174//165 173//165
f 176//166 174//166 175//166
f 177//167 176//167 175//167
f 178//168 176//168 177//168
f 179//169 178//169 177//169
f 180//170 178//170 179//170
f 181//171 180//171 179//171
f 182//172 180//172 181//172
f 183//173 182//173 181//173
f 184//174 182//174 183//174
f 185//175 184//175 183//175
f 186//176 184//176 185//176
f 187//177 189//177 188//177
f 190//178 189//178 187//178
f 191//179 193//179 192//179
f 194//180 193//180 191//180
f 195//181 197//181 196//181
f 198//182 197//182 195//182
f 199//183 201//183 200//183
f 202//184 201//184 199//184

# Thank you for using Spin 3D

