# Created using Spin 3D

# Vertex Array 
v -0.250 0.200 -0.500 0 0 0
v -0.250 0.200 -0.250 0 0 0
v -0.250 0.142 -0.250 0 0 0
v -0.250 0.142 -0.500 0 0 0
v -0.250 0.200 -0.500 0 0 0
v 0.250 0.200 -0.500 0 0 0
v -0.250 0.200 -0.250 0 0 0
v 0.250 0.200 0.150 0 0 0
v 0.150 0.200 0.250 0 0 0
v -0.250 0.200 0.250 0 0 0
v 0.188 0.200 0.243 0 0 0
v 0.243 0.200 0.188 0 0 0
v 0.221 0.200 0.221 0 0 0
v -0.250 0.142 -0.250 0 0 0
v -0.500 0.142 -0.250 0 0 0
v -0.500 0.142 0.250 0 0 0
v -0.250 0.142 0.250 0 0 0
v -0.500 0.200 0.250 0 0 0
v -0.500 0.200 -0.250 0 0 0
v -0.250 0.200 -0.250 0 0 0
v -0.250 0.200 0.250 0 0 0
v -0.250 0.200 0.250 0 0 0
v -0.250 0.142 0.250 0 0 0
v -0.500 0.142 0.250 0 0 0
v -0.500 0.200 0.250 0 0 0
v -0.250 0.200 -0.250 0 0 0
v -0.500 0.200 -0.250 0 0 0
v -0.500 0.142 -0.250 0 0 0
v -0.250 0.142 -0.250 0 0 0
v -0.337 0.260 -0.283 0 0 0
v -0.500 0.260 -0.284 0 0 0
v -0.500 0.130 -0.283 0 0 0
v -0.337 0.130 -0.283 0 0 0
v -0.317 0.130 -0.287 0 0 0
v -0.317 0.260 -0.287 0 0 0
v -0.300 0.130 -0.298 0 0 0
v -0.300 0.260 -0.299 0 0 0
v -0.288 0.130 -0.316 0 0 0
v -0.288 0.260 -0.316 0 0 0
v -0.284 0.130 -0.336 0 0 0
v -0.284 0.260 -0.336 0 0 0
v -0.284 0.130 -0.500 0 0 0
v -0.284 0.260 -0.500 0 0 0
v 0.284 0.260 0.105 0 0 0
v 0.284 0.260 -0.500 0 0 0
v 0.284 0.130 -0.500 0 0 0
v 0.284 0.130 0.105 0 0 0
v 0.278 0.260 0.151 0 0 0
v 0.278 0.130 0.151 0 0 0
v 0.260 0.260 0.195 0 0 0
v 0.260 0.130 0.195 0 0 0
v 0.231 0.260 0.231 0 0 0
v 0.231 0.130 0.231 0 0 0
v 0.194 0.260 0.260 0 0 0
v 0.194 0.130 0.260 0 0 0
v 0.151 0.260 0.278 0 0 0
v 0.151 0.130 0.278 0 0 0
v 0.105 0.260 0.284 0 0 0
v 0.105 0.130 0.284 0 0 0
v -0.500 0.260 0.284 0 0 0
v -0.500 0.130 0.284 0 0 0
v 0.208 0.260 0.149 0 0 0
v 0.184 0.260 0.184 0 0 0
v 0.184 0.214 0.184 0 0 0
v 0.208 0.214 0.149 0 0 0
v 0.216 0.260 0.108 0 0 0
v 0.216 0.214 0.108 0 0 0
v 0.216 0.191 0.108 0 0 0
v 0.216 0.214 -0.500 0 0 0
v 0.216 0.260 -0.500 0 0 0
v 0.216 0.191 -0.500 0 0 0
v 0.216 0.130 -0.500 0 0 0
v 0.216 0.130 0.108 0 0 0
v 0.208 0.130 0.149 0 0 0
v 0.208 0.191 0.149 0 0 0
v 0.184 0.130 0.184 0 0 0
v 0.184 0.191 0.184 0 0 0
v 0.184 0.214 0.184 0 0 0
v 0.149 0.191 0.208 0 0 0
v 0.149 0.214 0.208 0 0 0
v 0.184 0.260 0.184 0 0 0
v 0.149 0.260 0.208 0 0 0
v 0.108 0.214 0.216 0 0 0
v 0.108 0.260 0.216 0 0 0
v -0.500 0.214 0.216 0 0 0
v -0.500 0.260 0.216 0 0 0
v -0.500 0.191 0.216 0 0 0
v 0.108 0.191 0.216 0 0 0
v -0.500 0.130 0.216 0 0 0
v 0.108 0.130 0.216 0 0 0
v 0.149 0.130 0.208 0 0 0
v 0.184 0.191 0.184 0 0 0
v 0.184 0.130 0.184 0 0 0
v 0.188 0.200 0.243 0 0 0
v 0.221 0.200 0.221 0 0 0
v 0.221 0.142 0.221 0 0 0
v 0.188 0.142 0.243 0 0 0
v 0.150 0.200 0.250 0 0 0
v 0.150 0.142 0.250 0 0 0
v -0.250 0.142 0.250 0 0 0
v -0.250 0.200 0.250 0 0 0
v -0.250 0.142 0.250 0 0 0
v 0.150 0.142 0.250 0 0 0
v -0.250 0.142 -0.250 0 0 0
v 0.250 0.142 0.150 0 0 0
v 0.250 0.142 -0.500 0 0 0
v -0.250 0.142 -0.500 0 0 0
v 0.221 0.142 0.221 0 0 0
v 0.188 0.142 0.243 0 0 0
v 0.243 0.142 0.188 0 0 0
v 0.250 0.200 -0.500 0 0 0
v 0.250 0.142 -0.500 0 0 0
v 0.250 0.200 0.150 0 0 0
v 0.250 0.142 0.150 0 0 0
v 0.243 0.200 0.188 0 0 0
v 0.243 0.142 0.188 0 0 0
v 0.221 0.200 0.221 0 0 0
v 0.221 0.142 0.221 0 0 0
v -0.500 0.260 -0.284 0 0 0
v -0.337 0.260 -0.283 0 0 0
v -0.500 0.260 -0.216 0 0 0
v -0.316 0.260 -0.216 0 0 0
v -0.317 0.260 -0.287 0 0 0
v -0.278 0.260 -0.224 0 0 0
v -0.300 0.260 -0.299 0 0 0
v -0.246 0.260 -0.245 0 0 0
v -0.224 0.260 -0.278 0 0 0
v -0.288 0.260 -0.316 0 0 0
v -0.216 0.260 -0.316 0 0 0
v -0.284 0.260 -0.336 0 0 0
v -0.216 0.260 -0.500 0 0 0
v -0.284 0.260 -0.500 0 0 0
v -0.500 0.260 -0.216 0 0 0
v -0.316 0.260 -0.216 0 0 0
v -0.500 0.214 -0.216 0 0 0
v -0.316 0.214 -0.216 0 0 0
v -0.500 0.191 -0.216 0 0 0
v -0.278 0.214 -0.224 0 0 0
v -0.278 0.260 -0.224 0 0 0
v -0.246 0.260 -0.245 0 0 0
v -0.316 0.191 -0.216 0 0 0
v -0.500 0.130 -0.216 0 0 0
v -0.316 0.130 -0.216 0 0 0
v -0.278 0.191 -0.224 0 0 0
v -0.278 0.130 -0.224 0 0 0
v -0.246 0.214 -0.245 0 0 0
v -0.246 0.191 -0.245 0 0 0
v -0.246 0.130 -0.245 0 0 0
v -0.224 0.130 -0.278 0 0 0
v -0.224 0.191 -0.278 0 0 0
v -0.216 0.130 -0.316 0 0 0
v -0.224 0.214 -0.278 0 0 0
v -0.224 0.260 -0.278 0 0 0
v -0.216 0.260 -0.316 0 0 0
v -0.216 0.214 -0.316 0 0 0
v -0.216 0.260 -0.500 0 0 0
v -0.216 0.214 -0.500 0 0 0
v -0.216 0.191 -0.316 0 0 0
v -0.216 0.130 -0.500 0 0 0
v -0.216 0.191 -0.500 0 0 0
v -0.500 0.260 0.284 0 0 0
v -0.500 0.260 0.216 0 0 0
v 0.105 0.260 0.284 0 0 0
v 0.108 0.260 0.216 0 0 0
v 0.151 0.260 0.278 0 0 0
v 0.149 0.260 0.208 0 0 0
v 0.194 0.260 0.260 0 0 0
v 0.184 0.260 0.184 0 0 0
v 0.231 0.260 0.231 0 0 0
v 0.260 0.260 0.195 0 0 0
v 0.208 0.260 0.149 0 0 0
v 0.278 0.260 0.151 0 0 0
v 0.216 0.260 0.108 0 0 0
v 0.284 0.260 0.105 0 0 0
v 0.216 0.260 -0.500 0 0 0
v 0.284 0.260 -0.500 0 0 0
v -0.284 0.130 -0.500 0 0 0
v -0.284 0.130 -0.336 0 0 0
v -0.216 0.130 -0.500 0 0 0
v -0.216 0.130 -0.316 0 0 0
v -0.288 0.130 -0.316 0 0 0
v -0.224 0.130 -0.278 0 0 0
v -0.300 0.130 -0.298 0 0 0
v -0.246 0.130 -0.245 0 0 0
v -0.278 0.130 -0.224 0 0 0
v -0.317 0.130 -0.287 0 0 0
v -0.316 0.130 -0.216 0 0 0
v -0.337 0.130 -0.283 0 0 0
v -0.500 0.130 -0.216 0 0 0
v -0.500 0.130 -0.283 0 0 0
v 0.216 0.130 -0.500 0 0 0
v 0.284 0.130 0.105 0 0 0
v 0.284 0.130 -0.500 0 0 0
v 0.216 0.130 0.108 0 0 0
v 0.278 0.130 0.151 0 0 0
v 0.208 0.130 0.149 0 0 0
v 0.260 0.130 0.195 0 0 0
v 0.184 0.130 0.184 0 0 0
v 0.231 0.130 0.231 0 0 0
v 0.194 0.130 0.260 0 0 0
v 0.149 0.130 0.208 0 0 0
v 0.151 0.130 0.278 0 0 0
v 0.108 0.130 0.216 0 0 0
v 0.105 0.130 0.284 0 0 0
v -0.500 0.130 0.216 0 0 0
v -0.500 0.130 0.284 0 0 0

# Normal Array
vn -1.000 0.000 0.000
vn -1.000 -0.000 0.000
vn -0.000 1.000 0.000
vn -0.000 1.000 0.000
vn -0.000 1.000 0.000
vn -0.000 1.000 0.000
vn 0.000 1.000 0.000
vn -0.000 1.000 -0.000
vn 0.000 1.000 0.000
vn -0.000 -1.000 -0.000
vn -0.000 -1.000 -0.000
vn 0.000 1.000 0.000
vn -0.000 1.000 0.000
vn -0.000 0.000 1.000
vn -0.000 0.000 1.000
vn -0.000 0.000 -1.000
vn -0.000 0.000 -1.000
vn 0.004 -0.007 -1.000
vn 0.000 -0.002 -1.000
vn -0.195 -0.002 -0.981
vn -0.191 -0.002 -0.982
vn -0.555 -0.001 -0.832
vn -0.553 -0.001 -0.833
vn -0.831 -0.001 -0.556
vn -0.830 -0.000 -0.557
vn -0.981 -0.000 -0.196
vn -0.981 -0.000 -0.196
vn -1.000 -0.000 -0.001
vn -1.000 0.000 -0.001
vn 1.000 0.002 0.000
vn 1.000 0.000 0.000
vn 0.991 0.000 0.131
vn 0.991 -0.000 0.131
vn 0.924 -0.000 0.383
vn 0.924 -0.000 0.383
vn 0.793 -0.000 0.609
vn 0.793 -0.000 0.609
vn 0.609 -0.000 0.793
vn 0.609 -0.000 0.793
vn 0.383 -0.000 0.924
vn 0.383 -0.000 0.924
vn 0.131 -0.000 0.991
vn 0.131 -0.000 0.991
vn 0.000 0.000 1.000
vn 0.000 0.000 1.000
vn -0.832 -0.000 -0.555
vn -0.831 -0.000 -0.556
vn -0.981 -0.000 -0.195
vn -0.981 -0.000 -0.195
vn -0.981 -0.000 -0.195
vn -1.000 -0.000 0.000
vn -1.000 -0.000 0.000
vn -1.000 -0.002 0.000
vn -1.000 -0.001 0.000
vn -1.000 -0.002 0.000
vn -1.000 -0.000 -0.000
vn -0.981 -0.000 -0.195
vn -0.981 -0.000 -0.195
vn -0.981 -0.000 -0.195
vn -0.831 -0.000 -0.556
vn -0.831 -0.000 -0.556
vn -0.831 -0.000 -0.556
vn -0.831 -0.000 -0.556
vn -0.556 -0.000 -0.831
vn -0.556 -0.000 -0.831
vn -0.556 -0.000 -0.831
vn -0.556 -0.000 -0.831
vn -0.195 -0.000 -0.981
vn -0.195 -0.000 -0.981
vn 0.000 0.000 -1.000
vn 0.000 0.000 -1.000
vn 0.000 0.000 -1.000
vn -0.195 -0.000 -0.981
vn 0.000 0.000 -1.000
vn -0.195 -0.000 -0.981
vn 0.000 0.000 -1.000
vn -0.000 0.000 -1.000
vn -0.195 -0.000 -0.981
vn -0.195 -0.000 -0.981
vn -0.556 -0.000 -0.831
vn -0.556 -0.000 -0.831
vn 0.556 0.000 0.831
vn 0.556 0.000 0.831
vn 0.195 0.000 0.981
vn 0.195 0.000 0.981
vn -0.000 0.000 1.000
vn -0.000 0.000 1.000
vn 0.000 -1.000 -0.000
vn 0.000 -1.000 -0.000
vn 0.000 -1.000 -0.000
vn 0.000 -1.000 -0.000
vn -0.000 -1.000 -0.000
vn -0.000 -1.000 -0.000
vn 0.000 -1.000 0.000
vn 1.000 0.000 0.000
vn 1.000 0.000 -0.000
vn 0.981 0.000 0.195
vn 0.981 0.000 0.195
vn 0.831 0.000 0.556
vn 0.831 0.000 0.556
vn -0.000 1.000 0.000
vn 0.000 1.000 0.000
vn 0.000 1.000 0.000
vn 0.000 1.000 0.000
vn 0.000 1.000 0.000
vn 0.000 1.000 0.000
vn -0.000 1.000 0.000
vn 0.000 1.000 -0.000
vn -0.000 1.000 -0.000
vn 0.000 1.000 0.000
vn 0.000 1.000 -0.000
vn 0.000 1.000 -0.000
vn 0.001 0.000 1.000
vn 0.001 0.000 1.000
vn 0.001 0.000 1.000
vn 0.195 0.000 0.981
vn 0.195 0.000 0.981
vn 0.556 -0.000 0.831
vn 0.001 0.000 1.000
vn 0.195 0.000 0.981
vn 0.001 0.000 1.000
vn 0.001 0.000 1.000
vn 0.195 0.000 0.981
vn 0.195 0.000 0.981
vn 0.195 0.000 0.981
vn 0.556 0.000 0.831
vn 0.556 -0.000 0.831
vn 0.556 0.000 0.831
vn 0.556 0.000 0.831
vn 0.556 0.000 0.831
vn 0.831 0.000 0.556
vn 0.831 0.000 0.556
vn 0.831 -0.000 0.556
vn 0.981 0.000 0.195
vn 0.831 0.000 0.556
vn 0.831 0.000 0.556
vn 0.831 0.000 0.556
vn 0.981 0.000 0.195
vn 0.981 0.000 0.195
vn 0.981 0.000 0.195
vn 1.000 0.000 -0.000
vn 1.000 0.000 0.000
vn 0.981 0.000 0.195
vn 0.981 0.000 0.195
vn 1.000 0.000 0.000
vn 1.000 0.000 0.000
vn 1.000 0.000 0.000
vn 1.000 0.000 0.000
vn -0.000 1.000 0.000
vn 0.000 1.000 -0.000
vn -0.000 1.000 -0.000
vn -0.000 1.000 -0.000
vn -0.000 1.000 -0.000
vn -0.000 1.000 -0.000
vn -0.000 1.000 -0.000
vn -0.000 1.000 -0.000
vn -0.000 1.000 -0.000
vn -0.000 1.000 -0.000
vn -0.000 1.000 -0.000
vn -0.000 1.000 -0.000
vn -0.000 1.000 0.000
vn 0.000 1.000 0.000
vn 0.000 -1.000 0.000
vn -0.000 -1.000 0.000
vn -0.000 -1.000 -0.000
vn -0.000 -1.000 0.000
vn -0.000 -1.000 -0.000
vn -0.000 -1.000 0.000
vn 0.000 -1.000 -0.000
vn -0.000 -1.000 0.000
vn -0.000 -1.000 -0.000
vn -0.000 -1.000 -0.000
vn -0.000 -1.000 -0.000
vn 0.000 -1.000 -0.000
vn -0.000 -1.000 -0.000
vn 0.000 -1.000 -0.000
vn 0.000 -1.000 -0.000
vn 0.000 -1.000 -0.000
vn 0.000 -1.000 -0.000
vn 0.000 -1.000 -0.000
vn 0.000 -1.000 -0.000
vn 0.000 -1.000 -0.000
vn 0.000 -1.000 -0.000
vn 0.000 -1.000 0.000
vn 0.000 -1.000 0.000
vn 0.000 -1.000 0.000
vn 0.000 -1.000 0.000
vn 0.000 -1.000 0.000

# Facets
f 1//1 3//1 2//1
f 4//2 3//2 1//2
f 5//3 7//3 6//3
f 8//4 6//4 7//4
f 8//5 7//5 9//5
f 10//6 9//6 7//6
f 9//7 11//7 8//7
f 12//8 8//8 11//8
f 13//9 12//9 11//9
f 14//10 16//10 15//10
f 17//11 16//11 14//11
f 18//12 20//12 19//12
f 21//13 20//13 18//13
f 22//14 24//14 23//14
f 25//15 24//15 22//15
f 26//16 28//16 27//16
f 29//17 28//17 26//17
f 30//18 32//18 31//18
f 33//19 32//19 30//19
f 30//20 34//20 33//20
f 35//21 34//21 30//21
f 35//22 36//22 34//22
f 37//23 36//23 35//23
f 37//24 38//24 36//24
f 39//25 38//25 37//25
f 39//26 40//26 38//26
f 41//27 40//27 39//27
f 41//28 42//28 40//28
f 43//29 42//29 41//29
f 44//30 46//30 45//30
f 47//31 46//31 44//31
f 44//32 48//32 47//32
f 47//33 48//33 49//33
f 48//34 50//34 49//34
f 49//35 50//35 51//35
f 50//36 52//36 51//36
f 51//37 52//37 53//37
f 52//38 54//38 53//38
f 53//39 54//39 55//39
f 54//40 56//40 55//40
f 55//41 56//41 57//41
f 56//42 58//42 57//42
f 57//43 58//43 59//43
f 60//44 59//44 58//44
f 61//45 59//45 60//45
f 62//46 64//46 63//46
f 65//47 64//47 62//47
f 66//48 65//48 62//48
f 67//49 65//49 66//49
f 67//50 68//50 65//50
f 67//51 66//51 69//51
f 69//52 68//52 67//52
f 69//53 66//53 70//53
f 71//54 68//54 69//54
f 72//55 68//55 71//55
f 73//56 68//56 72//56
f 73//57 74//57 68//57
f 68//58 75//58 65//58
f 68//59 74//59 75//59
f 74//60 76//60 75//60
f 75//61 76//61 77//61
f 75//62 78//62 65//62
f 75//63 77//63 78//63
f 77//64 79//64 78//64
f 80//65 78//65 79//65
f 78//66 80//66 81//66
f 81//67 80//67 82//67
f 80//68 83//68 82//68
f 82//69 83//69 84//69
f 85//70 84//70 83//70
f 86//71 84//71 85//71
f 85//72 83//72 87//72
f 83//73 80//73 88//73
f 88//74 87//74 83//74
f 79//75 88//75 80//75
f 87//76 88//76 89//76
f 89//77 88//77 90//77
f 79//78 90//78 88//78
f 91//79 90//79 79//79
f 92//80 91//80 79//80
f 93//81 91//81 92//81
f 94//82 96//82 95//82
f 97//83 96//83 94//83
f 98//84 97//84 94//84
f 99//85 97//85 98//85
f 98//86 100//86 99//86
f 101//87 100//87 98//87
f 102//88 104//88 103//88
f 103//89 104//89 105//89
f 106//90 105//90 104//90
f 107//91 106//91 104//91
f 108//92 103//92 105//92
f 109//93 103//93 108//93
f 110//94 108//94 105//94
f 111//95 113//95 112//95
f 112//96 113//96 114//96
f 115//97 114//97 113//97
f 116//98 114//98 115//98
f 117//99 116//99 115//99
f 118//100 116//100 117//100
f 119//101 121//101 120//101
f 121//102 122//102 120//102
f 122//103 123//103 120//103
f 122//104 124//104 123//104
f 124//105 125//105 123//105
f 124//106 126//106 125//106
f 126//107 127//107 125//107
f 125//108 127//108 128//108
f 127//109 129//109 128//109
f 129//110 130//110 128//110
f 129//111 131//111 130//111
f 131//112 132//112 130//112
f 133//113 135//113 134//113
f 134//114 135//114 136//114
f 135//115 137//115 136//115
f 136//116 138//116 134//116
f 134//117 138//117 139//117
f 138//118 140//118 139//118
f 137//119 141//119 136//119
f 138//120 136//120 141//120
f 137//121 142//121 141//121
f 141//122 142//122 143//122
f 143//123 144//123 141//123
f 141//124 144//124 138//124
f 145//125 144//125 143//125
f 146//126 140//126 138//126
f 144//127 146//127 138//127
f 145//128 147//128 144//128
f 144//129 147//129 146//129
f 148//130 147//130 145//130
f 148//131 149//131 147//131
f 147//132 149//132 150//132
f 147//133 150//133 146//133
f 149//134 151//134 150//134
f 146//135 152//135 140//135
f 152//136 146//136 150//136
f 140//137 152//137 153//137
f 152//138 154//138 153//138
f 155//139 154//139 152//139
f 155//140 152//140 150//140
f 155//141 156//141 154//141
f 157//142 156//142 155//142
f 150//143 151//143 158//143
f 155//144 150//144 158//144
f 157//145 155//145 158//145
f 159//146 158//146 151//146
f 160//147 157//147 158//147
f 160//148 158//148 159//148
f 161//149 163//149 162//149
f 162//150 163//150 164//150
f 163//151 165//151 164//151
f 164//152 165//152 166//152
f 165//153 167//153 166//153
f 166//154 167//154 168//154
f 167//155 169//155 168//155
f 169//156 170//156 168//156
f 170//157 171//157 168//157
f 170//158 172//158 171//158
f 172//159 173//159 171//159
f 172//160 174//160 173//160
f 175//161 173//161 174//161
f 176//162 175//162 174//162
f 177//163 179//163 178//163
f 179//164 180//164 178//164
f 180//165 181//165 178//165
f 180//166 182//166 181//166
f 182//167 183//167 181//167
f 182//168 184//168 183//168
f 184//169 185//169 183//169
f 183//170 185//170 186//170
f 185//171 187//171 186//171
f 187//172 188//172 186//172
f 187//173 189//173 188//173
f 189//174 190//174 188//174
f 191//175 193//175 192//175
f 194//176 191//176 192//176
f 192//177 195//177 194//177
f 194//178 195//178 196//178
f 195//179 197//179 196//179
f 196//180 197//180 198//180
f 197//181 199//181 198//181
f 199//182 200//182 198//182
f 200//183 201//183 198//183
f 200//184 202//184 201//184
f 202//185 203//185 201//185
f 202//186 204//186 203//186
f 205//187 203//187 204//187
f 206//188 205//188 204//188

# Thank you for using Spin 3D

