# Created using Spin 3D

# Vertex Array 
v -0.119 -0.108 -0.024 0 0 0
v -0.121 -0.108 -0.000 0 0 0
v -0.104 -0.115 -0.000 0 0 0
v -0.102 -0.115 -0.020 0 0 0
v -0.024 0.090 0.119 0 0 0
v -0.024 -0.108 0.119 0 0 0
v -0.020 -0.115 0.102 0 0 0
v -0.020 0.097 0.102 0 0 0
v 0.112 -0.108 0.046 0 0 0
v 0.112 0.090 0.046 0 0 0
v 0.096 0.097 0.040 0 0 0
v 0.096 -0.115 0.040 0 0 0
v -0.119 0.090 -0.024 0 0 0
v -0.119 -0.108 -0.024 0 0 0
v -0.102 -0.115 -0.020 0 0 0
v -0.102 0.097 -0.020 0 0 0
v -0.000 -0.108 0.121 0 0 0
v -0.000 0.090 0.121 0 0 0
v -0.000 0.097 0.104 0 0 0
v -0.000 -0.115 0.104 0 0 0
v -0.040 -0.115 0.096 0 0 0
v -0.040 0.097 0.096 0 0 0
v -0.020 0.097 0.102 0 0 0
v -0.020 -0.115 0.102 0 0 0
v 0.121 0.090 0.000 0 0 0
v 0.119 0.090 0.024 0 0 0
v 0.102 0.097 0.020 0 0 0
v 0.104 0.097 0.000 0 0 0
v 0.021 0.097 0.021 0 0 0
v 0.096 0.097 0.040 0 0 0
v 0.030 0.097 0.000 0 0 0
v 0.102 0.097 -0.020 0 0 0
v 0.021 0.097 -0.021 0 0 0
v -0.000 0.097 -0.030 0 0 0
v 0.040 0.097 0.096 0 0 0
v -0.000 0.097 0.030 0 0 0
v 0.020 0.097 0.102 0 0 0
v -0.096 0.097 0.040 0 0 0
v 0.046 0.090 0.112 0 0 0
v 0.024 0.090 0.119 0 0 0
v -0.021 0.097 0.021 0 0 0
v 0.086 0.097 0.058 0 0 0
v 0.112 0.090 0.046 0 0 0
v 0.101 0.090 0.067 0 0 0
v 0.074 0.097 0.074 0 0 0
v 0.058 0.097 0.086 0 0 0
v 0.086 0.090 0.086 0 0 0
v 0.067 0.090 0.101 0 0 0
v -0.102 0.097 0.020 0 0 0
v -0.112 0.090 0.046 0 0 0
v -0.119 0.090 0.024 0 0 0
v -0.104 0.097 0.000 0 0 0
v -0.030 0.097 0.000 0 0 0
v -0.102 0.097 -0.020 0 0 0
v -0.121 0.090 0.000 0 0 0
v -0.119 0.090 -0.024 0 0 0
v -0.021 0.097 -0.021 0 0 0
v -0.096 0.097 -0.040 0 0 0
v 0.096 0.097 -0.040 0 0 0
v 0.112 0.090 -0.046 0 0 0
v 0.119 0.090 -0.024 0 0 0
v -0.086 0.097 -0.058 0 0 0
v -0.112 0.090 -0.046 0 0 0
v -0.101 0.090 -0.067 0 0 0
v 0.086 0.097 -0.058 0 0 0
v -0.074 0.097 -0.074 0 0 0
v 0.074 0.097 -0.074 0 0 0
v 0.086 0.090 -0.086 0 0 0
v 0.101 0.090 -0.067 0 0 0
v -0.058 0.097 -0.086 0 0 0
v -0.086 0.090 -0.086 0 0 0
v -0.067 0.090 -0.101 0 0 0
v 0.058 0.097 -0.086 0 0 0
v -0.040 0.097 -0.096 0 0 0
v 0.040 0.097 -0.096 0 0 0
v 0.046 0.090 -0.112 0 0 0
v 0.067 0.090 -0.101 0 0 0
v -0.020 0.097 -0.102 0 0 0
v -0.046 0.090 -0.112 0 0 0
v -0.024 0.090 -0.119 0 0 0
v 0.020 0.097 -0.102 0 0 0
v -0.000 0.097 -0.104 0 0 0
v -0.000 0.090 -0.121 0 0 0
v 0.024 0.090 -0.119 0 0 0
v 0.101 0.090 0.067 0 0 0
v 0.101 -0.108 0.067 0 0 0
v 0.086 -0.115 0.058 0 0 0
v 0.086 0.097 0.058 0 0 0
v -0.101 0.090 0.067 0 0 0
v -0.101 -0.108 0.067 0 0 0
v -0.086 -0.115 0.058 0 0 0
v -0.086 0.097 0.058 0 0 0
v 0.067 0.090 -0.101 0 0 0
v 0.067 -0.108 -0.101 0 0 0
v 0.058 -0.115 -0.086 0 0 0
v 0.058 0.097 -0.086 0 0 0
v -0.112 -0.108 0.046 0 0 0
v -0.112 0.090 0.046 0 0 0
v -0.096 0.097 0.040 0 0 0
v -0.096 -0.115 0.040 0 0 0
v -0.074 -0.115 0.074 0 0 0
v -0.074 0.097 0.074 0 0 0
v -0.058 0.097 0.086 0 0 0
v -0.058 -0.115 0.086 0 0 0
v -0.101 -0.108 0.067 0 0 0
v -0.086 -0.108 0.086 0 0 0
v -0.074 -0.115 0.074 0 0 0
v -0.086 -0.115 0.058 0 0 0
v 0.067 -0.108 -0.101 0 0 0
v 0.046 -0.108 -0.112 0 0 0
v 0.040 -0.115 -0.096 0 0 0
v 0.058 -0.115 -0.086 0 0 0
v -0.024 -0.108 0.119 0 0 0
v -0.000 -0.108 0.121 0 0 0
v -0.000 -0.115 0.104 0 0 0
v -0.020 -0.115 0.102 0 0 0
v -0.096 -0.115 0.040 0 0 0
v -0.096 0.097 0.040 0 0 0
v -0.086 0.097 0.058 0 0 0
v -0.086 -0.115 0.058 0 0 0
v 0.121 -0.108 0.000 0 0 0
v 0.121 0.090 0.000 0 0 0
v 0.104 0.097 0.000 0 0 0
v 0.104 -0.115 0.000 0 0 0
v 0.101 -0.108 0.067 0 0 0
v 0.112 -0.108 0.046 0 0 0
v 0.096 -0.115 0.040 0 0 0
v 0.086 -0.115 0.058 0 0 0
v 0.024 0.090 0.119 0 0 0
v 0.024 -0.108 0.119 0 0 0
v 0.020 -0.115 0.102 0 0 0
v 0.020 0.097 0.102 0 0 0
v -0.067 0.090 0.101 0 0 0
v -0.067 -0.108 0.101 0 0 0
v -0.058 -0.115 0.086 0 0 0
v -0.058 0.097 0.086 0 0 0
v -0.101 0.090 -0.067 0 0 0
v -0.101 -0.108 -0.067 0 0 0
v -0.086 -0.115 -0.058 0 0 0
v -0.086 0.097 -0.058 0 0 0
v -0.104 -0.115 -0.000 0 0 0
v -0.104 0.097 0.000 0 0 0
v -0.102 0.097 0.020 0 0 0
v -0.102 -0.115 0.020 0 0 0
v -0.067 -0.108 0.101 0 0 0
v -0.046 -0.108 0.112 0 0 0
v -0.040 -0.115 0.096 0 0 0
v -0.058 -0.115 0.086 0 0 0
v -0.101 -0.108 -0.067 0 0 0
v -0.112 -0.108 -0.046 0 0 0
v -0.096 -0.115 -0.040 0 0 0
v -0.086 -0.115 -0.058 0 0 0
v -0.112 -0.108 -0.046 0 0 0
v -0.112 0.090 -0.046 0 0 0
v -0.096 0.097 -0.040 0 0 0
v -0.096 -0.115 -0.040 0 0 0
v 0.067 0.090 0.101 0 0 0
v 0.067 -0.108 0.101 0 0 0
v 0.058 -0.115 0.086 0 0 0
v 0.058 0.097 0.086 0 0 0
v -0.000 -0.108 -0.121 0 0 0
v -0.000 0.090 -0.121 0 0 0
v -0.000 0.097 -0.104 0 0 0
v -0.000 -0.115 -0.104 0 0 0
v -0.096 -0.115 -0.040 0 0 0
v -0.096 0.097 -0.040 0 0 0
v -0.102 0.097 -0.020 0 0 0
v -0.102 -0.115 -0.020 0 0 0
v -0.121 -0.108 -0.000 0 0 0
v -0.121 0.090 0.000 0 0 0
v -0.104 0.097 0.000 0 0 0
v -0.104 -0.115 -0.000 0 0 0
v 0.101 0.090 -0.067 0 0 0
v 0.101 -0.108 -0.067 0 0 0
v 0.086 -0.115 -0.058 0 0 0
v 0.086 0.097 -0.058 0 0 0
v -0.074 -0.115 -0.074 0 0 0
v -0.074 0.097 -0.074 0 0 0
v -0.086 0.097 -0.058 0 0 0
v -0.086 -0.115 -0.058 0 0 0
v 0.067 -0.108 0.101 0 0 0
v 0.086 -0.108 0.086 0 0 0
v 0.074 -0.115 0.074 0 0 0
v 0.058 -0.115 0.086 0 0 0
v -0.000 0.090 0.121 0 0 0
v -0.024 0.090 0.119 0 0 0
v -0.020 0.097 0.102 0 0 0
v -0.000 0.097 0.104 0 0 0
v -0.040 0.097 0.096 0 0 0
v -0.058 0.097 0.086 0 0 0
v -0.046 0.090 0.112 0 0 0
v -0.067 0.090 0.101 0 0 0
v -0.074 0.097 0.074 0 0 0
v -0.086 0.097 0.058 0 0 0
v -0.086 0.090 0.086 0 0 0
v -0.101 0.090 0.067 0 0 0
v 0.024 -0.108 0.119 0 0 0
v 0.046 -0.108 0.112 0 0 0
v 0.040 -0.115 0.096 0 0 0
v 0.020 -0.115 0.102 0 0 0
v -0.067 0.090 -0.101 0 0 0
v -0.067 -0.108 -0.101 0 0 0
v -0.058 -0.115 -0.086 0 0 0
v -0.058 0.097 -0.086 0 0 0
v -0.040 -0.115 -0.096 0 0 0
v -0.040 0.097 -0.096 0 0 0
v -0.058 0.097 -0.086 0 0 0
v -0.058 -0.115 -0.086 0 0 0
v 0.101 -0.108 -0.067 0 0 0
v 0.086 -0.108 -0.086 0 0 0
v 0.074 -0.115 -0.074 0 0 0
v 0.086 -0.115 -0.058 0 0 0
v -0.024 0.090 -0.119 0 0 0
v -0.024 -0.108 -0.119 0 0 0
v -0.020 -0.115 -0.102 0 0 0
v -0.020 0.097 -0.102 0 0 0
v -0.067 -0.108 -0.101 0 0 0
v -0.086 -0.108 -0.086 0 0 0
v -0.074 -0.115 -0.074 0 0 0
v -0.058 -0.115 -0.086 0 0 0
v 0.024 -0.108 0.119 0 0 0
v 0.024 0.090 0.119 0 0 0
v 0.046 0.090 0.112 0 0 0
v 0.046 -0.108 0.112 0 0 0
v -0.000 -0.115 -0.104 0 0 0
v -0.000 0.097 -0.104 0 0 0
v -0.020 0.097 -0.102 0 0 0
v -0.020 -0.115 -0.102 0 0 0
v 0.046 -0.108 -0.112 0 0 0
v 0.046 0.090 -0.112 0 0 0
v 0.040 0.097 -0.096 0 0 0
v 0.040 -0.115 -0.096 0 0 0
v 0.067 -0.108 0.101 0 0 0
v 0.067 0.090 0.101 0 0 0
v 0.086 0.090 0.086 0 0 0
v 0.086 -0.108 0.086 0 0 0
v 0.101 -0.108 0.067 0 0 0
v 0.101 0.090 0.067 0 0 0
v 0.112 0.090 0.046 0 0 0
v 0.112 -0.108 0.046 0 0 0
v 0.040 -0.115 -0.096 0 0 0
v 0.040 0.097 -0.096 0 0 0
v 0.020 0.097 -0.102 0 0 0
v 0.020 -0.115 -0.102 0 0 0
v 0.119 0.090 -0.024 0 0 0
v 0.119 -0.108 -0.024 0 0 0
v 0.102 -0.115 -0.020 0 0 0
v 0.102 0.097 -0.020 0 0 0
v 0.119 -0.108 0.024 0 0 0
v 0.119 0.090 0.024 0 0 0
v 0.121 0.090 0.000 0 0 0
v 0.121 -0.108 0.000 0 0 0
v -0.024 -0.108 -0.119 0 0 0
v -0.046 -0.108 -0.112 0 0 0
v -0.040 -0.115 -0.096 0 0 0
v -0.020 -0.115 -0.102 0 0 0
v -0.046 -0.108 0.112 0 0 0
v -0.046 0.090 0.112 0 0 0
v -0.040 0.097 0.096 0 0 0
v -0.040 -0.115 0.096 0 0 0
v 0.119 -0.108 -0.024 0 0 0
v 0.119 0.090 -0.024 0 0 0
v 0.112 0.090 -0.046 0 0 0
v 0.112 -0.108 -0.046 0 0 0
v 0.074 -0.115 -0.074 0 0 0
v 0.074 0.097 -0.074 0 0 0
v 0.058 0.097 -0.086 0 0 0
v 0.058 -0.115 -0.086 0 0 0
v 0.101 -0.108 -0.067 0 0 0
v 0.101 0.090 -0.067 0 0 0
v 0.086 0.090 -0.086 0 0 0
v 0.086 -0.108 -0.086 0 0 0
v 0.086 -0.108 -0.086 0 0 0
v 0.086 0.090 -0.086 0 0 0
v 0.074 0.097 -0.074 0 0 0
v 0.074 -0.115 -0.074 0 0 0
v 0.119 -0.108 -0.024 0 0 0
v 0.112 -0.108 -0.046 0 0 0
v 0.096 -0.115 -0.040 0 0 0
v 0.102 -0.115 -0.020 0 0 0
v 0.067 -0.108 -0.101 0 0 0
v 0.067 0.090 -0.101 0 0 0
v 0.046 0.090 -0.112 0 0 0
v 0.046 -0.108 -0.112 0 0 0
v 0.096 -0.115 -0.040 0 0 0
v 0.096 0.097 -0.040 0 0 0
v 0.086 0.097 -0.058 0 0 0
v 0.086 -0.115 -0.058 0 0 0
v 0.086 -0.108 0.086 0 0 0
v 0.086 0.090 0.086 0 0 0
v 0.074 0.097 0.074 0 0 0
v 0.074 -0.115 0.074 0 0 0
v 0.024 -0.108 -0.119 0 0 0
v 0.024 0.090 -0.119 0 0 0
v -0.000 0.090 -0.121 0 0 0
v -0.000 -0.108 -0.121 0 0 0
v -0.119 0.090 0.024 0 0 0
v -0.119 -0.108 0.024 0 0 0
v -0.102 -0.115 0.020 0 0 0
v -0.102 0.097 0.020 0 0 0
v -0.024 -0.108 -0.119 0 0 0
v -0.024 0.090 -0.119 0 0 0
v -0.046 0.090 -0.112 0 0 0
v -0.046 -0.108 -0.112 0 0 0
v 0.104 -0.115 0.000 0 0 0
v 0.104 0.097 0.000 0 0 0
v 0.102 0.097 -0.020 0 0 0
v 0.102 -0.115 -0.020 0 0 0
v -0.119 -0.108 0.024 0 0 0
v -0.112 -0.108 0.046 0 0 0
v -0.096 -0.115 0.040 0 0 0
v -0.102 -0.115 0.020 0 0 0
v -0.067 -0.108 -0.101 0 0 0
v -0.067 0.090 -0.101 0 0 0
v -0.086 0.090 -0.086 0 0 0
v -0.086 -0.108 -0.086 0 0 0
v 0.119 0.090 0.024 0 0 0
v 0.119 -0.108 0.024 0 0 0
v 0.102 -0.115 0.020 0 0 0
v 0.102 0.097 0.020 0 0 0
v -0.086 -0.108 -0.086 0 0 0
v -0.086 0.090 -0.086 0 0 0
v -0.074 0.097 -0.074 0 0 0
v -0.074 -0.115 -0.074 0 0 0
v -0.101 -0.108 -0.067 0 0 0
v -0.101 0.090 -0.067 0 0 0
v -0.112 0.090 -0.046 0 0 0
v -0.112 -0.108 -0.046 0 0 0
v 0.096 -0.115 0.040 0 0 0
v 0.096 0.097 0.040 0 0 0
v 0.102 0.097 0.020 0 0 0
v 0.102 -0.115 0.020 0 0 0
v -0.119 -0.108 -0.024 0 0 0
v -0.119 0.090 -0.024 0 0 0
v -0.121 0.090 0.000 0 0 0
v -0.121 -0.108 -0.000 0 0 0
v -0.086 -0.108 0.086 0 0 0
v -0.086 0.090 0.086 0 0 0
v -0.074 0.097 0.074 0 0 0
v -0.074 -0.115 0.074 0 0 0
v 0.024 0.090 -0.119 0 0 0
v 0.024 -0.108 -0.119 0 0 0
v 0.020 -0.115 -0.102 0 0 0
v 0.020 0.097 -0.102 0 0 0
v -0.119 -0.108 0.024 0 0 0
v -0.119 0.090 0.024 0 0 0
v -0.112 0.090 0.046 0 0 0
v -0.112 -0.108 0.046 0 0 0
v 0.074 -0.115 0.074 0 0 0
v 0.074 0.097 0.074 0 0 0
v 0.086 0.097 0.058 0 0 0
v 0.086 -0.115 0.058 0 0 0
v -0.101 -0.108 0.067 0 0 0
v -0.101 0.090 0.067 0 0 0
v -0.086 0.090 0.086 0 0 0
v -0.086 -0.108 0.086 0 0 0
v 0.024 -0.108 -0.119 0 0 0
v -0.000 -0.108 -0.121 0 0 0
v -0.000 -0.115 -0.104 0 0 0
v 0.020 -0.115 -0.102 0 0 0
v -0.067 -0.108 0.101 0 0 0
v -0.067 0.090 0.101 0 0 0
v -0.046 0.090 0.112 0 0 0
v -0.046 -0.108 0.112 0 0 0
v 0.040 -0.115 0.096 0 0 0
v 0.040 0.097 0.096 0 0 0
v 0.058 0.097 0.086 0 0 0
v 0.058 -0.115 0.086 0 0 0
v -0.024 -0.108 0.119 0 0 0
v -0.024 0.090 0.119 0 0 0
v -0.000 0.090 0.121 0 0 0
v -0.000 -0.108 0.121 0 0 0
v 0.119 -0.108 0.024 0 0 0
v 0.121 -0.108 0.000 0 0 0
v 0.104 -0.115 0.000 0 0 0
v 0.102 -0.115 0.020 0 0 0
v -0.046 -0.108 -0.112 0 0 0
v -0.046 0.090 -0.112 0 0 0
v -0.040 0.097 -0.096 0 0 0
v -0.040 -0.115 -0.096 0 0 0
v 0.112 -0.108 -0.046 0 0 0
v 0.112 0.090 -0.046 0 0 0
v 0.096 0.097 -0.040 0 0 0
v 0.096 -0.115 -0.040 0 0 0
v -0.000 -0.115 0.104 0 0 0
v -0.000 0.097 0.104 0 0 0
v 0.020 0.097 0.102 0 0 0
v 0.020 -0.115 0.102 0 0 0
v -0.000 0.097 -0.030 0 0 0
v -0.000 0.115 -0.030 0 0 0
v -0.021 0.097 -0.021 0 0 0
v -0.021 0.115 -0.021 0 0 0
v -0.030 0.097 0.000 0 0 0
v -0.030 0.115 0.000 0 0 0
v 0.046 -0.108 0.112 0 0 0
v 0.046 0.090 0.112 0 0 0
v 0.040 0.097 0.096 0 0 0
v 0.040 -0.115 0.096 0 0 0
v -0.021 0.115 -0.021 0 0 0
v -0.000 0.115 -0.030 0 0 0
v 0.021 0.115 -0.021 0 0 0
v -0.030 0.115 0.000 0 0 0
v 0.030 0.115 0.000 0 0 0
v -0.021 0.115 0.021 0 0 0
v 0.021 0.115 0.021 0 0 0
v -0.000 0.115 0.030 0 0 0
v -0.021 0.115 0.021 0 0 0
v -0.000 0.115 0.030 0 0 0
v -0.000 0.097 0.030 0 0 0
v -0.021 0.097 0.021 0 0 0
v -0.030 0.115 0.000 0 0 0
v -0.030 0.097 0.000 0 0 0
v -0.000 0.115 0.030 0 0 0
v 0.021 0.115 0.021 0 0 0
v -0.000 0.097 0.030 0 0 0
v 0.021 0.097 0.021 0 0 0
v 0.030 0.097 0.000 0 0 0
v 0.030 0.115 0.000 0 0 0
v 0.021 0.115 -0.021 0 0 0
v -0.000 0.115 -0.030 0 0 0
v -0.000 0.097 -0.030 0 0 0
v 0.021 0.097 -0.021 0 0 0
v 0.030 0.115 0.000 0 0 0
v 0.030 0.097 0.000 0 0 0

# Normal Array
vn -0.386 -0.922 -0.038
vn -0.386 -0.922 -0.038
vn -0.981 -0.000 -0.195
vn -0.981 0.000 -0.195
vn 0.383 0.000 -0.924
vn 0.383 0.000 -0.924
vn 0.195 0.000 -0.981
vn 0.195 0.000 -0.981
vn 1.000 -0.000 0.000
vn 1.000 -0.000 0.000
vn -0.290 -0.000 0.957
vn -0.290 -0.000 0.957
vn 0.386 0.922 0.038
vn 0.386 0.922 0.038
vn 0.000 1.000 0.000
vn 0.000 1.000 0.000
vn 0.000 1.000 0.000
vn 0.000 1.000 -0.000
vn 0.000 1.000 0.000
vn 0.000 1.000 0.000
vn -0.000 1.000 0.000
vn 0.000 1.000 0.000
vn 0.000 1.000 0.000
vn 0.000 1.000 0.000
vn 0.112 0.922 0.371
vn 0.112 0.922 0.371
vn 0.000 1.000 -0.000
vn -0.000 1.000 -0.000
vn 0.342 0.922 0.183
vn 0.342 0.922 0.183
vn -0.000 1.000 -0.000
vn 0.000 1.000 0.000
vn 0.246 0.922 0.299
vn 0.246 0.922 0.299
vn 0.000 1.000 0.000
vn -0.371 0.922 0.112
vn -0.371 0.922 0.112
vn 0.000 1.000 0.000
vn 0.000 1.000 -0.000
vn 0.000 1.000 0.000
vn -0.386 0.922 -0.038
vn -0.386 0.922 -0.038
vn 0.000 1.000 0.000
vn 0.000 1.000 0.000
vn 0.000 1.000 0.000
vn 0.000 1.000 0.000
vn 0.000 1.000 -0.000
vn 0.371 0.922 -0.112
vn 0.371 0.922 -0.112
vn 0.000 1.000 0.000
vn -0.342 0.922 -0.183
vn -0.342 0.922 -0.183
vn 0.000 1.000 -0.000
vn 0.000 1.000 0.000
vn 0.000 1.000 -0.000
vn 0.299 0.922 -0.246
vn 0.299 0.922 -0.246
vn 0.000 1.000 0.000
vn -0.246 0.922 -0.299
vn -0.246 0.922 -0.299
vn 0.000 1.000 0.000
vn 0.000 1.000 0.000
vn 0.000 1.000 -0.000
vn 0.183 0.922 -0.342
vn 0.183 0.922 -0.342
vn 0.000 1.000 0.000
vn -0.112 0.922 -0.371
vn -0.112 0.922 -0.371
vn 0.000 1.000 -0.000
vn -0.000 1.000 0.000
vn 0.038 0.922 -0.386
vn 0.038 0.922 -0.386
vn -0.556 -0.000 0.831
vn -0.556 -0.000 0.831
vn -0.556 0.000 -0.831
vn -0.556 0.000 -0.831
vn 0.831 -0.000 0.556
vn 0.831 -0.000 0.556
vn 0.383 -0.000 0.924
vn 0.383 -0.000 0.924
vn -0.634 -0.000 0.773
vn -0.634 -0.000 0.773
vn -0.299 -0.922 0.246
vn -0.299 -0.922 0.246
vn 0.183 -0.922 -0.342
vn 0.183 -0.922 -0.342
vn -0.038 -0.922 0.386
vn -0.038 -0.922 0.386
vn -0.882 -0.000 0.471
vn -0.882 -0.000 0.471
vn 0.000 0.000 -1.000
vn -0.000 0.000 -1.000
vn 0.342 -0.922 0.183
vn 0.342 -0.922 0.183
vn -0.981 -0.000 0.195
vn -0.981 -0.000 0.195
vn -0.831 0.000 -0.556
vn -0.831 0.000 -0.556
vn 0.556 0.000 -0.831
vn 0.556 0.000 -0.831
vn -0.995 -0.000 0.098
vn -0.995 -0.000 0.098
vn -0.183 -0.922 0.342
vn -0.183 -0.922 0.342
vn -0.342 -0.922 -0.183
vn -0.342 -0.922 -0.183
vn -0.383 -0.000 0.924
vn -0.383 -0.000 0.924
vn -0.831 -0.000 0.556
vn -0.831 -0.000 0.556
vn -1.000 0.000 0.000
vn -1.000 0.000 0.000
vn -0.957 0.000 -0.290
vn -0.957 0.000 -0.290
vn 0.000 -0.000 1.000
vn -0.000 -0.000 1.000
vn 0.556 -0.000 0.831
vn 0.556 -0.000 0.831
vn -0.773 0.000 -0.634
vn -0.773 0.000 -0.634
vn 0.246 -0.922 0.299
vn 0.246 -0.922 0.299
vn -0.038 0.922 0.386
vn -0.038 0.922 0.386
vn 0.000 1.000 0.000
vn 0.000 1.000 0.000
vn 0.000 1.000 0.000
vn -0.183 0.922 0.342
vn -0.183 0.922 0.342
vn -0.000 1.000 0.000
vn 0.000 1.000 -0.000
vn 0.000 1.000 -0.000
vn -0.299 0.922 0.246
vn -0.299 0.922 0.246
vn 0.112 -0.922 0.371
vn 0.112 -0.922 0.371
vn 0.831 0.000 -0.556
vn 0.831 0.000 -0.556
vn -0.471 0.000 -0.882
vn -0.471 0.000 -0.882
vn 0.299 -0.922 -0.246
vn 0.299 -0.922 -0.246
vn 0.981 0.000 -0.195
vn 0.981 0.000 -0.195
vn -0.246 -0.922 -0.299
vn -0.246 -0.922 -0.299
vn 0.290 -0.000 0.957
vn 0.290 -0.000 0.957
vn -0.098 0.000 -0.995
vn -0.098 0.000 -0.995
vn -0.924 0.000 -0.383
vn -0.924 0.000 -0.383
vn 0.634 -0.000 0.773
vn 0.634 -0.000 0.773
vn 0.882 -0.000 0.471
vn 0.882 -0.000 0.471
vn 0.290 0.000 -0.957
vn 0.290 0.000 -0.957
vn 0.195 -0.000 0.981
vn 0.195 -0.000 0.981
vn 0.995 -0.000 0.098
vn 0.995 -0.000 0.098
vn -0.112 -0.922 -0.371
vn -0.112 -0.922 -0.371
vn 0.924 -0.000 0.383
vn 0.924 -0.000 0.383
vn 0.957 0.000 -0.290
vn 0.957 0.000 -0.290
vn 0.634 0.000 -0.773
vn 0.634 0.000 -0.773
vn 0.773 0.000 -0.634
vn 0.773 0.000 -0.634
vn -0.707 0.000 -0.707
vn -0.707 0.000 -0.707
vn 0.371 -0.922 -0.112
vn 0.371 -0.922 -0.112
vn 0.471 0.000 -0.882
vn 0.471 0.000 -0.882
vn 0.882 0.000 -0.471
vn 0.882 0.000 -0.471
vn 0.707 0.000 -0.707
vn 0.707 0.000 -0.707
vn 0.098 0.000 -0.995
vn 0.098 0.000 -0.995
vn -0.195 0.000 -0.981
vn -0.195 0.000 -0.981
vn -0.290 0.000 -0.957
vn -0.290 0.000 -0.957
vn 0.995 0.000 -0.098
vn 0.995 0.000 -0.098
vn -0.371 -0.922 0.112
vn -0.371 -0.922 0.112
vn -0.634 0.000 -0.773
vn -0.634 0.000 -0.773
vn -0.195 -0.000 0.981
vn -0.195 -0.000 0.981
vn -0.707 -0.000 0.707
vn -0.707 -0.000 0.707
vn -0.882 0.000 -0.471
vn -0.882 0.000 -0.471
vn 0.957 -0.000 0.290
vn 0.957 -0.000 0.290
vn -0.995 0.000 -0.098
vn -0.995 0.000 -0.098
vn 0.707 -0.000 0.707
vn 0.707 -0.000 0.707
vn 0.981 0.000 0.195
vn 0.981 -0.000 0.195
vn -0.957 -0.000 0.290
vn -0.957 -0.000 0.290
vn 0.773 -0.000 0.634
vn 0.773 -0.000 0.634
vn -0.773 -0.000 0.634
vn -0.773 -0.000 0.634
vn 0.038 -0.922 -0.386
vn 0.038 -0.922 -0.386
vn -0.471 -0.000 0.882
vn -0.471 0.000 0.882
vn 0.471 -0.000 0.882
vn 0.471 -0.000 0.882
vn -0.098 0.000 0.995
vn -0.098 -0.000 0.995
vn 0.386 -0.922 0.038
vn 0.386 -0.922 0.038
vn -0.924 -0.000 0.383
vn -0.924 -0.000 0.383
vn -0.383 0.000 -0.924
vn -0.383 0.000 -0.924
vn 0.098 -0.000 0.995
vn 0.098 -0.000 0.995
vn -0.383 0.000 -0.924
vn -0.383 0.000 -0.924
vn -0.924 0.000 -0.383
vn -0.924 0.000 -0.383
vn 0.924 0.000 -0.383
vn 0.924 0.000 -0.383
vn -0.000 1.000 0.000
vn 0.000 1.000 0.000
vn 0.000 1.000 -0.000
vn 0.000 1.000 0.000
vn 0.000 1.000 0.000
vn 0.000 1.000 0.000
vn -0.383 -0.000 0.924
vn -0.383 -0.000 0.924
vn -0.924 -0.000 0.383
vn -0.924 -0.000 0.383
vn 0.383 -0.000 0.924
vn 0.383 -0.000 0.924
vn 0.924 -0.000 0.383
vn 0.924 0.000 0.383
vn 0.383 0.000 -0.924
vn 0.383 0.000 -0.924
vn 0.924 0.000 -0.383
vn 0.924 0.000 -0.383

# Facets
f 1//1 3//1 2//1
f 4//2 3//2 1//2
f 5//3 7//3 6//3
f 8//4 7//4 5//4
f 9//5 11//5 10//5
f 12//6 11//6 9//6
f 13//7 15//7 14//7
f 16//8 15//8 13//8
f 17//9 19//9 18//9
f 20//10 19//10 17//10
f 21//11 23//11 22//11
f 24//12 23//12 21//12
f 25//13 27//13 26//13
f 28//14 27//14 25//14
f 28//15 29//15 27//15
f 27//16 29//16 30//16
f 28//17 31//17 29//17
f 32//18 31//18 28//18
f 32//19 33//19 31//19
f 32//20 34//20 33//20
f 30//21 29//21 35//21
f 29//22 36//22 35//22
f 35//23 36//23 37//23
f 36//24 38//24 37//24
f 35//25 37//25 39//25
f 39//26 37//26 40//26
f 41//27 38//27 36//27
f 30//28 35//28 42//28
f 30//29 42//29 43//29
f 43//30 42//30 44//30
f 42//31 35//31 45//31
f 45//32 35//32 46//32
f 45//33 46//33 47//33
f 47//34 46//34 48//34
f 41//35 49//35 38//35
f 38//36 49//36 50//36
f 50//37 49//37 51//37
f 41//38 52//38 49//38
f 53//39 52//39 41//39
f 53//40 54//40 52//40
f 52//41 54//41 55//41
f 55//42 54//42 56//42
f 57//43 54//43 53//43
f 34//44 54//44 57//44
f 54//45 34//45 58//45
f 32//46 58//46 34//46
f 59//47 58//47 32//47
f 59//48 32//48 60//48
f 60//49 32//49 61//49
f 59//50 62//50 58//50
f 58//51 62//51 63//51
f 63//52 62//52 64//52
f 65//53 62//53 59//53
f 65//54 66//54 62//54
f 67//55 66//55 65//55
f 67//56 65//56 68//56
f 68//57 65//57 69//57
f 67//58 70//58 66//58
f 66//59 70//59 71//59
f 71//60 70//60 72//60
f 73//61 70//61 67//61
f 73//62 74//62 70//62
f 75//63 74//63 73//63
f 75//64 73//64 76//64
f 76//65 73//65 77//65
f 75//66 78//66 74//66
f 74//67 78//67 79//67
f 79//68 78//68 80//68
f 81//69 78//69 75//69
f 78//70 81//70 82//70
f 82//71 81//71 83//71
f 83//72 81//72 84//72
f 85//73 87//73 86//73
f 88//74 87//74 85//74
f 89//75 91//75 90//75
f 92//76 91//76 89//76
f 93//77 95//77 94//77
f 96//78 95//78 93//78
f 97//79 99//79 98//79
f 100//80 99//80 97//80
f 101//81 103//81 102//81
f 104//82 103//82 101//82
f 105//83 107//83 106//83
f 108//84 107//84 105//84
f 109//85 111//85 110//85
f 112//86 111//86 109//86
f 113//87 115//87 114//87
f 116//88 115//88 113//88
f 117//89 119//89 118//89
f 120//90 119//90 117//90
f 121//91 123//91 122//91
f 124//92 123//92 121//92
f 125//93 127//93 126//93
f 128//94 127//94 125//94
f 129//95 131//95 130//95
f 132//96 131//96 129//96
f 133//97 135//97 134//97
f 136//98 135//98 133//98
f 137//99 139//99 138//99
f 140//100 139//100 137//100
f 141//101 143//101 142//101
f 144//102 143//102 141//102
f 145//103 147//103 146//103
f 148//104 147//104 145//104
f 149//105 151//105 150//105
f 152//106 151//106 149//106
f 153//107 155//107 154//107
f 156//108 155//108 153//108
f 157//109 159//109 158//109
f 160//110 159//110 157//110
f 161//111 163//111 162//111
f 164//112 163//112 161//112
f 165//113 167//113 166//113
f 168//114 167//114 165//114
f 169//115 171//115 170//115
f 172//116 171//116 169//116
f 173//117 175//117 174//117
f 176//118 175//118 173//118
f 177//119 179//119 178//119
f 180//120 179//120 177//120
f 181//121 183//121 182//121
f 184//122 183//122 181//122
f 185//123 187//123 186//123
f 188//124 187//124 185//124
f 37//125 187//125 188//125
f 37//126 189//126 187//126
f 37//127 190//127 189//127
f 189//128 190//128 191//128
f 191//129 190//129 192//129
f 37//130 193//130 190//130
f 37//131 194//131 193//131
f 37//132 38//132 194//132
f 193//133 194//133 195//133
f 195//134 194//134 196//134
f 197//135 199//135 198//135
f 200//136 199//136 197//136
f 201//137 203//137 202//137
f 204//138 203//138 201//138
f 205//139 207//139 206//139
f 208//140 207//140 205//140
f 209//141 211//141 210//141
f 212//142 211//142 209//142
f 213//143 215//143 214//143
f 216//144 215//144 213//144
f 217//145 219//145 218//145
f 220//146 219//146 217//146
f 221//147 223//147 222//147
f 224//148 223//148 221//148
f 225//149 227//149 226//149
f 228//150 227//150 225//150
f 229//151 231//151 230//151
f 232//152 231//152 229//152
f 233//153 235//153 234//153
f 236//154 235//154 233//154
f 237//155 239//155 238//155
f 240//156 239//156 237//156
f 241//157 243//157 242//157
f 244//158 243//158 241//158
f 245//159 247//159 246//159
f 248//160 247//160 245//160
f 249//161 251//161 250//161
f 252//162 251//162 249//162
f 253//163 255//163 254//163
f 256//164 255//164 253//164
f 257//165 259//165 258//165
f 260//166 259//166 257//166
f 261//167 263//167 262//167
f 264//168 263//168 261//168
f 265//169 267//169 266//169
f 268//170 267//170 265//170
f 269//171 271//171 270//171
f 272//172 271//172 269//172
f 273//173 275//173 274//173
f 276//174 275//174 273//174
f 277//175 279//175 278//175
f 280//176 279//176 277//176
f 281//177 283//177 282//177
f 284//178 283//178 281//178
f 285//179 287//179 286//179
f 288//180 287//180 285//180
f 289//181 291//181 290//181
f 292//182 291//182 289//182
f 293//183 295//183 294//183
f 296//184 295//184 293//184
f 297//185 299//185 298//185
f 300//186 299//186 297//186
f 301//187 303//187 302//187
f 304//188 303//188 301//188
f 305//189 307//189 306//189
f 308//190 307//190 305//190
f 309//191 311//191 310//191
f 312//192 311//192 309//192
f 313//193 315//193 314//193
f 316//194 315//194 313//194
f 317//195 319//195 318//195
f 320//196 319//196 317//196
f 321//197 323//197 322//197
f 324//198 323//198 321//198
f 325//199 327//199 326//199
f 328//200 327//200 325//200
f 329//201 331//201 330//201
f 332//202 331//202 329//202
f 333//203 335//203 334//203
f 336//204 335//204 333//204
f 337//205 339//205 338//205
f 340//206 339//206 337//206
f 341//207 343//207 342//207
f 344//208 343//208 341//208
f 345//209 347//209 346//209
f 348//210 347//210 345//210
f 349//211 351//211 350//211
f 352//212 351//212 349//212
f 353//213 355//213 354//213
f 356//214 355//214 353//214
f 357//215 359//215 358//215
f 360//216 359//216 357//216
f 361//217 363//217 362//217
f 364//218 363//218 361//218
f 365//219 367//219 366//219
f 368//220 367//220 365//220
f 369//221 371//221 370//221
f 372//222 371//222 369//222
f 373//223 375//223 374//223
f 376//224 375//224 373//224
f 377//225 379//225 378//225
f 380//226 379//226 377//226
f 381//227 383//227 382//227
f 384//228 383//228 381//228
f 385//229 387//229 386//229
f 388//230 387//230 385//230
f 389//231 391//231 390//231
f 390//232 391//232 392//232
f 391//233 393//233 392//233
f 392//234 393//234 394//234
f 395//235 397//235 396//235
f 398//236 397//236 395//236
f 399//237 401//237 400//237
f 401//238 399//238 402//238
f 401//239 402//239 403//239
f 403//240 402//240 404//240
f 403//241 404//241 405//241
f 405//242 404//242 406//242
f 407//243 409//243 408//243
f 410//244 409//244 407//244
f 411//245 410//245 407//245
f 412//246 410//246 411//246
f 413//247 415//247 414//247
f 414//248 415//248 416//248
f 416//249 417//249 414//249
f 414//250 417//250 418//250
f 419//251 421//251 420//251
f 422//252 421//252 419//252
f 423//253 422//253 419//253
f 424//254 422//254 423//254

# Thank you for using Spin 3D

