# Created using Spin 3D

# Vertex Array 
v -0.028 0.000 0.141
v 0.000 0.000 0.144
v 0.029 0.000 0.141
v -0.055 0.000 0.130
v 0.055 0.000 0.130
v -0.078 0.000 0.111
v 0.079 0.000 0.111
v 0.000 0.000 0.095
v -0.026 0.000 0.089
v 0.026 0.000 0.089
v -0.097 0.000 0.083
v 0.097 0.000 0.083
v -0.044 0.000 0.068
v 0.044 0.000 0.068
v -0.109 0.000 0.046
v -0.054 0.000 0.038
v 0.109 0.000 0.046
v 0.054 0.000 0.038
v 0.057 0.000 -0.000
v 0.113 0.000 -0.000
v 0.054 0.000 -0.038
v 0.109 0.000 -0.046
v 0.044 0.000 -0.069
v -0.113 0.000 0.000
v -0.057 0.000 0.000
v -0.054 0.000 -0.038
v -0.109 0.000 -0.046
v -0.044 0.000 -0.069
v 0.097 0.000 -0.083
v -0.097 0.000 -0.083
v -0.026 0.000 -0.089
v 0.026 0.000 -0.089
v -0.000 0.000 -0.096
v -0.078 0.000 -0.111
v 0.078 0.000 -0.111
v -0.055 0.000 -0.130
v 0.055 0.000 -0.130
v -0.029 0.000 -0.141
v 0.029 0.000 -0.141
v -0.000 0.000 -0.145
v -0.029 0.021 -0.141
v -0.000 0.021 -0.145
v 0.029 0.021 -0.141
v 0.055 0.021 -0.130
v -0.055 0.021 -0.130
v 0.078 0.021 -0.111
v -0.078 0.021 -0.111
v 0.097 0.021 -0.083
v -0.000 0.021 -0.096
v -0.097 0.021 -0.083
v 0.026 0.021 -0.089
v -0.026 0.021 -0.089
v 0.044 0.021 -0.069
v -0.044 0.021 -0.069
v 0.109 0.021 -0.046
v -0.109 0.021 -0.046
v 0.054 0.021 -0.038
v -0.054 0.021 -0.038
v 0.113 0.021 -0.000
v 0.057 0.021 -0.000
v -0.113 0.021 0.000
v -0.057 0.021 0.000
v -0.054 0.021 0.038
v -0.109 0.021 0.046
v -0.044 0.021 0.068
v -0.097 0.021 0.083
v -0.026 0.021 0.089
v 0.109 0.021 0.046
v 0.054 0.021 0.038
v 0.044 0.021 0.068
v 0.097 0.021 0.083
v 0.026 0.021 0.089
v -0.078 0.021 0.111
v 0.079 0.021 0.111
v 0.000 0.021 0.095
v 0.055 0.021 0.130
v -0.055 0.021 0.130
v 0.029 0.021 0.141
v -0.028 0.021 0.141
v 0.000 0.021 0.144
v -0.029 0.000 -0.141
v -0.000 0.000 -0.145
v -0.000 0.021 -0.145
v -0.029 0.021 -0.141
v -0.055 0.000 -0.130
v -0.055 0.021 -0.130
v -0.078 0.000 -0.111
v -0.078 0.021 -0.111
v -0.097 0.000 -0.083
v -0.097 0.021 -0.083
v -0.109 0.000 -0.046
v -0.109 0.021 -0.046
v -0.113 0.000 0.000
v -0.113 0.021 0.000
v -0.109 0.000 0.046
v -0.109 0.021 0.046
v -0.097 0.000 0.083
v -0.097 0.021 0.083
v -0.078 0.000 0.111
v -0.078 0.021 0.111
v -0.055 0.000 0.130
v -0.055 0.021 0.130
v -0.028 0.000 0.141
v -0.028 0.021 0.141
v 0.000 0.000 0.144
v 0.000 0.021 0.144
v 0.029 0.000 0.141
v 0.029 0.021 0.141
v 0.055 0.000 0.130
v 0.055 0.021 0.130
v 0.079 0.000 0.111
v 0.079 0.021 0.111
v 0.097 0.000 0.083
v 0.097 0.021 0.083
v 0.109 0.000 0.046
v 0.109 0.021 0.046
v 0.113 0.000 -0.000
v 0.113 0.021 -0.000
v 0.109 0.000 -0.046
v 0.109 0.021 -0.046
v 0.097 0.000 -0.083
v 0.097 0.021 -0.083
v 0.078 0.000 -0.111
v 0.078 0.021 -0.111
v 0.055 0.000 -0.130
v 0.055 0.021 -0.130
v 0.029 0.000 -0.141
v 0.029 0.021 -0.141
v -0.000 0.000 -0.145
v -0.000 0.021 -0.145
v 0.026 0.000 -0.089
v -0.000 0.000 -0.096
v -0.000 0.021 -0.096
v 0.026 0.021 -0.089
v 0.044 0.000 -0.069
v 0.026 0.000 -0.089
v 0.026 0.021 -0.089
v 0.044 0.021 -0.069
v 0.054 0.000 -0.038
v 0.054 0.021 -0.038
v 0.057 0.000 -0.000
v 0.057 0.021 -0.000
v 0.054 0.000 0.038
v 0.054 0.021 0.038
v 0.044 0.000 0.068
v 0.044 0.021 0.068
v 0.026 0.000 0.089
v 0.026 0.021 0.089
v 0.000 0.000 0.095
v 0.026 0.000 0.089
v 0.026 0.021 0.089
v 0.000 0.021 0.095
v -0.026 0.000 0.089
v -0.026 0.021 0.089
v -0.044 0.000 0.068
v -0.026 0.000 0.089
v -0.026 0.021 0.089
v -0.044 0.021 0.068
v -0.054 0.000 0.038
v -0.054 0.021 0.038
v -0.057 0.000 0.000
v -0.057 0.021 0.000
v -0.054 0.000 -0.038
v -0.054 0.021 -0.038
v -0.044 0.000 -0.069
v -0.044 0.021 -0.069
v -0.026 0.000 -0.089
v -0.026 0.021 -0.089
v -0.000 0.000 -0.096
v -0.026 0.000 -0.089
v -0.026 0.021 -0.089
v -0.000 0.021 -0.096

# Normal Array
vn 0.000 -1.000 -0.000
vn 0.000 -1.000 0.000
vn 0.000 -1.000 0.000
vn 0.000 -1.000 -0.000
vn -0.000 -1.000 0.000
vn -0.000 -1.000 -0.000
vn 0.000 -1.000 0.000
vn -0.000 -1.000 0.000
vn 0.000 -1.000 -0.000
vn -0.000 -1.000 -0.000
vn -0.000 -1.000 0.000
vn -0.000 -1.000 0.000
vn -0.000 -1.000 0.000
vn -0.000 -1.000 -0.000
vn 0.000 -1.000 0.000
vn -0.000 -1.000 -0.000
vn -0.000 -1.000 0.000
vn 0.000 -1.000 -0.000
vn 0.000 -1.000 -0.000
vn -0.000 -1.000 0.000
vn -0.000 -1.000 0.000
vn -0.000 -1.000 -0.000
vn -0.000 -1.000 -0.000
vn -0.000 -1.000 0.000
vn -0.000 -1.000 0.000
vn -0.000 -1.000 0.000
vn -0.000 -1.000 0.000
vn -0.000 -1.000 -0.000
vn -0.000 -1.000 -0.000
vn -0.000 -1.000 -0.000
vn -0.000 -1.000 -0.000
vn -0.000 -1.000 -0.000
vn 0.000 -1.000 0.000
vn -0.000 -1.000 0.000
vn -0.000 -1.000 0.000
vn -0.000 -1.000 -0.000
vn -0.000 -1.000 -0.000
vn -0.000 -1.000 0.000
vn 0.000 -1.000 -0.000
vn 0.000 -1.000 0.000
vn -0.000 1.000 0.000
vn -0.000 1.000 -0.000
vn -0.000 1.000 -0.000
vn -0.000 1.000 0.000
vn 0.000 1.000 0.000
vn 0.000 1.000 -0.000
vn 0.000 1.000 -0.000
vn 0.000 1.000 -0.000
vn 0.000 1.000 -0.000
vn 0.000 1.000 0.000
vn 0.000 1.000 0.000
vn 0.000 1.000 0.000
vn 0.000 1.000 -0.000
vn 0.000 1.000 -0.000
vn -0.000 1.000 0.000
vn 0.000 1.000 -0.000
vn -0.000 1.000 0.000
vn 0.000 1.000 -0.000
vn 0.000 1.000 -0.000
vn 0.000 1.000 -0.000
vn 0.000 1.000 -0.000
vn 0.000 1.000 0.000
vn 0.000 1.000 0.000
vn 0.000 1.000 -0.000
vn 0.000 1.000 0.000
vn 0.000 1.000 -0.000
vn -0.000 1.000 0.000
vn -0.000 1.000 -0.000
vn 0.000 1.000 0.000
vn 0.000 1.000 -0.000
vn 0.000 1.000 0.000
vn 0.000 1.000 -0.000
vn 0.000 1.000 -0.000
vn -0.000 1.000 -0.000
vn 0.000 1.000 0.000
vn 0.000 1.000 0.000
vn 0.000 1.000 -0.000
vn 0.000 1.000 0.000
vn 0.000 1.000 0.000
vn 0.000 1.000 0.000
vn -0.127 0.000 -0.992
vn -0.127 0.000 -0.992
vn -0.378 0.000 -0.926
vn -0.378 0.000 -0.926
vn -0.632 0.000 -0.775
vn -0.632 -0.000 -0.775
vn -0.835 -0.000 -0.550
vn -0.835 0.000 -0.550
vn -0.951 0.000 -0.309
vn -0.951 -0.000 -0.309
vn -0.996 -0.000 -0.086
vn -0.996 0.000 -0.086
vn -0.996 0.000 0.088
vn -0.996 0.000 0.088
vn -0.950 0.000 0.311
vn -0.950 -0.000 0.311
vn -0.834 -0.000 0.552
vn -0.834 0.000 0.552
vn -0.633 0.000 0.774
vn -0.633 0.000 0.774
vn -0.382 0.000 0.924
vn -0.382 0.000 0.924
vn -0.128 0.000 0.992
vn -0.128 0.000 0.992
vn 0.127 -0.000 0.992
vn 0.127 0.000 0.992
vn 0.383 0.000 0.924
vn 0.383 0.000 0.924
vn 0.635 0.000 0.772
vn 0.635 -0.000 0.772
vn 0.833 -0.000 0.553
vn 0.833 0.000 0.553
vn 0.950 0.000 0.311
vn 0.950 -0.000 0.311
vn 0.996 -0.000 0.087
vn 0.996 -0.000 0.087
vn 0.996 0.000 -0.087
vn 0.996 0.000 -0.087
vn 0.951 0.000 -0.310
vn 0.951 0.000 -0.310
vn 0.835 0.000 -0.550
vn 0.835 -0.000 -0.550
vn 0.634 -0.000 -0.774
vn 0.634 0.000 -0.774
vn 0.378 0.000 -0.926
vn 0.378 0.000 -0.926
vn 0.125 0.000 -0.992
vn 0.125 0.000 -0.992
vn -0.251 0.000 0.968
vn -0.251 0.000 0.968
vn -0.753 0.000 0.658
vn -0.753 0.000 0.658
vn -0.950 0.000 0.313
vn -0.950 -0.000 0.313
vn -0.996 -0.000 0.088
vn -0.996 -0.000 0.088
vn -0.996 0.000 -0.088
vn -0.996 -0.000 -0.088
vn -0.950 -0.000 -0.314
vn -0.950 -0.000 -0.314
vn -0.754 -0.000 -0.657
vn -0.754 0.000 -0.657
vn -0.251 0.000 -0.968
vn -0.251 0.000 -0.968
vn 0.251 0.000 -0.968
vn 0.251 -0.000 -0.968
vn 0.753 -0.000 -0.658
vn 0.753 -0.000 -0.658
vn 0.949 -0.000 -0.314
vn 0.949 0.000 -0.314
vn 0.996 0.000 -0.089
vn 0.996 -0.000 -0.089
vn 0.996 -0.000 0.088
vn 0.996 -0.000 0.088
vn 0.950 -0.000 0.313
vn 0.950 -0.000 0.313
vn 0.754 -0.000 0.657
vn 0.754 -0.000 0.657
vn 0.251 0.000 0.968
vn 0.251 0.000 0.968

# Facets
f 1//1 3//1 2//1
f 4//2 3//2 1//2
f 4//3 5//3 3//3
f 6//4 5//4 4//4
f 6//5 7//5 5//5
f 6//6 8//6 7//6
f 6//7 9//7 8//7
f 10//8 7//8 8//8
f 11//9 9//9 6//9
f 10//10 12//10 7//10
f 11//11 13//11 9//11
f 14//12 12//12 10//12
f 15//13 13//13 11//13
f 15//14 16//14 13//14
f 14//15 17//15 12//15
f 18//16 17//16 14//16
f 19//17 17//17 18//17
f 19//18 20//18 17//18
f 21//19 20//19 19//19
f 21//20 22//20 20//20
f 23//21 22//21 21//21
f 24//22 16//22 15//22
f 24//23 25//23 16//23
f 24//24 26//24 25//24
f 27//25 26//25 24//25
f 27//26 28//26 26//26
f 22//27 23//27 29//27
f 30//28 28//28 27//28
f 30//29 31//29 28//29
f 32//30 29//30 23//30
f 30//31 33//31 31//31
f 33//32 29//32 32//32
f 33//33 30//33 34//33
f 34//34 29//34 33//34
f 34//35 35//35 29//35
f 36//36 35//36 34//36
f 36//37 37//37 35//37
f 38//38 37//38 36//38
f 38//39 39//39 37//39
f 39//40 38//40 40//40
f 41//41 43//41 42//41
f 43//42 41//42 44//42
f 44//43 41//43 45//43
f 44//44 45//44 46//44
f 46//45 45//45 47//45
f 46//46 47//46 48//46
f 48//47 47//47 49//47
f 50//48 49//48 47//48
f 48//49 49//49 51//49
f 49//50 50//50 52//50
f 48//51 51//51 53//51
f 52//52 50//52 54//52
f 48//53 53//53 55//53
f 54//54 50//54 56//54
f 55//55 53//55 57//55
f 54//56 56//56 58//56
f 55//57 57//57 59//57
f 59//58 57//58 60//58
f 58//59 56//59 61//59
f 58//60 61//60 62//60
f 62//61 61//61 63//61
f 63//62 61//62 64//62
f 63//63 64//63 65//63
f 65//64 64//64 66//64
f 65//65 66//65 67//65
f 59//66 60//66 68//66
f 68//67 60//67 69//67
f 68//68 69//68 70//68
f 68//69 70//69 71//69
f 71//70 70//70 72//70
f 67//71 66//71 73//71
f 72//72 74//72 71//72
f 74//73 72//73 75//73
f 67//74 73//74 75//74
f 74//75 75//75 73//75
f 74//76 73//76 76//76
f 76//77 73//77 77//77
f 76//78 77//78 78//78
f 78//79 77//79 79//79
f 78//80 79//80 80//80
f 81//81 83//81 82//81
f 84//82 83//82 81//82
f 85//83 84//83 81//83
f 86//84 84//84 85//84
f 87//85 86//85 85//85
f 88//86 86//86 87//86
f 89//87 88//87 87//87
f 90//88 88//88 89//88
f 91//89 90//89 89//89
f 92//90 90//90 91//90
f 93//91 92//91 91//91
f 94//92 92//92 93//92
f 95//93 94//93 93//93
f 96//94 94//94 95//94
f 97//95 96//95 95//95
f 98//96 96//96 97//96
f 99//97 98//97 97//97
f 100//98 98//98 99//98
f 101//99 100//99 99//99
f 102//100 100//100 101//100
f 103//101 102//101 101//101
f 104//102 102//102 103//102
f 105//103 104//103 103//103
f 106//104 104//104 105//104
f 107//105 106//105 105//105
f 108//106 106//106 107//106
f 109//107 108//107 107//107
f 110//108 108//108 109//108
f 111//109 110//109 109//109
f 112//110 110//110 111//110
f 113//111 112//111 111//111
f 114//112 112//112 113//112
f 115//113 114//113 113//113
f 116//114 114//114 115//114
f 117//115 116//115 115//115
f 118//116 116//116 117//116
f 119//117 118//117 117//117
f 120//118 118//118 119//118
f 121//119 120//119 119//119
f 122//120 120//120 121//120
f 123//121 122//121 121//121
f 124//122 122//122 123//122
f 125//123 124//123 123//123
f 126//124 124//124 125//124
f 127//125 126//125 125//125
f 128//126 126//126 127//126
f 129//127 128//127 127//127
f 130//128 128//128 129//128
f 131//129 133//129 132//129
f 134//130 133//130 131//130
f 135//131 137//131 136//131
f 138//132 137//132 135//132
f 139//133 138//133 135//133
f 140//134 138//134 139//134
f 141//135 140//135 139//135
f 142//136 140//136 141//136
f 143//137 142//137 141//137
f 144//138 142//138 143//138
f 145//139 144//139 143//139
f 146//140 144//140 145//140
f 147//141 146//141 145//141
f 148//142 146//142 147//142
f 149//143 151//143 150//143
f 152//144 151//144 149//144
f 153//145 152//145 149//145
f 154//146 152//146 153//146
f 155//147 157//147 156//147
f 158//148 157//148 155//148
f 159//149 158//149 155//149
f 160//150 158//150 159//150
f 161//151 160//151 159//151
f 162//152 160//152 161//152
f 163//153 162//153 161//153
f 164//154 162//154 163//154
f 165//155 164//155 163//155
f 166//156 164//156 165//156
f 167//157 166//157 165//157
f 168//158 166//158 167//158
f 169//159 171//159 170//159
f 172//160 171//160 169//160

# Thank you for using Spin 3D

