# Created using Spin 3D

# Vertex Array 
v -0.456 0.142 0.250 0 0 0
v -0.436 0.142 0.248 0 0 0
v -0.417 0.142 0.242 0 0 0
v -0.400 0.142 0.233 0 0 0
v -0.385 0.142 0.221 0 0 0
v -0.372 0.142 0.206 0 0 0
v -0.363 0.142 0.188 0 0 0
v -0.358 0.142 0.169 0 0 0
v -0.356 0.142 0.150 0 0 0
v -0.356 0.142 -0.150 0 0 0
v -0.357 0.142 -0.170 0 0 0
v -0.363 0.142 -0.188 0 0 0
v -0.372 0.142 -0.206 0 0 0
v -0.385 0.142 -0.221 0 0 0
v -0.400 0.142 -0.233 0 0 0
v -0.417 0.142 -0.243 0 0 0
v -0.436 0.142 -0.248 0 0 0
v -0.456 0.142 -0.250 0 0 0
v -0.501 0.142 -0.250 0 0 0
v -0.501 0.142 0.250 0 0 0
v -0.417 0.200 0.242 0 0 0
v -0.436 0.200 0.248 0 0 0
v -0.456 0.200 0.250 0 0 0
v -0.400 0.200 0.233 0 0 0
v -0.385 0.200 0.221 0 0 0
v -0.372 0.200 0.206 0 0 0
v -0.363 0.200 0.188 0 0 0
v -0.358 0.200 0.169 0 0 0
v -0.356 0.200 0.150 0 0 0
v -0.356 0.200 -0.150 0 0 0
v -0.357 0.200 -0.170 0 0 0
v -0.363 0.200 -0.188 0 0 0
v -0.372 0.200 -0.206 0 0 0
v -0.385 0.200 -0.221 0 0 0
v -0.400 0.200 -0.233 0 0 0
v -0.417 0.200 -0.243 0 0 0
v -0.436 0.200 -0.248 0 0 0
v -0.456 0.200 -0.250 0 0 0
v -0.501 0.200 0.250 0 0 0
v -0.501 0.200 -0.250 0 0 0
v -0.489 0.130 0.284 0 0 0
v -0.476 0.130 0.280 0 0 0
v -0.465 0.130 0.273 0 0 0
v -0.458 0.130 0.262 0 0 0
v -0.456 0.130 0.250 0 0 0
v -0.458 0.130 0.237 0 0 0
v -0.465 0.130 0.227 0 0 0
v -0.476 0.130 0.219 0 0 0
v -0.489 0.130 0.216 0 0 0
v -0.501 0.130 0.216 0 0 0
v -0.501 0.130 0.284 0 0 0
v -0.465 0.260 0.273 0 0 0
v -0.476 0.260 0.280 0 0 0
v -0.489 0.260 0.284 0 0 0
v -0.458 0.260 0.262 0 0 0
v -0.456 0.260 0.250 0 0 0
v -0.458 0.260 0.237 0 0 0
v -0.465 0.260 0.227 0 0 0
v -0.476 0.260 0.219 0 0 0
v -0.489 0.260 0.216 0 0 0
v -0.501 0.260 0.284 0 0 0
v -0.501 0.260 0.216 0 0 0
v -0.489 0.130 -0.216 0 0 0
v -0.476 0.130 -0.220 0 0 0
v -0.465 0.130 -0.227 0 0 0
v -0.458 0.130 -0.238 0 0 0
v -0.456 0.130 -0.250 0 0 0
v -0.458 0.130 -0.263 0 0 0
v -0.465 0.130 -0.273 0 0 0
v -0.476 0.130 -0.281 0 0 0
v -0.489 0.130 -0.284 0 0 0
v -0.501 0.130 -0.284 0 0 0
v -0.501 0.130 -0.216 0 0 0
v -0.465 0.260 -0.227 0 0 0
v -0.476 0.260 -0.220 0 0 0
v -0.489 0.260 -0.216 0 0 0
v -0.458 0.260 -0.238 0 0 0
v -0.456 0.260 -0.250 0 0 0
v -0.458 0.260 -0.263 0 0 0
v -0.465 0.260 -0.273 0 0 0
v -0.476 0.260 -0.281 0 0 0
v -0.489 0.260 -0.284 0 0 0
v -0.501 0.260 -0.216 0 0 0
v -0.501 0.260 -0.284 0 0 0
v -0.501 0.200 -0.250 0 0 0
v -0.501 0.142 -0.250 0 0 0
v -0.456 0.142 -0.250 0 0 0
v -0.456 0.200 -0.250 0 0 0
v -0.436 0.142 -0.248 0 0 0
v -0.436 0.200 -0.248 0 0 0
v -0.417 0.142 -0.243 0 0 0
v -0.417 0.200 -0.243 0 0 0
v -0.400 0.142 -0.233 0 0 0
v -0.400 0.200 -0.233 0 0 0
v -0.385 0.142 -0.221 0 0 0
v -0.385 0.200 -0.221 0 0 0
v -0.372 0.142 -0.206 0 0 0
v -0.372 0.200 -0.206 0 0 0
v -0.363 0.142 -0.188 0 0 0
v -0.363 0.200 -0.188 0 0 0
v -0.357 0.142 -0.170 0 0 0
v -0.357 0.200 -0.170 0 0 0
v -0.356 0.142 -0.150 0 0 0
v -0.356 0.200 -0.150 0 0 0
v -0.356 0.142 0.150 0 0 0
v -0.356 0.200 0.150 0 0 0
v -0.358 0.142 0.169 0 0 0
v -0.358 0.200 0.169 0 0 0
v -0.363 0.142 0.188 0 0 0
v -0.363 0.200 0.188 0 0 0
v -0.372 0.142 0.206 0 0 0
v -0.372 0.200 0.206 0 0 0
v -0.385 0.142 0.221 0 0 0
v -0.385 0.200 0.221 0 0 0
v -0.400 0.142 0.233 0 0 0
v -0.400 0.200 0.233 0 0 0
v -0.417 0.142 0.242 0 0 0
v -0.417 0.200 0.242 0 0 0
v -0.436 0.142 0.248 0 0 0
v -0.436 0.200 0.248 0 0 0
v -0.456 0.142 0.250 0 0 0
v -0.456 0.200 0.250 0 0 0
v -0.501 0.142 0.250 0 0 0
v -0.501 0.200 0.250 0 0 0
v -0.501 0.260 -0.284 0 0 0
v -0.501 0.130 -0.284 0 0 0
v -0.489 0.130 -0.284 0 0 0
v -0.489 0.260 -0.284 0 0 0
v -0.476 0.130 -0.281 0 0 0
v -0.476 0.260 -0.281 0 0 0
v -0.465 0.130 -0.273 0 0 0
v -0.465 0.260 -0.273 0 0 0
v -0.458 0.130 -0.263 0 0 0
v -0.458 0.260 -0.263 0 0 0
v -0.456 0.130 -0.250 0 0 0
v -0.456 0.260 -0.250 0 0 0
v -0.458 0.130 -0.238 0 0 0
v -0.458 0.260 -0.238 0 0 0
v -0.465 0.130 -0.227 0 0 0
v -0.465 0.260 -0.227 0 0 0
v -0.476 0.130 -0.220 0 0 0
v -0.476 0.260 -0.220 0 0 0
v -0.489 0.130 -0.216 0 0 0
v -0.489 0.260 -0.216 0 0 0
v -0.501 0.130 -0.216 0 0 0
v -0.501 0.260 -0.216 0 0 0
v -0.501 0.260 0.216 0 0 0
v -0.501 0.130 0.216 0 0 0
v -0.489 0.130 0.216 0 0 0
v -0.489 0.260 0.216 0 0 0
v -0.476 0.130 0.219 0 0 0
v -0.476 0.260 0.219 0 0 0
v -0.465 0.130 0.227 0 0 0
v -0.465 0.260 0.227 0 0 0
v -0.458 0.130 0.237 0 0 0
v -0.458 0.260 0.237 0 0 0
v -0.456 0.130 0.250 0 0 0
v -0.456 0.260 0.250 0 0 0
v -0.458 0.130 0.262 0 0 0
v -0.458 0.260 0.262 0 0 0
v -0.465 0.130 0.273 0 0 0
v -0.465 0.260 0.273 0 0 0
v -0.476 0.130 0.280 0 0 0
v -0.476 0.260 0.280 0 0 0
v -0.489 0.130 0.284 0 0 0
v -0.489 0.260 0.284 0 0 0
v -0.501 0.130 0.284 0 0 0
v -0.501 0.260 0.284 0 0 0

# Normal Array
vn -0.000 -1.000 -0.000
vn -0.000 -1.000 -0.000
vn 0.000 -1.000 0.000
vn -0.000 -1.000 -0.000
vn -0.000 -1.000 -0.000
vn -0.000 -1.000 -0.000
vn -0.000 -1.000 -0.000
vn -0.000 -1.000 0.000
vn -0.000 -1.000 0.000
vn -0.000 -1.000 0.000
vn -0.000 -1.000 0.000
vn -0.000 -1.000 0.000
vn 0.000 -1.000 0.000
vn -0.000 -1.000 0.000
vn -0.000 -1.000 0.000
vn -0.000 -1.000 0.000
vn 0.000 -1.000 0.000
vn 0.000 -1.000 0.000
vn 0.000 1.000 0.000
vn 0.000 1.000 0.000
vn -0.000 1.000 -0.000
vn 0.000 1.000 0.000
vn 0.000 1.000 0.000
vn 0.000 1.000 0.000
vn 0.000 1.000 0.000
vn 0.000 1.000 -0.000
vn 0.000 1.000 -0.000
vn 0.000 1.000 -0.000
vn 0.000 1.000 -0.000
vn 0.000 1.000 -0.000
vn -0.000 1.000 -0.000
vn 0.000 1.000 -0.000
vn 0.000 1.000 -0.000
vn 0.000 1.000 -0.000
vn 0.000 1.000 -0.000
vn -0.000 1.000 -0.000
vn 0.000 -1.000 0.000
vn -0.000 -1.000 -0.000
vn -0.000 -1.000 -0.000
vn -0.000 -1.000 0.000
vn 0.000 -1.000 0.000
vn -0.000 -1.000 -0.000
vn -0.000 -1.000 0.000
vn 0.000 -1.000 0.000
vn 0.000 -1.000 0.000
vn -0.000 1.000 -0.000
vn 0.000 1.000 0.000
vn 0.000 1.000 0.000
vn 0.000 1.000 -0.000
vn 0.000 1.000 -0.000
vn 0.000 1.000 0.000
vn 0.000 1.000 -0.000
vn -0.000 1.000 -0.000
vn -0.000 1.000 -0.000
vn -0.000 -1.000 0.000
vn -0.000 -1.000 0.000
vn -0.000 -1.000 -0.000
vn -0.000 -1.000 0.000
vn -0.000 -1.000 0.000
vn -0.000 -1.000 0.000
vn -0.000 -1.000 0.000
vn 0.000 -1.000 0.000
vn 0.000 -1.000 0.000
vn -0.000 1.000 -0.000
vn 0.000 1.000 0.000
vn 0.000 1.000 0.000
vn 0.000 1.000 -0.000
vn 0.000 1.000 -0.000
vn 0.000 1.000 -0.000
vn 0.000 1.000 -0.000
vn -0.000 1.000 -0.000
vn -0.000 1.000 -0.000
vn 0.000 -0.000 -1.000
vn -0.000 -0.000 -1.000
vn 0.097 -0.000 -0.995
vn 0.097 -0.000 -0.995
vn 0.290 -0.000 -0.957
vn 0.290 -0.000 -0.957
vn 0.472 -0.000 -0.882
vn 0.472 0.000 -0.882
vn 0.635 0.000 -0.773
vn 0.635 0.000 -0.773
vn 0.773 0.000 -0.634
vn 0.773 -0.000 -0.634
vn 0.882 -0.000 -0.471
vn 0.882 -0.000 -0.471
vn 0.957 -0.000 -0.290
vn 0.957 -0.000 -0.290
vn 0.995 -0.000 -0.098
vn 0.995 0.000 -0.098
vn 1.000 -0.000 0.000
vn 1.000 -0.000 0.000
vn 0.995 0.000 0.098
vn 0.995 0.000 0.098
vn 0.957 0.000 0.290
vn 0.957 0.000 0.290
vn 0.882 0.000 0.472
vn 0.882 0.000 0.472
vn 0.773 0.000 0.635
vn 0.773 0.000 0.635
vn 0.634 0.000 0.773
vn 0.634 0.000 0.773
vn 0.471 0.000 0.882
vn 0.471 0.000 0.882
vn 0.290 0.000 0.957
vn 0.290 0.000 0.957
vn 0.097 0.000 0.995
vn 0.097 0.000 0.995
vn 0.000 0.000 1.000
vn 0.000 0.000 1.000
vn -0.009 -0.000 -1.000
vn -0.009 -0.000 -1.000
vn 0.261 -0.000 -0.965
vn 0.261 -0.000 -0.965
vn 0.556 -0.000 -0.831
vn 0.556 -0.000 -0.831
vn 0.832 -0.000 -0.555
vn 0.832 -0.000 -0.555
vn 0.981 -0.000 -0.195
vn 0.981 -0.000 -0.195
vn 0.981 -0.000 0.195
vn 0.981 0.000 0.195
vn 0.831 0.000 0.556
vn 0.831 -0.000 0.556
vn 0.555 -0.000 0.832
vn 0.555 0.000 0.832
vn 0.264 0.000 0.964
vn 0.264 0.000 0.964
vn 0.009 0.000 1.000
vn 0.009 0.000 1.000
vn -0.009 -0.000 -1.000
vn -0.009 -0.000 -1.000
vn 0.261 -0.000 -0.965
vn 0.261 -0.000 -0.965
vn 0.556 -0.000 -0.831
vn 0.556 -0.000 -0.831
vn 0.832 -0.000 -0.555
vn 0.832 -0.000 -0.555
vn 0.981 -0.000 -0.195
vn 0.981 -0.000 -0.195
vn 0.981 -0.000 0.195
vn 0.981 0.000 0.195
vn 0.831 0.000 0.556
vn 0.831 -0.000 0.556
vn 0.555 -0.000 0.832
vn 0.555 0.000 0.832
vn 0.264 0.000 0.964
vn 0.264 0.000 0.964
vn 0.009 0.000 1.000
vn 0.009 0.000 1.000

# Facets
f 1//1 3//1 2//1
f 1//2 4//2 3//2
f 1//3 5//3 4//3
f 1//4 6//4 5//4
f 1//5 7//5 6//5
f 1//6 8//6 7//6
f 1//7 9//7 8//7
f 1//8 10//8 9//8
f 1//9 11//9 10//9
f 1//10 12//10 11//10
f 1//11 13//11 12//11
f 1//12 14//12 13//12
f 1//13 15//13 14//13
f 1//14 16//14 15//14
f 1//15 17//15 16//15
f 17//16 1//16 18//16
f 18//17 1//17 19//17
f 19//18 1//18 20//18
f 21//19 23//19 22//19
f 24//20 23//20 21//20
f 25//21 23//21 24//21
f 26//22 23//22 25//22
f 27//23 23//23 26//23
f 28//24 23//24 27//24
f 29//25 23//25 28//25
f 30//26 23//26 29//26
f 31//27 23//27 30//27
f 32//28 23//28 31//28
f 33//29 23//29 32//29
f 34//30 23//30 33//30
f 35//31 23//31 34//31
f 36//32 23//32 35//32
f 37//33 23//33 36//33
f 23//34 37//34 38//34
f 23//35 38//35 39//35
f 39//36 38//36 40//36
f 41//37 43//37 42//37
f 41//38 44//38 43//38
f 41//39 45//39 44//39
f 41//40 46//40 45//40
f 41//41 47//41 46//41
f 41//42 48//42 47//42
f 48//43 41//43 49//43
f 49//44 41//44 50//44
f 50//45 41//45 51//45
f 52//46 54//46 53//46
f 55//47 54//47 52//47
f 56//48 54//48 55//48
f 57//49 54//49 56//49
f 58//50 54//50 57//50
f 59//51 54//51 58//51
f 54//52 59//52 60//52
f 54//53 60//53 61//53
f 61//54 60//54 62//54
f 63//55 65//55 64//55
f 63//56 66//56 65//56
f 63//57 67//57 66//57
f 63//58 68//58 67//58
f 63//59 69//59 68//59
f 63//60 70//60 69//60
f 70//61 63//61 71//61
f 71//62 63//62 72//62
f 72//63 63//63 73//63
f 74//64 76//64 75//64
f 77//65 76//65 74//65
f 78//66 76//66 77//66
f 79//67 76//67 78//67
f 80//68 76//68 79//68
f 81//69 76//69 80//69
f 76//70 81//70 82//70
f 76//71 82//71 83//71
f 83//72 82//72 84//72
f 85//73 87//73 86//73
f 88//74 87//74 85//74
f 87//75 88//75 89//75
f 89//76 88//76 90//76
f 89//77 90//77 91//77
f 91//78 90//78 92//78
f 91//79 92//79 93//79
f 93//80 92//80 94//80
f 93//81 94//81 95//81
f 95//82 94//82 96//82
f 95//83 96//83 97//83
f 97//84 96//84 98//84
f 97//85 98//85 99//85
f 99//86 98//86 100//86
f 99//87 100//87 101//87
f 101//88 100//88 102//88
f 101//89 102//89 103//89
f 103//90 102//90 104//90
f 103//91 104//91 105//91
f 105//92 104//92 106//92
f 106//93 107//93 105//93
f 108//94 107//94 106//94
f 108//95 109//95 107//95
f 110//96 109//96 108//96
f 110//97 111//97 109//97
f 112//98 111//98 110//98
f 112//99 113//99 111//99
f 114//100 113//100 112//100
f 114//101 115//101 113//101
f 116//102 115//102 114//102
f 116//103 117//103 115//103
f 118//104 117//104 116//104
f 118//105 119//105 117//105
f 120//106 119//106 118//106
f 120//107 121//107 119//107
f 122//108 121//108 120//108
f 121//109 122//109 123//109
f 123//110 122//110 124//110
f 125//111 127//111 126//111
f 128//112 127//112 125//112
f 127//113 128//113 129//113
f 129//114 128//114 130//114
f 129//115 130//115 131//115
f 131//116 130//116 132//116
f 131//117 132//117 133//117
f 133//118 132//118 134//118
f 133//119 134//119 135//119
f 135//120 134//120 136//120
f 135//121 136//121 137//121
f 137//122 136//122 138//122
f 137//123 138//123 139//123
f 139//124 138//124 140//124
f 139//125 140//125 141//125
f 141//126 140//126 142//126
f 141//127 142//127 143//127
f 143//128 142//128 144//128
f 143//129 144//129 145//129
f 145//130 144//130 146//130
f 147//131 149//131 148//131
f 150//132 149//132 147//132
f 149//133 150//133 151//133
f 151//134 150//134 152//134
f 151//135 152//135 153//135
f 153//136 152//136 154//136
f 153//137 154//137 155//137
f 155//138 154//138 156//138
f 155//139 156//139 157//139
f 157//140 156//140 158//140
f 157//141 158//141 159//141
f 159//142 158//142 160//142
f 159//143 160//143 161//143
f 161//144 160//144 162//144
f 161//145 162//145 163//145
f 163//146 162//146 164//146
f 163//147 164//147 165//147
f 165//148 164//148 166//148
f 165//149 166//149 167//149
f 167//150 166//150 168//150

# Thank you for using Spin 3D

