# Created using Spin 3D

# Vertex Array 
v -0.250 0.200 1.000 0 0 0
v -0.250 0.200 0.000 0 0 0
v 0.250 0.200 -0.000 0 0 0
v 0.250 0.200 1.000 0 0 0
v -0.250 0.200 1.000 0 0 0
v -0.250 0.100 1.000 0 0 0
v -0.250 0.100 0.000 0 0 0
v -0.250 0.200 0.000 0 0 0
v 0.250 0.200 1.000 0 0 0
v 0.250 0.100 1.000 0 0 0
v -0.250 0.100 1.000 0 0 0
v -0.250 0.200 1.000 0 0 0
v -0.250 0.100 0.000 0 0 0
v -0.250 0.100 1.000 0 0 0
v 0.250 0.100 1.000 0 0 0
v 0.250 0.100 -0.000 0 0 0
v -0.250 0.200 0.000 0 0 0
v -0.250 0.100 0.000 0 0 0
v 0.250 0.100 -0.000 0 0 0
v 0.250 0.200 -0.000 0 0 0
v 0.250 0.200 -0.000 0 0 0
v 0.250 0.100 -0.000 0 0 0
v 0.250 0.100 1.000 0 0 0
v 0.250 0.200 1.000 0 0 0
v -0.014 0.280 0.240 0 0 0
v -0.014 0.280 -0.225 0 0 0
v 0.180 0.284 -0.160 0 0 0
v 0.250 0.284 0.008 0 0 0
v 0.180 0.284 0.176 0 0 0
v 0.180 0.172 -0.160 0 0 0
v -0.014 0.176 -0.225 0 0 0
v -0.014 0.176 0.240 0 0 0
v 0.250 0.172 0.008 0 0 0
v 0.180 0.172 0.176 0 0 0
v -0.014 0.176 0.240 0 0 0
v -0.014 0.280 0.240 0 0 0
v 0.180 0.284 0.176 0 0 0
v 0.180 0.172 0.176 0 0 0
v 0.180 0.172 -0.160 0 0 0
v 0.180 0.284 -0.160 0 0 0
v -0.014 0.280 -0.225 0 0 0
v -0.014 0.176 -0.225 0 0 0
v -0.014 0.176 -0.225 0 0 0
v -0.014 0.280 -0.225 0 0 0
v -0.014 0.280 0.240 0 0 0
v -0.014 0.176 0.240 0 0 0
v 0.250 0.172 0.008 0 0 0
v 0.250 0.284 0.008 0 0 0
v 0.180 0.284 -0.160 0 0 0
v 0.180 0.172 -0.160 0 0 0
v 0.180 0.172 0.176 0 0 0
v 0.180 0.284 0.176 0 0 0
v 0.250 0.284 0.008 0 0 0
v 0.250 0.172 0.008 0 0 0
v -0.180 0.284 0.824 0 0 0
v 0.014 0.280 0.760 0 0 0
v 0.014 0.280 1.225 0 0 0
v -0.250 0.284 0.992 0 0 0
v -0.180 0.284 1.160 0 0 0
v 0.014 0.176 1.225 0 0 0
v 0.014 0.176 0.760 0 0 0
v -0.180 0.172 0.824 0 0 0
v -0.250 0.172 0.992 0 0 0
v -0.180 0.172 1.160 0 0 0
v -0.250 0.172 0.992 0 0 0
v -0.250 0.284 0.992 0 0 0
v -0.180 0.284 1.160 0 0 0
v -0.180 0.172 1.160 0 0 0
v -0.180 0.172 0.824 0 0 0
v -0.180 0.284 0.824 0 0 0
v -0.250 0.284 0.992 0 0 0
v -0.250 0.172 0.992 0 0 0
v 0.014 0.176 0.760 0 0 0
v 0.014 0.280 0.760 0 0 0
v -0.180 0.284 0.824 0 0 0
v -0.180 0.172 0.824 0 0 0
v -0.180 0.172 1.160 0 0 0
v -0.180 0.284 1.160 0 0 0
v 0.014 0.280 1.225 0 0 0
v 0.014 0.176 1.225 0 0 0
v 0.014 0.176 1.225 0 0 0
v 0.014 0.280 1.225 0 0 0
v 0.014 0.280 0.760 0 0 0
v 0.014 0.176 0.760 0 0 0
v 0.500 0.200 0.250 0 0 0
v -0.500 0.200 0.250 0 0 0
v -0.500 0.200 -0.250 0 0 0
v 0.500 0.200 -0.250 0 0 0
v 0.500 0.200 0.250 0 0 0
v 0.500 0.100 0.250 0 0 0
v -0.500 0.100 0.250 0 0 0
v -0.500 0.200 0.250 0 0 0
v 0.500 0.200 -0.250 0 0 0
v 0.500 0.100 -0.250 0 0 0
v 0.500 0.100 0.250 0 0 0
v 0.500 0.200 0.250 0 0 0
v -0.500 0.100 0.250 0 0 0
v 0.500 0.100 0.250 0 0 0
v 0.500 0.100 -0.250 0 0 0
v -0.500 0.100 -0.250 0 0 0
v -0.500 0.200 0.250 0 0 0
v -0.500 0.100 0.250 0 0 0
v -0.500 0.100 -0.250 0 0 0
v -0.500 0.200 -0.250 0 0 0
v -0.500 0.200 -0.250 0 0 0
v -0.500 0.100 -0.250 0 0 0
v 0.500 0.100 -0.250 0 0 0
v 0.500 0.200 -0.250 0 0 0
v 0.500 0.200 1.250 0 0 0
v -0.250 0.200 1.250 0 0 0
v -0.250 0.200 0.750 0 0 0
v 0.500 0.200 0.750 0 0 0
v 0.500 0.200 1.250 0 0 0
v 0.500 0.100 1.250 0 0 0
v -0.250 0.100 1.250 0 0 0
v -0.250 0.200 1.250 0 0 0
v 0.500 0.200 0.750 0 0 0
v 0.500 0.100 0.750 0 0 0
v 0.500 0.100 1.250 0 0 0
v 0.500 0.200 1.250 0 0 0
v -0.250 0.100 1.250 0 0 0
v 0.500 0.100 1.250 0 0 0
v 0.500 0.100 0.750 0 0 0
v -0.250 0.100 0.750 0 0 0
v -0.250 0.200 1.250 0 0 0
v -0.250 0.100 1.250 0 0 0
v -0.250 0.100 0.750 0 0 0
v -0.250 0.200 0.750 0 0 0
v -0.250 0.200 0.750 0 0 0
v -0.250 0.100 0.750 0 0 0
v 0.500 0.100 0.750 0 0 0
v 0.500 0.200 0.750 0 0 0

# Normal Array
vn -0.000 1.000 0.000
vn -0.000 1.000 0.000
vn -1.000 -0.000 0.000
vn -1.000 -0.000 0.000
vn 0.000 0.000 1.000
vn -0.000 0.000 1.000
vn 0.000 -1.000 -0.000
vn 0.000 -1.000 -0.000
vn -0.000 -0.000 -1.000
vn -0.000 0.000 -1.000
vn 1.000 0.000 -0.000
vn 1.000 0.000 -0.000
vn -0.021 1.000 -0.000
vn -0.011 1.000 0.005
vn -0.024 1.000 -0.010
vn -0.021 -1.000 0.000
vn -0.011 -1.000 0.005
vn -0.024 -1.000 -0.010
vn 0.314 -0.000 0.949
vn 0.314 0.000 0.949
vn 0.314 0.000 -0.949
vn 0.314 0.000 -0.949
vn -1.000 0.000 -0.000
vn -1.000 0.000 -0.000
vn 0.924 0.000 -0.383
vn 0.924 0.000 -0.383
vn 0.924 0.000 0.383
vn 0.924 -0.000 0.383
vn 0.021 1.000 -0.000
vn 0.011 1.000 0.005
vn 0.024 1.000 -0.010
vn 0.021 -1.000 0.000
vn 0.011 -1.000 0.005
vn 0.024 -1.000 -0.010
vn -0.924 0.000 0.383
vn -0.924 0.000 0.383
vn -0.924 0.000 -0.383
vn -0.924 0.000 -0.383
vn -0.314 0.000 -0.949
vn -0.314 0.000 -0.949
vn -0.314 0.000 0.949
vn -0.314 0.000 0.949
vn 1.000 0.000 -0.000
vn 1.000 0.000 -0.000
vn 0.000 1.000 0.000
vn -0.000 1.000 0.000
vn 0.000 -0.000 1.000
vn 0.000 -0.000 1.000
vn 1.000 0.000 -0.000
vn 1.000 0.000 -0.000
vn 0.000 -1.000 -0.000
vn 0.000 -1.000 -0.000
vn -1.000 -0.000 0.000
vn -1.000 -0.000 0.000
vn 0.000 0.000 -1.000
vn 0.000 0.000 -1.000
vn 0.000 1.000 0.000
vn -0.000 1.000 0.000
vn -0.000 0.000 1.000
vn 0.000 -0.000 1.000
vn 1.000 0.000 0.000
vn 1.000 0.000 0.000
vn 0.000 -1.000 -0.000
vn 0.000 -1.000 -0.000
vn -1.000 0.000 -0.000
vn -1.000 0.000 -0.000
vn 0.000 0.000 -1.000
vn 0.000 0.000 -1.000

# Facets
f 1//1 3//1 2//1
f 4//2 3//2 1//2
f 5//3 7//3 6//3
f 8//4 7//4 5//4
f 9//5 11//5 10//5
f 12//6 11//6 9//6
f 13//7 15//7 14//7
f 16//8 15//8 13//8
f 17//9 19//9 18//9
f 20//10 19//10 17//10
f 21//11 23//11 22//11
f 24//12 23//12 21//12
f 25//13 27//13 26//13
f 27//14 25//14 28//14
f 28//15 25//15 29//15
f 30//16 32//16 31//16
f 32//17 30//17 33//17
f 32//18 33//18 34//18
f 35//19 37//19 36//19
f 38//20 37//20 35//20
f 39//21 41//21 40//21
f 42//22 41//22 39//22
f 43//23 45//23 44//23
f 46//24 45//24 43//24
f 47//25 49//25 48//25
f 50//26 49//26 47//26
f 51//27 53//27 52//27
f 54//28 53//28 51//28
f 55//29 57//29 56//29
f 57//30 55//30 58//30
f 57//31 58//31 59//31
f 60//32 62//32 61//32
f 62//33 60//33 63//33
f 63//34 60//34 64//34
f 65//35 67//35 66//35
f 68//36 67//36 65//36
f 69//37 71//37 70//37
f 72//38 71//38 69//38
f 73//39 75//39 74//39
f 76//40 75//40 73//40
f 77//41 79//41 78//41
f 80//42 79//42 77//42
f 81//43 83//43 82//43
f 84//44 83//44 81//44
f 85//45 87//45 86//45
f 88//46 87//46 85//46
f 89//47 91//47 90//47
f 92//48 91//48 89//48
f 93//49 95//49 94//49
f 96//50 95//50 93//50
f 97//51 99//51 98//51
f 100//52 99//52 97//52
f 101//53 103//53 102//53
f 104//54 103//54 101//54
f 105//55 107//55 106//55
f 108//56 107//56 105//56
f 109//57 111//57 110//57
f 112//58 111//58 109//58
f 113//59 115//59 114//59
f 116//60 115//60 113//60
f 117//61 119//61 118//61
f 120//62 119//62 117//62
f 121//63 123//63 122//63
f 124//64 123//64 121//64
f 125//65 127//65 126//65
f 128//66 127//66 125//66
f 129//67 131//67 130//67
f 132//68 131//68 129//68

# Thank you for using Spin 3D

