# Created using Spin 3D

# Vertex Array 
v -0.000 -0.074 0.247 0 0 0
v -0.000 -0.074 0.175 0 0 0
v -0.034 -0.074 0.171 0 0 0
v -0.048 -0.074 0.242 0 0 0
v -0.067 -0.074 0.162 0 0 0
v -0.094 -0.074 0.228 0 0 0
v -0.097 -0.074 0.145 0 0 0
v -0.137 -0.074 0.205 0 0 0
v -0.123 -0.074 0.124 0 0 0
v -0.174 -0.074 0.175 0 0 0
v -0.145 -0.074 0.097 0 0 0
v -0.205 -0.074 0.137 0 0 0
v -0.161 -0.074 0.067 0 0 0
v -0.228 -0.074 0.095 0 0 0
v -0.171 -0.074 0.034 0 0 0
v -0.242 -0.074 0.049 0 0 0
v -0.175 -0.074 0.000 0 0 0
v -0.247 -0.074 0.000 0 0 0
v -0.171 -0.074 -0.034 0 0 0
v -0.242 -0.074 -0.048 0 0 0
v -0.162 -0.074 -0.067 0 0 0
v -0.228 -0.074 -0.094 0 0 0
v -0.145 -0.074 -0.097 0 0 0
v -0.205 -0.074 -0.137 0 0 0
v -0.124 -0.074 -0.123 0 0 0
v -0.175 -0.074 -0.174 0 0 0
v -0.097 -0.074 -0.145 0 0 0
v -0.137 -0.074 -0.205 0 0 0
v -0.067 -0.074 -0.161 0 0 0
v -0.095 -0.074 -0.228 0 0 0
v -0.034 -0.074 -0.171 0 0 0
v -0.049 -0.074 -0.242 0 0 0
v 0.000 -0.074 -0.175 0 0 0
v 0.000 -0.074 -0.247 0 0 0
v -0.000 0.000 0.175 0 0 0
v -0.000 0.000 0.247 0 0 0
v -0.034 0.000 0.171 0 0 0
v -0.048 0.000 0.242 0 0 0
v -0.067 0.000 0.162 0 0 0
v -0.094 0.000 0.228 0 0 0
v -0.097 0.000 0.145 0 0 0
v -0.137 0.000 0.205 0 0 0
v -0.123 0.000 0.124 0 0 0
v -0.174 0.000 0.175 0 0 0
v -0.145 0.000 0.097 0 0 0
v -0.205 0.000 0.137 0 0 0
v -0.161 0.000 0.067 0 0 0
v -0.228 0.000 0.095 0 0 0
v -0.171 0.000 0.034 0 0 0
v -0.242 0.000 0.049 0 0 0
v -0.175 0.000 0.000 0 0 0
v -0.247 0.000 0.000 0 0 0
v -0.171 0.000 -0.034 0 0 0
v -0.242 0.000 -0.048 0 0 0
v -0.162 0.000 -0.067 0 0 0
v -0.228 0.000 -0.094 0 0 0
v -0.145 0.000 -0.097 0 0 0
v -0.205 0.000 -0.137 0 0 0
v -0.124 0.000 -0.123 0 0 0
v -0.175 0.000 -0.174 0 0 0
v -0.097 0.000 -0.145 0 0 0
v -0.137 0.000 -0.205 0 0 0
v -0.067 0.000 -0.161 0 0 0
v -0.095 0.000 -0.228 0 0 0
v -0.034 0.000 -0.171 0 0 0
v -0.049 0.000 -0.242 0 0 0
v 0.000 0.000 -0.175 0 0 0
v 0.000 0.000 -0.247 0 0 0
v 0.000 -0.074 -0.247 0 0 0
v 0.000 0.000 -0.247 0 0 0
v -0.049 -0.074 -0.242 0 0 0
v -0.049 0.000 -0.242 0 0 0
v -0.095 -0.074 -0.228 0 0 0
v -0.095 0.000 -0.228 0 0 0
v -0.137 -0.074 -0.205 0 0 0
v -0.137 0.000 -0.205 0 0 0
v -0.175 -0.074 -0.174 0 0 0
v -0.175 0.000 -0.174 0 0 0
v -0.205 -0.074 -0.137 0 0 0
v -0.205 0.000 -0.137 0 0 0
v -0.228 -0.074 -0.094 0 0 0
v -0.228 0.000 -0.094 0 0 0
v -0.242 -0.074 -0.048 0 0 0
v -0.242 0.000 -0.048 0 0 0
v -0.247 -0.074 0.000 0 0 0
v -0.247 0.000 0.000 0 0 0
v -0.242 -0.074 0.049 0 0 0
v -0.242 0.000 0.049 0 0 0
v -0.228 -0.074 0.095 0 0 0
v -0.228 0.000 0.095 0 0 0
v -0.205 -0.074 0.137 0 0 0
v -0.205 0.000 0.137 0 0 0
v -0.174 -0.074 0.175 0 0 0
v -0.174 0.000 0.175 0 0 0
v -0.137 -0.074 0.205 0 0 0
v -0.137 0.000 0.205 0 0 0
v -0.094 -0.074 0.228 0 0 0
v -0.094 0.000 0.228 0 0 0
v -0.048 -0.074 0.242 0 0 0
v -0.048 0.000 0.242 0 0 0
v -0.000 -0.074 0.247 0 0 0
v -0.000 0.000 0.247 0 0 0
v -0.034 0.000 -0.171 0 0 0
v 0.000 0.000 -0.175 0 0 0
v 0.000 -0.074 -0.175 0 0 0
v -0.034 -0.074 -0.171 0 0 0
v -0.067 0.000 -0.161 0 0 0
v -0.067 -0.074 -0.161 0 0 0
v -0.097 0.000 -0.145 0 0 0
v -0.097 -0.074 -0.145 0 0 0
v -0.124 0.000 -0.123 0 0 0
v -0.124 -0.074 -0.123 0 0 0
v -0.145 0.000 -0.097 0 0 0
v -0.145 -0.074 -0.097 0 0 0
v -0.162 0.000 -0.067 0 0 0
v -0.162 -0.074 -0.067 0 0 0
v -0.171 0.000 -0.034 0 0 0
v -0.171 -0.074 -0.034 0 0 0
v -0.175 0.000 0.000 0 0 0
v -0.175 -0.074 0.000 0 0 0
v -0.171 0.000 0.034 0 0 0
v -0.171 -0.074 0.034 0 0 0
v -0.161 0.000 0.067 0 0 0
v -0.161 -0.074 0.067 0 0 0
v -0.145 0.000 0.097 0 0 0
v -0.145 -0.074 0.097 0 0 0
v -0.123 0.000 0.124 0 0 0
v -0.123 -0.074 0.124 0 0 0
v -0.097 0.000 0.145 0 0 0
v -0.097 -0.074 0.145 0 0 0
v -0.067 0.000 0.162 0 0 0
v -0.067 -0.074 0.162 0 0 0
v -0.034 0.000 0.171 0 0 0
v -0.034 -0.074 0.171 0 0 0
v -0.000 0.000 0.175 0 0 0
v -0.000 -0.074 0.175 0 0 0
v -0.000 0.000 0.247 0 0 0
v -0.000 0.000 0.175 0 0 0
v -0.000 -0.074 0.175 0 0 0
v -0.000 -0.074 0.247 0 0 0
v 0.000 0.000 -0.175 0 0 0
v 0.000 0.000 -0.247 0 0 0
v 0.000 -0.074 -0.247 0 0 0
v 0.000 -0.074 -0.175 0 0 0

# Normal Array
vn 0.000 -1.000 -0.000
vn 0.000 -1.000 0.000
vn 0.000 -1.000 -0.000
vn 0.000 -1.000 0.000
vn 0.000 -1.000 -0.000
vn 0.000 -1.000 0.000
vn 0.000 -1.000 0.000
vn 0.000 -1.000 0.000
vn 0.000 -1.000 0.000
vn 0.000 -1.000 0.000
vn 0.000 -1.000 0.000
vn -0.000 -1.000 0.000
vn -0.000 -1.000 0.000
vn 0.000 -1.000 0.000
vn 0.000 -1.000 0.000
vn 0.000 -1.000 0.000
vn 0.000 -1.000 0.000
vn 0.000 -1.000 0.000
vn 0.000 -1.000 0.000
vn 0.000 -1.000 0.000
vn 0.000 -1.000 0.000
vn 0.000 -1.000 0.000
vn 0.000 -1.000 0.000
vn 0.000 -1.000 0.000
vn 0.000 -1.000 0.000
vn 0.000 -1.000 0.000
vn 0.000 -1.000 0.000
vn 0.000 -1.000 0.000
vn 0.000 -1.000 0.000
vn 0.000 -1.000 0.000
vn 0.000 -1.000 0.000
vn 0.000 -1.000 0.000
vn 0.000 1.000 -0.000
vn -0.000 1.000 -0.000
vn -0.000 1.000 -0.000
vn 0.000 1.000 -0.000
vn 0.000 1.000 -0.000
vn -0.000 1.000 -0.000
vn 0.000 1.000 -0.000
vn 0.000 1.000 -0.000
vn -0.000 1.000 -0.000
vn -0.000 1.000 -0.000
vn 0.000 1.000 -0.000
vn 0.000 1.000 -0.000
vn -0.000 1.000 -0.000
vn 0.000 1.000 -0.000
vn 0.000 1.000 -0.000
vn -0.000 1.000 -0.000
vn -0.000 1.000 -0.000
vn -0.000 1.000 -0.000
vn -0.000 1.000 -0.000
vn 0.000 1.000 -0.000
vn 0.000 1.000 -0.000
vn -0.000 1.000 -0.000
vn 0.000 1.000 -0.000
vn 0.000 1.000 -0.000
vn 0.000 1.000 -0.000
vn 0.000 1.000 -0.000
vn 0.000 1.000 -0.000
vn -0.000 1.000 -0.000
vn -0.000 1.000 -0.000
vn 0.000 1.000 -0.000
vn -0.000 1.000 -0.000
vn 0.000 1.000 -0.000
vn -0.107 0.000 -0.994
vn -0.107 0.000 -0.994
vn -0.292 0.000 -0.956
vn -0.292 0.000 -0.956
vn -0.473 0.000 -0.881
vn -0.473 0.000 -0.881
vn -0.636 0.000 -0.772
vn -0.636 0.000 -0.772
vn -0.774 0.000 -0.633
vn -0.774 0.000 -0.633
vn -0.883 0.000 -0.470
vn -0.883 0.000 -0.470
vn -0.958 0.000 -0.288
vn -0.958 -0.000 -0.288
vn -0.995 -0.000 -0.096
vn -0.995 0.000 -0.096
vn -0.995 0.000 0.100
vn -0.995 0.000 0.100
vn -0.956 0.000 0.292
vn -0.956 0.000 0.292
vn -0.881 0.000 0.473
vn -0.881 0.000 0.473
vn -0.772 0.000 0.636
vn -0.772 0.000 0.636
vn -0.633 0.000 0.774
vn -0.633 0.000 0.774
vn -0.470 0.000 0.883
vn -0.470 0.000 0.883
vn -0.288 0.000 0.958
vn -0.288 0.000 0.958
vn -0.107 0.000 0.994
vn -0.107 0.000 0.994
vn 0.098 0.000 0.995
vn 0.098 -0.000 0.995
vn 0.292 0.000 0.956
vn 0.292 -0.000 0.956
vn 0.473 0.000 0.881
vn 0.473 -0.000 0.881
vn 0.636 0.000 0.772
vn 0.636 -0.000 0.772
vn 0.774 0.000 0.633
vn 0.774 -0.000 0.633
vn 0.883 0.000 0.470
vn 0.883 -0.000 0.470
vn 0.958 0.000 0.288
vn 0.958 0.000 0.288
vn 0.995 0.000 0.096
vn 0.995 0.000 0.096
vn 0.995 0.000 -0.100
vn 0.995 -0.000 -0.100
vn 0.956 -0.000 -0.292
vn 0.956 0.000 -0.292
vn 0.881 0.000 -0.473
vn 0.881 0.000 -0.473
vn 0.772 0.000 -0.636
vn 0.772 0.000 -0.636
vn 0.633 0.000 -0.774
vn 0.633 0.000 -0.774
vn 0.470 0.000 -0.883
vn 0.470 0.000 -0.883
vn 0.288 0.000 -0.958
vn 0.288 0.000 -0.958
vn 0.098 0.000 -0.995
vn 0.098 0.000 -0.995
vn 1.000 0.000 0.000
vn 1.000 -0.000 0.000
vn 1.000 0.000 0.000
vn 1.000 -0.000 0.000

# Facets
f 1//1 3//1 2//1
f 4//2 3//2 1//2
f 4//3 5//3 3//3
f 6//4 5//4 4//4
f 6//5 7//5 5//5
f 8//6 7//6 6//6
f 8//7 9//7 7//7
f 10//8 9//8 8//8
f 10//9 11//9 9//9
f 12//10 11//10 10//10
f 12//11 13//11 11//11
f 14//12 13//12 12//12
f 14//13 15//13 13//13
f 16//14 15//14 14//14
f 16//15 17//15 15//15
f 18//16 17//16 16//16
f 18//17 19//17 17//17
f 20//18 19//18 18//18
f 20//19 21//19 19//19
f 22//20 21//20 20//20
f 22//21 23//21 21//21
f 24//22 23//22 22//22
f 24//23 25//23 23//23
f 26//24 25//24 24//24
f 26//25 27//25 25//25
f 28//26 27//26 26//26
f 28//27 29//27 27//27
f 30//28 29//28 28//28
f 30//29 31//29 29//29
f 32//30 31//30 30//30
f 32//31 33//31 31//31
f 34//32 33//32 32//32
f 35//33 37//33 36//33
f 36//34 37//34 38//34
f 37//35 39//35 38//35
f 38//36 39//36 40//36
f 39//37 41//37 40//37
f 40//38 41//38 42//38
f 41//39 43//39 42//39
f 42//40 43//40 44//40
f 43//41 45//41 44//41
f 44//42 45//42 46//42
f 45//43 47//43 46//43
f 46//44 47//44 48//44
f 47//45 49//45 48//45
f 48//46 49//46 50//46
f 49//47 51//47 50//47
f 50//48 51//48 52//48
f 51//49 53//49 52//49
f 52//50 53//50 54//50
f 53//51 55//51 54//51
f 54//52 55//52 56//52
f 55//53 57//53 56//53
f 56//54 57//54 58//54
f 57//55 59//55 58//55
f 58//56 59//56 60//56
f 59//57 61//57 60//57
f 60//58 61//58 62//58
f 61//59 63//59 62//59
f 62//60 63//60 64//60
f 63//61 65//61 64//61
f 64//62 65//62 66//62
f 65//63 67//63 66//63
f 66//64 67//64 68//64
f 69//65 71//65 70//65
f 70//66 71//66 72//66
f 71//67 73//67 72//67
f 72//68 73//68 74//68
f 73//69 75//69 74//69
f 74//70 75//70 76//70
f 75//71 77//71 76//71
f 76//72 77//72 78//72
f 77//73 79//73 78//73
f 78//74 79//74 80//74
f 79//75 81//75 80//75
f 80//76 81//76 82//76
f 81//77 83//77 82//77
f 82//78 83//78 84//78
f 83//79 85//79 84//79
f 84//80 85//80 86//80
f 85//81 87//81 86//81
f 86//82 87//82 88//82
f 87//83 89//83 88//83
f 88//84 89//84 90//84
f 89//85 91//85 90//85
f 90//86 91//86 92//86
f 91//87 93//87 92//87
f 92//88 93//88 94//88
f 93//89 95//89 94//89
f 94//90 95//90 96//90
f 95//91 97//91 96//91
f 96//92 97//92 98//92
f 97//93 99//93 98//93
f 98//94 99//94 100//94
f 99//95 101//95 100//95
f 100//96 101//96 102//96
f 103//97 105//97 104//97
f 106//98 105//98 103//98
f 107//99 106//99 103//99
f 108//100 106//100 107//100
f 109//101 108//101 107//101
f 110//102 108//102 109//102
f 111//103 110//103 109//103
f 112//104 110//104 111//104
f 113//105 112//105 111//105
f 114//106 112//106 113//106
f 115//107 114//107 113//107
f 116//108 114//108 115//108
f 117//109 116//109 115//109
f 118//110 116//110 117//110
f 119//111 118//111 117//111
f 120//112 118//112 119//112
f 121//113 120//113 119//113
f 122//114 120//114 121//114
f 123//115 122//115 121//115
f 124//116 122//116 123//116
f 125//117 124//117 123//117
f 126//118 124//118 125//118
f 127//119 126//119 125//119
f 128//120 126//120 127//120
f 129//121 128//121 127//121
f 130//122 128//122 129//122
f 131//123 130//123 129//123
f 132//124 130//124 131//124
f 133//125 132//125 131//125
f 134//126 132//126 133//126
f 135//127 134//127 133//127
f 136//128 134//128 135//128
f 137//129 139//129 138//129
f 140//130 139//130 137//130
f 141//131 143//131 142//131
f 144//132 143//132 141//132

# Thank you for using Spin 3D

