# Created using Spin 3D

# Vertex Array 
v -0.000 0.025 -0.241
v -0.047 0.025 -0.236
v -0.000 -0.025 -0.241
v -0.047 -0.025 -0.236
v -0.092 0.025 -0.222
v -0.092 -0.025 -0.222
v -0.134 0.025 -0.200
v -0.134 -0.025 -0.200
v -0.170 0.025 -0.170
v -0.170 -0.025 -0.170
v -0.200 0.025 -0.134
v -0.200 -0.025 -0.134
v -0.222 0.025 -0.092
v -0.222 -0.025 -0.092
v -0.236 0.025 -0.047
v -0.236 -0.025 -0.047
v -0.241 0.025 0.000
v -0.241 -0.025 0.000
v -0.236 0.025 0.047
v -0.236 -0.025 0.047
v -0.222 0.025 0.092
v -0.222 -0.025 0.092
v -0.200 0.025 0.134
v -0.200 -0.025 0.134
v -0.170 0.025 0.170
v -0.170 -0.025 0.170
v -0.134 0.025 0.200
v -0.134 -0.025 0.200
v -0.092 0.025 0.222
v -0.092 -0.025 0.222
v -0.047 0.025 0.236
v -0.047 -0.025 0.236
v 0.000 0.025 0.241
v -0.000 -0.025 0.241
v 0.000 0.025 0.241
v -0.000 0.025 -0.241
v -0.000 -0.025 -0.241
v -0.000 -0.025 0.241
v -0.000 -0.025 0.241
v -0.000 -0.025 -0.241
v -0.047 -0.025 -0.236
v -0.092 -0.025 -0.222
v -0.134 -0.025 -0.200
v -0.170 -0.025 -0.170
v -0.200 -0.025 -0.134
v -0.222 -0.025 -0.092
v -0.236 -0.025 -0.047
v -0.241 -0.025 0.000
v -0.236 -0.025 0.047
v -0.222 -0.025 0.092
v -0.200 -0.025 0.134
v -0.170 -0.025 0.170
v -0.134 -0.025 0.200
v -0.092 -0.025 0.222
v -0.047 -0.025 0.236
v -0.047 0.025 -0.236
v -0.000 0.025 -0.241
v 0.000 0.025 0.241
v -0.092 0.025 -0.222
v -0.134 0.025 -0.200
v -0.170 0.025 -0.170
v -0.200 0.025 -0.134
v -0.222 0.025 -0.092
v -0.236 0.025 -0.047
v -0.241 0.025 0.000
v -0.236 0.025 0.047
v -0.222 0.025 0.092
v -0.200 0.025 0.134
v -0.170 0.025 0.170
v -0.134 0.025 0.200
v -0.092 0.025 0.222
v -0.047 0.025 0.236

# Normal Array
vn -0.098 0.000 -0.995
vn -0.098 -0.000 -0.995
vn -0.290 -0.000 -0.957
vn -0.290 -0.000 -0.957
vn -0.471 -0.000 -0.882
vn -0.471 -0.000 -0.882
vn -0.634 -0.000 -0.773
vn -0.634 -0.000 -0.773
vn -0.773 -0.000 -0.634
vn -0.773 -0.000 -0.634
vn -0.882 -0.000 -0.471
vn -0.882 -0.000 -0.471
vn -0.957 -0.000 -0.290
vn -0.957 0.000 -0.290
vn -0.995 0.000 -0.098
vn -0.995 0.000 -0.098
vn -0.995 -0.000 0.098
vn -0.995 -0.000 0.098
vn -0.957 -0.000 0.290
vn -0.957 0.000 0.290
vn -0.882 0.000 0.471
vn -0.882 0.000 0.471
vn -0.773 0.000 0.634
vn -0.773 0.000 0.634
vn -0.634 0.000 0.773
vn -0.634 0.000 0.773
vn -0.471 0.000 0.882
vn -0.471 0.000 0.882
vn -0.290 0.000 0.957
vn -0.290 0.000 0.957
vn -0.098 0.000 0.995
vn -0.098 0.000 0.995
vn 1.000 -0.000 -0.000
vn 1.000 -0.000 -0.000
vn -0.000 -1.000 -0.000
vn -0.000 -1.000 -0.000
vn -0.000 -1.000 -0.000
vn -0.000 -1.000 -0.000
vn -0.000 -1.000 -0.000
vn -0.000 -1.000 -0.000
vn -0.000 -1.000 -0.000
vn -0.000 -1.000 -0.000
vn -0.000 -1.000 -0.000
vn -0.000 -1.000 -0.000
vn -0.000 -1.000 0.000
vn -0.000 -1.000 -0.000
vn -0.000 -1.000 -0.000
vn -0.000 -1.000 -0.000
vn -0.000 -1.000 -0.000
vn 0.000 1.000 0.000
vn 0.000 1.000 0.000
vn 0.000 1.000 0.000
vn 0.000 1.000 0.000
vn 0.000 1.000 0.000
vn 0.000 1.000 0.000
vn 0.000 1.000 0.000
vn 0.000 1.000 0.000
vn 0.000 1.000 0.000
vn 0.000 1.000 0.000
vn 0.000 1.000 -0.000
vn 0.000 1.000 0.000
vn 0.000 1.000 0.000
vn 0.000 1.000 0.000
vn 0.000 1.000 0.000

# Facets
f 1//1 3//1 2//1
f 2//2 3//2 4//2
f 2//3 4//3 5//3
f 5//4 4//4 6//4
f 5//5 6//5 7//5
f 7//6 6//6 8//6
f 7//7 8//7 9//7
f 9//8 8//8 10//8
f 9//9 10//9 11//9
f 11//10 10//10 12//10
f 11//11 12//11 13//11
f 13//12 12//12 14//12
f 13//13 14//13 15//13
f 15//14 14//14 16//14
f 15//15 16//15 17//15
f 17//16 16//16 18//16
f 17//17 18//17 19//17
f 19//18 18//18 20//18
f 19//19 20//19 21//19
f 21//20 20//20 22//20
f 21//21 22//21 23//21
f 23//22 22//22 24//22
f 23//23 24//23 25//23
f 25//24 24//24 26//24
f 25//25 26//25 27//25
f 27//26 26//26 28//26
f 27//27 28//27 29//27
f 29//28 28//28 30//28
f 29//29 30//29 31//29
f 31//30 30//30 32//30
f 31//31 32//31 33//31
f 33//32 32//32 34//32
f 35//33 37//33 36//33
f 38//34 37//34 35//34
f 39//35 41//35 40//35
f 41//36 39//36 42//36
f 42//37 39//37 43//37
f 43//38 39//38 44//38
f 44//39 39//39 45//39
f 45//40 39//40 46//40
f 46//41 39//41 47//41
f 47//42 39//42 48//42
f 48//43 39//43 49//43
f 49//44 39//44 50//44
f 50//45 39//45 51//45
f 51//46 39//46 52//46
f 52//47 39//47 53//47
f 53//48 39//48 54//48
f 54//49 39//49 55//49
f 56//50 58//50 57//50
f 58//51 56//51 59//51
f 58//52 59//52 60//52
f 58//53 60//53 61//53
f 58//54 61//54 62//54
f 58//55 62//55 63//55
f 58//56 63//56 64//56
f 58//57 64//57 65//57
f 58//58 65//58 66//58
f 58//59 66//59 67//59
f 58//60 67//60 68//60
f 58//61 68//61 69//61
f 58//62 69//62 70//62
f 58//63 70//63 71//63
f 58//64 71//64 72//64

# Thank you for using Spin 3D

