# Created using Spin 3D

# Vertex Array 
v 8.295 -1.000 17.083
v 9.295 -1.000 17.083
v 9.295 -1.000 17.783
v 8.295 -1.000 18.083
v 9.247 -1.000 17.948
v 9.134 -1.000 18.050
v 8.995 -1.000 18.083
v 9.295 -1.000 17.083
v 7.295 -1.000 17.083
v 9.340 -1.000 16.921
v 8.295 -1.000 18.083
v 7.250 -1.000 16.921
v 7.295 -1.000 17.783
v 7.328 -1.000 17.923
v 7.430 -1.000 18.035
v 7.595 -1.000 18.083
v 9.433 -1.000 16.828
v 7.157 -1.000 16.828
v 6.995 -1.000 16.783
v 9.595 -1.000 16.783
v 9.595 -1.000 15.783
v 6.995 -1.000 15.783
v 9.595 -1.000 14.783
v 6.995 -1.000 14.783
v 9.433 -1.000 14.739
v 7.157 -1.000 14.739
v 6.295 -1.000 14.783
v 9.340 -1.000 14.646
v 6.156 -1.000 14.817
v 7.250 -1.000 14.646
v 7.295 -1.000 14.483
v 8.295 -1.000 14.483
v 9.295 -1.000 14.483
v 9.295 -1.000 13.783
v 9.262 -1.000 13.644
v 6.044 -1.000 14.918
v 5.995 -1.000 15.083
v 5.995 -1.000 15.783
v 9.160 -1.000 13.532
v 8.295 -1.000 13.483
v 8.995 -1.000 13.483
v 5.995 -1.000 15.783
v 6.995 -1.000 16.783
v 5.995 -1.000 16.483
v 6.028 -1.000 16.623
v 6.130 -1.000 16.735
v 6.295 -1.000 16.783
v 7.595 -1.000 13.483
v 8.295 -1.000 13.483
v 7.456 -1.000 13.517
v 7.344 -1.000 13.618
v 7.295 -1.000 13.783
v 7.295 -1.000 14.483
v 8.995 0.000 18.083
v 8.295 0.000 18.083
v 8.295 -1.000 18.083
v 8.995 -1.000 18.083
v 9.295 0.000 17.783
v 9.247 0.000 17.948
v 9.247 -1.000 17.948
v 9.295 -1.000 17.783
v 9.295 0.000 17.083
v 9.295 -1.000 17.083
v 9.247 -1.000 17.948
v 9.247 0.000 17.948
v 9.134 -1.000 18.050
v 9.134 0.000 18.050
v 8.995 -1.000 18.083
v 8.995 0.000 18.083
v 5.995 0.000 16.483
v 5.995 0.000 15.783
v 5.995 -1.000 15.783
v 5.995 -1.000 16.483
v 6.295 0.000 16.783
v 6.130 0.000 16.735
v 6.130 -1.000 16.735
v 6.295 -1.000 16.783
v 6.995 0.000 16.783
v 6.995 -1.000 16.783
v 6.130 -1.000 16.735
v 6.130 0.000 16.735
v 6.028 -1.000 16.623
v 6.028 0.000 16.623
v 5.995 -1.000 16.483
v 5.995 0.000 16.483
v 6.295 -1.000 14.783
v 6.295 0.000 14.783
v 6.995 -1.000 14.783
v 6.995 0.000 14.783
v 7.157 -1.000 14.739
v 7.157 0.000 14.739
v 7.250 -1.000 14.646
v 7.250 0.000 14.646
v 7.295 -1.000 14.483
v 7.295 0.000 14.483
v 7.295 -1.000 14.483
v 7.295 -1.000 13.783
v 7.295 0.000 13.783
v 7.344 -1.000 13.618
v 7.344 0.000 13.618
v 5.995 0.000 15.083
v 6.044 0.000 14.918
v 6.044 -1.000 14.918
v 5.995 -1.000 15.083
v 5.995 0.000 15.783
v 5.995 -1.000 15.783
v 6.044 -1.000 14.918
v 6.044 0.000 14.918
v 6.156 -1.000 14.817
v 6.156 0.000 14.817
v 6.295 -1.000 14.783
v 6.295 0.000 14.783
v 7.595 0.000 13.483
v 8.295 0.000 13.483
v 8.295 -1.000 13.483
v 7.595 -1.000 13.483
v 7.344 -1.000 13.618
v 7.344 0.000 13.618
v 7.456 -1.000 13.517
v 7.456 0.000 13.517
v 7.595 -1.000 13.483
v 7.595 0.000 13.483
v 9.295 0.000 13.783
v 9.295 0.000 14.483
v 9.295 -1.000 14.483
v 9.295 -1.000 13.783
v 8.995 0.000 13.483
v 9.160 0.000 13.532
v 9.160 -1.000 13.532
v 8.995 -1.000 13.483
v 8.295 0.000 13.483
v 8.295 -1.000 13.483
v 9.160 -1.000 13.532
v 9.160 0.000 13.532
v 9.262 -1.000 13.644
v 9.262 0.000 13.644
v 9.295 -1.000 13.783
v 9.295 0.000 13.783
v 7.295 0.000 17.783
v 7.295 0.000 17.083
v 7.295 -1.000 17.083
v 7.295 -1.000 17.783
v 7.595 0.000 18.083
v 7.430 0.000 18.035
v 7.430 -1.000 18.035
v 7.595 -1.000 18.083
v 8.295 0.000 18.083
v 8.295 -1.000 18.083
v 7.430 -1.000 18.035
v 7.430 0.000 18.035
v 7.328 -1.000 17.923
v 7.328 0.000 17.923
v 7.295 -1.000 17.783
v 7.295 0.000 17.783
v 9.595 -1.000 14.783
v 10.295 -1.000 14.783
v 10.460 -1.000 14.832
v 10.562 -1.000 14.944
v 10.595 -1.000 15.083
v 10.595 -1.000 15.783
v 10.595 -1.000 15.783
v 10.595 -1.000 16.483
v 10.547 -1.000 16.648
v 10.434 -1.000 16.750
v 10.295 -1.000 16.783
v 9.295 0.000 14.483
v 9.379 0.000 14.700
v 9.295 -1.000 14.483
v 9.340 -1.000 14.646
v 9.433 -1.000 14.739
v 9.504 0.000 14.766
v 9.595 -1.000 14.783
v 6.995 -1.000 16.783
v 7.157 -1.000 16.828
v 6.995 0.000 16.783
v 7.157 0.000 16.828
v 7.250 -1.000 16.921
v 7.250 0.000 16.921
v 7.295 -1.000 17.083
v 7.295 0.000 17.083
v 10.595 0.000 15.083
v 10.595 0.000 15.783
v 10.595 -1.000 15.783
v 10.595 -1.000 15.083
v 10.295 0.000 14.783
v 10.460 0.000 14.832
v 10.460 -1.000 14.832
v 10.295 -1.000 14.783
v 9.504 0.000 14.766
v 9.595 -1.000 14.783
v 10.460 -1.000 14.832
v 10.460 0.000 14.832
v 10.562 -1.000 14.944
v 10.562 0.000 14.944
v 10.595 -1.000 15.083
v 10.595 0.000 15.083
v 10.295 0.000 16.783
v 9.504 0.000 16.801
v 9.595 -1.000 16.783
v 10.295 -1.000 16.783
v 10.595 0.000 16.483
v 10.547 0.000 16.648
v 10.547 -1.000 16.648
v 10.595 -1.000 16.483
v 10.595 0.000 15.783
v 10.595 -1.000 15.783
v 10.547 -1.000 16.648
v 10.547 0.000 16.648
v 10.434 -1.000 16.750
v 10.434 0.000 16.750
v 10.295 -1.000 16.783
v 10.295 0.000 16.783
v 9.295 -1.000 17.083
v 9.340 -1.000 16.921
v 9.295 0.000 17.083
v 9.379 0.000 16.867
v 9.433 -1.000 16.828
v 9.504 0.000 16.801
v 9.595 -1.000 16.783

# Normal Array
vn 0.000 1.000 0.000
vn 0.000 1.000 0.000
vn 0.000 1.000 0.000
vn 0.000 1.000 0.000
vn 0.000 1.000 0.000
vn 0.000 0.000 -1.000
vn 0.000 1.000 0.000
vn -0.000 1.000 0.000
vn 0.000 1.000 0.000
vn -0.000 1.000 0.000
vn -0.000 1.000 0.000
vn -0.000 1.000 0.000
vn -0.000 1.000 0.000
vn 0.000 1.000 0.000
vn -0.000 1.000 -0.000
vn -0.000 1.000 0.000
vn 0.000 1.000 -0.000
vn 0.000 1.000 0.000
vn -0.000 1.000 0.000
vn -0.000 1.000 -0.000
vn 0.000 1.000 -0.000
vn 0.000 1.000 0.000
vn 0.000 1.000 0.000
vn -0.000 1.000 -0.000
vn 0.000 1.000 0.000
vn -0.000 1.000 -0.000
vn -0.000 1.000 -0.000
vn -0.000 1.000 -0.000
vn -0.000 1.000 0.000
vn 0.000 1.000 -0.000
vn 0.000 1.000 -0.000
vn -0.000 1.000 -0.000
vn -0.000 1.000 -0.000
vn -0.000 1.000 -0.000
vn -0.000 1.000 -0.000
vn 0.000 1.000 -0.000
vn 0.000 1.000 -0.000
vn 0.000 1.000 -0.000
vn -0.000 1.000 0.000
vn -0.000 1.000 0.000
vn -0.000 1.000 0.000
vn -0.000 1.000 0.000
vn -0.000 1.000 0.000
vn -0.000 1.000 -0.000
vn -0.000 1.000 -0.000
vn -0.000 1.000 -0.000
vn -0.000 1.000 -0.000
vn -0.000 1.000 -0.000
vn -0.000 0.000 -1.000
vn 0.000 0.000 -1.000
vn -0.959 0.000 -0.282
vn -0.959 0.000 -0.282
vn -1.000 0.000 0.000
vn -1.000 0.000 0.000
vn -0.672 0.000 -0.741
vn -0.672 0.000 -0.741
vn -0.232 0.000 -0.973
vn -0.232 0.000 -0.973
vn 1.000 -0.000 0.000
vn 1.000 -0.000 0.000
vn 0.282 0.000 -0.959
vn 0.282 0.000 -0.959
vn 0.000 0.000 -1.000
vn -0.000 0.000 -1.000
vn 0.741 0.000 -0.672
vn 0.741 0.000 -0.672
vn 0.973 0.000 -0.232
vn 0.973 0.000 -0.232
vn 0.000 -0.000 1.000
vn 0.000 -0.000 1.000
vn 0.265 -0.000 0.964
vn 0.265 0.000 0.964
vn 0.707 -0.000 0.707
vn 0.707 0.000 0.707
vn 0.964 -0.000 0.265
vn 0.964 0.000 0.265
vn 1.000 -0.000 0.000
vn 1.000 0.000 -0.000
vn 0.959 0.000 0.282
vn 0.959 0.000 0.282
vn 0.959 0.000 0.282
vn 0.959 0.000 0.282
vn 1.000 0.000 -0.000
vn 1.000 -0.000 0.000
vn 0.672 0.000 0.741
vn 0.672 0.000 0.741
vn 0.232 0.000 0.973
vn 0.232 0.000 0.973
vn 0.000 0.000 1.000
vn 0.000 -0.000 1.000
vn 0.672 0.000 0.741
vn 0.672 0.000 0.741
vn 0.232 -0.000 0.973
vn 0.232 0.000 0.973
vn -1.000 0.000 0.000
vn -1.000 0.000 0.000
vn -0.282 0.000 0.959
vn -0.282 0.000 0.959
vn 0.000 0.000 1.000
vn 0.000 0.000 1.000
vn -0.741 0.000 0.672
vn -0.741 0.000 0.672
vn -0.973 0.000 0.232
vn -0.973 0.000 0.232
vn 1.000 0.000 -0.000
vn 1.000 -0.000 0.000
vn 0.282 0.000 -0.959
vn 0.282 0.000 -0.959
vn 0.000 0.000 -1.000
vn -0.000 0.000 -1.000
vn 0.741 0.000 -0.672
vn 0.741 0.000 -0.672
vn 0.973 0.000 -0.232
vn 0.973 0.000 -0.232
vn 0.000 1.000 -0.000
vn 0.000 1.000 -0.000
vn 0.000 1.000 -0.000
vn -0.000 1.000 -0.000
vn 0.000 1.000 -0.000
vn 0.000 1.000 0.000
vn 0.000 1.000 0.000
vn 0.000 1.000 0.000
vn 0.000 1.000 0.000
vn 0.000 1.000 -0.000
vn -0.932 0.000 0.362
vn -0.964 0.023 0.265
vn -0.707 -0.010 0.707
vn -0.468 0.009 0.884
vn -0.265 -0.007 0.964
vn 0.265 0.000 -0.964
vn 0.265 0.000 -0.964
vn 0.707 0.000 -0.707
vn 0.707 0.000 -0.707
vn 0.964 0.000 -0.265
vn 0.964 0.000 -0.265
vn -1.000 0.000 0.000
vn -1.000 0.000 0.000
vn -0.282 0.000 0.959
vn -0.282 0.000 0.959
vn -0.022 0.000 1.000
vn 0.000 0.018 1.000
vn -0.741 0.000 0.672
vn -0.741 0.000 0.672
vn -0.973 0.000 0.232
vn -0.973 0.000 0.232
vn -0.022 0.016 -1.000
vn 0.000 0.000 -1.000
vn -0.959 0.000 -0.282
vn -0.959 0.000 -0.282
vn -1.000 0.000 0.000
vn -1.000 0.000 0.000
vn -0.672 0.000 -0.741
vn -0.672 0.000 -0.741
vn -0.232 0.000 -0.973
vn -0.232 0.000 -0.973
vn -0.964 0.000 -0.265
vn -0.932 0.017 -0.362
vn -0.707 -0.010 -0.707
vn -0.468 0.009 -0.884
vn -0.265 -0.007 -0.964

# Facets
f 1//1 3//1 2//1
f 3//2 1//2 4//2
f 3//3 4//3 5//3
f 5//4 4//4 6//4
f 6//5 4//5 7//5
f 8//6 9//6 1//6
f 10//7 9//7 8//7
f 9//8 11//8 1//8
f 10//9 12//9 9//9
f 11//10 9//10 13//10
f 11//11 13//11 14//11
f 11//12 14//12 15//12
f 11//13 15//13 16//13
f 17//14 12//14 10//14
f 17//15 18//15 12//15
f 17//16 19//16 18//16
f 20//17 19//17 17//17
f 21//18 19//18 20//18
f 21//19 22//19 19//19
f 23//20 22//20 21//20
f 23//21 24//21 22//21
f 25//22 24//22 23//22
f 25//23 26//23 24//23
f 27//24 22//24 24//24
f 28//25 26//25 25//25
f 22//26 27//26 29//26
f 28//27 30//27 26//27
f 28//28 31//28 30//28
f 28//29 32//29 31//29
f 32//30 28//30 33//30
f 34//31 32//31 33//31
f 35//32 32//32 34//32
f 22//33 29//33 36//33
f 22//34 36//34 37//34
f 22//35 37//35 38//35
f 39//36 32//36 35//36
f 39//37 40//37 32//37
f 40//38 39//38 41//38
f 42//39 43//39 22//39
f 43//40 42//40 44//40
f 43//41 44//41 45//41
f 43//42 45//42 46//42
f 43//43 46//43 47//43
f 48//44 32//44 49//44
f 32//45 48//45 50//45
f 32//46 50//46 51//46
f 32//47 51//47 52//47
f 32//48 52//48 53//48
f 54//49 56//49 55//49
f 57//50 56//50 54//50
f 58//51 60//51 59//51
f 61//52 60//52 58//52
f 62//53 61//53 58//53
f 63//54 61//54 62//54
f 64//55 66//55 65//55
f 65//56 66//56 67//56
f 66//57 68//57 67//57
f 67//58 68//58 69//58
f 70//59 72//59 71//59
f 73//60 72//60 70//60
f 74//61 76//61 75//61
f 77//62 76//62 74//62
f 78//63 77//63 74//63
f 79//64 77//64 78//64
f 80//65 82//65 81//65
f 81//66 82//66 83//66
f 82//67 84//67 83//67
f 83//68 84//68 85//68
f 86//69 88//69 87//69
f 87//70 88//70 89//70
f 90//71 89//71 88//71
f 91//72 89//72 90//72
f 90//73 92//73 91//73
f 91//74 92//74 93//74
f 92//75 94//75 93//75
f 93//76 94//76 95//76
f 96//77 97//77 95//77
f 95//78 97//78 98//78
f 97//79 99//79 98//79
f 98//80 99//80 100//80
f 101//81 103//81 102//81
f 104//82 103//82 101//82
f 105//83 104//83 101//83
f 106//84 104//84 105//84
f 107//85 109//85 108//85
f 108//86 109//86 110//86
f 109//87 111//87 110//87
f 110//88 111//88 112//88
f 113//89 115//89 114//89
f 116//90 115//90 113//90
f 117//91 119//91 118//91
f 118//92 119//92 120//92
f 119//93 121//93 120//93
f 120//94 121//94 122//94
f 123//95 125//95 124//95
f 126//96 125//96 123//96
f 127//97 129//97 128//97
f 130//98 129//98 127//98
f 131//99 130//99 127//99
f 132//100 130//100 131//100
f 133//101 135//101 134//101
f 134//102 135//102 136//102
f 135//103 137//103 136//103
f 136//104 137//104 138//104
f 139//105 141//105 140//105
f 142//106 141//106 139//106
f 143//107 145//107 144//107
f 146//108 145//108 143//108
f 147//109 146//109 143//109
f 148//110 146//110 147//110
f 149//111 151//111 150//111
f 150//112 151//112 152//112
f 151//113 153//113 152//113
f 152//114 153//114 154//114
f 155//115 157//115 156//115
f 157//116 155//116 21//116
f 157//117 21//117 158//117
f 158//118 21//118 159//118
f 159//119 21//119 160//119
f 21//120 162//120 161//120
f 162//121 21//121 20//121
f 162//122 20//122 163//122
f 163//123 20//123 164//123
f 164//124 20//124 165//124
f 166//125 168//125 167//125
f 167//126 168//126 169//126
f 167//127 169//127 170//127
f 167//128 170//128 171//128
f 171//129 170//129 172//129
f 173//130 175//130 174//130
f 174//131 175//131 176//131
f 174//132 176//132 177//132
f 177//133 176//133 178//133
f 177//134 178//134 179//134
f 179//135 178//135 180//135
f 181//136 183//136 182//136
f 184//137 183//137 181//137
f 185//138 187//138 186//138
f 188//139 187//139 185//139
f 189//140 188//140 185//140
f 190//141 188//141 189//141
f 191//142 193//142 192//142
f 192//143 193//143 194//143
f 193//144 195//144 194//144
f 194//145 195//145 196//145
f 197//146 199//146 198//146
f 200//147 199//147 197//147
f 201//148 203//148 202//148
f 204//149 203//149 201//149
f 205//150 204//150 201//150
f 206//151 204//151 205//151
f 207//152 209//152 208//152
f 208//153 209//153 210//153
f 209//154 211//154 210//154
f 210//155 211//155 212//155
f 213//156 215//156 214//156
f 214//157 215//157 216//157
f 214//158 216//158 217//158
f 217//159 216//159 218//159
f 217//160 218//160 219//160

# Thank you for using Spin 3D

