# Created using Spin 3D

# Vertex Array 
v 0.058 0.367 0.332 0 0 0
v 0.058 0.957 0.332 0 0 0
v -0.058 0.957 0.332 0 0 0
v 0.180 0.957 0.285 0 0 0
v -0.058 0.367 0.332 0 0 0
v 0.180 0.367 0.285 0 0 0
v -0.180 0.957 0.285 0 0 0
v -0.180 0.367 0.285 0 0 0
v -0.285 0.367 0.180 0 0 0
v -0.285 0.957 0.180 0 0 0
v -0.332 0.367 0.058 0 0 0
v -0.332 0.957 0.058 0 0 0
v -0.332 0.367 0.000 0 0 0
v -0.332 0.957 0.000 0 0 0
v -0.332 0.367 -0.058 0 0 0
v -0.332 0.957 -0.058 0 0 0
v -0.285 0.367 -0.180 0 0 0
v -0.285 0.957 -0.180 0 0 0
v -0.180 0.367 -0.285 0 0 0
v -0.180 0.957 -0.285 0 0 0
v -0.058 0.367 -0.332 0 0 0
v -0.058 0.957 -0.332 0 0 0
v 0.058 0.957 -0.332 0 0 0
v 0.058 0.367 -0.332 0 0 0
v 0.180 0.957 -0.285 0 0 0
v 0.180 0.367 -0.285 0 0 0
v 0.285 0.957 -0.180 0 0 0
v 0.285 0.367 -0.180 0 0 0
v 0.332 0.367 -0.058 0 0 0
v 0.332 0.957 -0.058 0 0 0
v 0.332 0.957 -0.000 0 0 0
v 0.332 0.367 -0.000 0 0 0
v 0.332 0.957 0.058 0 0 0
v 0.332 0.367 0.058 0 0 0
v 0.285 0.367 0.180 0 0 0
v 0.285 0.957 0.180 0 0 0
v -0.266 0.367 -0.266 0 0 0
v -0.266 0.957 -0.266 0 0 0
v -0.318 0.367 -0.203 0 0 0
v -0.203 0.367 -0.318 0 0 0
v -0.318 0.957 -0.203 0 0 0
v -0.203 0.957 -0.318 0 0 0
v -0.353 0.367 -0.131 0 0 0
v -0.131 0.367 -0.353 0 0 0
v -0.353 0.957 -0.131 0 0 0
v -0.131 0.957 -0.353 0 0 0
v -0.371 0.367 -0.066 0 0 0
v -0.066 0.367 -0.371 0 0 0
v -0.371 0.957 -0.066 0 0 0
v -0.066 0.957 -0.371 0 0 0
v -0.377 0.367 0.000 0 0 0
v 0.000 0.367 -0.377 0 0 0
v -0.377 0.957 0.000 0 0 0
v 0.000 0.957 -0.377 0 0 0
v -0.371 0.367 0.066 0 0 0
v 0.066 0.367 -0.371 0 0 0
v -0.371 0.957 0.066 0 0 0
v 0.066 0.957 -0.371 0 0 0
v -0.353 0.367 0.131 0 0 0
v 0.131 0.367 -0.353 0 0 0
v -0.353 0.957 0.131 0 0 0
v 0.131 0.957 -0.353 0 0 0
v -0.318 0.367 0.203 0 0 0
v 0.203 0.367 -0.318 0 0 0
v -0.318 0.957 0.203 0 0 0
v 0.203 0.957 -0.318 0 0 0
v -0.266 0.367 0.266 0 0 0
v -0.266 0.957 0.266 0 0 0
v -0.203 0.957 0.318 0 0 0
v -0.203 0.367 0.318 0 0 0
v -0.131 0.957 0.353 0 0 0
v -0.131 0.367 0.353 0 0 0
v -0.066 0.957 0.371 0 0 0
v -0.066 0.367 0.371 0 0 0
v -0.000 0.957 0.377 0 0 0
v -0.000 0.367 0.377 0 0 0
v 0.066 0.957 0.371 0 0 0
v 0.066 0.367 0.371 0 0 0
v 0.131 0.957 0.353 0 0 0
v 0.131 0.367 0.353 0 0 0
v 0.203 0.957 0.318 0 0 0
v 0.203 0.367 0.318 0 0 0
v 0.266 0.957 0.266 0 0 0
v 0.266 0.367 0.266 0 0 0
v 0.318 0.367 0.203 0 0 0
v 0.318 0.957 0.203 0 0 0
v 0.353 0.367 0.131 0 0 0
v 0.353 0.957 0.131 0 0 0
v 0.371 0.367 0.066 0 0 0
v 0.371 0.957 0.066 0 0 0
v 0.377 0.367 -0.000 0 0 0
v 0.377 0.957 -0.000 0 0 0
v 0.371 0.367 -0.066 0 0 0
v 0.371 0.957 -0.066 0 0 0
v 0.353 0.367 -0.131 0 0 0
v 0.353 0.957 -0.131 0 0 0
v 0.318 0.367 -0.203 0 0 0
v 0.318 0.957 -0.203 0 0 0
v 0.266 0.367 -0.266 0 0 0
v 0.266 0.957 -0.266 0 0 0

# Normal Array
vn -0.000 0.000 -1.000
vn -0.360 0.000 -0.933
vn 0.000 0.000 -1.000
vn -0.360 0.000 -0.933
vn 0.360 0.000 -0.933
vn 0.360 0.000 -0.933
vn 0.707 0.000 -0.707
vn 0.707 0.000 -0.707
vn 0.933 0.000 -0.360
vn 0.933 0.000 -0.360
vn 1.000 0.000 -0.000
vn 1.000 0.000 0.000
vn 1.000 0.000 -0.000
vn 1.000 0.000 0.000
vn 0.933 0.000 0.360
vn 0.933 0.000 0.360
vn 0.707 0.000 0.707
vn 0.707 0.000 0.707
vn 0.360 0.000 0.933
vn 0.360 0.000 0.933
vn 0.000 0.000 1.000
vn 0.000 0.000 1.000
vn -0.360 0.000 0.933
vn -0.360 0.000 0.933
vn -0.707 0.000 0.707
vn -0.707 0.000 0.707
vn -0.933 0.000 0.360
vn -0.933 0.000 0.360
vn -1.000 0.000 -0.000
vn -1.000 0.000 0.000
vn -1.000 0.000 -0.000
vn -1.000 0.000 0.000
vn -0.933 0.000 -0.360
vn -0.933 0.000 -0.360
vn -0.707 0.000 -0.707
vn -0.707 0.000 -0.707
vn -0.780 0.000 -0.626
vn -0.626 -0.000 -0.780
vn -0.780 -0.000 -0.626
vn -0.626 0.000 -0.780
vn -0.895 -0.000 -0.446
vn -0.446 -0.000 -0.895
vn -0.895 -0.000 -0.446
vn -0.446 -0.000 -0.895
vn -0.965 -0.000 -0.263
vn -0.263 -0.000 -0.965
vn -0.965 -0.000 -0.263
vn -0.263 -0.000 -0.965
vn -0.996 -0.000 -0.088
vn -0.088 -0.000 -0.996
vn -0.996 -0.000 -0.088
vn -0.088 -0.000 -0.996
vn -0.996 -0.000 0.088
vn 0.088 -0.000 -0.996
vn -0.996 -0.000 0.088
vn 0.088 -0.000 -0.996
vn -0.965 -0.000 0.263
vn 0.263 -0.000 -0.965
vn -0.965 -0.000 0.263
vn 0.263 -0.000 -0.965
vn -0.895 -0.000 0.446
vn 0.446 -0.000 -0.895
vn -0.895 -0.000 0.446
vn 0.446 -0.000 -0.895
vn -0.780 -0.000 0.626
vn -0.780 -0.000 0.626
vn -0.626 -0.000 0.780
vn -0.626 -0.000 0.780
vn -0.446 -0.000 0.895
vn -0.446 -0.000 0.895
vn -0.263 -0.000 0.965
vn -0.263 -0.000 0.965
vn -0.088 -0.000 0.996
vn -0.088 -0.000 0.996
vn 0.088 -0.000 0.996
vn 0.088 -0.000 0.996
vn 0.263 -0.000 0.965
vn 0.263 -0.000 0.965
vn 0.446 -0.000 0.895
vn 0.446 -0.000 0.895
vn 0.626 -0.000 0.780
vn 0.626 0.000 0.780
vn 0.780 -0.000 0.626
vn 0.780 0.000 0.626
vn 0.895 -0.000 0.446
vn 0.895 -0.000 0.446
vn 0.965 -0.000 0.263
vn 0.965 -0.000 0.263
vn 0.996 -0.000 0.088
vn 0.996 -0.000 0.088
vn 0.996 -0.000 -0.088
vn 0.996 -0.000 -0.088
vn 0.965 -0.000 -0.263
vn 0.965 -0.000 -0.263
vn 0.895 -0.000 -0.446
vn 0.895 -0.000 -0.446
vn 0.780 -0.000 -0.626
vn 0.780 -0.000 -0.626
vn 0.626 -0.000 -0.780
vn 0.626 -0.000 -0.780

# Facets
f 1//1 3//1 2//1
f 4//2 1//2 2//2
f 5//3 3//3 1//3
f 6//4 1//4 4//4
f 3//5 5//5 7//5
f 7//6 5//6 8//6
f 9//7 7//7 8//7
f 10//8 7//8 9//8
f 11//9 10//9 9//9
f 12//10 10//10 11//10
f 13//11 12//11 11//11
f 14//12 12//12 13//12
f 15//13 14//13 13//13
f 16//14 14//14 15//14
f 17//15 16//15 15//15
f 18//16 16//16 17//16
f 19//17 18//17 17//17
f 20//18 18//18 19//18
f 19//19 21//19 20//19
f 20//20 21//20 22//20
f 21//21 23//21 22//21
f 24//22 23//22 21//22
f 23//23 24//23 25//23
f 25//24 24//24 26//24
f 26//25 27//25 25//25
f 28//26 27//26 26//26
f 29//27 27//27 28//27
f 30//28 27//28 29//28
f 29//29 31//29 30//29
f 32//30 31//30 29//30
f 32//31 33//31 31//31
f 34//32 33//32 32//32
f 35//33 33//33 34//33
f 36//34 33//34 35//34
f 35//35 4//35 36//35
f 6//36 4//36 35//36
f 37//37 39//37 38//37
f 38//38 40//38 37//38
f 38//39 39//39 41//39
f 42//40 40//40 38//40
f 39//41 43//41 41//41
f 42//42 44//42 40//42
f 41//43 43//43 45//43
f 46//44 44//44 42//44
f 43//45 47//45 45//45
f 46//46 48//46 44//46
f 45//47 47//47 49//47
f 50//48 48//48 46//48
f 47//49 51//49 49//49
f 50//50 52//50 48//50
f 49//51 51//51 53//51
f 54//52 52//52 50//52
f 51//53 55//53 53//53
f 54//54 56//54 52//54
f 53//55 55//55 57//55
f 58//56 56//56 54//56
f 55//57 59//57 57//57
f 58//58 60//58 56//58
f 57//59 59//59 61//59
f 62//60 60//60 58//60
f 63//61 61//61 59//61
f 60//62 62//62 64//62
f 65//63 61//63 63//63
f 64//64 62//64 66//64
f 67//65 65//65 63//65
f 68//66 65//66 67//66
f 67//67 69//67 68//67
f 70//68 69//68 67//68
f 70//69 71//69 69//69
f 72//70 71//70 70//70
f 71//71 72//71 73//71
f 73//72 72//72 74//72
f 73//73 74//73 75//73
f 75//74 74//74 76//74
f 75//75 76//75 77//75
f 77//76 76//76 78//76
f 77//77 78//77 79//77
f 79//78 78//78 80//78
f 79//79 80//79 81//79
f 81//80 80//80 82//80
f 81//81 82//81 83//81
f 83//82 82//82 84//82
f 84//83 85//83 83//83
f 83//84 85//84 86//84
f 85//85 87//85 86//85
f 86//86 87//86 88//86
f 87//87 89//87 88//87
f 88//88 89//88 90//88
f 89//89 91//89 90//89
f 90//90 91//90 92//90
f 91//91 93//91 92//91
f 92//92 93//92 94//92
f 93//93 95//93 94//93
f 94//94 95//94 96//94
f 97//95 96//95 95//95
f 98//96 96//96 97//96
f 99//97 98//97 97//97
f 100//98 98//98 99//98
f 99//99 66//99 100//99
f 64//100 66//100 99//100

# Thank you for using Spin 3D

