# Created using Spin 3D

# Vertex Array 
v -10.000 -11.046 -1.569
v 10.000 -11.046 -1.569
v 10.000 -10.746 -1.478
v -10.000 -10.746 -1.478
v -10.000 -11.358 -1.600
v 10.000 -10.469 -1.330
v 10.000 -11.358 -1.600
v -10.000 -10.469 -1.330
v -10.000 -11.670 -1.569
v 10.000 -10.226 -1.131
v 10.000 -11.670 -1.569
v -10.000 -10.226 -1.131
v -10.000 -11.970 -1.478
v 10.000 -10.027 -0.889
v 10.000 -11.970 -1.478
v -10.000 -10.027 -0.889
v -10.000 -12.247 -1.330
v 10.000 -9.880 -0.612
v 10.000 -12.247 -1.330
v -10.000 -9.880 -0.612
v -10.000 -12.489 -1.131
v 10.000 -9.789 -0.312
v 10.000 -12.489 -1.131
v -10.000 -9.789 -0.312
v -10.000 -12.688 -0.889
v 10.000 -9.758 0.000
v 10.000 -12.688 -0.889
v -10.000 -9.758 0.000
v -10.000 -12.836 -0.612
v 10.000 -9.789 0.312
v 10.000 -12.836 -0.612
v -10.000 -9.789 0.312
v -10.000 -12.927 -0.312
v 10.000 -9.880 0.612
v 10.000 -12.927 -0.312
v -10.000 -9.880 0.612
v -10.000 -12.958 0.000
v 10.000 -10.027 0.889
v 10.000 -12.958 0.000
v -10.000 -10.027 0.889
v -10.000 -12.927 0.312
v 10.000 -10.226 1.131
v 10.000 -12.927 0.312
v -10.000 -10.226 1.131
v -10.000 -12.836 0.612
v 10.000 -10.469 1.330
v 10.000 -12.836 0.612
v -10.000 -10.469 1.330
v -10.000 -12.688 0.889
v 10.000 -10.746 1.478
v 10.000 -12.688 0.889
v -10.000 -10.746 1.478
v -10.000 -12.489 1.131
v 10.000 -11.046 1.569
v 10.000 -12.489 1.131
v -10.000 -11.046 1.569
v -10.000 -12.247 1.330
v 10.000 -11.358 1.600
v 10.000 -12.247 1.330
v -10.000 -11.358 1.600
v -10.000 -11.970 1.478
v 10.000 -11.670 1.569
v 10.000 -11.970 1.478
v -10.000 -11.670 1.569

# Normal Array
vn 0.000 0.290 -0.957
vn 0.000 0.290 -0.957
vn 0.000 0.098 -0.995
vn 0.000 0.471 -0.882
vn 0.000 0.098 -0.995
vn 0.000 0.471 -0.882
vn 0.000 -0.098 -0.995
vn 0.000 0.634 -0.773
vn 0.000 -0.098 -0.995
vn 0.000 0.634 -0.773
vn 0.000 -0.290 -0.957
vn 0.000 0.773 -0.634
vn 0.000 -0.290 -0.957
vn 0.000 0.773 -0.634
vn 0.000 -0.471 -0.882
vn 0.000 0.882 -0.471
vn 0.000 -0.471 -0.882
vn -0.000 0.882 -0.471
vn 0.000 -0.634 -0.773
vn -0.000 0.957 -0.290
vn 0.000 -0.634 -0.773
vn -0.000 0.957 -0.290
vn 0.000 -0.773 -0.634
vn -0.000 0.995 -0.098
vn 0.000 -0.773 -0.634
vn 0.000 0.995 -0.098
vn 0.000 -0.882 -0.471
vn -0.000 0.995 0.098
vn 0.000 -0.882 -0.471
vn -0.000 0.995 0.098
vn 0.000 -0.957 -0.290
vn -0.000 0.957 0.290
vn 0.000 -0.957 -0.290
vn -0.000 0.957 0.290
vn 0.000 -0.995 -0.098
vn -0.000 0.882 0.471
vn 0.000 -0.995 -0.098
vn -0.000 0.882 0.471
vn 0.000 -0.995 0.098
vn -0.000 0.773 0.634
vn 0.000 -0.995 0.098
vn -0.000 0.773 0.634
vn 0.000 -0.957 0.290
vn -0.000 0.634 0.773
vn 0.000 -0.957 0.290
vn -0.000 0.634 0.773
vn 0.000 -0.882 0.471
vn -0.000 0.471 0.882
vn 0.000 -0.882 0.471
vn -0.000 0.471 0.882
vn 0.000 -0.773 0.634
vn -0.000 0.290 0.957
vn 0.000 -0.773 0.634
vn -0.000 0.290 0.957
vn 0.000 -0.634 0.773
vn -0.000 0.098 0.995
vn 0.000 -0.634 0.773
vn -0.000 0.098 0.995
vn 0.000 -0.471 0.882
vn 0.000 -0.098 0.995
vn 0.000 -0.471 0.882
vn 0.000 -0.098 0.995
vn 0.000 -0.290 0.957
vn 0.000 -0.290 0.957

# Facets
f 1//1 3//1 2//1
f 4//2 3//2 1//2
f 1//3 2//3 5//3
f 4//4 6//4 3//4
f 5//5 2//5 7//5
f 8//6 6//6 4//6
f 5//7 7//7 9//7
f 8//8 10//8 6//8
f 9//9 7//9 11//9
f 12//10 10//10 8//10
f 9//11 11//11 13//11
f 12//12 14//12 10//12
f 13//13 11//13 15//13
f 16//14 14//14 12//14
f 13//15 15//15 17//15
f 16//16 18//16 14//16
f 17//17 15//17 19//17
f 20//18 18//18 16//18
f 17//19 19//19 21//19
f 20//20 22//20 18//20
f 21//21 19//21 23//21
f 24//22 22//22 20//22
f 21//23 23//23 25//23
f 24//24 26//24 22//24
f 25//25 23//25 27//25
f 28//26 26//26 24//26
f 25//27 27//27 29//27
f 28//28 30//28 26//28
f 29//29 27//29 31//29
f 32//30 30//30 28//30
f 29//31 31//31 33//31
f 32//32 34//32 30//32
f 33//33 31//33 35//33
f 36//34 34//34 32//34
f 33//35 35//35 37//35
f 36//36 38//36 34//36
f 37//37 35//37 39//37
f 40//38 38//38 36//38
f 37//39 39//39 41//39
f 40//40 42//40 38//40
f 41//41 39//41 43//41
f 44//42 42//42 40//42
f 41//43 43//43 45//43
f 44//44 46//44 42//44
f 45//45 43//45 47//45
f 48//46 46//46 44//46
f 45//47 47//47 49//47
f 48//48 50//48 46//48
f 49//49 47//49 51//49
f 52//50 50//50 48//50
f 49//51 51//51 53//51
f 52//52 54//52 50//52
f 53//53 51//53 55//53
f 56//54 54//54 52//54
f 53//55 55//55 57//55
f 56//56 58//56 54//56
f 57//57 55//57 59//57
f 60//58 58//58 56//58
f 57//59 59//59 61//59
f 60//60 62//60 58//60
f 61//61 59//61 63//61
f 64//62 62//62 60//62
f 64//63 63//63 62//63
f 61//64 63//64 64//64

# Thank you for using Spin 3D

