# Created using Spin 3D

# Vertex Array 
v 3.270 1.350 3.259 0 0 0
v 3.270 1.350 3.259 0 0 0
v 3.270 0.137 3.259 0 0 0
v -3.247 0.137 -3.270 0 0 0
v -3.247 1.350 -3.270 0 0 0
v -3.247 1.350 -3.270 0 0 0
v 7.243 -2.473 -7.245 0 0 0
v 7.243 0.137 -7.245 0 0 0
v 6.713 0.137 -7.652 0 0 0
v 6.713 -2.473 -7.652 0 0 0
v 6.096 0.137 -7.908 0 0 0
v 6.096 -2.473 -7.908 0 0 0
v 5.433 0.137 -7.995 0 0 0
v 5.433 -2.473 -7.995 0 0 0
v -5.447 -2.473 -7.995 0 0 0
v -5.447 0.137 -7.995 0 0 0
v -6.110 0.137 -7.908 0 0 0
v -6.110 -2.473 -7.908 0 0 0
v -6.727 0.137 -7.652 0 0 0
v -6.727 -2.473 -7.652 0 0 0
v -7.257 0.137 -7.245 0 0 0
v -7.257 -2.473 -7.245 0 0 0
v -7.664 0.137 -6.715 0 0 0
v -7.664 -2.473 -6.715 0 0 0
v -7.920 0.137 -6.098 0 0 0
v -7.920 -2.473 -6.098 0 0 0
v -8.007 0.137 -5.435 0 0 0
v -8.007 -2.473 -5.435 0 0 0
v -8.007 -2.473 5.445 0 0 0
v -8.007 0.137 5.445 0 0 0
v -7.920 0.137 6.107 0 0 0
v -7.920 -2.473 6.107 0 0 0
v -7.664 0.137 6.725 0 0 0
v -7.664 -2.473 6.725 0 0 0
v -7.257 0.137 7.255 0 0 0
v -7.257 -2.473 7.255 0 0 0
v -6.727 0.137 7.662 0 0 0
v -6.727 -2.473 7.662 0 0 0
v -6.110 0.137 7.918 0 0 0
v -6.110 -2.473 7.918 0 0 0
v -5.447 0.137 8.005 0 0 0
v -5.447 -2.473 8.005 0 0 0
v 5.433 -2.473 8.005 0 0 0
v 5.433 0.137 8.005 0 0 0
v 6.096 0.137 7.918 0 0 0
v 6.096 -2.473 7.918 0 0 0
v 6.713 0.137 7.662 0 0 0
v 6.713 -2.473 7.662 0 0 0
v 7.243 0.137 7.255 0 0 0
v 7.243 -2.473 7.255 0 0 0
v 7.243 -2.473 -7.245 0 0 0
v 7.650 -2.473 -6.715 0 0 0
v 7.243 0.137 -7.245 0 0 0
v 7.650 0.137 -6.715 0 0 0
v 7.906 -2.473 -6.098 0 0 0
v 7.906 0.137 -6.098 0 0 0
v 7.993 -2.473 -5.435 0 0 0
v 7.993 0.137 -5.435 0 0 0
v 7.993 0.137 5.445 0 0 0
v 7.993 -2.473 5.445 0 0 0
v 7.906 -2.473 6.107 0 0 0
v 7.906 0.137 6.107 0 0 0
v 7.650 -2.473 6.725 0 0 0
v 7.650 0.137 6.725 0 0 0
v 7.243 -2.473 7.255 0 0 0
v 7.243 0.137 7.255 0 0 0
v -5.447 0.137 -7.995 0 0 0
v 5.433 0.137 -7.995 0 0 0
v 6.096 0.137 -7.908 0 0 0
v -6.110 0.137 -7.908 0 0 0
v 6.713 0.137 -7.652 0 0 0
v -6.727 0.137 -7.652 0 0 0
v 7.243 0.137 -7.245 0 0 0
v -7.257 0.137 -7.245 0 0 0
v 7.650 0.137 -6.715 0 0 0
v -7.664 0.137 -6.715 0 0 0
v 7.906 0.137 -6.098 0 0 0
v -7.920 0.137 -6.098 0 0 0
v 7.993 0.137 -5.435 0 0 0
v -8.007 0.137 -5.435 0 0 0
v 7.993 0.137 5.445 0 0 0
v -8.007 0.137 5.445 0 0 0
v 7.906 0.137 6.107 0 0 0
v -7.920 0.137 6.107 0 0 0
v 7.650 0.137 6.725 0 0 0
v -7.664 0.137 6.725 0 0 0
v 7.243 0.137 7.255 0 0 0
v -7.257 0.137 7.255 0 0 0
v 6.713 0.137 7.662 0 0 0
v -6.727 0.137 7.662 0 0 0
v 6.096 0.137 7.918 0 0 0
v -6.110 0.137 7.918 0 0 0
v 5.433 0.137 8.005 0 0 0
v -5.447 0.137 8.005 0 0 0
v 2.616 0.137 3.389 0 0 0
v 2.846 0.137 3.434 0 0 0
v 3.076 0.137 3.389 0 0 0
v 3.270 0.137 3.259 0 0 0
v 2.422 0.137 3.259 0 0 0
v 3.400 0.137 3.064 0 0 0
v 3.446 0.137 2.834 0 0 0
v 3.400 0.137 2.605 0 0 0
v 3.270 0.137 2.410 0 0 0
v 0.007 0.137 0.840 0 0 0
v 0.855 0.137 -0.009 0 0 0
v 0.007 0.137 -0.857 0 0 0
v -0.842 0.137 -0.009 0 0 0
v -3.247 0.137 -2.422 0 0 0
v -3.377 0.137 -2.616 0 0 0
v -3.423 0.137 -2.846 0 0 0
v -3.377 0.137 -3.075 0 0 0
v -2.399 0.137 -3.270 0 0 0
v -3.247 0.137 -3.270 0 0 0
v -2.594 0.137 -3.400 0 0 0
v -3.053 0.137 -3.400 0 0 0
v -2.823 0.137 -3.446 0 0 0
v 0.007 0.137 -0.857 0 0 0
v 0.007 1.350 -0.857 0 0 0
v -2.399 1.350 -3.270 0 0 0
v -2.399 0.137 -3.270 0 0 0
v -2.594 1.350 -3.400 0 0 0
v -2.594 0.137 -3.400 0 0 0
v -2.823 1.350 -3.446 0 0 0
v -2.823 0.137 -3.446 0 0 0
v -3.053 1.350 -3.400 0 0 0
v -3.053 0.137 -3.400 0 0 0
v -3.247 1.350 -3.270 0 0 0
v -3.247 0.137 -3.270 0 0 0
v -0.842 0.137 -0.009 0 0 0
v -3.247 0.137 -2.422 0 0 0
v -0.842 1.350 -0.009 0 0 0
v -3.247 1.350 -2.422 0 0 0
v -3.377 0.137 -2.616 0 0 0
v -3.377 1.350 -2.616 0 0 0
v -3.423 0.137 -2.846 0 0 0
v -3.423 1.350 -2.846 0 0 0
v -3.377 0.137 -3.075 0 0 0
v -3.377 1.350 -3.075 0 0 0
v -3.247 0.137 -3.270 0 0 0
v -3.247 1.350 -3.270 0 0 0
v -3.053 1.350 -3.400 0 0 0
v -2.823 1.350 -3.446 0 0 0
v -2.594 1.350 -3.400 0 0 0
v -2.399 1.350 -3.270 0 0 0
v -3.247 1.350 -3.270 0 0 0
v 0.007 1.350 -0.857 0 0 0
v -3.247 1.350 -3.270 0 0 0
v -3.377 1.350 -3.075 0 0 0
v -3.423 1.350 -2.846 0 0 0
v -3.377 1.350 -2.616 0 0 0
v -3.247 1.350 -2.422 0 0 0
v -0.842 1.350 -0.009 0 0 0
v 0.855 1.350 -0.009 0 0 0
v 0.007 1.350 0.840 0 0 0
v 3.270 1.350 2.410 0 0 0
v 2.422 1.350 3.259 0 0 0
v 3.400 1.350 2.605 0 0 0
v 3.446 1.350 2.834 0 0 0
v 3.400 1.350 3.064 0 0 0
v 3.270 1.350 3.259 0 0 0
v 3.270 1.350 3.259 0 0 0
v 2.616 1.350 3.389 0 0 0
v 3.076 1.350 3.389 0 0 0
v 2.846 1.350 3.434 0 0 0
v 0.007 0.137 0.840 0 0 0
v -0.842 0.137 -0.009 0 0 0
v -3.271 0.137 2.420 0 0 0
v -2.422 0.137 3.269 0 0 0
v -3.401 0.137 2.615 0 0 0
v -3.447 0.137 2.844 0 0 0
v -3.401 0.137 3.074 0 0 0
v -3.271 0.137 3.269 0 0 0
v -3.076 0.137 3.399 0 0 0
v -2.617 0.137 3.399 0 0 0
v -2.847 0.137 3.444 0 0 0
v 3.071 0.137 -3.397 0 0 0
v 2.841 0.137 -3.443 0 0 0
v 2.611 0.137 -3.397 0 0 0
v 2.417 0.137 -3.267 0 0 0
v 3.265 0.137 -3.267 0 0 0
v 0.007 0.137 -0.857 0 0 0
v 3.265 0.137 -3.267 0 0 0
v 3.395 0.137 -3.073 0 0 0
v 3.441 0.137 -2.843 0 0 0
v 3.395 0.137 -2.614 0 0 0
v 3.265 0.137 -2.419 0 0 0
v 0.855 0.137 -0.009 0 0 0
v -3.271 1.350 2.420 0 0 0
v -0.842 1.350 -0.009 0 0 0
v 0.007 1.350 0.840 0 0 0
v -2.422 1.350 3.269 0 0 0
v -3.401 1.350 2.615 0 0 0
v -3.447 1.350 2.844 0 0 0
v -3.401 1.350 3.074 0 0 0
v -3.271 1.350 3.269 0 0 0
v -3.076 1.350 3.399 0 0 0
v -2.617 1.350 3.399 0 0 0
v -2.847 1.350 3.444 0 0 0
v 0.007 0.137 -0.857 0 0 0
v 2.417 0.137 -3.267 0 0 0
v 0.007 1.350 -0.857 0 0 0
v 2.417 1.350 -3.267 0 0 0
v 2.611 0.137 -3.397 0 0 0
v 2.611 1.350 -3.397 0 0 0
v 2.841 0.137 -3.443 0 0 0
v 2.841 1.350 -3.443 0 0 0
v 3.071 0.137 -3.397 0 0 0
v 3.071 1.350 -3.397 0 0 0
v 3.265 0.137 -3.267 0 0 0
v 3.265 1.350 -3.267 0 0 0
v 0.855 0.137 -0.009 0 0 0
v 3.270 0.137 2.410 0 0 0
v 0.855 1.350 -0.009 0 0 0
v 3.270 1.350 2.410 0 0 0
v 3.400 0.137 2.605 0 0 0
v 3.400 1.350 2.605 0 0 0
v 3.446 0.137 2.834 0 0 0
v 3.446 1.350 2.834 0 0 0
v 0.855 0.137 -0.009 0 0 0
v 0.855 1.350 -0.009 0 0 0
v 3.265 1.350 -2.419 0 0 0
v 3.265 0.137 -2.419 0 0 0
v 3.395 1.350 -2.614 0 0 0
v 3.395 0.137 -2.614 0 0 0
v 3.441 1.350 -2.843 0 0 0
v 3.441 0.137 -2.843 0 0 0
v 3.395 1.350 -3.073 0 0 0
v 3.395 0.137 -3.073 0 0 0
v 3.265 1.350 -3.267 0 0 0
v 3.265 0.137 -3.267 0 0 0
v -0.842 0.137 -0.009 0 0 0
v -0.842 1.350 -0.009 0 0 0
v -3.271 1.350 2.420 0 0 0
v -3.271 0.137 2.420 0 0 0
v -3.401 1.350 2.615 0 0 0
v -3.401 0.137 2.615 0 0 0
v -3.447 1.350 2.844 0 0 0
v -3.447 0.137 2.844 0 0 0
v 3.265 0.137 -3.267 0 0 0
v 3.265 1.350 -3.267 0 0 0
v 3.265 1.350 -3.267 0 0 0
v 3.265 0.137 -3.267 0 0 0
v 0.007 0.137 0.840 0 0 0
v -2.422 0.137 3.269 0 0 0
v 0.007 1.350 0.840 0 0 0
v -2.422 1.350 3.269 0 0 0
v -2.617 0.137 3.399 0 0 0
v -2.617 1.350 3.399 0 0 0
v -2.847 0.137 3.444 0 0 0
v -2.847 1.350 3.444 0 0 0
v 2.611 1.350 -3.397 0 0 0
v 2.841 1.350 -3.443 0 0 0
v 3.071 1.350 -3.397 0 0 0
v 3.265 1.350 -3.267 0 0 0
v 2.417 1.350 -3.267 0 0 0
v 0.007 1.350 -0.857 0 0 0
v 3.265 1.350 -3.267 0 0 0
v 3.395 1.350 -3.073 0 0 0
v 3.441 1.350 -2.843 0 0 0
v 3.395 1.350 -2.614 0 0 0
v 3.265 1.350 -2.419 0 0 0
v 0.855 1.350 -0.009 0 0 0
v 2.846 1.350 3.434 0 0 0
v 2.846 0.137 3.434 0 0 0
v 2.616 0.137 3.389 0 0 0
v 2.616 1.350 3.389 0 0 0
v 2.422 0.137 3.259 0 0 0
v 2.422 1.350 3.259 0 0 0
v 0.007 0.137 0.840 0 0 0
v 0.007 1.350 0.840 0 0 0
v 2.846 1.350 3.434 0 0 0
v 3.076 1.350 3.389 0 0 0
v 2.846 0.137 3.434 0 0 0
v 3.076 0.137 3.389 0 0 0
v 3.270 1.350 3.259 0 0 0
v 3.270 0.137 3.259 0 0 0
v 3.446 0.137 2.834 0 0 0
v 3.400 0.137 3.064 0 0 0
v 3.446 1.350 2.834 0 0 0
v 3.400 1.350 3.064 0 0 0
v 3.270 0.137 3.259 0 0 0
v 3.270 1.350 3.259 0 0 0
v -3.447 1.350 2.844 0 0 0
v -3.401 1.350 3.074 0 0 0
v -3.447 0.137 2.844 0 0 0
v -3.401 0.137 3.074 0 0 0
v -3.271 1.350 3.269 0 0 0
v -3.271 0.137 3.269 0 0 0
v -2.847 0.137 3.444 0 0 0
v -3.076 0.137 3.399 0 0 0
v -2.847 1.350 3.444 0 0 0
v -3.076 1.350 3.399 0 0 0
v -3.271 0.137 3.269 0 0 0
v -3.271 1.350 3.269 0 0 0

# Normal Array
vn 1.000 0.000 0.000
vn 0.000 0.000 -1.000
vn 0.609 0.000 -0.793
vn 0.609 0.000 -0.793
vn 0.383 0.000 -0.924
vn 0.383 0.000 -0.924
vn 0.131 0.000 -0.991
vn 0.131 0.000 -0.991
vn 0.000 0.000 -1.000
vn 0.000 0.000 -1.000
vn -0.131 -0.000 -0.991
vn -0.131 -0.000 -0.991
vn -0.383 -0.000 -0.924
vn -0.383 -0.000 -0.924
vn -0.609 -0.000 -0.793
vn -0.609 -0.000 -0.793
vn -0.793 -0.000 -0.609
vn -0.793 -0.000 -0.609
vn -0.924 -0.000 -0.383
vn -0.924 -0.000 -0.383
vn -0.991 -0.000 -0.131
vn -0.991 -0.000 -0.131
vn -1.000 0.000 0.000
vn -1.000 -0.000 -0.000
vn -0.991 0.000 0.131
vn -0.991 0.000 0.131
vn -0.924 0.000 0.383
vn -0.924 0.000 0.383
vn -0.793 0.000 0.609
vn -0.793 0.000 0.609
vn -0.609 0.000 0.793
vn -0.609 0.000 0.793
vn -0.383 0.000 0.924
vn -0.383 0.000 0.924
vn -0.131 0.000 0.991
vn -0.131 0.000 0.991
vn 0.000 0.000 1.000
vn 0.000 0.000 1.000
vn 0.131 0.000 0.991
vn 0.131 0.000 0.991
vn 0.383 0.000 0.924
vn 0.383 0.000 0.924
vn 0.609 0.000 0.793
vn 0.609 0.000 0.793
vn 0.793 0.000 -0.609
vn 0.793 0.000 -0.609
vn 0.924 0.000 -0.383
vn 0.924 0.000 -0.383
vn 0.991 0.000 -0.131
vn 0.991 0.000 -0.131
vn 1.000 0.000 0.000
vn 1.000 -0.000 0.000
vn 0.991 0.000 0.131
vn 0.991 0.000 0.131
vn 0.924 0.000 0.383
vn 0.924 0.000 0.383
vn 0.793 0.000 0.609
vn 0.793 0.000 0.609
vn 0.000 1.000 0.000
vn 0.000 1.000 0.000
vn 0.000 1.000 -0.000
vn 0.000 1.000 0.000
vn 0.000 1.000 -0.000
vn 0.000 1.000 0.000
vn 0.000 1.000 -0.000
vn 0.000 1.000 0.000
vn 0.000 1.000 -0.000
vn 0.000 1.000 0.000
vn 0.000 1.000 -0.000
vn 0.000 1.000 0.000
vn 0.000 1.000 -0.000
vn 0.000 1.000 0.000
vn 0.000 1.000 0.000
vn 0.000 1.000 0.000
vn 0.000 1.000 0.000
vn 0.000 1.000 0.000
vn 0.000 1.000 0.000
vn 0.000 1.000 0.000
vn 0.000 1.000 0.000
vn 0.000 1.000 0.000
vn 0.000 1.000 0.000
vn 0.000 1.000 0.000
vn 0.000 1.000 0.000
vn 0.000 1.000 0.000
vn 0.000 -1.000 0.000
vn 0.000 -1.000 0.000
vn 0.000 -1.000 0.000
vn 0.000 -1.000 0.000
vn 0.000 -1.000 0.000
vn 0.000 -1.000 0.000
vn 0.000 -1.000 0.000
vn -0.000 -1.000 -0.000
vn -0.000 -1.000 -0.000
vn -0.000 -1.000 0.000
vn 0.000 -1.000 0.000
vn 0.000 -1.000 0.000
vn 0.000 -1.000 -0.000
vn 0.000 -1.000 -0.000
vn 0.000 -1.000 0.000
vn 0.000 -1.000 0.000
vn 0.000 -1.000 0.000
vn 0.000 -1.000 0.000
vn 0.000 -1.000 0.000
vn -0.000 -1.000 0.000
vn 0.708 0.000 -0.706
vn 0.708 0.000 -0.706
vn 0.556 0.000 -0.831
vn 0.556 0.000 -0.831
vn 0.195 0.000 -0.981
vn 0.195 -0.000 -0.981
vn -0.195 0.000 -0.981
vn -0.195 0.000 -0.981
vn -0.556 0.000 -0.831
vn -0.556 0.000 -0.831
vn -0.708 0.000 0.706
vn -0.708 -0.000 0.706
vn -0.831 -0.000 0.556
vn -0.831 0.000 0.556
vn -0.981 0.000 0.195
vn -0.981 0.000 0.195
vn -0.981 0.000 -0.195
vn -0.981 0.000 -0.195
vn -0.831 0.000 -0.556
vn -0.831 -0.000 -0.556
vn -0.000 1.000 0.000
vn 0.000 1.000 -0.000
vn 0.000 1.000 0.000
vn 0.000 1.000 -0.000
vn 0.000 1.000 0.000
vn 0.000 1.000 0.000
vn 0.000 1.000 0.000
vn 0.000 1.000 0.000
vn 0.000 1.000 0.000
vn 0.000 1.000 0.000
vn 0.000 1.000 -0.000
vn 0.000 1.000 0.000
vn 0.000 1.000 0.000
vn 0.000 1.000 0.000
vn 0.000 1.000 -0.000
vn 0.000 1.000 -0.000
vn 0.000 1.000 0.000
vn 0.000 1.000 0.000
vn 0.000 1.000 -0.000
vn 0.000 1.000 0.000
vn 0.000 1.000 0.000
vn 0.000 1.000 0.000
vn 0.000 -1.000 -0.000
vn 0.000 -1.000 -0.000
vn 0.000 -1.000 0.000
vn 0.000 -1.000 0.000
vn 0.000 -1.000 0.000
vn 0.000 -1.000 0.000
vn 0.000 -1.000 0.000
vn 0.000 -1.000 0.000
vn 0.000 -1.000 0.000
vn 0.000 -1.000 0.000
vn 0.000 -1.000 0.000
vn 0.000 -1.000 0.000
vn 0.000 -1.000 -0.000
vn 0.000 -1.000 0.000
vn 0.000 -1.000 -0.000
vn 0.000 -1.000 -0.000
vn 0.000 -1.000 0.000
vn 0.000 -1.000 0.000
vn 0.000 -1.000 -0.000
vn -0.000 1.000 0.000
vn -0.000 1.000 0.000
vn 0.000 1.000 0.000
vn 0.000 1.000 0.000
vn 0.000 1.000 0.000
vn 0.000 1.000 0.000
vn 0.000 1.000 0.000
vn 0.000 1.000 0.000
vn 0.000 1.000 0.000
vn -0.707 0.000 -0.707
vn -0.707 0.000 -0.707
vn -0.556 0.000 -0.831
vn -0.556 0.000 -0.831
vn -0.195 0.000 -0.981
vn -0.195 0.000 -0.981
vn 0.195 0.000 -0.981
vn 0.195 0.000 -0.981
vn 0.556 0.000 -0.831
vn 0.556 0.000 -0.831
vn 0.708 0.000 -0.707
vn 0.708 0.000 -0.707
vn 0.831 0.000 -0.556
vn 0.831 -0.000 -0.556
vn 0.981 -0.000 -0.195
vn 0.981 0.000 -0.195
vn 0.707 -0.000 0.707
vn 0.707 -0.000 0.707
vn 0.831 0.000 0.556
vn 0.831 0.000 0.556
vn 0.981 0.000 0.195
vn 0.981 -0.000 0.195
vn 0.981 0.000 -0.195
vn 0.981 0.000 -0.195
vn 0.831 0.000 -0.556
vn 0.831 0.000 -0.556
vn -0.707 0.000 -0.707
vn -0.707 0.000 -0.707
vn -0.831 0.000 -0.556
vn -0.831 -0.000 -0.556
vn -0.981 -0.000 -0.195
vn -0.981 -0.000 -0.195
vn 1.000 0.000 0.000
vn 1.000 0.000 0.000
vn 0.707 -0.000 0.707
vn 0.707 -0.000 0.707
vn 0.556 -0.000 0.831
vn 0.556 -0.000 0.831
vn 0.195 -0.000 0.981
vn 0.195 -0.000 0.981
vn -0.000 1.000 0.000
vn 0.000 1.000 -0.000
vn 0.000 1.000 0.000
vn -0.000 1.000 0.000
vn -0.000 1.000 0.000
vn -0.000 1.000 0.000
vn -0.000 1.000 0.000
vn -0.000 1.000 -0.000
vn -0.000 1.000 -0.000
vn -0.000 1.000 0.000
vn -0.195 -0.000 0.981
vn -0.195 -0.000 0.981
vn -0.556 -0.000 0.831
vn -0.556 0.000 0.831
vn -0.708 0.000 0.707
vn -0.708 -0.000 0.707
vn 0.195 -0.000 0.981
vn 0.195 -0.000 0.981
vn 0.556 -0.000 0.831
vn 0.556 -0.000 0.831
vn 0.981 -0.000 0.195
vn 0.981 -0.000 0.195
vn 0.831 -0.000 0.556
vn 0.831 -0.000 0.556
vn -0.981 0.000 0.195
vn -0.981 0.000 0.195
vn -0.831 0.000 0.556
vn -0.831 -0.000 0.556
vn -0.195 -0.000 0.981
vn -0.195 -0.000 0.981
vn -0.556 -0.000 0.831
vn -0.556 -0.000 0.831

# Facets
f 1//1 3//1 2//1
f 4//2 6//2 5//2
f 7//3 9//3 8//3
f 10//4 9//4 7//4
f 10//5 11//5 9//5
f 12//6 11//6 10//6
f 12//7 13//7 11//7
f 14//8 13//8 12//8
f 15//9 13//9 14//9
f 16//10 13//10 15//10
f 16//11 15//11 17//11
f 17//12 15//12 18//12
f 17//13 18//13 19//13
f 19//14 18//14 20//14
f 19//15 20//15 21//15
f 21//16 20//16 22//16
f 21//17 22//17 23//17
f 23//18 22//18 24//18
f 23//19 24//19 25//19
f 25//20 24//20 26//20
f 25//21 26//21 27//21
f 27//22 26//22 28//22
f 29//23 27//23 28//23
f 30//24 27//24 29//24
f 29//25 31//25 30//25
f 32//26 31//26 29//26
f 32//27 33//27 31//27
f 34//28 33//28 32//28
f 34//29 35//29 33//29
f 36//30 35//30 34//30
f 36//31 37//31 35//31
f 38//32 37//32 36//32
f 38//33 39//33 37//33
f 40//34 39//34 38//34
f 40//35 41//35 39//35
f 42//36 41//36 40//36
f 43//37 41//37 42//37
f 44//38 41//38 43//38
f 44//39 43//39 45//39
f 45//40 43//40 46//40
f 45//41 46//41 47//41
f 47//42 46//42 48//42
f 47//43 48//43 49//43
f 49//44 48//44 50//44
f 51//45 53//45 52//45
f 52//46 53//46 54//46
f 52//47 54//47 55//47
f 55//48 54//48 56//48
f 55//49 56//49 57//49
f 57//50 56//50 58//50
f 59//51 57//51 58//51
f 60//52 57//52 59//52
f 59//53 61//53 60//53
f 62//54 61//54 59//54
f 62//55 63//55 61//55
f 64//56 63//56 62//56
f 64//57 65//57 63//57
f 66//58 65//58 64//58
f 67//59 69//59 68//59
f 69//60 67//60 70//60
f 69//61 70//61 71//61
f 71//62 70//62 72//62
f 71//63 72//63 73//63
f 73//64 72//64 74//64
f 73//65 74//65 75//65
f 75//66 74//66 76//66
f 75//67 76//67 77//67
f 77//68 76//68 78//68
f 77//69 78//69 79//69
f 79//70 78//70 80//70
f 79//71 80//71 81//71
f 81//72 80//72 82//72
f 81//73 82//73 83//73
f 83//74 82//74 84//74
f 83//75 84//75 85//75
f 85//76 84//76 86//76
f 85//77 86//77 87//77
f 87//78 86//78 88//78
f 87//79 88//79 89//79
f 89//80 88//80 90//80
f 89//81 90//81 91//81
f 91//82 90//82 92//82
f 91//83 92//83 93//83
f 93//84 92//84 94//84
f 95//85 97//85 96//85
f 95//86 98//86 97//86
f 99//87 98//87 95//87
f 99//88 100//88 98//88
f 99//89 101//89 100//89
f 99//90 102//90 101//90
f 99//91 103//91 102//91
f 104//92 103//92 99//92
f 103//93 104//93 105//93
f 105//94 104//94 106//94
f 106//95 104//95 107//95
f 108//96 106//96 107//96
f 109//97 106//97 108//97
f 110//98 106//98 109//98
f 111//99 106//99 110//99
f 111//100 112//100 106//100
f 113//101 112//101 111//101
f 113//102 114//102 112//102
f 115//103 114//103 113//103
f 114//104 115//104 116//104
f 117//105 119//105 118//105
f 120//106 119//106 117//106
f 119//107 120//107 121//107
f 121//108 120//108 122//108
f 121//109 122//109 123//109
f 123//110 122//110 124//110
f 123//111 124//111 125//111
f 125//112 124//112 126//112
f 125//113 126//113 127//113
f 127//114 126//114 128//114
f 129//115 131//115 130//115
f 130//116 131//116 132//116
f 130//117 132//117 133//117
f 133//118 132//118 134//118
f 133//119 134//119 135//119
f 135//120 134//120 136//120
f 135//121 136//121 137//121
f 137//122 136//122 138//122
f 137//123 138//123 139//123
f 139//124 138//124 140//124
f 141//125 143//125 142//125
f 143//126 141//126 144//126
f 144//127 141//127 145//127
f 144//128 145//128 146//128
f 146//129 145//129 147//129
f 146//130 147//130 148//130
f 146//131 148//131 149//131
f 146//132 149//132 150//132
f 146//133 150//133 151//133
f 146//134 151//134 152//134
f 146//135 152//135 153//135
f 153//136 152//136 154//136
f 154//137 155//137 153//137
f 155//138 154//138 156//138
f 155//139 156//139 157//139
f 157//140 156//140 158//140
f 158//141 156//141 159//141
f 159//142 156//142 160//142
f 160//143 156//143 161//143
f 161//144 156//144 162//144
f 161//145 162//145 163//145
f 163//146 162//146 164//146
f 165//147 167//147 166//147
f 167//148 165//148 168//148
f 167//149 168//149 169//149
f 169//150 168//150 170//150
f 170//151 168//151 171//151
f 171//152 168//152 172//152
f 172//153 168//153 173//153
f 173//154 168//154 174//154
f 173//155 174//155 175//155
f 176//156 178//156 177//156
f 178//157 176//157 179//157
f 179//158 176//158 180//158
f 179//159 180//159 181//159
f 181//160 180//160 182//160
f 181//161 182//161 183//161
f 181//162 183//162 184//162
f 181//163 184//163 185//163
f 181//164 185//164 186//164
f 181//165 186//165 187//165
f 188//166 190//166 189//166
f 190//167 188//167 191//167
f 191//168 188//168 192//168
f 191//169 192//169 193//169
f 191//170 193//170 194//170
f 191//171 194//171 195//171
f 191//172 195//172 196//172
f 191//173 196//173 197//173
f 197//174 196//174 198//174
f 199//175 201//175 200//175
f 200//176 201//176 202//176
f 200//177 202//177 203//177
f 203//178 202//178 204//178
f 203//179 204//179 205//179
f 205//180 204//180 206//180
f 205//181 206//181 207//181
f 207//182 206//182 208//182
f 207//183 208//183 209//183
f 209//184 208//184 210//184
f 211//185 213//185 212//185
f 212//186 213//186 214//186
f 212//187 214//187 215//187
f 215//188 214//188 216//188
f 215//189 216//189 217//189
f 217//190 216//190 218//190
f 219//191 221//191 220//191
f 222//192 221//192 219//192
f 221//193 222//193 223//193
f 223//194 222//194 224//194
f 223//195 224//195 225//195
f 225//196 224//196 226//196
f 225//197 226//197 227//197
f 227//198 226//198 228//198
f 227//199 228//199 229//199
f 229//200 228//200 230//200
f 231//201 233//201 232//201
f 234//202 233//202 231//202
f 233//203 234//203 235//203
f 235//204 234//204 236//204
f 235//205 236//205 237//205
f 237//206 236//206 238//206
f 239//207 241//207 240//207
f 242//208 241//208 239//208
f 243//209 245//209 244//209
f 244//210 245//210 246//210
f 244//211 246//211 247//211
f 247//212 246//212 248//212
f 247//213 248//213 249//213
f 249//214 248//214 250//214
f 251//215 253//215 252//215
f 253//216 251//216 254//216
f 254//217 251//217 255//217
f 254//218 255//218 256//218
f 254//219 256//219 257//219
f 257//220 256//220 258//220
f 258//221 256//221 259//221
f 259//222 256//222 260//222
f 260//223 256//223 261//223
f 261//224 256//224 262//224
f 263//225 265//225 264//225
f 266//226 265//226 263//226
f 266//227 267//227 265//227
f 268//228 267//228 266//228
f 267//229 268//229 269//229
f 269//230 268//230 270//230
f 271//231 273//231 272//231
f 272//232 273//232 274//232
f 272//233 274//233 275//233
f 275//234 274//234 276//234
f 277//235 279//235 278//235
f 278//236 279//236 280//236
f 278//237 280//237 281//237
f 281//238 280//238 282//238
f 283//239 285//239 284//239
f 284//240 285//240 286//240
f 284//241 286//241 287//241
f 287//242 286//242 288//242
f 289//243 291//243 290//243
f 290//244 291//244 292//244
f 290//245 292//245 293//245
f 293//246 292//246 294//246

# Thank you for using Spin 3D

