# Created using Spin 3D

# Vertex Array 
v -6.000 -3.003 -8.000
v -6.000 -3.003 -10.000
v -8.000 -3.003 -10.000
v -8.000 -3.003 -8.000
v -10.000 -3.003 -10.000
v -10.000 -3.003 -8.000
v -10.000 -3.003 -6.000
v -8.000 -3.003 -6.000
v -10.000 -1.003 10.000
v -10.000 -3.003 10.000
v -10.000 -1.003 8.000
v -10.000 -3.003 8.000
v -10.000 -3.003 6.000
v -10.000 -1.003 6.000
v -10.000 -3.003 10.000
v -8.000 -3.003 10.000
v -10.000 -3.003 8.000
v -8.000 -3.003 8.000
v -6.000 -3.003 10.000
v -6.000 -3.003 8.000
v -8.000 -3.003 6.000
v -10.000 -3.003 6.000
v -8.000 -3.003 10.000
v -10.000 -3.003 10.000
v -10.000 -1.003 10.000
v -8.000 -1.003 10.000
v -6.000 -1.003 10.000
v -6.000 -3.003 10.000
v 10.000 -3.003 10.000
v 10.000 -1.003 10.000
v 10.000 -3.003 8.000
v 10.000 -1.003 8.000
v 10.000 -1.003 6.000
v 10.000 -3.003 6.000
v 10.000 -1.003 10.000
v 8.000 -1.003 10.000
v 10.000 -1.003 8.000
v 8.000 -1.003 8.000
v 6.000 -1.003 10.000
v 6.000 -1.003 8.000
v 8.000 -1.003 6.000
v 10.000 -1.003 6.000
v 6.000 -3.003 -10.000
v 6.000 -3.003 -8.000
v 8.000 -3.003 -8.000
v 8.000 -3.003 -10.000
v 10.000 -3.003 -8.000
v 10.000 -3.003 -10.000
v 8.000 -3.003 -6.000
v 10.000 -3.003 -6.000
v 10.000 -1.003 10.000
v 10.000 -3.003 10.000
v 8.000 -1.003 10.000
v 8.000 -3.003 10.000
v 6.000 -3.003 10.000
v 6.000 -1.003 10.000
v -6.000 -1.003 -10.000
v -6.000 -1.003 -8.000
v -8.000 -1.003 -8.000
v -8.000 -1.003 -10.000
v -10.000 -1.003 -8.000
v -10.000 -1.003 -10.000
v -8.000 -1.003 -6.000
v -10.000 -1.003 -6.000
v -10.000 -3.003 -8.000
v -10.000 -3.003 -10.000
v -10.000 -1.003 -10.000
v -10.000 -1.003 -8.000
v -10.000 -1.003 -6.000
v -10.000 -3.003 -6.000
v -10.000 -1.003 -10.000
v -10.000 -3.003 -10.000
v -8.000 -1.003 -10.000
v -8.000 -3.003 -10.000
v -6.000 -3.003 -10.000
v -6.000 -1.003 -10.000
v 10.000 -3.003 -6.000
v 10.000 -1.003 -6.000
v 10.000 -1.003 -8.000
v 10.000 -3.003 -8.000
v 10.000 -3.003 -10.000
v 10.000 -1.003 -10.000
v 8.000 -3.003 -10.000
v 10.000 -3.003 -10.000
v 10.000 -1.003 -10.000
v 8.000 -1.003 -10.000
v 6.000 -1.003 -10.000
v 6.000 -3.003 -10.000
v 6.000 -3.003 10.000
v 6.000 -3.003 8.000
v 6.000 -1.003 8.000
v 6.000 -1.003 10.000
v 6.000 -3.003 -8.000
v 6.000 -3.003 -10.000
v 6.000 -1.003 -10.000
v 6.000 -1.003 -8.000
v 6.000 -3.003 8.000
v 6.000 -3.003 10.000
v 8.000 -3.003 10.000
v 8.000 -3.003 8.000
v 10.000 -3.003 10.000
v 10.000 -3.003 8.000
v 10.000 -3.003 6.000
v 8.000 -3.003 6.000
v 6.000 -1.003 8.000
v 6.000 -3.003 8.000
v 8.000 -3.003 8.000
v 8.000 -1.003 8.000
v 6.000 -3.003 -8.000
v 6.000 -1.003 -8.000
v 8.000 -1.003 -8.000
v 8.000 -3.003 -8.000
v 6.000 -1.003 -8.000
v 6.000 -1.003 -10.000
v 8.000 -1.003 -10.000
v 8.000 -1.003 -8.000
v 10.000 -1.003 -10.000
v 10.000 -1.003 -8.000
v 10.000 -1.003 -6.000
v 8.000 -1.003 -6.000
v -6.000 -1.003 10.000
v -6.000 -1.003 8.000
v -6.000 -3.003 8.000
v -6.000 -3.003 10.000
v -6.000 -1.003 -8.000
v -6.000 -1.003 -10.000
v -6.000 -3.003 -10.000
v -6.000 -3.003 -8.000
v -6.000 -1.003 8.000
v -6.000 -1.003 10.000
v -8.000 -1.003 10.000
v -8.000 -1.003 8.000
v -10.000 -1.003 10.000
v -10.000 -1.003 8.000
v -10.000 -1.003 6.000
v -8.000 -1.003 6.000
v -6.000 -1.003 -8.000
v -6.000 -3.003 -8.000
v -8.000 -3.003 -8.000
v -8.000 -1.003 -8.000
v -6.000 -3.003 8.000
v -6.000 -1.003 8.000
v -8.000 -1.003 8.000
v -8.000 -3.003 8.000
v 8.000 -3.003 6.000
v 8.000 -1.003 6.000
v 8.000 -1.003 8.000
v 8.000 -3.003 8.000
v -10.000 -3.003 6.000
v -8.000 -3.003 6.000
v -8.000 -1.003 6.000
v -10.000 -1.003 6.000
v 8.000 -3.003 6.000
v 10.000 -3.003 6.000
v 10.000 -1.003 6.000
v 8.000 -1.003 6.000
v -8.000 -1.003 6.000
v -8.000 -3.003 6.000
v -8.000 -3.003 8.000
v -8.000 -1.003 8.000
v -8.000 -3.003 -6.000
v -10.000 -3.003 -6.000
v -10.000 -1.003 -6.000
v -8.000 -1.003 -6.000
v 10.000 -3.003 -6.000
v 8.000 -3.003 -6.000
v 8.000 -1.003 -6.000
v 10.000 -1.003 -6.000
v -8.000 -3.003 -6.000
v -8.000 -1.003 -6.000
v -8.000 -1.003 -8.000
v -8.000 -3.003 -8.000
v 8.000 -1.003 -6.000
v 8.000 -3.003 -6.000
v 8.000 -3.003 -8.000
v 8.000 -1.003 -8.000

# Normal Array
vn 0.000 -1.000 -0.000
vn 0.000 -1.000 0.000
vn 0.000 -1.000 -0.000
vn 0.000 -1.000 0.000
vn 0.000 -1.000 0.000
vn 0.000 -1.000 0.000
vn -1.000 -0.000 -0.000
vn -1.000 0.000 0.000
vn -1.000 0.000 0.000
vn -1.000 0.000 0.000
vn 0.000 -1.000 0.000
vn 0.000 -1.000 -0.000
vn 0.000 -1.000 0.000
vn 0.000 -1.000 -0.000
vn -0.000 -1.000 -0.000
vn 0.000 -1.000 0.000
vn 0.000 0.000 1.000
vn 0.000 0.000 1.000
vn -0.000 0.000 1.000
vn 0.000 0.000 1.000
vn 1.000 -0.000 0.000
vn 1.000 0.000 0.000
vn 1.000 0.000 0.000
vn 1.000 0.000 0.000
vn 0.000 1.000 0.000
vn 0.000 1.000 0.000
vn 0.000 1.000 0.000
vn 0.000 1.000 0.000
vn -0.000 1.000 0.000
vn 0.000 1.000 0.000
vn 0.000 -1.000 0.000
vn 0.000 -1.000 0.000
vn 0.000 -1.000 0.000
vn 0.000 -1.000 -0.000
vn 0.000 -1.000 0.000
vn 0.000 -1.000 0.000
vn 0.000 0.000 1.000
vn 0.000 0.000 1.000
vn 0.000 -0.000 1.000
vn 0.000 0.000 1.000
vn 0.000 1.000 -0.000
vn 0.000 1.000 0.000
vn 0.000 1.000 0.000
vn 0.000 1.000 0.000
vn 0.000 1.000 -0.000
vn 0.000 1.000 0.000
vn -1.000 0.000 0.000
vn -1.000 -0.000 -0.000
vn -1.000 0.000 0.000
vn -1.000 -0.000 0.000
vn 0.000 0.000 -1.000
vn 0.000 0.000 -1.000
vn 0.000 0.000 -1.000
vn 0.000 0.000 -1.000
vn 1.000 -0.000 0.000
vn 1.000 0.000 0.000
vn 1.000 -0.000 0.000
vn 1.000 0.000 0.000
vn 0.000 0.000 -1.000
vn 0.000 0.000 -1.000
vn -0.000 -0.000 -1.000
vn 0.000 0.000 -1.000
vn -1.000 0.000 0.000
vn -1.000 -0.000 -0.000
vn -1.000 0.000 0.000
vn -1.000 -0.000 -0.000
vn 0.000 -1.000 0.000
vn 0.000 -1.000 0.000
vn 0.000 -1.000 0.000
vn 0.000 -1.000 -0.000
vn -0.000 -1.000 -0.000
vn 0.000 -1.000 0.000
vn 0.000 0.000 -1.000
vn -0.000 -0.000 -1.000
vn 0.000 0.000 1.000
vn 0.000 -0.000 1.000
vn 0.000 1.000 0.000
vn 0.000 1.000 0.000
vn 0.000 1.000 0.000
vn 0.000 1.000 0.000
vn 0.000 1.000 -0.000
vn 0.000 1.000 0.000
vn 1.000 0.000 0.000
vn 1.000 -0.000 0.000
vn 1.000 0.000 0.000
vn 1.000 -0.000 0.000
vn 0.000 1.000 -0.000
vn 0.000 1.000 0.000
vn 0.000 1.000 0.000
vn 0.000 1.000 0.000
vn -0.000 1.000 0.000
vn 0.000 1.000 0.000
vn 0.000 0.000 1.000
vn -0.000 0.000 1.000
vn 0.000 0.000 -1.000
vn 0.000 0.000 -1.000
vn -1.000 0.000 0.000
vn -1.000 0.000 0.000
vn 0.000 0.000 -1.000
vn 0.000 0.000 -1.000
vn 0.000 0.000 -1.000
vn 0.000 0.000 -1.000
vn 1.000 0.000 0.000
vn 1.000 0.000 0.000
vn 0.000 0.000 1.000
vn 0.000 0.000 1.000
vn 0.000 0.000 1.000
vn 0.000 0.000 1.000
vn 1.000 -0.000 0.000
vn 1.000 0.000 0.000
vn -1.000 -0.000 0.000
vn -1.000 0.000 0.000

# Facets
f 1//1 3//1 2//1
f 4//2 3//2 1//2
f 4//3 5//3 3//3
f 6//4 5//4 4//4
f 6//5 4//5 7//5
f 7//6 4//6 8//6
f 9//7 11//7 10//7
f 10//8 11//8 12//8
f 12//9 11//9 13//9
f 13//10 11//10 14//10
f 15//11 17//11 16//11
f 16//12 17//12 18//12
f 16//13 18//13 19//13
f 19//14 18//14 20//14
f 18//15 17//15 21//15
f 21//16 17//16 22//16
f 23//17 25//17 24//17
f 26//18 25//18 23//18
f 26//19 23//19 27//19
f 27//20 23//20 28//20
f 29//21 31//21 30//21
f 30//22 31//22 32//22
f 32//23 31//23 33//23
f 33//24 31//24 34//24
f 35//25 37//25 36//25
f 36//26 37//26 38//26
f 36//27 38//27 39//27
f 39//28 38//28 40//28
f 38//29 37//29 41//29
f 41//30 37//30 42//30
f 43//31 45//31 44//31
f 46//32 45//32 43//32
f 45//33 46//33 47//33
f 47//34 46//34 48//34
f 45//35 47//35 49//35
f 49//36 47//36 50//36
f 51//37 53//37 52//37
f 52//38 53//38 54//38
f 54//39 53//39 55//39
f 55//40 53//40 56//40
f 57//41 59//41 58//41
f 60//42 59//42 57//42
f 59//43 60//43 61//43
f 61//44 60//44 62//44
f 59//45 61//45 63//45
f 63//46 61//46 64//46
f 65//47 67//47 66//47
f 68//48 67//48 65//48
f 68//49 65//49 69//49
f 69//50 65//50 70//50
f 71//51 73//51 72//51
f 72//52 73//52 74//52
f 74//53 73//53 75//53
f 75//54 73//54 76//54
f 77//55 79//55 78//55
f 80//56 79//56 77//56
f 80//57 81//57 79//57
f 79//58 81//58 82//58
f 83//59 85//59 84//59
f 86//60 85//60 83//60
f 86//61 83//61 87//61
f 87//62 83//62 88//62
f 89//63 91//63 90//63
f 92//64 91//64 89//64
f 93//65 95//65 94//65
f 96//66 95//66 93//66
f 97//67 99//67 98//67
f 100//68 99//68 97//68
f 99//69 100//69 101//69
f 101//70 100//70 102//70
f 102//71 100//71 103//71
f 103//72 100//72 104//72
f 105//73 107//73 106//73
f 108//74 107//74 105//74
f 109//75 111//75 110//75
f 112//76 111//76 109//76
f 113//77 115//77 114//77
f 116//78 115//78 113//78
f 116//79 117//79 115//79
f 118//80 117//80 116//80
f 118//81 116//81 119//81
f 119//82 116//82 120//82
f 121//83 123//83 122//83
f 124//84 123//84 121//84
f 125//85 127//85 126//85
f 128//86 127//86 125//86
f 129//87 131//87 130//87
f 132//88 131//88 129//88
f 131//89 132//89 133//89
f 133//90 132//90 134//90
f 134//91 132//91 135//91
f 135//92 132//92 136//92
f 137//93 139//93 138//93
f 140//94 139//94 137//94
f 141//95 143//95 142//95
f 144//96 143//96 141//96
f 145//97 147//97 146//97
f 148//98 147//98 145//98
f 149//99 151//99 150//99
f 152//100 151//100 149//100
f 153//101 155//101 154//101
f 156//102 155//102 153//102
f 157//103 159//103 158//103
f 160//104 159//104 157//104
f 161//105 163//105 162//105
f 164//106 163//106 161//106
f 165//107 167//107 166//107
f 168//108 167//108 165//108
f 169//109 171//109 170//109
f 172//110 171//110 169//110
f 173//111 175//111 174//111
f 176//112 175//112 173//112

# Thank you for using Spin 3D

