# Created using Spin 3D

# Vertex Array 
v 7.250 -1.305 -7.250
v 7.250 1.305 -7.250
v 6.720 1.305 -7.657
v 6.720 -1.305 -7.657
v 6.103 1.305 -7.913
v 6.103 -1.305 -7.913
v 5.440 1.305 -8.000
v 5.440 -1.305 -8.000
v -5.440 -1.305 -8.000
v -5.440 1.305 -8.000
v -6.103 1.305 -7.913
v -6.103 -1.305 -7.913
v -6.720 1.305 -7.657
v -6.720 -1.305 -7.657
v -7.250 1.305 -7.250
v -7.250 -1.305 -7.250
v -7.657 1.305 -6.720
v -7.657 -1.305 -6.720
v -7.913 1.305 -6.103
v -7.913 -1.305 -6.103
v -8.000 1.305 -5.440
v -8.000 -1.305 -5.440
v -8.000 -1.305 5.440
v -8.000 1.305 5.440
v -7.913 1.305 6.103
v -7.913 -1.305 6.103
v -7.657 1.305 6.720
v -7.657 -1.305 6.720
v -7.250 1.305 7.250
v -7.250 -1.305 7.250
v -6.720 1.305 7.657
v -6.720 -1.305 7.657
v -6.103 1.305 7.913
v -6.103 -1.305 7.913
v -5.440 1.305 8.000
v -5.440 -1.305 8.000
v 5.440 -1.305 8.000
v 5.440 1.305 8.000
v 6.103 1.305 7.913
v 6.103 -1.305 7.913
v 6.720 1.305 7.657
v 6.720 -1.305 7.657
v 7.250 1.305 7.250
v 7.250 -1.305 7.250
v 7.250 -1.305 -7.250
v 7.657 -1.305 -6.720
v 7.250 1.305 -7.250
v 7.657 1.305 -6.720
v 7.913 -1.305 -6.103
v 7.913 1.305 -6.103
v 8.000 -1.305 -5.440
v 8.000 1.305 -5.440
v 8.000 1.305 5.440
v 8.000 -1.305 5.440
v 7.913 -1.305 6.103
v 7.913 1.305 6.103
v 7.657 -1.305 6.720
v 7.657 1.305 6.720
v 7.250 -1.305 7.250
v 7.250 1.305 7.250
v -5.440 1.305 -8.000
v 5.440 1.305 -8.000
v 6.103 1.305 -7.913
v -6.103 1.305 -7.913
v 6.720 1.305 -7.657
v -6.720 1.305 -7.657
v 7.250 1.305 -7.250
v -7.250 1.305 -7.250
v 7.657 1.305 -6.720
v -7.657 1.305 -6.720
v 7.913 1.305 -6.103
v -7.913 1.305 -6.103
v 8.000 1.305 -5.440
v -8.000 1.305 -5.440
v 8.000 1.305 5.440
v -8.000 1.305 5.440
v 7.913 1.305 6.103
v -7.913 1.305 6.103
v 7.657 1.305 6.720
v -7.657 1.305 6.720
v 7.250 1.305 7.250
v -7.250 1.305 7.250
v 6.720 1.305 7.657
v -6.720 1.305 7.657
v 6.103 1.305 7.913
v -6.103 1.305 7.913
v 5.440 1.305 8.000
v -5.440 1.305 8.000

# Normal Array
vn 0.609 0.000 -0.793
vn 0.609 0.000 -0.793
vn 0.383 0.000 -0.924
vn 0.383 0.000 -0.924
vn 0.131 0.000 -0.991
vn 0.131 0.000 -0.991
vn 0.000 0.000 -1.000
vn 0.000 0.000 -1.000
vn -0.131 -0.000 -0.991
vn -0.131 -0.000 -0.991
vn -0.383 -0.000 -0.924
vn -0.383 -0.000 -0.924
vn -0.609 -0.000 -0.793
vn -0.609 -0.000 -0.793
vn -0.793 -0.000 -0.609
vn -0.793 -0.000 -0.609
vn -0.924 -0.000 -0.383
vn -0.924 -0.000 -0.383
vn -0.991 -0.000 -0.131
vn -0.991 -0.000 -0.131
vn -1.000 0.000 0.000
vn -1.000 -0.000 -0.000
vn -0.991 0.000 0.131
vn -0.991 0.000 0.131
vn -0.924 0.000 0.383
vn -0.924 0.000 0.383
vn -0.793 0.000 0.609
vn -0.793 0.000 0.609
vn -0.609 0.000 0.793
vn -0.609 0.000 0.793
vn -0.383 0.000 0.924
vn -0.383 0.000 0.924
vn -0.131 0.000 0.991
vn -0.131 0.000 0.991
vn 0.000 0.000 1.000
vn 0.000 0.000 1.000
vn 0.131 0.000 0.991
vn 0.131 0.000 0.991
vn 0.383 0.000 0.924
vn 0.383 0.000 0.924
vn 0.609 0.000 0.793
vn 0.609 0.000 0.793
vn 0.793 0.000 -0.609
vn 0.793 0.000 -0.609
vn 0.924 0.000 -0.383
vn 0.924 0.000 -0.383
vn 0.991 0.000 -0.131
vn 0.991 0.000 -0.131
vn 1.000 0.000 0.000
vn 1.000 -0.000 0.000
vn 0.991 0.000 0.131
vn 0.991 0.000 0.131
vn 0.924 0.000 0.383
vn 0.924 0.000 0.383
vn 0.793 0.000 0.609
vn 0.793 0.000 0.609
vn 0.000 1.000 0.000
vn 0.000 1.000 0.000
vn 0.000 1.000 -0.000
vn 0.000 1.000 0.000
vn 0.000 1.000 -0.000
vn 0.000 1.000 0.000
vn 0.000 1.000 -0.000
vn 0.000 1.000 0.000
vn 0.000 1.000 -0.000
vn 0.000 1.000 0.000
vn 0.000 1.000 -0.000
vn 0.000 1.000 0.000
vn 0.000 1.000 -0.000
vn 0.000 1.000 0.000
vn 0.000 1.000 0.000
vn 0.000 1.000 0.000
vn 0.000 1.000 0.000
vn 0.000 1.000 0.000
vn 0.000 1.000 0.000
vn 0.000 1.000 0.000
vn 0.000 1.000 0.000
vn 0.000 1.000 0.000
vn 0.000 1.000 0.000
vn 0.000 1.000 0.000
vn 0.000 1.000 0.000
vn 0.000 1.000 0.000

# Facets
f 1//1 3//1 2//1
f 4//2 3//2 1//2
f 4//3 5//3 3//3
f 6//4 5//4 4//4
f 6//5 7//5 5//5
f 8//6 7//6 6//6
f 9//7 7//7 8//7
f 10//8 7//8 9//8
f 10//9 9//9 11//9
f 11//10 9//10 12//10
f 11//11 12//11 13//11
f 13//12 12//12 14//12
f 13//13 14//13 15//13
f 15//14 14//14 16//14
f 15//15 16//15 17//15
f 17//16 16//16 18//16
f 17//17 18//17 19//17
f 19//18 18//18 20//18
f 19//19 20//19 21//19
f 21//20 20//20 22//20
f 23//21 21//21 22//21
f 24//22 21//22 23//22
f 23//23 25//23 24//23
f 26//24 25//24 23//24
f 26//25 27//25 25//25
f 28//26 27//26 26//26
f 28//27 29//27 27//27
f 30//28 29//28 28//28
f 30//29 31//29 29//29
f 32//30 31//30 30//30
f 32//31 33//31 31//31
f 34//32 33//32 32//32
f 34//33 35//33 33//33
f 36//34 35//34 34//34
f 37//35 35//35 36//35
f 38//36 35//36 37//36
f 38//37 37//37 39//37
f 39//38 37//38 40//38
f 39//39 40//39 41//39
f 41//40 40//40 42//40
f 41//41 42//41 43//41
f 43//42 42//42 44//42
f 45//43 47//43 46//43
f 46//44 47//44 48//44
f 46//45 48//45 49//45
f 49//46 48//46 50//46
f 49//47 50//47 51//47
f 51//48 50//48 52//48
f 53//49 51//49 52//49
f 54//50 51//50 53//50
f 53//51 55//51 54//51
f 56//52 55//52 53//52
f 56//53 57//53 55//53
f 58//54 57//54 56//54
f 58//55 59//55 57//55
f 60//56 59//56 58//56
f 61//57 63//57 62//57
f 63//58 61//58 64//58
f 63//59 64//59 65//59
f 65//60 64//60 66//60
f 65//61 66//61 67//61
f 67//62 66//62 68//62
f 67//63 68//63 69//63
f 69//64 68//64 70//64
f 69//65 70//65 71//65
f 71//66 70//66 72//66
f 71//67 72//67 73//67
f 73//68 72//68 74//68
f 73//69 74//69 75//69
f 75//70 74//70 76//70
f 75//71 76//71 77//71
f 77//72 76//72 78//72
f 77//73 78//73 79//73
f 79//74 78//74 80//74
f 79//75 80//75 81//75
f 81//76 80//76 82//76
f 81//77 82//77 83//77
f 83//78 82//78 84//78
f 83//79 84//79 85//79
f 85//80 84//80 86//80
f 85//81 86//81 87//81
f 87//82 86//82 88//82

# Thank you for using Spin 3D

