# Created using Spin 3D

# Vertex Array 
v 0.225 0.046 0.273
v 0.107 0.046 0.273
v 0.107 0.046 -0.057
v 0.225 0.046 -0.065
v 0.100 0.046 -0.109
v 0.079 0.046 -0.148
v 0.210 0.046 -0.158
v 0.045 0.046 -0.171
v 0.000 0.046 -0.179
v 0.164 0.046 -0.226
v -0.210 0.046 -0.158
v -0.045 0.046 -0.171
v -0.079 0.046 -0.148
v -0.165 0.046 -0.226
v 0.093 0.046 -0.267
v -0.093 0.046 -0.267
v 0.000 0.046 -0.280
v -0.225 0.046 -0.065
v -0.100 0.046 -0.109
v -0.107 0.046 -0.057
v -0.225 0.046 0.273
v -0.107 0.046 0.273
v 0.107 0.000 -0.057
v 0.107 -0.000 0.273
v 0.225 -0.000 0.273
v 0.225 -0.000 -0.065
v 0.100 0.000 -0.109
v 0.079 0.000 -0.148
v 0.210 0.000 -0.158
v 0.045 0.000 -0.171
v 0.000 0.000 -0.179
v 0.164 0.000 -0.226
v -0.210 0.000 -0.158
v -0.045 0.000 -0.171
v -0.079 0.000 -0.148
v -0.165 0.000 -0.226
v 0.093 0.000 -0.267
v -0.093 0.000 -0.267
v 0.000 0.000 -0.280
v -0.225 0.000 -0.065
v -0.100 0.000 -0.109
v -0.107 0.000 -0.057
v -0.225 -0.000 0.273
v -0.107 -0.000 0.273
v -0.093 0.000 -0.267
v 0.000 0.000 -0.280
v 0.000 0.046 -0.280
v -0.093 0.046 -0.267
v -0.165 0.000 -0.226
v -0.165 0.046 -0.226
v -0.210 0.000 -0.158
v -0.210 0.046 -0.158
v -0.225 0.000 -0.065
v -0.225 0.046 -0.065
v -0.225 -0.000 0.273
v -0.225 0.046 0.273
v -0.107 -0.000 0.273
v -0.225 -0.000 0.273
v -0.225 0.046 0.273
v -0.107 0.046 0.273
v -0.107 0.000 -0.057
v -0.107 -0.000 0.273
v -0.107 0.046 0.273
v -0.107 0.046 -0.057
v -0.100 0.000 -0.109
v -0.100 0.046 -0.109
v -0.079 0.000 -0.148
v -0.079 0.046 -0.148
v -0.045 0.000 -0.171
v -0.045 0.046 -0.171
v 0.000 0.000 -0.179
v 0.000 0.046 -0.179
v 0.045 0.000 -0.171
v 0.045 0.046 -0.171
v 0.079 0.000 -0.148
v 0.079 0.046 -0.148
v 0.100 0.000 -0.109
v 0.100 0.046 -0.109
v 0.107 0.000 -0.057
v 0.107 0.046 -0.057
v 0.107 -0.000 0.273
v 0.107 0.046 0.273
v 0.225 -0.000 0.273
v 0.107 -0.000 0.273
v 0.107 0.046 0.273
v 0.225 0.046 0.273
v 0.225 -0.000 -0.065
v 0.225 -0.000 0.273
v 0.225 0.046 0.273
v 0.225 0.046 -0.065
v 0.210 0.000 -0.158
v 0.210 0.046 -0.158
v 0.164 0.000 -0.226
v 0.164 0.046 -0.226
v 0.093 0.000 -0.267
v 0.093 0.046 -0.267
v 0.000 0.000 -0.280
v 0.000 0.046 -0.280

# Normal Array
vn -0.000 1.000 0.000
vn 0.000 1.000 0.000
vn 0.000 1.000 0.000
vn -0.000 1.000 0.000
vn 0.000 1.000 -0.000
vn 0.000 1.000 0.000
vn 0.000 1.000 -0.000
vn 0.000 1.000 0.000
vn 0.000 1.000 0.000
vn 0.000 1.000 0.000
vn 0.000 1.000 0.000
vn 0.000 1.000 -0.000
vn 0.000 1.000 0.000
vn 0.000 1.000 0.000
vn 0.000 1.000 -0.000
vn 0.000 1.000 0.000
vn 0.000 1.000 0.000
vn 0.000 1.000 0.000
vn 0.000 1.000 0.000
vn 0.000 1.000 0.000
vn 0.000 -1.000 -0.000
vn -0.000 -1.000 -0.000
vn -0.000 -1.000 -0.000
vn -0.000 -1.000 -0.000
vn -0.000 -1.000 -0.000
vn -0.000 -1.000 -0.000
vn -0.000 -1.000 0.000
vn -0.000 -1.000 -0.000
vn -0.000 -1.000 -0.000
vn -0.000 -1.000 -0.000
vn -0.000 -1.000 -0.000
vn -0.000 -1.000 0.000
vn -0.000 -1.000 0.000
vn -0.000 -1.000 -0.000
vn -0.000 -1.000 0.000
vn -0.000 -1.000 -0.000
vn -0.000 -1.000 -0.000
vn -0.000 -1.000 -0.000
vn -0.000 -1.000 -0.000
vn -0.000 -1.000 -0.000
vn -0.144 0.000 -0.990
vn -0.144 -0.000 -0.990
vn -0.497 0.000 -0.868
vn -0.497 0.000 -0.868
vn -0.830 -0.000 -0.558
vn -0.830 -0.000 -0.558
vn -0.987 -0.000 -0.160
vn -0.987 -0.000 -0.160
vn -1.000 -0.000 -0.000
vn -1.000 -0.000 -0.000
vn -0.000 -0.000 1.000
vn -0.000 0.000 1.000
vn 1.000 0.000 0.000
vn 1.000 -0.000 0.000
vn 0.991 -0.000 0.132
vn 0.991 -0.000 0.132
vn 0.877 -0.000 0.481
vn 0.877 0.000 0.481
vn 0.568 0.000 0.823
vn 0.568 -0.000 0.823
vn 0.169 -0.000 0.986
vn 0.169 -0.000 0.986
vn -0.171 -0.000 0.985
vn -0.171 0.000 0.985
vn -0.570 0.000 0.822
vn -0.570 0.000 0.822
vn -0.877 0.000 0.481
vn -0.877 -0.000 0.481
vn -0.991 -0.000 0.132
vn -0.991 0.000 0.132
vn -1.000 0.000 -0.000
vn -1.000 0.000 -0.000
vn -0.000 -0.000 1.000
vn -0.000 0.000 1.000
vn 1.000 0.000 0.000
vn 1.000 0.000 0.000
vn 0.987 0.000 -0.161
vn 0.987 0.000 -0.161
vn 0.828 0.000 -0.560
vn 0.828 0.000 -0.560
vn 0.498 0.000 -0.867
vn 0.498 0.000 -0.867
vn 0.146 0.000 -0.989
vn 0.146 -0.000 -0.989

# Facets
f 1//1 3//1 2//1
f 4//2 3//2 1//2
f 4//3 5//3 3//3
f 4//4 6//4 5//4
f 7//5 6//5 4//5
f 7//6 8//6 6//6
f 7//7 9//7 8//7
f 9//8 7//8 10//8
f 10//9 11//9 9//9
f 9//10 11//10 12//10
f 12//11 11//11 13//11
f 10//12 14//12 11//12
f 15//13 14//13 10//13
f 15//14 16//14 14//14
f 16//15 15//15 17//15
f 13//16 11//16 18//16
f 13//17 18//17 19//17
f 19//18 18//18 20//18
f 20//19 18//19 21//19
f 20//20 21//20 22//20
f 23//21 25//21 24//21
f 23//22 26//22 25//22
f 27//23 26//23 23//23
f 28//24 26//24 27//24
f 28//25 29//25 26//25
f 30//26 29//26 28//26
f 31//27 29//27 30//27
f 29//28 31//28 32//28
f 33//29 32//29 31//29
f 33//30 31//30 34//30
f 33//31 34//31 35//31
f 36//32 32//32 33//32
f 36//33 37//33 32//33
f 38//34 37//34 36//34
f 37//35 38//35 39//35
f 33//36 35//36 40//36
f 40//37 35//37 41//37
f 40//38 41//38 42//38
f 40//39 42//39 43//39
f 43//40 42//40 44//40
f 45//41 47//41 46//41
f 48//42 47//42 45//42
f 49//43 48//43 45//43
f 50//44 48//44 49//44
f 51//45 50//45 49//45
f 52//46 50//46 51//46
f 53//47 52//47 51//47
f 54//48 52//48 53//48
f 55//49 54//49 53//49
f 56//50 54//50 55//50
f 57//51 59//51 58//51
f 60//52 59//52 57//52
f 61//53 63//53 62//53
f 64//54 63//54 61//54
f 65//55 64//55 61//55
f 66//56 64//56 65//56
f 67//57 66//57 65//57
f 68//58 66//58 67//58
f 69//59 68//59 67//59
f 70//60 68//60 69//60
f 71//61 70//61 69//61
f 72//62 70//62 71//62
f 73//63 72//63 71//63
f 74//64 72//64 73//64
f 75//65 74//65 73//65
f 76//66 74//66 75//66
f 77//67 76//67 75//67
f 78//68 76//68 77//68
f 79//69 78//69 77//69
f 80//70 78//70 79//70
f 81//71 80//71 79//71
f 82//72 80//72 81//72
f 83//73 85//73 84//73
f 86//74 85//74 83//74
f 87//75 89//75 88//75
f 90//76 89//76 87//76
f 91//77 90//77 87//77
f 92//78 90//78 91//78
f 93//79 92//79 91//79
f 94//80 92//80 93//80
f 95//81 94//81 93//81
f 96//82 94//82 95//82
f 97//83 96//83 95//83
f 98//84 96//84 97//84

# Thank you for using Spin 3D

