# Created using Spin 3D

# Vertex Array 
v -2.246 0.152 0.404
v 2.246 0.152 0.404
v 2.311 0.152 0.395
v -2.311 0.152 0.395
v 2.373 0.152 0.370
v -2.373 0.152 0.370
v 2.425 0.152 0.329
v -2.425 0.152 0.329
v 2.466 0.152 0.277
v -2.466 0.152 0.277
v 2.491 0.152 0.215
v -2.491 0.152 0.215
v 2.500 0.152 0.150
v -2.500 0.152 0.150
v 2.500 0.152 -0.000
v -2.500 0.152 -0.000
v 2.500 0.152 -0.150
v -2.500 0.152 -0.150
v 2.491 0.152 -0.215
v -2.491 0.152 -0.215
v 2.466 0.152 -0.277
v -2.466 0.152 -0.277
v 2.425 0.152 -0.329
v -2.425 0.152 -0.329
v 2.373 0.152 -0.370
v -2.373 0.152 -0.370
v 2.311 0.152 -0.395
v -2.311 0.152 -0.395
v 2.246 0.152 -0.404
v -2.246 0.152 -0.404
v 2.238 0.260 0.294
v -2.238 0.260 0.294
v -2.283 0.260 0.288
v 2.283 0.260 0.288
v -2.317 0.260 0.274
v 2.317 0.260 0.274
v -2.347 0.260 0.251
v 2.347 0.260 0.251
v -2.370 0.260 0.221
v 2.370 0.260 0.221
v -2.384 0.260 0.187
v 2.384 0.260 0.187
v -2.390 0.260 0.142
v 2.390 0.260 0.142
v -2.390 0.260 0.000
v 2.390 0.260 -0.000
v -2.390 0.260 -0.142
v 2.390 0.260 -0.142
v -2.384 0.260 -0.187
v 2.384 0.260 -0.187
v -2.370 0.260 -0.221
v 2.370 0.260 -0.221
v -2.347 0.260 -0.251
v 2.347 0.260 -0.251
v -2.317 0.260 -0.274
v 2.317 0.260 -0.274
v -2.283 0.260 -0.288
v 2.283 0.260 -0.288
v -2.238 0.260 -0.294
v 2.238 0.260 -0.294
v -2.500 0.152 -0.000
v -2.500 0.260 0.000
v -2.500 0.152 0.150
v -2.500 0.152 -0.150
v -2.500 0.260 0.150
v -2.491 0.152 0.215
v -2.500 0.260 -0.150
v -2.491 0.152 -0.215
v -2.491 0.260 0.215
v -2.466 0.152 0.277
v -2.491 0.260 -0.215
v -2.466 0.152 -0.277
v -2.466 0.260 0.277
v -2.425 0.152 0.329
v -2.466 0.260 -0.277
v -2.425 0.152 -0.329
v -2.425 0.260 0.329
v -2.373 0.152 0.370
v -2.425 0.260 -0.329
v -2.373 0.152 -0.370
v -2.373 0.260 0.370
v -2.311 0.152 0.395
v -2.373 0.260 -0.370
v -2.311 0.152 -0.395
v -2.311 0.260 0.395
v -2.246 0.152 0.404
v -2.311 0.260 -0.395
v -2.246 0.152 -0.404
v -2.425 0.397 0.329
v -2.466 0.397 0.277
v -2.373 0.397 0.370
v -2.311 0.397 0.395
v -2.491 0.397 0.215
v -2.500 0.397 0.150
v -2.500 0.397 0.000
v -2.500 0.397 -0.150
v -2.491 0.397 -0.215
v -2.466 0.397 -0.277
v -2.425 0.397 -0.329
v -2.373 0.397 -0.370
v -2.311 0.397 -0.395
v -2.246 0.397 -0.404
v -2.246 0.260 -0.404
v 2.246 0.397 -0.404
v 2.246 0.260 -0.404
v 2.246 0.152 -0.404
v 2.311 0.397 -0.395
v 2.311 0.152 -0.395
v 2.311 0.260 -0.395
v 2.373 0.397 -0.370
v 2.373 0.152 -0.370
v 2.373 0.260 -0.370
v 2.425 0.397 -0.329
v 2.425 0.152 -0.329
v 2.425 0.260 -0.329
v 2.466 0.397 -0.277
v 2.466 0.152 -0.277
v 2.466 0.260 -0.277
v 2.491 0.397 -0.215
v 2.491 0.152 -0.215
v 2.491 0.260 -0.215
v 2.500 0.397 -0.150
v 2.500 0.152 -0.150
v 2.500 0.260 -0.150
v 2.500 0.397 0.000
v 2.500 0.152 -0.000
v 2.500 0.260 0.000
v 2.500 0.260 0.150
v 2.500 0.397 0.150
v 2.500 0.152 0.150
v 2.491 0.260 0.215
v 2.491 0.397 0.215
v 2.491 0.152 0.215
v 2.466 0.260 0.277
v 2.466 0.397 0.277
v 2.466 0.152 0.277
v 2.425 0.260 0.329
v 2.425 0.397 0.329
v 2.425 0.152 0.329
v 2.373 0.260 0.370
v 2.373 0.397 0.370
v 2.373 0.152 0.370
v 2.311 0.260 0.395
v 2.311 0.397 0.395
v 2.311 0.152 0.395
v 2.246 0.260 0.404
v 2.246 0.152 0.404
v 2.246 0.397 0.404
v -2.246 0.260 0.404
v -2.246 0.397 0.404
v -2.500 0.397 0.000
v -2.390 0.397 0.000
v -2.390 0.397 0.142
v -2.390 0.397 -0.142
v -2.500 0.397 0.150
v -2.500 0.397 -0.150
v -2.384 0.397 0.187
v -2.384 0.397 -0.187
v -2.491 0.397 0.215
v -2.491 0.397 -0.215
v -2.370 0.397 0.221
v -2.370 0.397 -0.221
v -2.466 0.397 0.277
v -2.466 0.397 -0.277
v -2.347 0.397 0.251
v -2.347 0.397 -0.251
v -2.425 0.397 0.329
v -2.425 0.397 -0.329
v -2.317 0.397 0.274
v -2.317 0.397 -0.274
v -2.373 0.397 0.370
v -2.373 0.397 -0.370
v -2.283 0.397 0.288
v -2.283 0.397 -0.288
v -2.311 0.397 0.395
v -2.311 0.397 -0.395
v -2.238 0.397 0.294
v -2.238 0.397 -0.294
v -2.246 0.397 0.404
v -2.246 0.397 -0.404
v 2.238 0.397 0.294
v 2.238 0.397 -0.294
v 2.246 0.397 0.404
v 2.246 0.397 -0.404
v 2.283 0.397 0.288
v 2.283 0.397 -0.288
v 2.311 0.397 0.395
v 2.311 0.397 -0.395
v 2.317 0.397 0.274
v 2.317 0.397 -0.274
v 2.373 0.397 0.370
v 2.373 0.397 -0.370
v 2.347 0.397 0.251
v 2.347 0.397 -0.251
v 2.425 0.397 0.329
v 2.425 0.397 -0.329
v 2.370 0.397 0.221
v 2.370 0.397 -0.221
v 2.466 0.397 0.277
v 2.466 0.397 -0.277
v 2.384 0.397 0.187
v 2.384 0.397 -0.187
v 2.491 0.397 0.215
v 2.491 0.397 -0.215
v 2.390 0.397 0.142
v 2.390 0.397 -0.142
v 2.500 0.397 0.150
v 2.500 0.397 -0.150
v 2.390 0.397 -0.000
v 2.500 0.397 0.000
v 2.390 0.397 -0.000
v 2.390 0.397 0.142
v 2.390 0.260 -0.000
v 2.390 0.397 -0.142
v 2.390 0.260 0.142
v 2.390 0.260 -0.142
v 2.384 0.397 0.187
v 2.384 0.397 -0.187
v 2.384 0.260 0.187
v 2.384 0.260 -0.187
v 2.370 0.397 0.221
v 2.370 0.397 -0.221
v 2.370 0.260 0.221
v 2.370 0.260 -0.221
v 2.347 0.397 0.251
v 2.347 0.397 -0.251
v 2.347 0.260 0.251
v 2.347 0.260 -0.251
v 2.317 0.397 0.274
v 2.317 0.397 -0.274
v 2.317 0.260 0.274
v 2.317 0.260 -0.274
v 2.283 0.397 0.288
v 2.283 0.397 -0.288
v 2.283 0.260 0.288
v 2.283 0.260 -0.288
v 2.238 0.397 0.294
v 2.238 0.397 -0.294
v 2.238 0.260 0.294
v 2.238 0.260 -0.294
v -2.238 0.397 0.294
v -2.238 0.397 -0.294
v -2.238 0.260 0.294
v -2.238 0.260 -0.294
v -2.283 0.397 0.288
v -2.283 0.397 -0.288
v -2.283 0.260 0.288
v -2.283 0.260 -0.288
v -2.317 0.397 0.274
v -2.317 0.397 -0.274
v -2.317 0.260 0.274
v -2.317 0.260 -0.274
v -2.347 0.397 0.251
v -2.347 0.397 -0.251
v -2.347 0.260 0.251
v -2.347 0.260 -0.251
v -2.370 0.397 0.221
v -2.370 0.397 -0.221
v -2.370 0.260 0.221
v -2.370 0.260 -0.221
v -2.384 0.397 0.187
v -2.384 0.397 -0.187
v -2.384 0.260 0.187
v -2.384 0.260 -0.187
v -2.390 0.397 0.142
v -2.390 0.397 -0.142
v -2.390 0.260 0.142
v -2.390 0.260 -0.142
v -2.390 0.397 0.000
v -2.390 0.260 0.000

# Normal Array
vn 0.000 -1.000 0.000
vn 0.000 -1.000 0.000
vn 0.000 -1.000 0.000
vn 0.000 -1.000 0.000
vn 0.000 -1.000 0.000
vn 0.000 -1.000 0.000
vn 0.000 -1.000 0.000
vn 0.000 -1.000 0.000
vn 0.000 -1.000 0.000
vn 0.000 -1.000 0.000
vn 0.000 -1.000 -0.000
vn 0.000 -1.000 -0.000
vn 0.000 -1.000 0.000
vn 0.000 -1.000 0.000
vn 0.000 -1.000 0.000
vn 0.000 -1.000 0.000
vn 0.000 -1.000 0.000
vn 0.000 -1.000 0.000
vn 0.000 -1.000 0.000
vn 0.000 -1.000 0.000
vn 0.000 -1.000 0.000
vn 0.000 -1.000 0.000
vn 0.000 -1.000 0.000
vn 0.000 -1.000 0.000
vn 0.000 -1.000 0.000
vn 0.000 -1.000 0.000
vn 0.000 -1.000 0.000
vn 0.000 -1.000 0.000
vn 0.000 1.000 0.000
vn 0.000 1.000 0.000
vn 0.000 1.000 0.000
vn 0.000 1.000 0.000
vn 0.000 1.000 0.000
vn 0.000 1.000 0.000
vn 0.000 1.000 0.000
vn 0.000 1.000 0.000
vn 0.000 1.000 0.000
vn 0.000 1.000 0.000
vn 0.000 1.000 0.000
vn 0.000 1.000 0.000
vn 0.000 1.000 0.000
vn -0.000 1.000 0.000
vn 0.000 1.000 0.000
vn 0.000 1.000 -0.000
vn 0.000 1.000 0.000
vn 0.000 1.000 -0.000
vn 0.000 1.000 0.000
vn 0.000 1.000 -0.000
vn 0.000 1.000 -0.000
vn 0.000 1.000 -0.000
vn 0.000 1.000 0.000
vn 0.000 1.000 -0.000
vn 0.000 1.000 0.000
vn 0.000 1.000 -0.000
vn 0.000 1.000 0.000
vn 0.000 1.000 0.000
vn -1.000 0.000 0.000
vn -1.000 0.000 0.000
vn -1.000 0.000 0.000
vn -0.991 -0.000 0.131
vn -1.000 0.000 0.000
vn -0.991 -0.000 -0.131
vn -0.991 0.000 0.131
vn -0.924 0.000 0.383
vn -0.991 0.000 -0.131
vn -0.924 0.000 -0.383
vn -0.924 0.000 0.383
vn -0.793 0.000 0.609
vn -0.924 0.000 -0.383
vn -0.793 0.000 -0.609
vn -0.793 0.000 0.609
vn -0.609 0.000 0.793
vn -0.793 0.000 -0.609
vn -0.609 0.000 -0.793
vn -0.609 0.000 0.793
vn -0.383 0.000 0.924
vn -0.609 0.000 -0.793
vn -0.383 0.000 -0.924
vn -0.383 0.000 0.924
vn -0.131 0.000 0.991
vn -0.383 0.000 -0.924
vn -0.131 0.000 -0.991
vn -0.793 -0.000 0.609
vn -0.793 -0.000 0.609
vn -0.609 -0.000 0.793
vn -0.609 -0.000 0.793
vn -0.924 -0.000 0.383
vn -0.383 -0.000 0.924
vn -0.383 -0.000 0.924
vn -0.924 -0.000 0.383
vn -0.991 -0.000 0.131
vn -0.991 0.000 0.131
vn -1.000 -0.000 0.000
vn -1.000 0.000 0.000
vn -1.000 0.000 0.000
vn -1.000 0.000 0.000
vn -0.991 0.000 -0.131
vn -0.991 -0.000 -0.131
vn -0.924 -0.000 -0.383
vn -0.924 -0.000 -0.383
vn -0.793 -0.000 -0.609
vn -0.793 -0.000 -0.609
vn -0.609 -0.000 -0.793
vn -0.609 -0.000 -0.793
vn -0.383 -0.000 -0.924
vn -0.383 -0.000 -0.924
vn -0.131 -0.000 -0.991
vn -0.131 0.000 -0.991
vn -0.131 0.000 -0.991
vn -0.000 0.000 -1.000
vn 0.000 0.000 -1.000
vn 0.000 0.000 -1.000
vn 0.000 0.000 -1.000
vn 0.131 0.000 -0.991
vn 0.131 0.000 -0.991
vn 0.131 -0.000 -0.991
vn 0.131 0.000 -0.991
vn 0.383 -0.000 -0.924
vn 0.383 0.000 -0.924
vn 0.383 -0.000 -0.924
vn 0.383 0.000 -0.924
vn 0.609 -0.000 -0.793
vn 0.609 0.000 -0.793
vn 0.609 -0.000 -0.793
vn 0.609 0.000 -0.793
vn 0.793 -0.000 -0.609
vn 0.793 0.000 -0.609
vn 0.793 -0.000 -0.609
vn 0.793 0.000 -0.609
vn 0.924 -0.000 -0.383
vn 0.924 0.000 -0.383
vn 0.924 -0.000 -0.383
vn 0.924 0.000 -0.383
vn 0.991 -0.000 -0.131
vn 0.991 0.000 -0.131
vn 0.991 0.000 -0.131
vn 0.991 -0.000 -0.131
vn 1.000 0.000 0.000
vn 1.000 0.000 0.000
vn 1.000 -0.000 0.000
vn 1.000 0.000 0.000
vn 1.000 0.000 0.000
vn 1.000 0.000 0.000
vn 1.000 0.000 0.000
vn 1.000 -0.000 0.000
vn 0.991 0.000 0.131
vn 0.991 -0.000 0.131
vn 0.991 -0.000 0.131
vn 0.991 0.000 0.131
vn 0.924 -0.000 0.383
vn 0.924 0.000 0.383
vn 0.924 -0.000 0.383
vn 0.924 0.000 0.383
vn 0.793 -0.000 0.609
vn 0.793 0.000 0.609
vn 0.793 -0.000 0.609
vn 0.793 0.000 0.609
vn 0.609 -0.000 0.793
vn 0.609 0.000 0.793
vn 0.609 -0.000 0.793
vn 0.609 0.000 0.793
vn 0.383 -0.000 0.924
vn 0.383 0.000 0.924
vn 0.383 -0.000 0.924
vn 0.383 0.000 0.924
vn 0.131 -0.000 0.991
vn 0.131 0.000 0.991
vn 0.131 0.000 0.991
vn 0.131 0.000 0.991
vn 0.000 -0.000 1.000
vn 0.000 0.000 1.000
vn 0.000 0.000 1.000
vn -0.000 0.000 1.000
vn -0.131 0.000 0.991
vn -0.131 0.000 0.991
vn -0.131 -0.000 0.991
vn 0.000 1.000 0.000
vn 0.000 1.000 0.000
vn 0.000 1.000 0.000
vn 0.000 1.000 0.000
vn -0.000 1.000 0.000
vn 0.000 1.000 0.000
vn 0.000 1.000 0.000
vn 0.000 1.000 0.000
vn -0.000 1.000 0.000
vn 0.000 1.000 0.000
vn -0.000 1.000 0.000
vn -0.000 1.000 -0.000
vn 0.000 1.000 0.000
vn 0.000 1.000 -0.000
vn 0.000 1.000 0.000
vn -0.000 1.000 0.000
vn 0.000 1.000 0.000
vn 0.000 1.000 0.000
vn 0.000 1.000 0.000
vn -0.000 1.000 0.000
vn 0.000 1.000 0.000
vn 0.000 1.000 0.000
vn 0.000 1.000 0.000
vn -0.000 1.000 0.000
vn 0.000 1.000 0.000
vn 0.000 1.000 0.000
vn 0.000 1.000 0.000
vn -0.000 1.000 0.000
vn 0.000 1.000 0.000
vn -0.000 1.000 0.000
vn 0.000 1.000 0.000
vn 0.000 1.000 0.000
vn 0.000 1.000 0.000
vn -0.000 1.000 0.000
vn 0.000 1.000 0.000
vn 0.000 1.000 0.000
vn 0.000 1.000 0.000
vn -0.000 1.000 0.000
vn 0.000 1.000 0.000
vn 0.000 1.000 0.000
vn 0.000 1.000 0.000
vn -0.000 1.000 0.000
vn 0.000 1.000 0.000
vn 0.000 1.000 -0.000
vn -0.000 1.000 0.000
vn -0.000 1.000 -0.000
vn 0.000 1.000 0.000
vn 0.000 1.000 -0.000
vn 0.000 1.000 0.000
vn 0.000 1.000 -0.000
vn -0.000 1.000 0.000
vn -0.000 1.000 -0.000
vn 0.000 1.000 0.000
vn -0.000 1.000 0.000
vn 0.000 1.000 0.000
vn 0.000 1.000 -0.000
vn 0.000 1.000 0.000
vn -0.000 1.000 0.000
vn 0.000 1.000 -0.000
vn 0.000 1.000 -0.000
vn -1.000 0.000 0.000
vn -1.000 0.000 0.000
vn -1.000 -0.000 0.000
vn -1.000 0.000 0.000
vn -0.991 -0.000 -0.131
vn -0.991 0.000 0.131
vn -0.991 0.000 -0.131
vn -0.991 0.000 0.131
vn -0.924 0.000 -0.383
vn -0.924 0.000 0.383
vn -0.924 0.000 -0.383
vn -0.924 0.000 0.383
vn -0.793 0.000 -0.609
vn -0.793 0.000 0.609
vn -0.793 0.000 -0.609
vn -0.793 0.000 0.609
vn -0.609 0.000 -0.793
vn -0.609 0.000 0.793
vn -0.609 0.000 -0.793
vn -0.609 0.000 0.793
vn -0.383 0.000 -0.924
vn -0.383 0.000 0.924
vn -0.383 0.000 -0.924
vn -0.383 0.000 0.924
vn -0.131 0.000 -0.991
vn -0.131 0.000 0.991
vn -0.131 0.000 -0.991
vn -0.131 0.000 0.991
vn 0.000 0.000 -1.000
vn -0.000 0.000 1.000
vn 0.000 0.000 -1.000
vn -0.000 0.000 1.000
vn 0.131 0.000 -0.991
vn 0.131 0.000 0.991
vn 0.131 0.000 -0.991
vn 0.131 0.000 0.991
vn 0.383 0.000 -0.924
vn 0.383 0.000 0.924
vn 0.383 0.000 -0.924
vn 0.383 0.000 0.924
vn 0.609 0.000 -0.793
vn 0.609 0.000 0.793
vn 0.609 0.000 -0.793
vn 0.609 0.000 0.793
vn 0.793 0.000 -0.609
vn 0.793 0.000 0.609
vn 0.793 0.000 -0.609
vn 0.793 0.000 0.609
vn 0.924 0.000 -0.383
vn 0.924 0.000 0.383
vn 0.924 0.000 -0.383
vn 0.924 0.000 0.383
vn 0.991 0.000 -0.131
vn 0.991 0.000 0.131
vn 0.991 0.000 -0.131
vn 0.991 -0.000 0.131
vn 1.000 0.000 0.000
vn 1.000 0.000 0.000
vn 1.000 0.000 0.000
vn 1.000 -0.000 0.000

# Facets
f 1//1 3//1 2//1
f 4//2 3//2 1//2
f 4//3 5//3 3//3
f 6//4 5//4 4//4
f 6//5 7//5 5//5
f 8//6 7//6 6//6
f 8//7 9//7 7//7
f 10//8 9//8 8//8
f 10//9 11//9 9//9
f 12//10 11//10 10//10
f 12//11 13//11 11//11
f 14//12 13//12 12//12
f 14//13 15//13 13//13
f 15//14 14//14 16//14
f 16//15 17//15 15//15
f 18//16 17//16 16//16
f 18//17 19//17 17//17
f 20//18 19//18 18//18
f 20//19 21//19 19//19
f 22//20 21//20 20//20
f 22//21 23//21 21//21
f 24//22 23//22 22//22
f 24//23 25//23 23//23
f 26//24 25//24 24//24
f 26//25 27//25 25//25
f 28//26 27//26 26//26
f 28//27 29//27 27//27
f 29//28 28//28 30//28
f 31//29 33//29 32//29
f 34//30 33//30 31//30
f 34//31 35//31 33//31
f 36//32 35//32 34//32
f 36//33 37//33 35//33
f 38//34 37//34 36//34
f 38//35 39//35 37//35
f 40//36 39//36 38//36
f 40//37 41//37 39//37
f 42//38 41//38 40//38
f 42//39 43//39 41//39
f 44//40 43//40 42//40
f 44//41 45//41 43//41
f 45//42 44//42 46//42
f 46//43 47//43 45//43
f 48//44 47//44 46//44
f 48//45 49//45 47//45
f 50//46 49//46 48//46
f 50//47 51//47 49//47
f 52//48 51//48 50//48
f 52//49 53//49 51//49
f 54//50 53//50 52//50
f 54//51 55//51 53//51
f 56//52 55//52 54//52
f 56//53 57//53 55//53
f 58//54 57//54 56//54
f 58//55 59//55 57//55
f 59//56 58//56 60//56
f 61//57 63//57 62//57
f 62//58 64//58 61//58
f 62//59 63//59 65//59
f 66//60 65//60 63//60
f 67//61 64//61 62//61
f 64//62 67//62 68//62
f 69//63 65//63 66//63
f 70//64 69//64 66//64
f 68//65 67//65 71//65
f 68//66 71//66 72//66
f 73//67 69//67 70//67
f 74//68 73//68 70//68
f 72//69 71//69 75//69
f 72//70 75//70 76//70
f 77//71 73//71 74//71
f 78//72 77//72 74//72
f 76//73 75//73 79//73
f 76//74 79//74 80//74
f 81//75 77//75 78//75
f 82//76 81//76 78//76
f 80//77 79//77 83//77
f 80//78 83//78 84//78
f 85//79 81//79 82//79
f 86//80 85//80 82//80
f 84//81 83//81 87//81
f 84//82 87//82 88//82
f 89//83 73//83 77//83
f 90//84 73//84 89//84
f 89//85 77//85 91//85
f 91//86 77//86 81//86
f 90//87 69//87 73//87
f 91//88 81//88 92//88
f 92//89 81//89 85//89
f 93//90 69//90 90//90
f 93//91 65//91 69//91
f 94//92 65//92 93//92
f 94//93 62//93 65//93
f 95//94 62//94 94//94
f 96//95 62//95 95//95
f 67//96 62//96 96//96
f 97//97 67//97 96//97
f 71//98 67//98 97//98
f 98//99 71//99 97//99
f 75//100 71//100 98//100
f 99//101 75//101 98//101
f 79//102 75//102 99//102
f 100//103 79//103 99//103
f 83//104 79//104 100//104
f 101//105 83//105 100//105
f 87//106 83//106 101//106
f 102//107 87//107 101//107
f 103//108 87//108 102//108
f 88//109 87//109 103//109
f 104//110 103//110 102//110
f 103//111 105//111 88//111
f 105//112 103//112 104//112
f 88//113 105//113 106//113
f 107//114 105//114 104//114
f 106//115 105//115 108//115
f 109//116 105//116 107//116
f 108//117 105//117 109//117
f 110//118 109//118 107//118
f 108//119 109//119 111//119
f 112//120 109//120 110//120
f 111//121 109//121 112//121
f 113//122 112//122 110//122
f 111//123 112//123 114//123
f 115//124 112//124 113//124
f 114//125 112//125 115//125
f 116//126 115//126 113//126
f 114//127 115//127 117//127
f 118//128 115//128 116//128
f 117//129 115//129 118//129
f 119//130 118//130 116//130
f 117//131 118//131 120//131
f 121//132 118//132 119//132
f 120//133 118//133 121//133
f 122//134 121//134 119//134
f 120//135 121//135 123//135
f 124//136 121//136 122//136
f 123//137 121//137 124//137
f 125//138 124//138 122//138
f 124//139 126//139 123//139
f 127//140 124//140 125//140
f 127//141 126//141 124//141
f 125//142 128//142 127//142
f 128//143 126//143 127//143
f 129//144 128//144 125//144
f 130//145 126//145 128//145
f 129//146 131//146 128//146
f 128//147 131//147 130//147
f 132//148 131//148 129//148
f 130//149 131//149 133//149
f 132//150 134//150 131//150
f 131//151 134//151 133//151
f 135//152 134//152 132//152
f 133//153 134//153 136//153
f 135//154 137//154 134//154
f 134//155 137//155 136//155
f 138//156 137//156 135//156
f 136//157 137//157 139//157
f 138//158 140//158 137//158
f 137//159 140//159 139//159
f 141//160 140//160 138//160
f 139//161 140//161 142//161
f 141//162 143//162 140//162
f 140//163 143//163 142//163
f 144//164 143//164 141//164
f 142//165 143//165 145//165
f 144//166 146//166 143//166
f 143//167 146//167 145//167
f 145//168 146//168 147//168
f 148//169 146//169 144//169
f 147//170 146//170 86//170
f 148//171 149//171 146//171
f 86//172 146//172 149//172
f 150//173 149//173 148//173
f 149//174 85//174 86//174
f 150//175 85//175 149//175
f 92//176 85//176 150//176
f 151//177 153//177 152//177
f 152//178 154//178 151//178
f 155//179 153//179 151//179
f 151//180 154//180 156//180
f 155//181 157//181 153//181
f 154//182 158//182 156//182
f 159//183 157//183 155//183
f 156//184 158//184 160//184
f 159//185 161//185 157//185
f 158//186 162//186 160//186
f 163//187 161//187 159//187
f 160//188 162//188 164//188
f 163//189 165//189 161//189
f 162//190 166//190 164//190
f 167//191 165//191 163//191
f 164//192 166//192 168//192
f 167//193 169//193 165//193
f 166//194 170//194 168//194
f 171//195 169//195 167//195
f 168//196 170//196 172//196
f 171//197 173//197 169//197
f 170//198 174//198 172//198
f 175//199 173//199 171//199
f 172//200 174//200 176//200
f 175//201 177//201 173//201
f 174//202 178//202 176//202
f 179//203 177//203 175//203
f 176//204 178//204 180//204
f 179//205 181//205 177//205
f 178//206 182//206 180//206
f 183//207 181//207 179//207
f 180//208 182//208 184//208
f 183//209 185//209 181//209
f 182//210 186//210 184//210
f 187//211 185//211 183//211
f 184//212 186//212 188//212
f 187//213 189//213 185//213
f 186//214 190//214 188//214
f 191//215 189//215 187//215
f 188//216 190//216 192//216
f 191//217 193//217 189//217
f 190//218 194//218 192//218
f 195//219 193//219 191//219
f 192//220 194//220 196//220
f 195//221 197//221 193//221
f 194//222 198//222 196//222
f 199//223 197//223 195//223
f 196//224 198//224 200//224
f 199//225 201//225 197//225
f 198//226 202//226 200//226
f 203//227 201//227 199//227
f 200//228 202//228 204//228
f 203//229 205//229 201//229
f 202//230 206//230 204//230
f 207//231 205//231 203//231
f 204//232 206//232 208//232
f 207//233 209//233 205//233
f 206//234 209//234 208//234
f 210//235 209//235 207//235
f 208//236 209//236 210//236
f 211//237 213//237 212//237
f 214//238 213//238 211//238
f 212//239 213//239 215//239
f 216//240 213//240 214//240
f 212//241 215//241 217//241
f 218//242 216//242 214//242
f 217//243 215//243 219//243
f 220//244 216//244 218//244
f 217//245 219//245 221//245
f 222//246 220//246 218//246
f 221//247 219//247 223//247
f 224//248 220//248 222//248
f 221//249 223//249 225//249
f 226//250 224//250 222//250
f 225//251 223//251 227//251
f 228//252 224//252 226//252
f 225//253 227//253 229//253
f 230//254 228//254 226//254
f 229//255 227//255 231//255
f 232//256 228//256 230//256
f 229//257 231//257 233//257
f 234//258 232//258 230//258
f 233//259 231//259 235//259
f 236//260 232//260 234//260
f 233//261 235//261 237//261
f 238//262 236//262 234//262
f 237//263 235//263 239//263
f 240//264 236//264 238//264
f 237//265 239//265 241//265
f 242//266 240//266 238//266
f 241//267 239//267 243//267
f 244//268 240//268 242//268
f 241//269 243//269 245//269
f 246//270 244//270 242//270
f 245//271 243//271 247//271
f 248//272 244//272 246//272
f 245//273 247//273 249//273
f 250//274 248//274 246//274
f 249//275 247//275 251//275
f 252//276 248//276 250//276
f 249//277 251//277 253//277
f 254//278 252//278 250//278
f 253//279 251//279 255//279
f 256//280 252//280 254//280
f 253//281 255//281 257//281
f 258//282 256//282 254//282
f 257//283 255//283 259//283
f 260//284 256//284 258//284
f 257//285 259//285 261//285
f 262//286 260//286 258//286
f 261//287 259//287 263//287
f 264//288 260//288 262//288
f 261//289 263//289 265//289
f 266//290 264//290 262//290
f 265//291 263//291 267//291
f 268//292 264//292 266//292
f 265//293 267//293 269//293
f 269//294 268//294 266//294
f 269//295 267//295 270//295
f 270//296 268//296 269//296

# Thank you for using Spin 3D

