# Created using Spin 3D

# Vertex Array 
v 0.209 0.046 0.172
v -0.205 0.046 0.172
v 0.078 0.046 0.172
v -0.205 -0.000 0.172
v 0.209 -0.000 0.172
v 0.078 -0.000 0.172
v -0.205 0.046 0.273
v -0.205 0.046 0.172
v 0.208 0.046 0.273
v 0.209 0.046 0.172
v -0.082 0.046 -0.171
v 0.078 0.046 0.172
v -0.211 0.046 -0.171
v 0.211 0.046 -0.273
v -0.211 0.046 -0.273
v 0.211 0.046 -0.171
v -0.205 -0.000 0.172
v -0.205 -0.000 0.273
v 0.208 -0.000 0.273
v 0.209 -0.000 0.172
v 0.078 -0.000 0.172
v -0.082 0.000 -0.171
v -0.211 0.000 -0.171
v 0.211 0.000 -0.273
v -0.211 0.000 -0.273
v 0.211 -0.000 -0.171
v -0.211 0.000 -0.171
v -0.211 0.000 -0.273
v -0.211 0.046 -0.273
v -0.211 0.046 -0.171
v 0.078 -0.000 0.172
v -0.211 0.000 -0.171
v -0.211 0.046 -0.171
v 0.078 0.046 0.172
v -0.205 -0.000 0.172
v 0.078 -0.000 0.172
v 0.078 0.046 0.172
v -0.205 0.046 0.172
v -0.205 -0.000 0.273
v -0.205 -0.000 0.172
v -0.205 0.046 0.172
v -0.205 0.046 0.273
v 0.208 -0.000 0.273
v -0.205 -0.000 0.273
v -0.205 0.046 0.273
v 0.208 0.046 0.273
v 0.209 -0.000 0.172
v 0.208 -0.000 0.273
v 0.208 0.046 0.273
v 0.209 0.046 0.172
v -0.082 0.000 -0.171
v 0.209 -0.000 0.172
v 0.209 0.046 0.172
v -0.082 0.046 -0.171
v 0.211 -0.000 -0.171
v -0.082 0.000 -0.171
v -0.082 0.046 -0.171
v 0.211 0.046 -0.171
v 0.211 0.000 -0.273
v 0.211 -0.000 -0.171
v 0.211 0.046 -0.171
v 0.211 0.046 -0.273
v -0.211 0.000 -0.273
v 0.211 0.000 -0.273
v 0.211 0.046 -0.273
v -0.211 0.046 -0.273

# Normal Array
vn 0.000 -0.172 -0.985
vn -0.000 0.594 0.804
vn 0.000 1.000 0.000
vn 0.000 1.000 0.000
vn -0.000 1.000 0.000
vn 0.000 1.000 0.000
vn 0.000 1.000 0.000
vn 0.000 1.000 0.000
vn 0.000 1.000 0.000
vn -0.000 -1.000 -0.000
vn -0.000 -1.000 -0.000
vn -0.000 -1.000 -0.000
vn -0.000 -1.000 -0.000
vn -0.000 -1.000 -0.000
vn -0.000 -1.000 -0.000
vn -0.000 -1.000 -0.000
vn -1.000 0.000 -0.000
vn -1.000 -0.000 -0.000
vn -0.765 0.000 0.645
vn -0.765 -0.000 0.645
vn 0.000 0.000 -1.000
vn 0.000 0.000 -1.000
vn -1.000 -0.000 -0.000
vn -1.000 0.000 -0.000
vn -0.000 -0.000 1.000
vn -0.000 -0.000 1.000
vn 1.000 0.000 0.008
vn 1.000 0.000 0.008
vn 0.763 0.000 -0.647
vn 0.763 -0.000 -0.647
vn -0.000 -0.000 1.000
vn -0.000 -0.000 1.000
vn 1.000 -0.000 0.000
vn 1.000 0.000 0.000
vn 0.000 0.000 -1.000
vn 0.000 0.000 -1.000

# Facets
f 1//1 3//1 2//1
f 4//2 6//2 5//2
f 7//3 9//3 8//3
f 8//4 9//4 10//4
f 11//5 12//5 10//5
f 12//6 11//6 13//6
f 14//7 13//7 11//7
f 13//8 14//8 15//8
f 14//9 11//9 16//9
f 17//10 19//10 18//10
f 20//11 19//11 17//11
f 21//12 22//12 20//12
f 22//13 21//13 23//13
f 23//14 24//14 22//14
f 24//15 23//15 25//15
f 22//16 24//16 26//16
f 27//17 29//17 28//17
f 30//18 29//18 27//18
f 31//19 33//19 32//19
f 34//20 33//20 31//20
f 35//21 37//21 36//21
f 38//22 37//22 35//22
f 39//23 41//23 40//23
f 42//24 41//24 39//24
f 43//25 45//25 44//25
f 46//26 45//26 43//26
f 47//27 49//27 48//27
f 50//28 49//28 47//28
f 51//29 53//29 52//29
f 54//30 53//30 51//30
f 55//31 57//31 56//31
f 58//32 57//32 55//32
f 59//33 61//33 60//33
f 62//34 61//34 59//34
f 63//35 65//35 64//35
f 66//36 65//36 63//36

# Thank you for using Spin 3D

