# Created using Spin 3D

# Vertex Array 
v -0.205 -0.000 0.273
v 0.016 -0.000 0.273
v 0.107 -0.000 0.261
v 0.172 -0.000 0.224
v 0.012 0.000 0.172
v -0.088 -0.000 0.172
v 0.053 -0.000 0.167
v -0.088 -0.000 0.011
v 0.211 -0.000 0.166
v 0.082 -0.000 0.151
v 0.098 -0.000 0.125
v 0.224 -0.000 0.091
v 0.104 -0.000 0.091
v 0.098 -0.000 0.057
v 0.082 -0.000 0.032
v 0.211 -0.000 0.016
v 0.053 -0.000 0.016
v 0.012 -0.000 0.011
v 0.172 -0.000 -0.042
v 0.107 0.000 -0.079
v 0.016 0.000 -0.091
v -0.088 0.000 -0.091
v -0.205 0.000 -0.273
v -0.088 0.000 -0.273
v 0.172 0.046 0.224
v 0.107 0.046 0.261
v 0.016 0.046 0.273
v 0.012 0.046 0.172
v -0.088 0.046 0.172
v 0.053 0.046 0.167
v 0.211 0.046 0.166
v 0.082 0.046 0.151
v -0.205 0.046 0.273
v 0.224 0.046 0.091
v 0.098 0.046 0.125
v 0.104 0.046 0.091
v 0.098 0.046 0.057
v 0.082 0.046 0.032
v 0.211 0.046 0.016
v 0.053 0.046 0.016
v 0.012 0.046 0.011
v 0.172 0.046 -0.042
v -0.088 0.046 0.011
v 0.107 0.046 -0.079
v 0.016 0.046 -0.091
v -0.088 0.046 -0.091
v -0.088 0.046 -0.273
v -0.205 0.046 -0.273
v 0.016 -0.000 0.273
v -0.205 -0.000 0.273
v -0.205 0.046 0.273
v 0.016 0.046 0.273
v 0.107 -0.000 0.261
v 0.107 0.046 0.261
v 0.172 -0.000 0.224
v 0.172 0.046 0.224
v 0.211 -0.000 0.166
v 0.211 0.046 0.166
v 0.224 -0.000 0.091
v 0.224 0.046 0.091
v 0.211 -0.000 0.016
v 0.211 0.046 0.016
v 0.172 -0.000 -0.042
v 0.172 0.046 -0.042
v 0.107 0.000 -0.079
v 0.107 0.046 -0.079
v 0.016 0.000 -0.091
v 0.016 0.046 -0.091
v -0.088 0.000 -0.091
v -0.088 0.046 -0.091
v -0.088 0.000 -0.273
v -0.088 0.000 -0.091
v -0.088 0.046 -0.091
v -0.088 0.046 -0.273
v -0.205 0.000 -0.273
v -0.088 0.000 -0.273
v -0.088 0.046 -0.273
v -0.205 0.046 -0.273
v -0.205 -0.000 0.273
v -0.205 0.000 -0.273
v -0.205 0.046 -0.273
v -0.205 0.046 0.273
v 0.053 -0.000 0.016
v 0.012 -0.000 0.011
v 0.012 0.046 0.011
v 0.053 0.046 0.016
v 0.082 -0.000 0.032
v 0.082 0.046 0.032
v 0.098 -0.000 0.057
v 0.098 0.046 0.057
v 0.104 -0.000 0.091
v 0.104 0.046 0.091
v 0.098 -0.000 0.125
v 0.098 0.046 0.125
v 0.082 -0.000 0.151
v 0.082 0.046 0.151
v 0.053 -0.000 0.167
v 0.053 0.046 0.167
v 0.012 0.000 0.172
v 0.012 0.046 0.172
v -0.088 -0.000 0.172
v -0.088 0.046 0.172
v -0.088 -0.000 0.011
v -0.088 -0.000 0.172
v -0.088 0.046 0.172
v -0.088 0.046 0.011
v 0.012 -0.000 0.011
v -0.088 -0.000 0.011
v -0.088 0.046 0.011
v 0.012 0.046 0.011

# Normal Array
vn -0.000 -1.000 -0.000
vn 0.000 -1.000 0.000
vn -0.000 -1.000 -0.000
vn 0.000 -1.000 -0.000
vn -0.000 -1.000 0.000
vn 0.000 -1.000 0.000
vn -0.000 -1.000 -0.000
vn -0.000 -1.000 -0.000
vn -0.000 -1.000 0.000
vn -0.000 -1.000 -0.000
vn -0.000 -1.000 -0.000
vn -0.000 -1.000 0.000
vn -0.000 -1.000 0.000
vn -0.000 -1.000 -0.000
vn -0.000 -1.000 -0.000
vn -0.000 -1.000 0.000
vn -0.000 -1.000 -0.000
vn 0.000 -1.000 0.000
vn -0.000 -1.000 -0.000
vn 0.000 -1.000 -0.000
vn 0.000 -1.000 -0.000
vn -0.000 -1.000 -0.000
vn -0.000 -1.000 -0.000
vn -0.000 -1.000 -0.000
vn -0.000 1.000 -0.000
vn 0.000 1.000 0.000
vn -0.000 1.000 0.000
vn 0.000 1.000 -0.000
vn -0.000 1.000 0.000
vn -0.000 1.000 -0.000
vn 0.000 1.000 0.000
vn -0.000 1.000 0.000
vn 0.000 1.000 0.000
vn 0.000 1.000 0.000
vn 0.000 1.000 -0.000
vn 0.000 1.000 -0.000
vn 0.000 1.000 -0.000
vn 0.000 1.000 0.000
vn 0.000 1.000 -0.000
vn 0.000 1.000 0.000
vn -0.000 1.000 0.000
vn -0.000 1.000 -0.000
vn -0.000 1.000 -0.000
vn 0.000 1.000 0.000
vn -0.000 1.000 0.000
vn 0.000 1.000 0.000
vn 0.000 1.000 0.000
vn 0.000 1.000 0.000
vn -0.000 -0.000 1.000
vn -0.000 0.000 1.000
vn 0.133 0.000 0.991
vn 0.133 -0.000 0.991
vn 0.493 -0.000 0.870
vn 0.493 -0.000 0.870
vn 0.830 -0.000 0.558
vn 0.830 -0.000 0.558
vn 0.986 -0.000 0.169
vn 0.986 0.000 0.169
vn 0.985 0.000 -0.171
vn 0.985 0.000 -0.171
vn 0.829 0.000 -0.559
vn 0.829 0.000 -0.559
vn 0.493 0.000 -0.870
vn 0.493 0.000 -0.870
vn 0.133 0.000 -0.991
vn 0.133 0.000 -0.991
vn 0.000 0.000 -1.000
vn 0.000 0.000 -1.000
vn 1.000 -0.000 0.000
vn 1.000 -0.000 0.000
vn 0.000 -0.000 -1.000
vn 0.000 0.000 -1.000
vn -1.000 -0.000 -0.000
vn -1.000 -0.000 -0.000
vn -0.130 -0.000 0.991
vn -0.130 0.000 0.991
vn -0.489 0.000 0.872
vn -0.489 -0.000 0.872
vn -0.832 -0.000 0.555
vn -0.832 0.000 0.555
vn -0.986 0.000 0.167
vn -0.986 0.000 0.167
vn -0.986 0.000 -0.164
vn -0.986 0.000 -0.164
vn -0.834 0.000 -0.552
vn -0.834 0.000 -0.552
vn -0.489 0.000 -0.872
vn -0.489 0.000 -0.872
vn -0.130 0.000 -0.991
vn -0.130 0.000 -0.991
vn 0.000 0.000 -1.000
vn 0.000 0.000 -1.000
vn 1.000 -0.000 0.000
vn 1.000 -0.000 0.000
vn -0.000 -0.000 1.000
vn -0.000 -0.000 1.000

# Facets
f 1//1 3//1 2//1
f 1//2 4//2 3//2
f 1//3 5//3 4//3
f 1//4 6//4 5//4
f 7//5 4//5 5//5
f 1//6 8//6 6//6
f 7//7 9//7 4//7
f 9//8 7//8 10//8
f 11//9 9//9 10//9
f 11//10 12//10 9//10
f 13//11 12//11 11//11
f 14//12 12//12 13//12
f 15//13 12//13 14//13
f 15//14 16//14 12//14
f 17//15 16//15 15//15
f 18//16 16//16 17//16
f 18//17 19//17 16//17
f 8//18 19//18 18//18
f 8//19 20//19 19//19
f 8//20 21//20 20//20
f 8//21 22//21 21//21
f 23//22 22//22 8//22
f 22//23 23//23 24//23
f 8//24 1//24 23//24
f 25//25 27//25 26//25
f 28//26 27//26 25//26
f 27//27 28//27 29//27
f 25//28 30//28 28//28
f 31//29 30//29 25//29
f 31//30 32//30 30//30
f 29//31 33//31 27//31
f 32//32 31//32 34//32
f 34//33 35//33 32//33
f 34//34 36//34 35//34
f 34//35 37//35 36//35
f 34//36 38//36 37//36
f 39//37 38//37 34//37
f 39//38 40//38 38//38
f 39//39 41//39 40//39
f 42//40 41//40 39//40
f 41//41 42//41 43//41
f 43//42 33//42 29//42
f 44//43 43//43 42//43
f 45//44 43//44 44//44
f 46//45 43//45 45//45
f 46//46 33//46 43//46
f 47//47 33//47 46//47
f 33//48 47//48 48//48
f 49//49 51//49 50//49
f 52//50 51//50 49//50
f 53//51 52//51 49//51
f 54//52 52//52 53//52
f 55//53 54//53 53//53
f 56//54 54//54 55//54
f 57//55 56//55 55//55
f 58//56 56//56 57//56
f 59//57 58//57 57//57
f 60//58 58//58 59//58
f 61//59 60//59 59//59
f 62//60 60//60 61//60
f 63//61 62//61 61//61
f 64//62 62//62 63//62
f 65//63 64//63 63//63
f 66//64 64//64 65//64
f 67//65 66//65 65//65
f 68//66 66//66 67//66
f 69//67 68//67 67//67
f 70//68 68//68 69//68
f 71//69 73//69 72//69
f 74//70 73//70 71//70
f 75//71 77//71 76//71
f 78//72 77//72 75//72
f 79//73 81//73 80//73
f 82//74 81//74 79//74
f 83//75 85//75 84//75
f 86//76 85//76 83//76
f 87//77 86//77 83//77
f 88//78 86//78 87//78
f 89//79 88//79 87//79
f 90//80 88//80 89//80
f 91//81 90//81 89//81
f 92//82 90//82 91//82
f 93//83 92//83 91//83
f 94//84 92//84 93//84
f 95//85 94//85 93//85
f 96//86 94//86 95//86
f 97//87 96//87 95//87
f 98//88 96//88 97//88
f 99//89 98//89 97//89
f 100//90 98//90 99//90
f 101//91 100//91 99//91
f 102//92 100//92 101//92
f 103//93 105//93 104//93
f 106//94 105//94 103//94
f 107//95 109//95 108//95
f 110//96 109//96 107//96

# Thank you for using Spin 3D

