# Created using Spin 3D

# Vertex Array 
v -0.064 0.046 -0.171
v 0.200 0.046 -0.273
v 0.200 0.046 -0.171
v -0.181 0.046 -0.273
v -0.181 0.046 0.273
v -0.064 0.046 -0.042
v -0.064 0.046 0.050
v 0.169 0.046 -0.042
v 0.169 0.046 0.050
v -0.064 0.046 0.172
v 0.192 0.046 0.172
v 0.192 0.046 0.273
v -0.181 -0.000 0.273
v 0.192 -0.000 0.273
v 0.192 -0.000 0.172
v -0.064 -0.000 0.172
v -0.064 -0.000 0.050
v -0.064 0.000 -0.042
v 0.169 -0.000 -0.042
v 0.169 -0.000 0.050
v -0.064 0.000 -0.171
v -0.181 0.000 -0.273
v 0.200 0.000 -0.273
v 0.200 0.000 -0.171
v -0.181 -0.000 0.273
v -0.181 0.000 -0.273
v -0.181 0.046 -0.273
v -0.181 0.046 0.273
v 0.192 -0.000 0.273
v -0.181 -0.000 0.273
v -0.181 0.046 0.273
v 0.192 0.046 0.273
v 0.192 -0.000 0.172
v 0.192 -0.000 0.273
v 0.192 0.046 0.273
v 0.192 0.046 0.172
v -0.064 -0.000 0.172
v 0.192 -0.000 0.172
v 0.192 0.046 0.172
v -0.064 0.046 0.172
v -0.064 -0.000 0.050
v -0.064 -0.000 0.172
v -0.064 0.046 0.172
v -0.064 0.046 0.050
v 0.169 -0.000 0.050
v -0.064 -0.000 0.050
v -0.064 0.046 0.050
v 0.169 0.046 0.050
v 0.169 -0.000 -0.042
v 0.169 -0.000 0.050
v 0.169 0.046 0.050
v 0.169 0.046 -0.042
v -0.064 0.000 -0.042
v 0.169 -0.000 -0.042
v 0.169 0.046 -0.042
v -0.064 0.046 -0.042
v -0.064 0.000 -0.171
v -0.064 0.000 -0.042
v -0.064 0.046 -0.042
v -0.064 0.046 -0.171
v 0.200 0.000 -0.171
v -0.064 0.000 -0.171
v -0.064 0.046 -0.171
v 0.200 0.046 -0.171
v 0.200 0.000 -0.273
v 0.200 0.000 -0.171
v 0.200 0.046 -0.171
v 0.200 0.046 -0.273
v -0.181 0.000 -0.273
v 0.200 0.000 -0.273
v 0.200 0.046 -0.273
v -0.181 0.046 -0.273

# Normal Array
vn 0.000 1.000 0.000
vn 0.000 1.000 0.000
vn 0.000 1.000 0.000
vn 0.000 1.000 0.000
vn 0.000 1.000 0.000
vn 0.000 1.000 0.000
vn -0.000 1.000 0.000
vn -0.000 1.000 -0.000
vn 0.000 1.000 0.000
vn 0.000 1.000 -0.000
vn -0.000 -1.000 0.000
vn -0.000 -1.000 -0.000
vn -0.000 -1.000 -0.000
vn 0.000 -1.000 -0.000
vn -0.000 -1.000 -0.000
vn -0.000 -1.000 0.000
vn 0.000 -1.000 -0.000
vn -0.000 -1.000 -0.000
vn -0.000 -1.000 -0.000
vn -0.000 -1.000 -0.000
vn -1.000 -0.000 -0.000
vn -1.000 -0.000 -0.000
vn -0.000 -0.000 1.000
vn -0.000 -0.000 1.000
vn 1.000 0.000 0.000
vn 1.000 0.000 0.000
vn 0.000 0.000 -1.000
vn 0.000 -0.000 -1.000
vn 1.000 0.000 0.000
vn 1.000 -0.000 0.000
vn -0.000 0.000 1.000
vn -0.000 -0.000 1.000
vn 1.000 0.000 0.000
vn 1.000 0.000 0.000
vn 0.000 0.000 -1.000
vn 0.000 0.000 -1.000
vn 1.000 -0.000 0.000
vn 1.000 -0.000 0.000
vn -0.000 0.000 1.000
vn -0.000 -0.000 1.000
vn 1.000 0.000 0.000
vn 1.000 0.000 0.000
vn 0.000 0.000 -1.000
vn 0.000 0.000 -1.000

# Facets
f 1//1 3//1 2//1
f 4//2 1//2 2//2
f 1//3 4//3 5//3
f 1//4 5//4 6//4
f 6//5 5//5 7//5
f 6//6 7//6 8//6
f 7//7 9//7 8//7
f 7//8 5//8 10//8
f 10//9 5//9 11//9
f 11//10 5//10 12//10
f 13//11 15//11 14//11
f 13//12 16//12 15//12
f 13//13 17//13 16//13
f 13//14 18//14 17//14
f 17//15 18//15 19//15
f 19//16 20//16 17//16
f 13//17 21//17 18//17
f 22//18 21//18 13//18
f 21//19 22//19 23//19
f 23//20 24//20 21//20
f 25//21 27//21 26//21
f 28//22 27//22 25//22
f 29//23 31//23 30//23
f 32//24 31//24 29//24
f 33//25 35//25 34//25
f 36//26 35//26 33//26
f 37//27 39//27 38//27
f 40//28 39//28 37//28
f 41//29 43//29 42//29
f 44//30 43//30 41//30
f 45//31 47//31 46//31
f 48//32 47//32 45//32
f 49//33 51//33 50//33
f 52//34 51//34 49//34
f 53//35 55//35 54//35
f 56//36 55//36 53//36
f 57//37 59//37 58//37
f 60//38 59//38 57//38
f 61//39 63//39 62//39
f 64//40 63//40 61//40
f 65//41 67//41 66//41
f 68//42 67//42 65//42
f 69//43 71//43 70//43
f 72//44 71//44 69//44

# Thank you for using Spin 3D

