# Created using Spin 3D

# Vertex Array 
v 0.174 0.046 0.071
v 0.174 0.046 -0.273
v 0.291 0.046 -0.273
v 0.291 0.046 0.273
v 0.143 0.046 0.273
v 0.170 0.046 0.071
v -0.000 0.046 -0.113
v 0.043 0.046 -0.273
v -0.170 0.046 0.071
v -0.044 0.046 -0.273
v -0.143 0.046 0.273
v -0.291 0.046 0.273
v -0.174 0.046 0.071
v -0.174 0.046 -0.273
v -0.291 0.046 -0.273
v -0.174 0.000 -0.273
v -0.291 0.000 -0.273
v -0.291 -0.000 0.273
v -0.174 -0.000 0.071
v -0.170 -0.000 0.071
v -0.143 -0.000 0.273
v -0.000 0.000 -0.113
v 0.043 0.000 -0.273
v -0.044 0.000 -0.273
v 0.170 -0.000 0.071
v 0.143 -0.000 0.273
v 0.291 -0.000 0.273
v 0.174 -0.000 0.071
v 0.291 0.000 -0.273
v 0.174 0.000 -0.273
v -0.291 -0.000 0.273
v -0.291 0.000 -0.273
v -0.291 0.046 -0.273
v -0.291 0.046 0.273
v -0.143 -0.000 0.273
v -0.291 -0.000 0.273
v -0.291 0.046 0.273
v -0.143 0.046 0.273
v -0.000 0.000 -0.113
v -0.143 -0.000 0.273
v -0.143 0.046 0.273
v -0.000 0.046 -0.113
v 0.143 -0.000 0.273
v -0.000 0.000 -0.113
v -0.000 0.046 -0.113
v 0.143 0.046 0.273
v 0.291 -0.000 0.273
v 0.143 -0.000 0.273
v 0.143 0.046 0.273
v 0.291 0.046 0.273
v 0.291 0.000 -0.273
v 0.291 -0.000 0.273
v 0.291 0.046 0.273
v 0.291 0.046 -0.273
v 0.174 0.000 -0.273
v 0.291 0.000 -0.273
v 0.291 0.046 -0.273
v 0.174 0.046 -0.273
v 0.174 -0.000 0.071
v 0.174 0.000 -0.273
v 0.174 0.046 -0.273
v 0.174 0.046 0.071
v 0.170 -0.000 0.071
v 0.174 -0.000 0.071
v 0.174 0.046 0.071
v 0.170 0.046 0.071
v 0.043 0.000 -0.273
v 0.170 -0.000 0.071
v 0.170 0.046 0.071
v 0.043 0.046 -0.273
v -0.044 0.000 -0.273
v 0.043 0.000 -0.273
v 0.043 0.046 -0.273
v -0.044 0.046 -0.273
v -0.170 -0.000 0.071
v -0.044 0.000 -0.273
v -0.044 0.046 -0.273
v -0.170 0.046 0.071
v -0.174 -0.000 0.071
v -0.170 -0.000 0.071
v -0.170 0.046 0.071
v -0.174 0.046 0.071
v -0.174 0.000 -0.273
v -0.174 -0.000 0.071
v -0.174 0.046 0.071
v -0.174 0.046 -0.273
v -0.291 0.000 -0.273
v -0.174 0.000 -0.273
v -0.174 0.046 -0.273
v -0.291 0.046 -0.273

# Normal Array
vn 0.000 1.000 0.000
vn 0.000 1.000 0.000
vn 0.000 1.000 0.000
vn 0.000 1.000 0.000
vn 0.000 1.000 0.000
vn 0.000 1.000 0.000
vn -0.000 1.000 0.000
vn -0.000 1.000 0.000
vn -0.000 1.000 0.000
vn 0.000 1.000 0.000
vn 0.000 1.000 0.000
vn 0.000 1.000 0.000
vn 0.000 1.000 0.000
vn 0.000 -1.000 -0.000
vn -0.000 -1.000 -0.000
vn 0.000 -1.000 0.000
vn -0.000 -1.000 -0.000
vn -0.000 -1.000 -0.000
vn 0.000 -1.000 -0.000
vn -0.000 -1.000 -0.000
vn -0.000 -1.000 -0.000
vn -0.000 -1.000 -0.000
vn -0.000 -1.000 -0.000
vn 0.000 -1.000 -0.000
vn -0.000 -1.000 -0.000
vn 0.000 -1.000 -0.000
vn -1.000 0.000 -0.000
vn -1.000 0.000 -0.000
vn -0.000 -0.000 1.000
vn -0.000 -0.000 1.000
vn 0.938 0.000 0.346
vn 0.938 -0.000 0.346
vn -0.938 0.000 0.348
vn -0.938 -0.000 0.348
vn -0.000 -0.000 1.000
vn -0.000 0.000 1.000
vn 1.000 -0.000 0.000
vn 1.000 -0.000 0.000
vn 0.000 0.000 -1.000
vn 0.000 0.000 -1.000
vn -1.000 -0.000 -0.000
vn -1.000 0.000 -0.000
vn -0.000 0.000 -1.000
vn 0.000 0.000 -1.000
vn 0.939 0.000 -0.345
vn 0.939 0.000 -0.345
vn 0.000 0.000 -1.000
vn 0.000 0.000 -1.000
vn -0.939 0.000 -0.343
vn -0.939 -0.000 -0.343
vn 0.000 0.000 -1.000
vn 0.000 -0.000 -1.000
vn 1.000 0.000 0.000
vn 1.000 0.000 0.000
vn 0.000 0.000 -1.000
vn 0.000 0.000 -1.000

# Facets
f 1//1 3//1 2//1
f 3//2 1//2 4//2
f 4//3 1//3 5//3
f 6//4 5//4 1//4
f 6//5 7//5 5//5
f 7//6 6//6 8//6
f 8//7 9//7 7//7
f 9//8 8//8 10//8
f 7//9 9//9 11//9
f 11//10 9//10 12//10
f 13//11 12//11 9//11
f 14//12 12//12 13//12
f 12//13 14//13 15//13
f 16//14 18//14 17//14
f 18//15 16//15 19//15
f 18//16 19//16 20//16
f 20//17 21//17 18//17
f 20//18 22//18 21//18
f 20//19 23//19 22//19
f 23//20 20//20 24//20
f 25//21 22//21 23//21
f 22//22 25//22 26//22
f 25//23 27//23 26//23
f 28//24 27//24 25//24
f 28//25 29//25 27//25
f 29//26 28//26 30//26
f 31//27 33//27 32//27
f 34//28 33//28 31//28
f 35//29 37//29 36//29
f 38//30 37//30 35//30
f 39//31 41//31 40//31
f 42//32 41//32 39//32
f 43//33 45//33 44//33
f 46//34 45//34 43//34
f 47//35 49//35 48//35
f 50//36 49//36 47//36
f 51//37 53//37 52//37
f 54//38 53//38 51//38
f 55//39 57//39 56//39
f 58//40 57//40 55//40
f 59//41 61//41 60//41
f 62//42 61//42 59//42
f 63//43 65//43 64//43
f 66//44 65//44 63//44
f 67//45 69//45 68//45
f 70//46 69//46 67//46
f 71//47 73//47 72//47
f 74//48 73//48 71//48
f 75//49 77//49 76//49
f 78//50 77//50 75//50
f 79//51 81//51 80//51
f 82//52 81//52 79//52
f 83//53 85//53 84//53
f 86//54 85//54 83//54
f 87//55 89//55 88//55
f 90//56 89//56 87//56

# Thank you for using Spin 3D

