# Created using Spin 3D

# Vertex Array 
v -0.073 0.046 -0.272
v 0.000 0.046 -0.280
v 0.073 0.046 -0.272
v -0.137 0.046 -0.245
v 0.137 0.046 -0.245
v -0.189 0.046 -0.203
v 0.189 0.046 -0.203
v 0.000 0.046 -0.180
v 0.228 0.046 -0.146
v -0.059 0.046 -0.168
v 0.059 0.046 -0.168
v -0.228 0.046 -0.146
v 0.103 0.046 -0.131
v -0.103 0.046 -0.131
v 0.252 0.046 -0.078
v -0.252 0.046 -0.078
v 0.131 0.046 -0.074
v -0.131 0.046 -0.074
v -0.261 0.046 0.000
v -0.140 0.046 0.000
v 0.261 0.046 0.000
v 0.140 0.046 0.000
v 0.131 0.046 0.074
v 0.252 0.046 0.079
v 0.103 0.046 0.131
v 0.228 0.046 0.147
v 0.059 0.046 0.168
v -0.252 0.046 0.079
v -0.131 0.046 0.074
v -0.103 0.046 0.131
v -0.228 0.046 0.147
v -0.059 0.046 0.168
v 0.189 0.046 0.203
v -0.189 0.046 0.203
v -0.000 0.046 0.180
v -0.137 0.046 0.245
v 0.137 0.046 0.245
v -0.073 0.046 0.272
v 0.073 0.046 0.272
v -0.000 0.046 0.280
v 0.073 0.000 -0.272
v 0.000 0.000 -0.280
v -0.073 0.000 -0.272
v -0.137 0.000 -0.245
v 0.137 0.000 -0.245
v -0.189 0.000 -0.203
v 0.189 0.000 -0.203
v 0.000 0.000 -0.180
v 0.228 0.000 -0.146
v -0.059 0.000 -0.168
v 0.059 0.000 -0.168
v -0.228 0.000 -0.146
v 0.103 0.000 -0.131
v -0.103 0.000 -0.131
v 0.252 0.000 -0.078
v -0.252 0.000 -0.078
v 0.131 -0.000 -0.074
v -0.131 0.000 -0.074
v -0.261 0.000 0.000
v -0.140 0.000 0.000
v 0.261 -0.000 0.000
v 0.140 -0.000 0.000
v 0.131 -0.000 0.074
v 0.252 -0.000 0.079
v 0.103 -0.000 0.131
v 0.228 -0.000 0.147
v 0.059 -0.000 0.168
v -0.252 -0.000 0.079
v -0.131 0.000 0.074
v -0.103 -0.000 0.131
v -0.228 -0.000 0.147
v -0.059 -0.000 0.168
v 0.189 -0.000 0.203
v -0.189 -0.000 0.203
v -0.000 -0.000 0.180
v -0.137 -0.000 0.245
v 0.137 -0.000 0.245
v -0.073 -0.000 0.272
v 0.073 -0.000 0.272
v -0.000 -0.000 0.280
v -0.073 0.000 -0.272
v 0.000 0.000 -0.280
v 0.000 0.046 -0.280
v -0.073 0.046 -0.272
v -0.137 0.000 -0.245
v -0.137 0.046 -0.245
v -0.189 0.000 -0.203
v -0.189 0.046 -0.203
v -0.228 0.000 -0.146
v -0.228 0.046 -0.146
v -0.252 0.000 -0.078
v -0.252 0.046 -0.078
v -0.261 0.000 0.000
v -0.261 0.046 0.000
v -0.252 -0.000 0.079
v -0.252 0.046 0.079
v -0.228 -0.000 0.147
v -0.228 0.046 0.147
v -0.189 -0.000 0.203
v -0.189 0.046 0.203
v -0.137 -0.000 0.245
v -0.137 0.046 0.245
v -0.073 -0.000 0.272
v -0.073 0.046 0.272
v -0.000 -0.000 0.280
v -0.000 0.046 0.280
v 0.073 -0.000 0.272
v 0.073 0.046 0.272
v 0.137 -0.000 0.245
v 0.137 0.046 0.245
v 0.189 -0.000 0.203
v 0.189 0.046 0.203
v 0.228 -0.000 0.147
v 0.228 0.046 0.147
v 0.252 -0.000 0.079
v 0.252 0.046 0.079
v 0.261 -0.000 0.000
v 0.261 0.046 0.000
v 0.252 0.000 -0.078
v 0.252 0.046 -0.078
v 0.228 0.000 -0.146
v 0.228 0.046 -0.146
v 0.189 0.000 -0.203
v 0.189 0.046 -0.203
v 0.137 0.000 -0.245
v 0.137 0.046 -0.245
v 0.073 0.000 -0.272
v 0.073 0.046 -0.272
v 0.000 0.000 -0.280
v 0.000 0.046 -0.280
v 0.059 0.000 -0.168
v 0.000 0.000 -0.180
v 0.000 0.046 -0.180
v 0.059 0.046 -0.168
v 0.103 0.000 -0.131
v 0.103 0.046 -0.131
v 0.131 -0.000 -0.074
v 0.131 0.046 -0.074
v 0.140 -0.000 0.000
v 0.140 0.046 0.000
v 0.131 -0.000 0.074
v 0.131 0.046 0.074
v 0.103 -0.000 0.131
v 0.103 0.046 0.131
v 0.059 -0.000 0.168
v 0.059 0.046 0.168
v -0.000 -0.000 0.180
v -0.000 0.046 0.180
v -0.059 -0.000 0.168
v -0.059 0.046 0.168
v -0.103 -0.000 0.131
v -0.103 0.046 0.131
v -0.131 0.000 0.074
v -0.131 0.046 0.074
v -0.140 0.000 0.000
v -0.140 0.046 0.000
v -0.131 0.000 -0.074
v -0.131 0.046 -0.074
v -0.103 0.000 -0.131
v -0.103 0.046 -0.131
v -0.059 0.000 -0.168
v -0.059 0.046 -0.168
v 0.000 0.000 -0.180
v 0.000 0.046 -0.180

# Normal Array
vn -0.000 1.000 0.000
vn -0.000 1.000 -0.000
vn 0.000 1.000 0.000
vn 0.000 1.000 -0.000
vn 0.000 1.000 -0.000
vn 0.000 1.000 0.000
vn 0.000 1.000 0.000
vn 0.000 1.000 0.000
vn 0.000 1.000 -0.000
vn 0.000 1.000 0.000
vn 0.000 1.000 0.000
vn 0.000 1.000 0.000
vn 0.000 1.000 0.000
vn 0.000 1.000 0.000
vn 0.000 1.000 0.000
vn 0.000 1.000 0.000
vn 0.000 1.000 -0.000
vn 0.000 1.000 0.000
vn 0.000 1.000 0.000
vn 0.000 1.000 0.000
vn 0.000 1.000 0.000
vn 0.000 1.000 0.000
vn 0.000 1.000 0.000
vn -0.000 1.000 0.000
vn -0.000 1.000 0.000
vn 0.000 1.000 0.000
vn 0.000 1.000 -0.000
vn 0.000 1.000 0.000
vn 0.000 1.000 0.000
vn 0.000 1.000 0.000
vn -0.000 1.000 -0.000
vn 0.000 1.000 0.000
vn 0.000 1.000 -0.000
vn 0.000 1.000 -0.000
vn 0.000 1.000 -0.000
vn 0.000 1.000 0.000
vn -0.000 1.000 -0.000
vn -0.000 1.000 0.000
vn 0.000 1.000 0.000
vn 0.000 1.000 -0.000
vn -0.000 -1.000 0.000
vn -0.000 -1.000 0.000
vn -0.000 -1.000 -0.000
vn -0.000 -1.000 0.000
vn -0.000 -1.000 -0.000
vn -0.000 -1.000 -0.000
vn -0.000 -1.000 -0.000
vn -0.000 -1.000 -0.000
vn -0.000 -1.000 -0.000
vn -0.000 -1.000 -0.000
vn -0.000 -1.000 -0.000
vn -0.000 -1.000 0.000
vn 0.000 -1.000 0.000
vn 0.000 -1.000 -0.000
vn 0.000 -1.000 -0.000
vn -0.000 -1.000 -0.000
vn -0.000 -1.000 0.000
vn -0.000 -1.000 -0.000
vn 0.000 -1.000 -0.000
vn -0.000 -1.000 -0.000
vn -0.000 -1.000 -0.000
vn -0.000 -1.000 -0.000
vn -0.000 -1.000 -0.000
vn 0.000 -1.000 0.000
vn 0.000 -1.000 -0.000
vn -0.000 -1.000 -0.000
vn 0.000 -1.000 -0.000
vn 0.000 -1.000 -0.000
vn -0.000 -1.000 0.000
vn -0.000 -1.000 -0.000
vn 0.000 -1.000 -0.000
vn -0.000 -1.000 0.000
vn -0.000 -1.000 0.000
vn -0.000 -1.000 0.000
vn -0.000 -1.000 0.000
vn -0.000 -1.000 -0.000
vn 0.000 -1.000 0.000
vn 0.000 -1.000 0.000
vn -0.000 -1.000 -0.000
vn -0.000 -1.000 0.000
vn -0.119 0.000 -0.993
vn -0.119 0.000 -0.993
vn -0.382 0.000 -0.924
vn -0.382 -0.000 -0.924
vn -0.629 -0.000 -0.777
vn -0.629 0.000 -0.777
vn -0.824 -0.000 -0.566
vn -0.824 -0.000 -0.566
vn -0.943 -0.000 -0.333
vn -0.943 -0.000 -0.333
vn -0.995 -0.000 -0.103
vn -0.995 0.000 -0.103
vn -0.995 0.000 0.103
vn -0.995 0.000 0.103
vn -0.942 0.000 0.335
vn -0.942 0.000 0.335
vn -0.821 0.000 0.570
vn -0.821 -0.000 0.570
vn -0.628 -0.000 0.779
vn -0.628 -0.000 0.779
vn -0.382 -0.000 0.924
vn -0.382 0.000 0.924
vn -0.119 0.000 0.993
vn -0.119 0.000 0.993
vn 0.119 0.000 0.993
vn 0.119 -0.000 0.993
vn 0.382 -0.000 0.924
vn 0.382 0.000 0.924
vn 0.628 0.000 0.779
vn 0.628 -0.000 0.779
vn 0.821 0.000 0.570
vn 0.821 0.000 0.570
vn 0.942 0.000 0.335
vn 0.942 -0.000 0.335
vn 0.995 -0.000 0.103
vn 0.995 -0.000 0.103
vn 0.995 -0.000 -0.103
vn 0.995 0.000 -0.103
vn 0.943 0.000 -0.333
vn 0.943 0.000 -0.333
vn 0.824 0.000 -0.566
vn 0.824 0.000 -0.566
vn 0.629 0.000 -0.777
vn 0.629 0.000 -0.777
vn 0.382 0.000 -0.924
vn 0.382 -0.000 -0.924
vn 0.119 -0.000 -0.993
vn 0.119 0.000 -0.993
vn -0.202 0.000 0.979
vn -0.202 0.000 0.979
vn -0.636 0.000 0.772
vn -0.636 0.000 0.772
vn -0.900 0.000 0.437
vn -0.900 -0.000 0.437
vn -0.992 -0.000 0.124
vn -0.992 -0.000 0.124
vn -0.992 -0.000 -0.124
vn -0.992 -0.000 -0.124
vn -0.899 -0.000 -0.439
vn -0.899 0.000 -0.439
vn -0.633 0.000 -0.774
vn -0.633 0.000 -0.774
vn -0.201 0.000 -0.980
vn -0.201 0.000 -0.980
vn 0.201 -0.000 -0.980
vn 0.201 0.000 -0.980
vn 0.633 0.000 -0.774
vn 0.633 0.000 -0.774
vn 0.899 -0.000 -0.439
vn 0.899 0.000 -0.439
vn 0.992 0.000 -0.124
vn 0.992 0.000 -0.124
vn 0.992 -0.000 0.124
vn 0.992 -0.000 0.124
vn 0.900 -0.000 0.437
vn 0.900 -0.000 0.437
vn 0.636 -0.000 0.772
vn 0.636 0.000 0.772
vn 0.202 0.000 0.979
vn 0.202 -0.000 0.979

# Facets
f 1//1 3//1 2//1
f 3//2 1//2 4//2
f 3//3 4//3 5//3
f 5//4 4//4 6//4
f 5//5 6//5 7//5
f 7//6 6//6 8//6
f 8//7 9//7 7//7
f 8//8 6//8 10//8
f 9//9 8//9 11//9
f 12//10 10//10 6//10
f 9//11 11//11 13//11
f 10//12 12//12 14//12
f 9//13 13//13 15//13
f 14//14 12//14 16//14
f 15//15 13//15 17//15
f 14//16 16//16 18//16
f 18//17 16//17 19//17
f 18//18 19//18 20//18
f 15//19 17//19 21//19
f 21//20 17//20 22//20
f 21//21 22//21 23//21
f 21//22 23//22 24//22
f 24//23 23//23 25//23
f 24//24 25//24 26//24
f 26//25 25//25 27//25
f 20//26 19//26 28//26
f 20//27 28//27 29//27
f 29//28 28//28 30//28
f 30//29 28//29 31//29
f 30//30 31//30 32//30
f 26//31 27//31 33//31
f 32//32 31//32 34//32
f 32//33 34//33 35//33
f 33//34 27//34 35//34
f 33//35 35//35 34//35
f 33//36 34//36 36//36
f 33//37 36//37 37//37
f 37//38 36//38 38//38
f 37//39 38//39 39//39
f 39//40 38//40 40//40
f 41//41 43//41 42//41
f 43//42 41//42 44//42
f 44//43 41//43 45//43
f 44//44 45//44 46//44
f 46//45 45//45 47//45
f 46//46 47//46 48//46
f 49//47 48//47 47//47
f 46//48 48//48 50//48
f 48//49 49//49 51//49
f 50//50 52//50 46//50
f 51//51 49//51 53//51
f 52//52 50//52 54//52
f 53//53 49//53 55//53
f 52//54 54//54 56//54
f 53//55 55//55 57//55
f 56//56 54//56 58//56
f 58//57 59//57 56//57
f 59//58 58//58 60//58
f 57//59 55//59 61//59
f 57//60 61//60 62//60
f 62//61 61//61 63//61
f 63//62 61//62 64//62
f 63//63 64//63 65//63
f 65//64 64//64 66//64
f 65//65 66//65 67//65
f 59//66 60//66 68//66
f 68//67 60//67 69//67
f 68//68 69//68 70//68
f 68//69 70//69 71//69
f 71//70 70//70 72//70
f 67//71 66//71 73//71
f 71//72 72//72 74//72
f 74//73 72//73 75//73
f 67//74 73//74 75//74
f 75//75 73//75 74//75
f 74//76 73//76 76//76
f 76//77 73//77 77//77
f 76//78 77//78 78//78
f 78//79 77//79 79//79
f 78//80 79//80 80//80
f 81//81 83//81 82//81
f 84//82 83//82 81//82
f 85//83 84//83 81//83
f 86//84 84//84 85//84
f 87//85 86//85 85//85
f 88//86 86//86 87//86
f 89//87 88//87 87//87
f 90//88 88//88 89//88
f 91//89 90//89 89//89
f 92//90 90//90 91//90
f 93//91 92//91 91//91
f 94//92 92//92 93//92
f 95//93 94//93 93//93
f 96//94 94//94 95//94
f 97//95 96//95 95//95
f 98//96 96//96 97//96
f 99//97 98//97 97//97
f 100//98 98//98 99//98
f 101//99 100//99 99//99
f 102//100 100//100 101//100
f 103//101 102//101 101//101
f 104//102 102//102 103//102
f 105//103 104//103 103//103
f 106//104 104//104 105//104
f 107//105 106//105 105//105
f 108//106 106//106 107//106
f 109//107 108//107 107//107
f 110//108 108//108 109//108
f 111//109 110//109 109//109
f 112//110 110//110 111//110
f 113//111 112//111 111//111
f 114//112 112//112 113//112
f 115//113 114//113 113//113
f 116//114 114//114 115//114
f 117//115 116//115 115//115
f 118//116 116//116 117//116
f 119//117 118//117 117//117
f 120//118 118//118 119//118
f 121//119 120//119 119//119
f 122//120 120//120 121//120
f 123//121 122//121 121//121
f 124//122 122//122 123//122
f 125//123 124//123 123//123
f 126//124 124//124 125//124
f 127//125 126//125 125//125
f 128//126 126//126 127//126
f 129//127 128//127 127//127
f 130//128 128//128 129//128
f 131//129 133//129 132//129
f 134//130 133//130 131//130
f 135//131 134//131 131//131
f 136//132 134//132 135//132
f 137//133 136//133 135//133
f 138//134 136//134 137//134
f 139//135 138//135 137//135
f 140//136 138//136 139//136
f 141//137 140//137 139//137
f 142//138 140//138 141//138
f 143//139 142//139 141//139
f 144//140 142//140 143//140
f 145//141 144//141 143//141
f 146//142 144//142 145//142
f 147//143 146//143 145//143
f 148//144 146//144 147//144
f 149//145 148//145 147//145
f 150//146 148//146 149//146
f 151//147 150//147 149//147
f 152//148 150//148 151//148
f 153//149 152//149 151//149
f 154//150 152//150 153//150
f 155//151 154//151 153//151
f 156//152 154//152 155//152
f 157//153 156//153 155//153
f 158//154 156//154 157//154
f 159//155 158//155 157//155
f 160//156 158//156 159//156
f 161//157 160//157 159//157
f 162//158 160//158 161//158
f 163//159 162//159 161//159
f 164//160 162//160 163//160

# Thank you for using Spin 3D

