# Created using Spin 3D

# Vertex Array 
v 0.084 0.046 0.144
v 0.090 0.046 0.113
v 0.210 0.046 0.113
v 0.196 0.046 0.184
v 0.066 0.046 0.166
v 0.036 0.046 0.179
v -0.002 0.046 0.184
v -0.196 0.046 0.190
v -0.040 0.046 0.179
v -0.067 0.046 0.165
v 0.152 0.046 0.237
v -0.082 0.046 0.144
v -0.154 0.046 0.240
v 0.084 0.046 0.270
v -0.088 0.046 0.270
v -0.004 0.046 0.280
v -0.210 0.046 0.123
v -0.088 0.046 0.118
v -0.084 0.046 0.098
v -0.073 0.046 0.080
v -0.054 0.046 0.067
v -0.200 0.046 0.062
v -0.025 0.046 0.058
v 0.048 0.046 0.044
v 0.129 0.046 0.021
v -0.168 0.046 0.018
v 0.184 0.046 -0.011
v -0.117 0.046 -0.012
v -0.052 0.046 -0.032
v 0.027 0.046 -0.047
v 0.215 0.046 -0.055
v 0.060 0.046 -0.056
v 0.083 0.046 -0.070
v 0.096 0.046 -0.088
v 0.225 0.046 -0.112
v 0.101 0.046 -0.113
v 0.095 0.046 -0.143
v 0.076 0.046 -0.165
v 0.046 0.046 -0.179
v 0.210 0.046 -0.186
v 0.004 0.046 -0.184
v -0.164 0.046 -0.232
v 0.164 0.046 -0.238
v -0.091 0.046 -0.268
v 0.093 0.046 -0.270
v 0.004 0.046 -0.280
v -0.210 0.046 -0.173
v -0.042 0.046 -0.177
v -0.076 0.046 -0.159
v -0.225 0.046 -0.094
v -0.096 0.046 -0.130
v -0.104 0.046 -0.094
v 0.093 0.000 -0.270
v 0.004 0.000 -0.280
v -0.091 0.000 -0.268
v 0.164 0.000 -0.238
v -0.164 0.000 -0.232
v 0.210 0.000 -0.186
v 0.004 0.000 -0.184
v -0.210 0.000 -0.173
v 0.046 0.000 -0.179
v -0.042 0.000 -0.177
v -0.076 0.000 -0.159
v -0.225 0.000 -0.094
v -0.096 0.000 -0.130
v -0.104 0.000 -0.094
v 0.225 0.000 -0.112
v 0.076 0.000 -0.165
v 0.095 0.000 -0.143
v 0.101 0.000 -0.113
v 0.096 -0.000 -0.088
v 0.215 -0.000 -0.055
v 0.083 0.000 -0.070
v 0.060 -0.000 -0.056
v 0.027 0.000 -0.047
v 0.184 -0.000 -0.011
v -0.052 0.000 -0.032
v -0.117 0.000 -0.012
v -0.168 0.000 0.018
v 0.129 -0.000 0.021
v -0.200 0.000 0.062
v 0.048 -0.000 0.044
v -0.025 -0.000 0.058
v -0.054 -0.000 0.067
v -0.210 -0.000 0.123
v -0.073 -0.000 0.080
v -0.084 -0.000 0.098
v -0.088 -0.000 0.118
v -0.082 -0.000 0.144
v -0.196 -0.000 0.190
v -0.067 -0.000 0.165
v -0.040 -0.000 0.179
v -0.002 -0.000 0.184
v 0.196 -0.000 0.184
v 0.036 -0.000 0.179
v 0.066 -0.000 0.166
v 0.084 -0.000 0.144
v 0.210 -0.000 0.113
v 0.090 -0.000 0.113
v 0.152 -0.000 0.237
v -0.154 -0.000 0.240
v 0.084 -0.000 0.270
v -0.088 -0.000 0.270
v -0.004 -0.000 0.280
v -0.091 0.000 -0.268
v 0.004 0.000 -0.280
v 0.004 0.046 -0.280
v -0.091 0.046 -0.268
v -0.164 0.000 -0.232
v -0.164 0.046 -0.232
v -0.210 0.000 -0.173
v -0.210 0.046 -0.173
v -0.225 0.000 -0.094
v -0.225 0.046 -0.094
v -0.104 0.000 -0.094
v -0.225 0.000 -0.094
v -0.225 0.046 -0.094
v -0.104 0.046 -0.094
v -0.096 0.000 -0.130
v -0.104 0.000 -0.094
v -0.104 0.046 -0.094
v -0.096 0.046 -0.130
v -0.076 0.000 -0.159
v -0.076 0.046 -0.159
v -0.042 0.000 -0.177
v -0.042 0.046 -0.177
v 0.004 0.000 -0.184
v 0.004 0.046 -0.184
v 0.046 0.000 -0.179
v 0.046 0.046 -0.179
v 0.076 0.000 -0.165
v 0.076 0.046 -0.165
v 0.095 0.000 -0.143
v 0.095 0.046 -0.143
v 0.101 0.000 -0.113
v 0.101 0.046 -0.113
v 0.096 -0.000 -0.088
v 0.096 0.046 -0.088
v 0.083 0.000 -0.070
v 0.083 0.046 -0.070
v 0.060 -0.000 -0.056
v 0.060 0.046 -0.056
v 0.027 0.000 -0.047
v 0.027 0.046 -0.047
v -0.052 0.000 -0.032
v -0.052 0.046 -0.032
v -0.117 0.000 -0.012
v -0.117 0.046 -0.012
v -0.168 0.000 0.018
v -0.168 0.046 0.018
v -0.200 0.000 0.062
v -0.200 0.046 0.062
v -0.210 -0.000 0.123
v -0.210 0.046 0.123
v -0.196 -0.000 0.190
v -0.196 0.046 0.190
v -0.154 -0.000 0.240
v -0.154 0.046 0.240
v -0.088 -0.000 0.270
v -0.088 0.046 0.270
v -0.004 -0.000 0.280
v -0.004 0.046 0.280
v 0.084 -0.000 0.270
v 0.084 0.046 0.270
v 0.152 -0.000 0.237
v 0.152 0.046 0.237
v 0.196 -0.000 0.184
v 0.196 0.046 0.184
v 0.210 -0.000 0.113
v 0.210 0.046 0.113
v 0.090 -0.000 0.113
v 0.210 -0.000 0.113
v 0.210 0.046 0.113
v 0.090 0.046 0.113
v 0.084 -0.000 0.144
v 0.090 -0.000 0.113
v 0.090 0.046 0.113
v 0.084 0.046 0.144
v 0.066 -0.000 0.166
v 0.066 0.046 0.166
v 0.036 -0.000 0.179
v 0.036 0.046 0.179
v -0.002 -0.000 0.184
v -0.002 0.046 0.184
v -0.040 -0.000 0.179
v -0.040 0.046 0.179
v -0.067 -0.000 0.165
v -0.067 0.046 0.165
v -0.082 -0.000 0.144
v -0.082 0.046 0.144
v -0.088 -0.000 0.118
v -0.088 0.046 0.118
v -0.084 -0.000 0.098
v -0.084 0.046 0.098
v -0.073 -0.000 0.080
v -0.073 0.046 0.080
v -0.054 -0.000 0.067
v -0.054 0.046 0.067
v -0.025 -0.000 0.058
v -0.025 0.046 0.058
v 0.048 -0.000 0.044
v 0.048 0.046 0.044
v 0.129 -0.000 0.021
v 0.129 0.046 0.021
v 0.184 -0.000 -0.011
v 0.184 0.046 -0.011
v 0.215 -0.000 -0.055
v 0.215 0.046 -0.055
v 0.225 0.000 -0.112
v 0.225 0.046 -0.112
v 0.210 0.000 -0.186
v 0.210 0.046 -0.186
v 0.164 0.000 -0.238
v 0.164 0.046 -0.238
v 0.093 0.000 -0.270
v 0.093 0.046 -0.270
v 0.004 0.000 -0.280
v 0.004 0.046 -0.280

# Normal Array
vn 0.000 1.000 0.000
vn 0.000 1.000 0.000
vn -0.000 1.000 0.000
vn 0.000 1.000 -0.000
vn -0.000 1.000 0.000
vn 0.000 1.000 -0.000
vn 0.000 1.000 0.000
vn 0.000 1.000 -0.000
vn 0.000 1.000 0.000
vn 0.000 1.000 0.000
vn 0.000 1.000 0.000
vn 0.000 1.000 -0.000
vn -0.000 1.000 0.000
vn -0.000 1.000 0.000
vn 0.000 1.000 -0.000
vn 0.000 1.000 0.000
vn 0.000 1.000 0.000
vn 0.000 1.000 0.000
vn -0.000 1.000 -0.000
vn 0.000 1.000 0.000
vn 0.000 1.000 0.000
vn 0.000 1.000 0.000
vn 0.000 1.000 0.000
vn 0.000 1.000 -0.000
vn 0.000 1.000 -0.000
vn 0.000 1.000 0.000
vn 0.000 1.000 0.000
vn 0.000 1.000 -0.000
vn 0.000 1.000 -0.000
vn 0.000 1.000 -0.000
vn 0.000 1.000 0.000
vn 0.000 1.000 -0.000
vn -0.000 1.000 0.000
vn -0.000 1.000 0.000
vn -0.000 1.000 0.000
vn 0.000 1.000 -0.000
vn -0.000 1.000 0.000
vn 0.000 1.000 -0.000
vn 0.000 1.000 0.000
vn 0.000 1.000 -0.000
vn 0.000 1.000 0.000
vn 0.000 1.000 0.000
vn 0.000 1.000 0.000
vn 0.000 1.000 0.000
vn 0.000 1.000 0.000
vn 0.000 1.000 0.000
vn 0.000 1.000 0.000
vn 0.000 1.000 -0.000
vn 0.000 1.000 0.000
vn 0.000 1.000 -0.000
vn -0.000 -1.000 0.000
vn -0.000 -1.000 0.000
vn -0.000 -1.000 -0.000
vn -0.000 -1.000 -0.000
vn -0.000 -1.000 -0.000
vn -0.000 -1.000 -0.000
vn -0.000 -1.000 0.000
vn -0.000 -1.000 -0.000
vn -0.000 -1.000 -0.000
vn -0.000 -1.000 -0.000
vn -0.000 -1.000 -0.000
vn -0.000 -1.000 0.000
vn -0.000 -1.000 -0.000
vn 0.000 -1.000 -0.000
vn 0.000 -1.000 -0.000
vn -0.000 -1.000 0.000
vn -0.000 -1.000 -0.000
vn -0.000 -1.000 -0.000
vn -0.000 -1.000 0.000
vn -0.000 -1.000 -0.000
vn -0.000 -1.000 0.000
vn -0.000 -1.000 0.000
vn -0.000 -1.000 0.000
vn -0.000 -1.000 -0.000
vn -0.000 -1.000 -0.000
vn -0.000 -1.000 0.000
vn -0.000 -1.000 -0.000
vn -0.000 -1.000 0.000
vn -0.000 -1.000 -0.000
vn -0.000 -1.000 -0.000
vn -0.000 -1.000 -0.000
vn 0.000 -1.000 0.000
vn -0.000 -1.000 -0.000
vn 0.000 -1.000 0.000
vn -0.000 -1.000 -0.000
vn -0.000 -1.000 0.000
vn 0.000 -1.000 0.000
vn -0.000 -1.000 -0.000
vn -0.000 -1.000 -0.000
vn 0.000 -1.000 0.000
vn 0.000 -1.000 -0.000
vn -0.000 -1.000 0.000
vn 0.000 -1.000 -0.000
vn -0.000 -1.000 0.000
vn 0.000 -1.000 0.000
vn -0.000 -1.000 -0.000
vn -0.000 -1.000 0.000
vn -0.000 -1.000 -0.000
vn -0.000 -1.000 -0.000
vn -0.000 -1.000 -0.000
vn -0.127 0.000 -0.992
vn -0.127 -0.000 -0.992
vn -0.451 -0.000 -0.893
vn -0.451 0.000 -0.893
vn -0.788 0.000 -0.616
vn -0.788 0.000 -0.616
vn -0.982 0.000 -0.191
vn -0.982 -0.000 -0.191
vn -0.000 -0.000 1.000
vn -0.000 -0.000 1.000
vn 0.977 -0.000 0.214
vn 0.977 -0.000 0.214
vn 0.812 -0.000 0.583
vn 0.812 0.000 0.583
vn 0.488 0.000 0.873
vn 0.488 -0.000 0.873
vn 0.133 -0.000 0.991
vn 0.133 -0.000 0.991
vn -0.113 0.000 0.994
vn -0.113 0.000 0.994
vn -0.419 0.000 0.908
vn -0.419 -0.000 0.908
vn -0.768 -0.000 0.641
vn -0.768 0.000 0.641
vn -0.979 0.000 0.205
vn -0.979 0.000 0.205
vn -0.983 0.000 -0.185
vn -0.983 0.000 -0.185
vn -0.803 0.000 -0.596
vn -0.803 0.000 -0.596
vn -0.503 0.000 -0.864
vn -0.503 0.000 -0.864
vn -0.270 0.000 -0.963
vn -0.270 0.000 -0.963
vn -0.185 0.000 -0.983
vn -0.185 0.000 -0.983
vn -0.293 0.000 -0.956
vn -0.293 0.000 -0.956
vn -0.521 0.000 -0.854
vn -0.521 0.000 -0.854
vn -0.810 -0.000 -0.586
vn -0.810 -0.000 -0.586
vn -0.985 -0.000 -0.173
vn -0.985 -0.000 -0.173
vn -0.979 -0.000 0.204
vn -0.979 -0.000 0.204
vn -0.762 -0.000 0.648
vn -0.762 -0.000 0.648
vn -0.420 -0.000 0.907
vn -0.420 0.000 0.907
vn -0.119 0.000 0.993
vn -0.119 0.000 0.993
vn 0.123 0.000 0.992
vn 0.123 0.000 0.992
vn 0.431 0.000 0.903
vn 0.431 0.000 0.903
vn 0.769 0.000 0.639
vn 0.769 -0.000 0.639
vn 0.980 -0.000 0.200
vn 0.980 0.000 0.200
vn 0.000 0.000 -1.000
vn 0.000 0.000 -1.000
vn -0.983 0.000 -0.184
vn -0.983 -0.000 -0.184
vn -0.763 0.000 -0.646
vn -0.763 0.000 -0.646
vn -0.415 0.000 -0.910
vn -0.415 0.000 -0.910
vn -0.117 0.000 -0.993
vn -0.117 0.000 -0.993
vn 0.122 0.000 -0.993
vn 0.122 0.000 -0.993
vn 0.465 0.000 -0.885
vn 0.465 -0.000 -0.885
vn 0.800 -0.000 -0.600
vn 0.800 0.000 -0.600
vn 0.980 -0.000 -0.200
vn 0.980 0.000 -0.200
vn 0.985 -0.000 0.174
vn 0.985 -0.000 0.174
vn 0.850 -0.000 0.527
vn 0.850 -0.000 0.527
vn 0.577 -0.000 0.817
vn 0.577 -0.000 0.817
vn 0.289 -0.000 0.957
vn 0.289 0.000 0.957
vn 0.188 0.000 0.982
vn 0.188 0.000 0.982
vn 0.271 0.000 0.963
vn 0.271 -0.000 0.963
vn 0.512 -0.000 0.859
vn 0.512 0.000 0.859
vn 0.817 0.000 0.577
vn 0.817 -0.000 0.577
vn 0.984 -0.000 0.179
vn 0.984 0.000 0.179
vn 0.979 0.000 -0.203
vn 0.979 -0.000 -0.203
vn 0.754 -0.000 -0.657
vn 0.754 -0.000 -0.657
vn 0.408 -0.000 -0.913
vn 0.408 -0.000 -0.913
vn 0.117 -0.000 -0.993
vn 0.117 -0.000 -0.993

# Facets
f 1//1 3//1 2//1
f 3//2 1//2 4//2
f 4//3 1//3 5//3
f 4//4 5//4 6//4
f 4//5 6//5 7//5
f 7//6 8//6 4//6
f 9//7 8//7 7//7
f 10//8 8//8 9//8
f 4//9 8//9 11//9
f 12//10 8//10 10//10
f 11//11 8//11 13//11
f 11//12 13//12 14//12
f 14//13 13//13 15//13
f 14//14 15//14 16//14
f 12//15 17//15 8//15
f 18//16 17//16 12//16
f 19//17 17//17 18//17
f 20//18 17//18 19//18
f 21//19 17//19 20//19
f 21//20 22//20 17//20
f 23//21 22//21 21//21
f 24//22 22//22 23//22
f 25//23 22//23 24//23
f 25//24 26//24 22//24
f 27//25 26//25 25//25
f 27//26 28//26 26//26
f 27//27 29//27 28//27
f 27//28 30//28 29//28
f 31//29 30//29 27//29
f 31//30 32//30 30//30
f 31//31 33//31 32//31
f 31//32 34//32 33//32
f 35//33 34//33 31//33
f 35//34 36//34 34//34
f 35//35 37//35 36//35
f 35//36 38//36 37//36
f 35//37 39//37 38//37
f 40//38 39//38 35//38
f 39//39 40//39 41//39
f 40//40 42//40 41//40
f 43//41 42//41 40//41
f 43//42 44//42 42//42
f 45//43 44//43 43//43
f 44//44 45//44 46//44
f 41//45 42//45 47//45
f 41//46 47//46 48//46
f 48//47 47//47 49//47
f 49//48 47//48 50//48
f 49//49 50//49 51//49
f 51//50 50//50 52//50
f 53//51 55//51 54//51
f 55//52 53//52 56//52
f 55//53 56//53 57//53
f 57//54 56//54 58//54
f 57//55 58//55 59//55
f 57//56 59//56 60//56
f 58//57 61//57 59//57
f 60//58 59//58 62//58
f 60//59 62//59 63//59
f 60//60 63//60 64//60
f 64//61 63//61 65//61
f 64//62 65//62 66//62
f 61//63 58//63 67//63
f 61//64 67//64 68//64
f 68//65 67//65 69//65
f 69//66 67//66 70//66
f 70//67 67//67 71//67
f 71//68 67//68 72//68
f 71//69 72//69 73//69
f 73//70 72//70 74//70
f 74//71 72//71 75//71
f 75//72 72//72 76//72
f 75//73 76//73 77//73
f 77//74 76//74 78//74
f 78//75 76//75 79//75
f 79//76 76//76 80//76
f 79//77 80//77 81//77
f 81//78 80//78 82//78
f 81//79 82//79 83//79
f 81//80 83//80 84//80
f 81//81 84//81 85//81
f 85//82 84//82 86//82
f 85//83 86//83 87//83
f 85//84 87//84 88//84
f 85//85 88//85 89//85
f 85//86 89//86 90//86
f 90//87 89//87 91//87
f 90//88 91//88 92//88
f 90//89 92//89 93//89
f 90//90 93//90 94//90
f 95//91 94//91 93//91
f 96//92 94//92 95//92
f 97//93 94//93 96//93
f 97//94 98//94 94//94
f 98//95 97//95 99//95
f 90//96 94//96 100//96
f 90//97 100//97 101//97
f 101//98 100//98 102//98
f 101//99 102//99 103//99
f 103//100 102//100 104//100
f 105//101 107//101 106//101
f 108//102 107//102 105//102
f 109//103 108//103 105//103
f 110//104 108//104 109//104
f 111//105 110//105 109//105
f 112//106 110//106 111//106
f 113//107 112//107 111//107
f 114//108 112//108 113//108
f 115//109 117//109 116//109
f 118//110 117//110 115//110
f 119//111 121//111 120//111
f 122//112 121//112 119//112
f 123//113 122//113 119//113
f 124//114 122//114 123//114
f 125//115 124//115 123//115
f 126//116 124//116 125//116
f 127//117 126//117 125//117
f 128//118 126//118 127//118
f 129//119 128//119 127//119
f 130//120 128//120 129//120
f 131//121 130//121 129//121
f 132//122 130//122 131//122
f 133//123 132//123 131//123
f 134//124 132//124 133//124
f 135//125 134//125 133//125
f 136//126 134//126 135//126
f 137//127 136//127 135//127
f 138//128 136//128 137//128
f 139//129 138//129 137//129
f 140//130 138//130 139//130
f 141//131 140//131 139//131
f 142//132 140//132 141//132
f 143//133 142//133 141//133
f 144//134 142//134 143//134
f 145//135 144//135 143//135
f 146//136 144//136 145//136
f 147//137 146//137 145//137
f 148//138 146//138 147//138
f 149//139 148//139 147//139
f 150//140 148//140 149//140
f 151//141 150//141 149//141
f 152//142 150//142 151//142
f 153//143 152//143 151//143
f 154//144 152//144 153//144
f 155//145 154//145 153//145
f 156//146 154//146 155//146
f 157//147 156//147 155//147
f 158//148 156//148 157//148
f 159//149 158//149 157//149
f 160//150 158//150 159//150
f 161//151 160//151 159//151
f 162//152 160//152 161//152
f 163//153 162//153 161//153
f 164//154 162//154 163//154
f 165//155 164//155 163//155
f 166//156 164//156 165//156
f 167//157 166//157 165//157
f 168//158 166//158 167//158
f 169//159 168//159 167//159
f 170//160 168//160 169//160
f 171//161 173//161 172//161
f 174//162 173//162 171//162
f 175//163 177//163 176//163
f 178//164 177//164 175//164
f 179//165 178//165 175//165
f 180//166 178//166 179//166
f 181//167 180//167 179//167
f 182//168 180//168 181//168
f 183//169 182//169 181//169
f 184//170 182//170 183//170
f 185//171 184//171 183//171
f 186//172 184//172 185//172
f 187//173 186//173 185//173
f 188//174 186//174 187//174
f 189//175 188//175 187//175
f 190//176 188//176 189//176
f 191//177 190//177 189//177
f 192//178 190//178 191//178
f 193//179 192//179 191//179
f 194//180 192//180 193//180
f 195//181 194//181 193//181
f 196//182 194//182 195//182
f 197//183 196//183 195//183
f 198//184 196//184 197//184
f 199//185 198//185 197//185
f 200//186 198//186 199//186
f 201//187 200//187 199//187
f 202//188 200//188 201//188
f 203//189 202//189 201//189
f 204//190 202//190 203//190
f 205//191 204//191 203//191
f 206//192 204//192 205//192
f 207//193 206//193 205//193
f 208//194 206//194 207//194
f 209//195 208//195 207//195
f 210//196 208//196 209//196
f 211//197 210//197 209//197
f 212//198 210//198 211//198
f 213//199 212//199 211//199
f 214//200 212//200 213//200
f 215//201 214//201 213//201
f 216//202 214//202 215//202
f 217//203 216//203 215//203
f 218//204 216//204 217//204

# Thank you for using Spin 3D

