# Created using Spin 3D

# Vertex Array 
v 0.059 0.046 0.273
v -0.059 0.046 0.273
v -0.059 0.046 -0.273
v 0.059 0.046 -0.273
v -0.059 -0.000 0.273
v -0.059 0.000 -0.273
v -0.059 0.046 -0.273
v -0.059 0.046 0.273
v 0.059 -0.000 0.273
v -0.059 -0.000 0.273
v -0.059 0.046 0.273
v 0.059 0.046 0.273
v 0.059 0.000 -0.273
v 0.059 -0.000 0.273
v 0.059 0.046 0.273
v 0.059 0.046 -0.273
v -0.059 0.000 -0.273
v 0.059 0.000 -0.273
v 0.059 0.046 -0.273
v -0.059 0.046 -0.273
v -0.059 0.000 -0.273
v -0.059 -0.000 0.273
v 0.059 -0.000 0.273
v 0.059 0.000 -0.273

# Normal Array
vn -0.000 1.000 0.000
vn 0.000 1.000 0.000
vn -1.000 0.000 -0.000
vn -1.000 -0.000 -0.000
vn 0.000 0.000 1.000
vn -0.000 -0.000 1.000
vn 1.000 0.000 0.000
vn 1.000 -0.000 0.000
vn 0.000 -0.000 -1.000
vn 0.000 -0.000 -1.000
vn -0.000 -1.000 -0.000
vn 0.000 -1.000 -0.000

# Facets
f 1//1 3//1 2//1
f 4//2 3//2 1//2
f 5//3 7//3 6//3
f 8//4 7//4 5//4
f 9//5 11//5 10//5
f 12//6 11//6 9//6
f 13//7 15//7 14//7
f 16//8 15//8 13//8
f 17//9 19//9 18//9
f 20//10 19//10 17//10
f 21//11 23//11 22//11
f 24//12 23//12 21//12

# Thank you for using Spin 3D

