# Created using Spin 3D

# Vertex Array 
v 0.240 0.046 0.273
v 0.109 0.046 0.273
v 0.000 0.046 0.108
v 0.066 0.046 0.009
v -0.240 0.046 0.273
v -0.109 0.046 0.273
v -0.066 0.046 0.009
v 0.000 0.046 -0.091
v 0.251 0.046 -0.273
v 0.120 0.046 -0.273
v -0.120 0.046 -0.273
v -0.251 0.046 -0.273
v 0.251 0.000 -0.273
v 0.066 -0.000 0.009
v 0.066 0.046 0.009
v 0.251 0.046 -0.273
v 0.120 0.000 -0.273
v 0.251 0.000 -0.273
v 0.251 0.046 -0.273
v 0.120 0.046 -0.273
v 0.000 0.000 -0.091
v 0.120 0.000 -0.273
v 0.120 0.046 -0.273
v 0.000 0.046 -0.091
v -0.120 0.000 -0.273
v 0.000 0.000 -0.091
v 0.000 0.046 -0.091
v -0.120 0.046 -0.273
v -0.251 0.000 -0.273
v -0.120 0.000 -0.273
v -0.120 0.046 -0.273
v -0.251 0.046 -0.273
v -0.066 0.000 0.009
v -0.251 0.000 -0.273
v -0.251 0.046 -0.273
v -0.066 0.046 0.009
v -0.240 -0.000 0.273
v -0.066 0.000 0.009
v -0.066 0.046 0.009
v -0.240 0.046 0.273
v -0.109 -0.000 0.273
v -0.240 -0.000 0.273
v -0.240 0.046 0.273
v -0.109 0.046 0.273
v -0.000 -0.000 0.108
v -0.109 -0.000 0.273
v -0.109 0.046 0.273
v 0.000 0.046 0.108
v 0.109 -0.000 0.273
v -0.000 -0.000 0.108
v 0.000 0.046 0.108
v 0.109 0.046 0.273
v 0.240 -0.000 0.273
v 0.109 -0.000 0.273
v 0.109 0.046 0.273
v 0.240 0.046 0.273
v 0.066 -0.000 0.009
v 0.240 -0.000 0.273
v 0.240 0.046 0.273
v 0.066 0.046 0.009
v -0.120 0.000 -0.273
v -0.251 0.000 -0.273
v -0.066 0.000 0.009
v 0.000 0.000 -0.091
v 0.066 -0.000 0.009
v -0.240 -0.000 0.273
v 0.251 0.000 -0.273
v 0.120 0.000 -0.273
v -0.000 -0.000 0.108
v -0.109 -0.000 0.273
v 0.240 -0.000 0.273
v 0.109 -0.000 0.273

# Normal Array
vn -0.000 1.000 0.000
vn 0.000 1.000 0.000
vn -0.000 1.000 -0.000
vn 0.000 1.000 0.000
vn 0.000 1.000 0.000
vn 0.000 1.000 0.000
vn 0.000 1.000 0.000
vn 0.000 1.000 0.000
vn 0.000 1.000 0.000
vn 0.000 1.000 0.000
vn 0.835 0.000 0.550
vn 0.835 0.000 0.550
vn 0.000 0.000 -1.000
vn 0.000 -0.000 -1.000
vn -0.834 0.000 -0.551
vn -0.834 0.000 -0.551
vn 0.834 0.000 -0.551
vn 0.834 0.000 -0.551
vn 0.000 0.000 -1.000
vn 0.000 0.000 -1.000
vn -0.835 -0.000 0.550
vn -0.835 -0.000 0.550
vn -0.834 0.000 -0.551
vn -0.834 -0.000 -0.551
vn -0.000 0.000 1.000
vn -0.000 0.000 1.000
vn 0.834 0.000 0.551
vn 0.834 -0.000 0.551
vn -0.834 -0.000 0.551
vn -0.834 -0.000 0.551
vn -0.000 -0.000 1.000
vn -0.000 0.000 1.000
vn 0.834 0.000 -0.551
vn 0.834 0.000 -0.551
vn -0.000 -1.000 -0.000
vn -0.000 -1.000 -0.000
vn -0.000 -1.000 -0.000
vn -0.000 -1.000 -0.000
vn -0.000 -1.000 -0.000
vn 0.000 -1.000 -0.000
vn 0.000 -1.000 0.000
vn -0.000 -1.000 -0.000
vn -0.000 -1.000 -0.000
vn -0.000 -1.000 -0.000

# Facets
f 1//1 3//1 2//1
f 3//2 1//2 4//2
f 4//3 5//3 3//3
f 3//4 5//4 6//4
f 4//5 7//5 5//5
f 4//6 8//6 7//6
f 9//7 8//7 4//7
f 8//8 9//8 10//8
f 11//9 7//9 8//9
f 7//10 11//10 12//10
f 13//11 15//11 14//11
f 16//12 15//12 13//12
f 17//13 19//13 18//13
f 20//14 19//14 17//14
f 21//15 23//15 22//15
f 24//16 23//16 21//16
f 25//17 27//17 26//17
f 28//18 27//18 25//18
f 29//19 31//19 30//19
f 32//20 31//20 29//20
f 33//21 35//21 34//21
f 36//22 35//22 33//22
f 37//23 39//23 38//23
f 40//24 39//24 37//24
f 41//25 43//25 42//25
f 44//26 43//26 41//26
f 45//27 47//27 46//27
f 48//28 47//28 45//28
f 49//29 51//29 50//29
f 52//30 51//30 49//30
f 53//31 55//31 54//31
f 56//32 55//32 53//32
f 57//33 59//33 58//33
f 60//34 59//34 57//34
f 61//35 63//35 62//35
f 63//36 61//36 64//36
f 64//37 65//37 63//37
f 63//38 65//38 66//38
f 64//39 67//39 65//39
f 67//40 64//40 68//40
f 66//41 65//41 69//41
f 66//42 69//42 70//42
f 71//43 69//43 65//43
f 69//44 71//44 72//44

# Thank you for using Spin 3D

