# Created using Spin 3D

# Vertex Array 
v 0.240 -10.193 4.078
v 0.222 -10.192 6.000
v 0.222 -11.523 6.000
v 0.240 -11.523 4.078
v 0.255 -10.193 2.587
v 0.255 -11.523 2.587
v 0.216 -10.193 1.480
v 0.216 -11.523 1.480
v 0.073 -10.193 0.708
v 0.073 -11.523 0.708
v -0.216 -10.193 0.217
v -0.216 -11.523 0.217
v -0.707 -10.193 -0.072
v -0.708 -11.523 -0.072
v -1.479 -10.193 -0.215
v -1.479 -11.523 -0.215
v -2.587 -10.193 -0.254
v -2.587 -11.523 -0.254
v -4.078 -10.192 -0.239
v -4.078 -11.523 -0.239
v -6.000 -10.192 -0.222
v -6.000 -11.523 -0.222
v 0.741 -10.193 4.082
v 0.723 -10.192 6.000
v 0.222 -10.192 6.000
v 0.240 -10.193 4.078
v 0.756 -10.193 2.581
v 0.255 -10.193 2.587
v 0.714 -10.193 1.424
v 0.216 -10.193 1.480
v 0.542 -10.193 0.532
v 0.073 -10.193 0.708
v 0.138 -10.193 -0.138
v -0.216 -10.193 0.217
v -0.532 -10.193 -0.541
v -0.707 -10.193 -0.072
v -1.424 -10.193 -0.713
v -1.479 -10.193 -0.215
v -2.581 -10.193 -0.755
v -2.587 -10.193 -0.254
v -4.082 -10.192 -0.740
v -4.078 -10.192 -0.239
v -6.000 -10.192 -0.723
v -6.000 -10.192 -0.222
v 0.741 -9.554 4.082
v 0.723 -9.553 6.000
v 0.723 -10.192 6.000
v 0.741 -10.193 4.082
v 0.756 -9.554 2.581
v 0.756 -10.193 2.581
v 0.714 -9.554 1.424
v 0.714 -10.193 1.424
v 0.542 -9.554 0.532
v 0.542 -10.193 0.532
v 0.139 -9.554 -0.137
v 0.138 -10.193 -0.138
v -0.531 -9.554 -0.541
v -0.532 -10.193 -0.541
v -1.424 -9.553 -0.713
v -1.424 -10.193 -0.713
v -2.580 -9.553 -0.755
v -2.581 -10.193 -0.755
v -4.082 -9.553 -0.740
v -4.082 -10.192 -0.740
v -6.000 -9.553 -0.723
v -6.000 -10.192 -0.723
v 0.240 -9.554 4.077
v 0.222 -9.553 6.000
v 0.723 -9.553 6.000
v 0.741 -9.554 4.082
v 0.255 -9.554 2.587
v 0.756 -9.554 2.581
v 0.216 -9.554 1.479
v 0.714 -9.554 1.424
v 0.073 -9.554 0.708
v 0.542 -9.554 0.532
v -0.216 -9.554 0.217
v 0.139 -9.554 -0.137
v -0.707 -9.554 -0.072
v -0.531 -9.554 -0.541
v -1.479 -9.553 -0.215
v -1.424 -9.553 -0.713
v -2.587 -9.553 -0.254
v -2.580 -9.553 -0.755
v -4.077 -9.553 -0.239
v -4.082 -9.553 -0.740
v -6.000 -9.553 -0.222
v -6.000 -9.553 -0.723
v 0.240 -7.672 4.077
v 0.222 -7.672 6.000
v 0.222 -9.553 6.000
v 0.240 -9.554 4.077
v 0.255 -7.672 2.587
v 0.255 -9.554 2.587
v 0.216 -7.672 1.480
v 0.216 -9.554 1.479
v 0.073 -7.672 0.708
v 0.073 -9.554 0.708
v -0.215 -7.672 0.217
v -0.216 -9.554 0.217
v -0.707 -7.672 -0.072
v -0.707 -9.554 -0.072
v -1.479 -7.672 -0.215
v -1.479 -9.553 -0.215
v -2.587 -7.672 -0.254
v -2.587 -9.553 -0.254
v -4.077 -7.672 -0.239
v -4.077 -9.553 -0.239
v -6.000 -7.672 -0.222
v -6.000 -9.553 -0.222

# Normal Array
vn -1.000 0.000 -0.009
vn -1.000 0.000 -0.009
vn -1.000 0.000 -0.010
vn -1.000 0.000 -0.010
vn -0.999 0.000 0.036
vn -0.999 0.000 0.036
vn -0.983 0.000 0.182
vn -0.983 0.000 0.182
vn -0.862 0.000 0.506
vn -0.862 0.000 0.506
vn -0.506 -0.000 0.863
vn -0.506 0.000 0.863
vn -0.182 -0.000 0.983
vn -0.182 -0.000 0.983
vn -0.036 -0.000 0.999
vn -0.036 -0.000 0.999
vn 0.010 -0.000 1.000
vn 0.010 -0.000 1.000
vn 0.009 -0.000 1.000
vn 0.009 -0.000 1.000
vn 0.000 1.000 -0.000
vn 0.000 1.000 -0.000
vn 0.000 1.000 -0.000
vn 0.000 1.000 -0.000
vn 0.000 1.000 -0.000
vn 0.000 1.000 -0.000
vn 0.000 1.000 -0.000
vn 0.000 1.000 0.000
vn 0.000 1.000 0.000
vn 0.000 1.000 0.000
vn 0.000 1.000 0.000
vn 0.000 1.000 0.000
vn 0.000 1.000 0.000
vn 0.000 1.000 0.000
vn 0.000 1.000 0.000
vn 0.000 1.000 0.000
vn 0.000 1.000 0.000
vn 0.000 1.000 0.000
vn 0.000 1.000 0.000
vn 0.000 1.000 0.000
vn -1.000 0.000 -0.009
vn -1.000 0.000 -0.009
vn -1.000 0.000 -0.010
vn -1.000 0.000 -0.010
vn -0.999 0.000 0.037
vn -0.999 0.000 0.037
vn -0.982 0.000 0.189
vn -0.982 0.000 0.189
vn -0.857 0.000 0.516
vn -0.857 0.000 0.516
vn -0.516 -0.000 0.857
vn -0.516 0.000 0.857
vn -0.189 -0.000 0.982
vn -0.189 -0.000 0.982
vn -0.037 -0.000 0.999
vn -0.037 -0.000 0.999
vn 0.010 -0.000 1.000
vn 0.010 -0.000 1.000
vn 0.009 -0.000 1.000
vn 0.009 -0.000 1.000
vn -0.000 -1.000 0.000
vn -0.000 -1.000 0.000
vn -0.000 -1.000 0.000
vn -0.000 -1.000 0.000
vn -0.000 -1.000 0.000
vn -0.000 -1.000 0.000
vn -0.000 -1.000 -0.000
vn -0.000 -1.000 0.000
vn -0.000 -1.000 -0.000
vn -0.000 -1.000 -0.000
vn -0.000 -1.000 -0.000
vn -0.000 -1.000 -0.000
vn -0.000 -1.000 -0.000
vn -0.000 -1.000 -0.000
vn -0.000 -1.000 -0.000
vn -0.000 -1.000 -0.000
vn -0.000 -1.000 -0.000
vn -0.000 -1.000 -0.000
vn -0.000 -1.000 -0.000
vn -0.000 -1.000 -0.000
vn -1.000 -0.000 -0.009
vn -1.000 0.000 -0.009
vn -1.000 0.000 -0.010
vn -1.000 0.000 -0.010
vn -0.999 0.000 0.035
vn -0.999 0.000 0.035
vn -0.983 0.000 0.182
vn -0.983 0.000 0.182
vn -0.862 0.000 0.506
vn -0.862 0.000 0.506
vn -0.506 -0.000 0.863
vn -0.506 0.000 0.863
vn -0.182 -0.000 0.983
vn -0.182 -0.000 0.983
vn -0.036 -0.000 0.999
vn -0.036 -0.000 0.999
vn 0.010 -0.000 1.000
vn 0.010 -0.000 1.000
vn 0.009 -0.000 1.000
vn 0.009 0.000 1.000

# Facets
f 1//1 3//1 2//1
f 4//2 3//2 1//2
f 5//3 4//3 1//3
f 6//4 4//4 5//4
f 7//5 6//5 5//5
f 8//6 6//6 7//6
f 9//7 8//7 7//7
f 10//8 8//8 9//8
f 11//9 10//9 9//9
f 12//10 10//10 11//10
f 13//11 12//11 11//11
f 14//12 12//12 13//12
f 15//13 14//13 13//13
f 16//14 14//14 15//14
f 17//15 16//15 15//15
f 18//16 16//16 17//16
f 19//17 18//17 17//17
f 20//18 18//18 19//18
f 21//19 20//19 19//19
f 22//20 20//20 21//20
f 23//21 25//21 24//21
f 26//22 25//22 23//22
f 27//23 26//23 23//23
f 28//24 26//24 27//24
f 29//25 28//25 27//25
f 30//26 28//26 29//26
f 31//27 30//27 29//27
f 32//28 30//28 31//28
f 33//29 32//29 31//29
f 34//30 32//30 33//30
f 35//31 34//31 33//31
f 36//32 34//32 35//32
f 37//33 36//33 35//33
f 38//34 36//34 37//34
f 39//35 38//35 37//35
f 40//36 38//36 39//36
f 41//37 40//37 39//37
f 42//38 40//38 41//38
f 43//39 42//39 41//39
f 44//40 42//40 43//40
f 45//41 47//41 46//41
f 48//42 47//42 45//42
f 49//43 48//43 45//43
f 50//44 48//44 49//44
f 51//45 50//45 49//45
f 52//46 50//46 51//46
f 53//47 52//47 51//47
f 54//48 52//48 53//48
f 55//49 54//49 53//49
f 56//50 54//50 55//50
f 57//51 56//51 55//51
f 58//52 56//52 57//52
f 59//53 58//53 57//53
f 60//54 58//54 59//54
f 61//55 60//55 59//55
f 62//56 60//56 61//56
f 63//57 62//57 61//57
f 64//58 62//58 63//58
f 65//59 64//59 63//59
f 66//60 64//60 65//60
f 67//61 69//61 68//61
f 70//62 69//62 67//62
f 71//63 70//63 67//63
f 72//64 70//64 71//64
f 73//65 72//65 71//65
f 74//66 72//66 73//66
f 75//67 74//67 73//67
f 76//68 74//68 75//68
f 77//69 76//69 75//69
f 78//70 76//70 77//70
f 79//71 78//71 77//71
f 80//72 78//72 79//72
f 81//73 80//73 79//73
f 82//74 80//74 81//74
f 83//75 82//75 81//75
f 84//76 82//76 83//76
f 85//77 84//77 83//77
f 86//78 84//78 85//78
f 87//79 86//79 85//79
f 88//80 86//80 87//80
f 89//81 91//81 90//81
f 92//82 91//82 89//82
f 93//83 92//83 89//83
f 94//84 92//84 93//84
f 95//85 94//85 93//85
f 96//86 94//86 95//86
f 97//87 96//87 95//87
f 98//88 96//88 97//88
f 99//89 98//89 97//89
f 100//90 98//90 99//90
f 101//91 100//91 99//91
f 102//92 100//92 101//92
f 103//93 102//93 101//93
f 104//94 102//94 103//94
f 105//95 104//95 103//95
f 106//96 104//96 105//96
f 107//97 106//97 105//97
f 108//98 106//98 107//98
f 109//99 108//99 107//99
f 110//100 108//100 109//100

# Thank you for using Spin 3D

