# Created using Spin 3D

# Vertex Array 
v 3.000 -10.192 -0.222 0 0 0
v 3.000 -11.523 -0.222 0 0 0
v 1.500 -10.754 -0.222 0 0 0
v 1.500 -11.523 -0.222 0 0 0
v 0.000 -10.754 -0.222 0 0 0
v 0.000 -11.523 -0.222 0 0 0
v -1.500 -10.754 -0.222 0 0 0
v -1.500 -11.523 -0.222 0 0 0
v -3.000 -10.192 -0.222 0 0 0
v -3.000 -11.523 -0.222 0 0 0
v 3.000 -10.192 -0.723 0 0 0
v 3.000 -10.192 -0.222 0 0 0
v 1.500 -10.754 -0.222 0 0 0
v 1.500 -10.754 -0.723 0 0 0
v 0.000 -10.754 -0.222 0 0 0
v 0.000 -10.754 -0.723 0 0 0
v -1.500 -10.754 -0.222 0 0 0
v -1.500 -10.754 -0.723 0 0 0
v -3.000 -10.192 -0.222 0 0 0
v -3.000 -10.192 -0.723 0 0 0
v -3.000 -7.672 -0.222 0 0 0
v -1.500 -7.672 -0.222 0 0 0
v -3.000 -9.553 -0.222 0 0 0
v -1.500 -8.992 -0.222 0 0 0
v 0.000 -7.672 -0.222 0 0 0
v 0.000 -8.992 -0.222 0 0 0
v 1.500 -7.672 -0.222 0 0 0
v 1.500 -8.992 -0.222 0 0 0
v 3.000 -7.672 -0.222 0 0 0
v 3.000 -9.553 -0.222 0 0 0
v 3.000 -11.523 -0.222 0 0 0
v 3.000 -11.523 -0.599 0 0 0
v 1.500 -11.523 -0.222 0 0 0
v 1.500 -11.523 -0.599 0 0 0
v 3.000 -11.523 -1.000 0 0 0
v 0.000 -11.523 -0.222 0 0 0
v 1.500 -11.523 -1.000 0 0 0
v 0.000 -11.523 -0.599 0 0 0
v -1.500 -11.523 -0.222 0 0 0
v 0.000 -11.523 -1.000 0 0 0
v -1.500 -11.523 -0.599 0 0 0
v -3.000 -11.523 -0.222 0 0 0
v -1.500 -11.523 -1.000 0 0 0
v -3.000 -11.523 -0.599 0 0 0
v -3.000 -11.523 -1.000 0 0 0
v -3.000 -9.553 -0.723 0 0 0
v -3.000 -9.553 -0.222 0 0 0
v -1.500 -8.992 -0.723 0 0 0
v -1.500 -8.992 -0.222 0 0 0
v 0.000 -8.992 -0.723 0 0 0
v 0.000 -8.992 -0.222 0 0 0
v 1.500 -8.992 -0.723 0 0 0
v 1.500 -8.992 -0.222 0 0 0
v 3.000 -9.553 -0.723 0 0 0
v 3.000 -9.553 -0.222 0 0 0
v 3.000 -9.553 -0.723 0 0 0
v 3.000 -10.192 -0.723 0 0 0
v 1.500 -10.754 -0.723 0 0 0
v 1.500 -8.992 -0.723 0 0 0
v 0.000 -10.754 -0.723 0 0 0
v 0.000 -8.992 -0.723 0 0 0
v -1.500 -10.754 -0.723 0 0 0
v -1.500 -8.992 -0.723 0 0 0
v -3.000 -10.192 -0.723 0 0 0
v -3.000 -9.553 -0.723 0 0 0

# Normal Array
vn 0.000 -0.000 1.000
vn -0.000 -0.000 1.000
vn -0.000 -0.000 1.000
vn -0.000 -0.000 1.000
vn -0.000 -0.000 1.000
vn -0.000 -0.000 1.000
vn -0.000 -0.000 1.000
vn -0.000 -0.000 1.000
vn -0.350 0.937 0.000
vn -0.350 0.937 0.000
vn 0.000 1.000 -0.000
vn -0.000 1.000 0.000
vn 0.000 1.000 -0.000
vn 0.000 1.000 0.000
vn 0.350 0.937 -0.000
vn 0.350 0.937 -0.000
vn 0.000 0.000 1.000
vn -0.000 0.000 1.000
vn 0.000 0.000 1.000
vn 0.000 0.000 1.000
vn 0.000 0.000 1.000
vn 0.000 0.000 1.000
vn 0.000 0.000 1.000
vn 0.000 0.000 1.000
vn 0.000 -1.000 -0.000
vn 0.000 -1.000 0.000
vn -0.000 -1.000 0.000
vn 0.000 -1.000 0.000
vn 0.000 -1.000 0.000
vn 0.000 -1.000 0.000
vn -0.000 -1.000 0.000
vn 0.000 -1.000 0.000
vn 0.000 -1.000 0.000
vn 0.000 -1.000 0.000
vn -0.000 -1.000 0.000
vn 0.000 -1.000 0.000
vn 0.000 -1.000 0.000
vn 0.000 -1.000 0.000
vn -0.000 -1.000 0.000
vn 0.000 -1.000 0.000
vn 0.350 -0.937 0.000
vn 0.350 -0.937 0.000
vn 0.000 -1.000 0.000
vn 0.000 -1.000 0.000
vn 0.000 -1.000 0.000
vn 0.000 -1.000 0.000
vn -0.350 -0.937 0.000
vn -0.350 -0.937 0.000
vn -0.000 0.000 1.000
vn 0.000 0.000 1.000
vn 0.000 0.000 1.000
vn -0.000 0.000 1.000
vn 0.000 0.000 1.000
vn -0.000 0.000 1.000
vn 0.000 0.000 1.000
vn -0.000 0.000 1.000

# Facets
f 1//1 3//1 2//1
f 2//2 3//2 4//2
f 3//3 5//3 4//3
f 4//4 5//4 6//4
f 5//5 7//5 6//5
f 6//6 7//6 8//6
f 7//7 9//7 8//7
f 8//8 9//8 10//8
f 11//9 13//9 12//9
f 14//10 13//10 11//10
f 14//11 15//11 13//11
f 16//12 15//12 14//12
f 16//13 17//13 15//13
f 18//14 17//14 16//14
f 18//15 19//15 17//15
f 20//16 19//16 18//16
f 21//17 23//17 22//17
f 22//18 23//18 24//18
f 22//19 24//19 25//19
f 25//20 24//20 26//20
f 25//21 26//21 27//21
f 27//22 26//22 28//22
f 27//23 28//23 29//23
f 29//24 28//24 30//24
f 31//25 33//25 32//25
f 32//26 33//26 34//26
f 32//27 34//27 35//27
f 33//28 36//28 34//28
f 35//29 34//29 37//29
f 34//30 36//30 38//30
f 34//31 38//31 37//31
f 36//32 39//32 38//32
f 37//33 38//33 40//33
f 38//34 39//34 41//34
f 38//35 41//35 40//35
f 39//36 42//36 41//36
f 40//37 41//37 43//37
f 41//38 42//38 44//38
f 41//39 44//39 43//39
f 43//40 44//40 45//40
f 46//41 48//41 47//41
f 47//42 48//42 49//42
f 48//43 50//43 49//43
f 49//44 50//44 51//44
f 50//45 52//45 51//45
f 51//46 52//46 53//46
f 52//47 54//47 53//47
f 53//48 54//48 55//48
f 56//49 58//49 57//49
f 59//50 58//50 56//50
f 59//51 60//51 58//51
f 61//52 60//52 59//52
f 61//53 62//53 60//53
f 63//54 62//54 61//54
f 63//55 64//55 62//55
f 65//56 64//56 63//56

# Thank you for using Spin 3D

