# Created using Spin 3D

# Vertex Array 
v 3.500 -7.672 -0.222 0 0 0
v 3.500 -9.553 -0.222 0 0 0
v 0.000 -9.553 -0.222 0 0 0
v 0.000 -7.672 -0.222 0 0 0
v -3.500 -9.553 -0.222 0 0 0
v -3.500 -7.672 -0.222 0 0 0
v 3.500 -10.192 -0.222 0 0 0
v 3.500 -11.523 -0.222 0 0 0
v 0.000 -10.192 -0.222 0 0 0
v 0.000 -11.523 -0.222 0 0 0
v -3.500 -10.192 -0.222 0 0 0
v -3.500 -11.523 -0.222 0 0 0
v 0.000 -11.523 -1.000 0 0 0
v -3.500 -11.523 -1.000 0 0 0
v -3.500 -11.523 -0.599 0 0 0
v 0.000 -11.523 -0.599 0 0 0
v -3.500 -11.523 -0.222 0 0 0
v 3.500 -11.523 -1.000 0 0 0
v 0.000 -11.523 -0.222 0 0 0
v 3.500 -11.523 -0.599 0 0 0
v 3.500 -11.523 -0.222 0 0 0
v 3.500 -10.192 -0.723 0 0 0
v 3.500 -10.192 -0.222 0 0 0
v 0.000 -10.192 -0.222 0 0 0
v 0.000 -10.192 -0.723 0 0 0
v -3.500 -10.192 -0.222 0 0 0
v -3.500 -10.192 -0.723 0 0 0
v -3.500 -9.553 -0.723 0 0 0
v -3.500 -9.553 -0.222 0 0 0
v 0.000 -9.553 -0.723 0 0 0
v 0.000 -9.553 -0.222 0 0 0
v 3.500 -9.553 -0.723 0 0 0
v 3.500 -9.553 -0.222 0 0 0
v 3.500 -9.553 -0.723 0 0 0
v 3.500 -10.192 -0.723 0 0 0
v 0.000 -10.192 -0.723 0 0 0
v 0.000 -9.553 -0.723 0 0 0
v -3.500 -10.192 -0.723 0 0 0
v -3.500 -9.553 -0.723 0 0 0

# Normal Array
vn 0.000 0.000 1.000
vn 0.000 0.000 1.000
vn 0.000 0.000 1.000
vn 0.000 0.000 1.000
vn -0.000 -0.000 1.000
vn -0.000 -0.000 1.000
vn -0.000 -0.000 1.000
vn -0.000 -0.000 1.000
vn 0.000 -1.000 0.000
vn -0.000 -1.000 0.000
vn 0.000 -1.000 0.000
vn 0.000 -1.000 0.000
vn 0.000 -1.000 0.000
vn -0.000 -1.000 0.000
vn 0.000 -1.000 0.000
vn 0.000 -1.000 -0.000
vn 0.000 1.000 -0.000
vn -0.000 1.000 0.000
vn 0.000 1.000 -0.000
vn 0.000 1.000 0.000
vn 0.000 -1.000 0.000
vn 0.000 -1.000 0.000
vn 0.000 -1.000 0.000
vn 0.000 -1.000 0.000
vn 0.000 0.000 1.000
vn 0.000 0.000 1.000
vn 0.000 0.000 1.000
vn -0.000 0.000 1.000

# Facets
f 1//1 3//1 2//1
f 4//2 3//2 1//2
f 4//3 5//3 3//3
f 6//4 5//4 4//4
f 7//5 9//5 8//5
f 8//6 9//6 10//6
f 9//7 11//7 10//7
f 10//8 11//8 12//8
f 13//9 15//9 14//9
f 16//10 15//10 13//10
f 16//11 17//11 15//11
f 18//12 16//12 13//12
f 19//13 17//13 16//13
f 20//14 16//14 18//14
f 20//15 19//15 16//15
f 21//16 19//16 20//16
f 22//17 24//17 23//17
f 25//18 24//18 22//18
f 25//19 26//19 24//19
f 27//20 26//20 25//20
f 28//21 30//21 29//21
f 29//22 30//22 31//22
f 30//23 32//23 31//23
f 31//24 32//24 33//24
f 34//25 36//25 35//25
f 37//26 36//26 34//26
f 37//27 38//27 36//27
f 39//28 38//28 37//28

# Thank you for using Spin 3D

