# Created using Spin 3D

# Vertex Array 
v 2.000 -7.672 1.738 0 0 0
v 2.000 -10.624 1.739 0 0 0
v 0.000 -10.624 1.739 0 0 0
v 0.000 -7.672 1.738 0 0 0
v -2.000 -7.672 1.738 0 0 0
v -2.000 -10.624 1.739 0 0 0
v -2.000 -9.553 -0.222 0 0 0
v -2.000 -9.553 -0.723 0 0 0
v -3.000 -9.553 -0.723 0 0 0
v -3.000 -9.553 -0.222 0 0 0
v 3.000 -9.553 -0.723 0 0 0
v 3.000 -10.192 -0.723 0 0 0
v 2.000 -10.192 -0.723 0 0 0
v 2.000 -9.553 -0.723 0 0 0
v 2.000 -9.553 -0.222 0 0 0
v 3.000 -9.553 -0.222 0 0 0
v 3.000 -9.553 -0.723 0 0 0
v 2.000 -9.553 -0.723 0 0 0
v 3.000 -7.672 -0.222 0 0 0
v 3.000 -9.553 -0.222 0 0 0
v 2.000 -9.553 -0.222 0 0 0
v 2.000 -7.672 -0.222 0 0 0
v 3.000 -10.192 -0.723 0 0 0
v 3.000 -10.192 -0.222 0 0 0
v 2.000 -10.192 -0.222 0 0 0
v 2.000 -10.192 -0.723 0 0 0
v -3.000 -7.672 -0.222 0 0 0
v -2.000 -7.672 -0.222 0 0 0
v -2.000 -9.553 -0.222 0 0 0
v -3.000 -9.553 -0.222 0 0 0
v -3.000 -9.553 -0.723 0 0 0
v -2.000 -9.553 -0.723 0 0 0
v -2.000 -10.192 -0.723 0 0 0
v -3.000 -10.192 -0.723 0 0 0
v -2.000 -11.523 -1.000 0 0 0
v -3.000 -11.523 -1.000 0 0 0
v -3.000 -11.523 -0.222 0 0 0
v -2.000 -11.523 -0.222 0 0 0
v 0.000 -11.523 -0.222 0 0 0
v 0.000 -11.523 -1.000 0 0 0
v 2.000 -11.523 -1.000 0 0 0
v 2.000 -11.523 -0.222 0 0 0
v 3.000 -11.523 -0.222 0 0 0
v 3.000 -11.523 -1.000 0 0 0
v 3.000 -10.192 -0.222 0 0 0
v 3.000 -10.624 -0.222 0 0 0
v 2.000 -10.192 -0.222 0 0 0
v 2.000 -10.624 -0.222 0 0 0
v 3.000 -11.523 -0.222 0 0 0
v 2.000 -11.523 -0.222 0 0 0
v 0.000 -10.624 -0.222 0 0 0
v 0.000 -11.523 -0.222 0 0 0
v -2.000 -11.523 -0.222 0 0 0
v -2.000 -10.624 -0.222 0 0 0
v -3.000 -11.523 -0.222 0 0 0
v -3.000 -10.624 -0.222 0 0 0
v -2.000 -10.192 -0.222 0 0 0
v -3.000 -10.192 -0.222 0 0 0
v -2.000 -10.624 1.739 0 0 0
v 0.000 -10.624 1.739 0 0 0
v -2.000 -10.624 -0.222 0 0 0
v 0.000 -10.624 -0.222 0 0 0
v 2.000 -10.624 -0.222 0 0 0
v 2.000 -10.624 1.739 0 0 0
v -3.000 -10.192 -0.723 0 0 0
v -2.000 -10.192 -0.723 0 0 0
v -2.000 -10.192 -0.222 0 0 0
v -3.000 -10.192 -0.222 0 0 0
v 0.000 -7.672 1.738 0 0 0
v -2.000 -7.672 1.738 0 0 0
v -2.000 -7.672 -0.222 0 0 0
v 0.000 -7.672 -0.222 0 0 0
v 2.000 -7.672 -0.222 0 0 0
v 2.000 -7.672 1.738 0 0 0
v 2.000 -10.624 -0.222 0 0 0
v 2.000 -10.624 1.739 0 0 0
v 2.000 -7.672 1.738 0 0 0
v 2.000 -10.192 -0.222 0 0 0
v 2.000 -10.192 -0.723 0 0 0
v 2.000 -9.553 -0.222 0 0 0
v 2.000 -9.553 -0.723 0 0 0
v 2.000 -7.672 -0.222 0 0 0
v -2.000 -10.192 -0.222 0 0 0
v -2.000 -10.192 -0.723 0 0 0
v -2.000 -9.553 -0.723 0 0 0
v -2.000 -9.553 -0.222 0 0 0
v -2.000 -7.672 1.738 0 0 0
v -2.000 -7.672 -0.222 0 0 0
v -2.000 -10.624 1.739 0 0 0
v -2.000 -10.624 -0.222 0 0 0

# Normal Array
vn 0.000 0.000 1.000
vn -0.000 0.000 1.000
vn -0.000 0.000 1.000
vn -0.000 0.000 1.000
vn 0.000 -1.000 0.000
vn -0.000 -1.000 0.000
vn 0.000 0.000 1.000
vn -0.000 0.000 1.000
vn 0.000 -1.000 0.000
vn 0.000 -1.000 0.000
vn 0.000 0.000 1.000
vn 0.000 0.000 1.000
vn 0.000 1.000 -0.000
vn 0.000 1.000 0.000
vn -0.000 0.000 1.000
vn -0.000 0.000 1.000
vn -0.000 0.000 1.000
vn -0.000 0.000 1.000
vn -0.000 -1.000 0.000
vn 0.000 -1.000 0.000
vn 0.000 -1.000 0.000
vn 0.000 -1.000 -0.000
vn -0.000 -1.000 0.000
vn 0.000 -1.000 0.000
vn 0.000 -1.000 0.000
vn 0.000 -1.000 0.000
vn -0.000 -0.000 1.000
vn -0.000 -0.000 1.000
vn -0.000 -0.000 1.000
vn -0.000 0.000 1.000
vn -0.000 0.000 1.000
vn -0.000 0.000 1.000
vn 0.000 0.000 1.000
vn -0.000 0.000 1.000
vn 0.000 0.000 1.000
vn 0.000 -0.000 1.000
vn 0.000 -0.000 1.000
vn 0.000 -0.000 1.000
vn 0.000 -1.000 -0.000
vn 0.000 -1.000 -0.000
vn 0.000 -1.000 0.000
vn 0.000 -1.000 0.000
vn 0.000 1.000 0.000
vn 0.000 1.000 0.000
vn 0.000 1.000 0.000
vn 0.000 1.000 -0.000
vn 0.000 1.000 0.000
vn 0.000 1.000 0.000
vn 1.000 0.000 0.000
vn 1.000 0.000 0.000
vn 1.000 0.000 -0.000
vn 1.000 0.000 -0.000
vn 1.000 0.000 -0.000
vn 1.000 0.000 0.000
vn -1.000 0.000 -0.000
vn -1.000 0.000 -0.000
vn -1.000 0.000 -0.000
vn -1.000 0.000 0.000
vn -1.000 0.000 0.000
vn -1.000 0.000 0.000

# Facets
f 1//1 3//1 2//1
f 4//2 3//2 1//2
f 5//3 3//3 4//3
f 6//4 3//4 5//4
f 7//5 9//5 8//5
f 10//6 9//6 7//6
f 11//7 13//7 12//7
f 14//8 13//8 11//8
f 15//9 17//9 16//9
f 18//10 17//10 15//10
f 19//11 21//11 20//11
f 22//12 21//12 19//12
f 23//13 25//13 24//13
f 26//14 25//14 23//14
f 27//15 29//15 28//15
f 30//16 29//16 27//16
f 31//17 33//17 32//17
f 34//18 33//18 31//18
f 35//19 37//19 36//19
f 37//20 35//20 38//20
f 35//21 39//21 38//21
f 39//22 35//22 40//22
f 41//23 39//23 40//23
f 41//24 42//24 39//24
f 41//25 43//25 42//25
f 43//26 41//26 44//26
f 45//27 47//27 46//27
f 46//28 47//28 48//28
f 46//29 48//29 49//29
f 49//30 48//30 50//30
f 51//31 50//31 48//31
f 52//32 50//32 51//32
f 51//33 53//33 52//33
f 54//34 53//34 51//34
f 53//35 54//35 55//35
f 55//36 54//36 56//36
f 54//37 57//37 56//37
f 56//38 57//38 58//38
f 59//39 61//39 60//39
f 60//40 61//40 62//40
f 62//41 63//41 60//41
f 60//42 63//42 64//42
f 65//43 67//43 66//43
f 68//44 67//44 65//44
f 69//45 71//45 70//45
f 72//46 71//46 69//46
f 69//47 73//47 72//47
f 74//48 73//48 69//48
f 75//49 77//49 76//49
f 77//50 75//50 78//50
f 77//51 78//51 79//51
f 77//52 79//52 80//52
f 80//53 79//53 81//53
f 77//54 80//54 82//54
f 83//55 85//55 84//55
f 83//56 86//56 85//56
f 83//57 87//57 86//57
f 86//58 87//58 88//58
f 83//59 89//59 87//59
f 89//60 83//60 90//60

# Thank you for using Spin 3D

