# Created using Spin 3D

# Vertex Array 
v 3.500 -10.192 -0.222 0 0 0
v 3.500 -11.523 -0.222 0 0 0
v 2.333 -10.192 -0.222 0 0 0
v 2.333 -11.523 -0.222 0 0 0
v 1.167 -10.914 -0.222 0 0 0
v 1.167 -11.523 -0.222 0 0 0
v 0.000 -10.914 -0.222 0 0 0
v 0.000 -11.523 -0.222 0 0 0
v -1.167 -10.914 -0.222 0 0 0
v -1.167 -11.523 -0.222 0 0 0
v -2.333 -10.192 -0.222 0 0 0
v -2.333 -11.523 -0.222 0 0 0
v -3.500 -10.192 -0.222 0 0 0
v -3.500 -11.523 -0.222 0 0 0
v 3.500 -10.192 -0.723 0 0 0
v 3.500 -10.192 -0.222 0 0 0
v 2.333 -10.192 -0.222 0 0 0
v 2.333 -10.192 -0.723 0 0 0
v 1.167 -10.914 -0.222 0 0 0
v 1.167 -10.914 -0.723 0 0 0
v 0.000 -10.914 -0.222 0 0 0
v 0.000 -10.914 -0.723 0 0 0
v -1.167 -10.914 -0.222 0 0 0
v -1.167 -10.914 -0.723 0 0 0
v -2.333 -10.192 -0.222 0 0 0
v -2.333 -10.192 -0.723 0 0 0
v -3.500 -10.192 -0.222 0 0 0
v -3.500 -10.192 -0.723 0 0 0
v -3.500 -7.672 -0.222 0 0 0
v -2.333 -7.672 -0.222 0 0 0
v -3.500 -9.553 -0.222 0 0 0
v -2.333 -9.553 -0.222 0 0 0
v -1.167 -7.672 -0.222 0 0 0
v -1.167 -8.832 -0.222 0 0 0
v 0.000 -7.672 -0.222 0 0 0
v 0.000 -8.832 -0.222 0 0 0
v 1.167 -7.672 -0.222 0 0 0
v 1.167 -8.832 -0.222 0 0 0
v 2.333 -7.672 -0.222 0 0 0
v 2.333 -9.553 -0.222 0 0 0
v 3.500 -7.672 -0.222 0 0 0
v 3.500 -9.553 -0.222 0 0 0
v 3.500 -11.523 -0.222 0 0 0
v 3.500 -11.523 -0.599 0 0 0
v 2.333 -11.523 -0.222 0 0 0
v 2.333 -11.523 -0.599 0 0 0
v 3.500 -11.523 -1.000 0 0 0
v 1.167 -11.523 -0.222 0 0 0
v 2.333 -11.523 -1.000 0 0 0
v 1.167 -11.523 -0.599 0 0 0
v 0.000 -11.523 -0.222 0 0 0
v 1.167 -11.523 -1.000 0 0 0
v 0.000 -11.523 -0.599 0 0 0
v -1.167 -11.523 -0.222 0 0 0
v 0.000 -11.523 -1.000 0 0 0
v -1.167 -11.523 -0.599 0 0 0
v -2.333 -11.523 -0.222 0 0 0
v -1.167 -11.523 -1.000 0 0 0
v -2.333 -11.523 -0.599 0 0 0
v -3.500 -11.523 -0.222 0 0 0
v -2.333 -11.523 -1.000 0 0 0
v -3.500 -11.523 -0.599 0 0 0
v -3.500 -11.523 -1.000 0 0 0
v -3.500 -9.553 -0.723 0 0 0
v -3.500 -9.553 -0.222 0 0 0
v -2.333 -9.553 -0.723 0 0 0
v -2.333 -9.553 -0.222 0 0 0
v -1.167 -8.832 -0.723 0 0 0
v -1.167 -8.832 -0.222 0 0 0
v 0.000 -8.832 -0.723 0 0 0
v 0.000 -8.832 -0.222 0 0 0
v 1.167 -8.832 -0.723 0 0 0
v 1.167 -8.832 -0.222 0 0 0
v 2.333 -9.553 -0.723 0 0 0
v 2.333 -9.553 -0.222 0 0 0
v 3.500 -9.553 -0.723 0 0 0
v 3.500 -9.553 -0.222 0 0 0
v 3.500 -9.553 -0.723 0 0 0
v 3.500 -10.192 -0.723 0 0 0
v 2.333 -10.192 -0.723 0 0 0
v 2.333 -9.553 -0.723 0 0 0
v 1.167 -10.914 -0.723 0 0 0
v 1.167 -8.832 -0.723 0 0 0
v 0.000 -10.914 -0.723 0 0 0
v 0.000 -8.832 -0.723 0 0 0
v -1.167 -10.914 -0.723 0 0 0
v -1.167 -8.832 -0.723 0 0 0
v -2.333 -10.192 -0.723 0 0 0
v -2.333 -9.553 -0.723 0 0 0
v -3.500 -10.192 -0.723 0 0 0
v -3.500 -9.553 -0.723 0 0 0

# Normal Array
vn -0.000 -0.000 1.000
vn -0.000 -0.000 1.000
vn 0.000 -0.000 1.000
vn -0.000 -0.000 1.000
vn -0.000 -0.000 1.000
vn -0.000 -0.000 1.000
vn -0.000 -0.000 1.000
vn -0.000 -0.000 1.000
vn -0.000 -0.000 1.000
vn -0.000 -0.000 1.000
vn -0.000 -0.000 1.000
vn -0.000 -0.000 1.000
vn 0.000 1.000 -0.000
vn 0.000 1.000 0.000
vn -0.526 0.851 0.000
vn -0.526 0.851 0.000
vn 0.000 1.000 -0.000
vn 0.000 1.000 0.000
vn 0.000 1.000 -0.000
vn 0.000 1.000 0.000
vn 0.526 0.851 -0.000
vn 0.526 0.851 -0.000
vn 0.000 1.000 -0.000
vn -0.000 1.000 0.000
vn 0.000 0.000 1.000
vn 0.000 0.000 1.000
vn 0.000 0.000 1.000
vn -0.000 0.000 1.000
vn 0.000 0.000 1.000
vn 0.000 0.000 1.000
vn 0.000 0.000 1.000
vn 0.000 0.000 1.000
vn 0.000 0.000 1.000
vn 0.000 0.000 1.000
vn 0.000 0.000 1.000
vn 0.000 0.000 1.000
vn 0.000 -1.000 -0.000
vn 0.000 -1.000 0.000
vn -0.000 -1.000 0.000
vn 0.000 -1.000 0.000
vn 0.000 -1.000 0.000
vn 0.000 -1.000 0.000
vn -0.000 -1.000 0.000
vn 0.000 -1.000 0.000
vn 0.000 -1.000 0.000
vn 0.000 -1.000 0.000
vn -0.000 -1.000 0.000
vn 0.000 -1.000 0.000
vn 0.000 -1.000 0.000
vn 0.000 -1.000 0.000
vn -0.000 -1.000 0.000
vn 0.000 -1.000 0.000
vn 0.000 -1.000 0.000
vn 0.000 -1.000 0.000
vn -0.000 -1.000 0.000
vn 0.000 -1.000 0.000
vn 0.000 -1.000 0.000
vn 0.000 -1.000 0.000
vn -0.000 -1.000 0.000
vn 0.000 -1.000 0.000
vn 0.000 -1.000 0.000
vn 0.000 -1.000 0.000
vn 0.526 -0.851 0.000
vn 0.526 -0.851 0.000
vn 0.000 -1.000 0.000
vn 0.000 -1.000 0.000
vn 0.000 -1.000 0.000
vn 0.000 -1.000 0.000
vn -0.526 -0.851 0.000
vn -0.526 -0.851 0.000
vn 0.000 -1.000 0.000
vn 0.000 -1.000 0.000
vn 0.000 0.000 1.000
vn -0.000 0.000 1.000
vn -0.000 0.000 1.000
vn 0.000 0.000 1.000
vn 0.000 0.000 1.000
vn -0.000 0.000 1.000
vn 0.000 0.000 1.000
vn -0.000 0.000 1.000
vn 0.000 0.000 1.000
vn -0.000 0.000 1.000
vn 0.000 0.000 1.000
vn -0.000 0.000 1.000

# Facets
f 1//1 3//1 2//1
f 2//2 3//2 4//2
f 3//3 5//3 4//3
f 4//4 5//4 6//4
f 5//5 7//5 6//5
f 6//6 7//6 8//6
f 7//7 9//7 8//7
f 8//8 9//8 10//8
f 9//9 11//9 10//9
f 10//10 11//10 12//10
f 11//11 13//11 12//11
f 12//12 13//12 14//12
f 15//13 17//13 16//13
f 18//14 17//14 15//14
f 18//15 19//15 17//15
f 20//16 19//16 18//16
f 20//17 21//17 19//17
f 22//18 21//18 20//18
f 22//19 23//19 21//19
f 24//20 23//20 22//20
f 24//21 25//21 23//21
f 26//22 25//22 24//22
f 26//23 27//23 25//23
f 28//24 27//24 26//24
f 29//25 31//25 30//25
f 30//26 31//26 32//26
f 30//27 32//27 33//27
f 33//28 32//28 34//28
f 33//29 34//29 35//29
f 35//30 34//30 36//30
f 35//31 36//31 37//31
f 37//32 36//32 38//32
f 37//33 38//33 39//33
f 39//34 38//34 40//34
f 39//35 40//35 41//35
f 41//36 40//36 42//36
f 43//37 45//37 44//37
f 44//38 45//38 46//38
f 44//39 46//39 47//39
f 45//40 48//40 46//40
f 47//41 46//41 49//41
f 46//42 48//42 50//42
f 46//43 50//43 49//43
f 48//44 51//44 50//44
f 49//45 50//45 52//45
f 50//46 51//46 53//46
f 50//47 53//47 52//47
f 51//48 54//48 53//48
f 52//49 53//49 55//49
f 53//50 54//50 56//50
f 53//51 56//51 55//51
f 54//52 57//52 56//52
f 55//53 56//53 58//53
f 56//54 57//54 59//54
f 56//55 59//55 58//55
f 57//56 60//56 59//56
f 58//57 59//57 61//57
f 59//58 60//58 62//58
f 59//59 62//59 61//59
f 61//60 62//60 63//60
f 64//61 66//61 65//61
f 65//62 66//62 67//62
f 66//63 68//63 67//63
f 67//64 68//64 69//64
f 68//65 70//65 69//65
f 69//66 70//66 71//66
f 70//67 72//67 71//67
f 71//68 72//68 73//68
f 72//69 74//69 73//69
f 73//70 74//70 75//70
f 74//71 76//71 75//71
f 75//72 76//72 77//72
f 78//73 80//73 79//73
f 81//74 80//74 78//74
f 81//75 82//75 80//75
f 83//76 82//76 81//76
f 83//77 84//77 82//77
f 85//78 84//78 83//78
f 85//79 86//79 84//79
f 87//80 86//80 85//80
f 87//81 88//81 86//81
f 89//82 88//82 87//82
f 89//83 90//83 88//83
f 91//84 90//84 89//84

# Thank you for using Spin 3D

