# Created using Spin 3D

# Vertex Array 
v -0.150 0.200 0.250 0 0 0
v -0.501 0.200 0.250 0 0 0
v -0.150 0.200 0.000 0 0 0
v -0.501 0.200 0.000 0 0 0
v -0.150 0.200 -0.250 0 0 0
v -0.501 0.200 -0.250 0 0 0
v -0.250 0.142 0.250 0 0 0
v -0.250 -0.858 0.250 0 0 0
v -0.250 0.142 0.000 0 0 0
v -0.250 -0.858 0.000 0 0 0
v -0.250 0.142 -0.250 0 0 0
v -0.250 -0.858 -0.250 0 0 0
v -0.250 0.142 -0.250 0 0 0
v -0.250 -0.858 -0.250 0 0 0
v -0.150 -0.858 -0.250 0 0 0
v -0.150 0.200 -0.250 0 0 0
v -0.501 0.200 -0.250 0 0 0
v -0.501 0.142 -0.250 0 0 0
v -0.250 0.142 -0.250 0 0 0
v -0.501 0.142 -0.250 0 0 0
v -0.250 0.142 0.000 0 0 0
v -0.501 0.142 0.000 0 0 0
v -0.250 0.142 0.250 0 0 0
v -0.501 0.142 0.250 0 0 0
v -0.501 0.142 -0.250 0 0 0
v -0.501 0.200 -0.250 0 0 0
v -0.501 0.142 0.000 0 0 0
v -0.501 0.200 0.000 0 0 0
v -0.501 0.142 0.250 0 0 0
v -0.501 0.200 0.250 0 0 0
v -0.501 0.142 0.250 0 0 0
v -0.501 0.200 0.250 0 0 0
v -0.150 0.200 0.250 0 0 0
v -0.250 0.142 0.250 0 0 0
v -0.250 -0.858 0.250 0 0 0
v -0.150 -0.800 0.250 0 0 0
v -0.150 -0.858 0.250 0 0 0
v -0.150 -0.858 0.000 0 0 0
v -0.150 -0.858 -0.250 0 0 0
v -0.250 -0.858 -0.250 0 0 0
v -0.250 -0.858 0.000 0 0 0
v -0.150 -0.858 0.250 0 0 0
v -0.250 -0.858 0.250 0 0 0
v -0.150 -0.858 0.250 0 0 0
v -0.150 -0.858 0.000 0 0 0
v -0.150 -0.800 0.000 0 0 0
v -0.150 -0.800 0.250 0 0 0
v -0.150 -0.800 0.250 0 0 0
v -0.150 0.200 0.250 0 0 0
v -0.150 0.200 0.000 0 0 0
v -0.150 -0.800 0.000 0 0 0
v -0.150 0.200 -0.250 0 0 0
v -0.150 -0.858 -0.250 0 0 0
v -0.150 -0.858 0.000 0 0 0
v 0.250 -0.800 0.250 0 0 0
v 0.250 -0.800 -0.250 0 0 0
v 0.250 -0.858 -0.250 0 0 0
v 0.250 -0.858 0.250 0 0 0
v 0.250 -0.800 0.500 0 0 0
v 0.250 -0.858 0.500 0 0 0
v 0.250 -0.858 0.250 0 0 0
v 0.250 -0.858 -0.250 0 0 0
v -0.250 -0.858 -0.250 0 0 0
v -0.250 -0.858 0.250 0 0 0
v 0.250 -0.858 0.500 0 0 0
v -0.250 -0.858 0.500 0 0 0
v -0.250 -0.800 0.250 0 0 0
v -0.250 -0.800 -0.250 0 0 0
v 0.250 -0.800 -0.250 0 0 0
v 0.250 -0.800 0.250 0 0 0
v -0.250 -0.800 0.500 0 0 0
v 0.250 -0.800 0.500 0 0 0
v 0.250 -0.800 -0.250 0 0 0
v -0.250 -0.800 -0.250 0 0 0
v -0.250 -0.858 -0.250 0 0 0
v 0.250 -0.858 -0.250 0 0 0
v -0.250 -0.800 0.500 0 0 0
v 0.250 -0.800 0.500 0 0 0
v 0.250 -0.858 0.500 0 0 0
v -0.250 -0.858 0.500 0 0 0
v -0.250 -0.800 0.250 0 0 0
v -0.250 -0.858 -0.250 0 0 0
v -0.250 -0.800 -0.250 0 0 0
v -0.250 -0.800 0.500 0 0 0
v -0.250 -0.858 0.500 0 0 0
v -0.250 -0.858 0.250 0 0 0

# Normal Array
vn 0.000 1.000 0.000
vn 0.000 1.000 0.000
vn 0.000 1.000 0.000
vn 0.000 1.000 0.000
vn -1.000 -0.000 0.000
vn -1.000 -0.000 0.000
vn -1.000 -0.000 0.000
vn -1.000 0.000 0.000
vn -0.000 0.000 -1.000
vn -0.000 0.000 -1.000
vn -0.000 0.000 -1.000
vn -0.000 0.000 -1.000
vn -0.000 -1.000 -0.000
vn -0.000 -1.000 -0.000
vn -0.000 -1.000 -0.000
vn -0.000 -1.000 -0.000
vn -1.000 -0.000 0.000
vn -1.000 -0.000 0.000
vn -1.000 -0.000 0.000
vn -1.000 -0.000 0.000
vn 0.000 -0.000 1.000
vn 0.000 -0.000 1.000
vn 0.000 -0.000 1.000
vn 0.000 -0.000 1.000
vn 0.000 0.000 1.000
vn 0.000 -1.000 -0.000
vn 0.000 -1.000 -0.000
vn 0.000 -1.000 -0.000
vn -0.000 -1.000 -0.000
vn -1.000 -0.000 0.000
vn -1.000 0.000 0.000
vn 1.000 -0.000 -0.000
vn 1.000 -0.000 -0.000
vn 1.000 -0.000 -0.000
vn 1.000 -0.000 -0.000
vn 1.000 0.000 -0.000
vn 1.000 0.000 -0.000
vn 1.000 0.000 -0.000
vn 1.000 0.000 -0.000
vn 1.000 0.000 -0.000
vn 0.000 -1.000 -0.000
vn 0.000 -1.000 -0.000
vn 0.000 -1.000 -0.000
vn 0.000 -1.000 -0.000
vn -0.000 1.000 0.000
vn -0.000 1.000 0.000
vn -0.000 1.000 0.000
vn -0.000 1.000 0.000
vn -0.000 0.000 -1.000
vn -0.000 0.000 -1.000
vn 0.000 0.000 1.000
vn 0.000 -0.000 1.000
vn -1.000 0.000 0.000
vn -1.000 0.000 0.000
vn -1.000 0.000 0.000
vn -0.447 -0.894 0.000

# Facets
f 1//1 3//1 2//1
f 2//2 3//2 4//2
f 3//3 5//3 4//3
f 4//4 5//4 6//4
f 7//5 9//5 8//5
f 8//6 9//6 10//6
f 9//7 11//7 10//7
f 10//8 11//8 12//8
f 13//9 15//9 14//9
f 13//10 16//10 15//10
f 13//11 17//11 16//11
f 17//12 13//12 18//12
f 19//13 21//13 20//13
f 20//14 21//14 22//14
f 21//15 23//15 22//15
f 22//16 23//16 24//16
f 25//17 27//17 26//17
f 26//18 27//18 28//18
f 27//19 29//19 28//19
f 28//20 29//20 30//20
f 31//21 33//21 32//21
f 33//22 31//22 34//22
f 33//23 34//23 35//23
f 33//24 35//24 36//24
f 35//25 37//25 36//25
f 38//26 40//26 39//26
f 40//27 38//27 41//27
f 41//28 38//28 42//28
f 41//29 42//29 43//29
f 44//30 46//30 45//30
f 47//31 46//31 44//31
f 48//32 50//32 49//32
f 51//33 50//33 48//33
f 51//34 52//34 50//34
f 51//35 53//35 52//35
f 53//36 51//36 54//36
f 55//37 57//37 56//37
f 58//38 57//38 55//38
f 59//39 58//39 55//39
f 60//40 58//40 59//40
f 61//41 63//41 62//41
f 64//42 63//42 61//42
f 65//43 64//43 61//43
f 66//44 64//44 65//44
f 67//45 69//45 68//45
f 70//46 69//46 67//46
f 71//47 70//47 67//47
f 72//48 70//48 71//48
f 73//49 75//49 74//49
f 76//50 75//50 73//50
f 77//51 79//51 78//51
f 80//52 79//52 77//52
f 81//53 83//53 82//53
f 82//54 84//54 81//54
f 82//55 85//55 84//55
f 85//56 82//56 86//56

# Thank you for using Spin 3D

