# Created using Spin 3D

# Vertex Array 
v -0.025 -0.010 -0.022 0 0 0
v 0.025 -0.010 -0.022 0 0 0
v -0.025 -0.010 -0.153 0 0 0
v 0.025 -0.010 -0.153 0 0 0
v 0.041 -0.010 -0.157 0 0 0
v -0.041 -0.010 -0.157 0 0 0
v 0.054 -0.010 -0.168 0 0 0
v -0.054 -0.010 -0.168 0 0 0
v 0.063 -0.010 -0.184 0 0 0
v -0.063 -0.010 -0.184 0 0 0
v 0.066 -0.010 -0.204 0 0 0
v -0.066 -0.010 -0.204 0 0 0
v 0.066 -0.010 -0.601 0 0 0
v -0.066 -0.010 -0.601 0 0 0
v 0.062 -0.010 -0.621 0 0 0
v -0.062 -0.010 -0.621 0 0 0
v 0.051 -0.010 -0.638 0 0 0
v -0.051 -0.010 -0.638 0 0 0
v 0.034 -0.010 -0.649 0 0 0
v -0.034 -0.010 -0.649 0 0 0
v 0.015 -0.010 -0.653 0 0 0
v -0.015 -0.010 -0.653 0 0 0
v -0.015 0.047 -0.653 0 0 0
v 0.015 0.047 -0.653 0 0 0
v 0.034 0.047 -0.649 0 0 0
v -0.034 0.047 -0.649 0 0 0
v 0.051 0.047 -0.638 0 0 0
v -0.051 0.047 -0.638 0 0 0
v 0.062 0.047 -0.621 0 0 0
v -0.062 0.047 -0.621 0 0 0
v 0.066 0.047 -0.601 0 0 0
v -0.066 0.047 -0.601 0 0 0
v 0.066 0.047 -0.204 0 0 0
v -0.066 0.047 -0.204 0 0 0
v -0.063 0.047 -0.184 0 0 0
v 0.063 0.047 -0.184 0 0 0
v -0.054 0.047 -0.168 0 0 0
v 0.054 0.047 -0.168 0 0 0
v -0.041 0.047 -0.157 0 0 0
v 0.041 0.047 -0.157 0 0 0
v -0.025 0.047 -0.153 0 0 0
v 0.025 0.047 -0.153 0 0 0
v 0.025 0.047 -0.022 0 0 0
v -0.025 0.047 -0.022 0 0 0
v -0.025 0.047 -0.000 0 0 0
v 0.025 0.047 -0.000 0 0 0
v -0.025 0.047 0.022 0 0 0
v 0.025 0.047 0.022 0 0 0
v 0.014 0.047 0.030 0 0 0
v -0.014 0.047 0.030 0 0 0
v -0.025 0.047 0.022 0 0 0
v -0.025 -0.010 0.022 0 0 0
v -0.025 0.047 -0.000 0 0 0
v -0.025 -0.010 -0.000 0 0 0
v -0.025 -0.010 -0.022 0 0 0
v -0.025 0.047 -0.022 0 0 0
v -0.025 0.047 -0.153 0 0 0
v -0.025 -0.010 -0.153 0 0 0
v -0.066 0.047 -0.204 0 0 0
v -0.066 -0.010 -0.204 0 0 0
v -0.066 -0.010 -0.601 0 0 0
v -0.066 0.047 -0.601 0 0 0
v -0.062 -0.010 -0.621 0 0 0
v -0.062 0.047 -0.621 0 0 0
v -0.051 -0.010 -0.638 0 0 0
v -0.051 0.047 -0.638 0 0 0
v -0.034 -0.010 -0.649 0 0 0
v -0.034 0.047 -0.649 0 0 0
v -0.015 -0.010 -0.653 0 0 0
v -0.015 0.047 -0.653 0 0 0
v 0.025 0.047 -0.153 0 0 0
v 0.025 -0.010 -0.153 0 0 0
v 0.025 0.047 -0.022 0 0 0
v 0.025 -0.010 -0.022 0 0 0
v 0.025 0.047 -0.000 0 0 0
v 0.025 -0.010 -0.000 0 0 0
v 0.025 0.047 0.022 0 0 0
v 0.025 -0.010 0.022 0 0 0
v 0.014 0.047 0.030 0 0 0
v 0.025 0.047 0.022 0 0 0
v 0.025 -0.010 0.022 0 0 0
v 0.014 -0.010 0.030 0 0 0
v -0.014 0.047 0.030 0 0 0
v -0.014 -0.010 0.030 0 0 0
v -0.025 0.047 0.022 0 0 0
v -0.014 0.047 0.030 0 0 0
v -0.014 -0.010 0.030 0 0 0
v -0.025 -0.010 0.022 0 0 0
v -0.015 0.047 -0.653 0 0 0
v -0.015 -0.010 -0.653 0 0 0
v 0.015 0.047 -0.653 0 0 0
v 0.015 -0.010 -0.653 0 0 0
v 0.034 -0.010 -0.649 0 0 0
v 0.034 0.047 -0.649 0 0 0
v 0.051 -0.010 -0.638 0 0 0
v 0.051 0.047 -0.638 0 0 0
v 0.062 -0.010 -0.621 0 0 0
v 0.062 0.047 -0.621 0 0 0
v 0.066 -0.010 -0.601 0 0 0
v 0.066 0.047 -0.601 0 0 0
v 0.066 0.047 -0.204 0 0 0
v 0.066 -0.010 -0.204 0 0 0
v 0.063 -0.010 -0.184 0 0 0
v 0.063 0.047 -0.184 0 0 0
v -0.041 -0.010 -0.157 0 0 0
v -0.041 0.047 -0.157 0 0 0
v -0.025 0.047 -0.153 0 0 0
v -0.025 -0.010 -0.153 0 0 0
v -0.041 -0.010 -0.157 0 0 0
v -0.054 -0.010 -0.168 0 0 0
v -0.041 0.047 -0.157 0 0 0
v -0.054 0.047 -0.168 0 0 0
v -0.063 -0.010 -0.184 0 0 0
v -0.063 0.047 -0.184 0 0 0
v -0.066 -0.010 -0.204 0 0 0
v -0.066 0.047 -0.204 0 0 0
v 0.063 -0.010 -0.184 0 0 0
v 0.054 -0.010 -0.168 0 0 0
v 0.063 0.047 -0.184 0 0 0
v 0.054 0.047 -0.168 0 0 0
v 0.041 -0.010 -0.157 0 0 0
v 0.041 0.047 -0.157 0 0 0
v 0.025 -0.010 -0.153 0 0 0
v 0.025 0.047 -0.153 0 0 0
v -0.046 0.062 0.010 0 0 0
v -0.050 0.062 0.029 0 0 0
v -0.050 0.000 0.029 0 0 0
v -0.046 0.000 0.010 0 0 0
v -0.050 -0.024 0.029 0 0 0
v -0.046 -0.024 0.010 0 0 0
v -0.035 -0.024 -0.007 0 0 0
v -0.035 -0.000 -0.007 0 0 0
v -0.035 0.062 -0.007 0 0 0
v -0.019 -0.024 -0.017 0 0 0
v -0.019 -0.000 -0.017 0 0 0
v -0.019 0.062 -0.017 0 0 0
v -0.000 0.062 -0.021 0 0 0
v -0.000 -0.000 -0.021 0 0 0
v -0.000 -0.024 -0.021 0 0 0
v 0.019 0.062 -0.017 0 0 0
v -0.000 0.062 -0.021 0 0 0
v -0.000 -0.000 -0.021 0 0 0
v 0.019 -0.000 -0.017 0 0 0
v -0.000 -0.024 -0.021 0 0 0
v 0.019 -0.024 -0.017 0 0 0
v 0.035 -0.024 -0.007 0 0 0
v 0.035 -0.000 -0.007 0 0 0
v 0.035 0.062 -0.007 0 0 0
v 0.046 -0.024 0.010 0 0 0
v 0.046 0.000 0.010 0 0 0
v 0.046 0.062 0.010 0 0 0
v 0.050 -0.024 0.029 0 0 0
v 0.050 0.000 0.029 0 0 0
v 0.046 -0.024 0.048 0 0 0
v 0.050 0.062 0.029 0 0 0
v 0.046 0.000 0.048 0 0 0
v 0.046 0.062 0.048 0 0 0
v -0.046 -0.024 0.048 0 0 0
v -0.035 -0.024 0.064 0 0 0
v -0.019 -0.024 0.074 0 0 0
v -0.001 -0.024 0.031 0 0 0
v -0.003 -0.024 0.030 0 0 0
v -0.050 -0.024 0.029 0 0 0
v -0.003 -0.024 0.027 0 0 0
v -0.046 -0.024 0.010 0 0 0
v -0.001 -0.024 0.026 0 0 0
v -0.035 -0.024 -0.007 0 0 0
v -0.019 -0.024 -0.017 0 0 0
v 0.001 -0.024 0.031 0 0 0
v 0.019 -0.024 -0.017 0 0 0
v -0.000 -0.024 -0.021 0 0 0
v 0.001 -0.024 0.026 0 0 0
v 0.035 -0.024 -0.007 0 0 0
v 0.046 -0.024 0.010 0 0 0
v 0.003 -0.024 0.027 0 0 0
v 0.050 -0.024 0.029 0 0 0
v 0.003 -0.024 0.030 0 0 0
v 0.046 -0.024 0.048 0 0 0
v 0.019 -0.024 0.074 0 0 0
v 0.000 -0.024 0.078 0 0 0
v 0.035 -0.024 0.064 0 0 0
v -0.019 0.062 0.074 0 0 0
v 0.000 0.062 0.078 0 0 0
v -0.019 0.000 0.074 0 0 0
v 0.000 0.000 0.078 0 0 0
v -0.019 -0.024 0.074 0 0 0
v 0.019 0.062 0.074 0 0 0
v 0.000 -0.024 0.078 0 0 0
v 0.019 0.000 0.074 0 0 0
v 0.035 0.062 0.064 0 0 0
v 0.019 -0.024 0.074 0 0 0
v 0.035 0.000 0.064 0 0 0
v 0.046 0.062 0.048 0 0 0
v 0.035 -0.024 0.064 0 0 0
v 0.046 0.000 0.048 0 0 0
v 0.046 -0.024 0.048 0 0 0
v -0.050 -0.024 0.029 0 0 0
v -0.050 0.000 0.029 0 0 0
v -0.046 -0.024 0.048 0 0 0
v -0.046 0.000 0.048 0 0 0
v -0.050 0.062 0.029 0 0 0
v -0.046 0.062 0.048 0 0 0
v -0.035 0.062 0.064 0 0 0
v -0.035 0.000 0.064 0 0 0
v -0.019 0.062 0.074 0 0 0
v -0.035 -0.024 0.064 0 0 0
v -0.019 0.000 0.074 0 0 0
v -0.019 -0.024 0.074 0 0 0
v -0.035 0.062 -0.007 0 0 0
v -0.019 0.062 -0.017 0 0 0
v 0.000 0.062 0.029 0 0 0
v -0.000 0.062 -0.021 0 0 0
v -0.046 0.062 0.010 0 0 0
v 0.019 0.062 -0.017 0 0 0
v -0.050 0.062 0.029 0 0 0
v 0.035 0.062 -0.007 0 0 0
v -0.046 0.062 0.048 0 0 0
v 0.046 0.062 0.010 0 0 0
v -0.035 0.062 0.064 0 0 0
v 0.050 0.062 0.029 0 0 0
v -0.019 0.062 0.074 0 0 0
v 0.046 0.062 0.048 0 0 0
v 0.000 0.062 0.078 0 0 0
v 0.035 0.062 0.064 0 0 0
v 0.019 0.062 0.074 0 0 0

# Normal Array
vn -0.000 -1.000 0.000
vn 0.000 -1.000 0.000
vn 0.000 -1.000 -0.000
vn 0.000 -1.000 0.000
vn 0.000 -1.000 0.000
vn 0.000 -1.000 0.000
vn 0.000 -1.000 0.000
vn 0.000 -1.000 0.000
vn 0.000 -1.000 0.000
vn 0.000 -1.000 0.000
vn 0.000 -1.000 0.000
vn 0.000 -1.000 0.000
vn 0.000 -1.000 0.000
vn 0.000 -1.000 0.000
vn 0.000 -1.000 0.000
vn 0.000 -1.000 0.000
vn 0.000 -1.000 0.000
vn 0.000 -1.000 0.000
vn 0.000 -1.000 0.000
vn 0.000 -1.000 0.000
vn -0.000 1.000 0.000
vn -0.000 1.000 -0.000
vn -0.000 1.000 -0.000
vn -0.000 1.000 -0.000
vn -0.000 1.000 0.000
vn -0.000 1.000 -0.000
vn -0.000 1.000 -0.000
vn -0.000 1.000 -0.000
vn -0.000 1.000 -0.000
vn -0.000 1.000 -0.000
vn -0.000 1.000 -0.000
vn -0.000 1.000 -0.000
vn -0.000 1.000 0.000
vn -0.000 1.000 0.000
vn -0.000 1.000 0.000
vn -0.000 1.000 0.000
vn -0.000 1.000 0.000
vn -0.000 1.000 0.000
vn 0.000 1.000 -0.000
vn 0.000 1.000 -0.000
vn -0.000 1.000 0.000
vn -0.000 1.000 0.000
vn -0.000 1.000 0.000
vn 0.000 1.000 0.000
vn 0.000 1.000 0.000
vn 0.000 1.000 0.000
vn -1.000 0.000 0.000
vn -1.000 0.000 0.000
vn -1.000 0.000 0.000
vn -1.000 0.000 0.000
vn -1.000 0.000 0.000
vn -1.000 0.000 0.000
vn -1.000 -0.000 -0.000
vn -1.000 -0.000 -0.000
vn -0.981 -0.000 -0.195
vn -0.981 -0.000 -0.195
vn -0.831 -0.000 -0.556
vn -0.831 -0.000 -0.556
vn -0.556 -0.000 -0.831
vn -0.556 -0.000 -0.831
vn -0.195 -0.000 -0.981
vn -0.195 -0.000 -0.981
vn 1.000 0.000 -0.000
vn 1.000 -0.000 -0.000
vn 1.000 -0.000 -0.000
vn 1.000 -0.000 -0.000
vn 1.000 -0.000 -0.000
vn 1.000 -0.000 -0.000
vn 0.605 0.000 0.796
vn 0.605 0.000 0.796
vn 0.000 0.000 1.000
vn 0.000 0.000 1.000
vn -0.605 0.000 0.796
vn -0.605 0.000 0.796
vn 0.000 0.000 -1.000
vn 0.000 0.000 -1.000
vn 0.195 0.000 -0.981
vn 0.195 -0.000 -0.981
vn 0.556 -0.000 -0.831
vn 0.556 -0.000 -0.831
vn 0.831 -0.000 -0.556
vn 0.831 -0.000 -0.556
vn 0.981 -0.000 -0.195
vn 0.981 -0.000 -0.195
vn 1.000 -0.000 -0.000
vn 1.000 -0.000 -0.000
vn 0.987 -0.000 0.159
vn 0.987 -0.000 0.159
vn -0.239 0.000 0.971
vn -0.239 0.000 0.971
vn -0.638 0.000 0.770
vn -0.638 0.000 0.770
vn -0.880 0.000 0.475
vn -0.880 0.000 0.475
vn -0.987 0.000 0.159
vn -0.987 0.000 0.159
vn 0.880 -0.000 0.475
vn 0.880 -0.000 0.475
vn 0.638 -0.000 0.770
vn 0.638 -0.000 0.770
vn 0.239 -0.000 0.971
vn 0.239 -0.000 0.971
vn -0.981 -0.000 -0.195
vn -0.981 0.000 -0.195
vn -0.981 -0.000 -0.195
vn -0.981 -0.000 -0.195
vn -0.831 -0.000 -0.556
vn -0.831 -0.000 -0.556
vn -0.831 -0.000 -0.556
vn -0.831 -0.000 -0.556
vn -0.556 -0.000 -0.831
vn -0.556 -0.000 -0.831
vn -0.556 -0.000 -0.831
vn -0.556 -0.000 -0.831
vn -0.195 -0.000 -0.981
vn -0.195 -0.000 -0.981
vn -0.195 -0.000 -0.981
vn -0.195 -0.000 -0.981
vn 0.195 -0.000 -0.981
vn 0.195 -0.000 -0.981
vn 0.195 -0.000 -0.981
vn 0.195 -0.000 -0.981
vn 0.556 -0.000 -0.831
vn 0.556 -0.000 -0.831
vn 0.556 -0.000 -0.831
vn 0.556 -0.000 -0.831
vn 0.831 -0.000 -0.556
vn 0.831 -0.000 -0.556
vn 0.831 -0.000 -0.556
vn 0.831 -0.000 -0.556
vn 0.981 -0.000 -0.195
vn 0.981 0.000 -0.195
vn 0.981 -0.000 -0.195
vn 0.981 0.000 0.195
vn 0.981 0.000 -0.195
vn 0.981 0.000 0.195
vn 0.981 0.000 0.195
vn 0.981 0.000 0.195
vn 0.000 -1.000 -0.000
vn 0.000 -1.000 0.000
vn -0.000 -1.000 0.000
vn -0.000 -1.000 0.000
vn 0.000 -1.000 0.000
vn 0.000 -1.000 0.000
vn 0.000 -1.000 0.000
vn 0.000 -1.000 0.000
vn -0.000 -1.000 0.000
vn 0.000 -1.000 0.000
vn 0.000 -1.000 0.000
vn -0.000 -1.000 0.000
vn 0.000 -1.000 0.000
vn 0.000 -1.000 0.000
vn -0.000 -1.000 0.000
vn -0.000 -1.000 0.000
vn -0.000 -1.000 0.000
vn 0.000 -1.000 0.000
vn 0.000 -1.000 0.000
vn 0.000 -1.000 0.000
vn 0.000 -1.000 0.000
vn -0.000 -1.000 0.000
vn 0.000 -1.000 0.000
vn -0.000 -1.000 -0.000
vn -0.195 0.000 0.981
vn -0.195 0.000 0.981
vn -0.195 0.000 0.981
vn 0.195 0.000 0.981
vn -0.195 -0.000 0.981
vn 0.195 0.000 0.981
vn 0.195 0.000 0.981
vn 0.556 0.000 0.831
vn 0.195 0.000 0.981
vn 0.556 0.000 0.831
vn 0.556 0.000 0.831
vn 0.831 0.000 0.556
vn 0.556 0.000 0.831
vn 0.831 0.000 0.556
vn 0.831 0.000 0.556
vn 0.831 0.000 0.556
vn -0.981 0.000 0.195
vn -0.981 0.000 0.195
vn -0.981 -0.000 0.195
vn -0.981 -0.000 0.195
vn -0.831 0.000 0.556
vn -0.831 0.000 0.556
vn -0.831 0.000 0.556
vn -0.556 0.000 0.831
vn -0.831 0.000 0.556
vn -0.556 0.000 0.831
vn -0.556 0.000 0.831
vn -0.556 0.000 0.831
vn -0.000 1.000 -0.000
vn -0.000 1.000 -0.000
vn -0.000 1.000 -0.000
vn 0.000 1.000 -0.000
vn 0.000 1.000 -0.000
vn 0.000 1.000 -0.000
vn 0.000 1.000 -0.000
vn 0.000 1.000 -0.000
vn 0.000 1.000 -0.000
vn -0.000 1.000 -0.000
vn -0.000 1.000 -0.000
vn -0.000 1.000 -0.000
vn 0.000 1.000 -0.000
vn -0.000 1.000 -0.000
vn -0.000 1.000 -0.000
vn 0.000 1.000 -0.000

# Facets
f 1//1 3//1 2//1
f 2//2 3//2 4//2
f 3//3 5//3 4//3
f 6//4 5//4 3//4
f 6//5 7//5 5//5
f 8//6 7//6 6//6
f 8//7 9//7 7//7
f 10//8 9//8 8//8
f 10//9 11//9 9//9
f 12//10 11//10 10//10
f 12//11 13//11 11//11
f 14//12 13//12 12//12
f 14//13 15//13 13//13
f 16//14 15//14 14//14
f 16//15 17//15 15//15
f 18//16 17//16 16//16
f 18//17 19//17 17//17
f 20//18 19//18 18//18
f 20//19 21//19 19//19
f 21//20 20//20 22//20
f 23//21 25//21 24//21
f 25//22 23//22 26//22
f 25//23 26//23 27//23
f 27//24 26//24 28//24
f 27//25 28//25 29//25
f 29//26 28//26 30//26
f 29//27 30//27 31//27
f 31//28 30//28 32//28
f 31//29 32//29 33//29
f 33//30 32//30 34//30
f 33//31 34//31 35//31
f 33//32 35//32 36//32
f 36//33 35//33 37//33
f 36//34 37//34 38//34
f 38//35 37//35 39//35
f 38//36 39//36 40//36
f 40//37 39//37 41//37
f 40//38 41//38 42//38
f 42//39 41//39 43//39
f 43//40 41//40 44//40
f 45//41 43//41 44//41
f 43//42 45//42 46//42
f 46//43 45//43 47//43
f 46//44 47//44 48//44
f 48//45 47//45 49//45
f 49//46 47//46 50//46
f 51//47 53//47 52//47
f 52//48 53//48 54//48
f 54//49 53//49 55//49
f 55//50 53//50 56//50
f 57//51 55//51 56//51
f 58//52 55//52 57//52
f 59//53 61//53 60//53
f 62//54 61//54 59//54
f 62//55 63//55 61//55
f 64//56 63//56 62//56
f 64//57 65//57 63//57
f 66//58 65//58 64//58
f 66//59 67//59 65//59
f 68//60 67//60 66//60
f 68//61 69//61 67//61
f 70//62 69//62 68//62
f 71//63 73//63 72//63
f 72//64 73//64 74//64
f 73//65 75//65 74//65
f 74//66 75//66 76//66
f 75//67 77//67 76//67
f 76//68 77//68 78//68
f 79//69 81//69 80//69
f 82//70 81//70 79//70
f 79//71 83//71 82//71
f 82//72 83//72 84//72
f 85//73 87//73 86//73
f 88//74 87//74 85//74
f 89//75 91//75 90//75
f 90//76 91//76 92//76
f 91//77 93//77 92//77
f 94//78 93//78 91//78
f 94//79 95//79 93//79
f 96//80 95//80 94//80
f 96//81 97//81 95//81
f 98//82 97//82 96//82
f 98//83 99//83 97//83
f 100//84 99//84 98//84
f 101//85 99//85 100//85
f 102//86 99//86 101//86
f 102//87 101//87 103//87
f 103//88 101//88 104//88
f 105//89 107//89 106//89
f 108//90 107//90 105//90
f 109//91 111//91 110//91
f 110//92 111//92 112//92
f 110//93 112//93 113//93
f 113//94 112//94 114//94
f 113//95 114//95 115//95
f 115//96 114//96 116//96
f 117//97 119//97 118//97
f 118//98 119//98 120//98
f 118//99 120//99 121//99
f 121//100 120//100 122//100
f 121//101 122//101 123//101
f 123//102 122//102 124//102
f 125//103 127//103 126//103
f 128//104 127//104 125//104
f 128//105 129//105 127//105
f 130//106 129//106 128//106
f 128//107 131//107 130//107
f 125//108 132//108 128//108
f 132//109 131//109 128//109
f 133//110 132//110 125//110
f 132//111 134//111 131//111
f 133//112 135//112 132//112
f 135//113 134//113 132//113
f 136//114 135//114 133//114
f 137//115 135//115 136//115
f 138//116 135//116 137//116
f 138//117 134//117 135//117
f 139//118 134//118 138//118
f 140//119 142//119 141//119
f 143//120 142//120 140//120
f 143//121 144//121 142//121
f 145//122 144//122 143//122
f 143//123 146//123 145//123
f 140//124 147//124 143//124
f 147//125 146//125 143//125
f 148//126 147//126 140//126
f 147//127 149//127 146//127
f 148//128 150//128 147//128
f 150//129 149//129 147//129
f 151//130 150//130 148//130
f 150//131 152//131 149//131
f 151//132 153//132 150//132
f 153//133 152//133 150//133
f 153//134 154//134 152//134
f 155//135 153//135 151//135
f 156//136 154//136 153//136
f 155//137 156//137 153//137
f 157//138 156//138 155//138
f 158//139 160//139 159//139
f 158//140 161//140 160//140
f 161//141 158//141 162//141
f 163//142 162//142 158//142
f 163//143 164//143 162//143
f 164//144 163//144 165//144
f 165//145 166//145 164//145
f 167//146 166//146 165//146
f 166//147 167//147 168//147
f 169//148 160//148 161//148
f 168//149 170//149 166//149
f 170//150 168//150 171//150
f 166//151 170//151 172//151
f 173//152 172//152 170//152
f 172//153 173//153 174//153
f 172//154 174//154 175//154
f 176//155 175//155 174//155
f 175//156 176//156 177//156
f 177//157 176//157 178//157
f 178//158 169//158 177//158
f 160//159 169//159 179//159
f 169//160 178//160 179//160
f 160//161 179//161 180//161
f 179//162 178//162 181//162
f 182//163 184//163 183//163
f 183//164 184//164 185//164
f 184//165 186//165 185//165
f 183//166 185//166 187//166
f 185//167 186//167 188//167
f 187//168 185//168 189//168
f 185//169 188//169 189//169
f 187//170 189//170 190//170
f 189//171 188//171 191//171
f 190//172 189//172 192//172
f 189//173 191//173 192//173
f 190//174 192//174 193//174
f 192//175 191//175 194//175
f 193//176 192//176 195//176
f 192//177 194//177 195//177
f 195//178 194//178 196//178
f 197//179 199//179 198//179
f 198//180 199//180 200//180
f 198//181 200//181 201//181
f 201//182 200//182 202//182
f 202//183 200//183 203//183
f 200//184 199//184 204//184
f 203//185 200//185 204//185
f 203//186 204//186 205//186
f 204//187 199//187 206//187
f 205//188 204//188 207//188
f 204//189 206//189 207//189
f 207//190 206//190 208//190
f 209//191 211//191 210//191
f 210//192 211//192 212//192
f 213//193 211//193 209//193
f 212//194 211//194 214//194
f 215//195 211//195 213//195
f 214//196 211//196 216//196
f 217//197 211//197 215//197
f 216//198 211//198 218//198
f 219//199 211//199 217//199
f 218//200 211//200 220//200
f 221//201 211//201 219//201
f 220//202 211//202 222//202
f 223//203 211//203 221//203
f 222//204 211//204 224//204
f 225//205 211//205 223//205
f 224//206 211//206 225//206

# Thank you for using Spin 3D

