# Created using Spin 3D

# Vertex Array 
v -0.501 0.200 -0.250 0 0 0
v 0.050 0.200 -0.250 0 0 0
v 0.050 0.200 0.250 0 0 0
v -0.501 0.200 0.250 0 0 0
v -0.501 0.142 0.250 0 0 0
v -0.501 0.200 0.250 0 0 0
v 0.050 0.200 0.250 0 0 0
v -0.050 0.142 0.250 0 0 0
v 0.050 -0.800 0.250 0 0 0
v -0.050 -0.858 0.250 0 0 0
v 0.501 -0.858 0.250 0 0 0
v 0.501 -0.800 0.250 0 0 0
v 0.501 -0.858 -0.250 0 0 0
v -0.050 -0.858 -0.250 0 0 0
v -0.050 -0.858 0.250 0 0 0
v 0.501 -0.858 0.250 0 0 0
v 0.501 -0.858 -0.250 0 0 0
v 0.501 -0.800 -0.250 0 0 0
v 0.050 -0.800 -0.250 0 0 0
v -0.050 -0.858 -0.250 0 0 0
v 0.050 0.200 -0.250 0 0 0
v -0.050 0.142 -0.250 0 0 0
v -0.501 0.200 -0.250 0 0 0
v -0.501 0.142 -0.250 0 0 0
v 0.501 -0.800 -0.250 0 0 0
v 0.501 -0.858 -0.250 0 0 0
v 0.501 -0.858 0.250 0 0 0
v 0.501 -0.800 0.250 0 0 0
v 0.501 -0.800 -0.250 0 0 0
v 0.501 -0.800 0.250 0 0 0
v 0.050 -0.800 0.250 0 0 0
v 0.050 -0.800 -0.250 0 0 0
v -0.501 0.142 -0.250 0 0 0
v -0.501 0.200 -0.250 0 0 0
v -0.501 0.200 0.250 0 0 0
v -0.501 0.142 0.250 0 0 0
v 0.050 0.200 -0.250 0 0 0
v 0.050 -0.800 -0.250 0 0 0
v 0.050 -0.800 0.250 0 0 0
v 0.050 0.200 0.250 0 0 0
v -0.501 0.142 -0.250 0 0 0
v -0.501 0.142 0.250 0 0 0
v -0.050 0.142 0.250 0 0 0
v -0.050 0.142 -0.250 0 0 0
v -0.050 -0.858 -0.250 0 0 0
v -0.050 0.142 -0.250 0 0 0
v -0.050 0.142 0.250 0 0 0
v -0.050 -0.858 0.250 0 0 0

# Normal Array
vn 0.000 1.000 -0.000
vn 0.000 1.000 -0.000
vn -0.000 0.000 1.000
vn -0.000 -0.000 1.000
vn -0.000 0.000 1.000
vn -0.000 0.000 1.000
vn -0.000 -0.000 1.000
vn -0.000 0.000 1.000
vn -0.000 -1.000 0.000
vn -0.000 -1.000 0.000
vn 0.000 -0.000 -1.000
vn 0.000 -0.000 -1.000
vn 0.000 -0.000 -1.000
vn 0.000 -0.000 -1.000
vn 0.000 -0.000 -1.000
vn 0.000 -0.000 -1.000
vn 1.000 0.000 0.000
vn 1.000 0.000 0.000
vn 0.000 1.000 -0.000
vn 0.000 1.000 -0.000
vn -1.000 -0.000 -0.000
vn -1.000 -0.000 -0.000
vn 1.000 -0.000 0.000
vn 1.000 -0.000 0.000
vn -0.000 -1.000 0.000
vn -0.000 -1.000 0.000
vn -1.000 -0.000 -0.000
vn -1.000 0.000 -0.000

# Facets
f 1//1 3//1 2//1
f 4//2 3//2 1//2
f 5//3 7//3 6//3
f 7//4 5//4 8//4
f 7//5 8//5 9//5
f 10//6 9//6 8//6
f 9//7 10//7 11//7
f 9//8 11//8 12//8
f 13//9 15//9 14//9
f 16//10 15//10 13//10
f 17//11 19//11 18//11
f 19//12 17//12 20//12
f 20//13 21//13 19//13
f 22//14 21//14 20//14
f 22//15 23//15 21//15
f 23//16 22//16 24//16
f 25//17 27//17 26//17
f 28//18 27//18 25//18
f 29//19 31//19 30//19
f 32//20 31//20 29//20
f 33//21 35//21 34//21
f 36//22 35//22 33//22
f 37//23 39//23 38//23
f 40//24 39//24 37//24
f 41//25 43//25 42//25
f 44//26 43//26 41//26
f 45//27 47//27 46//27
f 48//28 47//28 45//28

# Thank you for using Spin 3D

