# Created using Spin 3D

# Vertex Array 
v -0.501 0.200 -0.250 0 0 0
v -0.150 0.200 -0.250 0 0 0
v -0.150 0.200 -0.000 0 0 0
v -0.501 0.200 -0.000 0 0 0
v -0.150 0.200 0.250 0 0 0
v -0.501 0.200 0.250 0 0 0
v -0.250 -0.858 -0.250 0 0 0
v -0.250 0.142 -0.250 0 0 0
v -0.250 0.142 -0.000 0 0 0
v -0.250 -0.858 -0.000 0 0 0
v -0.250 0.142 0.250 0 0 0
v -0.250 -0.858 0.250 0 0 0
v -0.501 0.142 0.250 0 0 0
v -0.501 0.200 0.250 0 0 0
v -0.150 0.200 0.250 0 0 0
v -0.250 0.142 0.250 0 0 0
v -0.150 -0.858 0.250 0 0 0
v -0.250 -0.858 0.250 0 0 0
v -0.501 0.142 0.250 0 0 0
v -0.250 0.142 0.250 0 0 0
v -0.250 0.142 -0.000 0 0 0
v -0.501 0.142 -0.000 0 0 0
v -0.250 0.142 -0.250 0 0 0
v -0.501 0.142 -0.250 0 0 0
v -0.501 0.200 0.250 0 0 0
v -0.501 0.142 0.250 0 0 0
v -0.501 0.142 -0.000 0 0 0
v -0.501 0.200 -0.000 0 0 0
v -0.501 0.142 -0.250 0 0 0
v -0.501 0.200 -0.250 0 0 0
v -0.501 0.200 -0.250 0 0 0
v -0.501 0.142 -0.250 0 0 0
v -0.250 0.142 -0.250 0 0 0
v -0.150 0.200 -0.250 0 0 0
v -0.250 -0.858 -0.250 0 0 0
v -0.150 -0.800 -0.250 0 0 0
v -0.150 -0.858 -0.250 0 0 0
v -0.150 -0.858 -0.250 0 0 0
v -0.250 -0.858 -0.250 0 0 0
v -0.250 -0.858 -0.000 0 0 0
v -0.150 -0.858 -0.000 0 0 0
v -0.250 -0.858 0.250 0 0 0
v -0.150 -0.858 0.250 0 0 0
v -0.150 -0.858 -0.250 0 0 0
v -0.150 -0.858 -0.000 0 0 0
v -0.150 -0.800 -0.000 0 0 0
v -0.150 -0.800 -0.250 0 0 0
v -0.150 0.200 -0.250 0 0 0
v -0.150 -0.800 -0.250 0 0 0
v -0.150 0.200 -0.000 0 0 0
v -0.150 -0.800 -0.000 0 0 0
v -0.150 0.200 0.250 0 0 0
v -0.150 -0.858 0.250 0 0 0
v -0.150 -0.858 -0.000 0 0 0
v 0.250 -0.800 0.250 0 0 0
v 0.250 -0.800 -0.250 0 0 0
v 0.250 -0.858 0.250 0 0 0
v 0.250 -0.858 -0.250 0 0 0
v 0.250 -0.800 -0.500 0 0 0
v 0.250 -0.858 -0.500 0 0 0
v 0.250 -0.858 0.250 0 0 0
v 0.250 -0.858 -0.250 0 0 0
v -0.250 -0.858 0.250 0 0 0
v -0.250 -0.858 -0.250 0 0 0
v 0.250 -0.858 -0.500 0 0 0
v -0.250 -0.858 -0.500 0 0 0
v -0.250 -0.800 0.250 0 0 0
v -0.250 -0.800 -0.250 0 0 0
v 0.250 -0.800 0.250 0 0 0
v 0.250 -0.800 -0.250 0 0 0
v -0.250 -0.800 -0.500 0 0 0
v 0.250 -0.800 -0.500 0 0 0
v 0.250 -0.800 0.250 0 0 0
v 0.250 -0.858 0.250 0 0 0
v -0.250 -0.858 0.250 0 0 0
v -0.250 -0.800 0.250 0 0 0
v -0.250 -0.800 -0.500 0 0 0
v -0.250 -0.858 -0.500 0 0 0
v 0.250 -0.858 -0.500 0 0 0
v 0.250 -0.800 -0.500 0 0 0
v -0.250 -0.858 -0.250 0 0 0
v -0.250 -0.858 -0.500 0 0 0
v -0.250 -0.800 -0.500 0 0 0
v -0.250 -0.858 0.250 0 0 0
v -0.250 -0.800 -0.250 0 0 0
v -0.250 -0.800 0.250 0 0 0

# Normal Array
vn 0.000 1.000 -0.000
vn 0.000 1.000 -0.000
vn 0.000 1.000 -0.000
vn 0.000 1.000 -0.000
vn -1.000 -0.000 -0.000
vn -1.000 -0.000 -0.000
vn -1.000 -0.000 -0.000
vn -1.000 0.000 -0.000
vn -0.000 0.000 1.000
vn -0.000 0.000 1.000
vn -0.000 0.000 1.000
vn -0.000 0.000 1.000
vn -0.000 -1.000 0.000
vn -0.000 -1.000 0.000
vn -0.000 -1.000 0.000
vn -0.000 -1.000 0.000
vn -1.000 -0.000 -0.000
vn -1.000 -0.000 -0.000
vn -1.000 -0.000 -0.000
vn -1.000 -0.000 -0.000
vn 0.000 -0.000 -1.000
vn 0.000 -0.000 -1.000
vn 0.000 -0.000 -1.000
vn 0.000 -0.000 -1.000
vn 0.000 0.000 -1.000
vn -0.000 -1.000 0.000
vn 0.000 -1.000 0.000
vn 0.000 -1.000 0.000
vn 0.000 -1.000 0.000
vn 1.000 0.000 0.000
vn 1.000 0.000 0.000
vn 1.000 -0.000 0.000
vn 1.000 -0.000 0.000
vn 1.000 -0.000 0.000
vn 1.000 -0.000 0.000
vn 1.000 0.000 0.000
vn 1.000 0.000 0.000
vn 1.000 0.000 0.000
vn 1.000 0.000 0.000
vn 1.000 0.000 0.000
vn 0.000 -1.000 0.000
vn 0.000 -1.000 0.000
vn 0.000 -1.000 0.000
vn 0.000 -1.000 0.000
vn -0.000 1.000 -0.000
vn -0.000 1.000 -0.000
vn -0.000 1.000 -0.000
vn -0.000 1.000 -0.000
vn -0.000 0.000 1.000
vn -0.000 0.000 1.000
vn 0.000 0.000 -1.000
vn 0.000 0.000 -1.000
vn -1.000 0.000 -0.000
vn -1.000 -0.000 -0.000
vn -1.000 0.000 -0.000
vn -1.000 0.000 -0.000

# Facets
f 1//1 3//1 2//1
f 4//2 3//2 1//2
f 4//3 5//3 3//3
f 6//4 5//4 4//4
f 7//5 9//5 8//5
f 10//6 9//6 7//6
f 10//7 11//7 9//7
f 12//8 11//8 10//8
f 13//9 15//9 14//9
f 15//10 13//10 16//10
f 15//11 16//11 17//11
f 18//12 17//12 16//12
f 19//13 21//13 20//13
f 22//14 21//14 19//14
f 22//15 23//15 21//15
f 24//16 23//16 22//16
f 25//17 27//17 26//17
f 28//18 27//18 25//18
f 28//19 29//19 27//19
f 30//20 29//20 28//20
f 31//21 33//21 32//21
f 33//22 31//22 34//22
f 33//23 34//23 35//23
f 35//24 34//24 36//24
f 35//25 36//25 37//25
f 38//26 40//26 39//26
f 40//27 38//27 41//27
f 40//28 41//28 42//28
f 42//29 41//29 43//29
f 44//30 46//30 45//30
f 47//31 46//31 44//31
f 48//32 50//32 49//32
f 49//33 50//33 51//33
f 52//34 51//34 50//34
f 53//35 51//35 52//35
f 51//36 53//36 54//36
f 55//37 57//37 56//37
f 56//38 57//38 58//38
f 56//39 58//39 59//39
f 59//40 58//40 60//40
f 61//41 63//41 62//41
f 62//42 63//42 64//42
f 62//43 64//43 65//43
f 65//44 64//44 66//44
f 67//45 69//45 68//45
f 68//46 69//46 70//46
f 68//47 70//47 71//47
f 71//48 70//48 72//48
f 73//49 75//49 74//49
f 76//50 75//50 73//50
f 77//51 79//51 78//51
f 80//52 79//52 77//52
f 81//53 83//53 82//53
f 83//54 81//54 84//54
f 83//55 84//55 85//55
f 85//56 84//56 86//56

# Thank you for using Spin 3D

