# Created using Spin 3D

# Vertex Array 
v -0.500 0.200 -0.250 0 0 0
v 0.500 0.200 -0.250 0 0 0
v 0.500 0.200 0.250 0 0 0
v -0.500 0.200 0.250 0 0 0
v -0.500 0.200 -0.250 0 0 0
v -0.500 0.100 -0.250 0 0 0
v 0.500 0.100 -0.250 0 0 0
v 0.500 0.200 -0.250 0 0 0
v -0.500 0.200 0.250 0 0 0
v -0.500 0.100 0.250 0 0 0
v -0.500 0.100 -0.250 0 0 0
v -0.500 0.200 -0.250 0 0 0
v 0.500 0.100 -0.250 0 0 0
v -0.500 0.100 -0.250 0 0 0
v -0.500 0.100 0.250 0 0 0
v 0.500 0.100 0.250 0 0 0
v 0.500 0.200 -0.250 0 0 0
v 0.500 0.100 -0.250 0 0 0
v 0.500 0.100 0.250 0 0 0
v 0.500 0.200 0.250 0 0 0
v 0.500 0.200 0.250 0 0 0
v 0.500 0.100 0.250 0 0 0
v -0.500 0.100 0.250 0 0 0
v -0.500 0.200 0.250 0 0 0
v 0.250 0.200 0.250 0 0 0
v 0.250 0.200 0.500 0 0 0
v -0.250 0.200 0.500 0 0 0
v -0.250 0.200 0.250 0 0 0
v 0.250 0.200 0.250 0 0 0
v 0.250 0.100 0.250 0 0 0
v 0.250 0.100 0.500 0 0 0
v 0.250 0.200 0.500 0 0 0
v -0.250 0.200 0.250 0 0 0
v -0.250 0.100 0.250 0 0 0
v 0.250 0.100 0.250 0 0 0
v 0.250 0.200 0.250 0 0 0
v 0.250 0.100 0.500 0 0 0
v 0.250 0.100 0.250 0 0 0
v -0.250 0.100 0.250 0 0 0
v -0.250 0.100 0.500 0 0 0
v 0.250 0.200 0.500 0 0 0
v 0.250 0.100 0.500 0 0 0
v -0.250 0.100 0.500 0 0 0
v -0.250 0.200 0.500 0 0 0
v -0.250 0.200 0.500 0 0 0
v -0.250 0.100 0.500 0 0 0
v -0.250 0.100 0.250 0 0 0
v -0.250 0.200 0.250 0 0 0
v -0.250 0.200 -0.250 0 0 0
v -0.250 0.200 -0.500 0 0 0
v 0.250 0.200 -0.500 0 0 0
v 0.250 0.200 -0.250 0 0 0
v -0.250 0.200 -0.250 0 0 0
v -0.250 0.100 -0.250 0 0 0
v -0.250 0.100 -0.500 0 0 0
v -0.250 0.200 -0.500 0 0 0
v 0.250 0.200 -0.250 0 0 0
v 0.250 0.100 -0.250 0 0 0
v -0.250 0.100 -0.250 0 0 0
v -0.250 0.200 -0.250 0 0 0
v -0.250 0.100 -0.500 0 0 0
v -0.250 0.100 -0.250 0 0 0
v 0.250 0.100 -0.250 0 0 0
v 0.250 0.100 -0.500 0 0 0
v -0.250 0.200 -0.500 0 0 0
v -0.250 0.100 -0.500 0 0 0
v 0.250 0.100 -0.500 0 0 0
v 0.250 0.200 -0.500 0 0 0
v 0.250 0.200 -0.500 0 0 0
v 0.250 0.100 -0.500 0 0 0
v 0.250 0.100 -0.250 0 0 0
v 0.250 0.200 -0.250 0 0 0

# Normal Array
vn -0.000 1.000 0.000
vn 0.000 1.000 -0.000
vn 0.000 0.000 -1.000
vn 0.000 -0.000 -1.000
vn -1.000 -0.000 0.000
vn -1.000 -0.000 0.000
vn -0.000 -1.000 -0.000
vn -0.000 -1.000 -0.000
vn 1.000 0.000 0.000
vn 1.000 0.000 0.000
vn 0.000 -0.000 1.000
vn -0.000 0.000 1.000
vn 0.000 1.000 0.000
vn 0.000 1.000 0.000
vn 1.000 0.000 0.000
vn 1.000 -0.000 0.000
vn 0.000 -0.000 -1.000
vn 0.000 0.000 -1.000
vn -0.000 -1.000 -0.000
vn -0.000 -1.000 -0.000
vn -0.000 0.000 1.000
vn -0.000 0.000 1.000
vn -1.000 0.000 -0.000
vn -1.000 0.000 -0.000
vn -0.000 1.000 0.000
vn -0.000 1.000 0.000
vn -1.000 -0.000 -0.000
vn -1.000 -0.000 0.000
vn 0.000 0.000 1.000
vn -0.000 0.000 1.000
vn 0.000 -1.000 0.000
vn 0.000 -1.000 0.000
vn 0.000 0.000 -1.000
vn 0.000 -0.000 -1.000
vn 1.000 0.000 0.000
vn 1.000 0.000 0.000

# Facets
f 1//1 3//1 2//1
f 4//2 3//2 1//2
f 5//3 7//3 6//3
f 8//4 7//4 5//4
f 9//5 11//5 10//5
f 12//6 11//6 9//6
f 13//7 15//7 14//7
f 16//8 15//8 13//8
f 17//9 19//9 18//9
f 20//10 19//10 17//10
f 21//11 23//11 22//11
f 24//12 23//12 21//12
f 25//13 27//13 26//13
f 28//14 27//14 25//14
f 29//15 31//15 30//15
f 32//16 31//16 29//16
f 33//17 35//17 34//17
f 36//18 35//18 33//18
f 37//19 39//19 38//19
f 40//20 39//20 37//20
f 41//21 43//21 42//21
f 44//22 43//22 41//22
f 45//23 47//23 46//23
f 48//24 47//24 45//24
f 49//25 51//25 50//25
f 52//26 51//26 49//26
f 53//27 55//27 54//27
f 56//28 55//28 53//28
f 57//29 59//29 58//29
f 60//30 59//30 57//30
f 61//31 63//31 62//31
f 64//32 63//32 61//32
f 65//33 67//33 66//33
f 68//34 67//34 65//34
f 69//35 71//35 70//35
f 72//36 71//36 69//36

# Thank you for using Spin 3D

