# Created using Spin 3D

# Vertex Array 
v 0.000 0.130 -0.250 0 0 0
v -0.250 0.130 -0.250 0 0 0
v -0.500 0.130 -0.250 0 0 0
v 0.500 0.130 -0.250 0 0 0
v -0.500 0.130 0.250 0 0 0
v 0.500 0.130 0.250 0 0 0
v 0.500 0.200 -0.250 0 0 0
v 0.000 0.200 -0.250 0 0 0
v 0.000 0.130 -0.250 0 0 0
v 0.500 0.130 -0.250 0 0 0
v -0.500 0.200 0.250 0 0 0
v 0.500 0.200 0.250 0 0 0
v 0.500 0.130 0.250 0 0 0
v -0.500 0.130 0.250 0 0 0
v -0.250 0.200 -0.250 0 0 0
v 0.000 0.200 -0.250 0 0 0
v 0.500 0.200 -0.250 0 0 0
v -0.500 0.200 -0.250 0 0 0
v 0.500 0.200 0.250 0 0 0
v -0.500 0.200 0.250 0 0 0
v -0.500 0.200 -0.250 0 0 0
v -0.500 0.130 -0.250 0 0 0
v -0.250 0.130 -0.250 0 0 0
v -0.250 0.200 -0.250 0 0 0
v 0.250 0.200 -0.500 0 0 0
v 0.250 0.130 -0.500 0 0 0
v 0.250 0.130 -0.250 0 0 0
v 0.250 0.200 -0.250 0 0 0
v -0.250 0.200 -0.500 0 0 0
v -0.250 0.200 -0.250 0 0 0
v -0.250 0.130 -0.250 0 0 0
v -0.250 0.130 -0.500 0 0 0
v -0.250 0.130 -0.250 0 0 0
v 0.250 0.130 -0.250 0 0 0
v 0.250 0.130 -0.500 0 0 0
v -0.250 0.130 -0.500 0 0 0
v 0.250 0.200 -0.500 0 0 0
v 0.250 0.200 -0.250 0 0 0
v -0.250 0.200 -0.250 0 0 0
v -0.250 0.200 -0.500 0 0 0
v 0.500 0.130 0.216 0 0 0
v -0.500 0.130 0.216 0 0 0
v -0.500 0.130 0.284 0 0 0
v 0.500 0.130 0.284 0 0 0
v 0.500 0.260 0.284 0 0 0
v -0.500 0.260 0.284 0 0 0
v -0.500 0.260 0.216 0 0 0
v 0.500 0.260 0.216 0 0 0
v 0.500 0.260 0.216 0 0 0
v -0.500 0.260 0.216 0 0 0
v -0.500 0.130 0.216 0 0 0
v 0.500 0.130 0.216 0 0 0
v -0.500 0.130 0.284 0 0 0
v -0.500 0.260 0.284 0 0 0
v 0.500 0.260 0.284 0 0 0
v 0.500 0.130 0.284 0 0 0
v -0.216 0.260 -0.500 0 0 0
v -0.216 0.130 -0.500 0 0 0
v -0.216 0.260 -0.316 0 0 0
v -0.216 0.130 -0.316 0 0 0
v -0.224 0.130 -0.278 0 0 0
v -0.224 0.260 -0.278 0 0 0
v -0.245 0.130 -0.245 0 0 0
v -0.245 0.260 -0.245 0 0 0
v -0.278 0.130 -0.224 0 0 0
v -0.278 0.260 -0.224 0 0 0
v -0.316 0.130 -0.216 0 0 0
v -0.316 0.260 -0.216 0 0 0
v -0.500 0.130 -0.216 0 0 0
v -0.500 0.260 -0.216 0 0 0
v 0.284 0.130 -0.500 0 0 0
v 0.216 0.130 -0.500 0 0 0
v 0.216 0.130 -0.316 0 0 0
v 0.284 0.130 -0.318 0 0 0
v 0.286 0.130 -0.305 0 0 0
v 0.224 0.130 -0.278 0 0 0
v 0.294 0.130 -0.294 0 0 0
v 0.305 0.130 -0.286 0 0 0
v 0.318 0.130 -0.284 0 0 0
v 0.500 0.130 -0.284 0 0 0
v 0.500 0.130 -0.216 0 0 0
v 0.245 0.130 -0.245 0 0 0
v 0.278 0.130 -0.224 0 0 0
v 0.316 0.130 -0.216 0 0 0
v -0.284 0.130 -0.500 0 0 0
v -0.284 0.260 -0.500 0 0 0
v -0.284 0.130 -0.317 0 0 0
v -0.284 0.260 -0.317 0 0 0
v -0.287 0.260 -0.304 0 0 0
v -0.287 0.130 -0.304 0 0 0
v -0.294 0.260 -0.293 0 0 0
v -0.294 0.130 -0.293 0 0 0
v -0.500 0.130 -0.283 0 0 0
v -0.318 0.130 -0.283 0 0 0
v -0.500 0.260 -0.284 0 0 0
v -0.318 0.260 -0.283 0 0 0
v -0.305 0.130 -0.286 0 0 0
v -0.305 0.260 -0.286 0 0 0
v -0.294 0.130 -0.293 0 0 0
v -0.294 0.260 -0.293 0 0 0
v -0.284 0.260 -0.500 0 0 0
v -0.216 0.260 -0.500 0 0 0
v -0.216 0.260 -0.316 0 0 0
v -0.284 0.260 -0.317 0 0 0
v -0.287 0.260 -0.304 0 0 0
v -0.224 0.260 -0.278 0 0 0
v -0.294 0.260 -0.293 0 0 0
v -0.305 0.260 -0.286 0 0 0
v -0.318 0.260 -0.283 0 0 0
v -0.500 0.260 -0.216 0 0 0
v -0.500 0.260 -0.284 0 0 0
v -0.245 0.260 -0.245 0 0 0
v -0.278 0.260 -0.224 0 0 0
v -0.316 0.260 -0.216 0 0 0
v 0.216 0.260 -0.500 0 0 0
v 0.284 0.260 -0.500 0 0 0
v 0.284 0.260 -0.318 0 0 0
v 0.216 0.260 -0.316 0 0 0
v 0.286 0.260 -0.305 0 0 0
v 0.224 0.260 -0.278 0 0 0
v 0.294 0.260 -0.294 0 0 0
v 0.305 0.260 -0.286 0 0 0
v 0.318 0.260 -0.284 0 0 0
v 0.500 0.260 -0.284 0 0 0
v 0.500 0.260 -0.216 0 0 0
v 0.245 0.260 -0.245 0 0 0
v 0.278 0.260 -0.224 0 0 0
v 0.316 0.260 -0.216 0 0 0
v 0.318 0.130 -0.284 0 0 0
v 0.500 0.130 -0.284 0 0 0
v 0.500 0.260 -0.284 0 0 0
v 0.318 0.260 -0.284 0 0 0
v 0.305 0.260 -0.286 0 0 0
v 0.305 0.130 -0.286 0 0 0
v 0.294 0.260 -0.294 0 0 0
v 0.294 0.130 -0.294 0 0 0
v 0.284 0.260 -0.500 0 0 0
v 0.284 0.130 -0.500 0 0 0
v 0.284 0.130 -0.318 0 0 0
v 0.284 0.260 -0.318 0 0 0
v 0.286 0.130 -0.305 0 0 0
v 0.286 0.260 -0.305 0 0 0
v 0.294 0.130 -0.294 0 0 0
v 0.294 0.260 -0.294 0 0 0
v 0.216 0.130 -0.500 0 0 0
v 0.216 0.260 -0.500 0 0 0
v 0.216 0.260 -0.316 0 0 0
v 0.216 0.130 -0.316 0 0 0
v 0.224 0.260 -0.278 0 0 0
v 0.224 0.130 -0.278 0 0 0
v 0.245 0.260 -0.245 0 0 0
v 0.245 0.130 -0.245 0 0 0
v 0.316 0.260 -0.216 0 0 0
v 0.500 0.260 -0.216 0 0 0
v 0.500 0.130 -0.216 0 0 0
v 0.316 0.130 -0.216 0 0 0
v 0.278 0.130 -0.224 0 0 0
v 0.278 0.260 -0.224 0 0 0
v 0.245 0.130 -0.245 0 0 0
v 0.245 0.260 -0.245 0 0 0
v -0.266 0.202 -0.200 0 0 0
v -0.250 0.202 -0.202 0 0 0
v -0.235 0.202 -0.200 0 0 0
v -0.221 0.202 -0.193 0 0 0
v -0.280 0.202 -0.193 0 0 0
v -0.210 0.202 -0.182 0 0 0
v -0.291 0.202 -0.182 0 0 0
v -0.203 0.202 -0.168 0 0 0
v -0.298 0.202 -0.168 0 0 0
v -0.200 0.202 -0.152 0 0 0
v -0.300 0.202 -0.152 0 0 0
v -0.200 0.202 0.149 0 0 0
v -0.300 0.202 0.149 0 0 0
v -0.203 0.202 0.165 0 0 0
v -0.298 0.202 0.165 0 0 0
v -0.210 0.202 0.178 0 0 0
v -0.291 0.202 0.178 0 0 0
v -0.221 0.202 0.190 0 0 0
v -0.280 0.202 0.190 0 0 0
v -0.235 0.202 0.197 0 0 0
v -0.266 0.202 0.197 0 0 0
v -0.250 0.202 0.199 0 0 0
v -0.150 0.202 -0.300 0 0 0
v 0.152 0.202 -0.300 0 0 0
v 0.167 0.202 -0.297 0 0 0
v -0.165 0.202 -0.297 0 0 0
v 0.181 0.202 -0.290 0 0 0
v -0.179 0.202 -0.290 0 0 0
v 0.192 0.202 -0.279 0 0 0
v -0.190 0.202 -0.279 0 0 0
v 0.199 0.202 -0.265 0 0 0
v -0.197 0.202 -0.265 0 0 0
v -0.200 0.202 -0.250 0 0 0
v 0.202 0.202 -0.250 0 0 0
v 0.199 0.202 -0.234 0 0 0
v -0.197 0.202 -0.234 0 0 0
v 0.192 0.202 -0.220 0 0 0
v -0.190 0.202 -0.220 0 0 0
v -0.179 0.202 -0.209 0 0 0
v 0.181 0.202 -0.209 0 0 0
v -0.165 0.202 -0.202 0 0 0
v 0.167 0.202 -0.202 0 0 0
v 0.152 0.202 -0.200 0 0 0
v -0.150 0.202 -0.200 0 0 0
v -0.318 0.130 -0.283 0 0 0
v -0.500 0.130 -0.283 0 0 0
v -0.500 0.130 -0.216 0 0 0
v -0.224 0.130 -0.278 0 0 0
v -0.305 0.130 -0.286 0 0 0
v -0.294 0.130 -0.293 0 0 0
v -0.287 0.130 -0.304 0 0 0
v -0.245 0.130 -0.245 0 0 0
v -0.278 0.130 -0.224 0 0 0
v -0.316 0.130 -0.216 0 0 0
v -0.216 0.130 -0.316 0 0 0
v -0.284 0.130 -0.317 0 0 0
v -0.216 0.130 -0.500 0 0 0
v -0.284 0.130 -0.500 0 0 0

# Normal Array
vn 0.000 -0.707 -0.707
vn 0.000 -0.447 -0.894
vn 0.000 -1.000 0.000
vn 0.000 -1.000 0.000
vn 0.000 0.000 -1.000
vn 0.000 0.000 -1.000
vn -0.000 0.000 1.000
vn 0.000 -0.000 1.000
vn -0.000 0.800 0.600
vn 0.000 1.000 0.000
vn 0.000 1.000 -0.000
vn 0.000 1.000 -0.000
vn -0.000 0.000 -1.000
vn -0.000 -0.000 -1.000
vn 1.000 -0.000 -0.000
vn 1.000 0.000 -0.000
vn -1.000 0.000 -0.000
vn -1.000 -0.000 -0.000
vn 0.000 -1.000 0.000
vn 0.000 -1.000 0.000
vn 0.000 1.000 -0.000
vn 0.000 1.000 -0.000
vn 0.000 -1.000 0.000
vn 0.000 -1.000 -0.000
vn -0.000 1.000 0.000
vn -0.000 1.000 -0.000
vn -0.000 0.000 -1.000
vn 0.000 -0.000 -1.000
vn 0.000 -0.000 1.000
vn 0.000 -0.000 1.000
vn 1.000 0.000 -0.000
vn 1.000 0.000 0.000
vn 0.981 0.000 0.195
vn 0.981 0.000 0.195
vn 0.831 0.000 0.556
vn 0.831 0.000 0.556
vn 0.556 0.000 0.831
vn 0.556 0.000 0.831
vn 0.195 -0.000 0.981
vn 0.195 0.000 0.981
vn 0.000 0.000 1.000
vn -0.000 0.000 1.000
vn -0.000 -1.000 0.000
vn 0.000 -1.000 0.000
vn 0.000 -1.000 0.000
vn -0.000 -1.000 0.000
vn -0.000 -1.000 0.000
vn -0.000 -1.000 0.000
vn -0.000 -1.000 0.000
vn 0.000 -1.000 0.000
vn 0.000 -1.000 0.000
vn 0.000 -1.000 -0.000
vn 0.000 -1.000 0.000
vn 0.000 -1.000 0.000
vn -1.000 0.000 -0.001
vn -1.000 0.000 -0.001
vn -0.981 -0.000 -0.196
vn -0.981 -0.000 -0.196
vn -0.830 -0.000 -0.557
vn -0.831 -0.000 -0.556
vn 0.000 -0.007 -1.000
vn 0.004 -0.001 -1.000
vn -0.195 -0.001 -0.981
vn -0.191 -0.001 -0.982
vn -0.555 -0.001 -0.832
vn -0.553 -0.000 -0.833
vn 0.000 1.000 0.000
vn 0.000 1.000 0.000
vn 0.000 1.000 0.000
vn 0.000 1.000 0.000
vn 0.000 1.000 0.000
vn 0.000 1.000 0.000
vn 0.000 1.000 0.000
vn 0.000 1.000 -0.000
vn 0.000 1.000 0.000
vn 0.000 1.000 0.000
vn 0.000 1.000 0.000
vn 0.000 1.000 0.000
vn -0.000 1.000 0.000
vn 0.000 1.000 0.000
vn 0.000 1.000 -0.000
vn 0.000 1.000 -0.000
vn 0.000 1.000 -0.000
vn 0.000 1.000 0.000
vn 0.000 1.000 -0.000
vn 0.000 1.000 -0.000
vn 0.000 1.000 -0.000
vn 0.000 1.000 -0.000
vn 0.000 1.000 0.000
vn 0.000 1.000 -0.000
vn 0.000 0.000 -1.000
vn 0.000 0.000 -1.000
vn 0.196 0.000 -0.981
vn 0.196 0.000 -0.981
vn 0.556 0.000 -0.831
vn 0.556 0.000 -0.831
vn 1.000 0.000 0.000
vn 1.000 0.000 0.000
vn 0.981 0.000 -0.195
vn 0.981 0.000 -0.195
vn 0.832 0.000 -0.555
vn 0.832 0.000 -0.555
vn -1.000 0.000 0.000
vn -1.000 0.000 -0.000
vn -0.981 0.000 0.195
vn -0.981 -0.000 0.195
vn -0.832 -0.000 0.555
vn -0.831 -0.000 0.556
vn -0.000 -0.001 1.000
vn 0.000 -0.000 1.000
vn -0.195 -0.000 0.981
vn -0.195 -0.000 0.981
vn -0.556 -0.000 0.831
vn -0.556 -0.000 0.831
vn -0.000 1.000 0.000
vn 0.000 1.000 -0.000
vn 0.000 1.000 0.000
vn 0.000 1.000 -0.000
vn 0.000 1.000 0.000
vn 0.000 1.000 0.000
vn 0.000 1.000 0.000
vn 0.000 1.000 -0.000
vn 0.000 1.000 0.000
vn 0.000 1.000 -0.000
vn 0.000 1.000 -0.000
vn 0.000 1.000 0.000
vn 0.000 1.000 0.000
vn 0.000 1.000 0.000
vn 0.000 1.000 0.000
vn 0.000 1.000 0.000
vn 0.000 1.000 0.000
vn 0.000 1.000 0.000
vn 0.000 1.000 0.000
vn 0.000 1.000 0.000
vn 0.000 1.000 -0.000
vn 0.000 1.000 0.000
vn 0.000 1.000 -0.000
vn 0.000 1.000 0.000
vn 0.000 1.000 -0.000
vn 0.000 1.000 0.000
vn 0.000 1.000 -0.000
vn 0.000 1.000 0.000
vn 0.000 1.000 0.000
vn 0.000 1.000 -0.000
vn 0.000 1.000 0.000
vn 0.000 1.000 -0.000
vn 0.000 1.000 0.000
vn 0.000 1.000 -0.000
vn 0.000 1.000 -0.000
vn 0.000 1.000 0.000
vn 0.000 1.000 -0.000
vn 0.000 1.000 0.000
vn 0.000 1.000 0.000
vn 0.000 1.000 -0.000
vn -0.000 -1.000 -0.000
vn -0.000 -1.000 -0.000
vn -0.000 -1.000 -0.000
vn -0.000 -1.000 -0.000
vn -0.000 -1.000 0.000
vn 0.000 -1.000 0.000
vn 0.000 -1.000 0.000
vn 0.000 -1.000 0.000
vn -0.000 -1.000 -0.000
vn -0.000 -1.000 -0.000
vn -0.000 -1.000 0.000
vn 0.000 -1.000 0.000

# Facets
f 1//1 3//1 2//1
f 3//2 1//2 4//2
f 3//3 4//3 5//3
f 5//4 4//4 6//4
f 7//5 9//5 8//5
f 10//6 9//6 7//6
f 11//7 13//7 12//7
f 14//8 13//8 11//8
f 15//9 17//9 16//9
f 17//10 15//10 18//10
f 17//11 18//11 19//11
f 19//12 18//12 20//12
f 21//13 23//13 22//13
f 24//14 23//14 21//14
f 25//15 27//15 26//15
f 28//16 27//16 25//16
f 29//17 31//17 30//17
f 32//18 31//18 29//18
f 33//19 35//19 34//19
f 36//20 35//20 33//20
f 37//21 39//21 38//21
f 40//22 39//22 37//22
f 41//23 43//23 42//23
f 44//24 43//24 41//24
f 45//25 47//25 46//25
f 48//26 47//26 45//26
f 49//27 51//27 50//27
f 52//28 51//28 49//28
f 53//29 55//29 54//29
f 56//30 55//30 53//30
f 57//31 59//31 58//31
f 58//32 59//32 60//32
f 60//33 59//33 61//33
f 61//34 59//34 62//34
f 61//35 62//35 63//35
f 63//36 62//36 64//36
f 63//37 64//37 65//37
f 65//38 64//38 66//38
f 65//39 66//39 67//39
f 67//40 66//40 68//40
f 68//41 69//41 67//41
f 70//42 69//42 68//42
f 71//43 73//43 72//43
f 73//44 71//44 74//44
f 73//45 74//45 75//45
f 73//46 75//46 76//46
f 76//47 75//47 77//47
f 76//48 77//48 78//48
f 76//49 78//49 79//49
f 76//50 79//50 80//50
f 76//51 80//51 81//51
f 76//52 81//52 82//52
f 82//53 81//53 83//53
f 83//54 81//54 84//54
f 85//55 87//55 86//55
f 86//56 87//56 88//56
f 88//57 87//57 89//57
f 89//58 87//58 90//58
f 89//59 90//59 91//59
f 91//60 90//60 92//60
f 93//61 95//61 94//61
f 94//62 95//62 96//62
f 96//63 97//63 94//63
f 98//64 97//64 96//64
f 98//65 99//65 97//65
f 100//66 99//66 98//66
f 101//67 103//67 102//67
f 103//68 101//68 104//68
f 103//69 104//69 105//69
f 103//70 105//70 106//70
f 106//71 105//71 107//71
f 106//72 107//72 108//72
f 106//73 108//73 109//73
f 109//74 110//74 106//74
f 110//75 109//75 111//75
f 106//76 110//76 112//76
f 112//77 110//77 113//77
f 113//78 110//78 114//78
f 115//79 117//79 116//79
f 117//80 115//80 118//80
f 117//81 118//81 119//81
f 119//82 118//82 120//82
f 119//83 120//83 121//83
f 121//84 120//84 122//84
f 122//85 120//85 123//85
f 123//86 120//86 124//86
f 124//87 120//87 125//87
f 125//88 120//88 126//88
f 125//89 126//89 127//89
f 125//90 127//90 128//90
f 129//91 131//91 130//91
f 132//92 131//92 129//92
f 132//93 129//93 133//93
f 133//94 129//94 134//94
f 133//95 134//95 135//95
f 135//96 134//96 136//96
f 137//97 139//97 138//97
f 140//98 139//98 137//98
f 140//99 141//99 139//99
f 142//100 141//100 140//100
f 142//101 143//101 141//101
f 144//102 143//102 142//102
f 145//103 147//103 146//103
f 148//104 147//104 145//104
f 148//105 149//105 147//105
f 150//106 149//106 148//106
f 150//107 151//107 149//107
f 152//108 151//108 150//108
f 153//109 155//109 154//109
f 156//110 155//110 153//110
f 156//111 153//111 157//111
f 157//112 153//112 158//112
f 157//113 158//113 159//113
f 159//114 158//114 160//114
f 161//115 163//115 162//115
f 163//116 161//116 164//116
f 164//117 161//117 165//117
f 164//118 165//118 166//118
f 166//119 165//119 167//119
f 166//120 167//120 168//120
f 168//121 167//121 169//121
f 168//122 169//122 170//122
f 170//123 169//123 171//123
f 170//124 171//124 172//124
f 172//125 171//125 173//125
f 172//126 173//126 174//126
f 174//127 173//127 175//127
f 174//128 175//128 176//128
f 176//129 175//129 177//129
f 176//130 177//130 178//130
f 178//131 177//131 179//131
f 178//132 179//132 180//132
f 180//133 179//133 181//133
f 180//134 181//134 182//134
f 183//135 185//135 184//135
f 185//136 183//136 186//136
f 185//137 186//137 187//137
f 187//138 186//138 188//138
f 187//139 188//139 189//139
f 189//140 188//140 190//140
f 189//141 190//141 191//141
f 191//142 190//142 192//142
f 191//143 192//143 193//143
f 191//144 193//144 194//144
f 194//145 193//145 195//145
f 195//146 193//146 196//146
f 195//147 196//147 197//147
f 197//148 196//148 198//148
f 197//149 198//149 199//149
f 197//150 199//150 200//150
f 200//151 199//151 201//151
f 200//152 201//152 202//152
f 202//153 201//153 203//153
f 203//154 201//154 204//154
f 205//155 207//155 206//155
f 207//156 205//156 208//156
f 209//157 208//157 205//157
f 210//158 208//158 209//158
f 211//159 208//159 210//159
f 207//160 208//160 212//160
f 207//161 212//161 213//161
f 207//162 213//162 214//162
f 211//163 215//163 208//163
f 216//164 215//164 211//164
f 216//165 217//165 215//165
f 217//166 216//166 218//166

# Thank you for using Spin 3D

