# Created using Spin 3D

# Vertex Array 
v 0.500 0.130 -0.216 0 0 0
v 0.500 0.130 -0.284 0 0 0
v -0.500 0.130 -0.284 0 0 0
v -0.500 0.130 -0.216 0 0 0
v 0.500 0.260 -0.284 0 0 0
v 0.500 0.260 -0.216 0 0 0
v -0.500 0.260 -0.216 0 0 0
v -0.500 0.260 -0.284 0 0 0
v 0.500 0.260 -0.216 0 0 0
v 0.500 0.130 -0.216 0 0 0
v -0.500 0.130 -0.216 0 0 0
v -0.500 0.260 -0.216 0 0 0
v -0.500 0.130 -0.284 0 0 0
v 0.500 0.130 -0.284 0 0 0
v 0.500 0.260 -0.284 0 0 0
v -0.500 0.260 -0.284 0 0 0
v 0.500 0.130 -0.250 0 0 0
v -0.500 0.130 -0.250 0 0 0
v -0.500 0.130 0.250 0 0 0
v 0.500 0.130 0.250 0 0 0
v -0.250 0.130 0.250 0 0 0
v 0.250 0.130 0.250 0 0 0
v -0.500 0.130 -0.250 0 0 0
v 0.500 0.130 -0.250 0 0 0
v 0.500 0.200 -0.250 0 0 0
v -0.500 0.200 -0.250 0 0 0
v 0.500 0.200 0.250 0 0 0
v 0.500 0.130 0.250 0 0 0
v 0.250 0.130 0.250 0 0 0
v 0.250 0.200 0.250 0 0 0
v -0.500 0.200 0.250 0 0 0
v -0.250 0.200 0.250 0 0 0
v -0.250 0.130 0.250 0 0 0
v -0.500 0.130 0.250 0 0 0
v -0.500 0.200 -0.250 0 0 0
v 0.500 0.200 -0.250 0 0 0
v 0.500 0.200 0.250 0 0 0
v -0.500 0.200 0.250 0 0 0
v 0.250 0.200 0.250 0 0 0
v -0.250 0.200 0.250 0 0 0
v -0.216 0.130 0.500 0 0 0
v -0.216 0.260 0.500 0 0 0
v -0.216 0.260 0.316 0 0 0
v -0.216 0.130 0.316 0 0 0
v -0.224 0.260 0.278 0 0 0
v -0.224 0.130 0.278 0 0 0
v -0.245 0.260 0.246 0 0 0
v -0.245 0.130 0.246 0 0 0
v -0.278 0.260 0.224 0 0 0
v -0.278 0.130 0.224 0 0 0
v -0.316 0.260 0.216 0 0 0
v -0.316 0.130 0.216 0 0 0
v -0.500 0.130 0.216 0 0 0
v -0.500 0.260 0.216 0 0 0
v 0.216 0.130 0.500 0 0 0
v 0.284 0.130 0.500 0 0 0
v 0.284 0.130 0.318 0 0 0
v 0.216 0.130 0.316 0 0 0
v 0.286 0.130 0.305 0 0 0
v 0.294 0.130 0.294 0 0 0
v 0.305 0.130 0.286 0 0 0
v 0.224 0.130 0.278 0 0 0
v 0.318 0.130 0.284 0 0 0
v 0.500 0.130 0.284 0 0 0
v 0.245 0.130 0.245 0 0 0
v 0.278 0.130 0.224 0 0 0
v 0.500 0.130 0.216 0 0 0
v 0.316 0.130 0.216 0 0 0
v -0.284 0.260 0.500 0 0 0
v -0.284 0.130 0.500 0 0 0
v -0.284 0.130 0.318 0 0 0
v -0.284 0.260 0.318 0 0 0
v -0.287 0.130 0.305 0 0 0
v -0.286 0.260 0.305 0 0 0
v -0.294 0.130 0.294 0 0 0
v -0.294 0.260 0.294 0 0 0
v -0.318 0.130 0.284 0 0 0
v -0.500 0.130 0.284 0 0 0
v -0.500 0.260 0.284 0 0 0
v -0.318 0.260 0.284 0 0 0
v -0.305 0.260 0.287 0 0 0
v -0.305 0.130 0.286 0 0 0
v -0.294 0.260 0.294 0 0 0
v -0.294 0.130 0.294 0 0 0
v -0.500 0.260 0.284 0 0 0
v -0.500 0.260 0.216 0 0 0
v -0.316 0.260 0.216 0 0 0
v -0.278 0.260 0.224 0 0 0
v -0.245 0.260 0.246 0 0 0
v -0.224 0.260 0.278 0 0 0
v -0.318 0.260 0.284 0 0 0
v -0.305 0.260 0.287 0 0 0
v -0.216 0.260 0.316 0 0 0
v -0.294 0.260 0.294 0 0 0
v -0.286 0.260 0.305 0 0 0
v -0.284 0.260 0.318 0 0 0
v -0.216 0.260 0.500 0 0 0
v -0.284 0.260 0.500 0 0 0
v 0.250 0.200 0.500 0 0 0
v 0.250 0.200 0.250 0 0 0
v 0.250 0.130 0.250 0 0 0
v 0.250 0.130 0.500 0 0 0
v 0.250 0.130 0.250 0 0 0
v -0.250 0.130 0.250 0 0 0
v -0.250 0.130 0.500 0 0 0
v 0.250 0.130 0.500 0 0 0
v -0.250 0.200 0.500 0 0 0
v -0.250 0.200 0.250 0 0 0
v 0.250 0.200 0.250 0 0 0
v 0.250 0.200 0.500 0 0 0
v -0.250 0.200 0.500 0 0 0
v -0.250 0.130 0.500 0 0 0
v -0.250 0.130 0.250 0 0 0
v -0.250 0.200 0.250 0 0 0
v 0.278 0.260 0.224 0 0 0
v 0.316 0.260 0.216 0 0 0
v 0.500 0.260 0.216 0 0 0
v 0.500 0.260 0.284 0 0 0
v 0.245 0.260 0.245 0 0 0
v 0.224 0.260 0.278 0 0 0
v 0.318 0.260 0.284 0 0 0
v 0.305 0.260 0.286 0 0 0
v 0.216 0.260 0.316 0 0 0
v 0.294 0.260 0.294 0 0 0
v 0.286 0.260 0.305 0 0 0
v 0.284 0.260 0.318 0 0 0
v 0.216 0.260 0.500 0 0 0
v 0.284 0.260 0.500 0 0 0
v 0.500 0.130 0.284 0 0 0
v 0.318 0.130 0.284 0 0 0
v 0.500 0.260 0.284 0 0 0
v 0.318 0.260 0.284 0 0 0
v 0.305 0.130 0.286 0 0 0
v 0.305 0.260 0.286 0 0 0
v 0.294 0.130 0.294 0 0 0
v 0.294 0.260 0.294 0 0 0
v 0.284 0.130 0.500 0 0 0
v 0.284 0.260 0.500 0 0 0
v 0.284 0.130 0.318 0 0 0
v 0.284 0.260 0.318 0 0 0
v 0.286 0.260 0.305 0 0 0
v 0.286 0.130 0.305 0 0 0
v 0.294 0.260 0.294 0 0 0
v 0.294 0.130 0.294 0 0 0
v 0.216 0.260 0.500 0 0 0
v 0.216 0.130 0.500 0 0 0
v 0.216 0.260 0.316 0 0 0
v 0.216 0.130 0.316 0 0 0
v 0.224 0.130 0.278 0 0 0
v 0.224 0.260 0.278 0 0 0
v 0.245 0.130 0.245 0 0 0
v 0.245 0.260 0.245 0 0 0
v 0.500 0.260 0.216 0 0 0
v 0.316 0.260 0.216 0 0 0
v 0.500 0.130 0.216 0 0 0
v 0.316 0.130 0.216 0 0 0
v 0.278 0.260 0.224 0 0 0
v 0.278 0.130 0.224 0 0 0
v 0.245 0.260 0.245 0 0 0
v 0.245 0.130 0.245 0 0 0
v -0.266 0.202 -0.200 0 0 0
v -0.250 0.202 -0.202 0 0 0
v -0.235 0.202 -0.200 0 0 0
v -0.221 0.202 -0.193 0 0 0
v -0.280 0.202 -0.193 0 0 0
v -0.210 0.202 -0.182 0 0 0
v -0.291 0.202 -0.182 0 0 0
v -0.203 0.202 -0.168 0 0 0
v -0.298 0.202 -0.168 0 0 0
v -0.200 0.202 -0.152 0 0 0
v -0.300 0.202 -0.152 0 0 0
v -0.200 0.202 0.149 0 0 0
v -0.300 0.202 0.149 0 0 0
v -0.203 0.202 0.165 0 0 0
v -0.298 0.202 0.165 0 0 0
v -0.210 0.202 0.178 0 0 0
v -0.291 0.202 0.178 0 0 0
v -0.221 0.202 0.190 0 0 0
v -0.280 0.202 0.190 0 0 0
v -0.235 0.202 0.197 0 0 0
v -0.266 0.202 0.197 0 0 0
v -0.250 0.202 0.199 0 0 0
v -0.165 0.202 0.202 0 0 0
v -0.150 0.202 0.199 0 0 0
v 0.152 0.202 0.199 0 0 0
v 0.167 0.202 0.202 0 0 0
v -0.179 0.202 0.209 0 0 0
v 0.181 0.202 0.209 0 0 0
v -0.190 0.202 0.220 0 0 0
v 0.192 0.202 0.220 0 0 0
v -0.197 0.202 0.234 0 0 0
v 0.199 0.202 0.234 0 0 0
v -0.200 0.202 0.249 0 0 0
v 0.202 0.202 0.249 0 0 0
v -0.197 0.202 0.265 0 0 0
v 0.199 0.202 0.265 0 0 0
v 0.192 0.202 0.279 0 0 0
v -0.190 0.202 0.279 0 0 0
v -0.179 0.202 0.290 0 0 0
v 0.181 0.202 0.290 0 0 0
v -0.165 0.202 0.297 0 0 0
v 0.167 0.202 0.297 0 0 0
v 0.152 0.202 0.299 0 0 0
v -0.150 0.202 0.299 0 0 0
v -0.316 0.130 0.216 0 0 0
v -0.500 0.130 0.216 0 0 0
v -0.500 0.130 0.284 0 0 0
v -0.278 0.130 0.224 0 0 0
v -0.245 0.130 0.246 0 0 0
v -0.224 0.130 0.278 0 0 0
v -0.318 0.130 0.284 0 0 0
v -0.305 0.130 0.286 0 0 0
v -0.216 0.130 0.316 0 0 0
v -0.294 0.130 0.294 0 0 0
v -0.287 0.130 0.305 0 0 0
v -0.284 0.130 0.318 0 0 0
v -0.216 0.130 0.500 0 0 0
v -0.284 0.130 0.500 0 0 0

# Normal Array
vn -0.000 -1.000 0.000
vn -0.000 -1.000 0.000
vn 0.000 1.000 -0.000
vn 0.000 1.000 0.000
vn -0.000 -0.001 1.000
vn -0.000 -0.000 1.000
vn 0.000 0.000 -1.000
vn 0.000 0.000 -1.000
vn -0.000 -1.000 -0.000
vn 0.000 -1.000 -0.000
vn 0.000 -1.000 0.000
vn 0.000 -1.000 0.000
vn 0.000 0.000 -1.000
vn 0.000 0.000 -1.000
vn 0.000 0.000 1.000
vn 0.000 0.000 1.000
vn -0.000 0.000 1.000
vn -0.000 0.000 1.000
vn -0.000 1.000 0.000
vn 0.000 1.000 0.000
vn 0.000 1.000 0.000
vn 0.000 1.000 0.000
vn 1.000 -0.000 0.000
vn 1.000 -0.000 0.000
vn 0.981 -0.000 -0.195
vn 0.981 -0.000 -0.195
vn 0.832 -0.000 -0.555
vn 0.832 -0.000 -0.555
vn 0.556 -0.000 -0.831
vn 0.556 -0.000 -0.831
vn 0.196 -0.000 -0.981
vn 0.195 -0.000 -0.981
vn 0.000 -0.000 -1.000
vn 0.001 -0.001 -1.000
vn 0.000 -1.000 0.000
vn 0.000 -1.000 -0.000
vn 0.000 -1.000 0.000
vn 0.000 -1.000 0.000
vn -0.000 -1.000 -0.000
vn 0.000 -1.000 -0.000
vn 0.000 -1.000 -0.000
vn 0.000 -1.000 -0.000
vn 0.000 -1.000 -0.000
vn 0.000 -1.000 -0.000
vn 0.000 -1.000 -0.000
vn 0.000 -1.000 -0.000
vn -1.000 0.000 -0.000
vn -1.000 0.001 -0.000
vn -0.981 0.000 0.195
vn -0.981 0.000 0.195
vn -0.831 -0.000 0.556
vn -0.832 -0.000 0.555
vn 0.000 0.000 1.000
vn -0.001 -0.001 1.000
vn -0.196 -0.001 0.981
vn -0.195 -0.001 0.981
vn -0.556 -0.001 0.831
vn -0.556 -0.001 0.831
vn -0.000 1.000 0.000
vn -0.000 1.000 -0.000
vn -0.000 1.000 0.000
vn -0.000 1.000 -0.000
vn -0.000 1.000 0.000
vn -0.000 1.000 0.000
vn -0.000 1.000 -0.000
vn 0.000 1.000 -0.000
vn -0.000 1.000 -0.000
vn -0.000 1.000 0.000
vn -0.000 1.000 -0.000
vn 0.000 1.000 -0.000
vn 1.000 0.000 0.000
vn 1.000 -0.000 0.000
vn 0.000 -1.000 0.000
vn 0.000 -1.000 0.000
vn 0.000 1.000 0.000
vn 0.000 1.000 0.000
vn -1.000 -0.000 0.000
vn -1.000 0.000 0.000
vn -0.000 1.000 0.000
vn -0.000 1.000 -0.000
vn -0.000 1.000 0.000
vn -0.000 1.000 -0.000
vn -0.000 1.000 0.000
vn 0.000 1.000 0.000
vn -0.000 1.000 0.000
vn 0.000 1.000 0.000
vn 0.000 1.000 0.000
vn 0.000 1.000 0.000
vn 0.000 1.000 0.000
vn 0.000 1.000 0.000
vn -0.000 0.000 1.000
vn -0.000 0.000 1.000
vn 0.195 -0.000 0.981
vn 0.195 -0.000 0.981
vn 0.555 -0.000 0.832
vn 0.555 -0.000 0.832
vn 1.000 0.000 -0.000
vn 1.000 -0.000 -0.000
vn 0.981 -0.000 0.195
vn 0.981 -0.000 0.195
vn 0.831 -0.000 0.556
vn 0.831 -0.000 0.556
vn -1.000 -0.001 -0.000
vn -1.000 -0.000 -0.000
vn -0.981 -0.000 -0.195
vn -0.981 -0.000 -0.195
vn -0.831 -0.000 -0.556
vn -0.831 -0.000 -0.556
vn 0.000 -0.000 -1.000
vn 0.000 0.000 -1.000
vn -0.195 0.000 -0.981
vn -0.195 -0.000 -0.981
vn -0.555 -0.000 -0.832
vn -0.555 -0.000 -0.832
vn -0.000 1.000 0.000
vn 0.000 1.000 -0.000
vn 0.000 1.000 0.000
vn 0.000 1.000 -0.000
vn 0.000 1.000 0.000
vn 0.000 1.000 0.000
vn 0.000 1.000 0.000
vn 0.000 1.000 -0.000
vn 0.000 1.000 0.000
vn 0.000 1.000 -0.000
vn 0.000 1.000 -0.000
vn 0.000 1.000 0.000
vn 0.000 1.000 0.000
vn 0.000 1.000 0.000
vn 0.000 1.000 0.000
vn 0.000 1.000 0.000
vn 0.000 1.000 0.000
vn 0.000 1.000 0.000
vn 0.000 1.000 0.000
vn 0.000 1.000 0.000
vn 0.000 1.000 0.000
vn 0.000 1.000 -0.000
vn 0.000 1.000 0.000
vn 0.000 1.000 -0.000
vn 0.000 1.000 0.000
vn 0.000 1.000 -0.000
vn 0.000 1.000 0.000
vn 0.000 1.000 -0.000
vn 0.000 1.000 0.000
vn 0.000 1.000 -0.000
vn 0.000 1.000 -0.000
vn 0.000 1.000 0.000
vn 0.000 1.000 0.000
vn 0.000 1.000 -0.000
vn 0.000 1.000 -0.000
vn 0.000 1.000 0.000
vn 0.000 1.000 -0.000
vn 0.000 1.000 0.000
vn 0.000 1.000 0.000
vn 0.000 1.000 -0.000
vn -0.000 -1.000 -0.000
vn 0.000 -1.000 -0.000
vn 0.000 -1.000 -0.000
vn 0.000 -1.000 0.000
vn 0.000 -1.000 -0.000
vn 0.000 -1.000 -0.000
vn 0.000 -1.000 0.000
vn 0.000 -1.000 -0.000
vn 0.000 -1.000 0.000
vn 0.000 -1.000 -0.000
vn 0.000 -1.000 0.000
vn 0.000 -1.000 0.000

# Facets
f 1//1 3//1 2//1
f 4//2 3//2 1//2
f 5//3 7//3 6//3
f 8//4 7//4 5//4
f 9//5 11//5 10//5
f 12//6 11//6 9//6
f 13//7 15//7 14//7
f 16//8 15//8 13//8
f 17//9 19//9 18//9
f 19//10 17//10 20//10
f 19//11 20//11 21//11
f 21//12 20//12 22//12
f 23//13 25//13 24//13
f 26//14 25//14 23//14
f 27//15 29//15 28//15
f 30//16 29//16 27//16
f 31//17 33//17 32//17
f 34//18 33//18 31//18
f 35//19 37//19 36//19
f 37//20 35//20 38//20
f 37//21 38//21 39//21
f 39//22 38//22 40//22
f 41//23 43//23 42//23
f 44//24 43//24 41//24
f 44//25 45//25 43//25
f 46//26 45//26 44//26
f 46//27 47//27 45//27
f 48//28 47//28 46//28
f 48//29 49//29 47//29
f 50//30 49//30 48//30
f 50//31 51//31 49//31
f 52//32 51//32 50//32
f 52//33 53//33 51//33
f 51//34 53//34 54//34
f 55//35 57//35 56//35
f 58//36 57//36 55//36
f 58//37 59//37 57//37
f 58//38 60//38 59//38
f 58//39 61//39 60//39
f 62//40 61//40 58//40
f 61//41 62//41 63//41
f 62//42 64//42 63//42
f 65//43 64//43 62//43
f 66//44 64//44 65//44
f 66//45 67//45 64//45
f 67//46 66//46 68//46
f 69//47 71//47 70//47
f 72//48 71//48 69//48
f 72//49 73//49 71//49
f 74//50 73//50 72//50
f 74//51 75//51 73//51
f 76//52 75//52 74//52
f 77//53 79//53 78//53
f 80//54 79//54 77//54
f 80//55 77//55 81//55
f 81//56 77//56 82//56
f 81//57 82//57 83//57
f 83//58 82//58 84//58
f 85//59 87//59 86//59
f 87//60 85//60 88//60
f 88//61 85//61 89//61
f 89//62 85//62 90//62
f 90//63 85//63 91//63
f 90//64 91//64 92//64
f 90//65 92//65 93//65
f 93//66 92//66 94//66
f 93//67 94//67 95//67
f 93//68 95//68 96//68
f 93//69 96//69 97//69
f 97//70 96//70 98//70
f 99//71 101//71 100//71
f 102//72 101//72 99//72
f 103//73 105//73 104//73
f 106//74 105//74 103//74
f 107//75 109//75 108//75
f 110//76 109//76 107//76
f 111//77 113//77 112//77
f 114//78 113//78 111//78
f 115//79 117//79 116//79
f 117//80 115//80 118//80
f 118//81 115//81 119//81
f 118//82 119//82 120//82
f 118//83 120//83 121//83
f 120//84 122//84 121//84
f 122//85 120//85 123//85
f 122//86 123//86 124//86
f 124//87 123//87 125//87
f 125//88 123//88 126//88
f 126//89 123//89 127//89
f 126//90 127//90 128//90
f 129//91 131//91 130//91
f 130//92 131//92 132//92
f 132//93 133//93 130//93
f 134//94 133//94 132//94
f 134//95 135//95 133//95
f 136//96 135//96 134//96
f 137//97 139//97 138//97
f 138//98 139//98 140//98
f 140//99 139//99 141//99
f 141//100 139//100 142//100
f 141//101 142//101 143//101
f 143//102 142//102 144//102
f 145//103 147//103 146//103
f 146//104 147//104 148//104
f 148//105 147//105 149//105
f 149//106 147//106 150//106
f 149//107 150//107 151//107
f 151//108 150//108 152//108
f 153//109 155//109 154//109
f 154//110 155//110 156//110
f 156//111 157//111 154//111
f 158//112 157//112 156//112
f 158//113 159//113 157//113
f 160//114 159//114 158//114
f 161//115 163//115 162//115
f 163//116 161//116 164//116
f 164//117 161//117 165//117
f 164//118 165//118 166//118
f 166//119 165//119 167//119
f 166//120 167//120 168//120
f 168//121 167//121 169//121
f 168//122 169//122 170//122
f 170//123 169//123 171//123
f 170//124 171//124 172//124
f 172//125 171//125 173//125
f 172//126 173//126 174//126
f 174//127 173//127 175//127
f 174//128 175//128 176//128
f 176//129 175//129 177//129
f 176//130 177//130 178//130
f 178//131 177//131 179//131
f 178//132 179//132 180//132
f 180//133 179//133 181//133
f 180//134 181//134 182//134
f 183//135 185//135 184//135
f 185//136 183//136 186//136
f 186//137 183//137 187//137
f 186//138 187//138 188//138
f 188//139 187//139 189//139
f 188//140 189//140 190//140
f 190//141 189//141 191//141
f 190//142 191//142 192//142
f 192//143 191//143 193//143
f 192//144 193//144 194//144
f 194//145 193//145 195//145
f 194//146 195//146 196//146
f 196//147 195//147 197//147
f 197//148 195//148 198//148
f 197//149 198//149 199//149
f 197//150 199//150 200//150
f 200//151 199//151 201//151
f 200//152 201//152 202//152
f 202//153 201//153 203//153
f 203//154 201//154 204//154
f 205//155 207//155 206//155
f 207//156 205//156 208//156
f 207//157 208//157 209//157
f 207//158 209//158 210//158
f 207//159 210//159 211//159
f 211//160 210//160 212//160
f 212//161 210//161 213//161
f 212//162 213//162 214//162
f 214//163 213//163 215//163
f 215//164 213//164 216//164
f 216//165 213//165 217//165
f 216//166 217//166 218//166

# Thank you for using Spin 3D

