# Created using Spin 3D

# Vertex Array 
v -0.217 0.202 0.151
v -0.217 0.202 -0.150
v -0.217 0.079 -0.150
v -0.217 0.079 0.151
v -0.283 0.079 0.151
v -0.283 0.079 -0.150
v -0.283 0.202 -0.150
v -0.283 0.202 0.151
v -0.240 0.079 -0.181
v -0.240 0.202 -0.181
v -0.250 0.202 -0.183
v -0.250 0.079 -0.183
v -0.231 0.079 -0.176
v -0.231 0.202 -0.176
v -0.240 0.202 -0.181
v -0.240 0.079 -0.181
v -0.224 0.079 -0.169
v -0.224 0.202 -0.169
v -0.231 0.202 -0.176
v -0.231 0.079 -0.176
v -0.219 0.079 -0.160
v -0.219 0.202 -0.160
v -0.224 0.202 -0.169
v -0.224 0.079 -0.169
v -0.217 0.079 -0.150
v -0.217 0.202 -0.150
v -0.219 0.202 -0.160
v -0.219 0.079 -0.160
v -0.240 0.202 0.182
v -0.240 0.079 0.182
v -0.250 0.079 0.183
v -0.250 0.202 0.183
v -0.231 0.202 0.177
v -0.231 0.079 0.177
v -0.240 0.079 0.182
v -0.240 0.202 0.182
v -0.224 0.202 0.170
v -0.224 0.079 0.170
v -0.231 0.079 0.177
v -0.231 0.202 0.177
v -0.219 0.202 0.161
v -0.219 0.079 0.161
v -0.224 0.079 0.170
v -0.224 0.202 0.170
v -0.217 0.202 0.151
v -0.217 0.079 0.151
v -0.219 0.079 0.161
v -0.219 0.202 0.161
v -0.260 0.202 -0.181
v -0.260 0.079 -0.181
v -0.250 0.079 -0.183
v -0.250 0.202 -0.183
v -0.270 0.202 -0.176
v -0.270 0.079 -0.176
v -0.260 0.079 -0.181
v -0.260 0.202 -0.181
v -0.277 0.202 -0.169
v -0.277 0.079 -0.169
v -0.270 0.079 -0.176
v -0.270 0.202 -0.176
v -0.282 0.202 -0.160
v -0.282 0.079 -0.160
v -0.277 0.079 -0.169
v -0.277 0.202 -0.169
v -0.283 0.202 -0.150
v -0.283 0.079 -0.150
v -0.282 0.079 -0.160
v -0.282 0.202 -0.160
v -0.260 0.079 0.182
v -0.260 0.202 0.182
v -0.250 0.202 0.183
v -0.250 0.079 0.183
v -0.270 0.079 0.177
v -0.270 0.202 0.177
v -0.260 0.202 0.182
v -0.260 0.079 0.182
v -0.277 0.079 0.170
v -0.277 0.202 0.170
v -0.270 0.202 0.177
v -0.270 0.079 0.177
v -0.282 0.079 0.161
v -0.282 0.202 0.161
v -0.277 0.202 0.170
v -0.277 0.079 0.170
v -0.283 0.079 0.151
v -0.283 0.202 0.151
v -0.282 0.202 0.161
v -0.282 0.079 0.161
v -0.260 0.202 -0.181
v -0.250 0.202 -0.183
v -0.240 0.202 -0.181
v -0.231 0.202 -0.176
v -0.270 0.202 -0.176
v -0.224 0.202 -0.169
v -0.277 0.202 -0.169
v -0.219 0.202 -0.160
v -0.282 0.202 -0.160
v -0.217 0.202 -0.150
v -0.283 0.202 -0.150
v -0.217 0.202 0.151
v -0.283 0.202 0.151
v -0.219 0.202 0.161
v -0.282 0.202 0.161
v -0.224 0.202 0.170
v -0.277 0.202 0.170
v -0.231 0.202 0.177
v -0.270 0.202 0.177
v -0.240 0.202 0.182
v -0.260 0.202 0.182
v -0.250 0.202 0.183

# Normal Array
vn 1.000 0.000 0.000
vn 1.000 0.000 0.000
vn -1.000 -0.000 0.000
vn -1.000 -0.000 0.000
vn 0.156 -0.000 -0.988
vn 0.156 -0.000 -0.988
vn 0.454 -0.000 -0.891
vn 0.454 -0.000 -0.891
vn 0.707 -0.000 -0.707
vn 0.707 -0.000 -0.707
vn 0.891 -0.000 -0.454
vn 0.891 -0.000 -0.454
vn 0.988 -0.000 -0.156
vn 0.988 -0.000 -0.156
vn 0.156 0.000 0.988
vn 0.156 0.000 0.988
vn 0.454 0.000 0.891
vn 0.454 0.000 0.891
vn 0.707 0.000 0.707
vn 0.707 0.000 0.707
vn 0.891 0.000 0.454
vn 0.891 0.000 0.454
vn 0.988 0.000 0.156
vn 0.988 0.000 0.156
vn -0.156 -0.000 -0.988
vn -0.156 -0.000 -0.988
vn -0.454 -0.000 -0.891
vn -0.454 -0.000 -0.891
vn -0.707 -0.000 -0.707
vn -0.707 -0.000 -0.707
vn -0.891 -0.000 -0.454
vn -0.891 -0.000 -0.454
vn -0.988 -0.000 -0.156
vn -0.988 -0.000 -0.156
vn -0.156 -0.000 0.988
vn -0.156 0.000 0.988
vn -0.454 -0.000 0.891
vn -0.454 -0.000 0.891
vn -0.707 -0.000 0.707
vn -0.707 -0.000 0.707
vn -0.891 -0.000 0.454
vn -0.891 -0.000 0.454
vn -0.988 -0.000 0.156
vn -0.988 -0.000 0.156
vn -0.000 1.000 0.000
vn 0.000 1.000 -0.000
vn 0.000 1.000 0.000
vn 0.000 1.000 -0.000
vn 0.000 1.000 0.000
vn 0.000 1.000 -0.000
vn 0.000 1.000 0.000
vn 0.000 1.000 -0.000
vn 0.000 1.000 0.000
vn 0.000 1.000 -0.000
vn 0.000 1.000 -0.000
vn 0.000 1.000 0.000
vn 0.000 1.000 0.000
vn 0.000 1.000 0.000
vn 0.000 1.000 0.000
vn 0.000 1.000 0.000
vn 0.000 1.000 0.000
vn 0.000 1.000 0.000
vn 0.000 1.000 0.000
vn 0.000 1.000 0.000

# Facets
f 1//1 3//1 2//1
f 4//2 3//2 1//2
f 5//3 7//3 6//3
f 8//4 7//4 5//4
f 9//5 11//5 10//5
f 12//6 11//6 9//6
f 13//7 15//7 14//7
f 16//8 15//8 13//8
f 17//9 19//9 18//9
f 20//10 19//10 17//10
f 21//11 23//11 22//11
f 24//12 23//12 21//12
f 25//13 27//13 26//13
f 28//14 27//14 25//14
f 29//15 31//15 30//15
f 32//16 31//16 29//16
f 33//17 35//17 34//17
f 36//18 35//18 33//18
f 37//19 39//19 38//19
f 40//20 39//20 37//20
f 41//21 43//21 42//21
f 44//22 43//22 41//22
f 45//23 47//23 46//23
f 48//24 47//24 45//24
f 49//25 51//25 50//25
f 52//26 51//26 49//26
f 53//27 55//27 54//27
f 56//28 55//28 53//28
f 57//29 59//29 58//29
f 60//30 59//30 57//30
f 61//31 63//31 62//31
f 64//32 63//32 61//32
f 65//33 67//33 66//33
f 68//34 67//34 65//34
f 69//35 71//35 70//35
f 72//36 71//36 69//36
f 73//37 75//37 74//37
f 76//38 75//38 73//38
f 77//39 79//39 78//39
f 80//40 79//40 77//40
f 81//41 83//41 82//41
f 84//42 83//42 81//42
f 85//43 87//43 86//43
f 88//44 87//44 85//44
f 89//45 91//45 90//45
f 91//46 89//46 92//46
f 92//47 89//47 93//47
f 92//48 93//48 94//48
f 94//49 93//49 95//49
f 94//50 95//50 96//50
f 96//51 95//51 97//51
f 96//52 97//52 98//52
f 98//53 97//53 99//53
f 98//54 99//54 100//54
f 100//55 99//55 101//55
f 100//56 101//56 102//56
f 102//57 101//57 103//57
f 102//58 103//58 104//58
f 104//59 103//59 105//59
f 104//60 105//60 106//60
f 106//61 105//61 107//61
f 106//62 107//62 108//62
f 108//63 107//63 109//63
f 108//64 109//64 110//64

# Thank you for using Spin 3D

