# Created using Spin 3D

# Vertex Array 
v 0.000 0.130 -0.250 0 0 0
v -0.250 0.130 -0.250 0 0 0
v -0.500 0.130 -0.250 0 0 0
v 0.500 0.130 -0.250 0 0 0
v -0.500 0.130 0.000 0 0 0
v 0.500 0.130 0.000 0 0 0
v -0.500 0.130 0.250 0 0 0
v 0.500 0.130 0.250 0 0 0
v -0.250 0.130 0.250 0 0 0
v 0.000 0.130 0.250 0 0 0
v 0.500 0.200 -0.250 0 0 0
v 0.000 0.200 -0.250 0 0 0
v 0.000 0.130 -0.250 0 0 0
v 0.500 0.130 -0.250 0 0 0
v -0.500 0.200 -0.250 0 0 0
v -0.500 0.130 -0.250 0 0 0
v -0.250 0.130 -0.250 0 0 0
v -0.250 0.200 -0.250 0 0 0
v 0.250 0.200 -0.500 0 0 0
v 0.250 0.130 -0.500 0 0 0
v 0.250 0.130 -0.250 0 0 0
v 0.250 0.200 -0.250 0 0 0
v -0.250 0.200 -0.500 0 0 0
v -0.250 0.200 -0.250 0 0 0
v -0.250 0.130 -0.250 0 0 0
v -0.250 0.130 -0.500 0 0 0
v -0.250 0.130 -0.250 0 0 0
v 0.250 0.130 -0.250 0 0 0
v 0.250 0.130 -0.500 0 0 0
v -0.250 0.130 -0.500 0 0 0
v 0.250 0.200 -0.500 0 0 0
v 0.250 0.200 -0.250 0 0 0
v -0.250 0.200 -0.250 0 0 0
v -0.250 0.200 -0.500 0 0 0
v -0.216 0.260 -0.500 0 0 0
v -0.216 0.130 -0.500 0 0 0
v -0.216 0.260 -0.316 0 0 0
v -0.216 0.130 -0.316 0 0 0
v -0.224 0.130 -0.278 0 0 0
v -0.224 0.260 -0.278 0 0 0
v -0.245 0.130 -0.245 0 0 0
v -0.245 0.260 -0.245 0 0 0
v -0.278 0.130 -0.224 0 0 0
v -0.278 0.260 -0.224 0 0 0
v -0.316 0.130 -0.216 0 0 0
v -0.316 0.260 -0.216 0 0 0
v -0.500 0.130 -0.216 0 0 0
v -0.500 0.260 -0.216 0 0 0
v 0.284 0.130 -0.500 0 0 0
v 0.216 0.130 -0.500 0 0 0
v 0.216 0.130 -0.316 0 0 0
v 0.284 0.130 -0.318 0 0 0
v 0.286 0.130 -0.305 0 0 0
v 0.224 0.130 -0.278 0 0 0
v 0.294 0.130 -0.294 0 0 0
v 0.305 0.130 -0.286 0 0 0
v 0.318 0.130 -0.284 0 0 0
v 0.500 0.130 -0.284 0 0 0
v 0.500 0.130 -0.216 0 0 0
v 0.245 0.130 -0.245 0 0 0
v 0.278 0.130 -0.224 0 0 0
v 0.316 0.130 -0.216 0 0 0
v -0.284 0.130 -0.500 0 0 0
v -0.284 0.260 -0.500 0 0 0
v -0.284 0.130 -0.317 0 0 0
v -0.284 0.260 -0.317 0 0 0
v -0.287 0.260 -0.304 0 0 0
v -0.287 0.130 -0.304 0 0 0
v -0.294 0.260 -0.293 0 0 0
v -0.294 0.130 -0.293 0 0 0
v -0.500 0.130 -0.283 0 0 0
v -0.318 0.130 -0.283 0 0 0
v -0.500 0.260 -0.284 0 0 0
v -0.318 0.260 -0.283 0 0 0
v -0.305 0.130 -0.286 0 0 0
v -0.305 0.260 -0.286 0 0 0
v -0.294 0.130 -0.293 0 0 0
v -0.294 0.260 -0.293 0 0 0
v -0.284 0.260 -0.500 0 0 0
v -0.216 0.260 -0.500 0 0 0
v -0.216 0.260 -0.316 0 0 0
v -0.284 0.260 -0.317 0 0 0
v -0.287 0.260 -0.304 0 0 0
v -0.224 0.260 -0.278 0 0 0
v -0.294 0.260 -0.293 0 0 0
v -0.305 0.260 -0.286 0 0 0
v -0.318 0.260 -0.283 0 0 0
v -0.500 0.260 -0.216 0 0 0
v -0.500 0.260 -0.284 0 0 0
v -0.245 0.260 -0.245 0 0 0
v -0.278 0.260 -0.224 0 0 0
v -0.316 0.260 -0.216 0 0 0
v 0.216 0.260 -0.500 0 0 0
v 0.284 0.260 -0.500 0 0 0
v 0.284 0.260 -0.318 0 0 0
v 0.216 0.260 -0.316 0 0 0
v 0.286 0.260 -0.305 0 0 0
v 0.224 0.260 -0.278 0 0 0
v 0.294 0.260 -0.294 0 0 0
v 0.305 0.260 -0.286 0 0 0
v 0.318 0.260 -0.284 0 0 0
v 0.500 0.260 -0.284 0 0 0
v 0.500 0.260 -0.216 0 0 0
v 0.245 0.260 -0.245 0 0 0
v 0.278 0.260 -0.224 0 0 0
v 0.316 0.260 -0.216 0 0 0
v -0.316 0.130 0.216 0 0 0
v -0.500 0.130 0.216 0 0 0
v -0.500 0.130 0.283 0 0 0
v -0.278 0.130 0.224 0 0 0
v -0.245 0.130 0.245 0 0 0
v -0.224 0.130 0.278 0 0 0
v -0.318 0.130 0.283 0 0 0
v -0.305 0.130 0.286 0 0 0
v -0.216 0.130 0.316 0 0 0
v -0.294 0.130 0.293 0 0 0
v -0.287 0.130 0.304 0 0 0
v -0.284 0.130 0.317 0 0 0
v -0.216 0.130 0.500 0 0 0
v -0.284 0.130 0.500 0 0 0
v 0.318 0.130 -0.284 0 0 0
v 0.500 0.130 -0.284 0 0 0
v 0.500 0.260 -0.284 0 0 0
v 0.318 0.260 -0.284 0 0 0
v 0.305 0.260 -0.286 0 0 0
v 0.305 0.130 -0.286 0 0 0
v 0.294 0.260 -0.294 0 0 0
v 0.294 0.130 -0.294 0 0 0
v 0.284 0.260 -0.500 0 0 0
v 0.284 0.130 -0.500 0 0 0
v 0.284 0.130 -0.318 0 0 0
v 0.284 0.260 -0.318 0 0 0
v 0.286 0.130 -0.305 0 0 0
v 0.286 0.260 -0.305 0 0 0
v 0.294 0.130 -0.294 0 0 0
v 0.294 0.260 -0.294 0 0 0
v 0.216 0.130 -0.500 0 0 0
v 0.216 0.260 -0.500 0 0 0
v 0.216 0.260 -0.316 0 0 0
v 0.216 0.130 -0.316 0 0 0
v 0.224 0.260 -0.278 0 0 0
v 0.224 0.130 -0.278 0 0 0
v 0.245 0.260 -0.245 0 0 0
v 0.245 0.130 -0.245 0 0 0
v 0.316 0.260 -0.216 0 0 0
v 0.500 0.260 -0.216 0 0 0
v 0.500 0.130 -0.216 0 0 0
v 0.316 0.130 -0.216 0 0 0
v 0.278 0.130 -0.224 0 0 0
v 0.278 0.260 -0.224 0 0 0
v 0.245 0.130 -0.245 0 0 0
v 0.245 0.260 -0.245 0 0 0
v -0.150 0.202 -0.300 0 0 0
v 0.152 0.202 -0.300 0 0 0
v 0.167 0.202 -0.297 0 0 0
v -0.165 0.202 -0.297 0 0 0
v 0.181 0.202 -0.290 0 0 0
v -0.179 0.202 -0.290 0 0 0
v 0.192 0.202 -0.279 0 0 0
v -0.190 0.202 -0.279 0 0 0
v 0.199 0.202 -0.265 0 0 0
v -0.197 0.202 -0.265 0 0 0
v -0.200 0.202 -0.250 0 0 0
v 0.202 0.202 -0.250 0 0 0
v 0.199 0.202 -0.234 0 0 0
v -0.197 0.202 -0.234 0 0 0
v 0.192 0.202 -0.220 0 0 0
v -0.190 0.202 -0.220 0 0 0
v -0.179 0.202 -0.209 0 0 0
v 0.181 0.202 -0.209 0 0 0
v -0.165 0.202 -0.202 0 0 0
v 0.167 0.202 -0.202 0 0 0
v 0.152 0.202 -0.200 0 0 0
v -0.150 0.202 -0.200 0 0 0
v -0.266 0.202 -0.200 0 0 0
v -0.250 0.202 -0.202 0 0 0
v -0.235 0.202 -0.200 0 0 0
v -0.221 0.202 -0.193 0 0 0
v -0.280 0.202 -0.193 0 0 0
v -0.210 0.202 -0.182 0 0 0
v -0.291 0.202 -0.182 0 0 0
v -0.203 0.202 -0.168 0 0 0
v -0.298 0.202 -0.168 0 0 0
v -0.200 0.202 -0.152 0 0 0
v -0.300 0.202 -0.152 0 0 0
v -0.200 0.202 0.000 0 0 0
v -0.300 0.202 0.000 0 0 0
v -0.200 0.202 0.152 0 0 0
v -0.300 0.202 0.152 0 0 0
v -0.203 0.202 0.168 0 0 0
v -0.298 0.202 0.168 0 0 0
v -0.210 0.202 0.182 0 0 0
v -0.291 0.202 0.182 0 0 0
v -0.221 0.202 0.193 0 0 0
v -0.280 0.202 0.193 0 0 0
v -0.235 0.202 0.200 0 0 0
v -0.266 0.202 0.200 0 0 0
v -0.250 0.202 0.202 0 0 0
v -0.250 0.200 -0.250 0 0 0
v 0.000 0.200 -0.250 0 0 0
v 0.500 0.200 -0.250 0 0 0
v -0.500 0.200 -0.250 0 0 0
v 0.500 0.200 0.000 0 0 0
v -0.500 0.200 0.000 0 0 0
v 0.500 0.200 0.250 0 0 0
v -0.500 0.200 0.250 0 0 0
v 0.000 0.200 0.250 0 0 0
v -0.250 0.200 0.250 0 0 0
v 0.500 0.200 0.250 0 0 0
v 0.500 0.130 0.250 0 0 0
v 0.000 0.130 0.250 0 0 0
v 0.000 0.200 0.250 0 0 0
v -0.500 0.200 0.250 0 0 0
v -0.250 0.200 0.250 0 0 0
v -0.250 0.130 0.250 0 0 0
v -0.500 0.130 0.250 0 0 0
v 0.250 0.200 0.500 0 0 0
v 0.250 0.200 0.250 0 0 0
v 0.250 0.130 0.250 0 0 0
v 0.250 0.130 0.500 0 0 0
v -0.250 0.200 0.500 0 0 0
v -0.250 0.130 0.500 0 0 0
v -0.250 0.130 0.250 0 0 0
v -0.250 0.200 0.250 0 0 0
v -0.250 0.130 0.250 0 0 0
v -0.250 0.130 0.500 0 0 0
v 0.250 0.130 0.500 0 0 0
v 0.250 0.130 0.250 0 0 0
v 0.250 0.200 0.500 0 0 0
v -0.250 0.200 0.500 0 0 0
v -0.250 0.200 0.250 0 0 0
v 0.250 0.200 0.250 0 0 0
v -0.216 0.130 0.500 0 0 0
v -0.216 0.260 0.500 0 0 0
v -0.216 0.260 0.316 0 0 0
v -0.216 0.130 0.316 0 0 0
v -0.224 0.260 0.278 0 0 0
v -0.224 0.130 0.278 0 0 0
v -0.245 0.260 0.245 0 0 0
v -0.245 0.130 0.245 0 0 0
v -0.278 0.260 0.224 0 0 0
v -0.278 0.130 0.224 0 0 0
v -0.316 0.260 0.216 0 0 0
v -0.316 0.130 0.216 0 0 0
v -0.500 0.130 0.216 0 0 0
v -0.500 0.260 0.216 0 0 0
v 0.500 0.130 0.216 0 0 0
v 0.316 0.130 0.216 0 0 0
v 0.278 0.130 0.224 0 0 0
v 0.500 0.130 0.284 0 0 0
v 0.245 0.130 0.245 0 0 0
v 0.224 0.130 0.278 0 0 0
v 0.318 0.130 0.284 0 0 0
v 0.305 0.130 0.286 0 0 0
v 0.216 0.130 0.316 0 0 0
v 0.294 0.130 0.294 0 0 0
v 0.286 0.130 0.305 0 0 0
v 0.284 0.130 0.318 0 0 0
v 0.216 0.130 0.500 0 0 0
v 0.284 0.130 0.500 0 0 0
v -0.284 0.260 0.500 0 0 0
v -0.284 0.130 0.500 0 0 0
v -0.284 0.130 0.317 0 0 0
v -0.284 0.260 0.317 0 0 0
v -0.287 0.130 0.304 0 0 0
v -0.287 0.260 0.304 0 0 0
v -0.294 0.130 0.293 0 0 0
v -0.294 0.260 0.293 0 0 0
v -0.318 0.130 0.283 0 0 0
v -0.500 0.130 0.283 0 0 0
v -0.500 0.260 0.284 0 0 0
v -0.318 0.260 0.283 0 0 0
v -0.305 0.260 0.286 0 0 0
v -0.305 0.130 0.286 0 0 0
v -0.294 0.260 0.293 0 0 0
v -0.294 0.130 0.293 0 0 0
v -0.216 0.260 0.500 0 0 0
v -0.284 0.260 0.500 0 0 0
v -0.284 0.260 0.317 0 0 0
v -0.216 0.260 0.316 0 0 0
v -0.287 0.260 0.304 0 0 0
v -0.294 0.260 0.293 0 0 0
v -0.305 0.260 0.286 0 0 0
v -0.224 0.260 0.278 0 0 0
v -0.318 0.260 0.283 0 0 0
v -0.500 0.260 0.284 0 0 0
v -0.245 0.260 0.245 0 0 0
v -0.278 0.260 0.224 0 0 0
v -0.500 0.260 0.216 0 0 0
v -0.316 0.260 0.216 0 0 0
v 0.316 0.260 0.216 0 0 0
v 0.500 0.260 0.216 0 0 0
v 0.500 0.260 0.284 0 0 0
v 0.278 0.260 0.224 0 0 0
v 0.245 0.260 0.245 0 0 0
v 0.224 0.260 0.278 0 0 0
v 0.318 0.260 0.284 0 0 0
v 0.305 0.260 0.286 0 0 0
v 0.216 0.260 0.316 0 0 0
v 0.294 0.260 0.294 0 0 0
v 0.286 0.260 0.305 0 0 0
v 0.284 0.260 0.318 0 0 0
v 0.216 0.260 0.500 0 0 0
v 0.284 0.260 0.500 0 0 0
v 0.500 0.130 0.284 0 0 0
v 0.318 0.130 0.284 0 0 0
v 0.500 0.260 0.284 0 0 0
v 0.318 0.260 0.284 0 0 0
v 0.305 0.130 0.286 0 0 0
v 0.305 0.260 0.286 0 0 0
v 0.294 0.130 0.294 0 0 0
v 0.294 0.260 0.294 0 0 0
v 0.284 0.130 0.500 0 0 0
v 0.284 0.260 0.500 0 0 0
v 0.284 0.130 0.318 0 0 0
v 0.284 0.260 0.318 0 0 0
v 0.286 0.260 0.305 0 0 0
v 0.286 0.130 0.305 0 0 0
v 0.294 0.260 0.294 0 0 0
v 0.294 0.130 0.294 0 0 0
v 0.216 0.260 0.500 0 0 0
v 0.216 0.130 0.500 0 0 0
v 0.216 0.260 0.316 0 0 0
v 0.216 0.130 0.316 0 0 0
v 0.224 0.130 0.278 0 0 0
v 0.224 0.260 0.278 0 0 0
v 0.245 0.130 0.245 0 0 0
v 0.245 0.260 0.245 0 0 0
v 0.500 0.260 0.216 0 0 0
v 0.316 0.260 0.216 0 0 0
v 0.500 0.130 0.216 0 0 0
v 0.316 0.130 0.216 0 0 0
v 0.278 0.260 0.224 0 0 0
v 0.278 0.130 0.224 0 0 0
v 0.245 0.260 0.245 0 0 0
v 0.245 0.130 0.245 0 0 0
v -0.150 0.202 0.200 0 0 0
v 0.152 0.202 0.200 0 0 0
v 0.167 0.202 0.202 0 0 0
v -0.165 0.202 0.202 0 0 0
v 0.181 0.202 0.209 0 0 0
v -0.179 0.202 0.209 0 0 0
v 0.192 0.202 0.220 0 0 0
v -0.190 0.202 0.220 0 0 0
v 0.199 0.202 0.234 0 0 0
v -0.197 0.202 0.234 0 0 0
v 0.202 0.202 0.250 0 0 0
v -0.200 0.202 0.250 0 0 0
v 0.199 0.202 0.265 0 0 0
v -0.197 0.202 0.265 0 0 0
v 0.192 0.202 0.279 0 0 0
v -0.190 0.202 0.279 0 0 0
v 0.181 0.202 0.290 0 0 0
v -0.179 0.202 0.290 0 0 0
v 0.167 0.202 0.297 0 0 0
v -0.165 0.202 0.297 0 0 0
v 0.152 0.202 0.300 0 0 0
v -0.150 0.202 0.300 0 0 0
v -0.318 0.130 -0.283 0 0 0
v -0.500 0.130 -0.283 0 0 0
v -0.500 0.130 -0.216 0 0 0
v -0.224 0.130 -0.278 0 0 0
v -0.305 0.130 -0.286 0 0 0
v -0.294 0.130 -0.293 0 0 0
v -0.287 0.130 -0.304 0 0 0
v -0.245 0.130 -0.245 0 0 0
v -0.278 0.130 -0.224 0 0 0
v -0.316 0.130 -0.216 0 0 0
v -0.216 0.130 -0.316 0 0 0
v -0.284 0.130 -0.317 0 0 0
v -0.216 0.130 -0.500 0 0 0
v -0.284 0.130 -0.500 0 0 0

# Normal Array
vn 0.000 -0.707 -0.707
vn 0.000 -0.447 -0.894
vn 0.000 -1.000 0.000
vn 0.000 -1.000 0.000
vn -0.000 -1.000 -0.000
vn 0.000 -1.000 -0.000
vn 0.000 -0.555 0.832
vn 0.000 -0.316 0.949
vn 0.000 0.000 -1.000
vn 0.000 0.000 -1.000
vn -0.000 0.000 -1.000
vn -0.000 -0.000 -1.000
vn 1.000 -0.000 -0.000
vn 1.000 0.000 -0.000
vn -1.000 0.000 -0.000
vn -1.000 -0.000 -0.000
vn 0.000 -1.000 0.000
vn 0.000 -1.000 0.000
vn 0.000 1.000 -0.000
vn 0.000 1.000 -0.000
vn 1.000 0.000 -0.000
vn 1.000 0.000 0.000
vn 0.981 0.000 0.195
vn 0.981 0.000 0.195
vn 0.831 0.000 0.556
vn 0.831 0.000 0.556
vn 0.556 0.000 0.831
vn 0.556 0.000 0.831
vn 0.195 -0.000 0.981
vn 0.195 0.000 0.981
vn 0.000 0.000 1.000
vn -0.000 0.000 1.000
vn -0.000 -1.000 0.000
vn 0.000 -1.000 0.000
vn 0.000 -1.000 0.000
vn -0.000 -1.000 0.000
vn -0.000 -1.000 0.000
vn -0.000 -1.000 0.000
vn -0.000 -1.000 0.000
vn 0.000 -1.000 0.000
vn 0.000 -1.000 0.000
vn 0.000 -1.000 -0.000
vn 0.000 -1.000 0.000
vn 0.000 -1.000 0.000
vn -1.000 0.000 -0.001
vn -1.000 0.000 -0.001
vn -0.981 -0.000 -0.196
vn -0.981 -0.000 -0.196
vn -0.830 -0.000 -0.557
vn -0.831 -0.000 -0.556
vn 0.000 -0.007 -1.000
vn 0.004 -0.001 -1.000
vn -0.195 -0.001 -0.981
vn -0.191 -0.001 -0.982
vn -0.555 -0.001 -0.832
vn -0.553 -0.000 -0.833
vn 0.000 1.000 0.000
vn 0.000 1.000 0.000
vn 0.000 1.000 0.000
vn 0.000 1.000 0.000
vn 0.000 1.000 0.000
vn 0.000 1.000 0.000
vn 0.000 1.000 0.000
vn 0.000 1.000 -0.000
vn 0.000 1.000 0.000
vn 0.000 1.000 0.000
vn 0.000 1.000 0.000
vn 0.000 1.000 0.000
vn -0.000 1.000 0.000
vn 0.000 1.000 0.000
vn 0.000 1.000 -0.000
vn 0.000 1.000 -0.000
vn 0.000 1.000 -0.000
vn 0.000 1.000 0.000
vn 0.000 1.000 -0.000
vn 0.000 1.000 -0.000
vn 0.000 1.000 -0.000
vn 0.000 1.000 -0.000
vn 0.000 1.000 0.000
vn 0.000 1.000 -0.000
vn 0.000 -1.000 0.000
vn -0.000 -1.000 0.000
vn -0.000 -1.000 0.000
vn -0.000 -1.000 -0.000
vn 0.000 -1.000 0.000
vn -0.000 -1.000 0.000
vn -0.000 -1.000 0.000
vn -0.000 -1.000 0.000
vn -0.000 -1.000 -0.000
vn -0.000 -1.000 0.000
vn -0.000 -1.000 -0.000
vn 0.000 -1.000 -0.000
vn 0.000 0.000 -1.000
vn 0.000 0.000 -1.000
vn 0.196 0.000 -0.981
vn 0.196 0.000 -0.981
vn 0.556 0.000 -0.831
vn 0.556 0.000 -0.831
vn 1.000 0.000 0.000
vn 1.000 0.000 0.000
vn 0.981 0.000 -0.195
vn 0.981 0.000 -0.195
vn 0.832 0.000 -0.555
vn 0.832 0.000 -0.555
vn -1.000 0.000 0.000
vn -1.000 0.000 -0.000
vn -0.981 0.000 0.195
vn -0.981 -0.000 0.195
vn -0.832 -0.000 0.555
vn -0.831 -0.000 0.556
vn -0.000 -0.001 1.000
vn 0.000 -0.000 1.000
vn -0.195 -0.000 0.981
vn -0.195 -0.000 0.981
vn -0.556 -0.000 0.831
vn -0.556 -0.000 0.831
vn 0.000 1.000 -0.000
vn 0.000 1.000 0.000
vn 0.000 1.000 -0.000
vn 0.000 1.000 0.000
vn 0.000 1.000 -0.000
vn 0.000 1.000 0.000
vn 0.000 1.000 -0.000
vn 0.000 1.000 0.000
vn 0.000 1.000 0.000
vn 0.000 1.000 -0.000
vn 0.000 1.000 0.000
vn 0.000 1.000 -0.000
vn 0.000 1.000 0.000
vn 0.000 1.000 -0.000
vn 0.000 1.000 -0.000
vn 0.000 1.000 0.000
vn 0.000 1.000 -0.000
vn 0.000 1.000 0.000
vn 0.000 1.000 0.000
vn 0.000 1.000 -0.000
vn -0.000 1.000 0.000
vn 0.000 1.000 -0.000
vn 0.000 1.000 0.000
vn 0.000 1.000 -0.000
vn 0.000 1.000 0.000
vn 0.000 1.000 0.000
vn 0.000 1.000 0.000
vn 0.000 1.000 -0.000
vn 0.000 1.000 0.000
vn 0.000 1.000 -0.000
vn 0.000 1.000 -0.000
vn -0.000 1.000 0.000
vn 0.000 1.000 0.000
vn 0.000 1.000 0.000
vn 0.000 1.000 0.000
vn 0.000 1.000 0.000
vn 0.000 1.000 0.000
vn 0.000 1.000 0.000
vn 0.000 1.000 0.000
vn 0.000 1.000 0.000
vn 0.000 1.000 0.000
vn 0.000 1.000 0.000
vn -0.000 0.800 0.600
vn 0.000 1.000 0.000
vn 0.000 1.000 -0.000
vn 0.000 1.000 -0.000
vn -0.000 1.000 0.000
vn 0.000 1.000 0.000
vn 0.000 0.894 -0.447
vn -0.000 0.894 0.447
vn 0.000 0.000 1.000
vn 0.000 0.000 1.000
vn -0.000 0.000 1.000
vn -0.000 0.000 1.000
vn 1.000 0.000 0.000
vn 1.000 -0.000 0.000
vn -1.000 -0.000 0.000
vn -1.000 0.000 0.000
vn 0.000 -1.000 -0.000
vn -0.000 -1.000 -0.000
vn 0.000 1.000 0.000
vn 0.000 1.000 0.000
vn 1.000 0.000 0.000
vn 1.000 0.000 -0.000
vn 0.981 0.000 -0.195
vn 0.981 0.000 -0.195
vn 0.831 0.000 -0.556
vn 0.831 0.000 -0.556
vn 0.556 0.000 -0.831
vn 0.556 0.000 -0.831
vn 0.195 0.000 -0.981
vn 0.195 0.000 -0.981
vn 0.000 0.000 -1.000
vn 0.000 0.000 -1.000
vn 0.000 -1.000 -0.000
vn 0.000 -1.000 -0.000
vn 0.000 -1.000 -0.000
vn 0.000 -1.000 0.000
vn 0.000 -1.000 -0.000
vn -0.000 -1.000 -0.000
vn -0.000 -1.000 -0.000
vn 0.000 -1.000 0.000
vn 0.000 -1.000 0.000
vn 0.000 -1.000 0.000
vn 0.000 -1.000 -0.000
vn -0.000 -1.000 -0.000
vn -1.000 0.000 0.001
vn -1.000 0.000 0.001
vn -0.981 0.000 0.196
vn -0.981 -0.000 0.196
vn -0.831 -0.000 0.556
vn -0.830 -0.000 0.557
vn 0.000 -0.007 1.000
vn 0.004 -0.001 1.000
vn -0.191 -0.001 0.982
vn -0.195 -0.001 0.981
vn -0.553 -0.001 0.833
vn -0.555 -0.000 0.832
vn 0.000 1.000 0.000
vn 0.000 1.000 0.000
vn 0.000 1.000 0.000
vn 0.000 1.000 0.000
vn 0.000 1.000 0.000
vn 0.000 1.000 -0.000
vn 0.000 1.000 0.000
vn 0.000 1.000 0.000
vn 0.000 1.000 -0.000
vn 0.000 1.000 -0.000
vn 0.000 1.000 0.000
vn 0.000 1.000 0.000
vn 0.000 1.000 0.000
vn 0.000 1.000 0.000
vn 0.000 1.000 -0.000
vn 0.000 1.000 0.000
vn 0.000 1.000 0.000
vn 0.000 1.000 0.000
vn 0.000 1.000 0.000
vn -0.000 1.000 -0.000
vn 0.000 1.000 0.000
vn 0.000 1.000 0.000
vn 0.000 1.000 0.000
vn 0.000 1.000 0.000
vn 0.000 -0.000 1.000
vn 0.000 -0.000 1.000
vn 0.196 0.000 0.981
vn 0.196 0.000 0.981
vn 0.556 0.000 0.831
vn 0.556 0.000 0.831
vn 1.000 -0.000 0.000
vn 1.000 0.000 0.000
vn 0.981 0.000 0.195
vn 0.981 0.000 0.195
vn 0.832 0.000 0.555
vn 0.832 0.000 0.555
vn -1.000 -0.000 -0.000
vn -1.000 0.000 0.000
vn -0.981 0.000 -0.195
vn -0.981 -0.000 -0.195
vn -0.831 -0.000 -0.556
vn -0.832 -0.000 -0.555
vn -0.000 -0.001 -1.000
vn 0.000 -0.000 -1.000
vn -0.195 -0.000 -0.981
vn -0.195 -0.000 -0.981
vn -0.556 -0.000 -0.831
vn -0.556 -0.000 -0.831
vn 0.000 1.000 -0.000
vn 0.000 1.000 0.000
vn 0.000 1.000 -0.000
vn 0.000 1.000 0.000
vn 0.000 1.000 -0.000
vn 0.000 1.000 0.000
vn 0.000 1.000 -0.000
vn 0.000 1.000 0.000
vn 0.000 1.000 -0.000
vn 0.000 1.000 0.000
vn 0.000 1.000 0.000
vn 0.000 1.000 -0.000
vn 0.000 1.000 0.000
vn 0.000 1.000 -0.000
vn 0.000 1.000 0.000
vn 0.000 1.000 -0.000
vn 0.000 1.000 0.000
vn 0.000 1.000 -0.000
vn 0.000 1.000 0.000
vn 0.000 1.000 -0.000
vn -0.000 -1.000 -0.000
vn -0.000 -1.000 -0.000
vn -0.000 -1.000 -0.000
vn -0.000 -1.000 -0.000
vn -0.000 -1.000 0.000
vn 0.000 -1.000 0.000
vn 0.000 -1.000 0.000
vn 0.000 -1.000 0.000
vn -0.000 -1.000 -0.000
vn -0.000 -1.000 -0.000
vn -0.000 -1.000 0.000
vn 0.000 -1.000 0.000

# Facets
f 1//1 3//1 2//1
f 3//2 1//2 4//2
f 3//3 4//3 5//3
f 5//4 4//4 6//4
f 6//5 7//5 5//5
f 7//6 6//6 8//6
f 7//7 8//7 9//7
f 9//8 8//8 10//8
f 11//9 13//9 12//9
f 14//10 13//10 11//10
f 15//11 17//11 16//11
f 18//12 17//12 15//12
f 19//13 21//13 20//13
f 22//14 21//14 19//14
f 23//15 25//15 24//15
f 26//16 25//16 23//16
f 27//17 29//17 28//17
f 30//18 29//18 27//18
f 31//19 33//19 32//19
f 34//20 33//20 31//20
f 35//21 37//21 36//21
f 36//22 37//22 38//22
f 38//23 37//23 39//23
f 39//24 37//24 40//24
f 39//25 40//25 41//25
f 41//26 40//26 42//26
f 41//27 42//27 43//27
f 43//28 42//28 44//28
f 43//29 44//29 45//29
f 45//30 44//30 46//30
f 46//31 47//31 45//31
f 48//32 47//32 46//32
f 49//33 51//33 50//33
f 51//34 49//34 52//34
f 51//35 52//35 53//35
f 51//36 53//36 54//36
f 54//37 53//37 55//37
f 54//38 55//38 56//38
f 54//39 56//39 57//39
f 54//40 57//40 58//40
f 54//41 58//41 59//41
f 54//42 59//42 60//42
f 60//43 59//43 61//43
f 61//44 59//44 62//44
f 63//45 65//45 64//45
f 64//46 65//46 66//46
f 66//47 65//47 67//47
f 67//48 65//48 68//48
f 67//49 68//49 69//49
f 69//50 68//50 70//50
f 71//51 73//51 72//51
f 72//52 73//52 74//52
f 74//53 75//53 72//53
f 76//54 75//54 74//54
f 76//55 77//55 75//55
f 78//56 77//56 76//56
f 79//57 81//57 80//57
f 81//58 79//58 82//58
f 81//59 82//59 83//59
f 81//60 83//60 84//60
f 84//61 83//61 85//61
f 84//62 85//62 86//62
f 84//63 86//63 87//63
f 87//64 88//64 84//64
f 88//65 87//65 89//65
f 84//66 88//66 90//66
f 90//67 88//67 91//67
f 91//68 88//68 92//68
f 93//69 95//69 94//69
f 95//70 93//70 96//70
f 95//71 96//71 97//71
f 97//72 96//72 98//72
f 97//73 98//73 99//73
f 99//74 98//74 100//74
f 100//75 98//75 101//75
f 101//76 98//76 102//76
f 102//77 98//77 103//77
f 103//78 98//78 104//78
f 103//79 104//79 105//79
f 103//80 105//80 106//80
f 107//81 109//81 108//81
f 109//82 107//82 110//82
f 109//83 110//83 111//83
f 109//84 111//84 112//84
f 109//85 112//85 113//85
f 113//86 112//86 114//86
f 114//87 112//87 115//87
f 114//88 115//88 116//88
f 116//89 115//89 117//89
f 117//90 115//90 118//90
f 118//91 115//91 119//91
f 118//92 119//92 120//92
f 121//93 123//93 122//93
f 124//94 123//94 121//94
f 124//95 121//95 125//95
f 125//96 121//96 126//96
f 125//97 126//97 127//97
f 127//98 126//98 128//98
f 129//99 131//99 130//99
f 132//100 131//100 129//100
f 132//101 133//101 131//101
f 134//102 133//102 132//102
f 134//103 135//103 133//103
f 136//104 135//104 134//104
f 137//105 139//105 138//105
f 140//106 139//106 137//106
f 140//107 141//107 139//107
f 142//108 141//108 140//108
f 142//109 143//109 141//109
f 144//110 143//110 142//110
f 145//111 147//111 146//111
f 148//112 147//112 145//112
f 148//113 145//113 149//113
f 149//114 145//114 150//114
f 149//115 150//115 151//115
f 151//116 150//116 152//116
f 153//117 155//117 154//117
f 155//118 153//118 156//118
f 155//119 156//119 157//119
f 157//120 156//120 158//120
f 157//121 158//121 159//121
f 159//122 158//122 160//122
f 159//123 160//123 161//123
f 161//124 160//124 162//124
f 161//125 162//125 163//125
f 161//126 163//126 164//126
f 164//127 163//127 165//127
f 165//128 163//128 166//128
f 165//129 166//129 167//129
f 167//130 166//130 168//130
f 167//131 168//131 169//131
f 167//132 169//132 170//132
f 170//133 169//133 171//133
f 170//134 171//134 172//134
f 172//135 171//135 173//135
f 173//136 171//136 174//136
f 175//137 177//137 176//137
f 177//138 175//138 178//138
f 178//139 175//139 179//139
f 178//140 179//140 180//140
f 180//141 179//141 181//141
f 180//142 181//142 182//142
f 182//143 181//143 183//143
f 182//144 183//144 184//144
f 184//145 183//145 185//145
f 184//146 185//146 186//146
f 186//147 185//147 187//147
f 187//148 188//148 186//148
f 188//149 187//149 189//149
f 188//150 189//150 190//150
f 190//151 189//151 191//151
f 190//152 191//152 192//152
f 192//153 191//153 193//153
f 192//154 193//154 194//154
f 194//155 193//155 195//155
f 194//156 195//156 196//156
f 196//157 195//157 197//157
f 196//158 197//158 198//158
f 199//159 201//159 200//159
f 201//160 199//160 202//160
f 201//161 202//161 203//161
f 203//162 202//162 204//162
f 204//163 205//163 203//163
f 205//164 204//164 206//164
f 205//165 206//165 207//165
f 207//166 206//166 208//166
f 209//167 211//167 210//167
f 212//168 211//168 209//168
f 213//169 215//169 214//169
f 216//170 215//170 213//170
f 217//171 219//171 218//171
f 220//172 219//172 217//172
f 221//173 223//173 222//173
f 224//174 223//174 221//174
f 225//175 227//175 226//175
f 228//176 227//176 225//176
f 229//177 231//177 230//177
f 232//178 231//178 229//178
f 233//179 235//179 234//179
f 236//180 235//180 233//180
f 236//181 237//181 235//181
f 238//182 237//182 236//182
f 238//183 239//183 237//183
f 240//184 239//184 238//184
f 240//185 241//185 239//185
f 242//186 241//186 240//186
f 242//187 243//187 241//187
f 244//188 243//188 242//188
f 244//189 245//189 243//189
f 243//190 245//190 246//190
f 247//191 249//191 248//191
f 249//192 247//192 250//192
f 249//193 250//193 251//193
f 251//194 250//194 252//194
f 252//195 250//195 253//195
f 252//196 253//196 254//196
f 252//197 254//197 255//197
f 255//198 254//198 256//198
f 255//199 256//199 257//199
f 255//200 257//200 258//200
f 255//201 258//201 259//201
f 259//202 258//202 260//202
f 261//203 263//203 262//203
f 264//204 263//204 261//204
f 264//205 265//205 263//205
f 266//206 265//206 264//206
f 266//207 267//207 265//207
f 268//208 267//208 266//208
f 269//209 271//209 270//209
f 272//210 271//210 269//210
f 272//211 269//211 273//211
f 273//212 269//212 274//212
f 273//213 274//213 275//213
f 275//214 274//214 276//214
f 277//215 279//215 278//215
f 280//216 279//216 277//216
f 280//217 281//217 279//217
f 280//218 282//218 281//218
f 280//219 283//219 282//219
f 284//220 283//220 280//220
f 283//221 284//221 285//221
f 284//222 286//222 285//222
f 287//223 286//223 284//223
f 288//224 286//224 287//224
f 288//225 289//225 286//225
f 289//226 288//226 290//226
f 291//227 293//227 292//227
f 293//228 291//228 294//228
f 293//229 294//229 295//229
f 293//230 295//230 296//230
f 293//231 296//231 297//231
f 297//232 296//232 298//232
f 298//233 296//233 299//233
f 298//234 299//234 300//234
f 300//235 299//235 301//235
f 301//236 299//236 302//236
f 302//237 299//237 303//237
f 302//238 303//238 304//238
f 305//239 307//239 306//239
f 306//240 307//240 308//240
f 308//241 309//241 306//241
f 310//242 309//242 308//242
f 310//243 311//243 309//243
f 312//244 311//244 310//244
f 313//245 315//245 314//245
f 314//246 315//246 316//246
f 316//247 315//247 317//247
f 317//248 315//248 318//248
f 317//249 318//249 319//249
f 319//250 318//250 320//250
f 321//251 323//251 322//251
f 322//252 323//252 324//252
f 324//253 323//253 325//253
f 325//254 323//254 326//254
f 325//255 326//255 327//255
f 327//256 326//256 328//256
f 329//257 331//257 330//257
f 330//258 331//258 332//258
f 332//259 333//259 330//259
f 334//260 333//260 332//260
f 334//261 335//261 333//261
f 336//262 335//262 334//262
f 337//263 339//263 338//263
f 339//264 337//264 340//264
f 339//265 340//265 341//265
f 341//266 340//266 342//266
f 341//267 342//267 343//267
f 343//268 342//268 344//268
f 343//269 344//269 345//269
f 345//270 344//270 346//270
f 345//271 346//271 347//271
f 347//272 346//272 348//272
f 347//273 348//273 349//273
f 349//274 348//274 350//274
f 349//275 350//275 351//275
f 351//276 350//276 352//276
f 351//277 352//277 353//277
f 353//278 352//278 354//278
f 353//279 354//279 355//279
f 355//280 354//280 356//280
f 355//281 356//281 357//281
f 357//282 356//282 358//282
f 359//283 361//283 360//283
f 361//284 359//284 362//284
f 363//285 362//285 359//285
f 364//286 362//286 363//286
f 365//287 362//287 364//287
f 361//288 362//288 366//288
f 361//289 366//289 367//289
f 361//290 367//290 368//290
f 365//291 369//291 362//291
f 370//292 369//292 365//292
f 370//293 371//293 369//293
f 371//294 370//294 372//294

# Thank you for using Spin 3D

