# Created using Spin 3D

# Vertex Array 
v 0.500 0.130 -0.216 0 0 0
v 0.500 0.130 -0.284 0 0 0
v -0.500 0.130 -0.284 0 0 0
v -0.500 0.130 -0.216 0 0 0
v 0.500 0.260 -0.284 0 0 0
v 0.500 0.260 -0.216 0 0 0
v -0.500 0.260 -0.216 0 0 0
v -0.500 0.260 -0.284 0 0 0
v 0.500 0.260 -0.216 0 0 0
v 0.500 0.130 -0.216 0 0 0
v -0.500 0.130 -0.216 0 0 0
v -0.500 0.260 -0.216 0 0 0
v -0.500 0.130 -0.284 0 0 0
v 0.500 0.130 -0.284 0 0 0
v 0.500 0.260 -0.284 0 0 0
v -0.500 0.260 -0.284 0 0 0
v -0.250 0.130 -0.250 0 0 0
v -0.500 0.130 -0.250 0 0 0
v -0.500 0.130 0.250 0 0 0
v 0.000 0.130 -0.250 0 0 0
v 0.250 0.130 -0.250 0 0 0
v 0.500 0.130 -0.250 0 0 0
v 0.500 0.130 0.250 0 0 0
v -0.250 0.130 0.250 0 0 0
v 0.250 0.130 0.250 0 0 0
v 0.000 0.130 0.250 0 0 0
v -0.500 0.200 -0.250 0 0 0
v -0.500 0.130 -0.250 0 0 0
v -0.250 0.200 -0.250 0 0 0
v -0.250 0.130 -0.250 0 0 0
v 0.000 0.200 -0.250 0 0 0
v 0.000 0.130 -0.250 0 0 0
v 0.250 0.200 -0.250 0 0 0
v 0.250 0.130 -0.250 0 0 0
v 0.500 0.200 -0.250 0 0 0
v 0.500 0.130 -0.250 0 0 0
v 0.500 0.200 0.250 0 0 0
v 0.500 0.130 0.250 0 0 0
v 0.250 0.130 0.250 0 0 0
v 0.250 0.200 0.250 0 0 0
v -0.500 0.200 0.250 0 0 0
v -0.250 0.200 0.250 0 0 0
v -0.250 0.130 0.250 0 0 0
v -0.500 0.130 0.250 0 0 0
v -0.500 0.200 0.250 0 0 0
v -0.500 0.200 -0.250 0 0 0
v -0.250 0.200 -0.250 0 0 0
v -0.250 0.200 0.250 0 0 0
v -0.216 0.130 0.500 0 0 0
v -0.216 0.260 0.500 0 0 0
v -0.216 0.260 0.316 0 0 0
v -0.216 0.130 0.316 0 0 0
v -0.224 0.260 0.278 0 0 0
v -0.224 0.130 0.278 0 0 0
v -0.245 0.260 0.246 0 0 0
v -0.245 0.130 0.246 0 0 0
v -0.278 0.260 0.224 0 0 0
v -0.278 0.130 0.224 0 0 0
v -0.316 0.260 0.216 0 0 0
v -0.316 0.130 0.216 0 0 0
v -0.500 0.130 0.216 0 0 0
v -0.500 0.260 0.216 0 0 0
v 0.216 0.130 0.500 0 0 0
v 0.284 0.130 0.500 0 0 0
v 0.284 0.130 0.318 0 0 0
v 0.216 0.130 0.316 0 0 0
v 0.286 0.130 0.305 0 0 0
v 0.294 0.130 0.294 0 0 0
v 0.305 0.130 0.286 0 0 0
v 0.224 0.130 0.278 0 0 0
v 0.318 0.130 0.284 0 0 0
v 0.500 0.130 0.284 0 0 0
v 0.245 0.130 0.245 0 0 0
v 0.278 0.130 0.224 0 0 0
v 0.500 0.130 0.216 0 0 0
v 0.316 0.130 0.216 0 0 0
v -0.284 0.260 0.500 0 0 0
v -0.284 0.130 0.500 0 0 0
v -0.284 0.130 0.318 0 0 0
v -0.284 0.260 0.318 0 0 0
v -0.287 0.130 0.305 0 0 0
v -0.286 0.260 0.305 0 0 0
v -0.294 0.130 0.294 0 0 0
v -0.294 0.260 0.294 0 0 0
v -0.318 0.130 0.284 0 0 0
v -0.500 0.130 0.284 0 0 0
v -0.500 0.260 0.284 0 0 0
v -0.318 0.260 0.284 0 0 0
v -0.305 0.260 0.287 0 0 0
v -0.305 0.130 0.286 0 0 0
v -0.294 0.260 0.294 0 0 0
v -0.294 0.130 0.294 0 0 0
v -0.500 0.260 0.284 0 0 0
v -0.500 0.260 0.216 0 0 0
v -0.316 0.260 0.216 0 0 0
v -0.278 0.260 0.224 0 0 0
v -0.245 0.260 0.246 0 0 0
v -0.224 0.260 0.278 0 0 0
v -0.318 0.260 0.284 0 0 0
v -0.305 0.260 0.287 0 0 0
v -0.216 0.260 0.316 0 0 0
v -0.294 0.260 0.294 0 0 0
v -0.286 0.260 0.305 0 0 0
v -0.284 0.260 0.318 0 0 0
v -0.216 0.260 0.500 0 0 0
v -0.284 0.260 0.500 0 0 0
v 0.250 0.200 0.500 0 0 0
v 0.250 0.200 0.250 0 0 0
v 0.250 0.130 0.250 0 0 0
v 0.250 0.130 0.500 0 0 0
v 0.000 0.130 0.250 0 0 0
v -0.250 0.130 0.250 0 0 0
v -0.250 0.130 0.500 0 0 0
v 0.250 0.130 0.250 0 0 0
v 0.250 0.130 0.500 0 0 0
v 0.000 0.200 0.250 0 0 0
v 0.250 0.200 0.250 0 0 0
v 0.250 0.200 0.500 0 0 0
v -0.250 0.200 0.250 0 0 0
v -0.250 0.200 0.500 0 0 0
v -0.250 0.200 0.500 0 0 0
v -0.250 0.130 0.500 0 0 0
v -0.250 0.130 0.250 0 0 0
v -0.250 0.200 0.250 0 0 0
v 0.278 0.260 0.224 0 0 0
v 0.316 0.260 0.216 0 0 0
v 0.500 0.260 0.216 0 0 0
v 0.500 0.260 0.284 0 0 0
v 0.245 0.260 0.245 0 0 0
v 0.224 0.260 0.278 0 0 0
v 0.318 0.260 0.284 0 0 0
v 0.305 0.260 0.286 0 0 0
v 0.216 0.260 0.316 0 0 0
v 0.294 0.260 0.294 0 0 0
v 0.286 0.260 0.305 0 0 0
v 0.284 0.260 0.318 0 0 0
v 0.216 0.260 0.500 0 0 0
v 0.284 0.260 0.500 0 0 0
v 0.500 0.130 0.284 0 0 0
v 0.318 0.130 0.284 0 0 0
v 0.500 0.260 0.284 0 0 0
v 0.318 0.260 0.284 0 0 0
v 0.305 0.130 0.286 0 0 0
v 0.305 0.260 0.286 0 0 0
v 0.294 0.130 0.294 0 0 0
v 0.294 0.260 0.294 0 0 0
v 0.284 0.130 0.500 0 0 0
v 0.284 0.260 0.500 0 0 0
v 0.284 0.130 0.318 0 0 0
v 0.284 0.260 0.318 0 0 0
v 0.286 0.260 0.305 0 0 0
v 0.286 0.130 0.305 0 0 0
v 0.294 0.260 0.294 0 0 0
v 0.294 0.130 0.294 0 0 0
v 0.216 0.260 0.500 0 0 0
v 0.216 0.130 0.500 0 0 0
v 0.216 0.260 0.316 0 0 0
v 0.216 0.130 0.316 0 0 0
v 0.224 0.130 0.278 0 0 0
v 0.224 0.260 0.278 0 0 0
v 0.245 0.130 0.245 0 0 0
v 0.245 0.260 0.245 0 0 0
v 0.500 0.260 0.216 0 0 0
v 0.316 0.260 0.216 0 0 0
v 0.500 0.130 0.216 0 0 0
v 0.316 0.130 0.216 0 0 0
v 0.278 0.260 0.224 0 0 0
v 0.278 0.130 0.224 0 0 0
v 0.245 0.260 0.245 0 0 0
v 0.245 0.130 0.245 0 0 0
v -0.266 0.202 -0.200 0 0 0
v -0.250 0.202 -0.202 0 0 0
v -0.235 0.202 -0.200 0 0 0
v -0.221 0.202 -0.193 0 0 0
v -0.280 0.202 -0.193 0 0 0
v -0.210 0.202 -0.182 0 0 0
v -0.291 0.202 -0.182 0 0 0
v -0.203 0.202 -0.168 0 0 0
v -0.298 0.202 -0.168 0 0 0
v -0.200 0.202 -0.152 0 0 0
v -0.300 0.202 -0.152 0 0 0
v -0.200 0.202 0.149 0 0 0
v -0.300 0.202 0.149 0 0 0
v -0.203 0.202 0.165 0 0 0
v -0.298 0.202 0.165 0 0 0
v -0.210 0.202 0.178 0 0 0
v -0.291 0.202 0.178 0 0 0
v -0.221 0.202 0.190 0 0 0
v -0.280 0.202 0.190 0 0 0
v -0.235 0.202 0.197 0 0 0
v -0.266 0.202 0.197 0 0 0
v -0.250 0.202 0.199 0 0 0
v 0.250 0.200 0.250 0 0 0
v 0.250 0.200 -0.250 0 0 0
v 0.500 0.200 -0.250 0 0 0
v 0.500 0.200 0.250 0 0 0
v -0.250 0.200 0.250 0 0 0
v -0.250 0.200 -0.250 0 0 0
v 0.000 0.200 -0.250 0 0 0
v 0.000 0.200 0.250 0 0 0
v 0.250 0.200 -0.250 0 0 0
v 0.250 0.200 0.250 0 0 0
v 0.235 0.202 -0.199 0 0 0
v 0.250 0.202 -0.201 0 0 0
v 0.265 0.202 -0.198 0 0 0
v 0.221 0.202 -0.191 0 0 0
v 0.279 0.202 -0.191 0 0 0
v 0.209 0.202 -0.180 0 0 0
v 0.290 0.202 -0.180 0 0 0
v 0.202 0.202 -0.166 0 0 0
v 0.298 0.202 -0.166 0 0 0
v 0.200 0.202 -0.151 0 0 0
v 0.300 0.202 -0.151 0 0 0
v 0.199 0.202 0.150 0 0 0
v 0.299 0.202 0.151 0 0 0
v 0.201 0.202 0.166 0 0 0
v 0.297 0.202 0.166 0 0 0
v 0.208 0.202 0.180 0 0 0
v 0.289 0.202 0.180 0 0 0
v 0.219 0.202 0.191 0 0 0
v 0.278 0.202 0.191 0 0 0
v 0.233 0.202 0.198 0 0 0
v 0.264 0.202 0.198 0 0 0
v 0.249 0.202 0.201 0 0 0
v -0.316 0.130 0.216 0 0 0
v -0.500 0.130 0.216 0 0 0
v -0.500 0.130 0.284 0 0 0
v -0.278 0.130 0.224 0 0 0
v -0.245 0.130 0.246 0 0 0
v -0.224 0.130 0.278 0 0 0
v -0.318 0.130 0.284 0 0 0
v -0.305 0.130 0.286 0 0 0
v -0.216 0.130 0.316 0 0 0
v -0.294 0.130 0.294 0 0 0
v -0.287 0.130 0.305 0 0 0
v -0.284 0.130 0.318 0 0 0
v -0.216 0.130 0.500 0 0 0
v -0.284 0.130 0.500 0 0 0

# Normal Array
vn -0.000 -1.000 0.000
vn -0.000 -1.000 0.000
vn 0.000 1.000 -0.000
vn 0.000 1.000 0.000
vn -0.000 -0.001 1.000
vn -0.000 -0.000 1.000
vn 0.000 0.000 -1.000
vn 0.000 0.000 -1.000
vn -0.000 -1.000 -0.000
vn 0.000 -1.000 -0.000
vn 0.000 -1.000 -0.000
vn 0.000 -1.000 -0.000
vn 0.000 -1.000 -0.000
vn 0.000 -1.000 0.000
vn 0.000 -1.000 0.000
vn 0.000 0.000 0.000
vn 0.000 0.000 -1.000
vn 0.000 0.000 -1.000
vn 0.000 0.000 -1.000
vn 0.000 0.000 -1.000
vn 0.000 0.000 -1.000
vn 0.000 0.000 -1.000
vn 0.000 0.000 -1.000
vn 0.000 0.000 -1.000
vn 0.000 0.000 1.000
vn 0.000 0.000 1.000
vn -0.000 0.000 1.000
vn -0.000 0.000 1.000
vn 0.000 1.000 0.000
vn -0.000 1.000 0.000
vn 1.000 -0.000 0.000
vn 1.000 -0.000 0.000
vn 0.981 -0.000 -0.195
vn 0.981 -0.000 -0.195
vn 0.832 -0.000 -0.555
vn 0.832 -0.000 -0.555
vn 0.556 -0.000 -0.831
vn 0.556 -0.000 -0.831
vn 0.196 -0.000 -0.981
vn 0.195 -0.000 -0.981
vn 0.000 -0.000 -1.000
vn 0.001 -0.001 -1.000
vn 0.000 -1.000 0.000
vn 0.000 -1.000 -0.000
vn 0.000 -1.000 0.000
vn 0.000 -1.000 0.000
vn -0.000 -1.000 -0.000
vn 0.000 -1.000 -0.000
vn 0.000 -1.000 -0.000
vn 0.000 -1.000 -0.000
vn 0.000 -1.000 -0.000
vn 0.000 -1.000 -0.000
vn 0.000 -1.000 -0.000
vn 0.000 -1.000 -0.000
vn -1.000 0.000 -0.000
vn -1.000 0.001 -0.000
vn -0.981 0.000 0.195
vn -0.981 0.000 0.195
vn -0.831 -0.000 0.556
vn -0.832 -0.000 0.555
vn 0.000 0.000 1.000
vn -0.001 -0.001 1.000
vn -0.196 -0.001 0.981
vn -0.195 -0.001 0.981
vn -0.556 -0.001 0.831
vn -0.556 -0.001 0.831
vn -0.000 1.000 0.000
vn -0.000 1.000 -0.000
vn -0.000 1.000 0.000
vn -0.000 1.000 -0.000
vn -0.000 1.000 0.000
vn -0.000 1.000 0.000
vn -0.000 1.000 -0.000
vn 0.000 1.000 -0.000
vn -0.000 1.000 -0.000
vn -0.000 1.000 0.000
vn -0.000 1.000 -0.000
vn 0.000 1.000 -0.000
vn 1.000 0.000 0.000
vn 1.000 -0.000 0.000
vn 0.000 -1.000 0.000
vn 0.000 -1.000 0.000
vn 0.000 -1.000 0.000
vn -0.000 1.000 0.000
vn 0.000 1.000 0.000
vn 0.000 1.000 0.000
vn -1.000 -0.000 0.000
vn -1.000 0.000 0.000
vn -0.000 1.000 0.000
vn -0.000 1.000 -0.000
vn -0.000 1.000 0.000
vn -0.000 1.000 -0.000
vn -0.000 1.000 0.000
vn 0.000 1.000 0.000
vn -0.000 1.000 0.000
vn 0.000 1.000 0.000
vn 0.000 1.000 0.000
vn 0.000 1.000 0.000
vn 0.000 1.000 0.000
vn 0.000 1.000 0.000
vn -0.000 0.000 1.000
vn -0.000 0.000 1.000
vn 0.195 -0.000 0.981
vn 0.195 -0.000 0.981
vn 0.555 -0.000 0.832
vn 0.555 -0.000 0.832
vn 1.000 0.000 -0.000
vn 1.000 -0.000 -0.000
vn 0.981 -0.000 0.195
vn 0.981 -0.000 0.195
vn 0.831 -0.000 0.556
vn 0.831 -0.000 0.556
vn -1.000 -0.001 -0.000
vn -1.000 -0.000 -0.000
vn -0.981 -0.000 -0.195
vn -0.981 -0.000 -0.195
vn -0.831 -0.000 -0.556
vn -0.831 -0.000 -0.556
vn 0.000 -0.000 -1.000
vn 0.000 0.000 -1.000
vn -0.195 0.000 -0.981
vn -0.195 -0.000 -0.981
vn -0.555 -0.000 -0.832
vn -0.555 -0.000 -0.832
vn -0.000 1.000 0.000
vn 0.000 1.000 -0.000
vn 0.000 1.000 0.000
vn 0.000 1.000 -0.000
vn 0.000 1.000 0.000
vn 0.000 1.000 0.000
vn 0.000 1.000 0.000
vn 0.000 1.000 -0.000
vn 0.000 1.000 0.000
vn 0.000 1.000 -0.000
vn 0.000 1.000 -0.000
vn 0.000 1.000 0.000
vn 0.000 1.000 0.000
vn 0.000 1.000 0.000
vn 0.000 1.000 0.000
vn 0.000 1.000 0.000
vn 0.000 1.000 0.000
vn 0.000 1.000 0.000
vn 0.000 1.000 0.000
vn 0.000 1.000 0.000
vn 0.000 1.000 0.000
vn 0.000 1.000 0.000
vn 0.000 1.000 0.000
vn 0.000 1.000 0.000
vn 0.000 1.000 0.000
vn 0.000 1.000 0.000
vn -0.000 1.000 0.000
vn 0.000 1.000 0.000
vn 0.000 1.000 -0.000
vn 0.000 1.000 0.000
vn 0.000 1.000 -0.000
vn -0.000 1.000 0.000
vn -0.000 1.000 0.000
vn 0.000 1.000 0.000
vn 0.000 1.000 -0.000
vn 0.000 1.000 -0.000
vn 0.000 1.000 -0.000
vn 0.000 1.000 0.000
vn 0.000 1.000 0.000
vn -0.000 1.000 0.000
vn -0.000 1.000 0.000
vn 0.000 1.000 0.000
vn 0.000 1.000 0.000
vn 0.000 1.000 0.000
vn 0.000 1.000 0.000
vn 0.000 1.000 0.000
vn -0.000 -1.000 -0.000
vn 0.000 -1.000 -0.000
vn 0.000 -1.000 -0.000
vn 0.000 -1.000 0.000
vn 0.000 -1.000 -0.000
vn 0.000 -1.000 -0.000
vn 0.000 -1.000 0.000
vn 0.000 -1.000 -0.000
vn 0.000 -1.000 0.000
vn 0.000 -1.000 -0.000
vn 0.000 -1.000 0.000
vn 0.000 -1.000 0.000

# Facets
f 1//1 3//1 2//1
f 4//2 3//2 1//2
f 5//3 7//3 6//3
f 8//4 7//4 5//4
f 9//5 11//5 10//5
f 12//6 11//6 9//6
f 13//7 15//7 14//7
f 16//8 15//8 13//8
f 17//9 19//9 18//9
f 19//10 17//10 20//10
f 19//11 20//11 21//11
f 19//12 21//12 22//12
f 19//13 22//13 23//13
f 19//14 23//14 24//14
f 24//15 23//15 25//15
f 24//16 25//16 26//16
f 27//17 29//17 28//17
f 28//18 29//18 30//18
f 29//19 31//19 30//19
f 30//20 31//20 32//20
f 31//21 33//21 32//21
f 32//22 33//22 34//22
f 33//23 35//23 34//23
f 34//24 35//24 36//24
f 37//25 39//25 38//25
f 40//26 39//26 37//26
f 41//27 43//27 42//27
f 44//28 43//28 41//28
f 45//29 47//29 46//29
f 48//30 47//30 45//30
f 49//31 51//31 50//31
f 52//32 51//32 49//32
f 52//33 53//33 51//33
f 54//34 53//34 52//34
f 54//35 55//35 53//35
f 56//36 55//36 54//36
f 56//37 57//37 55//37
f 58//38 57//38 56//38
f 58//39 59//39 57//39
f 60//40 59//40 58//40
f 60//41 61//41 59//41
f 59//42 61//42 62//42
f 63//43 65//43 64//43
f 66//44 65//44 63//44
f 66//45 67//45 65//45
f 66//46 68//46 67//46
f 66//47 69//47 68//47
f 70//48 69//48 66//48
f 69//49 70//49 71//49
f 70//50 72//50 71//50
f 73//51 72//51 70//51
f 74//52 72//52 73//52
f 74//53 75//53 72//53
f 75//54 74//54 76//54
f 77//55 79//55 78//55
f 80//56 79//56 77//56
f 80//57 81//57 79//57
f 82//58 81//58 80//58
f 82//59 83//59 81//59
f 84//60 83//60 82//60
f 85//61 87//61 86//61
f 88//62 87//62 85//62
f 88//63 85//63 89//63
f 89//64 85//64 90//64
f 89//65 90//65 91//65
f 91//66 90//66 92//66
f 93//67 95//67 94//67
f 95//68 93//68 96//68
f 96//69 93//69 97//69
f 97//70 93//70 98//70
f 98//71 93//71 99//71
f 98//72 99//72 100//72
f 98//73 100//73 101//73
f 101//74 100//74 102//74
f 101//75 102//75 103//75
f 101//76 103//76 104//76
f 101//77 104//77 105//77
f 105//78 104//78 106//78
f 107//79 109//79 108//79
f 110//80 109//80 107//80
f 111//81 113//81 112//81
f 113//82 111//82 114//82
f 113//83 114//83 115//83
f 116//84 118//84 117//84
f 118//85 116//85 119//85
f 118//86 119//86 120//86
f 121//87 123//87 122//87
f 124//88 123//88 121//88
f 125//89 127//89 126//89
f 127//90 125//90 128//90
f 128//91 125//91 129//91
f 128//92 129//92 130//92
f 128//93 130//93 131//93
f 130//94 132//94 131//94
f 132//95 130//95 133//95
f 132//96 133//96 134//96
f 134//97 133//97 135//97
f 135//98 133//98 136//98
f 136//99 133//99 137//99
f 136//100 137//100 138//100
f 139//101 141//101 140//101
f 140//102 141//102 142//102
f 142//103 143//103 140//103
f 144//104 143//104 142//104
f 144//105 145//105 143//105
f 146//106 145//106 144//106
f 147//107 149//107 148//107
f 148//108 149//108 150//108
f 150//109 149//109 151//109
f 151//110 149//110 152//110
f 151//111 152//111 153//111
f 153//112 152//112 154//112
f 155//113 157//113 156//113
f 156//114 157//114 158//114
f 158//115 157//115 159//115
f 159//116 157//116 160//116
f 159//117 160//117 161//117
f 161//118 160//118 162//118
f 163//119 165//119 164//119
f 164//120 165//120 166//120
f 166//121 167//121 164//121
f 168//122 167//122 166//122
f 168//123 169//123 167//123
f 170//124 169//124 168//124
f 171//125 173//125 172//125
f 173//126 171//126 174//126
f 174//127 171//127 175//127
f 174//128 175//128 176//128
f 176//129 175//129 177//129
f 176//130 177//130 178//130
f 178//131 177//131 179//131
f 178//132 179//132 180//132
f 180//133 179//133 181//133
f 180//134 181//134 182//134
f 182//135 181//135 183//135
f 182//136 183//136 184//136
f 184//137 183//137 185//137
f 184//138 185//138 186//138
f 186//139 185//139 187//139
f 186//140 187//140 188//140
f 188//141 187//141 189//141
f 188//142 189//142 190//142
f 190//143 189//143 191//143
f 190//144 191//144 192//144
f 193//145 195//145 194//145
f 196//146 195//146 193//146
f 197//147 199//147 198//147
f 200//148 199//148 197//148
f 200//149 201//149 199//149
f 202//150 201//150 200//150
f 203//151 205//151 204//151
f 205//152 203//152 206//152
f 205//153 206//153 207//153
f 207//154 206//154 208//154
f 207//155 208//155 209//155
f 209//156 208//156 210//156
f 209//157 210//157 211//157
f 211//158 210//158 212//158
f 211//159 212//159 213//159
f 213//160 212//160 214//160
f 213//161 214//161 215//161
f 215//162 214//162 216//162
f 215//163 216//163 217//163
f 217//164 216//164 218//164
f 217//165 218//165 219//165
f 219//166 218//166 220//166
f 219//167 220//167 221//167
f 221//168 220//168 222//168
f 221//169 222//169 223//169
f 223//170 222//170 224//170
f 225//171 227//171 226//171
f 227//172 225//172 228//172
f 227//173 228//173 229//173
f 227//174 229//174 230//174
f 227//175 230//175 231//175
f 231//176 230//176 232//176
f 232//177 230//177 233//177
f 232//178 233//178 234//178
f 234//179 233//179 235//179
f 235//180 233//180 236//180
f 236//181 233//181 237//181
f 236//182 237//182 238//182

# Thank you for using Spin 3D

