# Created using Spin 3D

# Vertex Array 
v 0.076 0.606 -0.511
v -0.028 0.606 -0.516
v -0.028 0.000 -0.516
v 0.076 0.000 -0.511
v 0.177 0.606 -0.485
v 0.177 0.000 -0.485
v 0.271 0.606 -0.439
v 0.271 0.000 -0.439
v 0.354 0.606 -0.376
v 0.354 0.000 -0.376
v 0.422 0.606 -0.297
v 0.422 0.000 -0.297
v 0.473 0.606 -0.205
v 0.473 0.000 -0.205
v 0.505 0.606 -0.106
v 0.505 -0.000 -0.106
v 0.515 0.606 0.000
v 0.515 -0.000 0.000
v -0.513 0.606 -0.051
v -0.513 0.606 0.000
v -0.513 0.000 0.000
v -0.513 0.000 -0.051
v -0.492 0.606 -0.153
v -0.492 0.000 -0.153
v -0.452 0.606 -0.249
v -0.452 0.000 -0.249
v -0.392 0.606 -0.335
v -0.392 0.000 -0.335
v -0.317 0.606 -0.408
v -0.317 0.000 -0.408
v -0.229 0.606 -0.463
v -0.229 0.000 -0.463
v -0.131 0.606 -0.500
v -0.131 0.000 -0.500
v -0.028 0.606 -0.516
v -0.028 0.000 -0.516
v -0.513 0.000 0.000
v -0.449 0.000 0.000
v -0.513 0.000 -0.051
v -0.492 0.000 -0.153
v -0.384 0.000 0.000
v -0.452 0.000 -0.249
v -0.320 0.000 0.000
v -0.392 0.000 -0.335
v -0.256 0.000 0.000
v -0.317 0.000 -0.408
v -0.191 0.000 0.000
v -0.229 0.000 -0.463
v -0.127 0.000 0.000
v -0.131 0.000 -0.500
v -0.063 0.000 0.000
v -0.028 0.000 -0.516
v 0.001 0.000 0.000
v 0.066 0.000 0.000
v 0.076 0.000 -0.511
v 0.130 -0.000 0.000
v 0.177 0.000 -0.485
v 0.194 -0.000 0.000
v 0.271 0.000 -0.439
v 0.258 -0.000 0.000
v 0.354 0.000 -0.376
v 0.323 -0.000 0.000
v 0.422 0.000 -0.297
v 0.387 -0.000 0.000
v 0.473 0.000 -0.205
v 0.451 -0.000 0.000
v 0.505 -0.000 -0.106
v 0.515 -0.000 0.000
v 0.515 0.606 0.000
v 0.451 0.606 0.000
v 0.505 0.606 -0.106
v 0.473 0.606 -0.205
v 0.387 0.606 0.000
v 0.422 0.606 -0.297
v 0.323 0.606 0.000
v 0.354 0.606 -0.376
v 0.258 0.606 0.000
v 0.271 0.606 -0.439
v 0.194 0.606 0.000
v 0.177 0.606 -0.485
v 0.130 0.606 0.000
v 0.076 0.606 -0.511
v 0.066 0.606 0.000
v -0.028 0.606 -0.516
v 0.001 0.606 0.000
v -0.131 0.606 -0.500
v -0.063 0.606 0.000
v -0.229 0.606 -0.463
v -0.127 0.606 0.000
v -0.317 0.606 -0.408
v -0.191 0.606 0.000
v -0.392 0.606 -0.335
v -0.256 0.606 0.000
v -0.452 0.606 -0.249
v -0.320 0.606 0.000
v -0.384 0.606 0.000
v -0.492 0.606 -0.153
v -0.449 0.606 0.000
v -0.513 0.606 -0.051
v -0.513 0.606 0.000
v -0.513 0.000 0.000
v -0.513 0.606 0.000
v -0.449 0.606 0.000
v -0.449 0.000 0.000
v -0.384 0.606 0.000
v -0.384 0.000 0.000
v -0.320 0.606 0.000
v -0.320 0.000 0.000
v -0.256 0.606 0.000
v -0.256 0.000 0.000
v -0.191 0.606 0.000
v -0.191 0.000 0.000
v -0.127 0.606 0.000
v -0.127 0.000 0.000
v -0.063 0.606 0.000
v -0.063 0.000 0.000
v 0.001 0.606 0.000
v 0.001 0.000 0.000
v 0.066 0.606 0.000
v 0.066 0.000 0.000
v 0.130 0.606 0.000
v 0.130 -0.000 0.000
v 0.194 0.606 0.000
v 0.194 -0.000 0.000
v 0.258 0.606 0.000
v 0.258 -0.000 0.000
v 0.323 0.606 0.000
v 0.323 -0.000 0.000
v 0.387 0.606 0.000
v 0.387 -0.000 0.000
v 0.451 0.606 0.000
v 0.451 -0.000 0.000
v 0.515 0.606 0.000
v 0.515 -0.000 0.000

# Normal Array
vn 0.048 -0.000 -0.999
vn 0.048 0.000 -0.999
vn 0.248 0.000 -0.969
vn 0.248 0.000 -0.969
vn 0.438 0.000 -0.899
vn 0.438 0.000 -0.899
vn 0.611 0.000 -0.792
vn 0.611 0.000 -0.792
vn 0.757 -0.000 -0.653
vn 0.757 -0.000 -0.653
vn 0.873 -0.000 -0.487
vn 0.873 -0.000 -0.487
vn 0.953 -0.000 -0.302
vn 0.953 -0.000 -0.302
vn 0.995 -0.000 -0.103
vn 0.995 -0.000 -0.103
vn -1.000 0.000 0.004
vn -1.000 0.000 0.004
vn -0.980 0.000 -0.197
vn -0.980 0.000 -0.197
vn -0.921 0.000 -0.390
vn -0.921 0.000 -0.390
vn -0.823 0.000 -0.568
vn -0.823 0.000 -0.568
vn -0.692 0.000 -0.722
vn -0.692 0.000 -0.722
vn -0.533 0.000 -0.846
vn -0.533 0.000 -0.846
vn -0.351 0.000 -0.936
vn -0.351 0.000 -0.936
vn -0.155 0.000 -0.988
vn -0.155 -0.000 -0.988
vn 0.000 -1.000 -0.000
vn 0.000 -1.000 -0.000
vn -0.000 -1.000 -0.000
vn -0.000 -1.000 -0.000
vn 0.000 -1.000 -0.000
vn -0.000 -1.000 -0.000
vn -0.000 -1.000 -0.000
vn -0.000 -1.000 -0.000
vn 0.000 -1.000 -0.000
vn -0.000 -1.000 -0.000
vn 0.000 -1.000 -0.000
vn -0.000 -1.000 -0.000
vn -0.000 -1.000 -0.000
vn -0.000 -1.000 -0.000
vn 0.000 -1.000 -0.000
vn 0.000 -1.000 -0.000
vn -0.000 -1.000 -0.000
vn -0.000 -1.000 -0.000
vn -0.000 -1.000 -0.000
vn 0.000 -1.000 -0.000
vn -0.000 -1.000 -0.000
vn 0.000 -1.000 -0.000
vn -0.000 -1.000 -0.000
vn -0.000 -1.000 -0.000
vn -0.000 -1.000 -0.000
vn 0.000 -1.000 -0.000
vn -0.000 -1.000 -0.000
vn -0.000 -1.000 -0.000
vn -0.000 -1.000 -0.000
vn 0.000 -1.000 -0.000
vn 0.000 1.000 0.000
vn 0.000 1.000 0.000
vn 0.000 1.000 0.000
vn 0.000 1.000 0.000
vn 0.000 1.000 0.000
vn -0.000 1.000 0.000
vn 0.000 1.000 0.000
vn -0.000 1.000 0.000
vn 0.000 1.000 0.000
vn -0.000 1.000 0.000
vn 0.000 1.000 0.000
vn 0.000 1.000 0.000
vn 0.000 1.000 0.000
vn -0.000 1.000 0.000
vn 0.000 1.000 0.000
vn 0.000 1.000 0.000
vn 0.000 1.000 0.000
vn 0.000 1.000 0.000
vn 0.000 1.000 0.000
vn 0.000 1.000 0.000
vn 0.000 1.000 0.000
vn 0.000 1.000 0.000
vn 0.000 1.000 0.000
vn 0.000 1.000 0.000
vn 0.000 1.000 0.000
vn 0.000 1.000 0.000
vn -0.000 1.000 0.000
vn 0.000 1.000 0.000
vn 0.000 1.000 0.000
vn 0.000 1.000 -0.000
vn 0.000 0.000 1.000
vn 0.000 -0.000 1.000
vn 0.000 0.000 1.000
vn 0.000 -0.000 1.000
vn 0.000 0.000 1.000
vn 0.000 -0.000 1.000
vn 0.000 0.000 1.000
vn 0.000 -0.000 1.000
vn 0.000 0.000 1.000
vn 0.000 -0.000 1.000
vn 0.000 0.000 1.000
vn 0.000 -0.000 1.000
vn 0.000 0.000 1.000
vn 0.000 -0.000 1.000
vn 0.000 0.000 1.000
vn 0.000 -0.000 1.000
vn 0.000 0.000 1.000
vn 0.000 -0.000 1.000
vn 0.000 0.000 1.000
vn 0.000 -0.000 1.000
vn 0.000 0.000 1.000
vn 0.000 -0.000 1.000
vn 0.000 0.000 1.000
vn 0.000 -0.000 1.000
vn 0.000 0.000 1.000
vn 0.000 -0.000 1.000
vn 0.000 0.000 1.000
vn 0.000 -0.000 1.000
vn 0.000 0.000 1.000
vn 0.000 -0.000 1.000
vn 0.000 0.000 1.000
vn 0.000 -0.000 1.000

# Facets
f 1//1 3//1 2//1
f 4//2 3//2 1//2
f 5//3 4//3 1//3
f 6//4 4//4 5//4
f 7//5 6//5 5//5
f 8//6 6//6 7//6
f 9//7 8//7 7//7
f 10//8 8//8 9//8
f 11//9 10//9 9//9
f 12//10 10//10 11//10
f 13//11 12//11 11//11
f 14//12 12//12 13//12
f 15//13 14//13 13//13
f 16//14 14//14 15//14
f 17//15 16//15 15//15
f 18//16 16//16 17//16
f 19//17 21//17 20//17
f 22//18 21//18 19//18
f 23//19 22//19 19//19
f 24//20 22//20 23//20
f 25//21 24//21 23//21
f 26//22 24//22 25//22
f 27//23 26//23 25//23
f 28//24 26//24 27//24
f 29//25 28//25 27//25
f 30//26 28//26 29//26
f 31//27 30//27 29//27
f 32//28 30//28 31//28
f 33//29 32//29 31//29
f 34//30 32//30 33//30
f 35//31 34//31 33//31
f 36//32 34//32 35//32
f 37//33 39//33 38//33
f 39//34 40//34 38//34
f 38//35 40//35 41//35
f 40//36 42//36 41//36
f 41//37 42//37 43//37
f 42//38 44//38 43//38
f 43//39 44//39 45//39
f 44//40 46//40 45//40
f 45//41 46//41 47//41
f 46//42 48//42 47//42
f 47//43 48//43 49//43
f 48//44 50//44 49//44
f 49//45 50//45 51//45
f 50//46 52//46 51//46
f 51//47 52//47 53//47
f 53//48 52//48 54//48
f 54//49 52//49 55//49
f 54//50 55//50 56//50
f 56//51 55//51 57//51
f 56//52 57//52 58//52
f 58//53 57//53 59//53
f 58//54 59//54 60//54
f 60//55 59//55 61//55
f 60//56 61//56 62//56
f 62//57 61//57 63//57
f 62//58 63//58 64//58
f 64//59 63//59 65//59
f 64//60 65//60 66//60
f 66//61 65//61 67//61
f 66//62 67//62 68//62
f 69//63 71//63 70//63
f 71//64 72//64 70//64
f 70//65 72//65 73//65
f 72//66 74//66 73//66
f 73//67 74//67 75//67
f 74//68 76//68 75//68
f 75//69 76//69 77//69
f 76//70 78//70 77//70
f 77//71 78//71 79//71
f 78//72 80//72 79//72
f 79//73 80//73 81//73
f 80//74 82//74 81//74
f 81//75 82//75 83//75
f 82//76 84//76 83//76
f 83//77 84//77 85//77
f 84//78 86//78 85//78
f 85//79 86//79 87//79
f 86//80 88//80 87//80
f 87//81 88//81 89//81
f 88//82 90//82 89//82
f 89//83 90//83 91//83
f 90//84 92//84 91//84
f 91//85 92//85 93//85
f 92//86 94//86 93//86
f 93//87 94//87 95//87
f 95//88 94//88 96//88
f 96//89 94//89 97//89
f 96//90 97//90 98//90
f 98//91 97//91 99//91
f 98//92 99//92 100//92
f 101//93 103//93 102//93
f 104//94 103//94 101//94
f 104//95 105//95 103//95
f 106//96 105//96 104//96
f 106//97 107//97 105//97
f 108//98 107//98 106//98
f 108//99 109//99 107//99
f 110//100 109//100 108//100
f 110//101 111//101 109//101
f 112//102 111//102 110//102
f 112//103 113//103 111//103
f 114//104 113//104 112//104
f 114//105 115//105 113//105
f 116//106 115//106 114//106
f 116//107 117//107 115//107
f 118//108 117//108 116//108
f 118//109 119//109 117//109
f 120//110 119//110 118//110
f 120//111 121//111 119//111
f 122//112 121//112 120//112
f 122//113 123//113 121//113
f 124//114 123//114 122//114
f 124//115 125//115 123//115
f 126//116 125//116 124//116
f 126//117 127//117 125//117
f 128//118 127//118 126//118
f 128//119 129//119 127//119
f 130//120 129//120 128//120
f 130//121 131//121 129//121
f 132//122 131//122 130//122
f 132//123 133//123 131//123
f 134//124 133//124 132//124

# Thank you for using Spin 3D

