# Created using Spin 3D

# Vertex Array 
v -0.052 0.606 -0.514
v 0.052 0.606 -0.514
v 0.154 0.606 -0.493
v -0.154 0.606 -0.493
v -0.250 0.606 -0.452
v 0.250 0.606 -0.452
v -0.336 0.606 -0.392
v 0.336 0.606 -0.392
v -0.408 0.606 -0.316
v 0.408 0.606 -0.316
v -0.463 0.606 -0.228
v 0.463 0.606 -0.228
v -0.499 0.606 -0.130
v 0.499 0.606 -0.130
v -0.515 0.606 -0.026
v 0.515 0.606 -0.026
v -0.510 0.606 0.078
v 0.510 0.606 0.078
v -0.483 0.606 0.179
v 0.483 0.606 0.179
v -0.437 0.606 0.273
v 0.437 0.606 0.273
v -0.374 0.606 0.356
v 0.374 0.606 0.356
v -0.294 0.606 0.424
v 0.294 0.606 0.424
v -0.203 0.606 0.475
v 0.203 0.606 0.475
v -0.104 0.606 0.506
v 0.104 0.606 0.506
v -0.000 0.606 0.517
v -0.000 0.606 0.517
v 0.104 0.606 0.506
v -0.000 0.005 0.517
v 0.104 0.005 0.506
v 0.203 0.606 0.475
v 0.203 0.005 0.475
v 0.294 0.606 0.424
v 0.294 0.005 0.424
v 0.374 0.606 0.356
v 0.374 0.005 0.356
v 0.437 0.606 0.273
v 0.437 0.005 0.273
v 0.483 0.606 0.179
v 0.483 0.005 0.179
v 0.510 0.606 0.078
v 0.510 0.005 0.078
v 0.515 0.606 -0.026
v 0.515 0.005 -0.026
v 0.499 0.606 -0.130
v 0.499 0.005 -0.130
v 0.463 0.606 -0.228
v 0.463 0.005 -0.228
v 0.408 0.606 -0.316
v 0.408 0.005 -0.316
v 0.336 0.606 -0.392
v 0.336 0.005 -0.392
v 0.250 0.606 -0.452
v 0.250 0.005 -0.452
v 0.154 0.606 -0.493
v 0.154 0.005 -0.493
v 0.052 0.606 -0.514
v 0.052 0.005 -0.514
v -0.052 0.606 -0.514
v -0.052 0.005 -0.514
v -0.154 0.606 -0.493
v -0.154 0.005 -0.493
v -0.250 0.606 -0.452
v -0.250 0.005 -0.452
v -0.336 0.606 -0.392
v -0.336 0.005 -0.392
v -0.408 0.606 -0.316
v -0.408 0.005 -0.316
v -0.463 0.606 -0.228
v -0.463 0.005 -0.228
v -0.499 0.606 -0.130
v -0.499 0.005 -0.130
v -0.515 0.606 -0.026
v -0.515 0.005 -0.026
v -0.510 0.606 0.078
v -0.510 0.005 0.078
v -0.483 0.606 0.179
v -0.483 0.005 0.179
v -0.437 0.606 0.273
v -0.437 0.005 0.273
v -0.374 0.606 0.356
v -0.374 0.005 0.356
v -0.294 0.606 0.424
v -0.294 0.005 0.424
v -0.203 0.606 0.475
v -0.203 0.005 0.475
v -0.104 0.606 0.506
v -0.104 0.005 0.506
v -0.000 0.606 0.517
v -0.000 0.005 0.517
v -0.000 0.005 0.517
v 0.104 0.005 0.506
v 0.000 0.004 0.000
v 0.203 0.005 0.475
v 0.000 0.004 0.000
v -0.104 0.005 0.506
v 0.000 0.004 0.000
v -0.203 0.005 0.475
v 0.000 0.004 0.000
v 0.294 0.005 0.424
v 0.000 0.004 0.000
v 0.374 0.005 0.356
v 0.000 0.004 0.000
v 0.437 0.005 0.273
v 0.000 0.004 0.000
v -0.294 0.005 0.424
v 0.000 0.004 0.000
v 0.154 0.005 -0.493
v 0.052 0.005 -0.514
v -0.052 0.005 -0.514
v 0.000 0.004 0.000
v 0.250 0.005 -0.452
v 0.000 0.004 0.000
v -0.154 0.005 -0.493
v 0.000 0.004 0.000
v 0.336 0.005 -0.392
v 0.000 0.004 0.000
v -0.250 0.005 -0.452
v 0.000 0.004 0.000
v 0.408 0.005 -0.316
v 0.000 0.004 0.000
v -0.336 0.005 -0.392
v 0.000 0.004 0.000
v -0.408 0.005 -0.316
v 0.000 0.004 0.000
v -0.463 0.005 -0.228
v 0.000 0.004 0.000
v -0.499 0.005 -0.130
v 0.463 0.005 -0.228
v 0.000 0.004 0.000
v 0.483 0.005 0.179
v -0.515 0.005 -0.026
v 0.000 0.004 0.000
v -0.374 0.005 0.356
v 0.499 0.005 -0.130
v 0.000 0.004 0.000
v 0.510 0.005 0.078
v -0.510 0.005 0.078
v 0.000 0.004 0.000
v -0.437 0.005 0.273
v 0.515 0.005 -0.026
v 0.000 0.004 0.000
v -0.483 0.005 0.179
v 0.000 0.004 0.000

# Normal Array
vn 0.000 1.000 0.000
vn 0.000 1.000 0.000
vn 0.000 1.000 -0.000
vn 0.000 1.000 0.000
vn 0.000 1.000 0.000
vn 0.000 1.000 -0.000
vn 0.000 1.000 0.000
vn 0.000 1.000 -0.000
vn 0.000 1.000 0.000
vn 0.000 1.000 -0.000
vn 0.000 1.000 -0.000
vn 0.000 1.000 -0.000
vn 0.000 1.000 0.000
vn 0.000 1.000 -0.000
vn 0.000 1.000 -0.000
vn 0.000 1.000 0.000
vn 0.000 1.000 -0.000
vn 0.000 1.000 -0.000
vn 0.000 1.000 -0.000
vn 0.000 1.000 -0.000
vn 0.000 1.000 -0.000
vn 0.000 1.000 0.000
vn 0.000 1.000 -0.000
vn 0.000 1.000 0.000
vn 0.000 1.000 -0.000
vn 0.000 1.000 0.000
vn 0.000 1.000 0.000
vn 0.000 1.000 -0.000
vn 0.000 1.000 0.000
vn 0.101 -0.000 0.995
vn 0.101 0.000 0.995
vn 0.300 0.000 0.954
vn 0.300 0.000 0.954
vn 0.486 0.000 0.874
vn 0.486 0.000 0.874
vn 0.652 0.000 0.758
vn 0.652 -0.000 0.758
vn 0.792 -0.000 0.611
vn 0.792 -0.000 0.611
vn 0.898 -0.000 0.439
vn 0.898 -0.000 0.439
vn 0.968 -0.000 0.250
vn 0.968 -0.000 0.250
vn 0.999 -0.000 0.051
vn 0.999 -0.000 0.051
vn 0.989 -0.000 -0.151
vn 0.989 -0.000 -0.151
vn 0.938 -0.000 -0.347
vn 0.938 -0.000 -0.347
vn 0.849 -0.000 -0.528
vn 0.849 -0.000 -0.528
vn 0.726 -0.000 -0.688
vn 0.726 -0.000 -0.688
vn 0.572 0.000 -0.820
vn 0.572 -0.000 -0.820
vn 0.395 -0.000 -0.919
vn 0.395 -0.000 -0.919
vn 0.202 -0.000 -0.979
vn 0.202 -0.000 -0.979
vn -0.000 -0.000 -1.000
vn -0.000 -0.000 -1.000
vn -0.202 -0.000 -0.979
vn -0.202 -0.000 -0.979
vn -0.395 -0.000 -0.919
vn -0.395 -0.000 -0.919
vn -0.572 -0.000 -0.820
vn -0.572 0.000 -0.820
vn -0.726 0.000 -0.688
vn -0.726 -0.000 -0.688
vn -0.849 -0.000 -0.528
vn -0.849 0.000 -0.528
vn -0.938 0.000 -0.347
vn -0.938 0.000 -0.347
vn -0.989 0.000 -0.151
vn -0.989 0.000 -0.151
vn -0.999 0.000 0.051
vn -0.999 0.000 0.051
vn -0.968 0.000 0.250
vn -0.968 0.000 0.250
vn -0.898 0.000 0.439
vn -0.898 0.000 0.439
vn -0.792 0.000 0.611
vn -0.792 0.000 0.611
vn -0.652 0.000 0.758
vn -0.652 0.000 0.758
vn -0.486 0.000 0.874
vn -0.486 0.000 0.874
vn -0.300 0.000 0.954
vn -0.300 0.000 0.954
vn -0.101 0.000 0.995
vn -0.101 -0.000 0.995
vn 0.000 -1.000 0.002
vn 0.001 -1.000 0.002
vn -0.000 -1.000 0.002
vn -0.001 -1.000 0.002
vn 0.001 -1.000 0.002
vn 0.002 -1.000 0.002
vn 0.002 -1.000 0.001
vn -0.001 -1.000 0.002
vn 0.000 -1.000 -0.002
vn -0.000 -1.000 -0.002
vn 0.001 -1.000 -0.002
vn -0.000 -1.000 -0.002
vn 0.001 -1.000 -0.002
vn -0.001 -1.000 -0.002
vn 0.002 -1.000 -0.002
vn -0.001 -1.000 -0.002
vn -0.002 -1.000 -0.002
vn -0.002 -1.000 -0.001
vn -0.002 -1.000 -0.001
vn 0.002 -1.000 -0.001
vn 0.002 -1.000 0.001
vn -0.002 -1.000 -0.000
vn -0.002 -1.000 0.002
vn 0.002 -1.000 -0.001
vn 0.002 -1.000 0.001
vn -0.002 -1.000 0.000
vn -0.002 -1.000 0.001
vn 0.002 -1.000 -0.000
vn 0.002 -1.000 0.000
vn -0.002 -1.000 0.001
vn -0.002 -1.000 0.001

# Facets
f 1//1 3//1 2//1
f 3//2 1//2 4//2
f 3//3 4//3 5//3
f 3//4 5//4 6//4
f 6//5 5//5 7//5
f 6//6 7//6 8//6
f 8//7 7//7 9//7
f 8//8 9//8 10//8
f 10//9 9//9 11//9
f 10//10 11//10 12//10
f 12//11 11//11 13//11
f 12//12 13//12 14//12
f 14//13 13//13 15//13
f 14//14 15//14 16//14
f 16//15 15//15 17//15
f 16//16 17//16 18//16
f 18//17 17//17 19//17
f 18//18 19//18 20//18
f 20//19 19//19 21//19
f 20//20 21//20 22//20
f 22//21 21//21 23//21
f 22//22 23//22 24//22
f 24//23 23//23 25//23
f 24//24 25//24 26//24
f 26//25 25//25 27//25
f 26//26 27//26 28//26
f 28//27 27//27 29//27
f 28//28 29//28 30//28
f 30//29 29//29 31//29
f 32//30 34//30 33//30
f 33//31 34//31 35//31
f 33//32 35//32 36//32
f 36//33 35//33 37//33
f 36//34 37//34 38//34
f 38//35 37//35 39//35
f 38//36 39//36 40//36
f 40//37 39//37 41//37
f 40//38 41//38 42//38
f 42//39 41//39 43//39
f 42//40 43//40 44//40
f 44//41 43//41 45//41
f 44//42 45//42 46//42
f 46//43 45//43 47//43
f 46//44 47//44 48//44
f 48//45 47//45 49//45
f 48//46 49//46 50//46
f 50//47 49//47 51//47
f 50//48 51//48 52//48
f 52//49 51//49 53//49
f 52//50 53//50 54//50
f 54//51 53//51 55//51
f 54//52 55//52 56//52
f 56//53 55//53 57//53
f 56//54 57//54 58//54
f 58//55 57//55 59//55
f 58//56 59//56 60//56
f 60//57 59//57 61//57
f 60//58 61//58 62//58
f 62//59 61//59 63//59
f 62//60 63//60 64//60
f 64//61 63//61 65//61
f 64//62 65//62 66//62
f 66//63 65//63 67//63
f 66//64 67//64 68//64
f 68//65 67//65 69//65
f 68//66 69//66 70//66
f 70//67 69//67 71//67
f 70//68 71//68 72//68
f 72//69 71//69 73//69
f 72//70 73//70 74//70
f 74//71 73//71 75//71
f 74//72 75//72 76//72
f 76//73 75//73 77//73
f 76//74 77//74 78//74
f 78//75 77//75 79//75
f 78//76 79//76 80//76
f 80//77 79//77 81//77
f 80//78 81//78 82//78
f 82//79 81//79 83//79
f 82//80 83//80 84//80
f 84//81 83//81 85//81
f 84//82 85//82 86//82
f 86//83 85//83 87//83
f 86//84 87//84 88//84
f 88//85 87//85 89//85
f 88//86 89//86 90//86
f 90//87 89//87 91//87
f 90//88 91//88 92//88
f 92//89 91//89 93//89
f 92//90 93//90 94//90
f 94//91 93//91 95//91
f 96//92 98//92 97//92
f 97//93 100//93 99//93
f 101//94 102//94 96//94
f 103//95 104//95 101//95
f 99//96 106//96 105//96
f 105//97 108//97 107//97
f 107//98 110//98 109//98
f 111//99 112//99 103//99
f 113//100 106//100 114//100
f 114//101 116//101 115//101
f 117//102 118//102 113//102
f 115//103 120//103 119//103
f 121//104 122//104 117//104
f 119//105 124//105 123//105
f 125//106 126//106 121//106
f 123//107 128//107 127//107
f 127//108 130//108 129//108
f 129//109 132//109 131//109
f 131//110 112//110 133//110
f 134//111 135//111 125//111
f 109//112 135//112 136//112
f 133//113 138//113 137//113
f 139//114 138//114 111//114
f 140//115 141//115 134//115
f 136//116 141//116 142//116
f 137//117 144//117 143//117
f 145//118 144//118 139//118
f 146//119 147//119 140//119
f 142//120 147//120 146//120
f 143//121 149//121 148//121
f 148//122 149//122 145//122

# Thank you for using Spin 3D

