# Created using Spin 3D

# Vertex Array 
v 2.000 -0.020 0.399 0 0 0
v 1.718 -0.020 0.282 0 0 0
v 2.000 0.705 0.399 0 0 0
v 1.718 0.705 0.282 0 0 0
v 1.525 -0.020 0.362 0 0 0
v 1.525 0.705 0.362 0 0 0
v 1.408 -0.020 0.080 0 0 0
v 1.525 -0.020 0.362 0 0 0
v 1.718 -0.020 0.282 0 0 0
v 1.601 -0.020 0.000 0 0 0
v 2.399 -0.020 0.000 0 0 0
v 2.282 -0.020 0.282 0 0 0
v 2.000 -0.020 0.399 0 0 0
v 2.282 -0.020 -0.282 0 0 0
v 1.718 -0.020 -0.282 0 0 0
v 2.000 -0.020 -0.399 0 0 0
v 2.000 -0.020 0.399 0 0 0
v 2.000 0.705 0.399 0 0 0
v 2.282 0.705 0.282 0 0 0
v 2.282 -0.020 0.282 0 0 0
v 2.399 0.705 0.000 0 0 0
v 2.399 -0.020 0.000 0 0 0
v 2.282 0.705 -0.282 0 0 0
v 2.282 -0.020 -0.282 0 0 0
v 2.000 0.705 -0.399 0 0 0
v 2.000 -0.020 -0.399 0 0 0
v 1.718 0.705 -0.282 0 0 0
v 1.718 -0.020 -0.282 0 0 0
v 1.601 0.705 0.000 0 0 0
v 1.601 -0.020 0.000 0 0 0
v 1.408 0.705 0.080 0 0 0
v 1.408 -0.020 0.080 0 0 0
v 1.718 0.705 -0.282 0 0 0
v 2.000 0.705 -0.399 0 0 0
v 2.282 0.705 -0.282 0 0 0
v 2.399 0.705 0.000 0 0 0
v 1.601 0.705 0.000 0 0 0
v 2.282 0.705 0.282 0 0 0
v 1.718 0.705 0.282 0 0 0
v 2.000 0.705 0.399 0 0 0
v 1.525 0.705 0.362 0 0 0
v 1.408 0.705 0.080 0 0 0
v -0.000 -0.020 1.399 0 0 0
v -0.282 -0.020 1.282 0 0 0
v -0.000 0.705 1.399 0 0 0
v -0.282 0.705 1.282 0 0 0
v -0.399 -0.020 1.000 0 0 0
v -0.399 0.705 1.000 0 0 0
v -0.282 -0.020 0.718 0 0 0
v -0.282 0.705 0.718 0 0 0
v -0.000 -0.020 0.601 0 0 0
v -0.000 0.705 0.601 0 0 0
v 0.282 -0.020 0.718 0 0 0
v 0.282 0.705 0.718 0 0 0
v 0.527 -0.020 0.616 0 0 0
v 0.527 0.705 0.616 0 0 0
v 0.644 -0.020 0.899 0 0 0
v 0.527 -0.020 0.616 0 0 0
v 0.282 -0.020 0.718 0 0 0
v 0.399 -0.020 1.000 0 0 0
v -0.399 -0.020 1.000 0 0 0
v -0.282 -0.020 0.718 0 0 0
v -0.000 -0.020 0.601 0 0 0
v -0.282 -0.020 1.282 0 0 0
v 0.282 -0.020 1.282 0 0 0
v -0.000 -0.020 1.399 0 0 0
v -0.000 -0.020 1.399 0 0 0
v -0.000 0.705 1.399 0 0 0
v 0.282 0.705 1.282 0 0 0
v 0.282 -0.020 1.282 0 0 0
v 0.399 0.705 1.000 0 0 0
v 0.399 -0.020 1.000 0 0 0
v 0.644 0.705 0.899 0 0 0
v 0.644 -0.020 0.899 0 0 0
v -0.282 0.705 0.718 0 0 0
v -0.000 0.705 0.601 0 0 0
v 0.282 0.705 0.718 0 0 0
v 0.399 0.705 1.000 0 0 0
v 0.527 0.705 0.616 0 0 0
v 0.644 0.705 0.899 0 0 0
v -0.399 0.705 1.000 0 0 0
v 0.282 0.705 1.282 0 0 0
v -0.282 0.705 1.282 0 0 0
v -0.000 0.705 1.399 0 0 0
v 0.000 -0.020 0.399 0 0 0
v -0.282 -0.020 0.282 0 0 0
v 0.000 0.705 0.399 0 0 0
v -0.282 0.705 0.282 0 0 0
v -0.399 -0.020 -0.000 0 0 0
v -0.399 0.705 -0.000 0 0 0
v -0.282 -0.020 -0.282 0 0 0
v -0.282 0.705 -0.282 0 0 0
v 0.000 -0.020 -0.399 0 0 0
v 0.000 0.705 -0.399 0 0 0
v 0.282 -0.020 -0.282 0 0 0
v 0.282 0.705 -0.282 0 0 0
v 0.399 -0.020 -0.000 0 0 0
v 0.399 0.705 -0.000 0 0 0
v 0.570 -0.020 0.071 0 0 0
v 0.570 0.705 0.071 0 0 0
v 0.282 -0.020 -0.282 0 0 0
v 0.000 -0.020 -0.399 0 0 0
v -0.282 -0.020 -0.282 0 0 0
v -0.399 -0.020 -0.000 0 0 0
v 0.399 -0.020 -0.000 0 0 0
v -0.282 -0.020 0.282 0 0 0
v 0.282 -0.020 0.282 0 0 0
v 0.000 -0.020 0.399 0 0 0
v 0.453 -0.020 0.353 0 0 0
v 0.570 -0.020 0.071 0 0 0
v 0.453 0.705 0.353 0 0 0
v 0.453 -0.020 0.353 0 0 0
v 0.282 -0.020 0.282 0 0 0
v 0.282 0.705 0.282 0 0 0
v 0.000 -0.020 0.399 0 0 0
v 0.000 0.705 0.399 0 0 0
v -0.282 0.705 -0.282 0 0 0
v 0.000 0.705 -0.399 0 0 0
v 0.282 0.705 -0.282 0 0 0
v 0.399 0.705 -0.000 0 0 0
v -0.399 0.705 -0.000 0 0 0
v 0.282 0.705 0.282 0 0 0
v -0.282 0.705 0.282 0 0 0
v 0.000 0.705 0.399 0 0 0
v 0.570 0.705 0.071 0 0 0
v 0.453 0.705 0.353 0 0 0
v 1.000 0.000 1.115 0 0 0
v 0.566 0.000 0.936 0 0 0
v 1.000 0.996 1.115 0 0 0
v 0.566 0.996 0.936 0 0 0
v 0.386 0.000 0.501 0 0 0
v 0.386 0.996 0.501 0 0 0
v 0.566 0.000 0.067 0 0 0
v 0.566 0.996 0.067 0 0 0
v 1.000 0.000 -0.113 0 0 0
v 1.000 0.996 -0.113 0 0 0
v 1.435 0.000 0.067 0 0 0
v 1.435 0.996 0.067 0 0 0
v 1.615 0.000 0.501 0 0 0
v 1.615 0.996 0.501 0 0 0
v 1.435 0.000 0.936 0 0 0
v 1.435 0.996 0.936 0 0 0
v 1.000 0.000 1.115 0 0 0
v 1.000 0.996 1.115 0 0 0
v 1.435 0.000 0.067 0 0 0
v 1.000 0.000 -0.113 0 0 0
v 0.566 0.000 0.067 0 0 0
v 0.386 0.000 0.501 0 0 0
v 1.615 0.000 0.501 0 0 0
v 0.566 0.000 0.936 0 0 0
v 1.435 0.000 0.936 0 0 0
v 1.000 0.000 1.115 0 0 0
v 0.566 0.996 0.067 0 0 0
v 1.000 0.996 -0.113 0 0 0
v 1.435 0.996 0.067 0 0 0
v 1.615 0.996 0.501 0 0 0
v 0.386 0.996 0.501 0 0 0
v 1.435 0.996 0.936 0 0 0
v 0.566 0.996 0.936 0 0 0
v 1.000 0.996 1.115 0 0 0
v 0.269 0.050 -0.000 0 0 0
v 0.269 0.200 -0.150 0 0 0
v -0.500 0.200 -0.150 0 0 0
v -0.500 0.050 -0.000 0 0 0
v 0.269 0.200 0.150 0 0 0
v 0.269 0.050 -0.000 0 0 0
v -0.500 0.050 -0.000 0 0 0
v -0.500 0.200 0.150 0 0 0
v 0.269 0.350 -0.000 0 0 0
v 0.269 0.200 0.150 0 0 0
v -0.500 0.200 0.150 0 0 0
v -0.500 0.350 -0.000 0 0 0
v 0.269 0.350 -0.000 0 0 0
v -0.500 0.350 -0.000 0 0 0
v -0.500 0.200 -0.150 0 0 0
v 0.269 0.200 -0.150 0 0 0
v 0.500 0.050 1.000 0 0 0
v 0.500 0.200 0.850 0 0 0
v -0.500 0.200 0.850 0 0 0
v -0.500 0.050 1.000 0 0 0
v 0.500 0.200 1.150 0 0 0
v 0.500 0.050 1.000 0 0 0
v -0.500 0.050 1.000 0 0 0
v -0.500 0.200 1.150 0 0 0
v 0.500 0.350 1.000 0 0 0
v 0.500 0.200 1.150 0 0 0
v -0.500 0.200 1.150 0 0 0
v -0.500 0.350 1.000 0 0 0
v 0.500 0.350 1.000 0 0 0
v -0.500 0.350 1.000 0 0 0
v -0.500 0.200 0.850 0 0 0
v 0.500 0.200 0.850 0 0 0
v 2.500 0.050 -0.000 0 0 0
v 2.500 0.200 -0.150 0 0 0
v 1.793 0.200 -0.150 0 0 0
v 1.793 0.050 -0.000 0 0 0
v 2.500 0.200 0.150 0 0 0
v 2.500 0.050 -0.000 0 0 0
v 1.793 0.050 -0.000 0 0 0
v 1.793 0.200 0.150 0 0 0
v 2.500 0.350 -0.000 0 0 0
v 2.500 0.200 0.150 0 0 0
v 1.793 0.200 0.150 0 0 0
v 1.793 0.350 -0.000 0 0 0
v 2.500 0.350 -0.000 0 0 0
v 1.793 0.350 -0.000 0 0 0
v 1.793 0.200 -0.150 0 0 0
v 2.500 0.200 -0.150 0 0 0

# Normal Array
vn -0.383 -0.000 0.924
vn -0.383 -0.000 0.924
vn 0.383 -0.000 0.924
vn 0.383 -0.000 0.924
vn 0.000 -1.000 -0.000
vn -0.000 -1.000 -0.000
vn 0.000 -1.000 -0.000
vn 0.000 -1.000 -0.000
vn 0.000 -1.000 -0.000
vn 0.000 -1.000 -0.000
vn 0.000 -1.000 -0.000
vn -0.000 -1.000 -0.000
vn 0.383 -0.000 0.924
vn 0.383 -0.000 0.924
vn 0.924 -0.000 0.383
vn 0.924 -0.000 0.383
vn 0.924 0.000 -0.383
vn 0.924 0.000 -0.383
vn 0.383 0.000 -0.924
vn 0.383 0.000 -0.924
vn -0.383 0.000 -0.924
vn -0.383 0.000 -0.924
vn -0.924 0.000 -0.383
vn -0.924 0.000 -0.383
vn -0.383 0.000 -0.924
vn -0.383 0.000 -0.924
vn -0.000 1.000 0.000
vn 0.000 1.000 -0.000
vn 0.000 1.000 0.000
vn 0.000 1.000 0.000
vn 0.000 1.000 0.000
vn 0.000 1.000 0.000
vn 0.000 1.000 0.000
vn 0.000 1.000 0.000
vn -0.383 0.000 0.924
vn -0.383 0.000 0.924
vn -0.924 0.000 0.383
vn -0.924 0.000 0.383
vn -0.924 0.000 -0.383
vn -0.924 0.000 -0.383
vn -0.383 0.000 -0.924
vn -0.383 0.000 -0.924
vn 0.383 0.000 -0.924
vn 0.383 0.000 -0.924
vn -0.383 0.000 -0.924
vn -0.383 0.000 -0.924
vn 0.000 -1.000 -0.000
vn 0.000 -1.000 -0.000
vn 0.000 -1.000 -0.000
vn 0.000 -1.000 -0.000
vn -0.000 -1.000 -0.000
vn 0.000 -1.000 -0.000
vn 0.000 -1.000 -0.000
vn 0.000 -1.000 -0.000
vn 0.383 -0.000 0.924
vn 0.383 -0.000 0.924
vn 0.924 -0.000 0.383
vn 0.924 -0.000 0.383
vn 0.383 0.000 0.924
vn 0.383 0.000 0.924
vn -0.000 1.000 0.000
vn 0.000 1.000 -0.000
vn -0.000 1.000 0.000
vn 0.000 1.000 -0.000
vn 0.000 1.000 0.000
vn 0.000 1.000 0.000
vn 0.000 1.000 0.000
vn 0.000 1.000 0.000
vn -0.383 -0.000 0.924
vn -0.383 0.000 0.924
vn -0.924 0.000 0.383
vn -0.924 -0.000 0.383
vn -0.924 0.000 -0.383
vn -0.924 0.000 -0.383
vn -0.383 0.000 -0.924
vn -0.383 0.000 -0.924
vn 0.383 0.000 -0.924
vn 0.383 0.000 -0.924
vn 0.924 0.000 -0.383
vn 0.924 0.000 -0.383
vn 0.383 0.000 -0.924
vn 0.383 0.000 -0.924
vn -0.000 -1.000 -0.000
vn 0.000 -1.000 -0.000
vn 0.000 -1.000 -0.000
vn 0.000 -1.000 -0.000
vn 0.000 -1.000 -0.000
vn 0.000 -1.000 -0.000
vn -0.000 -1.000 -0.000
vn -0.000 -1.000 -0.000
vn -0.383 -0.000 0.924
vn -0.383 0.000 0.924
vn 0.383 -0.000 0.924
vn 0.383 -0.000 0.924
vn -0.000 1.000 0.000
vn 0.000 1.000 -0.000
vn 0.000 1.000 0.000
vn 0.000 1.000 0.000
vn 0.000 1.000 0.000
vn 0.000 1.000 0.000
vn 0.000 1.000 -0.000
vn 0.000 1.000 0.000
vn -0.383 -0.000 0.924
vn -0.383 -0.000 0.924
vn -0.924 -0.000 0.383
vn -0.924 -0.000 0.383
vn -0.924 0.000 -0.383
vn -0.924 0.000 -0.383
vn -0.383 0.000 -0.924
vn -0.383 0.000 -0.924
vn 0.383 0.000 -0.924
vn 0.383 0.000 -0.924
vn 0.924 0.000 -0.383
vn 0.924 0.000 -0.383
vn 0.924 -0.000 0.383
vn 0.924 -0.000 0.383
vn 0.383 -0.000 0.924
vn 0.383 -0.000 0.924
vn -0.000 -1.000 -0.000
vn 0.000 -1.000 -0.000
vn 0.000 -1.000 -0.000
vn 0.000 -1.000 -0.000
vn 0.000 -1.000 -0.000
vn 0.000 -1.000 -0.000
vn -0.000 1.000 0.000
vn 0.000 1.000 -0.000
vn 0.000 1.000 0.000
vn 0.000 1.000 0.000
vn 0.000 1.000 0.000
vn 0.000 1.000 0.000
vn -0.000 -0.707 -0.707
vn -0.000 -0.707 -0.707
vn 0.000 -0.707 0.707
vn 0.000 -0.707 0.707
vn 0.000 0.707 0.707
vn 0.000 0.707 0.707
vn -0.000 0.707 -0.707
vn -0.000 0.707 -0.707
vn -0.000 -0.707 -0.707
vn 0.000 -0.707 -0.707
vn 0.000 -0.707 0.707
vn 0.000 -0.707 0.707
vn 0.000 0.707 0.707
vn 0.000 0.707 0.707
vn -0.000 0.707 -0.707
vn -0.000 0.707 -0.707
vn -0.000 -0.707 -0.707
vn -0.000 -0.707 -0.707
vn 0.000 -0.707 0.707
vn 0.000 -0.707 0.707
vn 0.000 0.707 0.707
vn 0.000 0.707 0.707
vn -0.000 0.707 -0.707
vn -0.000 0.707 -0.707

# Facets
f 1//1 3//1 2//1
f 2//2 3//2 4//2
f 2//3 4//3 5//3
f 5//4 4//4 6//4
f 7//5 9//5 8//5
f 10//6 9//6 7//6
f 10//7 11//7 9//7
f 9//8 11//8 12//8
f 9//9 12//9 13//9
f 10//10 14//10 11//10
f 15//11 14//11 10//11
f 14//12 15//12 16//12
f 17//13 19//13 18//13
f 20//14 19//14 17//14
f 20//15 21//15 19//15
f 22//16 21//16 20//16
f 22//17 23//17 21//17
f 24//18 23//18 22//18
f 24//19 25//19 23//19
f 26//20 25//20 24//20
f 26//21 27//21 25//21
f 28//22 27//22 26//22
f 28//23 29//23 27//23
f 30//24 29//24 28//24
f 29//25 30//25 31//25
f 31//26 30//26 32//26
f 33//27 35//27 34//27
f 35//28 33//28 36//28
f 36//29 33//29 37//29
f 36//30 37//30 38//30
f 38//31 37//31 39//31
f 38//32 39//32 40//32
f 39//33 37//33 41//33
f 41//34 37//34 42//34
f 43//35 45//35 44//35
f 44//36 45//36 46//36
f 44//37 46//37 47//37
f 47//38 46//38 48//38
f 47//39 48//39 49//39
f 49//40 48//40 50//40
f 49//41 50//41 51//41
f 51//42 50//42 52//42
f 51//43 52//43 53//43
f 53//44 52//44 54//44
f 53//45 54//45 55//45
f 55//46 54//46 56//46
f 57//47 59//47 58//47
f 60//48 59//48 57//48
f 61//49 59//49 60//49
f 62//50 59//50 61//50
f 59//51 62//51 63//51
f 61//52 60//52 64//52
f 64//53 60//53 65//53
f 64//54 65//54 66//54
f 67//55 69//55 68//55
f 70//56 69//56 67//56
f 70//57 71//57 69//57
f 72//58 71//58 70//58
f 71//59 72//59 73//59
f 73//60 72//60 74//60
f 75//61 77//61 76//61
f 77//62 75//62 78//62
f 77//63 78//63 79//63
f 79//64 78//64 80//64
f 78//65 75//65 81//65
f 78//66 81//66 82//66
f 82//67 81//67 83//67
f 82//68 83//68 84//68
f 85//69 87//69 86//69
f 86//70 87//70 88//70
f 86//71 88//71 89//71
f 89//72 88//72 90//72
f 89//73 90//73 91//73
f 91//74 90//74 92//74
f 91//75 92//75 93//75
f 93//76 92//76 94//76
f 93//77 94//77 95//77
f 95//78 94//78 96//78
f 95//79 96//79 97//79
f 97//80 96//80 98//80
f 97//81 98//81 99//81
f 99//82 98//82 100//82
f 101//83 103//83 102//83
f 103//84 101//84 104//84
f 104//85 101//85 105//85
f 104//86 105//86 106//86
f 106//87 105//87 107//87
f 106//88 107//88 108//88
f 107//89 105//89 109//89
f 109//90 105//90 110//90
f 111//91 113//91 112//91
f 114//92 113//92 111//92
f 113//93 114//93 115//93
f 115//94 114//94 116//94
f 117//95 119//95 118//95
f 119//96 117//96 120//96
f 120//97 117//97 121//97
f 120//98 121//98 122//98
f 122//99 121//99 123//99
f 122//100 123//100 124//100
f 120//101 122//101 125//101
f 125//102 122//102 126//102
f 127//103 129//103 128//103
f 128//104 129//104 130//104
f 128//105 130//105 131//105
f 131//106 130//106 132//106
f 131//107 132//107 133//107
f 133//108 132//108 134//108
f 133//109 134//109 135//109
f 135//110 134//110 136//110
f 135//111 136//111 137//111
f 137//112 136//112 138//112
f 137//113 138//113 139//113
f 139//114 138//114 140//114
f 139//115 140//115 141//115
f 141//116 140//116 142//116
f 141//117 142//117 143//117
f 143//118 142//118 144//118
f 145//119 147//119 146//119
f 147//120 145//120 148//120
f 148//121 145//121 149//121
f 148//122 149//122 150//122
f 150//123 149//123 151//123
f 150//124 151//124 152//124
f 153//125 155//125 154//125
f 155//126 153//126 156//126
f 156//127 153//127 157//127
f 156//128 157//128 158//128
f 158//129 157//129 159//129
f 158//130 159//130 160//130
f 161//131 163//131 162//131
f 164//132 163//132 161//132
f 165//133 167//133 166//133
f 168//134 167//134 165//134
f 169//135 171//135 170//135
f 172//136 171//136 169//136
f 173//137 175//137 174//137
f 176//138 175//138 173//138
f 177//139 179//139 178//139
f 180//140 179//140 177//140
f 181//141 183//141 182//141
f 184//142 183//142 181//142
f 185//143 187//143 186//143
f 188//144 187//144 185//144
f 189//145 191//145 190//145
f 192//146 191//146 189//146
f 193//147 195//147 194//147
f 196//148 195//148 193//148
f 197//149 199//149 198//149
f 200//150 199//150 197//150
f 201//151 203//151 202//151
f 204//152 203//152 201//152
f 205//153 207//153 206//153
f 208//154 207//154 205//154

# Thank you for using Spin 3D

