# Created using Spin 3D

# Vertex Array 
v -0.012 -0.000 -0.062 0 0 0
v 0.000 -0.000 -0.064 0 0 0
v 0.012 -0.000 -0.062 0 0 0
v -0.024 -0.000 -0.059 0 0 0
v 0.024 -0.000 -0.059 0 0 0
v -0.035 -0.000 -0.053 0 0 0
v 0.035 -0.000 -0.053 0 0 0
v -0.045 -0.000 -0.045 0 0 0
v 0.045 -0.000 -0.045 0 0 0
v -0.053 -0.000 -0.035 0 0 0
v 0.053 -0.000 -0.035 0 0 0
v -0.059 0.000 -0.024 0 0 0
v 0.059 -0.000 -0.024 0 0 0
v -0.062 0.000 -0.012 0 0 0
v 0.062 -0.000 -0.012 0 0 0
v -0.064 0.000 -0.000 0 0 0
v 0.064 -0.000 0.000 0 0 0
v -0.062 0.000 0.012 0 0 0
v 0.062 -0.000 0.012 0 0 0
v -0.059 0.000 0.024 0 0 0
v 0.059 -0.000 0.024 0 0 0
v -0.053 0.000 0.035 0 0 0
v 0.053 0.000 0.035 0 0 0
v -0.045 0.000 0.045 0 0 0
v 0.045 0.000 0.045 0 0 0
v -0.035 0.000 0.053 0 0 0
v 0.035 0.000 0.053 0 0 0
v -0.024 0.000 0.059 0 0 0
v 0.024 0.000 0.059 0 0 0
v -0.012 0.000 0.062 0 0 0
v 0.012 0.000 0.062 0 0 0
v -0.000 0.000 0.064 0 0 0
v -0.057 0.492 -0.324 0 0 0
v 0.000 0.492 -0.329 0 0 0
v 0.057 0.492 -0.324 0 0 0
v -0.112 0.492 -0.309 0 0 0
v 0.112 0.492 -0.309 0 0 0
v -0.176 0.492 -0.278 0 0 0
v 0.176 0.492 -0.278 0 0 0
v -0.233 0.492 -0.233 0 0 0
v 0.233 0.492 -0.233 0 0 0
v -0.278 0.492 -0.176 0 0 0
v 0.278 0.492 -0.176 0 0 0
v -0.309 0.492 -0.112 0 0 0
v 0.309 0.492 -0.112 0 0 0
v -0.324 0.492 -0.057 0 0 0
v 0.324 0.492 -0.057 0 0 0
v -0.329 0.492 -0.000 0 0 0
v 0.329 0.492 0.000 0 0 0
v -0.324 0.492 0.057 0 0 0
v 0.324 0.492 0.057 0 0 0
v -0.309 0.492 0.112 0 0 0
v 0.309 0.492 0.112 0 0 0
v -0.278 0.492 0.176 0 0 0
v 0.278 0.492 0.176 0 0 0
v -0.233 0.492 0.233 0 0 0
v 0.233 0.492 0.233 0 0 0
v -0.176 0.492 0.278 0 0 0
v 0.176 0.492 0.278 0 0 0
v -0.112 0.492 0.309 0 0 0
v 0.112 0.492 0.309 0 0 0
v -0.057 0.492 0.324 0 0 0
v 0.057 0.492 0.324 0 0 0
v 0.000 0.492 0.329 0 0 0
v 0.046 0.031 0.046 0 0 0
v 0.045 0.000 0.045 0 0 0
v 0.054 0.031 0.036 0 0 0
v 0.053 0.000 0.035 0 0 0
v 0.035 0.000 0.053 0 0 0
v 0.060 0.031 0.025 0 0 0
v 0.036 0.031 0.054 0 0 0
v 0.059 -0.000 0.024 0 0 0
v 0.024 0.000 0.059 0 0 0
v 0.064 0.031 0.013 0 0 0
v 0.025 0.031 0.060 0 0 0
v 0.062 -0.000 0.012 0 0 0
v 0.012 0.000 0.062 0 0 0
v 0.065 0.031 0.000 0 0 0
v 0.013 0.031 0.064 0 0 0
v 0.064 -0.000 0.000 0 0 0
v -0.000 0.000 0.064 0 0 0
v 0.064 0.031 -0.013 0 0 0
v -0.000 0.031 0.065 0 0 0
v 0.062 -0.000 -0.012 0 0 0
v -0.012 0.000 0.062 0 0 0
v 0.060 0.031 -0.025 0 0 0
v -0.013 0.031 0.064 0 0 0
v 0.059 -0.000 -0.024 0 0 0
v -0.024 0.000 0.059 0 0 0
v 0.054 0.031 -0.036 0 0 0
v -0.025 0.031 0.060 0 0 0
v 0.053 -0.000 -0.035 0 0 0
v -0.035 0.000 0.053 0 0 0
v 0.046 0.031 -0.046 0 0 0
v -0.036 0.031 0.054 0 0 0
v 0.045 -0.000 -0.045 0 0 0
v -0.045 0.000 0.045 0 0 0
v 0.036 0.031 -0.054 0 0 0
v -0.046 0.031 0.046 0 0 0
v 0.035 -0.000 -0.053 0 0 0
v -0.053 0.000 0.035 0 0 0
v 0.025 0.031 -0.060 0 0 0
v -0.054 0.031 0.036 0 0 0
v 0.024 -0.000 -0.059 0 0 0
v -0.059 0.000 0.024 0 0 0
v 0.013 0.031 -0.064 0 0 0
v -0.060 0.031 0.025 0 0 0
v 0.012 -0.000 -0.062 0 0 0
v -0.062 0.000 0.012 0 0 0
v 0.000 0.031 -0.065 0 0 0
v -0.064 0.031 0.013 0 0 0
v 0.000 -0.000 -0.064 0 0 0
v -0.064 0.000 -0.000 0 0 0
v -0.013 0.031 -0.064 0 0 0
v -0.065 0.031 -0.000 0 0 0
v -0.012 -0.000 -0.062 0 0 0
v -0.062 0.000 -0.012 0 0 0
v -0.025 0.031 -0.060 0 0 0
v -0.064 0.031 -0.013 0 0 0
v -0.024 -0.000 -0.059 0 0 0
v -0.059 0.000 -0.024 0 0 0
v -0.036 0.031 -0.054 0 0 0
v -0.060 0.031 -0.025 0 0 0
v -0.035 -0.000 -0.053 0 0 0
v -0.053 -0.000 -0.035 0 0 0
v -0.046 0.031 -0.046 0 0 0
v -0.054 0.031 -0.036 0 0 0
v -0.045 -0.000 -0.045 0 0 0
v 0.231 0.108 0.231 0 0 0
v 0.175 0.108 0.276 0 0 0
v 0.036 0.031 0.054 0 0 0
v 0.046 0.031 0.046 0 0 0
v 0.025 0.031 0.060 0 0 0
v 0.276 0.108 0.175 0 0 0
v 0.111 0.108 0.307 0 0 0
v 0.054 0.031 0.036 0 0 0
v 0.013 0.031 0.064 0 0 0
v 0.307 0.108 0.111 0 0 0
v 0.056 0.108 0.322 0 0 0
v 0.060 0.031 0.025 0 0 0
v -0.000 0.031 0.065 0 0 0
v 0.322 0.108 0.056 0 0 0
v -0.000 0.108 0.327 0 0 0
v 0.064 0.031 0.013 0 0 0
v -0.013 0.031 0.064 0 0 0
v 0.327 0.108 0.000 0 0 0
v -0.056 0.108 0.322 0 0 0
v 0.065 0.031 0.000 0 0 0
v -0.025 0.031 0.060 0 0 0
v 0.322 0.108 -0.056 0 0 0
v -0.111 0.108 0.307 0 0 0
v 0.064 0.031 -0.013 0 0 0
v -0.036 0.031 0.054 0 0 0
v 0.307 0.108 -0.111 0 0 0
v -0.175 0.108 0.276 0 0 0
v 0.060 0.031 -0.025 0 0 0
v -0.046 0.031 0.046 0 0 0
v 0.276 0.108 -0.175 0 0 0
v -0.231 0.108 0.231 0 0 0
v 0.054 0.031 -0.036 0 0 0
v -0.054 0.031 0.036 0 0 0
v 0.231 0.108 -0.231 0 0 0
v -0.276 0.108 0.175 0 0 0
v 0.046 0.031 -0.046 0 0 0
v -0.060 0.031 0.025 0 0 0
v 0.175 0.108 -0.276 0 0 0
v -0.307 0.108 0.111 0 0 0
v 0.036 0.031 -0.054 0 0 0
v -0.064 0.031 0.013 0 0 0
v 0.111 0.108 -0.307 0 0 0
v -0.322 0.108 0.056 0 0 0
v 0.025 0.031 -0.060 0 0 0
v -0.065 0.031 -0.000 0 0 0
v 0.056 0.108 -0.322 0 0 0
v -0.327 0.108 -0.000 0 0 0
v 0.013 0.031 -0.064 0 0 0
v -0.064 0.031 -0.013 0 0 0
v 0.000 0.108 -0.327 0 0 0
v -0.322 0.108 -0.056 0 0 0
v 0.000 0.031 -0.065 0 0 0
v -0.060 0.031 -0.025 0 0 0
v -0.056 0.108 -0.322 0 0 0
v -0.307 0.108 -0.111 0 0 0
v -0.013 0.031 -0.064 0 0 0
v -0.054 0.031 -0.036 0 0 0
v -0.111 0.108 -0.307 0 0 0
v -0.276 0.108 -0.175 0 0 0
v -0.025 0.031 -0.060 0 0 0
v -0.046 0.031 -0.046 0 0 0
v -0.175 0.108 -0.276 0 0 0
v -0.231 0.108 -0.231 0 0 0
v -0.036 0.031 -0.054 0 0 0
v -0.309 0.108 0.112 0 0 0
v -0.309 0.492 0.112 0 0 0
v -0.278 0.492 0.176 0 0 0
v -0.278 0.108 0.176 0 0 0
v -0.324 0.108 0.057 0 0 0
v -0.233 0.492 0.233 0 0 0
v -0.324 0.492 0.057 0 0 0
v -0.233 0.108 0.233 0 0 0
v -0.329 0.108 -0.000 0 0 0
v -0.176 0.492 0.278 0 0 0
v -0.329 0.492 -0.000 0 0 0
v -0.176 0.108 0.278 0 0 0
v -0.324 0.108 -0.057 0 0 0
v -0.112 0.492 0.309 0 0 0
v -0.324 0.492 -0.057 0 0 0
v -0.112 0.108 0.309 0 0 0
v -0.309 0.108 -0.112 0 0 0
v -0.057 0.492 0.324 0 0 0
v -0.309 0.492 -0.112 0 0 0
v -0.057 0.108 0.324 0 0 0
v -0.278 0.108 -0.176 0 0 0
v 0.000 0.492 0.329 0 0 0
v -0.278 0.492 -0.176 0 0 0
v -0.000 0.108 0.329 0 0 0
v -0.233 0.108 -0.233 0 0 0
v 0.057 0.492 0.324 0 0 0
v -0.233 0.492 -0.233 0 0 0
v 0.057 0.108 0.324 0 0 0
v -0.176 0.108 -0.278 0 0 0
v 0.112 0.492 0.309 0 0 0
v -0.176 0.492 -0.278 0 0 0
v 0.112 0.108 0.309 0 0 0
v -0.112 0.108 -0.309 0 0 0
v 0.176 0.492 0.278 0 0 0
v -0.112 0.492 -0.309 0 0 0
v 0.176 0.108 0.278 0 0 0
v -0.057 0.108 -0.324 0 0 0
v 0.233 0.492 0.233 0 0 0
v -0.057 0.492 -0.324 0 0 0
v 0.233 0.108 0.233 0 0 0
v 0.000 0.108 -0.329 0 0 0
v 0.278 0.492 0.176 0 0 0
v 0.000 0.492 -0.329 0 0 0
v 0.278 0.108 0.176 0 0 0
v 0.057 0.108 -0.324 0 0 0
v 0.309 0.492 0.112 0 0 0
v 0.057 0.492 -0.324 0 0 0
v 0.309 0.108 0.112 0 0 0
v 0.112 0.108 -0.309 0 0 0
v 0.324 0.492 0.057 0 0 0
v 0.112 0.492 -0.309 0 0 0
v 0.324 0.108 0.057 0 0 0
v 0.176 0.108 -0.278 0 0 0
v 0.329 0.492 0.000 0 0 0
v 0.176 0.492 -0.278 0 0 0
v 0.329 0.108 0.000 0 0 0
v 0.233 0.108 -0.233 0 0 0
v 0.324 0.492 -0.057 0 0 0
v 0.233 0.492 -0.233 0 0 0
v 0.324 0.108 -0.057 0 0 0
v 0.278 0.108 -0.176 0 0 0
v 0.309 0.492 -0.112 0 0 0
v 0.278 0.492 -0.176 0 0 0
v 0.309 0.108 -0.112 0 0 0

# Normal Array
vn 0.000 1.000 -0.000
vn 0.000 1.000 -0.000
vn 0.000 1.000 -0.000
vn 0.000 1.000 -0.000
vn 0.000 1.000 -0.000
vn 0.000 1.000 -0.000
vn 0.000 1.000 -0.000
vn 0.000 1.000 -0.000
vn 0.000 1.000 -0.000
vn 0.000 1.000 -0.000
vn 0.000 1.000 -0.000
vn 0.000 1.000 -0.000
vn 0.000 1.000 -0.000
vn 0.000 1.000 -0.000
vn 0.000 1.000 -0.000
vn 0.000 1.000 -0.000
vn 0.000 1.000 -0.000
vn 0.000 1.000 -0.000
vn 0.000 1.000 -0.000
vn 0.000 1.000 -0.000
vn 0.000 1.000 -0.000
vn 0.000 1.000 -0.000
vn 0.000 1.000 -0.000
vn 0.000 1.000 -0.000
vn 0.000 1.000 -0.000
vn 0.000 1.000 -0.000
vn 0.000 1.000 -0.000
vn 0.000 1.000 -0.000
vn 0.000 1.000 -0.000
vn 0.000 1.000 -0.000
vn -0.000 1.000 0.000
vn -0.000 1.000 -0.000
vn -0.000 1.000 0.000
vn -0.000 1.000 -0.000
vn -0.000 1.000 0.000
vn -0.000 1.000 -0.000
vn 0.000 1.000 -0.000
vn 0.000 1.000 -0.000
vn 0.000 1.000 -0.000
vn 0.000 1.000 0.000
vn 0.000 1.000 -0.000
vn 0.000 1.000 0.000
vn 0.000 1.000 -0.000
vn -0.000 1.000 0.000
vn -0.000 1.000 0.000
vn -0.000 1.000 0.000
vn -0.000 1.000 0.000
vn 0.000 1.000 0.000
vn 0.000 1.000 0.000
vn 0.000 1.000 0.000
vn 0.000 1.000 0.000
vn 0.000 1.000 -0.000
vn 0.000 1.000 -0.000
vn 0.000 1.000 0.000
vn -0.000 1.000 -0.000
vn -0.000 1.000 0.000
vn -0.000 1.000 -0.000
vn -0.000 1.000 0.000
vn -0.000 1.000 -0.000
vn -0.000 1.000 0.000
vn -0.772 0.036 -0.634
vn -0.773 0.036 -0.634
vn -0.634 0.036 -0.773
vn -0.881 0.036 -0.471
vn -0.634 0.036 -0.772
vn -0.881 0.036 -0.471
vn -0.471 0.036 -0.881
vn -0.956 0.036 -0.290
vn -0.471 0.036 -0.881
vn -0.956 0.036 -0.290
vn -0.290 0.036 -0.956
vn -0.995 0.036 -0.098
vn -0.290 0.036 -0.956
vn -0.995 0.036 -0.098
vn -0.098 0.036 -0.995
vn -0.995 0.036 0.098
vn -0.098 0.036 -0.995
vn -0.995 0.036 0.098
vn 0.098 0.036 -0.995
vn -0.956 0.036 0.290
vn 0.098 0.036 -0.995
vn -0.956 0.036 0.290
vn 0.290 0.036 -0.956
vn -0.881 0.036 0.471
vn 0.290 0.036 -0.956
vn -0.881 0.036 0.471
vn 0.471 0.036 -0.881
vn -0.772 0.036 0.634
vn 0.471 0.036 -0.881
vn -0.773 0.036 0.634
vn 0.634 0.036 -0.773
vn -0.634 0.036 0.772
vn 0.634 0.036 -0.772
vn -0.634 0.036 0.773
vn 0.773 0.036 -0.634
vn -0.471 0.036 0.881
vn 0.772 0.036 -0.634
vn -0.471 0.036 0.881
vn 0.881 0.036 -0.471
vn -0.290 0.036 0.956
vn 0.881 0.036 -0.471
vn -0.290 0.036 0.956
vn 0.956 0.036 -0.290
vn -0.098 0.036 0.995
vn 0.956 0.036 -0.290
vn -0.098 0.036 0.995
vn 0.995 0.036 -0.098
vn 0.098 0.036 0.995
vn 0.995 0.036 -0.098
vn 0.098 0.036 0.995
vn 0.995 0.036 0.098
vn 0.290 0.036 0.956
vn 0.995 0.036 0.098
vn 0.290 0.036 0.956
vn 0.956 0.036 0.290
vn 0.471 0.036 0.881
vn 0.956 0.036 0.290
vn 0.471 0.036 0.881
vn 0.881 0.036 0.471
vn 0.634 0.036 0.772
vn 0.881 0.036 0.471
vn 0.634 0.036 0.773
vn 0.773 0.036 0.634
vn 0.772 0.036 0.634
vn -0.178 0.958 -0.223
vn -0.181 0.959 -0.220
vn -0.134 0.959 -0.250
vn -0.223 0.959 -0.178
vn -0.126 0.958 -0.256
vn -0.221 0.958 -0.181
vn -0.082 0.959 -0.271
vn -0.256 0.959 -0.125
vn -0.073 0.959 -0.275
vn -0.253 0.958 -0.135
vn -0.028 0.959 -0.283
vn -0.274 0.959 -0.073
vn -0.025 0.959 -0.283
vn -0.273 0.958 -0.083
vn 0.028 0.959 -0.283
vn -0.283 0.959 -0.025
vn 0.025 0.959 -0.283
vn -0.283 0.959 -0.028
vn 0.083 0.958 -0.273
vn -0.283 0.959 0.025
vn 0.073 0.959 -0.274
vn -0.283 0.959 0.028
vn 0.135 0.958 -0.253
vn -0.275 0.959 0.073
vn 0.125 0.959 -0.256
vn -0.271 0.959 0.082
vn 0.181 0.958 -0.221
vn -0.256 0.958 0.126
vn 0.178 0.959 -0.223
vn -0.250 0.959 0.134
vn 0.220 0.959 -0.181
vn -0.223 0.958 0.178
vn 0.223 0.958 -0.178
vn -0.220 0.959 0.181
vn 0.250 0.959 -0.134
vn -0.178 0.959 0.223
vn 0.256 0.958 -0.126
vn -0.181 0.958 0.221
vn 0.271 0.959 -0.082
vn -0.125 0.959 0.256
vn 0.275 0.959 -0.073
vn -0.135 0.958 0.253
vn 0.283 0.959 -0.028
vn -0.073 0.959 0.274
vn 0.283 0.959 -0.025
vn -0.083 0.958 0.273
vn 0.283 0.959 0.028
vn -0.025 0.959 0.283
vn 0.283 0.959 0.025
vn -0.028 0.959 0.283
vn 0.273 0.958 0.083
vn 0.025 0.959 0.283
vn 0.274 0.959 0.073
vn 0.028 0.959 0.283
vn 0.253 0.958 0.135
vn 0.073 0.959 0.275
vn 0.256 0.959 0.125
vn 0.082 0.959 0.271
vn 0.221 0.958 0.181
vn 0.126 0.958 0.256
vn 0.223 0.959 0.178
vn 0.134 0.959 0.250
vn 0.181 0.959 0.220
vn 0.178 0.958 0.223
vn -0.898 0.000 0.440
vn -0.898 0.000 0.440
vn -0.966 0.000 0.257
vn -0.781 0.000 0.625
vn -0.966 0.000 0.257
vn -0.781 0.000 0.625
vn -0.996 0.000 0.086
vn -0.625 0.000 0.781
vn -0.996 0.000 0.086
vn -0.625 0.000 0.781
vn -0.996 0.000 -0.086
vn -0.440 0.000 0.898
vn -0.996 0.000 -0.086
vn -0.440 0.000 0.898
vn -0.966 0.000 -0.257
vn -0.257 0.000 0.966
vn -0.966 0.000 -0.257
vn -0.257 0.000 0.966
vn -0.898 0.000 -0.440
vn -0.086 0.000 0.996
vn -0.898 0.000 -0.440
vn -0.086 0.000 0.996
vn -0.781 0.000 -0.625
vn 0.086 0.000 0.996
vn -0.781 0.000 -0.625
vn 0.086 0.000 0.996
vn -0.625 0.000 -0.781
vn 0.257 0.000 0.966
vn -0.625 0.000 -0.781
vn 0.257 0.000 0.966
vn -0.440 0.000 -0.898
vn 0.440 0.000 0.898
vn -0.440 -0.000 -0.898
vn 0.440 0.000 0.898
vn -0.257 -0.000 -0.966
vn 0.625 -0.000 0.781
vn -0.257 -0.000 -0.966
vn 0.625 -0.000 0.781
vn -0.086 -0.000 -0.996
vn 0.781 -0.000 0.625
vn -0.086 -0.000 -0.996
vn 0.781 -0.000 0.625
vn 0.086 -0.000 -0.996
vn 0.898 -0.000 0.440
vn 0.086 -0.000 -0.996
vn 0.898 -0.000 0.440
vn 0.257 -0.000 -0.966
vn 0.966 -0.000 0.257
vn 0.257 -0.000 -0.966
vn 0.966 -0.000 0.257
vn 0.440 -0.000 -0.898
vn 0.996 -0.000 0.086
vn 0.440 -0.000 -0.898
vn 0.996 -0.000 0.086
vn 0.625 -0.000 -0.781
vn 0.996 -0.000 -0.086
vn 0.625 -0.000 -0.781
vn 0.996 -0.000 -0.086
vn 0.781 -0.000 -0.625
vn 0.966 -0.000 -0.257
vn 0.781 -0.000 -0.625
vn 0.966 -0.000 -0.257
vn 0.898 -0.000 -0.440
vn 0.898 -0.000 -0.440

# Facets
f 1//1 3//1 2//1
f 3//2 1//2 4//2
f 3//3 4//3 5//3
f 5//4 4//4 6//4
f 5//5 6//5 7//5
f 7//6 6//6 8//6
f 7//7 8//7 9//7
f 9//8 8//8 10//8
f 9//9 10//9 11//9
f 11//10 10//10 12//10
f 11//11 12//11 13//11
f 13//12 12//12 14//12
f 13//13 14//13 15//13
f 15//14 14//14 16//14
f 15//15 16//15 17//15
f 17//16 16//16 18//16
f 17//17 18//17 19//17
f 19//18 18//18 20//18
f 19//19 20//19 21//19
f 21//20 20//20 22//20
f 21//21 22//21 23//21
f 23//22 22//22 24//22
f 23//23 24//23 25//23
f 25//24 24//24 26//24
f 25//25 26//25 27//25
f 27//26 26//26 28//26
f 27//27 28//27 29//27
f 29//28 28//28 30//28
f 29//29 30//29 31//29
f 31//30 30//30 32//30
f 33//31 35//31 34//31
f 35//32 33//32 36//32
f 35//33 36//33 37//33
f 37//34 36//34 38//34
f 37//35 38//35 39//35
f 39//36 38//36 40//36
f 39//37 40//37 41//37
f 41//38 40//38 42//38
f 41//39 42//39 43//39
f 43//40 42//40 44//40
f 43//41 44//41 45//41
f 45//42 44//42 46//42
f 45//43 46//43 47//43
f 47//44 46//44 48//44
f 47//45 48//45 49//45
f 49//46 48//46 50//46
f 49//47 50//47 51//47
f 51//48 50//48 52//48
f 51//49 52//49 53//49
f 53//50 52//50 54//50
f 53//51 54//51 55//51
f 55//52 54//52 56//52
f 55//53 56//53 57//53
f 57//54 56//54 58//54
f 57//55 58//55 59//55
f 59//56 58//56 60//56
f 59//57 60//57 61//57
f 61//58 60//58 62//58
f 61//59 62//59 63//59
f 63//60 62//60 64//60
f 65//61 67//61 66//61
f 66//62 67//62 68//62
f 69//63 65//63 66//63
f 67//64 70//64 68//64
f 71//65 65//65 69//65
f 68//66 70//66 72//66
f 73//67 71//67 69//67
f 70//68 74//68 72//68
f 75//69 71//69 73//69
f 72//70 74//70 76//70
f 77//71 75//71 73//71
f 74//72 78//72 76//72
f 79//73 75//73 77//73
f 76//74 78//74 80//74
f 81//75 79//75 77//75
f 78//76 82//76 80//76
f 83//77 79//77 81//77
f 80//78 82//78 84//78
f 85//79 83//79 81//79
f 82//80 86//80 84//80
f 87//81 83//81 85//81
f 84//82 86//82 88//82
f 89//83 87//83 85//83
f 86//84 90//84 88//84
f 91//85 87//85 89//85
f 88//86 90//86 92//86
f 93//87 91//87 89//87
f 90//88 94//88 92//88
f 95//89 91//89 93//89
f 92//90 94//90 96//90
f 97//91 95//91 93//91
f 94//92 98//92 96//92
f 99//93 95//93 97//93
f 96//94 98//94 100//94
f 101//95 99//95 97//95
f 98//96 102//96 100//96
f 103//97 99//97 101//97
f 100//98 102//98 104//98
f 105//99 103//99 101//99
f 102//100 106//100 104//100
f 107//101 103//101 105//101
f 104//102 106//102 108//102
f 109//103 107//103 105//103
f 106//104 110//104 108//104
f 111//105 107//105 109//105
f 108//106 110//106 112//106
f 113//107 111//107 109//107
f 110//108 114//108 112//108
f 115//109 111//109 113//109
f 112//110 114//110 116//110
f 117//111 115//111 113//111
f 114//112 118//112 116//112
f 119//113 115//113 117//113
f 116//114 118//114 120//114
f 121//115 119//115 117//115
f 118//116 122//116 120//116
f 123//117 119//117 121//117
f 120//118 122//118 124//118
f 125//119 123//119 121//119
f 122//120 126//120 124//120
f 127//121 123//121 125//121
f 124//122 126//122 128//122
f 128//123 127//123 125//123
f 126//124 127//124 128//124
f 129//125 131//125 130//125
f 132//126 131//126 129//126
f 131//127 133//127 130//127
f 134//128 132//128 129//128
f 130//129 133//129 135//129
f 136//130 132//130 134//130
f 133//131 137//131 135//131
f 138//132 136//132 134//132
f 135//133 137//133 139//133
f 140//134 136//134 138//134
f 137//135 141//135 139//135
f 142//136 140//136 138//136
f 139//137 141//137 143//137
f 144//138 140//138 142//138
f 141//139 145//139 143//139
f 146//140 144//140 142//140
f 143//141 145//141 147//141
f 148//142 144//142 146//142
f 145//143 149//143 147//143
f 150//144 148//144 146//144
f 147//145 149//145 151//145
f 152//146 148//146 150//146
f 149//147 153//147 151//147
f 154//148 152//148 150//148
f 151//149 153//149 155//149
f 156//150 152//150 154//150
f 153//151 157//151 155//151
f 158//152 156//152 154//152
f 155//153 157//153 159//153
f 160//154 156//154 158//154
f 157//155 161//155 159//155
f 162//156 160//156 158//156
f 159//157 161//157 163//157
f 164//158 160//158 162//158
f 161//159 165//159 163//159
f 166//160 164//160 162//160
f 163//161 165//161 167//161
f 168//162 164//162 166//162
f 165//163 169//163 167//163
f 170//164 168//164 166//164
f 167//165 169//165 171//165
f 172//166 168//166 170//166
f 169//167 173//167 171//167
f 174//168 172//168 170//168
f 171//169 173//169 175//169
f 176//170 172//170 174//170
f 173//171 177//171 175//171
f 178//172 176//172 174//172
f 175//173 177//173 179//173
f 180//174 176//174 178//174
f 177//175 181//175 179//175
f 182//176 180//176 178//176
f 179//177 181//177 183//177
f 184//178 180//178 182//178
f 181//179 185//179 183//179
f 186//180 184//180 182//180
f 183//181 185//181 187//181
f 188//182 184//182 186//182
f 185//183 189//183 187//183
f 190//184 188//184 186//184
f 187//185 189//185 191//185
f 192//186 188//186 190//186
f 189//187 192//187 191//187
f 191//188 192//188 190//188
f 193//189 195//189 194//189
f 196//190 195//190 193//190
f 193//191 194//191 197//191
f 196//192 198//192 195//192
f 197//193 194//193 199//193
f 200//194 198//194 196//194
f 197//195 199//195 201//195
f 200//196 202//196 198//196
f 201//197 199//197 203//197
f 204//198 202//198 200//198
f 201//199 203//199 205//199
f 204//200 206//200 202//200
f 205//201 203//201 207//201
f 208//202 206//202 204//202
f 205//203 207//203 209//203
f 208//204 210//204 206//204
f 209//205 207//205 211//205
f 212//206 210//206 208//206
f 209//207 211//207 213//207
f 212//208 214//208 210//208
f 213//209 211//209 215//209
f 216//210 214//210 212//210
f 213//211 215//211 217//211
f 216//212 218//212 214//212
f 217//213 215//213 219//213
f 220//214 218//214 216//214
f 217//215 219//215 221//215
f 220//216 222//216 218//216
f 221//217 219//217 223//217
f 224//218 222//218 220//218
f 221//219 223//219 225//219
f 224//220 226//220 222//220
f 225//221 223//221 227//221
f 228//222 226//222 224//222
f 225//223 227//223 229//223
f 228//224 230//224 226//224
f 229//225 227//225 231//225
f 232//226 230//226 228//226
f 229//227 231//227 233//227
f 232//228 234//228 230//228
f 233//229 231//229 235//229
f 236//230 234//230 232//230
f 233//231 235//231 237//231
f 236//232 238//232 234//232
f 237//233 235//233 239//233
f 240//234 238//234 236//234
f 237//235 239//235 241//235
f 240//236 242//236 238//236
f 241//237 239//237 243//237
f 244//238 242//238 240//238
f 241//239 243//239 245//239
f 244//240 246//240 242//240
f 245//241 243//241 247//241
f 248//242 246//242 244//242
f 245//243 247//243 249//243
f 248//244 250//244 246//244
f 249//245 247//245 251//245
f 252//246 250//246 248//246
f 249//247 251//247 253//247
f 252//248 254//248 250//248
f 253//249 251//249 255//249
f 256//250 254//250 252//250
f 256//251 255//251 254//251
f 253//252 255//252 256//252

# Thank you for using Spin 3D

