# Created using Spin 3D

# Vertex Array 
v -0.268 0.011 0.301 0 0 0
v -0.287 0.011 0.288 0 0 0
v -0.287 0.213 0.288 0 0 0
v -0.268 0.213 0.301 0 0 0
v -0.252 0.011 0.306 0 0 0
v -0.252 0.213 0.306 0 0 0
v -0.246 0.213 0.306 0 0 0
v -0.246 0.011 0.306 0 0 0
v -0.212 0.011 0.311 0 0 0
v -0.212 0.213 0.311 0 0 0
v -0.181 0.011 0.327 0 0 0
v -0.181 0.213 0.327 0 0 0
v -0.157 0.011 0.352 0 0 0
v -0.157 0.213 0.352 0 0 0
v -0.287 0.011 0.288 0 0 0
v -0.300 0.213 0.269 0 0 0
v -0.300 0.011 0.269 0 0 0
v -0.305 0.213 0.246 0 0 0
v -0.305 0.011 0.246 0 0 0
v -0.305 0.011 -0.246 0 0 0
v -0.305 0.213 -0.246 0 0 0
v -0.300 0.213 -0.269 0 0 0
v -0.300 0.011 -0.269 0 0 0
v -0.287 0.213 -0.288 0 0 0
v -0.287 0.011 -0.288 0 0 0
v -0.268 0.213 -0.301 0 0 0
v -0.268 0.011 -0.301 0 0 0
v -0.245 0.213 -0.306 0 0 0
v -0.245 0.011 -0.306 0 0 0
v 0.000 0.011 -0.306 0 0 0
v 0.000 0.213 -0.306 0 0 0
v 0.245 0.213 -0.306 0 0 0
v 0.245 0.011 -0.306 0 0 0
v 0.268 0.011 -0.301 0 0 0
v 0.268 0.213 -0.301 0 0 0
v 0.287 0.011 -0.288 0 0 0
v 0.287 0.213 -0.288 0 0 0
v 0.300 0.011 -0.269 0 0 0
v 0.300 0.213 -0.269 0 0 0
v 0.305 0.011 -0.246 0 0 0
v 0.305 0.213 -0.246 0 0 0
v 0.305 0.213 0.246 0 0 0
v 0.305 0.011 0.246 0 0 0
v 0.300 0.011 0.269 0 0 0
v 0.300 0.213 0.269 0 0 0
v 0.287 0.011 0.288 0 0 0
v 0.287 0.213 0.288 0 0 0
v 0.287 0.011 0.288 0 0 0
v 0.268 0.011 0.301 0 0 0
v 0.268 0.213 0.301 0 0 0
v 0.252 0.011 0.306 0 0 0
v 0.252 0.213 0.306 0 0 0
v 0.239 0.213 0.306 0 0 0
v 0.239 0.011 0.306 0 0 0
v 0.199 0.011 0.314 0 0 0
v 0.199 0.213 0.314 0 0 0
v 0.166 0.011 0.336 0 0 0
v 0.166 0.213 0.336 0 0 0
v 0.124 0.213 0.552 0 0 0
v 0.133 0.213 0.539 0 0 0
v 0.124 0.011 0.552 0 0 0
v 0.133 0.011 0.539 0 0 0
v 0.136 0.213 0.522 0 0 0
v 0.136 0.011 0.522 0 0 0
v 0.136 0.011 0.409 0 0 0
v 0.136 0.213 0.409 0 0 0
v 0.144 0.213 0.370 0 0 0
v 0.144 0.011 0.370 0 0 0
v 0.166 0.213 0.336 0 0 0
v 0.166 0.011 0.336 0 0 0
v 0.124 0.213 0.552 0 0 0
v 0.124 0.011 0.552 0 0 0
v 0.110 0.011 0.561 0 0 0
v 0.110 0.213 0.561 0 0 0
v 0.094 0.011 0.564 0 0 0
v 0.094 0.213 0.564 0 0 0
v 0.000 0.011 0.564 0 0 0
v 0.000 0.213 0.564 0 0 0
v -0.094 0.213 0.564 0 0 0
v -0.094 0.011 0.564 0 0 0
v -0.110 0.213 0.561 0 0 0
v -0.110 0.011 0.561 0 0 0
v -0.124 0.213 0.552 0 0 0
v -0.124 0.011 0.552 0 0 0
v -0.133 0.213 0.539 0 0 0
v -0.124 0.213 0.552 0 0 0
v -0.124 0.011 0.552 0 0 0
v -0.133 0.011 0.539 0 0 0
v -0.136 0.213 0.522 0 0 0
v -0.136 0.011 0.522 0 0 0
v -0.136 0.011 0.417 0 0 0
v -0.136 0.213 0.417 0 0 0
v -0.141 0.213 0.382 0 0 0
v -0.141 0.011 0.382 0 0 0
v -0.157 0.213 0.352 0 0 0
v -0.157 0.011 0.352 0 0 0
v 0.000 0.011 -0.306 0 0 0
v -0.245 0.011 -0.306 0 0 0
v -0.268 0.011 -0.301 0 0 0
v 0.245 0.011 -0.306 0 0 0
v 0.268 0.011 -0.301 0 0 0
v -0.287 0.011 -0.288 0 0 0
v 0.287 0.011 -0.288 0 0 0
v -0.300 0.011 -0.269 0 0 0
v 0.300 0.011 -0.269 0 0 0
v -0.305 0.011 -0.246 0 0 0
v 0.305 0.011 -0.246 0 0 0
v -0.305 0.011 0.246 0 0 0
v 0.305 0.011 0.246 0 0 0
v -0.300 0.011 0.269 0 0 0
v 0.300 0.011 0.269 0 0 0
v -0.287 0.011 0.288 0 0 0
v 0.287 0.011 0.288 0 0 0
v -0.268 0.011 0.301 0 0 0
v 0.268 0.011 0.301 0 0 0
v -0.252 0.011 0.306 0 0 0
v 0.252 0.011 0.306 0 0 0
v -0.246 0.011 0.306 0 0 0
v 0.239 0.011 0.306 0 0 0
v -0.212 0.011 0.311 0 0 0
v 0.199 0.011 0.314 0 0 0
v -0.181 0.011 0.327 0 0 0
v 0.166 0.011 0.336 0 0 0
v -0.157 0.011 0.352 0 0 0
v 0.144 0.011 0.370 0 0 0
v -0.141 0.011 0.382 0 0 0
v 0.136 0.011 0.409 0 0 0
v -0.136 0.011 0.417 0 0 0
v 0.136 0.011 0.522 0 0 0
v -0.136 0.011 0.522 0 0 0
v -0.133 0.011 0.539 0 0 0
v 0.133 0.011 0.539 0 0 0
v -0.124 0.011 0.552 0 0 0
v 0.124 0.011 0.552 0 0 0
v -0.110 0.011 0.561 0 0 0
v 0.110 0.011 0.561 0 0 0
v -0.094 0.011 0.564 0 0 0
v 0.094 0.011 0.564 0 0 0
v 0.000 0.011 0.564 0 0 0
v 0.000 0.213 -0.306 0 0 0
v 0.245 0.213 -0.306 0 0 0
v 0.268 0.213 -0.301 0 0 0
v -0.245 0.213 -0.306 0 0 0
v -0.268 0.213 -0.301 0 0 0
v 0.287 0.213 -0.288 0 0 0
v -0.287 0.213 -0.288 0 0 0
v 0.300 0.213 -0.269 0 0 0
v -0.300 0.213 -0.269 0 0 0
v 0.305 0.213 -0.246 0 0 0
v -0.305 0.213 -0.246 0 0 0
v 0.305 0.213 0.246 0 0 0
v -0.305 0.213 0.246 0 0 0
v 0.300 0.213 0.269 0 0 0
v -0.300 0.213 0.269 0 0 0
v 0.287 0.213 0.288 0 0 0
v -0.287 0.213 0.288 0 0 0
v 0.268 0.213 0.301 0 0 0
v -0.268 0.213 0.301 0 0 0
v 0.252 0.213 0.306 0 0 0
v -0.252 0.213 0.306 0 0 0
v 0.239 0.213 0.306 0 0 0
v -0.246 0.213 0.306 0 0 0
v -0.212 0.213 0.311 0 0 0
v 0.199 0.213 0.314 0 0 0
v -0.181 0.213 0.327 0 0 0
v 0.166 0.213 0.336 0 0 0
v -0.157 0.213 0.352 0 0 0
v 0.144 0.213 0.370 0 0 0
v -0.141 0.213 0.382 0 0 0
v 0.136 0.213 0.409 0 0 0
v -0.136 0.213 0.417 0 0 0
v 0.136 0.213 0.522 0 0 0
v -0.136 0.213 0.522 0 0 0
v 0.133 0.213 0.539 0 0 0
v -0.133 0.213 0.539 0 0 0
v 0.124 0.213 0.552 0 0 0
v -0.124 0.213 0.552 0 0 0
v 0.110 0.213 0.561 0 0 0
v -0.110 0.213 0.561 0 0 0
v 0.094 0.213 0.564 0 0 0
v -0.094 0.213 0.564 0 0 0
v 0.000 0.213 0.564 0 0 0

# Normal Array
vn -0.556 -0.000 0.831
vn -0.556 -0.000 0.831
vn -0.269 -0.000 0.963
vn -0.269 -0.000 0.963
vn -0.008 -0.000 1.000
vn -0.008 -0.000 1.000
vn -0.164 -0.000 0.987
vn -0.164 -0.000 0.987
vn -0.459 -0.000 0.888
vn -0.459 -0.000 0.888
vn -0.710 -0.000 0.704
vn -0.710 0.000 0.704
vn -0.831 -0.000 0.556
vn -0.831 -0.000 0.556
vn -0.981 -0.000 0.195
vn -0.981 -0.000 0.195
vn -1.000 -0.000 -0.000
vn -1.000 -0.000 0.000
vn -0.981 -0.000 -0.195
vn -0.981 -0.000 -0.195
vn -0.831 -0.000 -0.556
vn -0.831 -0.000 -0.556
vn -0.556 -0.000 -0.831
vn -0.556 -0.000 -0.831
vn -0.195 -0.000 -0.981
vn -0.195 -0.000 -0.981
vn 0.000 -0.000 -1.000
vn 0.000 -0.000 -1.000
vn 0.000 -0.000 -1.000
vn 0.000 -0.000 -1.000
vn 0.195 -0.000 -0.981
vn 0.195 -0.000 -0.981
vn 0.556 -0.000 -0.831
vn 0.556 -0.000 -0.831
vn 0.831 -0.000 -0.556
vn 0.831 -0.000 -0.556
vn 0.981 -0.000 -0.195
vn 0.981 -0.000 -0.195
vn 1.000 -0.000 0.000
vn 1.000 -0.000 0.000
vn 0.981 -0.000 0.195
vn 0.981 -0.000 0.195
vn 0.831 -0.000 0.556
vn 0.831 -0.000 0.556
vn 0.556 -0.000 0.831
vn 0.556 -0.000 0.831
vn 0.269 -0.000 0.963
vn 0.269 -0.000 0.963
vn 0.008 -0.000 1.000
vn 0.008 0.000 1.000
vn 0.202 0.000 0.979
vn 0.202 0.000 0.979
vn 0.560 0.000 0.829
vn 0.560 0.000 0.829
vn 0.831 -0.000 0.556
vn 0.831 -0.000 0.556
vn 0.981 -0.000 0.195
vn 0.981 -0.000 0.195
vn 1.000 -0.000 0.000
vn 1.000 -0.000 0.000
vn 0.981 -0.000 0.195
vn 0.981 0.000 0.195
vn 0.833 0.000 0.554
vn 0.833 0.000 0.554
vn 0.556 -0.000 0.831
vn 0.556 -0.000 0.831
vn 0.195 -0.000 0.981
vn 0.195 -0.000 0.981
vn 0.000 -0.000 1.000
vn 0.000 0.000 1.000
vn 0.000 0.000 1.000
vn 0.000 0.000 1.000
vn -0.195 -0.000 0.981
vn -0.195 -0.000 0.981
vn -0.556 -0.000 0.831
vn -0.556 -0.000 0.831
vn -0.831 -0.000 0.556
vn -0.831 -0.000 0.556
vn -0.981 -0.000 0.195
vn -0.981 -0.000 0.195
vn -1.000 -0.000 -0.000
vn -1.000 -0.000 0.000
vn -0.988 -0.000 0.156
vn -0.988 -0.000 0.156
vn -0.892 -0.000 0.453
vn -0.892 0.000 0.453
vn 0.000 -1.000 0.000
vn 0.000 -1.000 0.000
vn 0.000 -1.000 0.000
vn 0.000 -1.000 0.000
vn 0.000 -1.000 0.000
vn 0.000 -1.000 0.000
vn 0.000 -1.000 0.000
vn 0.000 -1.000 0.000
vn 0.000 -1.000 0.000
vn 0.000 -1.000 0.000
vn 0.000 -1.000 0.000
vn 0.000 -1.000 0.000
vn 0.000 -1.000 0.000
vn 0.000 -1.000 0.000
vn 0.000 -1.000 0.000
vn 0.000 -1.000 0.000
vn 0.000 -1.000 0.000
vn 0.000 -1.000 0.000
vn 0.000 -1.000 0.000
vn 0.000 -1.000 0.000
vn 0.000 -1.000 0.000
vn 0.000 -1.000 0.000
vn 0.000 -1.000 0.000
vn 0.000 -1.000 0.000
vn 0.000 -1.000 0.000
vn 0.000 -1.000 0.000
vn 0.000 -1.000 0.000
vn 0.000 -1.000 0.000
vn 0.000 -1.000 0.000
vn 0.000 -1.000 0.000
vn 0.000 -1.000 0.000
vn 0.000 -1.000 0.000
vn 0.000 -1.000 0.000
vn 0.000 -1.000 0.000
vn 0.000 -1.000 0.000
vn 0.000 -1.000 0.000
vn 0.000 -1.000 0.000
vn 0.000 -1.000 0.000
vn 0.000 -1.000 0.000
vn 0.000 -1.000 0.000
vn 0.000 0.000 0.000
vn 0.000 1.000 0.000
vn 0.000 1.000 0.000
vn 0.000 1.000 0.000
vn 0.000 1.000 -0.000
vn 0.000 1.000 0.000
vn 0.000 1.000 -0.000
vn 0.000 1.000 0.000
vn 0.000 1.000 -0.000
vn 0.000 1.000 0.000
vn 0.000 1.000 0.000
vn 0.000 1.000 0.000
vn 0.000 1.000 0.000
vn 0.000 1.000 0.000
vn 0.000 1.000 0.000
vn 0.000 1.000 0.000
vn 0.000 1.000 0.000
vn 0.000 1.000 0.000
vn 0.000 1.000 0.000
vn 0.000 1.000 0.000
vn 0.000 1.000 0.000
vn 0.000 1.000 0.000
vn 0.000 1.000 0.000
vn 0.000 1.000 0.000
vn 0.000 1.000 0.000
vn 0.000 1.000 0.000
vn 0.000 1.000 0.000
vn 0.000 1.000 0.000
vn 0.000 1.000 0.000
vn 0.000 1.000 0.000
vn 0.000 1.000 0.000
vn 0.000 1.000 -0.000
vn 0.000 1.000 0.000
vn 0.000 1.000 0.000
vn 0.000 1.000 0.000
vn 0.000 1.000 0.000
vn 0.000 1.000 0.000
vn 0.000 1.000 0.000
vn 0.000 1.000 0.000
vn 0.000 1.000 0.000
vn 0.000 1.000 0.000
vn 0.000 0.000 0.000

# Facets
f 1//1 3//1 2//1
f 4//2 3//2 1//2
f 5//3 4//3 1//3
f 6//4 4//4 5//4
f 5//5 7//5 6//5
f 8//6 7//6 5//6
f 8//7 9//7 7//7
f 7//8 9//8 10//8
f 9//9 11//9 10//9
f 10//10 11//10 12//10
f 11//11 13//11 12//11
f 12//12 13//12 14//12
f 3//13 16//13 15//13
f 15//14 16//14 17//14
f 16//15 18//15 17//15
f 17//16 18//16 19//16
f 19//17 18//17 20//17
f 20//18 18//18 21//18
f 21//19 22//19 20//19
f 20//20 22//20 23//20
f 22//21 24//21 23//21
f 23//22 24//22 25//22
f 24//23 26//23 25//23
f 25//24 26//24 27//24
f 26//25 28//25 27//25
f 27//26 28//26 29//26
f 29//27 28//27 30//27
f 30//28 28//28 31//28
f 31//29 32//29 30//29
f 30//30 32//30 33//30
f 33//31 32//31 34//31
f 34//32 32//32 35//32
f 34//33 35//33 36//33
f 36//34 35//34 37//34
f 36//35 37//35 38//35
f 38//36 37//36 39//36
f 38//37 39//37 40//37
f 40//38 39//38 41//38
f 41//39 42//39 40//39
f 40//40 42//40 43//40
f 43//41 42//41 44//41
f 44//42 42//42 45//42
f 44//43 45//43 46//43
f 46//44 45//44 47//44
f 48//45 47//45 49//45
f 49//46 47//46 50//46
f 49//47 50//47 51//47
f 51//48 50//48 52//48
f 52//49 53//49 51//49
f 51//50 53//50 54//50
f 53//51 55//51 54//51
f 56//52 55//52 53//52
f 56//53 57//53 55//53
f 58//54 57//54 56//54
f 59//55 61//55 60//55
f 60//56 61//56 62//56
f 60//57 62//57 63//57
f 63//58 62//58 64//58
f 65//59 63//59 64//59
f 66//60 63//60 65//60
f 66//61 65//61 67//61
f 67//62 65//62 68//62
f 67//63 68//63 69//63
f 69//64 68//64 70//64
f 71//65 73//65 72//65
f 74//66 73//66 71//66
f 74//67 75//67 73//67
f 76//68 75//68 74//68
f 75//69 76//69 77//69
f 77//70 76//70 78//70
f 78//71 79//71 77//71
f 77//72 79//72 80//72
f 81//73 80//73 79//73
f 82//74 80//74 81//74
f 83//75 82//75 81//75
f 84//76 82//76 83//76
f 85//77 87//77 86//77
f 88//78 87//78 85//78
f 89//79 88//79 85//79
f 90//80 88//80 89//80
f 90//81 89//81 91//81
f 91//82 89//82 92//82
f 93//83 91//83 92//83
f 94//84 91//84 93//84
f 95//85 94//85 93//85
f 96//86 94//86 95//86
f 97//87 99//87 98//87
f 99//88 97//88 100//88
f 99//89 100//89 101//89
f 99//90 101//90 102//90
f 102//91 101//91 103//91
f 102//92 103//92 104//92
f 104//93 103//93 105//93
f 104//94 105//94 106//94
f 106//95 105//95 107//95
f 106//96 107//96 108//96
f 108//97 107//97 109//97
f 108//98 109//98 110//98
f 110//99 109//99 111//99
f 110//100 111//100 112//100
f 112//101 111//101 113//101
f 112//102 113//102 114//102
f 114//103 113//103 115//103
f 114//104 115//104 116//104
f 116//105 115//105 117//105
f 116//106 117//106 118//106
f 118//107 117//107 119//107
f 118//108 119//108 120//108
f 120//109 119//109 121//109
f 120//110 121//110 122//110
f 122//111 121//111 123//111
f 122//112 123//112 124//112
f 124//113 123//113 125//113
f 124//114 125//114 126//114
f 126//115 125//115 127//115
f 126//116 127//116 128//116
f 128//117 127//117 129//117
f 128//118 129//118 130//118
f 130//119 129//119 131//119
f 131//120 129//120 132//120
f 131//121 132//121 133//121
f 133//122 132//122 134//122
f 133//123 134//123 135//123
f 135//124 134//124 136//124
f 135//125 136//125 137//125
f 137//126 136//126 138//126
f 137//127 138//127 139//127
f 140//128 142//128 141//128
f 142//129 140//129 143//129
f 142//130 143//130 144//130
f 142//131 144//131 145//131
f 145//132 144//132 146//132
f 145//133 146//133 147//133
f 147//134 146//134 148//134
f 147//135 148//135 149//135
f 149//136 148//136 150//136
f 149//137 150//137 151//137
f 151//138 150//138 152//138
f 151//139 152//139 153//139
f 153//140 152//140 154//140
f 153//141 154//141 155//141
f 155//142 154//142 156//142
f 155//143 156//143 157//143
f 157//144 156//144 158//144
f 157//145 158//145 159//145
f 159//146 158//146 160//146
f 159//147 160//147 161//147
f 161//148 160//148 162//148
f 161//149 162//149 163//149
f 161//150 163//150 164//150
f 164//151 163//151 165//151
f 164//152 165//152 166//152
f 166//153 165//153 167//153
f 166//154 167//154 168//154
f 168//155 167//155 169//155
f 168//156 169//156 170//156
f 170//157 169//157 171//157
f 170//158 171//158 172//158
f 172//159 171//159 173//159
f 172//160 173//160 174//160
f 174//161 173//161 175//161
f 174//162 175//162 176//162
f 176//163 175//163 177//163
f 176//164 177//164 178//164
f 178//165 177//165 179//165
f 178//166 179//166 180//166
f 180//167 179//167 181//167
f 180//168 181//168 182//168

# Thank you for using Spin 3D

