# Created using Spin 3D

# Vertex Array 
v -0.501 0.994 -0.389 0 0 0
v -1.023 0.994 -0.220 0 0 0
v -0.501 -0.006 -0.389 0 0 0
v -1.023 -0.006 -0.220 0 0 0
v -1.345 0.994 0.224 0 0 0
v -1.345 -0.006 0.224 0 0 0
v -1.345 0.994 0.773 0 0 0
v -1.345 -0.006 0.773 0 0 0
v -1.023 0.994 1.217 0 0 0
v -1.023 -0.006 1.217 0 0 0
v -0.501 0.994 1.387 0 0 0
v -0.501 -0.006 1.387 0 0 0
v 0.021 0.994 1.217 0 0 0
v 0.021 -0.006 1.217 0 0 0
v 0.344 0.994 0.773 0 0 0
v 0.344 -0.006 0.773 0 0 0
v 0.344 0.994 0.224 0 0 0
v 0.344 -0.006 0.224 0 0 0
v 0.021 0.994 -0.220 0 0 0
v 0.021 -0.006 -0.220 0 0 0
v -0.501 0.994 -0.389 0 0 0
v -0.501 -0.006 -0.389 0 0 0
v -1.023 0.994 -0.220 0 0 0
v -0.501 0.994 -0.389 0 0 0
v 0.021 0.994 -0.220 0 0 0
v 0.344 0.994 0.224 0 0 0
v -1.345 0.994 0.224 0 0 0
v 0.344 0.994 0.773 0 0 0
v -1.345 0.994 0.773 0 0 0
v 0.021 0.994 1.217 0 0 0
v -1.023 0.994 1.217 0 0 0
v -0.501 0.994 1.387 0 0 0
v 0.021 -0.006 -0.220 0 0 0
v -0.501 -0.006 -0.389 0 0 0
v -1.023 -0.006 -0.220 0 0 0
v -1.345 -0.006 0.224 0 0 0
v 0.344 -0.006 0.224 0 0 0
v -1.345 -0.006 0.773 0 0 0
v 0.344 -0.006 0.773 0 0 0
v -1.023 -0.006 1.217 0 0 0
v 0.021 -0.006 1.217 0 0 0
v -0.501 -0.006 1.387 0 0 0
v -0.500 0.050 0.000 0 0 0
v -0.500 0.200 -0.150 0 0 0
v -1.500 0.200 -0.150 0 0 0
v -0.500 0.350 -0.000 0 0 0
v -1.500 0.050 0.000 0 0 0
v -1.500 0.350 0.000 0 0 0
v -0.500 0.200 0.150 0 0 0
v -1.500 0.200 0.150 0 0 0
v 0.500 0.050 1.000 0 0 0
v 0.500 0.200 0.850 0 0 0
v -0.500 0.200 0.850 0 0 0
v 0.500 0.350 1.000 0 0 0
v -0.500 0.050 1.000 0 0 0
v -0.500 0.350 1.000 0 0 0
v 0.500 0.200 1.150 0 0 0
v -0.500 0.200 1.150 0 0 0

# Normal Array
vn -0.309 0.000 -0.951
vn -0.309 0.000 -0.951
vn -0.809 0.000 -0.588
vn -0.809 0.000 -0.588
vn -1.000 -0.000 0.000
vn -1.000 0.000 0.000
vn -0.809 -0.000 0.588
vn -0.809 -0.000 0.588
vn -0.309 -0.000 0.951
vn -0.309 -0.000 0.951
vn 0.309 -0.000 0.951
vn 0.309 -0.000 0.951
vn 0.809 -0.000 0.588
vn 0.809 -0.000 0.588
vn 1.000 0.000 0.000
vn 1.000 0.000 0.000
vn 0.809 0.000 -0.588
vn 0.809 0.000 -0.588
vn 0.309 0.000 -0.951
vn 0.309 0.000 -0.951
vn -0.000 1.000 0.000
vn 0.000 1.000 0.000
vn 0.000 1.000 0.000
vn 0.000 1.000 0.000
vn 0.000 1.000 0.000
vn 0.000 1.000 0.000
vn 0.000 1.000 0.000
vn 0.000 1.000 0.000
vn -0.000 -1.000 -0.000
vn 0.000 -1.000 -0.000
vn 0.000 -1.000 -0.000
vn 0.000 -1.000 -0.000
vn 0.000 -1.000 -0.000
vn 0.000 -1.000 -0.000
vn 0.000 -1.000 -0.000
vn 0.000 -1.000 -0.000
vn -0.000 -0.707 -0.707
vn -0.000 0.707 -0.707
vn 0.000 -0.707 -0.707
vn -0.000 0.707 -0.707
vn 0.000 -0.707 0.707
vn 0.000 0.707 0.707
vn 0.000 -0.707 0.707
vn 0.000 0.707 0.707
vn -0.000 -0.707 -0.707
vn -0.000 0.707 -0.707
vn -0.000 -0.707 -0.707
vn -0.000 0.707 -0.707
vn 0.000 -0.707 0.707
vn 0.000 0.707 0.707
vn 0.000 -0.707 0.707
vn 0.000 0.707 0.707

# Facets
f 1//1 3//1 2//1
f 2//2 3//2 4//2
f 2//3 4//3 5//3
f 5//4 4//4 6//4
f 5//5 6//5 7//5
f 7//6 6//6 8//6
f 7//7 8//7 9//7
f 9//8 8//8 10//8
f 9//9 10//9 11//9
f 11//10 10//10 12//10
f 11//11 12//11 13//11
f 13//12 12//12 14//12
f 13//13 14//13 15//13
f 15//14 14//14 16//14
f 15//15 16//15 17//15
f 17//16 16//16 18//16
f 17//17 18//17 19//17
f 19//18 18//18 20//18
f 19//19 20//19 21//19
f 21//20 20//20 22//20
f 23//21 25//21 24//21
f 25//22 23//22 26//22
f 26//23 23//23 27//23
f 26//24 27//24 28//24
f 28//25 27//25 29//25
f 28//26 29//26 30//26
f 30//27 29//27 31//27
f 30//28 31//28 32//28
f 33//29 35//29 34//29
f 35//30 33//30 36//30
f 36//31 33//31 37//31
f 36//32 37//32 38//32
f 38//33 37//33 39//33
f 38//34 39//34 40//34
f 40//35 39//35 41//35
f 40//36 41//36 42//36
f 43//37 45//37 44//37
f 44//38 45//38 46//38
f 47//39 45//39 43//39
f 46//40 45//40 48//40
f 49//41 47//41 43//41
f 48//42 50//42 46//42
f 50//43 47//43 49//43
f 46//44 50//44 49//44
f 51//45 53//45 52//45
f 52//46 53//46 54//46
f 55//47 53//47 51//47
f 54//48 53//48 56//48
f 57//49 55//49 51//49
f 56//50 58//50 54//50
f 58//51 55//51 57//51
f 54//52 58//52 57//52

# Thank you for using Spin 3D

