# Created using Spin 3D

# Vertex Array 
v -0.668 0.939 -0.317
v -0.500 0.939 -0.334
v -0.332 0.939 -0.317
v -0.171 0.939 -0.266
v -0.829 0.939 -0.266
v -0.024 0.939 -0.184
v -0.976 0.939 -0.184
v 0.105 0.939 -0.074
v -1.105 0.939 -0.074
v 0.208 0.939 0.060
v -1.208 0.939 0.060
v -1.282 0.939 0.212
v 0.282 0.939 0.212
v -1.324 0.939 0.375
v 0.324 0.939 0.375
v 0.333 0.939 0.544
v -1.333 0.939 0.544
v 0.307 0.939 0.712
v -1.307 0.939 0.712
v 0.249 0.939 0.870
v -1.249 0.939 0.870
v 0.160 0.939 1.014
v -1.160 0.939 1.014
v 0.043 0.939 1.136
v -1.043 0.939 1.136
v -0.095 0.939 1.233
v -0.905 0.939 1.233
v -0.250 0.939 1.300
v -0.750 0.939 1.300
v -0.416 0.939 1.334
v -0.584 0.939 1.334
v -0.500 0.939 -0.334
v -0.668 0.939 -0.317
v -0.500 0.372 -0.334
v -0.668 0.372 -0.317
v -0.829 0.939 -0.266
v -0.829 0.372 -0.266
v -0.976 0.939 -0.184
v -0.976 0.372 -0.184
v -1.105 0.939 -0.074
v -1.105 0.372 -0.074
v -1.208 0.939 0.060
v -1.208 0.372 0.060
v -1.282 0.939 0.212
v -1.282 0.372 0.212
v -1.324 0.939 0.375
v -1.324 0.372 0.375
v -1.333 0.939 0.544
v -1.333 0.372 0.544
v -1.307 0.939 0.712
v -1.307 0.372 0.712
v -1.249 0.939 0.870
v -1.249 0.372 0.870
v -1.160 0.939 1.014
v -1.160 0.372 1.014
v -1.043 0.939 1.136
v -1.043 0.372 1.136
v -0.905 0.939 1.233
v -0.905 0.372 1.233
v -0.750 0.939 1.300
v -0.750 0.372 1.300
v -0.584 0.939 1.334
v -0.584 0.372 1.334
v -0.416 0.939 1.334
v -0.416 0.372 1.334
v -0.250 0.939 1.300
v -0.250 0.372 1.300
v -0.095 0.939 1.233
v -0.095 0.372 1.233
v 0.043 0.939 1.136
v 0.043 0.372 1.136
v 0.160 0.939 1.014
v 0.160 0.372 1.014
v 0.249 0.939 0.870
v 0.249 0.372 0.870
v 0.307 0.939 0.712
v 0.307 0.372 0.712
v 0.333 0.939 0.544
v 0.333 0.372 0.544
v 0.324 0.939 0.375
v 0.324 0.372 0.375
v 0.282 0.939 0.212
v 0.282 0.372 0.212
v 0.208 0.939 0.060
v 0.208 0.372 0.060
v 0.105 0.939 -0.074
v 0.105 0.372 -0.074
v -0.024 0.939 -0.184
v -0.024 0.372 -0.184
v -0.171 0.939 -0.266
v -0.171 0.372 -0.266
v -0.332 0.939 -0.317
v -0.332 0.372 -0.317
v -0.500 0.939 -0.334
v -0.500 0.372 -0.334
v -0.475 0.003 0.375
v -0.500 0.003 0.373
v -0.525 0.003 0.375
v -0.549 0.003 0.383
v -0.451 0.003 0.383
v -0.571 0.003 0.395
v -0.429 0.003 0.395
v -0.590 0.003 0.412
v -0.410 0.003 0.412
v -0.606 0.003 0.432
v -0.394 0.003 0.432
v -0.617 0.003 0.455
v -0.383 0.003 0.455
v -0.376 0.003 0.480
v -0.624 0.003 0.480
v -0.375 0.003 0.507
v -0.625 0.003 0.507
v -0.621 0.003 0.532
v -0.379 0.003 0.532
v -0.612 0.003 0.557
v -0.388 0.003 0.557
v -0.598 0.003 0.579
v -0.402 0.003 0.579
v -0.419 0.003 0.597
v -0.581 0.003 0.597
v -0.440 0.003 0.612
v -0.560 0.003 0.612
v -0.463 0.003 0.622
v -0.537 0.003 0.622
v -0.512 0.003 0.627
v -0.488 0.003 0.627
v -0.379 0.219 0.534
v -0.379 0.003 0.532
v -0.388 0.219 0.559
v -0.388 0.003 0.557
v -0.375 0.003 0.507
v -0.402 0.219 0.581
v -0.375 0.219 0.509
v -0.402 0.003 0.579
v -0.376 0.003 0.480
v -0.419 0.219 0.599
v -0.376 0.219 0.482
v -0.419 0.003 0.597
v -0.383 0.003 0.455
v -0.440 0.219 0.614
v -0.383 0.219 0.457
v -0.440 0.003 0.612
v -0.394 0.003 0.432
v -0.463 0.219 0.624
v -0.394 0.219 0.434
v -0.463 0.003 0.622
v -0.410 0.003 0.412
v -0.488 0.219 0.629
v -0.410 0.219 0.414
v -0.488 0.003 0.627
v -0.429 0.003 0.395
v -0.512 0.219 0.629
v -0.429 0.219 0.397
v -0.512 0.003 0.627
v -0.451 0.003 0.383
v -0.537 0.219 0.624
v -0.451 0.219 0.385
v -0.537 0.003 0.622
v -0.475 0.003 0.375
v -0.560 0.219 0.614
v -0.475 0.219 0.377
v -0.560 0.003 0.612
v -0.500 0.003 0.373
v -0.581 0.219 0.599
v -0.500 0.219 0.375
v -0.581 0.003 0.597
v -0.525 0.003 0.375
v -0.598 0.219 0.581
v -0.525 0.219 0.377
v -0.598 0.003 0.579
v -0.549 0.003 0.383
v -0.612 0.219 0.559
v -0.549 0.219 0.385
v -0.612 0.003 0.557
v -0.571 0.003 0.395
v -0.621 0.219 0.534
v -0.571 0.219 0.397
v -0.621 0.003 0.532
v -0.590 0.003 0.412
v -0.625 0.219 0.509
v -0.590 0.219 0.414
v -0.625 0.003 0.507
v -0.606 0.003 0.432
v -0.624 0.219 0.482
v -0.606 0.219 0.434
v -0.624 0.003 0.480
v -0.617 0.003 0.455
v -0.617 0.219 0.457
v -0.171 0.372 -0.266
v -0.332 0.372 -0.317
v -0.475 0.219 0.377
v -0.451 0.219 0.385
v -0.500 0.219 0.375
v -0.024 0.372 -0.184
v -0.500 0.372 -0.334
v -0.429 0.219 0.397
v -0.525 0.219 0.377
v 0.105 0.372 -0.074
v -0.668 0.372 -0.317
v -0.410 0.219 0.414
v -0.549 0.219 0.385
v 0.208 0.372 0.060
v -0.829 0.372 -0.266
v -0.394 0.219 0.434
v -0.571 0.219 0.397
v 0.282 0.372 0.212
v -0.976 0.372 -0.184
v -0.383 0.219 0.457
v -0.590 0.219 0.414
v 0.324 0.372 0.375
v -1.105 0.372 -0.074
v -0.376 0.219 0.482
v -0.606 0.219 0.434
v 0.333 0.372 0.544
v -1.208 0.372 0.060
v -0.375 0.219 0.509
v -0.617 0.219 0.457
v 0.307 0.372 0.712
v -1.282 0.372 0.212
v -0.379 0.219 0.534
v -0.624 0.219 0.482
v 0.249 0.372 0.870
v -1.324 0.372 0.375
v -0.388 0.219 0.559
v -0.625 0.219 0.509
v 0.160 0.372 1.014
v -1.333 0.372 0.544
v -0.402 0.219 0.581
v -0.621 0.219 0.534
v 0.043 0.372 1.136
v -1.307 0.372 0.712
v -0.419 0.219 0.599
v -0.612 0.219 0.559
v -0.095 0.372 1.233
v -1.249 0.372 0.870
v -0.440 0.219 0.614
v -0.598 0.219 0.581
v -0.250 0.372 1.300
v -1.160 0.372 1.014
v -0.463 0.219 0.624
v -0.581 0.219 0.599
v -0.416 0.372 1.334
v -1.043 0.372 1.136
v -0.488 0.219 0.629
v -0.560 0.219 0.614
v -0.584 0.372 1.334
v -0.905 0.372 1.233
v -0.512 0.219 0.629
v -0.537 0.219 0.624
v -0.750 0.372 1.300

# Normal Array
vn -0.000 1.000 0.000
vn 0.000 1.000 -0.000
vn 0.000 1.000 0.000
vn 0.000 1.000 -0.000
vn 0.000 1.000 0.000
vn 0.000 1.000 -0.000
vn 0.000 1.000 0.000
vn 0.000 1.000 -0.000
vn 0.000 1.000 0.000
vn 0.000 1.000 0.000
vn 0.000 1.000 -0.000
vn 0.000 1.000 0.000
vn 0.000 1.000 -0.000
vn 0.000 1.000 -0.000
vn 0.000 1.000 0.000
vn 0.000 1.000 0.000
vn 0.000 1.000 0.000
vn 0.000 1.000 0.000
vn 0.000 1.000 0.000
vn 0.000 1.000 0.000
vn 0.000 1.000 0.000
vn 0.000 1.000 0.000
vn 0.000 1.000 0.000
vn 0.000 1.000 0.000
vn 0.000 1.000 0.000
vn 0.000 1.000 0.000
vn 0.000 1.000 0.000
vn 0.000 1.000 0.000
vn 0.000 1.000 0.000
vn -0.101 -0.000 -0.995
vn -0.101 -0.000 -0.995
vn -0.300 -0.000 -0.954
vn -0.300 -0.000 -0.954
vn -0.486 -0.000 -0.874
vn -0.486 -0.000 -0.874
vn -0.652 -0.000 -0.758
vn -0.652 -0.000 -0.758
vn -0.792 -0.000 -0.611
vn -0.792 -0.000 -0.611
vn -0.898 -0.000 -0.439
vn -0.898 -0.000 -0.439
vn -0.968 -0.000 -0.250
vn -0.968 -0.000 -0.250
vn -0.999 -0.000 -0.051
vn -0.999 0.000 -0.051
vn -0.989 -0.000 0.151
vn -0.989 0.000 0.151
vn -0.938 0.000 0.347
vn -0.938 0.000 0.347
vn -0.849 0.000 0.528
vn -0.849 0.000 0.528
vn -0.726 0.000 0.688
vn -0.726 0.000 0.688
vn -0.572 0.000 0.820
vn -0.572 0.000 0.820
vn -0.395 0.000 0.919
vn -0.395 0.000 0.919
vn -0.202 0.000 0.979
vn -0.202 0.000 0.979
vn -0.000 0.000 1.000
vn 0.000 0.000 1.000
vn 0.202 0.000 0.979
vn 0.202 0.000 0.979
vn 0.395 0.000 0.919
vn 0.395 0.000 0.919
vn 0.572 0.000 0.820
vn 0.572 0.000 0.820
vn 0.726 0.000 0.688
vn 0.726 0.000 0.688
vn 0.849 0.000 0.528
vn 0.849 0.000 0.528
vn 0.938 0.000 0.347
vn 0.938 0.000 0.347
vn 0.989 0.000 0.151
vn 0.989 -0.000 0.151
vn 0.999 0.000 -0.051
vn 0.999 -0.000 -0.051
vn 0.968 -0.000 -0.250
vn 0.968 -0.000 -0.250
vn 0.898 -0.000 -0.439
vn 0.898 -0.000 -0.439
vn 0.792 -0.000 -0.611
vn 0.792 -0.000 -0.611
vn 0.652 -0.000 -0.758
vn 0.652 0.000 -0.758
vn 0.486 0.000 -0.874
vn 0.486 0.000 -0.874
vn 0.300 0.000 -0.954
vn 0.300 -0.000 -0.954
vn 0.101 -0.000 -0.995
vn 0.101 -0.000 -0.995
vn -0.000 -1.000 0.000
vn 0.000 -1.000 0.000
vn 0.000 -1.000 0.000
vn 0.000 -1.000 0.000
vn 0.000 -1.000 0.000
vn 0.000 -1.000 0.000
vn 0.000 -1.000 0.000
vn 0.000 -1.000 0.000
vn 0.000 -1.000 0.000
vn 0.000 -1.000 0.000
vn 0.000 -1.000 0.000
vn 0.000 -1.000 0.000
vn 0.000 -1.000 0.000
vn 0.000 -1.000 0.000
vn 0.000 -1.000 0.000
vn 0.000 -1.000 0.000
vn 0.000 -1.000 0.000
vn 0.000 -1.000 0.000
vn 0.000 -1.000 0.000
vn 0.000 -1.000 0.000
vn 0.000 -1.000 0.000
vn 0.000 -1.000 0.000
vn 0.000 -1.000 0.000
vn 0.000 -1.000 0.000
vn 0.000 -1.000 0.000
vn 0.000 -1.000 0.000
vn 0.000 -1.000 0.000
vn 0.000 -1.000 0.000
vn 0.000 -1.000 0.000
vn 0.938 -0.003 0.347
vn 0.938 -0.003 0.347
vn 0.989 -0.001 0.151
vn 0.849 -0.005 0.528
vn 0.989 -0.001 0.151
vn 0.849 -0.005 0.528
vn 0.999 0.000 -0.051
vn 0.726 -0.006 0.688
vn 0.999 0.000 -0.051
vn 0.726 -0.006 0.688
vn 0.968 0.002 -0.250
vn 0.572 -0.008 0.820
vn 0.968 0.002 -0.250
vn 0.572 -0.008 0.820
vn 0.898 0.004 -0.439
vn 0.395 -0.009 0.919
vn 0.898 0.004 -0.439
vn 0.395 -0.009 0.919
vn 0.792 0.006 -0.611
vn 0.202 -0.009 0.979
vn 0.792 0.006 -0.611
vn 0.202 -0.009 0.979
vn 0.652 0.007 -0.758
vn 0.000 -0.009 1.000
vn 0.652 0.007 -0.758
vn 0.000 -0.009 1.000
vn 0.486 0.008 -0.874
vn -0.202 -0.009 0.979
vn 0.486 0.008 -0.874
vn -0.202 -0.009 0.979
vn 0.300 0.009 -0.954
vn -0.395 -0.009 0.919
vn 0.300 0.009 -0.954
vn -0.395 -0.009 0.919
vn 0.101 0.009 -0.995
vn -0.572 -0.008 0.820
vn 0.101 0.009 -0.995
vn -0.572 -0.008 0.820
vn -0.101 0.009 -0.995
vn -0.726 -0.006 0.688
vn -0.101 0.009 -0.995
vn -0.726 -0.006 0.688
vn -0.300 0.009 -0.954
vn -0.849 -0.005 0.528
vn -0.300 0.009 -0.954
vn -0.849 -0.005 0.528
vn -0.486 0.008 -0.874
vn -0.938 -0.003 0.347
vn -0.486 0.008 -0.874
vn -0.938 -0.003 0.347
vn -0.652 0.007 -0.758
vn -0.989 -0.001 0.151
vn -0.652 0.007 -0.758
vn -0.989 -0.001 0.151
vn -0.792 0.006 -0.611
vn -0.999 0.000 -0.051
vn -0.792 0.006 -0.611
vn -0.999 0.000 -0.051
vn -0.898 0.004 -0.439
vn -0.968 0.002 -0.250
vn -0.898 0.004 -0.439
vn -0.968 0.002 -0.250
vn 0.064 -0.977 -0.203
vn 0.064 -0.977 -0.203
vn 0.022 -0.977 -0.212
vn 0.103 -0.977 -0.186
vn 0.022 -0.977 -0.212
vn 0.103 -0.977 -0.186
vn -0.022 -0.977 -0.212
vn 0.139 -0.977 -0.161
vn -0.022 -0.977 -0.212
vn 0.139 -0.977 -0.161
vn -0.064 -0.977 -0.203
vn 0.168 -0.977 -0.130
vn -0.064 -0.977 -0.203
vn 0.168 -0.977 -0.130
vn -0.103 -0.977 -0.186
vn 0.191 -0.977 -0.094
vn -0.103 -0.977 -0.186
vn 0.191 -0.977 -0.094
vn -0.139 -0.977 -0.161
vn 0.206 -0.977 -0.053
vn -0.139 -0.977 -0.161
vn 0.206 -0.977 -0.053
vn -0.168 -0.977 -0.130
vn 0.213 -0.977 -0.011
vn -0.168 -0.977 -0.130
vn 0.213 -0.977 -0.011
vn -0.191 -0.977 -0.094
vn 0.210 -0.977 0.032
vn -0.191 -0.977 -0.094
vn 0.210 -0.977 0.032
vn -0.206 -0.977 -0.053
vn 0.200 -0.977 0.074
vn -0.206 -0.977 -0.053
vn 0.200 -0.977 0.074
vn -0.213 -0.977 -0.011
vn 0.181 -0.977 0.112
vn -0.213 -0.977 -0.011
vn 0.181 -0.977 0.112
vn -0.210 -0.977 0.032
vn 0.154 -0.977 0.146
vn -0.210 -0.977 0.032
vn 0.154 -0.977 0.146
vn -0.200 -0.977 0.074
vn 0.122 -0.977 0.175
vn -0.200 -0.977 0.074
vn 0.122 -0.977 0.175
vn -0.181 -0.977 0.112
vn 0.084 -0.977 0.195
vn -0.181 -0.977 0.112
vn 0.084 -0.977 0.195
vn -0.154 -0.977 0.146
vn 0.043 -0.977 0.208
vn -0.154 -0.977 0.146
vn 0.043 -0.977 0.208
vn -0.122 -0.977 0.175
vn 0.000 -0.977 0.213
vn -0.122 -0.977 0.175
vn 0.000 -0.977 0.213
vn -0.084 -0.977 0.195
vn -0.043 -0.977 0.208
vn -0.084 -0.977 0.195
vn -0.043 -0.977 0.208

# Facets
f 1//1 3//1 2//1
f 3//2 1//2 4//2
f 4//3 1//3 5//3
f 4//4 5//4 6//4
f 6//5 5//5 7//5
f 6//6 7//6 8//6
f 8//7 7//7 9//7
f 8//8 9//8 10//8
f 10//9 9//9 11//9
f 10//10 11//10 12//10
f 10//11 12//11 13//11
f 13//12 12//12 14//12
f 13//13 14//13 15//13
f 15//14 14//14 16//14
f 16//15 14//15 17//15
f 16//16 17//16 18//16
f 18//17 17//17 19//17
f 18//18 19//18 20//18
f 20//19 19//19 21//19
f 20//20 21//20 22//20
f 22//21 21//21 23//21
f 22//22 23//22 24//22
f 24//23 23//23 25//23
f 24//24 25//24 26//24
f 26//25 25//25 27//25
f 26//26 27//26 28//26
f 28//27 27//27 29//27
f 28//28 29//28 30//28
f 30//29 29//29 31//29
f 32//30 34//30 33//30
f 33//31 34//31 35//31
f 33//32 35//32 36//32
f 36//33 35//33 37//33
f 36//34 37//34 38//34
f 38//35 37//35 39//35
f 38//36 39//36 40//36
f 40//37 39//37 41//37
f 40//38 41//38 42//38
f 42//39 41//39 43//39
f 42//40 43//40 44//40
f 44//41 43//41 45//41
f 44//42 45//42 46//42
f 46//43 45//43 47//43
f 46//44 47//44 48//44
f 48//45 47//45 49//45
f 48//46 49//46 50//46
f 50//47 49//47 51//47
f 50//48 51//48 52//48
f 52//49 51//49 53//49
f 52//50 53//50 54//50
f 54//51 53//51 55//51
f 54//52 55//52 56//52
f 56//53 55//53 57//53
f 56//54 57//54 58//54
f 58//55 57//55 59//55
f 58//56 59//56 60//56
f 60//57 59//57 61//57
f 60//58 61//58 62//58
f 62//59 61//59 63//59
f 62//60 63//60 64//60
f 64//61 63//61 65//61
f 64//62 65//62 66//62
f 66//63 65//63 67//63
f 66//64 67//64 68//64
f 68//65 67//65 69//65
f 68//66 69//66 70//66
f 70//67 69//67 71//67
f 70//68 71//68 72//68
f 72//69 71//69 73//69
f 72//70 73//70 74//70
f 74//71 73//71 75//71
f 74//72 75//72 76//72
f 76//73 75//73 77//73
f 76//74 77//74 78//74
f 78//75 77//75 79//75
f 78//76 79//76 80//76
f 80//77 79//77 81//77
f 80//78 81//78 82//78
f 82//79 81//79 83//79
f 82//80 83//80 84//80
f 84//81 83//81 85//81
f 84//82 85//82 86//82
f 86//83 85//83 87//83
f 86//84 87//84 88//84
f 88//85 87//85 89//85
f 88//86 89//86 90//86
f 90//87 89//87 91//87
f 90//88 91//88 92//88
f 92//89 91//89 93//89
f 92//90 93//90 94//90
f 94//91 93//91 95//91
f 96//92 98//92 97//92
f 98//93 96//93 99//93
f 99//94 96//94 100//94
f 99//95 100//95 101//95
f 101//96 100//96 102//96
f 101//97 102//97 103//97
f 103//98 102//98 104//98
f 103//99 104//99 105//99
f 105//100 104//100 106//100
f 105//101 106//101 107//101
f 107//102 106//102 108//102
f 107//103 108//103 109//103
f 107//104 109//104 110//104
f 110//105 109//105 111//105
f 110//106 111//106 112//106
f 112//107 111//107 113//107
f 113//108 111//108 114//108
f 113//109 114//109 115//109
f 115//110 114//110 116//110
f 115//111 116//111 117//111
f 117//112 116//112 118//112
f 117//113 118//113 119//113
f 117//114 119//114 120//114
f 120//115 119//115 121//115
f 120//116 121//116 122//116
f 122//117 121//117 123//117
f 122//118 123//118 124//118
f 124//119 123//119 125//119
f 125//120 123//120 126//120
f 127//121 129//121 128//121
f 128//122 129//122 130//122
f 131//123 127//123 128//123
f 129//124 132//124 130//124
f 133//125 127//125 131//125
f 130//126 132//126 134//126
f 135//127 133//127 131//127
f 132//128 136//128 134//128
f 137//129 133//129 135//129
f 134//130 136//130 138//130
f 139//131 137//131 135//131
f 136//132 140//132 138//132
f 141//133 137//133 139//133
f 138//134 140//134 142//134
f 143//135 141//135 139//135
f 140//136 144//136 142//136
f 145//137 141//137 143//137
f 142//138 144//138 146//138
f 147//139 145//139 143//139
f 144//140 148//140 146//140
f 149//141 145//141 147//141
f 146//142 148//142 150//142
f 151//143 149//143 147//143
f 148//144 152//144 150//144
f 153//145 149//145 151//145
f 150//146 152//146 154//146
f 155//147 153//147 151//147
f 152//148 156//148 154//148
f 157//149 153//149 155//149
f 154//150 156//150 158//150
f 159//151 157//151 155//151
f 156//152 160//152 158//152
f 161//153 157//153 159//153
f 158//154 160//154 162//154
f 163//155 161//155 159//155
f 160//156 164//156 162//156
f 165//157 161//157 163//157
f 162//158 164//158 166//158
f 167//159 165//159 163//159
f 164//160 168//160 166//160
f 169//161 165//161 167//161
f 166//162 168//162 170//162
f 171//163 169//163 167//163
f 168//164 172//164 170//164
f 173//165 169//165 171//165
f 170//166 172//166 174//166
f 175//167 173//167 171//167
f 172//168 176//168 174//168
f 177//169 173//169 175//169
f 174//170 176//170 178//170
f 179//171 177//171 175//171
f 176//172 180//172 178//172
f 181//173 177//173 179//173
f 178//174 180//174 182//174
f 183//175 181//175 179//175
f 180//176 184//176 182//176
f 185//177 181//177 183//177
f 182//178 184//178 186//178
f 187//179 185//179 183//179
f 184//180 188//180 186//180
f 188//181 185//181 187//181
f 186//182 188//182 187//182
f 189//183 191//183 190//183
f 192//184 191//184 189//184
f 191//185 193//185 190//185
f 194//186 192//186 189//186
f 190//187 193//187 195//187
f 196//188 192//188 194//188
f 193//189 197//189 195//189
f 198//190 196//190 194//190
f 195//191 197//191 199//191
f 200//192 196//192 198//192
f 197//193 201//193 199//193
f 202//194 200//194 198//194
f 199//195 201//195 203//195
f 204//196 200//196 202//196
f 201//197 205//197 203//197
f 206//198 204//198 202//198
f 203//199 205//199 207//199
f 208//200 204//200 206//200
f 205//201 209//201 207//201
f 210//202 208//202 206//202
f 207//203 209//203 211//203
f 212//204 208//204 210//204
f 209//205 213//205 211//205
f 214//206 212//206 210//206
f 211//207 213//207 215//207
f 216//208 212//208 214//208
f 213//209 217//209 215//209
f 218//210 216//210 214//210
f 215//211 217//211 219//211
f 220//212 216//212 218//212
f 217//213 221//213 219//213
f 222//214 220//214 218//214
f 219//215 221//215 223//215
f 224//216 220//216 222//216
f 221//217 225//217 223//217
f 226//218 224//218 222//218
f 223//219 225//219 227//219
f 228//220 224//220 226//220
f 225//221 229//221 227//221
f 230//222 228//222 226//222
f 227//223 229//223 231//223
f 232//224 228//224 230//224
f 229//225 233//225 231//225
f 234//226 232//226 230//226
f 231//227 233//227 235//227
f 236//228 232//228 234//228
f 233//229 237//229 235//229
f 238//230 236//230 234//230
f 235//231 237//231 239//231
f 240//232 236//232 238//232
f 237//233 241//233 239//233
f 242//234 240//234 238//234
f 239//235 241//235 243//235
f 244//236 240//236 242//236
f 241//237 245//237 243//237
f 246//238 244//238 242//238
f 243//239 245//239 247//239
f 248//240 244//240 246//240
f 245//241 249//241 247//241
f 250//242 248//242 246//242
f 247//243 249//243 250//243
f 249//244 248//244 250//244

# Thank you for using Spin 3D

