# Created using Spin 3D

# Vertex Array 
v 0.177 0.105 -0.050 0 0 0
v 0.177 0.200 -0.050 0 0 0
v 0.258 0.200 -0.050 0 0 0
v 0.258 0.105 -0.050 0 0 0
v -0.165 0.200 -0.050 0 0 0
v -0.165 0.105 -0.050 0 0 0
v -0.259 0.105 -0.050 0 0 0
v -0.259 0.200 -0.050 0 0 0
v -0.165 0.105 0.050 0 0 0
v -0.165 0.200 0.050 0 0 0
v -0.258 0.200 0.050 0 0 0
v -0.258 0.105 0.050 0 0 0
v 0.258 0.105 0.050 0 0 0
v 0.258 0.200 0.050 0 0 0
v 0.168 0.200 0.050 0 0 0
v 0.168 0.105 0.050 0 0 0
v -0.258 0.200 0.050 0 0 0
v -0.244 0.200 0.098 0 0 0
v -0.258 0.105 0.050 0 0 0
v -0.244 0.029 0.098 0 0 0
v -0.221 0.029 0.142 0 0 0
v -0.258 0.029 0.050 0 0 0
v -0.221 0.200 0.142 0 0 0
v -0.263 0.105 -0.000 0 0 0
v -0.190 0.029 0.182 0 0 0
v -0.263 0.029 -0.000 0 0 0
v -0.190 0.200 0.182 0 0 0
v -0.152 0.029 0.215 0 0 0
v -0.152 0.200 0.215 0 0 0
v -0.109 0.029 0.240 0 0 0
v -0.109 0.200 0.240 0 0 0
v -0.259 0.105 -0.050 0 0 0
v -0.062 0.029 0.256 0 0 0
v -0.062 0.200 0.256 0 0 0
v -0.050 0.200 0.258 0 0 0
v -0.012 0.029 0.263 0 0 0
v -0.012 0.200 0.263 0 0 0
v 0.038 0.029 0.261 0 0 0
v 0.038 0.200 0.261 0 0 0
v 0.050 0.200 0.258 0 0 0
v 0.087 0.029 0.249 0 0 0
v 0.087 0.200 0.249 0 0 0
v 0.132 0.029 0.228 0 0 0
v 0.132 0.200 0.228 0 0 0
v 0.173 0.200 0.199 0 0 0
v 0.173 0.029 0.199 0 0 0
v 0.208 0.029 0.163 0 0 0
v 0.208 0.200 0.163 0 0 0
v 0.235 0.029 0.120 0 0 0
v 0.235 0.200 0.120 0 0 0
v 0.254 0.200 0.074 0 0 0
v 0.254 0.029 0.074 0 0 0
v 0.258 0.105 0.050 0 0 0
v 0.258 0.200 0.050 0 0 0
v 0.263 0.029 0.025 0 0 0
v 0.263 0.105 0.025 0 0 0
v 0.263 0.105 -0.026 0 0 0
v 0.263 0.029 -0.026 0 0 0
v 0.258 0.105 -0.050 0 0 0
v 0.253 0.029 -0.075 0 0 0
v 0.253 0.200 -0.075 0 0 0
v 0.258 0.200 -0.050 0 0 0
v 0.235 0.029 -0.121 0 0 0
v 0.235 0.200 -0.121 0 0 0
v 0.208 0.200 -0.163 0 0 0
v 0.208 0.029 -0.163 0 0 0
v 0.173 0.029 -0.200 0 0 0
v 0.173 0.200 -0.200 0 0 0
v 0.132 0.200 -0.229 0 0 0
v 0.132 0.029 -0.229 0 0 0
v 0.087 0.029 -0.250 0 0 0
v 0.087 0.200 -0.250 0 0 0
v 0.050 0.200 -0.258 0 0 0
v 0.038 0.029 -0.261 0 0 0
v 0.038 0.200 -0.261 0 0 0
v -0.012 0.200 -0.264 0 0 0
v -0.012 0.029 -0.264 0 0 0
v -0.050 0.200 -0.258 0 0 0
v -0.062 0.029 -0.257 0 0 0
v -0.062 0.200 -0.257 0 0 0
v -0.109 0.029 -0.240 0 0 0
v -0.109 0.200 -0.240 0 0 0
v -0.153 0.029 -0.215 0 0 0
v -0.153 0.200 -0.215 0 0 0
v -0.191 0.029 -0.182 0 0 0
v -0.191 0.200 -0.182 0 0 0
v -0.222 0.029 -0.143 0 0 0
v -0.222 0.200 -0.143 0 0 0
v -0.244 0.200 -0.098 0 0 0
v -0.244 0.029 -0.098 0 0 0
v -0.259 0.029 -0.050 0 0 0
v -0.259 0.200 -0.050 0 0 0
v -0.259 0.200 -0.050 0 0 0
v 0.050 0.200 -0.258 0 0 0
v 0.087 0.200 -0.250 0 0 0
v 0.050 0.200 -0.175 0 0 0
v 0.117 0.200 -0.175 0 0 0
v 0.132 0.200 -0.229 0 0 0
v 0.129 0.200 -0.173 0 0 0
v 0.173 0.200 -0.200 0 0 0
v 0.149 0.200 -0.165 0 0 0
v 0.165 0.200 -0.152 0 0 0
v 0.208 0.200 -0.163 0 0 0
v 0.173 0.200 -0.138 0 0 0
v 0.177 0.200 -0.115 0 0 0
v 0.235 0.200 -0.121 0 0 0
v 0.253 0.200 -0.075 0 0 0
v 0.177 0.200 -0.050 0 0 0
v 0.258 0.200 -0.050 0 0 0
v -0.259 0.200 -0.050 0 0 0
v -0.259 0.200 -0.050 0 0 0
v -0.165 0.200 -0.050 0 0 0
v -0.244 0.200 -0.098 0 0 0
v -0.160 0.200 -0.067 0 0 0
v -0.222 0.200 -0.143 0 0 0
v -0.144 0.200 -0.097 0 0 0
v -0.191 0.200 -0.182 0 0 0
v -0.122 0.200 -0.124 0 0 0
v -0.153 0.200 -0.215 0 0 0
v -0.096 0.200 -0.146 0 0 0
v -0.109 0.200 -0.240 0 0 0
v -0.066 0.200 -0.162 0 0 0
v -0.062 0.200 -0.257 0 0 0
v -0.050 0.200 -0.166 0 0 0
v -0.050 0.200 -0.258 0 0 0
v -0.050 0.200 0.258 0 0 0
v -0.062 0.200 0.256 0 0 0
v -0.050 0.200 0.166 0 0 0
v -0.066 0.200 0.162 0 0 0
v -0.109 0.200 0.240 0 0 0
v -0.096 0.200 0.146 0 0 0
v -0.152 0.200 0.215 0 0 0
v -0.122 0.200 0.124 0 0 0
v -0.190 0.200 0.182 0 0 0
v -0.144 0.200 0.097 0 0 0
v -0.221 0.200 0.142 0 0 0
v -0.160 0.200 0.067 0 0 0
v -0.244 0.200 0.098 0 0 0
v -0.165 0.200 0.050 0 0 0
v -0.258 0.200 0.050 0 0 0
v 0.258 0.200 0.050 0 0 0
v 0.254 0.200 0.074 0 0 0
v 0.168 0.200 0.050 0 0 0
v 0.163 0.200 0.067 0 0 0
v 0.235 0.200 0.120 0 0 0
v 0.147 0.200 0.097 0 0 0
v 0.208 0.200 0.163 0 0 0
v 0.125 0.200 0.124 0 0 0
v 0.173 0.200 0.199 0 0 0
v 0.099 0.200 0.146 0 0 0
v 0.132 0.200 0.228 0 0 0
v 0.068 0.200 0.162 0 0 0
v 0.087 0.200 0.249 0 0 0
v 0.050 0.200 0.167 0 0 0
v 0.050 0.200 0.258 0 0 0
v -0.165 0.200 0.050 0 0 0
v -0.165 0.105 0.050 0 0 0
v -0.160 0.200 0.067 0 0 0
v -0.160 0.097 0.067 0 0 0
v -0.144 0.097 0.097 0 0 0
v -0.170 0.097 0.034 0 0 0
v -0.144 0.200 0.097 0 0 0
v -0.170 0.105 0.034 0 0 0
v -0.174 0.097 -0.000 0 0 0
v -0.174 0.105 -0.000 0 0 0
v -0.122 0.097 0.124 0 0 0
v -0.122 0.200 0.124 0 0 0
v -0.096 0.200 0.146 0 0 0
v -0.096 0.097 0.146 0 0 0
v -0.066 0.200 0.162 0 0 0
v -0.066 0.097 0.162 0 0 0
v -0.050 0.200 0.166 0 0 0
v -0.170 0.097 -0.034 0 0 0
v -0.170 0.105 -0.034 0 0 0
v -0.033 0.097 0.172 0 0 0
v -0.033 0.200 0.172 0 0 0
v 0.001 0.200 0.175 0 0 0
v 0.001 0.097 0.175 0 0 0
v 0.036 0.200 0.172 0 0 0
v 0.036 0.097 0.172 0 0 0
v 0.050 0.200 0.167 0 0 0
v -0.165 0.105 -0.050 0 0 0
v 0.068 0.097 0.162 0 0 0
v 0.068 0.200 0.162 0 0 0
v 0.099 0.200 0.146 0 0 0
v 0.099 0.097 0.146 0 0 0
v 0.125 0.200 0.124 0 0 0
v 0.125 0.097 0.124 0 0 0
v 0.147 0.200 0.097 0 0 0
v 0.147 0.097 0.097 0 0 0
v 0.163 0.200 0.067 0 0 0
v 0.163 0.097 0.067 0 0 0
v -0.160 0.097 -0.067 0 0 0
v 0.168 0.105 0.050 0 0 0
v 0.168 0.200 0.050 0 0 0
v 0.173 0.097 0.034 0 0 0
v 0.173 0.105 0.034 0 0 0
v 0.176 0.097 -0.000 0 0 0
v 0.176 0.105 -0.000 0 0 0
v 0.177 0.105 -0.050 0 0 0
v 0.177 0.097 -0.115 0 0 0
v 0.177 0.200 -0.115 0 0 0
v 0.177 0.200 -0.050 0 0 0
v 0.173 0.097 -0.138 0 0 0
v 0.173 0.200 -0.138 0 0 0
v 0.165 0.097 -0.152 0 0 0
v 0.165 0.200 -0.152 0 0 0
v 0.149 0.097 -0.165 0 0 0
v 0.149 0.200 -0.165 0 0 0
v 0.129 0.200 -0.173 0 0 0
v 0.129 0.097 -0.173 0 0 0
v 0.117 0.097 -0.175 0 0 0
v 0.117 0.200 -0.175 0 0 0
v 0.085 0.097 -0.175 0 0 0
v 0.050 0.200 -0.175 0 0 0
v 0.001 0.097 -0.175 0 0 0
v 0.001 0.200 -0.175 0 0 0
v -0.033 0.200 -0.172 0 0 0
v -0.033 0.097 -0.172 0 0 0
v -0.050 0.200 -0.166 0 0 0
v -0.066 0.097 -0.162 0 0 0
v -0.066 0.200 -0.162 0 0 0
v -0.096 0.097 -0.146 0 0 0
v -0.096 0.200 -0.146 0 0 0
v -0.122 0.200 -0.124 0 0 0
v -0.122 0.097 -0.124 0 0 0
v -0.144 0.097 -0.097 0 0 0
v -0.144 0.200 -0.097 0 0 0
v -0.160 0.200 -0.067 0 0 0
v -0.165 0.200 -0.050 0 0 0
v -0.165 0.105 0.050 0 0 0
v -0.258 0.105 0.050 0 0 0
v -0.170 0.105 0.034 0 0 0
v -0.174 0.105 -0.000 0 0 0
v -0.263 0.105 -0.000 0 0 0
v -0.259 0.105 -0.050 0 0 0
v -0.170 0.105 -0.034 0 0 0
v -0.165 0.105 -0.050 0 0 0
v 0.258 0.105 -0.050 0 0 0
v 0.263 0.105 -0.026 0 0 0
v 0.177 0.105 -0.050 0 0 0
v 0.176 0.105 -0.000 0 0 0
v 0.263 0.105 0.025 0 0 0
v 0.173 0.105 0.034 0 0 0
v 0.258 0.105 0.050 0 0 0
v 0.168 0.105 0.050 0 0 0
v -0.050 0.200 -0.166 0 0 0
v -0.050 0.200 -0.258 0 0 0
v -0.033 0.200 -0.172 0 0 0
v -0.012 0.200 -0.264 0 0 0
v 0.001 0.200 -0.175 0 0 0
v 0.038 0.200 -0.261 0 0 0
v 0.050 0.200 -0.175 0 0 0
v 0.050 0.200 -0.258 0 0 0
v 0.050 0.200 0.167 0 0 0
v 0.050 0.200 0.258 0 0 0
v 0.036 0.200 0.172 0 0 0
v 0.038 0.200 0.261 0 0 0
v 0.001 0.200 0.175 0 0 0
v -0.012 0.200 0.263 0 0 0
v -0.033 0.200 0.172 0 0 0
v -0.050 0.200 0.258 0 0 0
v -0.050 0.200 0.166 0 0 0
v 0.068 0.097 0.162 0 0 0
v 0.036 0.097 0.172 0 0 0
v 0.099 0.097 0.146 0 0 0
v -0.033 0.097 0.172 0 0 0
v -0.096 0.097 -0.146 0 0 0
v 0.001 0.097 0.175 0 0 0
v 0.173 0.097 0.034 0 0 0
v 0.147 0.097 0.097 0 0 0
v 0.125 0.097 0.124 0 0 0
v 0.163 0.097 0.067 0 0 0
v -0.033 0.097 -0.172 0 0 0
v -0.066 0.097 -0.162 0 0 0
v 0.001 0.097 -0.175 0 0 0
v 0.176 0.097 -0.000 0 0 0
v 0.085 0.097 -0.175 0 0 0
v 0.177 0.097 -0.115 0 0 0
v 0.117 0.097 -0.175 0 0 0
v 0.129 0.097 -0.173 0 0 0
v 0.149 0.097 -0.165 0 0 0
v 0.173 0.097 -0.138 0 0 0
v 0.165 0.097 -0.152 0 0 0
v -0.170 0.097 -0.034 0 0 0
v -0.122 0.097 -0.124 0 0 0
v -0.144 0.097 -0.097 0 0 0
v -0.160 0.097 -0.067 0 0 0
v -0.170 0.097 0.034 0 0 0
v -0.174 0.097 -0.000 0 0 0
v -0.144 0.097 0.097 0 0 0
v -0.160 0.097 0.067 0 0 0
v -0.122 0.097 0.124 0 0 0
v -0.096 0.097 0.146 0 0 0
v -0.066 0.097 0.162 0 0 0

# Normal Array
vn 0.000 0.000 1.000
vn 0.000 0.000 1.000
vn 0.000 0.000 1.000
vn 0.000 0.000 1.000
vn -0.000 -0.000 -1.000
vn 0.001 0.001 -1.000
vn -0.000 -0.000 -1.000
vn -0.000 -0.000 -1.000
vn -0.959 0.000 0.282
vn -0.959 0.000 0.282
vn -0.889 0.000 0.459
vn -0.959 0.000 0.282
vn -0.889 0.000 0.459
vn -0.995 0.000 0.096
vn -0.786 0.000 0.619
vn -0.995 0.000 0.096
vn -0.786 0.000 0.619
vn -0.654 0.000 0.756
vn -0.654 0.000 0.756
vn -0.499 0.000 0.866
vn -0.499 0.000 0.866
vn -0.996 -0.000 -0.094
vn -0.326 0.000 0.945
vn -0.326 0.000 0.945
vn -0.142 0.000 0.990
vn -0.142 0.000 0.990
vn -0.142 0.000 0.990
vn 0.048 0.000 0.999
vn 0.048 0.000 0.999
vn 0.236 0.000 0.972
vn 0.236 0.000 0.972
vn 0.236 -0.000 0.972
vn 0.416 -0.000 0.909
vn 0.416 -0.000 0.909
vn 0.581 -0.000 0.814
vn 0.581 -0.000 0.814
vn 0.724 -0.000 0.690
vn 0.724 0.000 0.690
vn 0.842 0.000 0.540
vn 0.842 -0.000 0.540
vn 0.929 -0.000 0.371
vn 0.929 0.000 0.371
vn 0.982 0.000 0.189
vn 0.982 -0.000 0.189
vn 0.982 0.000 0.189
vn 0.982 0.000 0.189
vn 1.000 -0.000 -0.001
vn 1.000 -0.000 -0.001
vn 0.982 -0.000 -0.190
vn 0.982 -0.000 -0.190
vn 0.982 -0.000 -0.190
vn 0.982 0.000 -0.190
vn 0.928 -0.000 -0.372
vn 0.928 -0.000 -0.372
vn 0.841 -0.000 -0.541
vn 0.841 0.000 -0.541
vn 0.723 0.000 -0.691
vn 0.723 -0.000 -0.691
vn 0.580 -0.000 -0.815
vn 0.580 -0.000 -0.815
vn 0.415 -0.000 -0.910
vn 0.415 -0.000 -0.910
vn 0.235 -0.000 -0.972
vn 0.235 -0.000 -0.972
vn 0.235 -0.000 -0.972
vn 0.047 -0.000 -0.999
vn 0.047 -0.000 -0.999
vn -0.143 -0.000 -0.990
vn -0.143 0.000 -0.990
vn -0.143 0.000 -0.990
vn -0.328 0.000 -0.945
vn -0.328 0.000 -0.945
vn -0.501 0.000 -0.866
vn -0.501 0.000 -0.866
vn -0.655 0.000 -0.755
vn -0.655 -0.000 -0.755
vn -0.786 0.000 -0.618
vn -0.786 0.000 -0.618
vn -0.889 0.000 -0.458
vn -0.889 0.000 -0.458
vn -0.960 0.000 -0.281
vn -0.960 -0.000 -0.281
vn -0.996 -0.000 -0.094
vn -0.996 0.000 -0.094
vn -0.996 -0.000 -0.094
vn -0.000 1.000 -0.000
vn 0.000 1.000 -0.000
vn 0.000 1.000 0.000
vn 0.000 1.000 0.000
vn 0.000 1.000 0.000
vn -0.000 1.000 -0.000
vn 0.000 1.000 -0.000
vn 0.000 1.000 -0.000
vn 0.000 1.000 -0.000
vn 0.000 1.000 -0.000
vn -0.000 1.000 -0.000
vn -0.000 1.000 0.000
vn -0.000 1.000 -0.000
vn 0.000 1.000 0.000
vn 0.000 1.000 0.000
vn 0.000 1.000 -0.000
vn -0.000 1.000 -0.000
vn -0.000 1.000 -0.000
vn -0.000 1.000 -0.000
vn 0.000 1.000 -0.000
vn 0.000 1.000 -0.000
vn -0.000 1.000 -0.000
vn -0.000 1.000 -0.000
vn -0.000 1.000 -0.000
vn 0.000 1.000 -0.000
vn 0.000 1.000 0.000
vn 0.000 1.000 -0.000
vn 0.000 1.000 -0.000
vn 0.000 1.000 -0.000
vn -0.000 1.000 -0.000
vn -0.000 1.000 -0.000
vn 0.000 1.000 0.000
vn -0.000 1.000 0.000
vn 0.000 1.000 -0.000
vn -0.000 1.000 0.000
vn 0.000 1.000 -0.000
vn -0.000 1.000 0.000
vn -0.000 1.000 -0.000
vn -0.000 1.000 -0.000
vn 0.000 1.000 0.000
vn -0.000 1.000 0.000
vn -0.000 1.000 -0.000
vn -0.000 1.000 -0.000
vn -0.000 1.000 -0.000
vn 0.000 1.000 -0.000
vn 0.000 1.000 0.000
vn -0.000 1.000 0.000
vn 0.000 1.000 0.000
vn -0.000 1.000 0.000
vn 0.000 1.000 -0.000
vn 0.000 1.000 -0.000
vn 0.000 1.000 0.000
vn -0.000 1.000 0.000
vn -0.000 1.000 -0.000
vn 0.957 0.000 -0.290
vn 0.957 0.000 -0.290
vn 0.882 0.000 -0.471
vn 0.957 -0.000 -0.290
vn 0.882 0.000 -0.471
vn 0.957 -0.000 -0.290
vn 0.995 -0.000 -0.098
vn 0.995 0.000 -0.098
vn 0.773 0.000 -0.634
vn 0.773 -0.000 -0.634
vn 0.634 -0.000 -0.773
vn 0.634 -0.000 -0.773
vn 0.471 -0.000 -0.882
vn 0.471 -0.000 -0.882
vn 0.290 -0.000 -0.957
vn 0.995 0.000 0.098
vn 0.995 0.000 0.098
vn 0.290 -0.000 -0.957
vn 0.290 -0.000 -0.957
vn 0.098 -0.000 -0.995
vn 0.098 -0.000 -0.995
vn -0.098 -0.000 -0.995
vn -0.098 -0.000 -0.995
vn -0.290 -0.000 -0.957
vn 0.957 0.000 0.290
vn -0.290 -0.000 -0.957
vn -0.290 -0.000 -0.957
vn -0.471 -0.000 -0.882
vn -0.471 -0.000 -0.882
vn -0.634 -0.000 -0.773
vn -0.634 -0.000 -0.773
vn -0.773 -0.000 -0.634
vn -0.773 -0.000 -0.634
vn -0.882 -0.000 -0.471
vn -0.882 -0.000 -0.471
vn 0.957 0.000 0.290
vn -0.957 -0.000 -0.290
vn -0.957 -0.000 -0.290
vn -0.957 0.000 -0.290
vn -0.957 -0.000 -0.290
vn -0.995 -0.000 -0.098
vn -0.995 -0.000 -0.098
vn -1.000 -0.000 -0.002
vn -1.000 0.000 -0.002
vn -1.000 -0.000 -0.002
vn -1.000 -0.000 -0.002
vn -0.985 0.000 0.175
vn -0.985 0.000 0.175
vn -0.877 0.000 0.481
vn -0.877 -0.000 0.481
vn -0.636 0.000 0.771
vn -0.636 0.000 0.771
vn -0.386 0.000 0.923
vn -0.386 0.000 0.923
vn -0.130 0.000 0.991
vn -0.130 0.000 0.991
vn -0.001 0.000 1.000
vn -0.001 0.000 1.000
vn -0.001 0.000 1.000
vn -0.001 0.000 1.000
vn 0.098 0.000 0.995
vn 0.098 0.000 0.995
vn 0.290 0.000 0.957
vn 0.290 0.000 0.957
vn 0.290 0.000 0.957
vn 0.471 0.000 0.882
vn 0.471 0.000 0.882
vn 0.634 0.000 0.773
vn 0.634 0.000 0.773
vn 0.773 0.000 0.634
vn 0.773 0.000 0.634
vn 0.882 0.000 0.471
vn 0.882 0.000 0.471
vn 0.957 0.000 0.290
vn 0.957 0.000 0.290
vn 0.000 1.000 -0.000
vn 0.000 1.000 -0.000
vn 0.000 1.000 -0.000
vn 0.000 1.000 -0.000
vn 0.000 1.000 -0.000
vn 0.000 1.000 0.000
vn 0.000 1.000 -0.000
vn 0.000 1.000 -0.000
vn 0.000 1.000 -0.000
vn 0.000 1.000 -0.000
vn 0.000 1.000 -0.000
vn 0.000 1.000 -0.000
vn 0.000 1.000 0.000
vn 0.000 1.000 0.000
vn 0.000 1.000 0.000
vn 0.000 1.000 -0.000
vn 0.000 1.000 -0.000
vn 0.000 1.000 -0.000
vn -0.000 1.000 -0.000
vn -0.000 1.000 -0.000
vn -0.000 1.000 -0.000
vn 0.000 1.000 -0.000
vn 0.000 1.000 -0.000
vn 0.000 1.000 -0.000
vn 0.000 1.000 -0.000
vn 0.000 1.000 0.000
vn -0.000 1.000 -0.000
vn -0.000 1.000 -0.000
vn -0.000 1.000 -0.000
vn -0.000 1.000 -0.000
vn 0.000 1.000 -0.000
vn -0.000 1.000 -0.000
vn -0.000 1.000 -0.000
vn 0.000 1.000 -0.000
vn -0.000 1.000 -0.000
vn -0.000 1.000 -0.000
vn 0.000 1.000 -0.000
vn -0.000 1.000 -0.000
vn 0.000 1.000 -0.000
vn 0.000 1.000 -0.000
vn 0.000 1.000 -0.000
vn 0.000 1.000 -0.000
vn 0.000 1.000 -0.000
vn 0.000 1.000 -0.000
vn -0.000 1.000 -0.000
vn -0.000 1.000 -0.000
vn 0.000 1.000 -0.000
vn -0.000 1.000 -0.000
vn 0.000 1.000 -0.000
vn 0.000 1.000 -0.000
vn -0.000 1.000 0.000
vn -0.000 1.000 -0.000
vn 0.000 1.000 -0.000
vn -0.000 1.000 0.000
vn 0.000 1.000 -0.000

# Facets
f 1//1 3//1 2//1
f 4//2 3//2 1//2
f 5//3 7//3 6//3
f 8//4 7//4 5//4
f 9//5 11//5 10//5
f 12//6 11//6 9//6
f 13//7 15//7 14//7
f 16//8 15//8 13//8
f 17//9 19//9 18//9
f 20//10 18//10 19//10
f 21//11 18//11 20//11
f 22//12 20//12 19//12
f 23//13 18//13 21//13
f 24//14 22//14 19//14
f 25//15 23//15 21//15
f 26//16 22//16 24//16
f 27//17 23//17 25//17
f 28//18 27//18 25//18
f 29//19 27//19 28//19
f 30//20 29//20 28//20
f 31//21 29//21 30//21
f 24//22 32//22 26//22
f 33//23 31//23 30//23
f 34//24 31//24 33//24
f 34//25 33//25 35//25
f 33//26 36//26 35//26
f 37//27 35//27 36//27
f 36//28 38//28 37//28
f 37//29 38//29 39//29
f 40//30 39//30 38//30
f 40//31 38//31 41//31
f 42//32 40//32 41//32
f 43//33 42//33 41//33
f 44//34 42//34 43//34
f 44//35 43//35 45//35
f 45//36 43//36 46//36
f 47//37 45//37 46//37
f 48//38 45//38 47//38
f 49//39 48//39 47//39
f 50//40 48//40 49//40
f 50//41 49//41 51//41
f 51//42 49//42 52//42
f 51//43 52//43 53//43
f 54//44 51//44 53//44
f 55//45 53//45 52//45
f 56//46 53//46 55//46
f 55//47 57//47 56//47
f 58//48 57//48 55//48
f 57//49 58//49 59//49
f 58//50 60//50 59//50
f 61//51 59//51 60//51
f 62//52 59//52 61//52
f 63//53 61//53 60//53
f 64//54 61//54 63//54
f 64//55 63//55 65//55
f 65//56 63//56 66//56
f 67//57 65//57 66//57
f 68//58 65//58 67//58
f 68//59 67//59 69//59
f 69//60 67//60 70//60
f 71//61 69//61 70//61
f 72//62 69//62 71//62
f 72//63 71//63 73//63
f 71//64 74//64 73//64
f 74//65 75//65 73//65
f 75//66 74//66 76//66
f 76//67 74//67 77//67
f 76//68 77//68 78//68
f 77//69 79//69 78//69
f 80//70 78//70 79//70
f 81//71 80//71 79//71
f 82//72 80//72 81//72
f 83//73 82//73 81//73
f 84//74 82//74 83//74
f 85//75 84//75 83//75
f 86//76 84//76 85//76
f 87//77 86//77 85//77
f 88//78 86//78 87//78
f 88//79 87//79 89//79
f 89//80 87//80 90//80
f 91//81 89//81 90//81
f 92//82 89//82 91//82
f 92//83 91//83 32//83
f 26//84 32//84 91//84
f 93//85 92//85 32//85
f 94//86 96//86 95//86
f 95//87 96//87 97//87
f 98//88 95//88 97//88
f 98//89 97//89 99//89
f 100//90 98//90 99//90
f 101//91 100//91 99//91
f 102//92 100//92 101//92
f 103//93 100//93 102//93
f 104//94 103//94 102//94
f 104//95 105//95 103//95
f 106//96 103//96 105//96
f 107//97 106//97 105//97
f 105//98 108//98 107//98
f 109//99 107//99 108//99
f 110//100 112//100 111//100
f 112//101 113//101 111//101
f 112//102 114//102 113//102
f 115//103 113//103 114//103
f 114//104 116//104 115//104
f 117//105 115//105 116//105
f 117//106 116//106 118//106
f 119//107 117//107 118//107
f 119//108 118//108 120//108
f 121//109 119//109 120//109
f 120//110 122//110 121//110
f 123//111 121//111 122//111
f 123//112 122//112 124//112
f 125//113 123//113 124//113
f 126//114 128//114 127//114
f 129//115 127//115 128//115
f 130//116 127//116 129//116
f 130//117 129//117 131//117
f 132//118 130//118 131//118
f 133//119 132//119 131//119
f 134//120 132//120 133//120
f 135//121 134//121 133//121
f 136//122 134//122 135//122
f 137//123 136//123 135//123
f 138//124 136//124 137//124
f 137//125 139//125 138//125
f 140//126 138//126 139//126
f 141//127 143//127 142//127
f 143//128 144//128 142//128
f 145//129 142//129 144//129
f 144//130 146//130 145//130
f 147//131 145//131 146//131
f 148//132 147//132 146//132
f 149//133 147//133 148//133
f 150//134 149//134 148//134
f 151//135 149//135 150//135
f 152//136 151//136 150//136
f 153//137 151//137 152//137
f 154//138 153//138 152//138
f 155//139 153//139 154//139
f 156//140 158//140 157//140
f 158//141 159//141 157//141
f 158//142 160//142 159//142
f 161//143 157//143 159//143
f 162//144 160//144 158//144
f 163//145 157//145 161//145
f 161//146 164//146 163//146
f 163//147 164//147 165//147
f 162//148 166//148 160//148
f 167//149 166//149 162//149
f 167//150 168//150 166//150
f 166//151 168//151 169//151
f 168//152 170//152 169//152
f 169//153 170//153 171//153
f 170//154 172//154 171//154
f 164//155 173//155 165//155
f 165//156 173//156 174//156
f 172//157 175//157 171//157
f 172//158 176//158 175//158
f 177//159 175//159 176//159
f 178//160 175//160 177//160
f 179//161 178//161 177//161
f 180//162 178//162 179//162
f 180//163 179//163 181//163
f 174//164 173//164 182//164
f 183//165 180//165 181//165
f 184//166 183//166 181//166
f 184//167 185//167 183//167
f 183//168 185//168 186//168
f 185//169 187//169 186//169
f 186//170 187//170 188//170
f 187//171 189//171 188//171
f 188//172 189//172 190//172
f 189//173 191//173 190//173
f 190//174 191//174 192//174
f 173//175 193//175 182//175
f 191//176 194//176 192//176
f 195//177 194//177 191//177
f 196//178 192//178 194//178
f 197//179 196//179 194//179
f 197//180 198//180 196//180
f 199//181 198//181 197//181
f 199//182 200//182 198//182
f 198//183 200//183 201//183
f 202//184 201//184 200//184
f 203//185 202//185 200//185
f 201//186 202//186 204//186
f 204//187 202//187 205//187
f 204//188 205//188 206//188
f 206//189 205//189 207//189
f 206//190 207//190 208//190
f 208//191 207//191 209//191
f 209//192 210//192 208//192
f 208//193 210//193 211//193
f 211//194 210//194 212//194
f 212//195 210//195 213//195
f 212//196 213//196 214//196
f 213//197 215//197 214//197
f 216//198 214//198 215//198
f 215//199 217//199 216//199
f 218//200 216//200 217//200
f 219//201 216//201 218//201
f 219//202 218//202 220//202
f 221//203 219//203 220//203
f 222//204 221//204 220//204
f 221//205 222//205 223//205
f 223//206 222//206 224//206
f 224//207 225//207 223//207
f 223//208 225//208 226//208
f 225//209 227//209 226//209
f 228//210 227//210 225//210
f 228//211 193//211 227//211
f 229//212 193//212 228//212
f 229//213 182//213 193//213
f 230//214 182//214 229//214
f 231//215 233//215 232//215
f 233//216 234//216 232//216
f 235//217 232//217 234//217
f 236//218 235//218 234//218
f 237//219 236//219 234//219
f 238//220 236//220 237//220
f 239//221 241//221 240//221
f 241//222 242//222 240//222
f 243//223 240//223 242//223
f 242//224 244//224 243//224
f 245//225 243//225 244//225
f 246//226 245//226 244//226
f 247//227 249//227 248//227
f 250//228 248//228 249//228
f 249//229 251//229 250//229
f 252//230 250//230 251//230
f 253//231 252//231 251//231
f 254//232 252//232 253//232
f 255//233 257//233 256//233
f 258//234 256//234 257//234
f 258//235 257//235 259//235
f 260//236 258//236 259//236
f 261//237 260//237 259//237
f 262//238 260//238 261//238
f 263//239 262//239 261//239
f 264//240 266//240 265//240
f 265//241 266//241 267//241
f 267//242 266//242 268//242
f 269//243 265//243 267//243
f 266//244 270//244 268//244
f 271//245 270//245 266//245
f 272//246 271//246 266//246
f 273//247 270//247 271//247
f 274//248 268//248 270//248
f 275//249 268//249 274//249
f 276//250 274//250 270//250
f 276//251 270//251 277//251
f 278//252 276//252 277//252
f 277//253 279//253 278//253
f 280//254 278//254 279//254
f 281//255 280//255 279//255
f 282//256 281//256 279//256
f 282//257 279//257 283//257
f 284//258 282//258 283//258
f 268//259 286//259 285//259
f 286//260 287//260 285//260
f 288//261 285//261 287//261
f 285//262 289//262 268//262
f 290//263 289//263 285//263
f 289//264 291//264 268//264
f 292//265 291//265 289//265
f 291//266 267//266 268//266
f 291//267 293//267 267//267
f 293//268 294//268 267//268
f 295//269 267//269 294//269

# Thank you for using Spin 3D

