# Created using Spin 3D

# Vertex Array 
v 0.282 -0.023 0.000 0 0 0
v 0.000 -0.023 -0.240 0 0 0
v 0.000 0.200 -0.240 0 0 0
v 0.282 0.200 0.000 0 0 0
v -0.500 0.100 -0.240 0 0 0
v -0.500 0.200 -0.240 0 0 0
v -0.500 0.200 0.000 0 0 0
v -0.500 0.100 0.000 0 0 0
v -0.500 0.100 0.240 0 0 0
v -0.500 0.200 0.240 0 0 0
v -0.500 0.200 -0.240 0 0 0
v -0.500 0.100 -0.240 0 0 0
v 0.000 0.200 -0.240 0 0 0
v 0.000 0.100 -0.240 0 0 0
v 0.500 0.200 -0.240 0 0 0
v 0.500 0.100 -0.240 0 0 0
v 0.000 -0.023 0.240 0 0 0
v 0.282 -0.023 0.000 0 0 0
v 0.282 0.200 0.000 0 0 0
v 0.000 0.200 0.240 0 0 0
v 0.500 0.100 0.240 0 0 0
v 0.000 0.100 0.240 0 0 0
v 0.500 0.200 0.240 0 0 0
v 0.000 0.200 0.240 0 0 0
v -0.500 0.100 0.240 0 0 0
v -0.500 0.200 0.240 0 0 0
v -0.122 0.088 -0.115 0 0 0
v -0.007 0.088 -0.162 0 0 0
v 0.108 0.088 -0.115 0 0 0
v 0.155 0.088 -0.000 0 0 0
v -0.169 0.088 -0.000 0 0 0
v 0.108 0.088 0.115 0 0 0
v -0.122 0.088 0.115 0 0 0
v -0.007 0.088 0.162 0 0 0
v -0.500 0.200 -0.240 0 0 0
v 0.000 0.200 -0.240 0 0 0
v -0.500 0.200 0.000 0 0 0
v -0.261 0.200 0.000 0 0 0
v 0.000 0.200 0.240 0 0 0
v -0.500 0.200 0.240 0 0 0
v 0.500 0.200 -0.240 0 0 0
v 0.282 0.200 0.000 0 0 0
v 0.500 0.200 0.240 0 0 0
v 0.500 0.200 0.000 0 0 0
v 0.203 0.260 0.203 0 0 0
v -0.000 0.260 0.287 0 0 0
v -0.203 0.260 0.203 0 0 0
v -0.007 0.260 0.162 0 0 0
v -0.122 0.260 0.115 0 0 0
v 0.108 0.260 0.115 0 0 0
v -0.287 0.260 0.000 0 0 0
v -0.169 0.260 0.000 0 0 0
v -0.122 0.260 -0.115 0 0 0
v 0.287 0.260 0.000 0 0 0
v 0.155 0.260 0.000 0 0 0
v 0.108 0.260 -0.115 0 0 0
v -0.203 0.260 -0.203 0 0 0
v 0.203 0.260 -0.203 0 0 0
v -0.000 0.260 -0.287 0 0 0
v -0.007 0.260 -0.162 0 0 0
v 0.500 0.100 0.000 0 0 0
v 0.500 0.100 0.240 0 0 0
v 0.500 0.200 0.240 0 0 0
v 0.500 0.200 0.000 0 0 0
v 0.500 0.200 -0.240 0 0 0
v 0.500 0.100 -0.240 0 0 0
v 0.282 -0.023 0.000 0 0 0
v -0.261 -0.023 0.000 0 0 0
v 0.000 -0.023 -0.240 0 0 0
v 0.000 -0.023 0.240 0 0 0
v 0.000 -0.023 -0.240 0 0 0
v -0.261 -0.023 0.000 0 0 0
v -0.261 0.200 0.000 0 0 0
v 0.000 0.200 -0.240 0 0 0
v -0.261 -0.023 0.000 0 0 0
v 0.000 -0.023 0.240 0 0 0
v 0.000 0.200 0.240 0 0 0
v -0.261 0.200 0.000 0 0 0
v 0.155 0.260 0.000 0 0 0
v 0.155 0.088 -0.000 0 0 0
v 0.108 0.260 -0.115 0 0 0
v 0.108 0.260 0.115 0 0 0
v 0.108 0.088 -0.115 0 0 0
v 0.108 0.088 0.115 0 0 0
v -0.007 0.260 -0.162 0 0 0
v -0.007 0.260 0.162 0 0 0
v -0.007 0.088 -0.162 0 0 0
v -0.007 0.088 0.162 0 0 0
v -0.122 0.260 -0.115 0 0 0
v -0.122 0.260 0.115 0 0 0
v -0.122 0.088 -0.115 0 0 0
v -0.122 0.088 0.115 0 0 0
v -0.169 0.260 0.000 0 0 0
v -0.169 0.088 -0.000 0 0 0
v 0.287 0.177 0.000 0 0 0
v 0.287 0.260 0.000 0 0 0
v 0.203 0.260 -0.203 0 0 0
v 0.203 0.260 0.203 0 0 0
v 0.203 0.177 -0.203 0 0 0
v 0.203 0.177 0.203 0 0 0
v -0.000 0.260 -0.287 0 0 0
v -0.000 0.260 0.287 0 0 0
v -0.000 0.177 -0.287 0 0 0
v -0.000 0.177 0.287 0 0 0
v -0.203 0.260 -0.203 0 0 0
v -0.203 0.260 0.203 0 0 0
v -0.203 0.177 -0.203 0 0 0
v -0.203 0.177 0.203 0 0 0
v -0.287 0.260 0.000 0 0 0
v -0.287 0.177 0.000 0 0 0

# Normal Array
vn -0.649 0.000 0.761
vn -0.649 0.000 0.761
vn -1.000 0.000 0.000
vn -1.000 0.000 0.000
vn -1.000 0.000 0.000
vn -1.000 0.000 -0.000
vn 0.000 -0.000 -1.000
vn 0.000 -0.000 -1.000
vn 0.000 -0.000 -1.000
vn 0.000 -0.000 -1.000
vn -0.649 0.000 -0.761
vn -0.649 -0.000 -0.761
vn 0.000 -0.000 1.000
vn 0.000 -0.000 1.000
vn 0.000 -0.000 1.000
vn 0.000 -0.000 1.000
vn -0.000 1.000 0.000
vn 0.000 1.000 -0.000
vn 0.000 1.000 0.000
vn 0.000 1.000 0.000
vn 0.000 1.000 0.000
vn 0.000 1.000 0.000
vn 0.000 1.000 0.000
vn 0.000 1.000 0.000
vn 0.000 1.000 -0.000
vn 0.000 1.000 0.000
vn 0.000 1.000 0.000
vn 0.000 1.000 0.000
vn 0.000 1.000 -0.000
vn 0.000 1.000 -0.000
vn 0.000 1.000 0.000
vn 0.000 1.000 0.000
vn -0.000 1.000 0.000
vn 0.000 1.000 0.000
vn -0.000 1.000 0.000
vn -0.000 1.000 0.000
vn -0.000 1.000 -0.000
vn 0.000 1.000 0.000
vn 0.000 1.000 0.000
vn 0.000 1.000 -0.000
vn -0.000 1.000 -0.000
vn 0.000 1.000 -0.000
vn -0.000 1.000 0.000
vn -0.000 1.000 -0.000
vn 0.000 1.000 -0.000
vn 0.000 1.000 -0.000
vn 1.000 0.000 0.000
vn 1.000 0.000 -0.000
vn 1.000 -0.000 0.000
vn 1.000 -0.000 0.000
vn 0.000 1.000 0.000
vn 0.000 1.000 0.000
vn 0.677 0.000 0.736
vn 0.677 0.000 0.736
vn 0.677 0.000 -0.736
vn 0.677 0.000 -0.736
vn -0.924 -0.000 0.383
vn -0.924 0.000 -0.383
vn -0.924 0.000 0.383
vn -0.924 0.000 -0.383
vn -0.383 0.000 0.924
vn -0.383 0.000 -0.924
vn -0.383 0.000 0.924
vn -0.383 0.000 -0.924
vn 0.383 -0.000 0.924
vn 0.383 0.000 -0.924
vn 0.383 0.000 0.924
vn 0.383 0.000 -0.924
vn 0.924 0.000 0.383
vn 0.924 0.000 -0.383
vn 0.924 -0.000 0.383
vn 0.924 0.000 -0.383
vn 0.924 0.000 -0.383
vn 0.924 0.000 0.383
vn 0.924 0.000 -0.383
vn 0.924 0.000 0.383
vn 0.383 0.000 -0.924
vn 0.383 0.000 0.924
vn 0.383 0.000 -0.924
vn 0.383 0.000 0.924
vn -0.383 0.000 -0.924
vn -0.383 0.000 0.924
vn -0.383 0.000 -0.924
vn -0.383 0.000 0.924
vn -0.924 0.000 -0.383
vn -0.924 0.000 0.383
vn -0.924 0.000 -0.383
vn -0.924 0.000 0.383

# Facets
f 1//1 3//1 2//1
f 4//2 3//2 1//2
f 5//3 7//3 6//3
f 8//4 7//4 5//4
f 9//5 7//5 8//5
f 10//6 7//6 9//6
f 11//7 13//7 12//7
f 12//8 13//8 14//8
f 13//9 15//9 14//9
f 14//10 15//10 16//10
f 17//11 19//11 18//11
f 20//12 19//12 17//12
f 21//13 23//13 22//13
f 22//14 23//14 24//14
f 22//15 24//15 25//15
f 25//16 24//16 26//16
f 27//17 29//17 28//17
f 29//18 27//18 30//18
f 30//19 27//19 31//19
f 31//20 32//20 30//20
f 32//21 31//21 33//21
f 32//22 33//22 34//22
f 35//23 37//23 36//23
f 36//24 37//24 38//24
f 38//25 37//25 39//25
f 39//26 37//26 40//26
f 36//27 42//27 41//27
f 43//28 42//28 39//28
f 41//29 42//29 44//29
f 44//30 42//30 43//30
f 45//31 47//31 46//31
f 48//32 47//32 45//32
f 49//33 47//33 48//33
f 48//34 45//34 50//34
f 49//35 51//35 47//35
f 51//36 49//36 52//36
f 53//37 51//37 52//37
f 45//38 54//38 50//38
f 50//39 54//39 55//39
f 55//40 54//40 56//40
f 53//41 57//41 51//41
f 56//42 54//42 58//42
f 57//43 58//43 59//43
f 57//44 53//44 60//44
f 58//45 60//45 56//45
f 58//46 57//46 60//46
f 61//47 63//47 62//47
f 64//48 63//48 61//48
f 61//49 65//49 64//49
f 66//50 65//50 61//50
f 67//51 69//51 68//51
f 68//52 70//52 67//52
f 71//53 73//53 72//53
f 74//54 73//54 71//54
f 75//55 77//55 76//55
f 78//56 77//56 75//56
f 79//57 81//57 80//57
f 80//58 82//58 79//58
f 80//59 81//59 83//59
f 84//60 82//60 80//60
f 81//61 85//61 83//61
f 84//62 86//62 82//62
f 83//63 85//63 87//63
f 88//64 86//64 84//64
f 85//65 89//65 87//65
f 88//66 90//66 86//66
f 87//67 89//67 91//67
f 92//68 90//68 88//68
f 89//69 93//69 91//69
f 92//70 93//70 90//70
f 91//71 93//71 94//71
f 94//72 93//72 92//72
f 95//73 97//73 96//73
f 96//74 98//74 95//74
f 99//75 97//75 95//75
f 95//76 98//76 100//76
f 99//77 101//77 97//77
f 98//78 102//78 100//78
f 103//79 101//79 99//79
f 100//80 102//80 104//80
f 103//81 105//81 101//81
f 102//82 106//82 104//82
f 107//83 105//83 103//83
f 104//84 106//84 108//84
f 107//85 109//85 105//85
f 106//86 109//86 108//86
f 110//87 109//87 107//87
f 108//88 109//88 110//88

# Thank you for using Spin 3D

