# Created using Spin 3D

# Vertex Array 
v -0.050 0.090 0.204 0 0 0
v -0.000 0.090 0.204 0 0 0
v -0.050 0.090 0.174 0 0 0
v -0.046 0.090 0.157 0 0 0
v -0.036 0.090 0.142 0 0 0
v -0.021 0.090 0.132 0 0 0
v -0.003 0.090 0.128 0 0 0
v -0.000 0.090 0.128 0 0 0
v 0.003 0.090 0.128 0 0 0
v 0.021 0.090 0.132 0 0 0
v 0.036 0.090 0.142 0 0 0
v 0.046 0.090 0.157 0 0 0
v 0.050 0.090 0.174 0 0 0
v 0.050 0.090 0.204 0 0 0
v -0.098 0.105 0.378 0 0 0
v -0.098 0.105 0.280 0 0 0
v -0.050 0.105 0.280 0 0 0
v -0.050 0.105 0.378 0 0 0
v -0.000 0.105 0.280 0 0 0
v -0.000 0.105 0.378 0 0 0
v -0.050 0.105 0.174 0 0 0
v 0.050 0.105 0.378 0 0 0
v 0.050 0.105 0.280 0 0 0
v 0.112 0.105 0.280 0 0 0
v 0.112 0.105 0.378 0 0 0
v 0.050 0.105 0.174 0 0 0
v -0.000 0.105 0.128 0 0 0
v -0.003 0.105 0.128 0 0 0
v -0.021 0.105 0.132 0 0 0
v -0.036 0.105 0.142 0 0 0
v -0.046 0.105 0.157 0 0 0
v 0.003 0.105 0.128 0 0 0
v 0.036 0.105 0.142 0 0 0
v 0.021 0.105 0.132 0 0 0
v 0.046 0.105 0.157 0 0 0
v -0.098 0.057 0.280 0 0 0
v -0.050 0.057 0.280 0 0 0
v -0.050 0.105 0.280 0 0 0
v -0.098 0.105 0.280 0 0 0
v -0.098 0.057 0.280 0 0 0
v -0.098 0.057 0.378 0 0 0
v -0.050 0.057 0.378 0 0 0
v -0.050 0.057 0.280 0 0 0
v -0.000 0.057 0.280 0 0 0
v -0.000 0.057 0.378 0 0 0
v -0.050 0.057 0.174 0 0 0
v 0.050 0.057 0.378 0 0 0
v 0.050 0.057 0.280 0 0 0
v 0.112 0.057 0.280 0 0 0
v 0.112 0.057 0.378 0 0 0
v 0.050 0.057 0.174 0 0 0
v -0.000 0.057 0.128 0 0 0
v 0.003 0.057 0.128 0 0 0
v -0.003 0.057 0.128 0 0 0
v 0.046 0.057 0.157 0 0 0
v 0.021 0.057 0.132 0 0 0
v 0.036 0.057 0.142 0 0 0
v -0.021 0.057 0.132 0 0 0
v -0.046 0.057 0.157 0 0 0
v -0.036 0.057 0.142 0 0 0
v 0.112 0.105 0.280 0 0 0
v 0.050 0.105 0.280 0 0 0
v 0.050 0.057 0.280 0 0 0
v 0.112 0.057 0.280 0 0 0
v -0.050 0.070 0.174 0 0 0
v 0.003 0.070 0.204 0 0 0
v -0.050 0.070 0.204 0 0 0
v -0.046 0.070 0.157 0 0 0
v -0.036 0.070 0.142 0 0 0
v -0.021 0.070 0.132 0 0 0
v -0.003 0.070 0.128 0 0 0
v 0.003 0.070 0.128 0 0 0
v 0.050 0.070 0.174 0 0 0
v 0.050 0.070 0.204 0 0 0
v 0.003 0.070 0.128 0 0 0
v 0.046 0.070 0.157 0 0 0
v 0.036 0.070 0.142 0 0 0
v 0.021 0.070 0.132 0 0 0
v -0.050 0.090 0.204 0 0 0
v -0.050 0.070 0.204 0 0 0
v -0.000 0.090 0.204 0 0 0
v 0.003 0.070 0.204 0 0 0
v 0.050 0.090 0.204 0 0 0
v 0.050 0.070 0.204 0 0 0
v -0.098 0.105 0.378 0 0 0
v -0.098 0.100 0.378 0 0 0
v -0.098 0.105 0.280 0 0 0
v -0.098 0.070 0.378 0 0 0
v -0.098 0.057 0.280 0 0 0
v -0.098 0.057 0.378 0 0 0
v -0.098 0.057 0.378 0 0 0
v -0.098 0.070 0.378 0 0 0
v -0.050 0.057 0.378 0 0 0
v -0.050 0.070 0.378 0 0 0
v -0.098 0.100 0.378 0 0 0
v -0.000 0.057 0.378 0 0 0
v -0.050 0.100 0.378 0 0 0
v -0.000 0.100 0.378 0 0 0
v -0.098 0.105 0.378 0 0 0
v -0.050 0.105 0.378 0 0 0
v -0.000 0.105 0.378 0 0 0
v 0.050 0.105 0.378 0 0 0
v -0.000 0.070 0.378 0 0 0
v 0.050 0.070 0.378 0 0 0
v 0.050 0.057 0.378 0 0 0
v 0.112 0.057 0.378 0 0 0
v 0.112 0.070 0.378 0 0 0
v 0.050 0.100 0.378 0 0 0
v 0.112 0.100 0.378 0 0 0
v 0.112 0.105 0.378 0 0 0
v 0.112 0.105 0.378 0 0 0
v 0.112 0.105 0.280 0 0 0
v 0.112 0.100 0.378 0 0 0
v 0.112 0.070 0.378 0 0 0
v 0.112 0.057 0.280 0 0 0
v 0.112 0.057 0.378 0 0 0
v -0.050 0.105 0.280 0 0 0
v -0.050 0.090 0.204 0 0 0
v -0.050 0.105 0.174 0 0 0
v -0.050 0.057 0.280 0 0 0
v -0.050 0.090 0.174 0 0 0
v -0.050 0.070 0.204 0 0 0
v -0.046 0.105 0.157 0 0 0
v -0.050 0.057 0.174 0 0 0
v -0.046 0.090 0.157 0 0 0
v -0.050 0.070 0.174 0 0 0
v -0.036 0.105 0.142 0 0 0
v -0.046 0.057 0.157 0 0 0
v -0.036 0.090 0.142 0 0 0
v -0.046 0.070 0.157 0 0 0
v -0.021 0.105 0.132 0 0 0
v -0.036 0.057 0.142 0 0 0
v -0.021 0.090 0.132 0 0 0
v -0.036 0.070 0.142 0 0 0
v -0.003 0.105 0.128 0 0 0
v -0.021 0.057 0.132 0 0 0
v -0.003 0.090 0.128 0 0 0
v -0.021 0.070 0.132 0 0 0
v -0.003 0.057 0.128 0 0 0
v -0.003 0.070 0.128 0 0 0
v -0.000 0.057 0.128 0 0 0
v 0.003 0.070 0.128 0 0 0
v -0.000 0.105 0.128 0 0 0
v -0.000 0.090 0.128 0 0 0
v 0.003 0.090 0.128 0 0 0
v 0.003 0.105 0.128 0 0 0
v 0.021 0.090 0.132 0 0 0
v 0.021 0.105 0.132 0 0 0
v 0.036 0.090 0.142 0 0 0
v 0.036 0.105 0.142 0 0 0
v 0.046 0.090 0.157 0 0 0
v 0.046 0.105 0.157 0 0 0
v 0.050 0.090 0.174 0 0 0
v 0.050 0.105 0.174 0 0 0
v 0.050 0.090 0.204 0 0 0
v 0.050 0.105 0.280 0 0 0
v 0.050 0.057 0.280 0 0 0
v 0.050 0.070 0.204 0 0 0
v 0.050 0.057 0.174 0 0 0
v 0.050 0.070 0.174 0 0 0
v 0.046 0.057 0.157 0 0 0
v 0.046 0.070 0.157 0 0 0
v 0.036 0.057 0.142 0 0 0
v 0.036 0.070 0.142 0 0 0
v 0.021 0.057 0.132 0 0 0
v 0.021 0.070 0.132 0 0 0
v 0.003 0.057 0.128 0 0 0
v 0.003 0.070 0.128 0 0 0

# Normal Array
vn 0.000 -1.000 0.000
vn 0.000 -1.000 0.000
vn 0.000 -1.000 -0.000
vn -0.000 -1.000 -0.000
vn -0.000 -1.000 -0.000
vn 0.000 -1.000 -0.000
vn -0.000 -1.000 -0.000
vn 0.000 -1.000 -0.000
vn 0.000 -1.000 -0.000
vn -0.000 -1.000 -0.000
vn 0.000 -1.000 0.000
vn -0.000 -1.000 -0.000
vn 0.000 1.000 -0.000
vn 0.000 1.000 -0.000
vn 0.000 1.000 -0.000
vn 0.000 1.000 -0.000
vn 0.000 1.000 -0.000
vn -0.000 1.000 -0.000
vn -0.000 1.000 -0.000
vn -0.000 1.000 -0.000
vn -0.000 1.000 -0.000
vn -0.000 1.000 -0.000
vn -0.000 1.000 -0.000
vn 0.000 1.000 -0.000
vn 0.000 1.000 0.000
vn 0.000 1.000 0.000
vn 0.000 1.000 0.000
vn -0.000 1.000 -0.000
vn 0.000 1.000 -0.000
vn 0.000 1.000 -0.000
vn 0.000 1.000 -0.000
vn 0.000 1.000 -0.000
vn 0.000 0.000 -1.000
vn 0.000 0.000 -1.000
vn -0.000 -1.000 0.000
vn -0.000 -1.000 0.000
vn -0.000 -1.000 0.000
vn -0.000 -1.000 0.000
vn -0.000 -1.000 0.000
vn 0.000 -1.000 0.000
vn 0.000 -1.000 0.000
vn 0.000 -1.000 0.000
vn 0.000 -1.000 0.000
vn 0.000 -1.000 0.000
vn -0.000 -1.000 0.000
vn 0.000 -1.000 0.000
vn 0.000 -1.000 0.000
vn 0.000 -1.000 0.000
vn -0.000 -1.000 0.000
vn 0.000 -1.000 0.000
vn -0.000 -1.000 0.000
vn 0.000 -1.000 0.000
vn 0.000 -1.000 0.000
vn 0.000 -1.000 0.000
vn -0.000 0.000 -1.000
vn -0.000 0.000 -1.000
vn 0.000 1.000 -0.000
vn 0.000 1.000 -0.000
vn -0.000 1.000 0.000
vn 0.000 1.000 0.000
vn 0.000 1.000 0.000
vn -0.000 1.000 0.000
vn 0.000 1.000 0.000
vn 0.000 1.000 0.000
vn 0.000 -1.000 -0.000
vn 0.000 1.000 -0.000
vn -0.000 1.000 0.000
vn 0.000 1.000 -0.000
vn 0.000 0.000 -1.000
vn 0.000 0.000 -1.000
vn -0.000 -0.000 -1.000
vn -0.000 0.000 -1.000
vn -1.000 -0.000 -0.000
vn -1.000 -0.000 -0.000
vn -1.000 0.000 -0.000
vn -1.000 0.000 -0.000
vn -0.000 0.000 1.000
vn -0.000 0.000 1.000
vn -0.000 0.000 1.000
vn -0.000 0.000 1.000
vn -0.000 0.000 1.000
vn -0.000 0.000 1.000
vn -0.000 0.000 1.000
vn -0.000 0.000 1.000
vn -0.000 0.000 1.000
vn -0.000 0.000 1.000
vn 0.000 -0.000 1.000
vn -0.000 0.000 1.000
vn -0.000 0.000 1.000
vn 0.000 -0.000 1.000
vn 0.000 0.000 1.000
vn 0.000 -0.000 1.000
vn 0.000 0.000 1.000
vn 0.000 0.000 1.000
vn 0.000 0.000 1.000
vn 0.000 0.000 1.000
vn 0.000 -0.000 1.000
vn 0.000 0.000 1.000
vn 0.000 0.000 1.000
vn 0.000 0.000 1.000
vn 1.000 0.000 -0.000
vn 1.000 0.000 -0.000
vn 1.000 0.000 -0.000
vn 1.000 0.000 -0.000
vn -1.000 -0.000 -0.000
vn -1.000 0.000 -0.000
vn -1.000 -0.000 -0.000
vn -1.000 0.000 -0.000
vn -0.981 -0.000 -0.195
vn -1.000 0.000 -0.000
vn -0.981 -0.000 -0.195
vn -1.000 0.000 -0.000
vn -0.831 -0.000 -0.556
vn -0.981 0.000 -0.195
vn -0.831 -0.000 -0.556
vn -0.981 0.000 -0.195
vn -0.556 -0.000 -0.832
vn -0.831 0.000 -0.556
vn -0.556 -0.000 -0.831
vn -0.831 0.000 -0.556
vn -0.195 -0.000 -0.981
vn -0.556 0.000 -0.832
vn -0.195 0.000 -0.981
vn -0.556 -0.000 -0.831
vn -0.195 -0.000 -0.981
vn -0.195 -0.000 -0.981
vn 0.000 -0.000 -1.000
vn 0.000 -0.000 -1.000
vn 0.000 0.000 -1.000
vn 0.000 0.000 -1.000
vn -0.000 -0.000 -1.000
vn -0.000 0.000 -1.000
vn 0.195 -0.000 -0.981
vn 0.195 -0.000 -0.981
vn 0.556 -0.000 -0.831
vn 0.556 -0.000 -0.832
vn 0.831 -0.000 -0.556
vn 0.831 -0.000 -0.556
vn 0.981 -0.000 -0.195
vn 0.981 -0.000 -0.195
vn 1.000 -0.000 0.000
vn 1.000 -0.000 -0.000
vn 1.000 0.000 -0.000
vn 1.000 0.000 -0.000
vn 1.000 0.000 -0.000
vn 1.000 0.000 0.000
vn 0.981 0.000 -0.195
vn 0.981 0.000 -0.195
vn 0.831 0.000 -0.556
vn 0.831 0.000 -0.556
vn 0.556 0.000 -0.832
vn 0.556 0.000 -0.831
vn 0.195 0.000 -0.981
vn 0.195 0.000 -0.981
vn 0.000 -0.000 1.000
vn -0.000 0.000 -1.000

# Facets
f 1//1 3//1 2//1
f 3//2 4//2 2//2
f 4//3 5//3 2//3
f 5//4 6//4 2//4
f 6//5 7//5 2//5
f 8//6 2//6 7//6
f 8//7 9//7 2//7
f 9//8 10//8 2//8
f 10//9 11//9 2//9
f 11//10 12//10 2//10
f 12//11 13//11 2//11
f 14//12 2//12 13//12
f 15//13 17//13 16//13
f 18//14 17//14 15//14
f 18//15 19//15 17//15
f 20//16 19//16 18//16
f 17//17 19//17 21//17
f 22//18 19//18 20//18
f 23//19 19//19 22//19
f 23//20 22//20 24//20
f 24//21 22//21 25//21
f 23//22 26//22 19//22
f 19//23 27//23 21//23
f 27//24 19//24 26//24
f 27//25 28//25 21//25
f 28//26 29//26 21//26
f 29//27 30//27 21//27
f 31//28 21//28 30//28
f 32//29 27//29 26//29
f 33//30 32//30 26//30
f 34//31 32//31 33//31
f 35//32 33//32 26//32
f 36//33 38//33 37//33
f 39//34 38//34 36//34
f 40//35 42//35 41//35
f 43//36 42//36 40//36
f 43//37 44//37 42//37
f 42//38 44//38 45//38
f 44//39 43//39 46//39
f 44//40 47//40 45//40
f 48//41 47//41 44//41
f 49//42 47//42 48//42
f 50//43 47//43 49//43
f 48//44 44//44 51//44
f 44//45 52//45 51//45
f 52//46 44//46 46//46
f 51//47 52//47 53//47
f 54//48 52//48 46//48
f 55//49 51//49 53//49
f 53//50 56//50 55//50
f 57//51 55//51 56//51
f 58//52 54//52 46//52
f 46//53 59//53 58//53
f 60//54 58//54 59//54
f 61//55 63//55 62//55
f 64//56 63//56 61//56
f 65//57 67//57 66//57
f 68//58 65//58 66//58
f 69//59 68//59 66//59
f 70//60 69//60 66//60
f 71//61 70//61 66//61
f 72//62 71//62 66//62
f 66//63 73//63 72//63
f 74//64 73//64 66//64
f 73//65 75//65 72//65
f 73//66 76//66 75//66
f 76//67 77//67 75//67
f 78//68 75//68 77//68
f 79//69 81//69 80//69
f 80//70 81//70 82//70
f 83//71 82//71 81//71
f 84//72 82//72 83//72
f 85//73 87//73 86//73
f 88//74 86//74 87//74
f 88//75 87//75 89//75
f 90//76 88//76 89//76
f 91//77 93//77 92//77
f 92//78 93//78 94//78
f 92//79 94//79 95//79
f 93//80 96//80 94//80
f 95//81 94//81 97//81
f 97//82 94//82 98//82
f 95//83 97//83 99//83
f 99//84 97//84 100//84
f 97//85 98//85 100//85
f 100//86 98//86 101//86
f 98//87 102//87 101//87
f 94//88 96//88 103//88
f 98//89 94//89 103//89
f 96//90 104//90 103//90
f 104//91 98//91 103//91
f 105//92 104//92 96//92
f 106//93 104//93 105//93
f 107//94 104//94 106//94
f 108//95 98//95 104//95
f 107//96 108//96 104//96
f 108//97 102//97 98//97
f 109//98 108//98 107//98
f 109//99 102//99 108//99
f 110//100 102//100 109//100
f 111//101 113//101 112//101
f 113//102 114//102 112//102
f 115//103 112//103 114//103
f 116//104 115//104 114//104
f 117//105 119//105 118//105
f 120//106 117//106 118//106
f 121//107 118//107 119//107
f 122//108 120//108 118//108
f 123//109 121//109 119//109
f 124//110 120//110 122//110
f 125//111 121//111 123//111
f 126//112 124//112 122//112
f 127//113 125//113 123//113
f 124//114 126//114 128//114
f 129//115 125//115 127//115
f 128//116 126//116 130//116
f 131//117 129//117 127//117
f 128//118 130//118 132//118
f 133//119 129//119 131//119
f 132//120 130//120 134//120
f 135//121 133//121 131//121
f 132//122 134//122 136//122
f 137//123 133//123 135//123
f 136//124 134//124 138//124
f 136//125 138//125 139//125
f 139//126 138//126 140//126
f 140//127 141//127 139//127
f 142//128 141//128 140//128
f 135//129 143//129 137//129
f 137//130 143//130 144//130
f 143//131 145//131 144//131
f 146//132 145//132 143//132
f 145//133 146//133 147//133
f 147//134 146//134 148//134
f 147//135 148//135 149//135
f 149//136 148//136 150//136
f 149//137 150//137 151//137
f 151//138 150//138 152//138
f 151//139 152//139 153//139
f 153//140 152//140 154//140
f 153//141 154//141 155//141
f 154//142 156//142 155//142
f 156//143 157//143 155//143
f 158//144 155//144 157//144
f 159//145 158//145 157//145
f 160//146 158//146 159//146
f 159//147 161//147 160//147
f 160//148 161//148 162//148
f 161//149 163//149 162//149
f 162//150 163//150 164//150
f 163//151 165//151 164//151
f 164//152 165//152 166//152
f 165//153 167//153 166//153
f 166//154 167//154 168//154
f 168//155 167//155 142//155
f 142//156 167//156 141//156

# Thank you for using Spin 3D

