# Created using Spin 3D

# Vertex Array 
v 0.000 0.350 0.000
v 0.000 0.350 0.500
v -0.057 0.339 0.500
v 0.057 0.339 0.500
v -0.057 0.339 0.057
v -0.106 0.306 0.500
v -0.106 0.306 0.106
v -0.139 0.257 0.500
v -0.139 0.257 0.139
v -0.150 0.200 0.500
v -0.150 0.200 0.150
v -0.139 0.143 0.500
v -0.138 0.143 0.139
v -0.106 0.094 0.500
v -0.106 0.094 0.106
v -0.057 0.061 0.500
v -0.057 0.061 0.057
v 0.000 0.050 0.500
v -0.000 0.050 0.000
v 0.000 0.050 -0.500
v -0.057 0.061 -0.057
v -0.057 0.061 -0.500
v -0.106 0.094 -0.106
v -0.106 0.094 -0.500
v -0.138 0.143 -0.139
v -0.139 0.143 -0.500
v -0.150 0.200 -0.150
v -0.150 0.200 -0.500
v -0.139 0.257 -0.139
v -0.139 0.257 -0.500
v -0.106 0.306 -0.106
v -0.106 0.306 -0.500
v -0.057 0.339 -0.057
v -0.057 0.339 -0.500
v 0.000 0.350 -0.500
v 0.057 0.339 -0.500
v 0.057 0.339 -0.057
v 0.106 0.306 -0.500
v 0.106 0.306 -0.106
v 0.139 0.257 -0.500
v 0.139 0.257 -0.139
v 0.150 0.200 -0.500
v 0.150 0.200 -0.150
v 0.139 0.143 -0.500
v 0.138 0.143 -0.139
v 0.106 0.094 -0.500
v 0.106 0.094 -0.106
v 0.057 0.061 -0.500
v 0.057 0.061 -0.057
v 0.000 0.050 0.000
v 0.057 0.061 0.057
v 0.057 0.061 0.500
v 0.106 0.094 0.106
v 0.106 0.094 0.500
v 0.138 0.143 0.139
v 0.139 0.143 0.500
v 0.150 0.200 0.150
v 0.150 0.200 0.500
v 0.139 0.257 0.139
v 0.139 0.257 0.500
v 0.106 0.306 0.106
v 0.106 0.306 0.500
v 0.057 0.339 0.057
v 0.057 0.339 -0.057
v 0.500 0.339 -0.057
v 0.500 0.306 -0.106
v 0.106 0.306 -0.106
v 0.500 0.257 -0.139
v 0.139 0.257 -0.139
v 0.500 0.200 -0.150
v 0.150 0.200 -0.150
v 0.500 0.143 -0.139
v 0.138 0.143 -0.139
v 0.500 0.094 -0.106
v 0.106 0.094 -0.106
v 0.500 0.061 -0.057
v 0.057 0.061 -0.057
v 0.500 0.050 0.000
v 0.000 0.050 0.000
v 0.500 0.061 0.057
v 0.057 0.061 0.057
v 0.500 0.094 0.106
v 0.106 0.094 0.106
v 0.500 0.143 0.139
v 0.138 0.143 0.139
v 0.500 0.200 0.150
v 0.150 0.200 0.150
v 0.500 0.257 0.139
v 0.139 0.257 0.139
v 0.500 0.306 0.106
v 0.106 0.306 0.106
v 0.500 0.339 0.057
v 0.057 0.339 0.057
v 0.500 0.350 0.000
v -0.500 0.350 0.000
v -0.500 0.339 -0.057
v -0.057 0.339 -0.057
v -0.057 0.339 0.057
v -0.500 0.306 -0.106
v -0.500 0.339 0.057
v -0.106 0.306 -0.106
v -0.106 0.306 0.106
v -0.500 0.257 -0.139
v -0.500 0.306 0.106
v -0.139 0.257 -0.139
v -0.139 0.257 0.139
v -0.500 0.200 -0.150
v -0.500 0.257 0.139
v -0.150 0.200 -0.150
v -0.150 0.200 0.150
v -0.500 0.143 -0.139
v -0.500 0.200 0.150
v -0.138 0.143 -0.139
v -0.138 0.143 0.139
v -0.500 0.094 -0.106
v -0.500 0.143 0.139
v -0.106 0.094 -0.106
v -0.106 0.094 0.106
v -0.500 0.061 -0.057
v -0.500 0.094 0.106
v -0.057 0.061 -0.057
v -0.057 0.061 0.057
v -0.500 0.050 0.000
v -0.500 0.061 0.057
v -0.000 0.050 0.000

# Normal Array
vn -0.195 0.981 0.000
vn 0.195 0.981 0.000
vn -0.195 0.981 -0.000
vn -0.556 0.831 -0.000
vn -0.554 0.833 0.000
vn -0.831 0.556 0.000
vn -0.833 0.553 -0.000
vn -0.981 0.195 -0.000
vn -0.981 0.196 0.000
vn -0.981 -0.195 0.000
vn -0.980 -0.201 -0.001
vn -0.831 -0.556 -0.001
vn -0.835 -0.551 0.000
vn -0.556 -0.831 0.000
vn -0.554 -0.832 -0.000
vn -0.195 -0.981 -0.000
vn -0.196 -0.981 0.000
vn 0.000 -1.000 0.000
vn -0.195 -0.981 -0.000
vn -0.195 -0.981 0.000
vn -0.554 -0.832 0.000
vn -0.556 -0.831 -0.000
vn -0.836 -0.549 -0.000
vn -0.831 -0.556 0.001
vn -0.980 -0.201 0.001
vn -0.981 -0.195 0.000
vn -0.981 0.195 0.000
vn -0.981 0.195 0.000
vn -0.831 0.556 0.000
vn -0.831 0.556 0.000
vn -0.556 0.831 0.000
vn -0.556 0.831 0.000
vn -0.195 0.981 0.000
vn -0.195 0.981 0.000
vn 0.195 0.981 0.000
vn 0.195 0.981 0.000
vn 0.556 0.831 0.000
vn 0.556 0.831 0.000
vn 0.831 0.556 0.000
vn 0.831 0.556 0.000
vn 0.981 0.195 0.000
vn 0.981 0.195 0.000
vn 0.981 -0.195 0.000
vn 0.980 -0.201 0.001
vn 0.831 -0.556 0.001
vn 0.836 -0.549 -0.000
vn 0.556 -0.831 -0.000
vn 0.554 -0.832 0.000
vn 0.195 -0.981 0.000
vn 0.195 -0.981 -0.000
vn -0.000 -1.000 0.000
vn 0.196 -0.981 0.000
vn 0.195 -0.981 -0.000
vn 0.554 -0.832 -0.000
vn 0.556 -0.831 0.000
vn 0.835 -0.551 0.000
vn 0.831 -0.556 -0.001
vn 0.980 -0.201 -0.001
vn 0.981 -0.195 0.000
vn 0.981 0.196 0.000
vn 0.981 0.195 -0.000
vn 0.833 0.553 -0.000
vn 0.831 0.556 0.000
vn 0.554 0.833 0.000
vn 0.556 0.831 -0.000
vn 0.195 0.981 -0.000
vn -0.000 0.981 -0.196
vn -0.000 0.831 -0.556
vn -0.000 0.833 -0.554
vn -0.000 0.556 -0.831
vn -0.000 0.556 -0.831
vn -0.000 0.195 -0.981
vn 0.000 0.196 -0.981
vn 0.000 -0.195 -0.981
vn 0.000 -0.195 -0.981
vn 0.000 -0.556 -0.831
vn 0.000 -0.556 -0.831
vn 0.000 -0.831 -0.556
vn -0.000 -0.832 -0.554
vn -0.000 -0.981 -0.195
vn 0.000 -0.981 -0.196
vn 0.000 -0.981 0.195
vn 0.000 -0.981 0.195
vn 0.000 -0.831 0.556
vn 0.000 -0.832 0.555
vn 0.000 -0.556 0.831
vn 0.000 -0.555 0.832
vn -0.000 -0.195 0.981
vn -0.000 -0.195 0.981
vn -0.000 0.195 0.981
vn -0.000 0.195 0.981
vn -0.000 0.556 0.831
vn -0.000 0.556 0.831
vn -0.000 0.831 0.556
vn -0.000 0.831 0.556
vn -0.000 0.981 0.195
vn -0.000 0.981 0.195
vn -0.000 0.981 -0.195
vn 0.000 0.981 -0.195
vn 0.000 0.981 -0.196
vn 0.000 0.981 0.195
vn 0.000 0.831 -0.556
vn 0.000 0.981 0.195
vn 0.000 0.833 -0.554
vn 0.000 0.831 0.556
vn 0.000 0.556 -0.831
vn 0.000 0.831 0.556
vn 0.000 0.556 -0.831
vn 0.000 0.556 0.831
vn 0.000 0.195 -0.981
vn 0.000 0.556 0.831
vn -0.000 0.196 -0.981
vn 0.000 0.195 0.981
vn -0.000 -0.195 -0.981
vn 0.000 0.195 0.981
vn -0.000 -0.195 -0.981
vn 0.000 -0.195 0.981
vn -0.000 -0.556 -0.831
vn 0.000 -0.195 0.981
vn -0.000 -0.556 -0.831
vn -0.000 -0.555 0.832
vn -0.000 -0.831 -0.556
vn -0.000 -0.556 0.831
vn 0.000 -0.832 -0.554
vn -0.000 -0.832 0.555
vn 0.000 -0.981 -0.195
vn -0.000 -0.831 0.556
vn -0.000 -0.981 -0.196
vn -0.000 -0.981 0.195
vn -0.000 -0.981 0.195

# Facets
f 1//1 3//1 2//1
f 2//2 4//2 1//2
f 5//3 3//3 1//3
f 5//4 6//4 3//4
f 7//5 6//5 5//5
f 7//6 8//6 6//6
f 9//7 8//7 7//7
f 9//8 10//8 8//8
f 11//9 10//9 9//9
f 11//10 12//10 10//10
f 13//11 12//11 11//11
f 13//12 14//12 12//12
f 15//13 14//13 13//13
f 15//14 16//14 14//14
f 17//15 16//15 15//15
f 17//16 18//16 16//16
f 19//17 18//17 17//17
f 20//18 18//18 19//18
f 21//19 20//19 19//19
f 22//20 20//20 21//20
f 23//21 22//21 21//21
f 24//22 22//22 23//22
f 25//23 24//23 23//23
f 26//24 24//24 25//24
f 27//25 26//25 25//25
f 28//26 26//26 27//26
f 29//27 28//27 27//27
f 30//28 28//28 29//28
f 31//29 30//29 29//29
f 32//30 30//30 31//30
f 33//31 32//31 31//31
f 34//32 32//32 33//32
f 1//33 34//33 33//33
f 35//34 34//34 1//34
f 1//35 36//35 35//35
f 37//36 36//36 1//36
f 37//37 38//37 36//37
f 39//38 38//38 37//38
f 39//39 40//39 38//39
f 41//40 40//40 39//40
f 41//41 42//41 40//41
f 43//42 42//42 41//42
f 43//43 44//43 42//43
f 45//44 44//44 43//44
f 45//45 46//45 44//45
f 47//46 46//46 45//46
f 47//47 48//47 46//47
f 49//48 48//48 47//48
f 49//49 20//49 48//49
f 50//50 20//50 49//50
f 50//51 18//51 20//51
f 51//52 18//52 50//52
f 52//53 18//53 51//53
f 53//54 52//54 51//54
f 54//55 52//55 53//55
f 55//56 54//56 53//56
f 56//57 54//57 55//57
f 57//58 56//58 55//58
f 58//59 56//59 57//59
f 59//60 58//60 57//60
f 60//61 58//61 59//61
f 61//62 60//62 59//62
f 62//63 60//63 61//63
f 63//64 62//64 61//64
f 4//65 62//65 63//65
f 1//66 4//66 63//66
f 1//67 65//67 64//67
f 65//68 66//68 64//68
f 64//69 66//69 67//69
f 66//70 68//70 67//70
f 67//71 68//71 69//71
f 68//72 70//72 69//72
f 69//73 70//73 71//73
f 70//74 72//74 71//74
f 71//75 72//75 73//75
f 72//76 74//76 73//76
f 73//77 74//77 75//77
f 74//78 76//78 75//78
f 75//79 76//79 77//79
f 76//80 78//80 77//80
f 77//81 78//81 79//81
f 78//82 80//82 79//82
f 79//83 80//83 81//83
f 80//84 82//84 81//84
f 81//85 82//85 83//85
f 82//86 84//86 83//86
f 83//87 84//87 85//87
f 84//88 86//88 85//88
f 85//89 86//89 87//89
f 86//90 88//90 87//90
f 87//91 88//91 89//91
f 88//92 90//92 89//92
f 89//93 90//93 91//93
f 90//94 92//94 91//94
f 91//95 92//95 93//95
f 92//96 94//96 93//96
f 93//97 94//97 1//97
f 94//98 65//98 1//98
f 1//99 96//99 95//99
f 97//100 96//100 1//100
f 1//101 95//101 98//101
f 97//102 99//102 96//102
f 98//103 95//103 100//103
f 101//104 99//104 97//104
f 98//105 100//105 102//105
f 101//106 103//106 99//106
f 102//107 100//107 104//107
f 105//108 103//108 101//108
f 102//109 104//109 106//109
f 105//110 107//110 103//110
f 106//111 104//111 108//111
f 109//112 107//112 105//112
f 106//113 108//113 110//113
f 109//114 111//114 107//114
f 110//115 108//115 112//115
f 113//116 111//116 109//116
f 110//117 112//117 114//117
f 113//118 115//118 111//118
f 114//119 112//119 116//119
f 117//120 115//120 113//120
f 114//121 116//121 118//121
f 117//122 119//122 115//122
f 118//123 116//123 120//123
f 121//124 119//124 117//124
f 118//125 120//125 122//125
f 121//126 123//126 119//126
f 122//127 120//127 124//127
f 125//128 123//128 121//128
f 125//129 124//129 123//129
f 122//130 124//130 125//130

# Thank you for using Spin 3D

