# Created using Spin 3D

# Vertex Array 
v 0.513 0.188 -0.271 0 0 0
v 0.508 0.188 -0.273 0 0 0
v 0.492 0.188 -0.272 0 0 0
v 0.487 0.188 -0.270 0 0 0
v 0.515 0.188 -0.266 0 0 0
v 0.485 0.188 -0.266 0 0 0
v 0.515 0.188 -0.143 0 0 0
v 0.485 0.188 -0.143 0 0 0
v 0.515 0.188 -0.143 0 0 0
v 0.515 0.211 -0.143 0 0 0
v 0.515 0.188 -0.266 0 0 0
v 0.515 0.211 -0.266 0 0 0
v 0.513 0.211 -0.271 0 0 0
v 0.513 0.188 -0.271 0 0 0
v 0.508 0.211 -0.273 0 0 0
v 0.508 0.188 -0.273 0 0 0
v 0.492 0.188 -0.272 0 0 0
v 0.492 0.211 -0.272 0 0 0
v 0.487 0.211 -0.270 0 0 0
v 0.487 0.188 -0.270 0 0 0
v 0.485 0.211 -0.266 0 0 0
v 0.485 0.188 -0.266 0 0 0
v 0.485 0.188 -0.143 0 0 0
v 0.485 0.211 -0.143 0 0 0
v 0.492 0.211 -0.272 0 0 0
v 0.508 0.211 -0.273 0 0 0
v 0.513 0.211 -0.271 0 0 0
v 0.487 0.211 -0.270 0 0 0
v 0.515 0.211 -0.266 0 0 0
v 0.485 0.211 -0.266 0 0 0
v 0.515 0.211 -0.143 0 0 0
v 0.485 0.211 -0.143 0 0 0
v 0.493 -2.001 -0.269 0 0 0
v 0.507 -2.001 -0.269 0 0 0
v 0.513 -2.001 -0.260 0 0 0
v 0.487 -2.001 -0.260 0 0 0
v 0.507 -2.001 -0.250 0 0 0
v 0.493 -2.001 -0.250 0 0 0
v 0.493 -1.001 -0.269 0 0 0
v 0.507 -1.001 -0.269 0 0 0
v 0.513 -1.001 -0.260 0 0 0
v 0.487 -1.001 -0.260 0 0 0
v 0.507 -1.001 -0.250 0 0 0
v 0.493 -1.001 -0.250 0 0 0
v 0.515 0.188 0.143 0 0 0
v 0.485 0.188 0.143 0 0 0
v 0.485 0.188 0.266 0 0 0
v 0.515 0.188 0.266 0 0 0
v 0.487 0.188 0.270 0 0 0
v 0.513 0.188 0.271 0 0 0
v 0.492 0.188 0.272 0 0 0
v 0.508 0.188 0.273 0 0 0
v 0.515 0.211 0.143 0 0 0
v 0.515 0.188 0.143 0 0 0
v 0.515 0.188 0.266 0 0 0
v 0.515 0.211 0.266 0 0 0
v 0.513 0.211 0.271 0 0 0
v 0.513 0.188 0.271 0 0 0
v 0.508 0.211 0.273 0 0 0
v 0.508 0.188 0.273 0 0 0
v 0.492 0.188 0.272 0 0 0
v 0.492 0.211 0.272 0 0 0
v 0.487 0.211 0.270 0 0 0
v 0.487 0.188 0.270 0 0 0
v 0.485 0.211 0.266 0 0 0
v 0.485 0.188 0.266 0 0 0
v 0.485 0.188 0.143 0 0 0
v 0.485 0.211 0.143 0 0 0
v 0.485 0.211 0.266 0 0 0
v 0.485 0.211 0.143 0 0 0
v 0.515 0.211 0.143 0 0 0
v 0.515 0.211 0.266 0 0 0
v 0.487 0.211 0.270 0 0 0
v 0.513 0.211 0.271 0 0 0
v 0.492 0.211 0.272 0 0 0
v 0.508 0.211 0.273 0 0 0
v 0.493 -2.001 0.250 0 0 0
v 0.507 -2.001 0.250 0 0 0
v 0.513 -2.001 0.260 0 0 0
v 0.487 -2.001 0.260 0 0 0
v 0.507 -2.001 0.269 0 0 0
v 0.493 -2.001 0.269 0 0 0
v 0.493 -1.001 0.250 0 0 0
v 0.507 -1.001 0.250 0 0 0
v 0.513 -1.001 0.260 0 0 0
v 0.487 -1.001 0.260 0 0 0
v 0.507 -1.001 0.269 0 0 0
v 0.493 -1.001 0.269 0 0 0
v 0.493 0.190 0.250 0 0 0
v 0.487 0.190 0.260 0 0 0
v 0.487 -1.001 0.260 0 0 0
v 0.493 0.190 0.269 0 0 0
v 0.493 -1.001 0.250 0 0 0
v 0.507 0.190 0.250 0 0 0
v 0.493 -1.001 0.269 0 0 0
v 0.507 0.190 0.269 0 0 0
v 0.507 -1.001 0.250 0 0 0
v 0.513 0.190 0.260 0 0 0
v 0.487 -2.001 0.260 0 0 0
v 0.507 -1.001 0.269 0 0 0
v 0.513 -1.001 0.260 0 0 0
v 0.493 -2.001 0.250 0 0 0
v 0.493 -2.001 0.269 0 0 0
v 0.507 -2.001 0.269 0 0 0
v 0.507 -2.001 0.250 0 0 0
v 0.487 -3.007 0.260 0 0 0
v 0.493 -3.007 0.269 0 0 0
v 0.493 -3.007 0.250 0 0 0
v 0.507 -3.007 0.269 0 0 0
v 0.507 -3.007 0.250 0 0 0
v 0.513 -2.001 0.260 0 0 0
v 0.513 -3.007 0.260 0 0 0
v 0.487 0.190 -0.260 0 0 0
v 0.493 0.190 -0.250 0 0 0
v 0.487 -1.001 -0.260 0 0 0
v 0.493 0.190 -0.269 0 0 0
v 0.493 -1.001 -0.250 0 0 0
v 0.507 0.190 -0.250 0 0 0
v 0.493 -1.001 -0.269 0 0 0
v 0.507 0.190 -0.269 0 0 0
v 0.507 -1.001 -0.250 0 0 0
v 0.513 0.190 -0.260 0 0 0
v 0.487 -2.001 -0.260 0 0 0
v 0.507 -1.001 -0.269 0 0 0
v 0.513 -1.001 -0.260 0 0 0
v 0.493 -2.001 -0.250 0 0 0
v 0.493 -2.001 -0.269 0 0 0
v 0.507 -2.001 -0.269 0 0 0
v 0.507 -2.001 -0.250 0 0 0
v 0.487 -3.007 -0.260 0 0 0
v 0.493 -3.007 -0.269 0 0 0
v 0.493 -3.007 -0.250 0 0 0
v 0.507 -3.007 -0.269 0 0 0
v 0.507 -3.007 -0.250 0 0 0
v 0.513 -2.001 -0.260 0 0 0
v 0.513 -3.007 -0.260 0 0 0

# Normal Array
vn 0.000 -1.000 0.000
vn 0.000 -1.000 0.000
vn 0.000 -1.000 0.000
vn 0.000 -1.000 0.000
vn 0.000 -1.000 0.000
vn 0.000 -1.000 0.000
vn 1.000 -0.000 0.000
vn 1.000 0.000 0.000
vn 0.923 0.000 -0.384
vn 0.923 0.000 -0.384
vn 0.373 0.000 -0.928
vn 0.373 0.000 -0.928
vn -0.013 0.000 -1.000
vn -0.013 0.000 -1.000
vn -0.393 -0.000 -0.920
vn -0.393 -0.000 -0.920
vn -0.925 -0.000 -0.381
vn -0.925 -0.000 -0.381
vn -1.000 0.000 0.000
vn -1.000 0.000 0.000
vn -0.000 1.000 0.000
vn 0.000 1.000 0.000
vn 0.000 1.000 -0.000
vn 0.000 1.000 0.000
vn -0.000 1.000 -0.000
vn -0.000 1.000 -0.000
vn 0.000 1.000 0.000
vn 0.000 1.000 0.000
vn 0.000 1.000 0.000
vn 0.000 1.000 0.000
vn 0.000 1.000 0.000
vn -0.000 1.000 0.000
vn -0.000 1.000 0.000
vn 0.000 1.000 -0.000
vn -0.000 -1.000 0.000
vn 0.000 -1.000 0.000
vn 0.000 -1.000 0.000
vn 0.000 -1.000 0.000
vn 0.000 -1.000 0.000
vn 0.000 -1.000 0.000
vn 1.000 0.000 0.000
vn 1.000 0.000 0.000
vn 0.923 0.000 0.384
vn 0.923 -0.000 0.384
vn 0.373 0.000 0.928
vn 0.373 -0.000 0.928
vn -0.013 0.000 1.000
vn -0.013 0.000 1.000
vn -0.393 0.000 0.920
vn -0.393 0.000 0.920
vn -0.925 0.000 0.381
vn -0.925 0.000 0.381
vn -1.000 -0.000 0.000
vn -1.000 0.000 0.000
vn -0.000 1.000 0.000
vn -0.000 1.000 0.000
vn 0.000 1.000 0.000
vn 0.000 1.000 0.000
vn 0.000 1.000 0.000
vn 0.000 1.000 0.000
vn 0.000 1.000 0.000
vn 0.000 1.000 0.000
vn 0.000 1.000 0.000
vn 0.000 1.000 0.000
vn 0.000 1.000 -0.000
vn -0.000 1.000 0.000
vn -0.000 1.000 -0.000
vn 0.000 1.000 -0.000
vn -0.839 0.000 -0.545
vn -0.839 0.000 0.545
vn -0.839 -0.000 -0.545
vn 0.000 -0.000 -1.000
vn -0.839 0.000 0.545
vn 0.000 0.000 1.000
vn -0.000 -0.000 -1.000
vn 0.839 -0.000 -0.545
vn -0.839 0.000 -0.545
vn -0.839 0.000 0.545
vn 0.839 0.000 0.545
vn 0.000 -0.000 1.000
vn 0.839 0.000 -0.545
vn 0.839 0.000 0.545
vn 0.000 0.000 -1.000
vn -0.839 0.000 -0.545
vn 0.000 0.000 1.000
vn -0.839 0.000 0.545
vn 0.839 0.000 0.545
vn 0.000 -0.000 1.000
vn 0.839 0.000 -0.545
vn 0.000 0.000 -1.000
vn -0.839 -0.000 0.545
vn -0.839 0.000 -0.545
vn -0.839 -0.000 0.545
vn 0.000 -0.000 1.000
vn -0.839 0.000 -0.545
vn 0.000 0.000 -1.000
vn 0.000 -0.000 1.000
vn 0.000 0.000 -1.000
vn 0.839 0.000 0.545
vn 0.839 -0.000 0.545
vn 0.839 0.000 -0.545
vn 0.839 0.000 -0.545
vn 0.839 -0.000 0.545
vn 0.839 0.000 -0.545
vn -0.839 0.000 0.545
vn -0.839 0.000 -0.545
vn -0.839 -0.000 0.545
vn 0.000 -0.000 1.000
vn -0.839 0.000 -0.545
vn 0.000 0.000 -1.000
vn -0.000 -0.000 1.000
vn 0.839 -0.000 0.545
vn -0.839 0.000 0.545
vn -0.839 0.000 -0.545
vn 0.839 0.000 -0.545
vn 0.000 0.000 -1.000
vn 0.839 0.000 0.545
vn 0.839 0.000 -0.545
vn 0.000 0.000 1.000
vn -0.839 0.000 0.545
vn 0.000 0.000 -1.000
vn -0.839 0.000 -0.545
vn 0.839 0.000 -0.545
vn 0.000 0.000 -1.000
vn 0.839 0.000 0.545
vn 0.000 -0.000 1.000
vn -0.839 -0.000 -0.545
vn -0.839 0.000 0.545
vn -0.839 -0.000 -0.545
vn 0.000 -0.000 -1.000
vn -0.839 0.000 0.545
vn 0.000 0.000 1.000
vn 0.000 -0.000 -1.000
vn 0.000 -0.000 1.000
vn 0.839 0.000 -0.545
vn 0.839 -0.000 -0.545
vn 0.839 0.000 0.545
vn 0.839 0.000 0.545
vn 0.839 -0.000 -0.545
vn 0.839 0.000 0.545

# Facets
f 1//1 3//1 2//1
f 3//2 1//2 4//2
f 4//3 1//3 5//3
f 4//4 5//4 6//4
f 6//5 5//5 7//5
f 6//6 7//6 8//6
f 9//7 11//7 10//7
f 10//8 11//8 12//8
f 12//9 11//9 13//9
f 13//10 11//10 14//10
f 13//11 14//11 15//11
f 15//12 14//12 16//12
f 16//13 17//13 15//13
f 15//14 17//14 18//14
f 18//15 17//15 19//15
f 19//16 17//16 20//16
f 19//17 20//17 21//17
f 21//18 20//18 22//18
f 22//19 23//19 21//19
f 21//20 23//20 24//20
f 25//21 27//21 26//21
f 27//22 25//22 28//22
f 27//23 28//23 29//23
f 29//24 28//24 30//24
f 29//25 30//25 31//25
f 31//26 30//26 32//26
f 33//27 35//27 34//27
f 35//28 33//28 36//28
f 35//29 36//29 37//29
f 37//30 36//30 38//30
f 39//31 41//31 40//31
f 41//32 39//32 42//32
f 41//33 42//33 43//33
f 43//34 42//34 44//34
f 45//35 47//35 46//35
f 47//36 45//36 48//36
f 47//37 48//37 49//37
f 49//38 48//38 50//38
f 49//39 50//39 51//39
f 51//40 50//40 52//40
f 53//41 55//41 54//41
f 56//42 55//42 53//42
f 57//43 55//43 56//43
f 58//44 55//44 57//44
f 59//45 58//45 57//45
f 60//46 58//46 59//46
f 59//47 61//47 60//47
f 62//48 61//48 59//48
f 63//49 61//49 62//49
f 64//50 61//50 63//50
f 65//51 64//51 63//51
f 66//52 64//52 65//52
f 65//53 67//53 66//53
f 68//54 67//54 65//54
f 69//55 71//55 70//55
f 71//56 69//56 72//56
f 72//57 69//57 73//57
f 72//58 73//58 74//58
f 74//59 73//59 75//59
f 74//60 75//60 76//60
f 77//61 79//61 78//61
f 79//62 77//62 80//62
f 79//63 80//63 81//63
f 81//64 80//64 82//64
f 83//65 85//65 84//65
f 85//66 83//66 86//66
f 85//67 86//67 87//67
f 87//68 86//68 88//68
f 89//69 91//69 90//69
f 90//70 91//70 92//70
f 93//71 91//71 89//71
f 89//72 94//72 93//72
f 92//73 91//73 95//73
f 95//74 96//74 92//74
f 93//75 94//75 97//75
f 98//76 97//76 94//76
f 93//77 99//77 91//77
f 91//78 99//78 95//78
f 96//79 100//79 98//79
f 100//80 96//80 95//80
f 101//81 97//81 98//81
f 98//82 100//82 101//82
f 93//83 97//83 102//83
f 102//84 99//84 93//84
f 103//85 100//85 95//85
f 95//86 99//86 103//86
f 100//87 104//87 101//87
f 104//88 100//88 103//88
f 101//89 105//89 97//89
f 102//90 97//90 105//90
f 99//91 106//91 103//91
f 102//92 106//92 99//92
f 103//93 106//93 107//93
f 107//94 104//94 103//94
f 108//95 106//95 102//95
f 102//96 105//96 108//96
f 109//97 104//97 107//97
f 108//98 105//98 110//98
f 101//99 104//99 111//99
f 104//100 109//100 111//100
f 111//101 105//101 101//101
f 111//102 110//102 105//102
f 111//103 109//103 112//103
f 112//104 110//104 111//104
f 113//105 115//105 114//105
f 116//106 115//106 113//106
f 114//107 115//107 117//107
f 117//108 118//108 114//108
f 119//109 115//109 116//109
f 116//110 120//110 119//110
f 121//111 118//111 117//111
f 118//112 121//112 122//112
f 115//113 123//113 117//113
f 119//114 123//114 115//114
f 122//115 124//115 120//115
f 119//116 120//116 124//116
f 122//117 121//117 125//117
f 125//118 124//118 122//118
f 126//119 121//119 117//119
f 117//120 123//120 126//120
f 119//121 124//121 127//121
f 127//122 123//122 119//122
f 125//123 128//123 124//123
f 127//124 124//124 128//124
f 121//125 129//125 125//125
f 129//126 121//126 126//126
f 127//127 130//127 123//127
f 123//128 130//128 126//128
f 131//129 130//129 127//129
f 127//130 128//130 131//130
f 126//131 130//131 132//131
f 132//132 129//132 126//132
f 131//133 128//133 133//133
f 134//134 129//134 132//134
f 135//135 128//135 125//135
f 135//136 133//136 128//136
f 125//137 129//137 135//137
f 129//138 134//138 135//138
f 136//139 133//139 135//139
f 135//140 134//140 136//140

# Thank you for using Spin 3D

