# Created using Spin 3D

# Vertex Array 
v -0.500 0.125 0.000 0 0 0
v -0.500 0.115 0.048 0 0 0
v -0.500 0.115 -0.048 0 0 0
v -0.500 0.088 0.088 0 0 0
v -0.500 0.048 0.115 0 0 0
v -0.500 -0.115 0.048 0 0 0
v -0.500 -0.088 0.088 0 0 0
v -0.500 -0.048 0.115 0 0 0
v -0.500 -0.000 0.125 0 0 0
v -0.500 0.048 -0.115 0 0 0
v -0.500 0.088 -0.088 0 0 0
v -0.500 -0.048 -0.115 0 0 0
v -0.500 -0.000 -0.125 0 0 0
v -0.500 -0.115 -0.048 0 0 0
v -0.500 -0.125 0.000 0 0 0
v -0.500 -0.088 -0.088 0 0 0
v 0.500 0.125 -0.000 0 0 0
v 0.500 0.115 -0.048 0 0 0
v 0.500 0.115 0.048 0 0 0
v 0.500 0.088 -0.088 0 0 0
v 0.500 0.048 -0.115 0 0 0
v 0.500 -0.048 0.115 0 0 0
v 0.500 0.088 0.088 0 0 0
v 0.500 0.048 0.115 0 0 0
v 0.500 -0.000 0.125 0 0 0
v 0.500 -0.115 -0.048 0 0 0
v 0.500 -0.000 -0.125 0 0 0
v 0.500 -0.048 -0.115 0 0 0
v 0.500 -0.088 -0.088 0 0 0
v 0.500 -0.115 0.048 0 0 0
v 0.500 -0.125 -0.000 0 0 0
v 0.500 -0.088 0.088 0 0 0
v 0.500 0.088 0.088 0 0 0
v -0.500 0.088 0.088 0 0 0
v -0.500 0.115 0.048 0 0 0
v 0.500 0.115 0.048 0 0 0
v 0.500 0.048 0.115 0 0 0
v -0.500 0.125 0.000 0 0 0
v -0.500 0.048 0.115 0 0 0
v 0.500 0.125 -0.000 0 0 0
v 0.500 -0.000 0.125 0 0 0
v -0.500 0.115 -0.048 0 0 0
v -0.500 -0.000 0.125 0 0 0
v 0.500 0.115 -0.048 0 0 0
v 0.500 -0.048 0.115 0 0 0
v -0.500 0.088 -0.088 0 0 0
v -0.500 -0.048 0.115 0 0 0
v 0.500 0.088 -0.088 0 0 0
v 0.500 -0.088 0.088 0 0 0
v -0.500 0.048 -0.115 0 0 0
v -0.500 -0.088 0.088 0 0 0
v 0.500 0.048 -0.115 0 0 0
v 0.500 -0.115 0.048 0 0 0
v -0.500 -0.000 -0.125 0 0 0
v -0.500 -0.115 0.048 0 0 0
v 0.500 -0.000 -0.125 0 0 0
v 0.500 -0.125 -0.000 0 0 0
v -0.500 -0.048 -0.115 0 0 0
v -0.500 -0.125 0.000 0 0 0
v 0.500 -0.048 -0.115 0 0 0
v 0.500 -0.115 -0.048 0 0 0
v -0.500 -0.088 -0.088 0 0 0
v -0.500 -0.115 -0.048 0 0 0
v 0.500 -0.088 -0.088 0 0 0

# Normal Array
vn -1.000 -0.000 0.000
vn -1.000 0.000 0.000
vn -1.000 0.000 0.000
vn -1.000 0.000 -0.000
vn -1.000 0.000 0.000
vn -1.000 0.000 0.000
vn -1.000 0.000 0.000
vn -1.000 -0.000 0.000
vn -1.000 -0.000 0.000
vn -1.000 -0.000 0.000
vn -1.000 0.000 0.000
vn -1.000 0.000 0.000
vn -1.000 0.000 0.000
vn -1.000 0.000 0.000
vn 1.000 0.000 0.000
vn 1.000 0.000 0.000
vn 1.000 0.000 0.000
vn 1.000 0.000 -0.000
vn 1.000 0.000 0.000
vn 1.000 0.000 0.000
vn 1.000 0.000 0.000
vn 1.000 -0.000 0.000
vn 1.000 -0.000 -0.000
vn 1.000 0.000 0.000
vn 1.000 -0.000 -0.000
vn 1.000 -0.000 0.000
vn 1.000 -0.000 0.000
vn 1.000 -0.000 0.000
vn 0.000 0.831 0.556
vn 0.000 0.831 0.556
vn 0.000 0.556 0.831
vn 0.000 0.981 0.195
vn 0.000 0.556 0.831
vn 0.000 0.981 0.195
vn 0.000 0.195 0.981
vn -0.000 0.981 -0.195
vn 0.000 0.195 0.981
vn -0.000 0.981 -0.195
vn 0.000 -0.195 0.981
vn -0.000 0.831 -0.556
vn 0.000 -0.195 0.981
vn -0.000 0.831 -0.556
vn 0.000 -0.556 0.831
vn -0.000 0.556 -0.831
vn 0.000 -0.556 0.831
vn -0.000 0.556 -0.831
vn 0.000 -0.831 0.556
vn -0.000 0.195 -0.981
vn 0.000 -0.831 0.556
vn -0.000 0.195 -0.981
vn 0.000 -0.981 0.195
vn -0.000 -0.195 -0.981
vn 0.000 -0.981 0.195
vn -0.000 -0.195 -0.981
vn -0.000 -0.981 -0.195
vn -0.000 -0.556 -0.831
vn -0.000 -0.981 -0.195
vn -0.000 -0.556 -0.831
vn -0.000 -0.831 -0.556
vn -0.000 -0.831 -0.556

# Facets
f 1//1 3//1 2//1
f 4//2 2//2 3//2
f 5//3 4//3 3//3
f 5//4 3//4 6//4
f 6//5 7//5 5//5
f 7//6 8//6 5//6
f 9//7 5//7 8//7
f 3//8 10//8 6//8
f 11//9 10//9 3//9
f 10//10 12//10 6//10
f 13//11 12//11 10//11
f 14//12 6//12 12//12
f 15//13 6//13 14//13
f 16//14 14//14 12//14
f 17//15 19//15 18//15
f 20//16 18//16 19//16
f 21//17 20//17 19//17
f 21//18 19//18 22//18
f 19//19 23//19 22//19
f 23//20 24//20 22//20
f 25//21 22//21 24//21
f 26//22 21//22 22//22
f 27//23 21//23 26//23
f 28//24 27//24 26//24
f 29//25 28//25 26//25
f 30//26 26//26 22//26
f 31//27 26//27 30//27
f 32//28 30//28 22//28
f 33//29 35//29 34//29
f 36//30 35//30 33//30
f 33//31 34//31 37//31
f 36//32 38//32 35//32
f 37//33 34//33 39//33
f 40//34 38//34 36//34
f 37//35 39//35 41//35
f 40//36 42//36 38//36
f 41//37 39//37 43//37
f 44//38 42//38 40//38
f 41//39 43//39 45//39
f 44//40 46//40 42//40
f 45//41 43//41 47//41
f 48//42 46//42 44//42
f 45//43 47//43 49//43
f 48//44 50//44 46//44
f 49//45 47//45 51//45
f 52//46 50//46 48//46
f 49//47 51//47 53//47
f 52//48 54//48 50//48
f 53//49 51//49 55//49
f 56//50 54//50 52//50
f 53//51 55//51 57//51
f 56//52 58//52 54//52
f 57//53 55//53 59//53
f 60//54 58//54 56//54
f 57//55 59//55 61//55
f 60//56 62//56 58//56
f 61//57 59//57 63//57
f 64//58 62//58 60//58
f 64//59 63//59 62//59
f 61//60 63//60 64//60

# Thank you for using Spin 3D

