# Created using Spin 3D

# Vertex Array 
v -0.024 0.123 -0.500 0 0 0
v -0.048 0.115 -0.500 0 0 0
v -0.088 0.088 -0.500 0 0 0
v -0.104 0.069 -0.500 0 0 0
v 0.000 -0.000 -0.500 0 0 0
v 0.000 0.118 -0.500 0 0 0
v 0.000 0.125 -0.500 0 0 0
v 0.024 0.123 -0.500 0 0 0
v 0.000 -0.086 -0.500 0 0 0
v 0.104 0.069 -0.500 0 0 0
v 0.088 0.088 -0.500 0 0 0
v 0.048 0.115 -0.500 0 0 0
v -0.123 -0.024 -0.500 0 0 0
v -0.115 0.048 -0.500 0 0 0
v -0.125 -0.000 -0.500 0 0 0
v 0.123 -0.024 -0.500 0 0 0
v 0.115 0.048 -0.500 0 0 0
v 0.125 -0.000 -0.500 0 0 0
v -0.000 -0.106 -0.500 0 0 0
v -0.069 -0.104 -0.500 0 0 0
v -0.088 -0.088 -0.500 0 0 0
v -0.115 -0.048 -0.500 0 0 0
v 0.000 -0.118 -0.500 0 0 0
v -0.048 -0.115 -0.500 0 0 0
v 0.069 -0.104 -0.500 0 0 0
v 0.088 -0.088 -0.500 0 0 0
v 0.115 -0.048 -0.500 0 0 0
v 0.048 -0.115 -0.500 0 0 0
v 0.000 -0.120 -0.500 0 0 0
v 0.000 -0.125 -0.500 0 0 0
v -0.500 0.000 0.125 0 0 0
v -0.500 -0.048 0.115 0 0 0
v -0.500 0.048 0.115 0 0 0
v -0.500 0.115 0.048 0 0 0
v -0.500 -0.115 -0.048 0 0 0
v -0.500 0.088 0.088 0 0 0
v -0.500 -0.115 0.048 0 0 0
v -0.500 -0.088 0.088 0 0 0
v -0.500 -0.125 0.000 0 0 0
v -0.500 0.115 -0.048 0 0 0
v -0.500 0.125 0.000 0 0 0
v -0.500 0.048 -0.115 0 0 0
v -0.500 0.088 -0.088 0 0 0
v -0.500 0.000 -0.125 0 0 0
v -0.500 -0.048 -0.115 0 0 0
v -0.500 -0.088 -0.088 0 0 0
v -0.115 0.048 0.500 0 0 0
v -0.115 -0.048 0.500 0 0 0
v -0.125 -0.000 0.500 0 0 0
v -0.088 -0.088 0.500 0 0 0
v -0.048 -0.115 0.500 0 0 0
v 0.000 0.000 0.500 0 0 0
v 0.000 0.096 0.500 0 0 0
v -0.088 0.088 0.500 0 0 0
v 0.000 0.106 0.500 0 0 0
v -0.048 0.115 0.500 0 0 0
v 0.000 0.115 0.500 0 0 0
v 0.000 0.125 0.500 0 0 0
v 0.048 0.115 0.500 0 0 0
v 0.088 0.088 0.500 0 0 0
v 0.115 0.048 0.500 0 0 0
v 0.000 -0.068 0.500 0 0 0
v 0.048 -0.115 0.500 0 0 0
v 0.000 -0.096 0.500 0 0 0
v 0.000 -0.115 0.500 0 0 0
v 0.000 -0.125 0.500 0 0 0
v 0.088 -0.088 0.500 0 0 0
v 0.115 -0.048 0.500 0 0 0
v 0.125 -0.000 0.500 0 0 0
v 0.500 0.115 0.048 0 0 0
v 0.500 0.125 0.000 0 0 0
v 0.500 0.115 -0.048 0 0 0
v 0.500 -0.115 -0.048 0 0 0
v 0.500 0.048 -0.115 0 0 0
v 0.500 0.088 -0.088 0 0 0
v 0.500 0.000 -0.125 0 0 0
v 0.500 -0.048 -0.115 0 0 0
v 0.500 -0.088 -0.088 0 0 0
v 0.500 -0.048 0.115 0 0 0
v 0.500 -0.115 0.048 0 0 0
v 0.500 -0.125 0.000 0 0 0
v 0.500 -0.088 0.088 0 0 0
v 0.500 0.048 0.115 0 0 0
v 0.500 0.000 0.125 0 0 0
v 0.500 0.088 0.088 0 0 0
v -0.115 0.048 -0.500 0 0 0
v -0.104 0.069 -0.500 0 0 0
v -0.115 0.048 -0.115 0 0 0
v -0.125 -0.000 -0.125 0 0 0
v -0.125 -0.000 -0.500 0 0 0
v -0.123 -0.024 -0.500 0 0 0
v -0.088 0.088 -0.500 0 0 0
v -0.115 -0.048 -0.500 0 0 0
v -0.088 0.088 -0.088 0 0 0
v -0.048 0.115 -0.500 0 0 0
v -0.115 -0.048 -0.115 0 0 0
v -0.088 -0.088 -0.500 0 0 0
v -0.048 0.115 -0.048 0 0 0
v -0.024 0.123 -0.500 0 0 0
v 0.000 0.125 -0.500 0 0 0
v 0.000 0.125 -0.000 0 0 0
v -0.089 -0.088 -0.088 0 0 0
v -0.069 -0.104 -0.500 0 0 0
v -0.048 -0.115 -0.500 0 0 0
v 0.048 0.115 -0.048 0 0 0
v 0.024 0.123 -0.500 0 0 0
v 0.048 0.115 -0.500 0 0 0
v -0.048 -0.115 -0.048 0 0 0
v 0.000 -0.125 -0.500 0 0 0
v 0.000 -0.125 -0.000 0 0 0
v 0.088 0.088 -0.088 0 0 0
v 0.088 0.088 -0.500 0 0 0
v 0.048 -0.115 -0.048 0 0 0
v 0.048 -0.115 -0.500 0 0 0
v 0.115 0.048 -0.115 0 0 0
v 0.104 0.069 -0.500 0 0 0
v 0.115 0.048 -0.500 0 0 0
v 0.125 -0.000 -0.125 0 0 0
v 0.125 -0.000 -0.500 0 0 0
v 0.123 -0.024 -0.500 0 0 0
v 0.115 -0.048 -0.500 0 0 0
v 0.089 -0.088 -0.088 0 0 0
v 0.069 -0.104 -0.500 0 0 0
v 0.088 -0.088 -0.500 0 0 0
v 0.115 -0.048 -0.115 0 0 0
v 0.500 0.088 -0.088 0 0 0
v 0.500 0.048 -0.115 0 0 0
v 0.500 0.115 -0.048 0 0 0
v 0.500 0.000 -0.125 0 0 0
v 0.500 -0.048 -0.115 0 0 0
v 0.500 -0.088 -0.088 0 0 0
v 0.500 -0.115 -0.048 0 0 0
v 0.500 0.125 0.000 0 0 0
v 0.500 -0.125 0.000 0 0 0
v 0.048 0.115 0.048 0 0 0
v 0.500 0.115 0.048 0 0 0
v 0.048 -0.115 0.048 0 0 0
v 0.500 -0.115 0.048 0 0 0
v 0.089 0.088 0.088 0 0 0
v 0.500 0.088 0.088 0 0 0
v 0.088 -0.088 0.088 0 0 0
v 0.500 -0.088 0.088 0 0 0
v 0.115 0.048 0.115 0 0 0
v 0.500 0.048 0.115 0 0 0
v 0.125 -0.000 0.125 0 0 0
v 0.500 0.000 0.125 0 0 0
v 0.500 -0.048 0.115 0 0 0
v 0.115 -0.048 0.115 0 0 0
v 0.048 0.115 0.500 0 0 0
v 0.088 0.088 0.500 0 0 0
v 0.115 0.048 0.500 0 0 0
v 0.125 -0.000 0.500 0 0 0
v 0.115 -0.048 0.500 0 0 0
v 0.088 -0.088 0.500 0 0 0
v 0.048 -0.115 0.500 0 0 0
v 0.000 0.125 0.500 0 0 0
v 0.000 -0.125 0.500 0 0 0
v -0.048 0.115 0.048 0 0 0
v -0.048 0.115 0.500 0 0 0
v -0.048 -0.115 0.048 0 0 0
v -0.048 -0.115 0.500 0 0 0
v -0.500 0.125 0.000 0 0 0
v -0.500 0.115 -0.048 0 0 0
v -0.500 0.088 -0.088 0 0 0
v -0.500 0.048 -0.115 0 0 0
v -0.500 0.000 -0.125 0 0 0
v -0.500 -0.048 -0.115 0 0 0
v -0.500 -0.088 -0.088 0 0 0
v -0.500 -0.115 -0.048 0 0 0
v -0.500 -0.125 0.000 0 0 0
v -0.500 -0.115 0.048 0 0 0
v -0.088 -0.088 0.088 0 0 0
v -0.500 -0.088 0.088 0 0 0
v -0.088 -0.088 0.500 0 0 0
v -0.115 -0.048 0.115 0 0 0
v -0.500 -0.048 0.115 0 0 0
v -0.125 -0.000 0.125 0 0 0
v -0.115 -0.048 0.500 0 0 0
v -0.500 0.000 0.125 0 0 0
v -0.125 -0.000 0.500 0 0 0
v -0.500 0.048 0.115 0 0 0
v -0.115 0.048 0.500 0 0 0
v -0.115 0.048 0.115 0 0 0
v -0.500 0.088 0.088 0 0 0
v -0.088 0.088 0.500 0 0 0
v -0.089 0.088 0.088 0 0 0
v -0.500 0.115 0.048 0 0 0

# Normal Array
vn -0.000 0.000 -1.000
vn -0.000 0.000 -1.000
vn -0.000 -0.000 -1.000
vn 0.000 0.000 -1.000
vn 0.000 0.000 -1.000
vn 0.000 0.000 -1.000
vn 0.000 0.000 -1.000
vn -0.000 0.000 -1.000
vn 0.000 -0.000 -1.000
vn 0.000 0.000 -1.000
vn 0.000 0.000 -1.000
vn 0.000 0.000 -1.000
vn -0.000 0.000 -1.000
vn 0.000 0.000 -1.000
vn 0.000 0.000 -1.000
vn 0.000 0.000 -1.000
vn 0.000 0.000 -1.000
vn 0.000 0.000 -1.000
vn -0.000 0.000 -1.000
vn 0.000 -0.000 -1.000
vn -0.000 -0.000 -1.000
vn 0.000 0.000 -1.000
vn 0.000 0.000 -1.000
vn -0.000 -0.000 -1.000
vn -0.000 -0.000 -1.000
vn 0.000 -0.000 -1.000
vn 0.000 0.000 -1.000
vn -0.000 0.000 -1.000
vn -0.000 0.000 -1.000
vn 0.000 -0.000 -1.000
vn -0.000 0.000 -1.000
vn 0.000 0.000 -1.000
vn -0.000 -0.000 -1.000
vn 0.000 0.000 -1.000
vn -1.000 0.000 -0.000
vn -1.000 0.000 0.000
vn -1.000 -0.000 0.000
vn -1.000 -0.000 -0.000
vn -1.000 0.000 0.000
vn -1.000 0.000 -0.000
vn -1.000 0.000 -0.000
vn -1.000 0.000 0.000
vn -1.000 -0.000 0.000
vn -1.000 0.000 0.000
vn -1.000 0.000 -0.000
vn -1.000 -0.000 0.000
vn -1.000 0.000 0.000
vn -1.000 -0.000 -0.000
vn 0.000 0.000 1.000
vn 0.000 0.000 1.000
vn -0.000 -0.000 1.000
vn 0.000 -0.000 1.000
vn 0.000 0.000 1.000
vn -0.000 0.000 1.000
vn 0.000 0.000 1.000
vn 0.000 0.000 1.000
vn 0.000 0.000 1.000
vn 0.000 0.000 1.000
vn 0.000 0.000 1.000
vn 0.000 0.000 1.000
vn 0.000 0.000 1.000
vn -0.000 0.000 1.000
vn 0.000 0.000 1.000
vn -0.000 0.000 1.000
vn 0.000 0.000 1.000
vn 0.000 0.000 1.000
vn -0.000 -0.000 1.000
vn 0.000 0.000 1.000
vn 0.000 0.000 1.000
vn 0.000 0.000 1.000
vn 0.000 0.000 1.000
vn 0.000 0.000 1.000
vn 0.000 0.000 1.000
vn 0.000 -0.000 1.000
vn -0.000 0.000 1.000
vn 0.000 0.000 1.000
vn 1.000 0.000 0.000
vn 1.000 0.000 -0.000
vn 1.000 0.000 0.000
vn 1.000 0.000 -0.000
vn 1.000 -0.000 0.000
vn 1.000 0.000 0.000
vn 1.000 -0.000 -0.000
vn 1.000 -0.000 0.000
vn 1.000 0.000 0.000
vn 1.000 -0.000 0.000
vn 1.000 0.000 -0.000
vn 1.000 0.000 0.000
vn 1.000 0.000 0.000
vn 1.000 -0.000 -0.000
vn -0.882 0.471 0.000
vn -0.981 0.195 0.000
vn -0.981 0.195 0.000
vn -0.995 -0.098 0.000
vn -0.773 0.634 0.012
vn -0.957 -0.290 0.013
vn -0.831 0.556 0.000
vn -0.556 0.831 0.000
vn -0.979 -0.201 0.001
vn -0.831 -0.556 0.001
vn -0.556 0.831 0.000
vn -0.290 0.957 0.000
vn -0.098 0.995 0.011
vn -0.195 0.981 0.000
vn -0.836 -0.549 -0.000
vn -0.634 -0.773 -0.000
vn -0.471 -0.882 0.011
vn 0.195 0.981 0.000
vn 0.098 0.995 0.011
vn 0.290 0.957 0.000
vn -0.554 -0.832 0.000
vn -0.195 -0.981 0.000
vn -0.195 -0.981 -0.000
vn 0.556 0.831 0.000
vn 0.556 0.831 0.000
vn 0.195 -0.981 -0.000
vn 0.195 -0.981 0.000
vn 0.831 0.556 0.000
vn 0.773 0.634 0.012
vn 0.882 0.471 0.000
vn 0.981 0.195 0.000
vn 0.981 0.195 0.000
vn 0.995 -0.098 0.000
vn 0.957 -0.290 0.013
vn 0.554 -0.832 0.000
vn 0.471 -0.882 0.011
vn 0.634 -0.773 -0.000
vn 0.831 -0.556 0.001
vn 0.979 -0.201 0.001
vn 0.836 -0.549 -0.000
vn -0.000 0.556 -0.831
vn -0.000 0.556 -0.831
vn -0.000 0.196 -0.981
vn -0.000 0.831 -0.556
vn 0.000 0.195 -0.981
vn -0.000 0.832 -0.554
vn 0.000 -0.195 -0.981
vn 0.000 -0.195 -0.981
vn 0.000 -0.556 -0.831
vn 0.000 -0.556 -0.831
vn 0.000 -0.831 -0.556
vn -0.000 -0.833 -0.554
vn -0.000 0.981 -0.195
vn -0.000 -0.981 -0.195
vn 0.000 0.981 -0.196
vn 0.000 -0.981 -0.196
vn -0.000 0.981 0.195
vn -0.000 0.981 0.195
vn -0.000 -0.981 0.195
vn -0.000 -0.981 0.195
vn -0.000 0.831 0.556
vn -0.000 0.831 0.556
vn -0.000 -0.832 0.555
vn 0.000 -0.831 0.556
vn -0.000 0.556 0.831
vn -0.000 0.556 0.831
vn -0.000 0.195 0.981
vn -0.000 0.195 0.981
vn -0.000 -0.195 0.981
vn -0.000 -0.556 0.831
vn 0.000 -0.555 0.832
vn -0.000 -0.195 0.981
vn 0.554 0.833 -0.000
vn 0.556 0.831 0.000
vn 0.833 0.553 0.000
vn 0.831 0.556 -0.000
vn 0.981 0.196 -0.000
vn 0.981 0.195 -0.000
vn 0.981 -0.195 -0.000
vn 0.979 -0.201 -0.001
vn 0.831 -0.556 -0.001
vn 0.835 -0.551 -0.000
vn 0.556 -0.831 -0.000
vn 0.554 -0.832 -0.000
vn 0.195 0.981 -0.000
vn 0.195 -0.981 -0.000
vn 0.195 0.981 -0.000
vn 0.196 -0.981 0.000
vn -0.195 0.981 0.000
vn -0.195 0.981 -0.000
vn -0.196 -0.981 0.000
vn -0.195 -0.981 -0.000
vn 0.000 0.981 0.195
vn -0.000 0.981 -0.196
vn 0.000 0.981 -0.195
vn 0.000 0.832 -0.554
vn 0.000 0.831 -0.556
vn 0.000 0.556 -0.831
vn 0.000 0.556 -0.831
vn 0.000 0.196 -0.981
vn -0.000 0.195 -0.981
vn -0.000 -0.195 -0.981
vn -0.000 -0.195 -0.981
vn -0.000 -0.556 -0.831
vn -0.000 -0.556 -0.831
vn -0.000 -0.831 -0.556
vn 0.000 -0.833 -0.554
vn 0.000 -0.981 -0.195
vn -0.000 -0.981 -0.196
vn 0.000 -0.981 0.195
vn 0.000 -0.981 0.195
vn 0.000 -0.832 0.555
vn -0.554 -0.832 -0.000
vn -0.000 -0.831 0.556
vn -0.556 -0.831 -0.000
vn -0.000 -0.555 0.832
vn -0.835 -0.551 -0.000
vn 0.000 -0.556 0.831
vn 0.000 -0.195 0.981
vn -0.831 -0.556 -0.001
vn -0.979 -0.201 -0.001
vn 0.000 -0.195 0.981
vn -0.981 -0.195 -0.000
vn 0.000 0.195 0.981
vn -0.981 0.195 -0.000
vn 0.000 0.195 0.981
vn -0.981 0.196 -0.000
vn 0.000 0.556 0.831
vn -0.831 0.556 -0.000
vn 0.000 0.556 0.831
vn -0.833 0.553 0.000
vn -0.556 0.831 0.000
vn 0.000 0.831 0.556
vn -0.554 0.833 -0.000
vn 0.000 0.831 0.556
vn 0.000 0.981 0.195

# Facets
f 1//1 3//1 2//1
f 1//2 4//2 3//2
f 5//3 4//3 1//3
f 5//4 1//4 6//4
f 6//5 1//5 7//5
f 7//6 8//6 6//6
f 6//7 8//7 5//7
f 9//8 4//8 5//8
f 8//9 10//9 5//9
f 5//10 10//10 9//10
f 11//11 10//11 8//11
f 12//12 11//12 8//12
f 9//13 13//13 4//13
f 13//14 14//14 4//14
f 13//15 15//15 14//15
f 10//16 16//16 9//16
f 10//17 17//17 16//17
f 17//18 18//18 16//18
f 19//19 13//19 9//19
f 9//20 16//20 19//20
f 13//21 19//21 20//21
f 13//22 20//22 21//22
f 13//23 21//23 22//23
f 20//24 19//24 23//24
f 23//25 24//25 20//25
f 16//26 25//26 19//26
f 19//27 25//27 23//27
f 26//28 25//28 16//28
f 27//29 26//29 16//29
f 25//30 28//30 23//30
f 29//31 24//31 23//31
f 23//32 28//32 29//32
f 29//33 30//33 24//33
f 28//34 30//34 29//34
f 31//35 33//35 32//35
f 34//36 32//36 33//36
f 34//37 35//37 32//37
f 34//38 33//38 36//38
f 32//39 35//39 37//39
f 32//40 37//40 38//40
f 37//41 35//41 39//41
f 35//42 34//42 40//42
f 41//43 40//43 34//43
f 35//44 40//44 42//44
f 43//45 42//45 40//45
f 35//46 42//46 44//46
f 35//47 44//47 45//47
f 35//48 45//48 46//48
f 47//49 49//49 48//49
f 47//50 48//50 50//50
f 47//51 50//51 51//51
f 51//52 52//52 47//52
f 47//53 52//53 53//53
f 53//54 54//54 47//54
f 55//55 54//55 53//55
f 55//56 56//56 54//56
f 57//57 56//57 55//57
f 57//58 58//58 56//58
f 59//59 58//59 57//59
f 55//60 59//60 57//60
f 60//61 59//61 55//61
f 53//62 60//62 55//62
f 61//63 60//63 53//63
f 52//64 61//64 53//64
f 51//65 62//65 52//65
f 52//66 62//66 63//66
f 63//67 61//67 52//67
f 51//68 64//68 62//68
f 62//69 64//69 63//69
f 64//70 51//70 65//70
f 65//71 63//71 64//71
f 65//72 51//72 66//72
f 66//73 63//73 65//73
f 63//74 67//74 61//74
f 67//75 68//75 61//75
f 68//76 69//76 61//76
f 70//77 72//77 71//77
f 72//78 70//78 73//78
f 74//79 72//79 73//79
f 72//80 74//80 75//80
f 76//81 74//81 73//81
f 77//82 76//82 73//82
f 78//83 77//83 73//83
f 79//84 73//84 70//84
f 80//85 73//85 79//85
f 81//86 73//86 80//86
f 82//87 80//87 79//87
f 83//88 79//88 70//88
f 79//89 83//89 84//89
f 85//90 83//90 70//90
f 86//91 88//91 87//91
f 88//92 86//92 89//92
f 89//93 86//93 90//93
f 90//94 91//94 89//94
f 92//95 87//95 88//95
f 91//96 93//96 89//96
f 94//97 92//97 88//97
f 94//98 95//98 92//98
f 93//99 96//99 89//99
f 93//100 97//100 96//100
f 98//101 95//101 94//101
f 95//102 98//102 99//102
f 100//103 99//103 98//103
f 101//104 100//104 98//104
f 96//105 97//105 102//105
f 97//106 103//106 102//106
f 103//107 104//107 102//107
f 101//108 105//108 100//108
f 100//109 105//109 106//109
f 107//110 106//110 105//110
f 104//111 108//111 102//111
f 104//112 109//112 108//112
f 108//113 109//113 110//113
f 105//114 111//114 107//114
f 107//115 111//115 112//115
f 110//116 109//116 113//116
f 113//117 109//117 114//117
f 111//118 115//118 112//118
f 112//119 115//119 116//119
f 117//120 116//120 115//120
f 115//121 118//121 117//121
f 117//122 118//122 119//122
f 119//123 118//123 120//123
f 121//124 120//124 118//124
f 113//125 114//125 122//125
f 114//126 123//126 122//126
f 124//127 122//127 123//127
f 125//128 124//128 121//128
f 125//129 121//129 118//129
f 122//130 124//130 125//130
f 111//131 126//131 115//131
f 115//132 126//132 127//132
f 115//133 127//133 118//133
f 111//134 128//134 126//134
f 118//135 127//135 129//135
f 105//136 128//136 111//136
f 129//137 130//137 118//137
f 118//138 130//138 125//138
f 130//139 131//139 125//139
f 125//140 131//140 122//140
f 131//141 132//141 122//141
f 122//142 132//142 113//142
f 105//143 133//143 128//143
f 132//144 134//144 113//144
f 101//145 133//145 105//145
f 113//146 134//146 110//146
f 135//147 133//147 101//147
f 136//148 133//148 135//148
f 110//149 134//149 137//149
f 137//150 134//150 138//150
f 139//151 136//151 135//151
f 140//152 136//152 139//152
f 137//153 138//153 141//153
f 141//154 138//154 142//154
f 143//155 140//155 139//155
f 144//156 140//156 143//156
f 145//157 144//157 143//157
f 146//158 144//158 145//158
f 145//159 147//159 146//159
f 148//160 142//160 147//160
f 141//161 142//161 148//161
f 148//162 147//162 145//162
f 135//163 149//163 139//163
f 139//164 149//164 150//164
f 139//165 150//165 143//165
f 143//166 150//166 151//166
f 143//167 151//167 145//167
f 145//168 151//168 152//168
f 152//169 153//169 145//169
f 145//170 153//170 148//170
f 153//171 154//171 148//171
f 148//172 154//172 141//172
f 154//173 155//173 141//173
f 141//174 155//174 137//174
f 135//175 156//175 149//175
f 155//176 157//176 137//176
f 101//177 156//177 135//177
f 137//178 157//178 110//178
f 101//179 158//179 156//179
f 156//180 158//180 159//180
f 110//181 157//181 160//181
f 160//182 157//182 161//182
f 101//183 162//183 158//183
f 101//184 98//184 162//184
f 162//185 98//185 163//185
f 98//186 94//186 163//186
f 163//187 94//187 164//187
f 94//188 88//188 164//188
f 164//189 88//189 165//189
f 88//190 89//190 165//190
f 165//191 89//191 166//191
f 89//192 167//192 166//192
f 96//193 167//193 89//193
f 96//194 168//194 167//194
f 102//195 168//195 96//195
f 102//196 169//196 168//196
f 108//197 169//197 102//197
f 108//198 170//198 169//198
f 110//199 170//199 108//199
f 110//200 160//200 170//200
f 170//201 160//201 171//201
f 160//202 172//202 171//202
f 160//203 161//203 172//203
f 171//204 172//204 173//204
f 172//205 161//205 174//205
f 172//206 175//206 173//206
f 172//207 174//207 175//207
f 173//208 175//208 176//208
f 175//209 177//209 176//209
f 175//210 174//210 178//210
f 175//211 178//211 177//211
f 176//212 177//212 179//212
f 177//213 178//213 180//213
f 177//214 181//214 179//214
f 182//215 177//215 180//215
f 183//216 181//216 177//216
f 183//217 177//217 182//217
f 183//218 184//218 181//218
f 185//219 183//219 182//219
f 186//220 184//220 183//220
f 186//221 183//221 185//221
f 159//222 186//222 185//222
f 186//223 187//223 184//223
f 158//224 186//224 159//224
f 158//225 187//225 186//225
f 158//226 162//226 187//226

# Thank you for using Spin 3D

