# Created using Spin 3D

# Vertex Array 
v -0.463 0.289 -0.089 0 0 0
v -0.537 0.289 -0.089 0 0 0
v -0.463 0.316 -0.048 0 0 0
v -0.463 0.248 -0.116 0 0 0
v -0.537 0.316 -0.048 0 0 0
v -0.537 0.248 -0.116 0 0 0
v -0.463 0.326 0.000 0 0 0
v -0.537 0.326 -0.000 0 0 0
v -0.463 0.316 0.048 0 0 0
v -0.537 0.316 0.048 0 0 0
v -0.463 0.289 0.089 0 0 0
v -0.537 0.289 0.089 0 0 0
v -0.463 0.248 0.116 0 0 0
v -0.537 0.248 0.116 0 0 0
v -0.463 0.200 -0.126 0 0 0
v -0.537 0.200 -0.126 0 0 0
v -0.537 0.152 -0.116 0 0 0
v -0.463 0.152 -0.116 0 0 0
v -0.537 0.111 -0.089 0 0 0
v -0.463 0.111 -0.089 0 0 0
v -0.537 0.084 -0.048 0 0 0
v -0.463 0.084 -0.048 0 0 0
v -0.537 0.074 0.000 0 0 0
v -0.463 0.074 -0.000 0 0 0
v -0.537 0.084 0.048 0 0 0
v -0.463 0.084 0.048 0 0 0
v -0.537 0.111 0.089 0 0 0
v -0.463 0.111 0.089 0 0 0
v -0.463 0.152 0.116 0 0 0
v -0.537 0.152 0.116 0 0 0
v -0.463 0.200 0.126 0 0 0
v -0.537 0.200 0.126 0 0 0
v -0.537 0.263 0.151 0 0 0
v -0.537 0.200 0.163 0 0 0
v -0.537 0.248 0.116 0 0 0
v -0.537 0.315 0.115 0 0 0
v -0.537 0.200 0.126 0 0 0
v -0.537 0.289 0.089 0 0 0
v -0.537 0.152 0.116 0 0 0
v -0.537 0.351 0.062 0 0 0
v -0.537 0.138 0.151 0 0 0
v -0.537 0.316 0.048 0 0 0
v -0.537 0.111 0.089 0 0 0
v -0.537 0.363 -0.000 0 0 0
v -0.537 0.085 0.115 0 0 0
v -0.537 0.326 -0.000 0 0 0
v -0.537 0.084 0.048 0 0 0
v -0.537 0.351 -0.062 0 0 0
v -0.537 0.049 0.062 0 0 0
v -0.537 0.316 -0.048 0 0 0
v -0.537 0.074 0.000 0 0 0
v -0.537 0.315 -0.115 0 0 0
v -0.537 0.037 0.000 0 0 0
v -0.537 0.289 -0.089 0 0 0
v -0.537 0.084 -0.048 0 0 0
v -0.537 0.263 -0.151 0 0 0
v -0.537 0.049 -0.062 0 0 0
v -0.537 0.248 -0.116 0 0 0
v -0.537 0.111 -0.089 0 0 0
v -0.537 0.200 -0.163 0 0 0
v -0.537 0.085 -0.115 0 0 0
v -0.537 0.200 -0.126 0 0 0
v -0.537 0.152 -0.116 0 0 0
v -0.537 0.138 -0.151 0 0 0
v -0.463 0.263 0.151 0 0 0
v -0.463 0.200 0.163 0 0 0
v -0.537 0.263 0.151 0 0 0
v -0.463 0.315 0.115 0 0 0
v -0.537 0.200 0.163 0 0 0
v -0.537 0.315 0.115 0 0 0
v -0.537 0.138 0.151 0 0 0
v -0.463 0.351 0.062 0 0 0
v -0.463 0.138 0.151 0 0 0
v -0.537 0.351 0.062 0 0 0
v -0.537 0.085 0.115 0 0 0
v -0.463 0.363 0.000 0 0 0
v -0.463 0.085 0.115 0 0 0
v -0.537 0.363 -0.000 0 0 0
v -0.537 0.049 0.062 0 0 0
v -0.463 0.351 -0.062 0 0 0
v -0.463 0.049 0.062 0 0 0
v -0.537 0.351 -0.062 0 0 0
v -0.537 0.037 0.000 0 0 0
v -0.463 0.315 -0.115 0 0 0
v -0.463 0.037 -0.000 0 0 0
v -0.537 0.315 -0.115 0 0 0
v -0.537 0.049 -0.062 0 0 0
v -0.463 0.263 -0.151 0 0 0
v -0.463 0.049 -0.062 0 0 0
v -0.537 0.263 -0.151 0 0 0
v -0.537 0.085 -0.115 0 0 0
v -0.463 0.200 -0.163 0 0 0
v -0.463 0.085 -0.115 0 0 0
v -0.537 0.200 -0.163 0 0 0
v -0.537 0.138 -0.151 0 0 0
v -0.463 0.138 -0.151 0 0 0
v -0.463 0.263 -0.151 0 0 0
v -0.463 0.200 -0.163 0 0 0
v -0.463 0.200 -0.126 0 0 0
v -0.463 0.248 -0.116 0 0 0
v -0.463 0.152 -0.116 0 0 0
v -0.463 0.315 -0.115 0 0 0
v -0.463 0.138 -0.151 0 0 0
v -0.463 0.289 -0.089 0 0 0
v -0.463 0.111 -0.089 0 0 0
v -0.463 0.351 -0.062 0 0 0
v -0.463 0.085 -0.115 0 0 0
v -0.463 0.316 -0.048 0 0 0
v -0.463 0.084 -0.048 0 0 0
v -0.463 0.363 0.000 0 0 0
v -0.463 0.049 -0.062 0 0 0
v -0.463 0.326 0.000 0 0 0
v -0.463 0.074 -0.000 0 0 0
v -0.463 0.351 0.062 0 0 0
v -0.463 0.037 -0.000 0 0 0
v -0.463 0.316 0.048 0 0 0
v -0.463 0.084 0.048 0 0 0
v -0.463 0.315 0.115 0 0 0
v -0.463 0.049 0.062 0 0 0
v -0.463 0.289 0.089 0 0 0
v -0.463 0.111 0.089 0 0 0
v -0.463 0.263 0.151 0 0 0
v -0.463 0.085 0.115 0 0 0
v -0.463 0.248 0.116 0 0 0
v -0.463 0.152 0.116 0 0 0
v -0.463 0.200 0.163 0 0 0
v -0.463 0.138 0.151 0 0 0
v -0.463 0.200 0.126 0 0 0

# Normal Array
vn -0.000 -0.831 0.556
vn -0.000 -0.556 0.831
vn -0.000 -0.831 0.556
vn -0.000 -0.556 0.831
vn -0.000 -0.981 0.195
vn -0.000 -0.981 0.195
vn 0.000 -0.981 -0.195
vn 0.000 -0.981 -0.195
vn 0.000 -0.831 -0.556
vn 0.000 -0.831 -0.556
vn 0.000 -0.556 -0.831
vn 0.000 -0.556 -0.831
vn -0.000 -0.195 0.981
vn 0.000 -0.195 0.981
vn 0.000 0.195 0.981
vn 0.000 0.195 0.981
vn 0.000 0.556 0.831
vn 0.000 0.556 0.831
vn 0.000 0.831 0.556
vn 0.000 0.831 0.556
vn 0.000 0.981 0.195
vn 0.000 0.981 0.195
vn -0.000 0.981 -0.195
vn -0.000 0.981 -0.195
vn -0.000 0.831 -0.556
vn -0.000 0.831 -0.556
vn -0.000 0.556 -0.831
vn -0.000 0.556 -0.831
vn -0.000 0.195 -0.981
vn 0.000 0.195 -0.981
vn 0.000 -0.195 -0.981
vn 0.000 -0.195 -0.981
vn -1.000 -0.000 0.000
vn -1.000 0.000 0.000
vn -1.000 0.000 0.000
vn -1.000 0.000 0.000
vn -1.000 -0.000 0.000
vn -1.000 0.000 0.000
vn -1.000 0.000 0.000
vn -1.000 0.000 0.000
vn -1.000 -0.000 0.000
vn -1.000 0.000 0.000
vn -1.000 0.000 0.000
vn -1.000 0.000 0.000
vn -1.000 -0.000 0.000
vn -1.000 0.000 0.000
vn -1.000 0.000 0.000
vn -1.000 0.000 0.000
vn -1.000 -0.000 0.000
vn -1.000 0.000 0.000
vn -1.000 0.000 -0.000
vn -1.000 0.000 0.000
vn -1.000 -0.000 -0.000
vn -1.000 0.000 0.000
vn -1.000 0.000 0.000
vn -1.000 0.000 0.000
vn -1.000 0.000 -0.000
vn -1.000 0.000 0.000
vn -1.000 0.000 0.000
vn -1.000 0.000 0.000
vn -1.000 0.000 -0.000
vn -1.000 0.000 0.000
vn -1.000 0.000 0.000
vn -1.000 0.000 -0.000
vn -0.000 0.195 0.981
vn -0.000 0.556 0.831
vn 0.000 0.195 0.981
vn -0.000 0.556 0.831
vn 0.000 -0.195 0.981
vn -0.000 0.831 0.556
vn 0.000 -0.195 0.981
vn -0.000 0.831 0.556
vn 0.000 -0.556 0.831
vn -0.000 0.981 0.195
vn 0.000 -0.556 0.831
vn -0.000 0.981 0.195
vn 0.000 -0.831 0.556
vn 0.000 0.981 -0.195
vn 0.000 -0.831 0.556
vn 0.000 0.981 -0.195
vn 0.000 -0.981 0.195
vn 0.000 0.831 -0.556
vn 0.000 -0.981 0.195
vn 0.000 0.831 -0.556
vn -0.000 -0.981 -0.195
vn 0.000 0.556 -0.831
vn -0.000 -0.981 -0.195
vn 0.000 0.556 -0.831
vn -0.000 -0.831 -0.556
vn 0.000 0.195 -0.981
vn -0.000 -0.831 -0.556
vn 0.000 0.195 -0.981
vn -0.000 -0.556 -0.831
vn 0.000 -0.195 -0.981
vn -0.000 -0.556 -0.831
vn -0.000 -0.195 -0.981
vn 1.000 0.000 0.000
vn 1.000 0.000 0.000
vn 1.000 0.000 0.000
vn 1.000 0.000 0.000
vn 1.000 0.000 0.000
vn 1.000 0.000 0.000
vn 1.000 0.000 0.000
vn 1.000 0.000 0.000
vn 1.000 0.000 0.000
vn 1.000 0.000 0.000
vn 1.000 0.000 0.000
vn 1.000 0.000 0.000
vn 1.000 0.000 0.000
vn 1.000 -0.000 0.000
vn 1.000 0.000 0.000
vn 1.000 0.000 0.000
vn 1.000 0.000 -0.000
vn 1.000 -0.000 0.000
vn 1.000 0.000 -0.000
vn 1.000 0.000 0.000
vn 1.000 0.000 0.000
vn 1.000 -0.000 0.000
vn 1.000 0.000 -0.000
vn 1.000 0.000 0.000
vn 1.000 0.000 0.000
vn 1.000 -0.000 0.000
vn 1.000 0.000 -0.000
vn 1.000 0.000 0.000
vn 1.000 0.000 0.000
vn 1.000 -0.000 0.000
vn 1.000 0.000 -0.000
vn 1.000 -0.000 0.000

# Facets
f 1//1 3//1 2//1
f 2//2 4//2 1//2
f 2//3 3//3 5//3
f 6//4 4//4 2//4
f 3//5 7//5 5//5
f 5//6 7//6 8//6
f 7//7 9//7 8//7
f 8//8 9//8 10//8
f 9//9 11//9 10//9
f 10//10 11//10 12//10
f 11//11 13//11 12//11
f 12//12 13//12 14//12
f 4//13 6//13 15//13
f 15//14 6//14 16//14
f 17//15 15//15 16//15
f 18//16 15//16 17//16
f 19//17 18//17 17//17
f 20//18 18//18 19//18
f 21//19 20//19 19//19
f 22//20 20//20 21//20
f 23//21 22//21 21//21
f 24//22 22//22 23//22
f 25//23 24//23 23//23
f 26//24 24//24 25//24
f 27//25 26//25 25//25
f 28//26 26//26 27//26
f 27//27 29//27 28//27
f 30//28 29//28 27//28
f 30//29 31//29 29//29
f 32//30 31//30 30//30
f 14//31 31//31 32//31
f 13//32 31//32 14//32
f 33//33 35//33 34//33
f 36//34 35//34 33//34
f 34//35 35//35 37//35
f 38//36 35//36 36//36
f 37//37 39//37 34//37
f 40//38 38//38 36//38
f 34//39 39//39 41//39
f 42//40 38//40 40//40
f 39//41 43//41 41//41
f 44//42 42//42 40//42
f 41//43 43//43 45//43
f 46//44 42//44 44//44
f 43//45 47//45 45//45
f 48//46 46//46 44//46
f 45//47 47//47 49//47
f 50//48 46//48 48//48
f 47//49 51//49 49//49
f 52//50 50//50 48//50
f 49//51 51//51 53//51
f 54//52 50//52 52//52
f 51//53 55//53 53//53
f 56//54 54//54 52//54
f 53//55 55//55 57//55
f 58//56 54//56 56//56
f 55//57 59//57 57//57
f 60//58 58//58 56//58
f 57//59 59//59 61//59
f 62//60 58//60 60//60
f 59//61 63//61 61//61
f 64//62 62//62 60//62
f 61//63 63//63 64//63
f 63//64 62//64 64//64
f 65//65 67//65 66//65
f 68//66 67//66 65//66
f 66//67 67//67 69//67
f 70//68 67//68 68//68
f 69//69 71//69 66//69
f 72//70 70//70 68//70
f 66//71 71//71 73//71
f 74//72 70//72 72//72
f 71//73 75//73 73//73
f 76//74 74//74 72//74
f 73//75 75//75 77//75
f 78//76 74//76 76//76
f 75//77 79//77 77//77
f 80//78 78//78 76//78
f 77//79 79//79 81//79
f 82//80 78//80 80//80
f 79//81 83//81 81//81
f 84//82 82//82 80//82
f 81//83 83//83 85//83
f 86//84 82//84 84//84
f 83//85 87//85 85//85
f 88//86 86//86 84//86
f 85//87 87//87 89//87
f 90//88 86//88 88//88
f 87//89 91//89 89//89
f 92//90 90//90 88//90
f 89//91 91//91 93//91
f 94//92 90//92 92//92
f 91//93 95//93 93//93
f 96//94 94//94 92//94
f 93//95 95//95 96//95
f 95//96 94//96 96//96
f 97//97 99//97 98//97
f 100//98 99//98 97//98
f 99//99 101//99 98//99
f 102//100 100//100 97//100
f 98//101 101//101 103//101
f 104//102 100//102 102//102
f 101//103 105//103 103//103
f 106//104 104//104 102//104
f 103//105 105//105 107//105
f 108//106 104//106 106//106
f 105//107 109//107 107//107
f 110//108 108//108 106//108
f 107//109 109//109 111//109
f 112//110 108//110 110//110
f 109//111 113//111 111//111
f 114//112 112//112 110//112
f 111//113 113//113 115//113
f 116//114 112//114 114//114
f 113//115 117//115 115//115
f 118//116 116//116 114//116
f 115//117 117//117 119//117
f 120//118 116//118 118//118
f 117//119 121//119 119//119
f 122//120 120//120 118//120
f 119//121 121//121 123//121
f 124//122 120//122 122//122
f 121//123 125//123 123//123
f 126//124 124//124 122//124
f 123//125 125//125 127//125
f 128//126 124//126 126//126
f 125//127 128//127 127//127
f 127//128 128//128 126//128

# Thank you for using Spin 3D

