# Created using Spin 3D

# Vertex Array 
v 0.513 0.188 -0.271 0 0 0
v 0.508 0.188 -0.273 0 0 0
v 0.492 0.188 -0.272 0 0 0
v 0.487 0.188 -0.270 0 0 0
v 0.515 0.188 -0.266 0 0 0
v 0.485 0.188 -0.266 0 0 0
v 0.515 0.188 -0.143 0 0 0
v 0.485 0.188 -0.143 0 0 0
v 0.515 0.188 -0.143 0 0 0
v 0.515 0.211 -0.143 0 0 0
v 0.515 0.188 -0.266 0 0 0
v 0.515 0.211 -0.266 0 0 0
v 0.513 0.211 -0.271 0 0 0
v 0.513 0.188 -0.271 0 0 0
v 0.508 0.211 -0.273 0 0 0
v 0.508 0.188 -0.273 0 0 0
v 0.492 0.188 -0.272 0 0 0
v 0.492 0.211 -0.272 0 0 0
v 0.487 0.211 -0.270 0 0 0
v 0.487 0.188 -0.270 0 0 0
v 0.485 0.211 -0.266 0 0 0
v 0.485 0.188 -0.266 0 0 0
v 0.485 0.188 -0.143 0 0 0
v 0.485 0.211 -0.143 0 0 0
v 0.492 0.211 -0.272 0 0 0
v 0.508 0.211 -0.273 0 0 0
v 0.513 0.211 -0.271 0 0 0
v 0.487 0.211 -0.270 0 0 0
v 0.515 0.211 -0.266 0 0 0
v 0.485 0.211 -0.266 0 0 0
v 0.515 0.211 -0.143 0 0 0
v 0.485 0.211 -0.143 0 0 0
v 0.485 0.036 -0.272 0 0 0
v 0.515 0.036 -0.273 0 0 0
v 0.522 0.036 -0.260 0 0 0
v 0.479 0.036 -0.260 0 0 0
v 0.485 0.036 -0.248 0 0 0
v 0.515 0.036 -0.247 0 0 0
v 0.515 0.000 -0.273 0 0 0
v 0.485 0.000 -0.272 0 0 0
v 0.479 0.000 -0.260 0 0 0
v 0.522 0.000 -0.260 0 0 0
v 0.515 0.000 -0.247 0 0 0
v 0.485 0.000 -0.248 0 0 0
v 0.515 0.188 0.143 0 0 0
v 0.485 0.188 0.143 0 0 0
v 0.485 0.188 0.266 0 0 0
v 0.515 0.188 0.266 0 0 0
v 0.487 0.188 0.270 0 0 0
v 0.513 0.188 0.271 0 0 0
v 0.492 0.188 0.272 0 0 0
v 0.508 0.188 0.273 0 0 0
v 0.515 0.211 0.143 0 0 0
v 0.515 0.188 0.143 0 0 0
v 0.515 0.188 0.266 0 0 0
v 0.515 0.211 0.266 0 0 0
v 0.513 0.211 0.271 0 0 0
v 0.513 0.188 0.271 0 0 0
v 0.508 0.211 0.273 0 0 0
v 0.508 0.188 0.273 0 0 0
v 0.492 0.188 0.272 0 0 0
v 0.492 0.211 0.272 0 0 0
v 0.487 0.211 0.270 0 0 0
v 0.487 0.188 0.270 0 0 0
v 0.485 0.211 0.266 0 0 0
v 0.485 0.188 0.266 0 0 0
v 0.485 0.188 0.143 0 0 0
v 0.485 0.211 0.143 0 0 0
v 0.485 0.211 0.266 0 0 0
v 0.485 0.211 0.143 0 0 0
v 0.515 0.211 0.143 0 0 0
v 0.515 0.211 0.266 0 0 0
v 0.487 0.211 0.270 0 0 0
v 0.513 0.211 0.271 0 0 0
v 0.492 0.211 0.272 0 0 0
v 0.508 0.211 0.273 0 0 0
v 0.515 0.036 0.273 0 0 0
v 0.485 0.036 0.272 0 0 0
v 0.522 0.036 0.260 0 0 0
v 0.479 0.036 0.260 0 0 0
v 0.485 0.036 0.248 0 0 0
v 0.515 0.036 0.247 0 0 0
v 0.485 0.000 0.272 0 0 0
v 0.515 0.000 0.273 0 0 0
v 0.479 0.000 0.260 0 0 0
v 0.522 0.000 0.260 0 0 0
v 0.515 0.000 0.247 0 0 0
v 0.485 0.000 0.248 0 0 0
v 0.522 0.036 0.260 0 0 0
v 0.522 0.000 0.260 0 0 0
v 0.515 0.000 0.273 0 0 0
v 0.515 0.000 0.247 0 0 0
v 0.515 0.036 0.273 0 0 0
v 0.515 0.036 0.247 0 0 0
v 0.485 0.000 0.272 0 0 0
v 0.485 0.000 0.248 0 0 0
v 0.485 0.036 0.272 0 0 0
v 0.485 0.036 0.248 0 0 0
v 0.479 0.000 0.260 0 0 0
v 0.479 0.036 0.260 0 0 0
v 0.522 0.000 -0.260 0 0 0
v 0.522 0.036 -0.260 0 0 0
v 0.515 0.000 -0.273 0 0 0
v 0.515 0.000 -0.247 0 0 0
v 0.515 0.036 -0.273 0 0 0
v 0.515 0.036 -0.247 0 0 0
v 0.485 0.000 -0.272 0 0 0
v 0.485 0.000 -0.248 0 0 0
v 0.485 0.036 -0.272 0 0 0
v 0.485 0.036 -0.248 0 0 0
v 0.479 0.000 -0.260 0 0 0
v 0.479 0.036 -0.260 0 0 0
v 0.493 0.190 0.250 0 0 0
v 0.487 0.190 0.260 0 0 0
v 0.487 0.000 0.260 0 0 0
v 0.493 0.190 0.269 0 0 0
v 0.493 0.000 0.250 0 0 0
v 0.493 0.000 0.269 0 0 0
v 0.507 0.190 0.250 0 0 0
v 0.507 0.190 0.269 0 0 0
v 0.507 0.000 0.250 0 0 0
v 0.507 0.000 0.269 0 0 0
v 0.513 0.190 0.260 0 0 0
v 0.513 0.000 0.260 0 0 0
v 0.487 0.190 -0.260 0 0 0
v 0.493 0.190 -0.250 0 0 0
v 0.487 0.000 -0.260 0 0 0
v 0.493 0.190 -0.269 0 0 0
v 0.493 0.000 -0.250 0 0 0
v 0.493 0.000 -0.269 0 0 0
v 0.507 0.190 -0.250 0 0 0
v 0.507 0.190 -0.269 0 0 0
v 0.507 0.000 -0.250 0 0 0
v 0.507 0.000 -0.269 0 0 0
v 0.513 0.190 -0.260 0 0 0
v 0.513 0.000 -0.260 0 0 0

# Normal Array
vn 0.000 -1.000 0.000
vn 0.000 -1.000 0.000
vn 0.000 -1.000 0.000
vn 0.000 -1.000 0.000
vn 0.000 -1.000 0.000
vn 0.000 -1.000 0.000
vn 1.000 -0.000 0.000
vn 1.000 0.000 0.000
vn 0.923 0.000 -0.384
vn 0.923 0.000 -0.384
vn 0.373 0.000 -0.928
vn 0.373 0.000 -0.928
vn -0.013 0.000 -1.000
vn -0.013 0.000 -1.000
vn -0.393 -0.000 -0.920
vn -0.393 -0.000 -0.920
vn -0.925 -0.000 -0.381
vn -0.925 -0.000 -0.381
vn -1.000 0.000 0.000
vn -1.000 0.000 0.000
vn -0.000 1.000 0.000
vn 0.000 1.000 0.000
vn 0.000 1.000 -0.000
vn 0.000 1.000 0.000
vn -0.000 1.000 -0.000
vn -0.000 1.000 -0.000
vn -0.000 1.000 0.000
vn -0.000 1.000 0.000
vn 0.000 1.000 -0.000
vn 0.000 1.000 -0.000
vn 0.000 -1.000 0.000
vn -0.000 -1.000 0.000
vn -0.000 -1.000 0.000
vn -0.000 -1.000 0.000
vn -0.000 -1.000 0.000
vn 0.000 -1.000 0.000
vn 0.000 -1.000 0.000
vn 0.000 -1.000 0.000
vn 0.000 -1.000 0.000
vn 0.000 -1.000 0.000
vn 1.000 0.000 0.000
vn 1.000 0.000 0.000
vn 0.923 0.000 0.384
vn 0.923 -0.000 0.384
vn 0.373 0.000 0.928
vn 0.373 -0.000 0.928
vn -0.013 0.000 1.000
vn -0.013 0.000 1.000
vn -0.393 0.000 0.920
vn -0.393 0.000 0.920
vn -0.925 0.000 0.381
vn -0.925 0.000 0.381
vn -1.000 -0.000 0.000
vn -1.000 0.000 0.000
vn -0.000 1.000 0.000
vn -0.000 1.000 0.000
vn 0.000 1.000 0.000
vn 0.000 1.000 0.000
vn 0.000 1.000 0.000
vn 0.000 1.000 0.000
vn 0.000 1.000 0.000
vn 0.000 1.000 0.000
vn -0.000 1.000 0.000
vn 0.000 1.000 0.000
vn 0.000 -1.000 -0.000
vn -0.000 -1.000 -0.000
vn -0.000 -1.000 -0.000
vn -0.000 -1.000 -0.000
vn 0.880 0.000 0.475
vn 0.880 0.000 -0.475
vn 0.880 0.000 0.475
vn 0.880 0.000 -0.475
vn -0.013 0.000 1.000
vn -0.013 0.000 -1.000
vn -0.013 0.000 1.000
vn -0.013 0.000 -1.000
vn -0.882 0.000 0.471
vn -0.882 0.000 -0.471
vn -0.882 0.000 0.471
vn -0.882 0.000 -0.471
vn 0.880 0.000 -0.475
vn 0.880 0.000 0.475
vn 0.880 0.000 -0.475
vn 0.880 0.000 0.475
vn -0.013 0.000 -1.000
vn -0.013 0.000 1.000
vn -0.013 0.000 -1.000
vn -0.013 0.000 1.000
vn -0.882 0.000 -0.471
vn -0.882 0.000 0.471
vn -0.882 0.000 -0.471
vn -0.882 0.000 0.471
vn -0.839 0.000 -0.545
vn -0.839 -0.000 0.545
vn -0.839 -0.000 -0.545
vn -0.839 -0.000 0.545
vn 0.000 -0.000 -1.000
vn 0.000 -0.000 1.000
vn 0.000 -0.000 -1.000
vn 0.000 -0.000 1.000
vn 0.839 -0.000 -0.545
vn 0.839 -0.000 0.545
vn 0.839 0.000 -0.545
vn 0.839 -0.000 0.545
vn -0.839 0.000 0.545
vn -0.839 -0.000 -0.545
vn -0.839 -0.000 0.545
vn -0.839 -0.000 -0.545
vn 0.000 -0.000 1.000
vn 0.000 -0.000 -1.000
vn 0.000 -0.000 1.000
vn 0.000 -0.000 -1.000
vn 0.839 -0.000 0.545
vn 0.839 -0.000 -0.545
vn 0.839 0.000 0.545
vn 0.839 -0.000 -0.545

# Facets
f 1//1 3//1 2//1
f 3//2 1//2 4//2
f 4//3 1//3 5//3
f 4//4 5//4 6//4
f 6//5 5//5 7//5
f 6//6 7//6 8//6
f 9//7 11//7 10//7
f 10//8 11//8 12//8
f 12//9 11//9 13//9
f 13//10 11//10 14//10
f 13//11 14//11 15//11
f 15//12 14//12 16//12
f 16//13 17//13 15//13
f 15//14 17//14 18//14
f 18//15 17//15 19//15
f 19//16 17//16 20//16
f 19//17 20//17 21//17
f 21//18 20//18 22//18
f 22//19 23//19 21//19
f 21//20 23//20 24//20
f 25//21 27//21 26//21
f 27//22 25//22 28//22
f 27//23 28//23 29//23
f 29//24 28//24 30//24
f 29//25 30//25 31//25
f 31//26 30//26 32//26
f 33//27 35//27 34//27
f 36//28 35//28 33//28
f 37//29 35//29 36//29
f 38//30 35//30 37//30
f 39//31 41//31 40//31
f 42//32 41//32 39//32
f 43//33 41//33 42//33
f 44//34 41//34 43//34
f 45//35 47//35 46//35
f 47//36 45//36 48//36
f 47//37 48//37 49//37
f 49//38 48//38 50//38
f 49//39 50//39 51//39
f 51//40 50//40 52//40
f 53//41 55//41 54//41
f 56//42 55//42 53//42
f 57//43 55//43 56//43
f 58//44 55//44 57//44
f 59//45 58//45 57//45
f 60//46 58//46 59//46
f 59//47 61//47 60//47
f 62//48 61//48 59//48
f 63//49 61//49 62//49
f 64//50 61//50 63//50
f 65//51 64//51 63//51
f 66//52 64//52 65//52
f 65//53 67//53 66//53
f 68//54 67//54 65//54
f 69//55 71//55 70//55
f 71//56 69//56 72//56
f 72//57 69//57 73//57
f 72//58 73//58 74//58
f 74//59 73//59 75//59
f 74//60 75//60 76//60
f 77//61 79//61 78//61
f 78//62 79//62 80//62
f 80//63 79//63 81//63
f 81//64 79//64 82//64
f 83//65 85//65 84//65
f 84//66 85//66 86//66
f 86//67 85//67 87//67
f 87//68 85//68 88//68
f 89//69 91//69 90//69
f 90//70 92//70 89//70
f 93//71 91//71 89//71
f 89//72 92//72 94//72
f 93//73 95//73 91//73
f 92//74 96//74 94//74
f 97//75 95//75 93//75
f 94//76 96//76 98//76
f 97//77 99//77 95//77
f 96//78 99//78 98//78
f 100//79 99//79 97//79
f 98//80 99//80 100//80
f 101//81 103//81 102//81
f 102//82 104//82 101//82
f 102//83 103//83 105//83
f 106//84 104//84 102//84
f 103//85 107//85 105//85
f 106//86 108//86 104//86
f 105//87 107//87 109//87
f 110//88 108//88 106//88
f 107//89 111//89 109//89
f 110//90 111//90 108//90
f 109//91 111//91 112//91
f 112//92 111//92 110//92
f 113//93 115//93 114//93
f 114//94 115//94 116//94
f 117//95 115//95 113//95
f 116//96 115//96 118//96
f 113//97 119//97 117//97
f 118//98 120//98 116//98
f 117//99 119//99 121//99
f 122//100 120//100 118//100
f 123//101 121//101 119//101
f 120//102 122//102 123//102
f 124//103 121//103 123//103
f 123//104 122//104 124//104
f 125//105 127//105 126//105
f 128//106 127//106 125//106
f 126//107 127//107 129//107
f 130//108 127//108 128//108
f 129//109 131//109 126//109
f 128//110 132//110 130//110
f 133//111 131//111 129//111
f 130//112 132//112 134//112
f 131//113 133//113 135//113
f 135//114 134//114 132//114
f 135//115 133//115 136//115
f 136//116 134//116 135//116

# Thank you for using Spin 3D

