# Created using Spin 3D

# Vertex Array 
v -0.500 0.339 0.057
v 0.500 0.339 0.057
v -0.500 0.306 0.106
v 0.500 0.306 0.106
v 0.500 0.350 -0.000
v -0.500 0.257 0.139
v -0.500 0.350 0.000
v 0.500 0.257 0.139
v 0.500 0.339 -0.057
v -0.500 0.200 0.150
v -0.500 0.339 -0.057
v 0.500 0.200 0.150
v 0.500 0.306 -0.106
v -0.500 0.143 0.139
v -0.500 0.306 -0.106
v 0.500 0.143 0.139
v 0.500 0.257 -0.139
v -0.500 0.094 0.106
v -0.500 0.257 -0.139
v 0.500 0.094 0.106
v 0.500 0.200 -0.150
v -0.500 0.061 0.057
v -0.500 0.200 -0.150
v 0.500 0.061 0.057
v 0.500 0.143 -0.139
v -0.500 0.050 0.000
v -0.500 0.143 -0.139
v 0.500 0.050 -0.000
v 0.500 0.094 -0.106
v -0.500 0.061 -0.057
v -0.500 0.094 -0.106
v 0.500 0.061 -0.057

# Normal Array
vn 0.000 0.831 0.556
vn 0.000 0.831 0.556
vn 0.000 0.981 0.195
vn 0.000 0.556 0.831
vn 0.000 0.981 0.195
vn 0.000 0.556 0.831
vn -0.000 0.981 -0.195
vn 0.000 0.195 0.981
vn -0.000 0.981 -0.195
vn 0.000 0.195 0.981
vn -0.000 0.831 -0.556
vn 0.000 -0.195 0.981
vn -0.000 0.831 -0.556
vn 0.000 -0.195 0.981
vn -0.000 0.556 -0.831
vn 0.000 -0.556 0.831
vn -0.000 0.556 -0.831
vn 0.000 -0.556 0.831
vn -0.000 0.195 -0.981
vn 0.000 -0.831 0.556
vn -0.000 0.195 -0.981
vn 0.000 -0.831 0.556
vn -0.000 -0.195 -0.981
vn 0.000 -0.981 0.195
vn -0.000 -0.195 -0.981
vn 0.000 -0.981 0.195
vn -0.000 -0.556 -0.831
vn -0.000 -0.981 -0.195
vn -0.000 -0.556 -0.831
vn -0.000 -0.981 -0.195
vn -0.000 -0.831 -0.556
vn -0.000 -0.831 -0.556

# Facets
f 1//1 3//1 2//1
f 2//2 3//2 4//2
f 5//3 1//3 2//3
f 3//4 6//4 4//4
f 7//5 1//5 5//5
f 4//6 6//6 8//6
f 9//7 7//7 5//7
f 6//8 10//8 8//8
f 11//9 7//9 9//9
f 8//10 10//10 12//10
f 13//11 11//11 9//11
f 10//12 14//12 12//12
f 15//13 11//13 13//13
f 12//14 14//14 16//14
f 17//15 15//15 13//15
f 14//16 18//16 16//16
f 19//17 15//17 17//17
f 16//18 18//18 20//18
f 21//19 19//19 17//19
f 18//20 22//20 20//20
f 23//21 19//21 21//21
f 20//22 22//22 24//22
f 25//23 23//23 21//23
f 22//24 26//24 24//24
f 27//25 23//25 25//25
f 24//26 26//26 28//26
f 29//27 27//27 25//27
f 26//28 30//28 28//28
f 31//29 27//29 29//29
f 28//30 30//30 32//30
f 32//31 31//31 29//31
f 30//32 31//32 32//32

# Thank you for using Spin 3D

