# Created using Spin 3D

# Vertex Array 
v 0.000 0.050 0.000 0 0 0
v 0.150 0.200 0.150 0 0 0
v 0.500 0.200 0.150 0 0 0
v 0.000 0.350 0.000 0 0 0
v 0.500 0.050 0.000 0 0 0
v 0.500 0.350 0.000 0 0 0
v 0.150 0.200 -0.150 0 0 0
v 0.500 0.200 -0.150 0 0 0
v 0.150 0.200 0.500 0 0 0
v 0.150 0.200 0.150 0 0 0
v 0.000 0.050 0.500 0 0 0
v 0.000 0.350 0.500 0 0 0
v 0.000 0.050 0.000 0 0 0
v 0.000 0.350 0.000 0 0 0
v -0.150 0.200 0.500 0 0 0
v -0.150 0.200 -0.500 0 0 0
v -0.000 0.050 -0.500 0 0 0
v -0.000 0.350 -0.500 0 0 0
v 0.150 0.200 -0.150 0 0 0
v 0.150 0.200 -0.500 0 0 0

# Normal Array
vn -0.000 -0.707 0.707
vn -0.000 0.707 0.707
vn 0.000 -0.707 0.707
vn 0.000 0.707 0.707
vn -0.000 -0.707 -0.707
vn -0.000 0.707 -0.707
vn -0.000 -0.707 -0.707
vn -0.000 0.707 -0.707
vn 0.707 -0.707 -0.000
vn 0.707 0.707 -0.000
vn 0.707 -0.707 0.000
vn 0.707 0.707 0.000
vn -0.707 -0.707 -0.000
vn -0.707 0.707 -0.000
vn -0.707 -0.707 0.000
vn -0.707 0.707 0.000
vn -0.707 -0.707 0.000
vn -0.707 0.707 0.000
vn 0.707 -0.707 -0.000
vn 0.707 0.707 -0.000
vn 0.707 -0.707 0.000
vn 0.707 0.707 0.000

# Facets
f 1//1 3//1 2//1
f 2//2 3//2 4//2
f 5//3 3//3 1//3
f 4//4 3//4 6//4
f 7//5 5//5 1//5
f 4//6 6//6 7//6
f 8//7 5//7 7//7
f 7//8 6//8 8//8
f 9//9 11//9 10//9
f 10//10 12//10 9//10
f 10//11 11//11 13//11
f 14//12 12//12 10//12
f 15//13 13//13 11//13
f 14//14 15//14 12//14
f 16//15 13//15 15//15
f 14//16 16//16 15//16
f 13//17 16//17 17//17
f 16//18 14//18 18//18
f 17//19 19//19 13//19
f 14//20 19//20 18//20
f 20//21 19//21 17//21
f 18//22 19//22 20//22

# Thank you for using Spin 3D

