# Created using Spin 3D

# Vertex Array 
v -0.500 0.200 -0.150 0 0 0
v -0.500 0.050 -0.000 0 0 0
v -0.238 0.200 -0.150 0 0 0
v -0.500 0.350 -0.000 0 0 0
v -0.238 0.050 -0.000 0 0 0
v -0.500 0.200 0.150 0 0 0
v -0.238 0.200 0.150 0 0 0
v -0.238 0.350 -0.000 0 0 0
v -0.143 0.350 0.008 0 0 0
v -0.204 0.200 0.156 0 0 0
v -0.143 0.050 0.008 0 0 0
v -0.090 0.200 -0.120 0 0 0
v -0.069 0.350 0.069 0 0 0
v -0.175 0.200 0.175 0 0 0
v -0.069 0.050 0.069 0 0 0
v 0.037 0.200 -0.037 0 0 0
v -0.008 0.350 0.143 0 0 0
v 0.120 0.200 0.090 0 0 0
v -0.008 0.050 0.143 0 0 0
v -0.156 0.200 0.205 0 0 0
v -0.000 0.350 0.238 0 0 0
v 0.150 0.200 0.238 0 0 0
v -0.000 0.050 0.238 0 0 0
v -0.150 0.200 0.238 0 0 0
v -0.000 0.350 0.500 0 0 0
v 0.150 0.200 0.500 0 0 0
v -0.150 0.200 0.500 0 0 0
v -0.000 0.050 0.500 0 0 0

# Normal Array
vn 0.000 -0.707 -0.707
vn 0.000 0.707 -0.707
vn 0.000 -0.707 -0.707
vn -0.000 -0.707 0.707
vn -0.000 0.707 0.707
vn -0.000 -0.707 0.707
vn 0.000 0.707 -0.707
vn -0.000 0.707 0.707
vn -0.057 0.706 0.706
vn 0.057 0.706 -0.706
vn -0.128 -0.701 0.701
vn -0.125 0.723 0.679
vn 0.057 -0.706 -0.706
vn -0.057 -0.714 0.698
vn 0.145 0.672 -0.727
vn 0.145 -0.672 -0.727
vn -0.448 0.715 0.537
vn 0.481 0.661 -0.576
vn -0.379 -0.725 0.575
vn -0.393 0.700 0.597
vn 0.481 -0.661 -0.576
vn -0.454 -0.706 0.544
vn 0.393 0.700 -0.597
vn 0.393 -0.700 -0.597
vn 0.547 0.705 -0.451
vn -0.547 0.705 0.451
vn 0.598 -0.699 -0.391
vn 0.620 0.672 -0.405
vn -0.547 -0.705 0.451
vn 0.578 -0.662 -0.477
vn -0.577 0.724 0.377
vn -0.578 -0.724 0.378
vn 0.748 0.661 -0.065
vn -0.698 0.714 0.060
vn 0.726 -0.672 -0.148
vn 0.700 0.700 -0.143
vn -0.698 -0.713 0.060
vn 0.706 -0.706 -0.061
vn -0.701 0.701 0.130
vn -0.701 -0.701 0.130
vn 0.707 0.707 0.000
vn -0.707 0.707 -0.000
vn 0.707 0.707 -0.000
vn 0.707 -0.707 -0.000
vn -0.707 0.707 -0.000
vn -0.707 -0.707 -0.000
vn 0.707 -0.707 -0.000
vn -0.707 -0.707 0.000

# Facets
f 1//1 3//1 2//1
f 4//2 3//2 1//2
f 2//3 3//3 5//3
f 2//4 5//4 6//4
f 6//5 7//5 4//5
f 6//6 5//6 7//6
f 8//7 3//7 4//7
f 4//8 7//8 8//8
f 8//9 7//9 9//9
f 9//10 3//10 8//10
f 7//11 5//11 10//11
f 9//12 7//12 10//12
f 5//13 3//13 11//13
f 10//14 5//14 11//14
f 12//15 3//15 9//15
f 11//16 3//16 12//16
f 9//17 10//17 13//17
f 13//18 12//18 9//18
f 10//19 11//19 14//19
f 13//20 10//20 14//20
f 11//21 12//21 15//21
f 14//22 11//22 15//22
f 16//23 12//23 13//23
f 15//24 12//24 16//24
f 17//25 16//25 13//25
f 13//26 14//26 17//26
f 18//27 15//27 16//27
f 18//28 16//28 17//28
f 19//29 14//29 15//29
f 19//30 15//30 18//30
f 17//31 14//31 20//31
f 20//32 14//32 19//32
f 21//33 18//33 17//33
f 17//34 20//34 21//34
f 22//35 19//35 18//35
f 22//36 18//36 21//36
f 23//37 20//37 19//37
f 23//38 19//38 22//38
f 21//39 20//39 24//39
f 24//40 20//40 23//40
f 21//41 25//41 22//41
f 21//42 24//42 25//42
f 22//43 25//43 26//43
f 22//44 26//44 23//44
f 25//45 24//45 27//45
f 24//46 23//46 27//46
f 23//47 26//47 28//47
f 27//48 23//48 28//48

# Thank you for using Spin 3D

