# Created using Spin 3D

# Vertex Array 
v 0.007 -0.650 -0.503 0 0 0
v -0.143 -0.500 -0.503 0 0 0
v -0.143 -0.500 -0.242 0 0 0
v 0.007 -0.350 -0.503 0 0 0
v 0.007 -0.650 -0.242 0 0 0
v 0.157 -0.500 -0.503 0 0 0
v 0.007 -0.350 -0.242 0 0 0
v 0.157 -0.500 -0.242 0 0 0
v 0.157 -0.431 -0.073 0 0 0
v 0.007 -0.537 0.033 0 0 0
v -0.143 -0.431 -0.073 0 0 0
v 0.007 -0.325 -0.179 0 0 0
v 0.157 -0.262 -0.014 0 0 0
v 0.007 -0.262 0.147 0 0 0
v -0.143 -0.262 -0.014 0 0 0
v 0.007 -0.262 -0.153 0 0 0
v 0.153 -0.000 0.000 0 0 0
v 0.007 -0.000 0.150 0 0 0
v -0.138 0.000 -0.000 0 0 0
v 0.007 0.000 -0.150 0 0 0
v -0.011 0.262 0.150 0 0 0
v -0.150 0.262 -0.000 0 0 0
v 0.150 0.262 -0.000 0 0 0
v -0.011 0.262 -0.150 0 0 0
v -0.175 0.325 -0.000 0 0 0
v -0.069 0.431 0.150 0 0 0
v 0.037 0.537 -0.000 0 0 0
v -0.069 0.431 -0.150 0 0 0
v -0.238 0.350 -0.000 0 0 0
v -0.238 0.500 0.150 0 0 0
v -0.238 0.650 -0.000 0 0 0
v -0.238 0.500 -0.150 0 0 0
v -0.500 0.500 -0.150 0 0 0
v -0.500 0.350 0.000 0 0 0
v -0.500 0.650 0.000 0 0 0
v -0.500 0.500 0.150 0 0 0

# Normal Array
vn -0.707 -0.707 0.000
vn -0.707 0.707 0.000
vn -0.707 -0.707 0.000
vn 0.707 -0.707 -0.000
vn 0.707 0.707 -0.000
vn -0.707 0.707 0.000
vn 0.707 -0.707 -0.000
vn 0.707 0.707 0.000
vn 0.679 -0.679 0.278
vn 0.679 0.679 -0.278
vn -0.679 -0.679 0.279
vn 0.678 -0.680 0.279
vn -0.679 0.679 -0.278
vn -0.678 -0.680 0.279
vn 0.677 0.683 -0.274
vn -0.677 0.683 -0.274
vn 0.669 -0.244 0.703
vn 0.669 0.244 -0.702
vn -0.678 -0.280 0.680
vn 0.704 -0.271 0.657
vn -0.669 0.244 -0.703
vn -0.711 -0.230 0.664
vn 0.653 0.283 -0.703
vn -0.652 0.283 -0.703
vn 0.731 -0.025 0.682
vn -0.731 -0.009 0.682
vn 0.717 -0.009 0.697
vn -0.679 0.050 -0.732
vn -0.717 -0.026 0.697
vn 0.680 0.009 -0.733
vn 0.716 0.049 -0.696
vn -0.717 0.009 -0.697
vn 0.716 0.050 0.696
vn -0.717 -0.032 0.697
vn -0.732 -0.051 0.679
vn 0.717 0.009 -0.697
vn 0.682 0.009 0.731
vn -0.716 -0.050 -0.696
vn -0.732 -0.033 -0.680
vn 0.682 0.047 -0.730
vn -0.703 -0.283 0.652
vn -0.703 -0.283 -0.653
vn 0.664 0.230 0.711
vn -0.703 -0.244 0.669
vn 0.657 0.271 -0.704
vn 0.680 0.280 0.678
vn -0.702 -0.244 -0.669
vn 0.703 0.244 -0.669
vn -0.274 -0.683 0.677
vn -0.274 -0.683 -0.677
vn 0.279 0.680 0.678
vn -0.278 -0.679 0.679
vn 0.279 0.680 -0.678
vn 0.279 0.679 0.679
vn -0.278 -0.679 -0.679
vn 0.278 0.679 -0.679
vn 0.000 -0.707 -0.707
vn -0.000 0.707 -0.707
vn -0.000 -0.707 -0.707
vn 0.000 -0.707 0.707
vn -0.000 0.707 -0.707
vn 0.000 0.707 0.707
vn 0.000 -0.707 0.707
vn 0.000 0.707 0.707

# Facets
f 1//1 3//1 2//1
f 2//2 3//2 4//2
f 5//3 3//3 1//3
f 6//4 5//4 1//4
f 4//5 7//5 6//5
f 4//6 3//6 7//6
f 8//7 5//7 6//7
f 6//8 7//8 8//8
f 9//9 5//9 8//9
f 8//10 7//10 9//10
f 10//11 3//11 5//11
f 10//12 5//12 9//12
f 11//13 7//13 3//13
f 11//14 3//14 10//14
f 9//15 7//15 12//15
f 12//16 7//16 11//16
f 13//17 10//17 9//17
f 9//18 12//18 13//18
f 14//19 11//19 10//19
f 14//20 10//20 13//20
f 15//21 12//21 11//21
f 15//22 11//22 14//22
f 13//23 12//23 16//23
f 16//24 12//24 15//24
f 13//25 17//25 14//25
f 14//26 18//26 15//26
f 14//27 17//27 18//27
f 15//28 19//28 16//28
f 15//29 18//29 19//29
f 16//30 20//30 13//30
f 13//31 20//31 17//31
f 16//32 19//32 20//32
f 18//33 17//33 21//33
f 19//34 18//34 22//34
f 22//35 18//35 21//35
f 17//36 20//36 23//36
f 21//37 17//37 23//37
f 20//38 19//38 24//38
f 24//39 19//39 22//39
f 23//40 20//40 24//40
f 21//41 25//41 22//41
f 22//42 25//42 24//42
f 23//43 26//43 21//43
f 26//44 25//44 21//44
f 24//45 27//45 23//45
f 27//46 26//46 23//46
f 24//47 25//47 28//47
f 28//48 27//48 24//48
f 26//49 29//49 25//49
f 25//50 29//50 28//50
f 27//51 30//51 26//51
f 30//52 29//52 26//52
f 28//53 31//53 27//53
f 31//54 30//54 27//54
f 28//55 29//55 32//55
f 32//56 31//56 28//56
f 32//57 29//57 33//57
f 33//58 31//58 32//58
f 33//59 29//59 34//59
f 29//60 30//60 34//60
f 35//61 31//61 33//61
f 35//62 30//62 31//62
f 34//63 30//63 36//63
f 36//64 30//64 35//64

# Thank you for using Spin 3D

