# Created using Spin 3D

# Vertex Array 
v 0.556 0.411 0.126
v 0.538 0.411 0.128
v 0.522 0.411 0.124
v 0.522 0.411 0.124
v 0.510 0.411 0.113
v 0.576 0.411 0.118
v 0.502 0.411 0.096
v 0.557 0.411 0.094
v 0.532 0.411 0.080
v 0.500 0.411 0.074
v 0.500 0.411 -0.074
v 0.696 0.411 0.046
v 0.713 0.411 0.032
v 0.532 0.411 -0.080
v 0.502 0.411 -0.096
v 0.510 0.411 -0.113
v 0.724 0.411 0.017
v 0.685 0.411 0.015
v 0.522 0.411 -0.124
v 0.728 0.411 -0.000
v 0.522 0.411 -0.124
v 0.728 0.411 -0.000
v 0.576 0.411 -0.118
v 0.557 0.411 -0.094
v 0.556 0.411 -0.126
v 0.538 0.411 -0.128
v 0.696 0.411 -0.046
v 0.685 0.411 -0.015
v 0.713 0.411 -0.032
v 0.724 0.411 -0.017
v 0.692 0.411 -0.008
v 0.695 0.411 -0.000
v 0.692 0.411 0.008
v 0.685 0.411 0.015
v 0.522 0.376 -0.124
v 0.522 0.411 -0.124
v 0.510 0.411 -0.113
v 0.510 0.376 -0.113
v 0.502 0.411 -0.096
v 0.502 0.376 -0.096
v 0.500 0.411 -0.074
v 0.500 0.376 -0.074
v 0.500 0.411 0.074
v 0.500 0.376 0.074
v 0.502 0.411 0.096
v 0.502 0.376 0.096
v 0.510 0.411 0.113
v 0.510 0.376 0.113
v 0.522 0.411 0.124
v 0.522 0.376 0.124
v 0.522 0.376 -0.124
v 0.538 0.376 -0.128
v 0.522 0.411 -0.124
v 0.538 0.411 -0.128
v 0.556 0.376 -0.126
v 0.556 0.411 -0.126
v 0.576 0.376 -0.118
v 0.576 0.411 -0.118
v 0.696 0.376 -0.046
v 0.696 0.411 -0.046
v 0.713 0.376 -0.032
v 0.713 0.411 -0.032
v 0.724 0.376 -0.017
v 0.724 0.411 -0.017
v 0.728 0.376 -0.000
v 0.728 0.411 -0.000
v 0.522 0.376 0.124
v 0.522 0.411 0.124
v 0.538 0.411 0.128
v 0.538 0.376 0.128
v 0.556 0.411 0.126
v 0.556 0.376 0.126
v 0.576 0.411 0.118
v 0.576 0.376 0.118
v 0.696 0.411 0.046
v 0.696 0.376 0.046
v 0.713 0.411 0.032
v 0.713 0.376 0.032
v 0.724 0.411 0.017
v 0.724 0.376 0.017
v 0.728 0.411 -0.000
v 0.728 0.376 -0.000
v 0.534 0.411 0.090
v 0.522 0.411 0.124
v 0.532 0.411 0.080
v 0.539 0.411 0.096
v 0.547 0.411 0.098
v 0.557 0.411 0.094
v 0.547 0.411 -0.098
v 0.522 0.411 -0.124
v 0.557 0.411 -0.094
v 0.539 0.411 -0.096
v 0.534 0.411 -0.090
v 0.532 0.411 -0.080
v 0.539 0.411 0.096
v 0.539 0.376 0.096
v 0.547 0.376 0.098
v 0.547 0.411 0.098
v 0.557 0.376 0.094
v 0.557 0.411 0.094
v 0.685 0.376 0.015
v 0.685 0.411 0.015
v 0.692 0.376 0.008
v 0.692 0.411 0.008
v 0.695 0.376 0.000
v 0.695 0.411 -0.000
v 0.539 0.411 0.096
v 0.534 0.411 0.090
v 0.539 0.376 0.096
v 0.534 0.376 0.090
v 0.532 0.411 0.080
v 0.532 0.376 0.080
v 0.532 0.411 -0.080
v 0.532 0.376 -0.080
v 0.534 0.411 -0.090
v 0.534 0.376 -0.090
v 0.539 0.411 -0.096
v 0.539 0.376 -0.096
v 0.695 0.411 -0.000
v 0.695 0.376 0.000
v 0.692 0.376 -0.008
v 0.692 0.411 -0.008
v 0.685 0.376 -0.015
v 0.685 0.411 -0.015
v 0.557 0.376 -0.094
v 0.557 0.411 -0.094
v 0.547 0.376 -0.098
v 0.547 0.411 -0.098
v 0.539 0.376 -0.096
v 0.539 0.411 -0.096

# Normal Array
vn 0.000 1.000 0.000
vn 0.000 1.000 0.000
vn 0.000 1.000 0.000
vn 0.000 1.000 0.000
vn 0.000 1.000 0.000
vn 0.000 1.000 0.000
vn 0.000 1.000 0.000
vn 0.000 1.000 0.000
vn 0.000 1.000 0.000
vn 0.000 1.000 0.000
vn 0.000 1.000 0.000
vn 0.000 1.000 -0.000
vn 0.000 1.000 0.000
vn 0.000 1.000 0.000
vn 0.000 1.000 0.000
vn 0.000 1.000 0.000
vn 0.000 1.000 -0.000
vn 0.000 1.000 0.000
vn 0.000 1.000 0.000
vn -0.000 1.000 -0.000
vn 0.000 1.000 0.000
vn 0.000 1.000 0.000
vn 0.000 1.000 -0.000
vn 0.000 1.000 0.000
vn 0.000 1.000 -0.000
vn 0.000 1.000 0.000
vn 0.000 1.000 0.000
vn 0.000 1.000 -0.000
vn 0.000 1.000 -0.000
vn 0.000 1.000 -0.000
vn 0.000 1.000 0.000
vn 0.000 1.000 0.000
vn -0.000 1.000 -0.000
vn -0.000 1.000 -0.000
vn -0.677 0.000 -0.736
vn -0.677 0.000 -0.736
vn -0.911 0.000 -0.411
vn -0.911 0.000 -0.411
vn -0.993 0.000 -0.120
vn -0.993 0.000 -0.120
vn -1.000 0.000 0.000
vn -1.000 0.000 0.000
vn -0.993 -0.000 0.120
vn -0.993 -0.000 0.120
vn -0.911 -0.000 0.411
vn -0.911 -0.000 0.411
vn -0.677 -0.000 0.736
vn -0.677 -0.000 0.736
vn -0.284 0.000 -0.959
vn -0.284 0.000 -0.959
vn 0.114 0.000 -0.993
vn 0.114 0.000 -0.993
vn 0.406 0.000 -0.914
vn 0.406 0.000 -0.914
vn 0.513 0.000 -0.858
vn 0.513 0.000 -0.858
vn 0.614 0.000 -0.789
vn 0.614 0.000 -0.789
vn 0.822 0.000 -0.570
vn 0.822 0.000 -0.570
vn 0.977 0.000 -0.215
vn 0.977 0.000 -0.215
vn -0.284 0.000 0.959
vn -0.284 0.000 0.959
vn 0.114 0.000 0.993
vn 0.114 0.000 0.993
vn 0.406 0.000 0.914
vn 0.406 0.000 0.914
vn 0.513 0.000 0.858
vn 0.513 0.000 0.858
vn 0.614 0.000 0.789
vn 0.614 0.000 0.789
vn 0.822 0.000 0.570
vn 0.822 0.000 0.570
vn 0.977 0.000 0.215
vn 0.977 0.000 0.215
vn 0.000 1.000 0.000
vn 0.000 1.000 0.000
vn 0.000 1.000 0.000
vn 0.000 1.000 0.000
vn -0.000 1.000 0.000
vn 0.000 1.000 0.000
vn 0.000 1.000 0.000
vn 0.000 1.000 0.000
vn 0.167 0.000 -0.986
vn 0.167 0.000 -0.986
vn -0.357 0.000 -0.934
vn -0.356 0.000 -0.934
vn -0.524 0.000 -0.852
vn -0.524 0.001 -0.852
vn -0.677 0.001 -0.736
vn -0.677 0.001 -0.736
vn -0.951 0.001 -0.308
vn -0.951 0.001 -0.308
vn 0.752 0.000 -0.659
vn 0.752 0.000 -0.659
vn 0.983 0.000 -0.186
vn 0.983 0.000 -0.186
vn 1.000 0.000 -0.000
vn 1.000 0.001 -0.000
vn 0.983 0.001 0.186
vn 0.983 0.001 0.186
vn 0.752 0.001 0.659
vn 0.752 0.001 0.659
vn -0.951 0.001 0.308
vn -0.952 0.001 0.308
vn -0.677 0.001 0.736
vn -0.677 0.001 0.736
vn -0.524 0.001 0.852
vn -0.524 0.001 0.852
vn -0.357 0.001 0.934
vn -0.357 0.001 0.934
vn 0.167 0.001 0.986
vn 0.167 0.001 0.986

# Facets
f 1//1 3//1 2//1
f 1//2 4//2 3//2
f 4//3 5//3 3//3
f 6//4 4//4 1//4
f 4//5 7//5 5//5
f 6//6 8//6 4//6
f 9//7 7//7 4//7
f 9//8 10//8 7//8
f 9//9 11//9 10//9
f 12//10 8//10 6//10
f 13//11 8//11 12//11
f 14//12 11//12 9//12
f 14//13 15//13 11//13
f 14//14 16//14 15//14
f 17//15 8//15 13//15
f 17//16 18//16 8//16
f 19//17 16//17 14//17
f 17//18 20//18 18//18
f 16//19 19//19 21//19
f 20//20 17//20 22//20
f 23//21 21//21 19//21
f 23//22 19//22 24//22
f 25//23 21//23 23//23
f 21//24 25//24 26//24
f 23//25 24//25 27//25
f 27//26 24//26 28//26
f 22//27 28//27 20//27
f 27//28 28//28 29//28
f 30//29 28//29 22//29
f 29//30 28//30 30//30
f 28//31 31//31 20//31
f 31//32 32//32 20//32
f 32//33 33//33 20//33
f 33//34 34//34 20//34
f 35//35 37//35 36//35
f 38//36 37//36 35//36
f 38//37 39//37 37//37
f 40//38 39//38 38//38
f 40//39 41//39 39//39
f 42//40 41//40 40//40
f 42//41 43//41 41//41
f 44//42 43//42 42//42
f 44//43 45//43 43//43
f 46//44 45//44 44//44
f 46//45 47//45 45//45
f 48//46 47//46 46//46
f 48//47 49//47 47//47
f 50//48 49//48 48//48
f 51//49 53//49 52//49
f 52//50 53//50 54//50
f 52//51 54//51 55//51
f 55//52 54//52 56//52
f 55//53 56//53 57//53
f 57//54 56//54 58//54
f 57//55 58//55 59//55
f 59//56 58//56 60//56
f 59//57 60//57 61//57
f 61//58 60//58 62//58
f 61//59 62//59 63//59
f 63//60 62//60 64//60
f 63//61 64//61 65//61
f 65//62 64//62 66//62
f 67//63 69//63 68//63
f 70//64 69//64 67//64
f 70//65 71//65 69//65
f 72//66 71//66 70//66
f 72//67 73//67 71//67
f 74//68 73//68 72//68
f 74//69 75//69 73//69
f 76//70 75//70 74//70
f 76//71 77//71 75//71
f 78//72 77//72 76//72
f 78//73 79//73 77//73
f 80//74 79//74 78//74
f 80//75 81//75 79//75
f 82//76 81//76 80//76
f 83//77 85//77 84//77
f 86//78 83//78 84//78
f 87//79 86//79 84//79
f 88//80 87//80 84//80
f 89//81 91//81 90//81
f 92//82 89//82 90//82
f 93//83 92//83 90//83
f 94//84 93//84 90//84
f 95//85 97//85 96//85
f 98//86 97//86 95//86
f 98//87 99//87 97//87
f 100//88 99//88 98//88
f 99//89 100//89 101//89
f 101//90 100//90 102//90
f 102//91 103//91 101//91
f 104//92 103//92 102//92
f 104//93 105//93 103//93
f 106//94 105//94 104//94
f 107//95 109//95 108//95
f 108//96 109//96 110//96
f 108//97 110//97 111//97
f 111//98 110//98 112//98
f 112//99 113//99 111//99
f 114//100 113//100 112//100
f 113//101 114//101 115//101
f 115//102 114//102 116//102
f 115//103 116//103 117//103
f 117//104 116//104 118//104
f 119//105 121//105 120//105
f 122//106 121//106 119//106
f 122//107 123//107 121//107
f 124//108 123//108 122//108
f 123//109 124//109 125//109
f 125//110 124//110 126//110
f 126//111 127//111 125//111
f 128//112 127//112 126//112
f 128//113 129//113 127//113
f 130//114 129//114 128//114

# Thank you for using Spin 3D

