# Created using Spin 3D

# Vertex Array 
v 0.539 0.446 -0.032
v 0.539 0.411 -0.032
v 0.552 0.411 -0.063
v 0.552 0.446 -0.063
v 0.572 0.411 -0.089
v 0.572 0.446 -0.089
v 0.598 0.411 -0.108
v 0.598 0.446 -0.108
v 0.628 0.411 -0.121
v 0.628 0.446 -0.121
v 0.660 0.411 -0.125
v 0.660 0.446 -0.125
v 0.693 0.411 -0.121
v 0.693 0.446 -0.121
v 0.723 0.411 -0.108
v 0.723 0.446 -0.108
v 0.749 0.411 -0.089
v 0.749 0.446 -0.089
v 0.769 0.411 -0.063
v 0.769 0.446 -0.063
v 0.781 0.411 -0.032
v 0.781 0.446 -0.032
v 0.786 0.411 0.000
v 0.786 0.446 0.000
v 0.781 0.411 0.032
v 0.781 0.446 0.032
v 0.769 0.411 0.063
v 0.769 0.446 0.063
v 0.749 0.411 0.089
v 0.749 0.446 0.089
v 0.723 0.411 0.108
v 0.723 0.446 0.108
v 0.693 0.411 0.121
v 0.693 0.446 0.121
v 0.660 0.411 0.125
v 0.660 0.446 0.125
v 0.628 0.411 0.121
v 0.628 0.446 0.121
v 0.628 0.446 0.121
v 0.628 0.411 0.121
v 0.598 0.411 0.108
v 0.598 0.446 0.108
v 0.572 0.411 0.089
v 0.572 0.446 0.089
v 0.552 0.411 0.063
v 0.552 0.446 0.063
v 0.539 0.411 0.032
v 0.539 0.446 0.032
v 0.539 0.411 0.032
v 0.535 0.411 0.000
v 0.535 0.446 0.000
v 0.539 0.411 -0.032
v 0.539 0.446 -0.032
v 0.599 0.446 0.062
v 0.599 0.411 0.062
v 0.617 0.446 0.076
v 0.617 0.411 0.076
v 0.585 0.411 0.044
v 0.638 0.446 0.084
v 0.585 0.446 0.044
v 0.638 0.411 0.084
v 0.576 0.411 0.023
v 0.660 0.446 0.087
v 0.576 0.446 0.023
v 0.660 0.411 0.087
v 0.573 0.411 0.000
v 0.683 0.446 0.084
v 0.573 0.446 0.000
v 0.683 0.411 0.084
v 0.576 0.411 -0.023
v 0.704 0.446 0.076
v 0.576 0.446 -0.023
v 0.704 0.411 0.076
v 0.585 0.411 -0.044
v 0.722 0.446 0.062
v 0.585 0.446 -0.044
v 0.722 0.411 0.062
v 0.599 0.411 -0.062
v 0.736 0.446 0.044
v 0.599 0.446 -0.062
v 0.736 0.411 0.044
v 0.617 0.411 -0.076
v 0.745 0.446 0.023
v 0.617 0.446 -0.076
v 0.745 0.411 0.023
v 0.638 0.411 -0.084
v 0.748 0.446 0.000
v 0.638 0.446 -0.084
v 0.748 0.411 0.000
v 0.660 0.411 -0.087
v 0.745 0.446 -0.023
v 0.660 0.446 -0.087
v 0.745 0.411 -0.023
v 0.683 0.411 -0.084
v 0.736 0.446 -0.044
v 0.683 0.446 -0.084
v 0.736 0.411 -0.044
v 0.704 0.411 -0.076
v 0.722 0.446 -0.062
v 0.704 0.446 -0.076
v 0.722 0.411 -0.062
v 0.628 0.446 0.121
v 0.598 0.446 0.108
v 0.617 0.446 0.076
v 0.638 0.446 0.084
v 0.599 0.446 0.062
v 0.660 0.446 0.125
v 0.572 0.446 0.089
v 0.660 0.446 0.087
v 0.585 0.446 0.044
v 0.693 0.446 0.121
v 0.552 0.446 0.063
v 0.683 0.446 0.084
v 0.576 0.446 0.023
v 0.723 0.446 0.108
v 0.539 0.446 0.032
v 0.704 0.446 0.076
v 0.573 0.446 0.000
v 0.749 0.446 0.089
v 0.535 0.446 0.000
v 0.722 0.446 0.062
v 0.576 0.446 -0.023
v 0.769 0.446 0.063
v 0.539 0.446 -0.032
v 0.736 0.446 0.044
v 0.585 0.446 -0.044
v 0.781 0.446 0.032
v 0.552 0.446 -0.063
v 0.745 0.446 0.023
v 0.599 0.446 -0.062
v 0.786 0.446 0.000
v 0.572 0.446 -0.089
v 0.748 0.446 0.000
v 0.617 0.446 -0.076
v 0.781 0.446 -0.032
v 0.598 0.446 -0.108
v 0.745 0.446 -0.023
v 0.638 0.446 -0.084
v 0.769 0.446 -0.063
v 0.628 0.446 -0.121
v 0.736 0.446 -0.044
v 0.660 0.446 -0.087
v 0.749 0.446 -0.089
v 0.660 0.446 -0.125
v 0.722 0.446 -0.062
v 0.683 0.446 -0.084
v 0.723 0.446 -0.108
v 0.693 0.446 -0.121
v 0.704 0.446 -0.076

# Normal Array
vn -0.924 -0.000 -0.383
vn -0.924 -0.000 -0.383
vn -0.793 -0.000 -0.609
vn -0.793 0.000 -0.609
vn -0.609 0.000 -0.793
vn -0.609 0.000 -0.793
vn -0.383 0.000 -0.924
vn -0.383 -0.000 -0.924
vn -0.131 -0.000 -0.991
vn -0.131 -0.000 -0.991
vn 0.131 0.000 -0.991
vn 0.131 -0.000 -0.991
vn 0.383 -0.000 -0.924
vn 0.383 0.000 -0.924
vn 0.609 0.000 -0.793
vn 0.609 0.000 -0.793
vn 0.793 0.000 -0.609
vn 0.793 -0.000 -0.609
vn 0.924 -0.000 -0.383
vn 0.924 -0.000 -0.383
vn 0.991 -0.000 -0.131
vn 0.991 -0.000 -0.131
vn 0.991 0.000 0.131
vn 0.991 0.000 0.131
vn 0.924 0.000 0.383
vn 0.924 0.000 0.383
vn 0.793 0.000 0.609
vn 0.793 -0.000 0.609
vn 0.609 -0.000 0.793
vn 0.609 -0.000 0.793
vn 0.383 -0.000 0.924
vn 0.383 0.000 0.924
vn 0.131 0.000 0.991
vn 0.131 0.000 0.991
vn -0.131 0.000 0.991
vn -0.131 -0.000 0.991
vn -0.383 -0.000 0.924
vn -0.383 -0.000 0.924
vn -0.609 -0.000 0.793
vn -0.609 -0.000 0.793
vn -0.793 -0.000 0.609
vn -0.793 -0.000 0.609
vn -0.924 -0.000 0.383
vn -0.924 0.000 0.383
vn -0.991 0.000 0.131
vn -0.991 -0.000 0.131
vn -0.991 0.000 -0.131
vn -0.991 -0.000 -0.131
vn 0.609 -0.000 -0.793
vn 0.609 -0.000 -0.793
vn 0.793 -0.000 -0.609
vn 0.383 -0.000 -0.924
vn 0.793 -0.000 -0.609
vn 0.383 -0.000 -0.924
vn 0.924 -0.000 -0.383
vn 0.131 -0.000 -0.991
vn 0.924 -0.000 -0.383
vn 0.131 0.000 -0.991
vn 0.991 -0.000 -0.131
vn -0.131 0.000 -0.991
vn 0.991 0.000 -0.131
vn -0.131 -0.000 -0.991
vn 0.991 -0.000 0.131
vn -0.383 -0.000 -0.924
vn 0.991 -0.000 0.131
vn -0.383 -0.000 -0.924
vn 0.924 -0.000 0.383
vn -0.609 -0.000 -0.793
vn 0.924 0.000 0.383
vn -0.609 -0.000 -0.793
vn 0.793 0.000 0.609
vn -0.793 -0.000 -0.609
vn 0.793 0.000 0.609
vn -0.793 -0.000 -0.609
vn 0.609 0.000 0.793
vn -0.924 -0.000 -0.383
vn 0.609 -0.000 0.793
vn -0.924 -0.000 -0.383
vn 0.383 -0.000 0.924
vn -0.991 -0.000 -0.131
vn 0.383 -0.000 0.924
vn -0.991 -0.000 -0.131
vn 0.131 -0.000 0.991
vn -0.991 0.000 0.131
vn 0.131 0.000 0.991
vn -0.991 0.000 0.131
vn -0.131 0.000 0.991
vn -0.924 0.000 0.383
vn -0.131 0.000 0.991
vn -0.924 0.000 0.383
vn -0.383 0.000 0.924
vn -0.793 0.000 0.609
vn -0.383 -0.000 0.924
vn -0.793 0.000 0.609
vn -0.609 -0.000 0.793
vn -0.609 0.000 0.793
vn 0.000 1.000 0.000
vn 0.000 1.000 0.000
vn 0.000 1.000 0.000
vn 0.000 1.000 0.000
vn 0.000 1.000 0.000
vn 0.000 1.000 -0.000
vn 0.000 1.000 0.000
vn 0.000 1.000 0.000
vn 0.000 1.000 0.000
vn 0.000 1.000 -0.000
vn 0.000 1.000 0.000
vn 0.000 1.000 0.000
vn 0.000 1.000 0.000
vn 0.000 1.000 -0.000
vn 0.000 1.000 0.000
vn 0.000 1.000 0.000
vn 0.000 1.000 0.000
vn 0.000 1.000 -0.000
vn 0.000 1.000 0.000
vn 0.000 1.000 0.000
vn 0.000 1.000 0.000
vn 0.000 1.000 -0.000
vn 0.000 1.000 0.000
vn 0.000 1.000 0.000
vn 0.000 1.000 0.000
vn 0.000 1.000 -0.000
vn 0.000 1.000 0.000
vn 0.000 1.000 0.000
vn -0.000 1.000 0.000
vn 0.000 1.000 -0.000
vn 0.000 1.000 0.000
vn 0.000 1.000 -0.000
vn -0.000 1.000 0.000
vn -0.000 1.000 0.000
vn 0.000 1.000 0.000
vn 0.000 1.000 -0.000
vn -0.000 1.000 0.000
vn -0.000 1.000 0.000
vn 0.000 1.000 0.000
vn 0.000 1.000 -0.000
vn -0.000 1.000 0.000
vn -0.000 1.000 0.000
vn -0.000 1.000 0.000
vn 0.000 1.000 -0.000
vn 0.000 1.000 0.000
vn -0.000 1.000 0.000
vn -0.000 1.000 0.000
vn 0.000 1.000 0.000

# Facets
f 1//1 3//1 2//1
f 4//2 3//2 1//2
f 4//3 5//3 3//3
f 6//4 5//4 4//4
f 6//5 7//5 5//5
f 8//6 7//6 6//6
f 8//7 9//7 7//7
f 10//8 9//8 8//8
f 10//9 11//9 9//9
f 12//10 11//10 10//10
f 12//11 13//11 11//11
f 14//12 13//12 12//12
f 14//13 15//13 13//13
f 16//14 15//14 14//14
f 16//15 17//15 15//15
f 18//16 17//16 16//16
f 18//17 19//17 17//17
f 20//18 19//18 18//18
f 20//19 21//19 19//19
f 22//20 21//20 20//20
f 22//21 23//21 21//21
f 24//22 23//22 22//22
f 24//23 25//23 23//23
f 26//24 25//24 24//24
f 26//25 27//25 25//25
f 28//26 27//26 26//26
f 28//27 29//27 27//27
f 30//28 29//28 28//28
f 30//29 31//29 29//29
f 32//30 31//30 30//30
f 32//31 33//31 31//31
f 34//32 33//32 32//32
f 34//33 35//33 33//33
f 36//34 35//34 34//34
f 36//35 37//35 35//35
f 38//36 37//36 36//36
f 39//37 41//37 40//37
f 42//38 41//38 39//38
f 42//39 43//39 41//39
f 44//40 43//40 42//40
f 44//41 45//41 43//41
f 46//42 45//42 44//42
f 46//43 47//43 45//43
f 48//44 47//44 46//44
f 48//45 50//45 49//45
f 51//46 50//46 48//46
f 51//47 52//47 50//47
f 53//48 52//48 51//48
f 54//49 56//49 55//49
f 55//50 56//50 57//50
f 58//51 54//51 55//51
f 56//52 59//52 57//52
f 60//53 54//53 58//53
f 57//54 59//54 61//54
f 62//55 60//55 58//55
f 59//56 63//56 61//56
f 64//57 60//57 62//57
f 61//58 63//58 65//58
f 66//59 64//59 62//59
f 63//60 67//60 65//60
f 68//61 64//61 66//61
f 65//62 67//62 69//62
f 70//63 68//63 66//63
f 67//64 71//64 69//64
f 72//65 68//65 70//65
f 69//66 71//66 73//66
f 74//67 72//67 70//67
f 71//68 75//68 73//68
f 76//69 72//69 74//69
f 73//70 75//70 77//70
f 78//71 76//71 74//71
f 75//72 79//72 77//72
f 80//73 76//73 78//73
f 77//74 79//74 81//74
f 82//75 80//75 78//75
f 79//76 83//76 81//76
f 84//77 80//77 82//77
f 81//78 83//78 85//78
f 86//79 84//79 82//79
f 83//80 87//80 85//80
f 88//81 84//81 86//81
f 85//82 87//82 89//82
f 90//83 88//83 86//83
f 87//84 91//84 89//84
f 92//85 88//85 90//85
f 89//86 91//86 93//86
f 94//87 92//87 90//87
f 91//88 95//88 93//88
f 96//89 92//89 94//89
f 93//90 95//90 97//90
f 98//91 96//91 94//91
f 95//92 99//92 97//92
f 100//93 96//93 98//93
f 97//94 99//94 101//94
f 101//95 100//95 98//95
f 99//96 100//96 101//96
f 102//97 104//97 103//97
f 105//98 104//98 102//98
f 104//99 106//99 103//99
f 107//100 105//100 102//100
f 103//101 106//101 108//101
f 109//102 105//102 107//102
f 106//103 110//103 108//103
f 111//104 109//104 107//104
f 108//105 110//105 112//105
f 113//106 109//106 111//106
f 110//107 114//107 112//107
f 115//108 113//108 111//108
f 112//109 114//109 116//109
f 117//110 113//110 115//110
f 114//111 118//111 116//111
f 119//112 117//112 115//112
f 116//113 118//113 120//113
f 121//114 117//114 119//114
f 118//115 122//115 120//115
f 123//116 121//116 119//116
f 120//117 122//117 124//117
f 125//118 121//118 123//118
f 122//119 126//119 124//119
f 127//120 125//120 123//120
f 124//121 126//121 128//121
f 129//122 125//122 127//122
f 126//123 130//123 128//123
f 131//124 129//124 127//124
f 128//125 130//125 132//125
f 133//126 129//126 131//126
f 130//127 134//127 132//127
f 135//128 133//128 131//128
f 132//129 134//129 136//129
f 137//130 133//130 135//130
f 134//131 138//131 136//131
f 139//132 137//132 135//132
f 136//133 138//133 140//133
f 141//134 137//134 139//134
f 138//135 142//135 140//135
f 143//136 141//136 139//136
f 140//137 142//137 144//137
f 145//138 141//138 143//138
f 142//139 146//139 144//139
f 147//140 145//140 143//140
f 144//141 146//141 148//141
f 149//142 145//142 147//142
f 146//143 149//143 148//143
f 148//144 149//144 147//144

# Thank you for using Spin 3D

