# Created using Spin 3D

# Vertex Array 
v -2.001 -0.000 -0.001 0 0 0
v -3.001 -0.000 -0.001 0 0 0
v -3.001 -0.000 0.249 0 0 0
v -2.001 -0.000 0.249 0 0 0
v -1.000 -0.000 -0.001 0 0 0
v -1.000 -0.000 0.249 0 0 0
v 0.000 -0.000 -0.001 0 0 0
v 0.000 -0.000 0.249 0 0 0
v 1.000 -0.000 -0.001 0 0 0
v 1.000 -0.000 0.249 0 0 0
v 2.001 -0.000 -0.001 0 0 0
v 2.001 -0.000 0.249 0 0 0
v 3.001 -0.000 -0.001 0 0 0
v 3.001 -0.000 0.249 0 0 0
v -3.001 0.300 0.249 0 0 0
v -3.001 0.300 -0.001 0 0 0
v -2.001 0.300 -0.001 0 0 0
v -2.001 0.300 0.249 0 0 0
v -1.000 0.300 -0.001 0 0 0
v -1.000 0.300 0.249 0 0 0
v 0.000 0.300 -0.001 0 0 0
v 0.000 0.300 0.249 0 0 0
v 1.000 0.300 -0.001 0 0 0
v 1.000 0.300 0.249 0 0 0
v 2.001 0.300 -0.001 0 0 0
v 2.001 0.300 0.249 0 0 0
v 3.001 0.300 -0.001 0 0 0
v 3.001 0.300 0.249 0 0 0
v 3.001 0.300 -0.001 0 0 0
v 3.001 -0.000 -0.001 0 0 0
v 3.001 -0.000 0.249 0 0 0
v 3.001 0.300 0.249 0 0 0
v -3.001 0.300 0.249 0 0 0
v -3.001 -0.000 0.249 0 0 0
v -3.001 -0.000 -0.001 0 0 0
v -3.001 0.300 -0.001 0 0 0
v -3.001 0.300 -0.001 0 0 0
v -3.001 -0.000 -0.001 0 0 0
v -2.001 -0.000 -0.001 0 0 0
v -2.001 0.300 -0.001 0 0 0
v -1.000 -0.000 -0.001 0 0 0
v -1.000 0.300 -0.001 0 0 0
v 0.000 -0.000 -0.001 0 0 0
v 0.000 0.300 -0.001 0 0 0
v 1.000 -0.000 -0.001 0 0 0
v 1.000 0.300 -0.001 0 0 0
v 2.001 -0.000 -0.001 0 0 0
v 2.001 0.300 -0.001 0 0 0
v 3.001 -0.000 -0.001 0 0 0
v 3.001 0.300 -0.001 0 0 0
v 3.001 0.300 0.249 0 0 0
v 3.001 -0.000 0.249 0 0 0
v 2.001 -0.000 0.249 0 0 0
v 2.001 0.300 0.249 0 0 0
v 1.000 -0.000 0.249 0 0 0
v 1.000 0.300 0.249 0 0 0
v 0.000 -0.000 0.249 0 0 0
v 0.000 0.300 0.249 0 0 0
v -1.000 -0.000 0.249 0 0 0
v -1.000 0.300 0.249 0 0 0
v -2.001 -0.000 0.249 0 0 0
v -2.001 0.300 0.249 0 0 0
v -3.001 -0.000 0.249 0 0 0
v -3.001 0.300 0.249 0 0 0
v -3.001 -0.394 1.499 0 0 0
v -3.001 0.334 1.499 0 0 0
v 0.000 0.334 1.499 0 0 0
v 0.000 -0.394 1.499 0 0 0
v 3.001 0.334 1.499 0 0 0
v 3.001 -0.394 1.499 0 0 0
v -3.001 0.334 1.499 0 0 0
v -3.001 0.334 0.999 0 0 0
v 0.000 0.334 0.999 0 0 0
v 0.000 0.334 1.499 0 0 0
v 3.001 0.334 1.499 0 0 0
v 3.001 0.334 0.999 0 0 0
v -3.001 -0.394 0.505 0 0 0
v -3.001 -0.394 1.499 0 0 0
v -2.739 -0.394 1.062 0 0 0
v 0.000 -0.394 1.499 0 0 0
v 0.000 -0.394 1.062 0 0 0
v 2.739 -0.394 1.062 0 0 0
v 3.001 -0.394 1.499 0 0 0
v 3.001 -0.394 0.505 0 0 0
v 0.000 -0.000 0.000 0 0 0
v 3.001 -0.000 -0.001 0 0 0
v 3.001 0.000 0.999 0 0 0
v 0.000 0.000 1.000 0 0 0
v -3.001 0.000 0.999 0 0 0
v -3.001 -0.000 -0.001 0 0 0
v -3.001 0.000 0.999 0 0 0
v 0.000 0.000 1.000 0 0 0
v -3.001 0.334 0.999 0 0 0
v 0.000 0.334 0.999 0 0 0
v 3.001 0.334 0.999 0 0 0
v 3.001 0.000 0.999 0 0 0

# Normal Array
vn 0.000 -1.000 0.000
vn 0.000 -1.000 0.000
vn 0.000 -1.000 0.000
vn 0.000 -1.000 0.000
vn 0.000 -1.000 0.000
vn 0.000 -1.000 0.000
vn 0.000 -1.000 0.000
vn 0.000 -1.000 0.000
vn 0.000 -1.000 0.000
vn 0.000 -1.000 0.000
vn 0.000 -1.000 0.000
vn 0.000 -1.000 0.000
vn -0.000 1.000 -0.000
vn -0.000 1.000 -0.000
vn -0.000 1.000 -0.000
vn -0.000 1.000 -0.000
vn -0.000 1.000 -0.000
vn -0.000 1.000 -0.000
vn -0.000 1.000 -0.000
vn -0.000 1.000 -0.000
vn -0.000 1.000 -0.000
vn -0.000 1.000 -0.000
vn -0.000 1.000 -0.000
vn -0.000 1.000 -0.000
vn 1.000 0.000 0.000
vn 1.000 0.000 0.000
vn -1.000 -0.000 0.000
vn -1.000 0.000 0.000
vn -0.000 -0.000 -1.000
vn -0.000 -0.000 -1.000
vn -0.000 -0.000 -1.000
vn -0.000 -0.000 -1.000
vn -0.000 -0.000 -1.000
vn -0.000 -0.000 -1.000
vn -0.000 -0.000 -1.000
vn -0.000 -0.000 -1.000
vn -0.000 -0.000 -1.000
vn -0.000 -0.000 -1.000
vn -0.000 -0.000 -1.000
vn -0.000 -0.000 -1.000
vn 0.000 0.000 1.000
vn 0.000 0.000 1.000
vn 0.000 0.000 1.000
vn 0.000 0.000 1.000
vn 0.000 0.000 1.000
vn 0.000 0.000 1.000
vn 0.000 0.000 1.000
vn 0.000 0.000 1.000
vn 0.000 0.000 1.000
vn 0.000 0.000 1.000
vn 0.000 0.000 1.000
vn 0.000 0.000 1.000
vn -0.000 0.000 1.000
vn -0.000 0.000 1.000
vn 0.000 0.000 1.000
vn 0.000 0.000 1.000
vn 0.000 1.000 -0.000
vn 0.000 1.000 -0.000
vn -0.000 1.000 -0.000
vn -0.000 1.000 -0.000
vn 0.000 -1.000 -0.000
vn -0.000 -1.000 -0.000
vn 0.000 -1.000 -0.000
vn -0.000 -1.000 -0.000
vn 0.000 -1.000 -0.000
vn -0.000 -1.000 -0.000
vn 0.000 1.000 -0.000
vn 0.000 1.000 -0.000
vn -0.000 1.000 -0.000
vn -0.000 1.000 -0.000
vn 0.000 -0.000 -1.000
vn 0.000 -0.003 -1.000
vn -0.000 -0.003 -1.000
vn -0.000 -0.000 -1.000

# Facets
f 1//1 3//1 2//1
f 4//2 3//2 1//2
f 5//3 4//3 1//3
f 6//4 4//4 5//4
f 7//5 6//5 5//5
f 8//6 6//6 7//6
f 9//7 8//7 7//7
f 10//8 8//8 9//8
f 11//9 10//9 9//9
f 12//10 10//10 11//10
f 13//11 12//11 11//11
f 14//12 12//12 13//12
f 15//13 17//13 16//13
f 18//14 17//14 15//14
f 18//15 19//15 17//15
f 20//16 19//16 18//16
f 20//17 21//17 19//17
f 22//18 21//18 20//18
f 22//19 23//19 21//19
f 24//20 23//20 22//20
f 24//21 25//21 23//21
f 26//22 25//22 24//22
f 26//23 27//23 25//23
f 28//24 27//24 26//24
f 29//25 31//25 30//25
f 32//26 31//26 29//26
f 33//27 35//27 34//27
f 36//28 35//28 33//28
f 37//29 39//29 38//29
f 40//30 39//30 37//30
f 40//31 41//31 39//31
f 42//32 41//32 40//32
f 42//33 43//33 41//33
f 44//34 43//34 42//34
f 44//35 45//35 43//35
f 46//36 45//36 44//36
f 46//37 47//37 45//37
f 48//38 47//38 46//38
f 48//39 49//39 47//39
f 50//40 49//40 48//40
f 51//41 53//41 52//41
f 54//42 53//42 51//42
f 54//43 55//43 53//43
f 56//44 55//44 54//44
f 56//45 57//45 55//45
f 58//46 57//46 56//46
f 58//47 59//47 57//47
f 60//48 59//48 58//48
f 60//49 61//49 59//49
f 62//50 61//50 60//50
f 62//51 63//51 61//51
f 64//52 63//52 62//52
f 65//53 67//53 66//53
f 68//54 67//54 65//54
f 68//55 69//55 67//55
f 70//56 69//56 68//56
f 71//57 73//57 72//57
f 74//58 73//58 71//58
f 75//59 73//59 74//59
f 76//60 73//60 75//60
f 77//61 79//61 78//61
f 80//62 78//62 79//62
f 81//63 80//63 79//63
f 81//64 82//64 80//64
f 82//65 83//65 80//65
f 84//66 83//66 82//66
f 85//67 87//67 86//67
f 88//68 87//68 85//68
f 85//69 89//69 88//69
f 90//70 89//70 85//70
f 91//71 93//71 92//71
f 92//72 93//72 94//72
f 95//73 92//73 94//73
f 96//74 92//74 95//74

# Thank you for using Spin 3D

