# Created using Spin 3D

# Vertex Array 
v 0.000 0.300 0.000 0 0 0
v 0.000 -0.000 0.000 0 0 0
v -0.000 -0.000 1.250 0 0 0
v -0.000 0.300 1.250 0 0 0
v 0.000 0.000 2.250 0 0 0
v 0.000 0.300 2.250 0 0 0
v 0.000 0.000 3.250 0 0 0
v 0.000 0.300 3.250 0 0 0
v 0.000 0.000 4.250 0 0 0
v 0.000 0.300 4.250 0 0 0
v 0.000 0.300 5.000 0 0 0
v 0.000 0.000 5.000 0 0 0
v -0.345 -0.000 0.345 0 0 0
v -0.345 0.300 0.345 0 0 0
v -0.304 0.300 0.394 0 0 0
v -0.304 -0.000 0.394 0 0 0
v -0.275 -0.000 0.449 0 0 0
v -0.275 0.300 0.449 0 0 0
v -0.256 -0.000 0.510 0 0 0
v -0.256 0.300 0.510 0 0 0
v -0.249 -0.000 0.573 0 0 0
v -0.249 0.300 0.573 0 0 0
v -0.249 0.000 1.250 0 0 0
v -0.249 0.300 1.250 0 0 0
v -0.249 0.000 2.250 0 0 0
v -0.249 0.300 2.250 0 0 0
v -0.249 0.000 3.250 0 0 0
v -0.249 0.300 3.250 0 0 0
v -0.249 0.000 4.250 0 0 0
v -0.249 0.300 4.250 0 0 0
v -0.249 0.000 5.000 0 0 0
v -0.249 0.300 5.000 0 0 0
v -0.394 0.300 0.304 0 0 0
v -0.345 0.300 0.345 0 0 0
v -0.345 -0.000 0.345 0 0 0
v -0.394 -0.000 0.304 0 0 0
v -0.449 -0.000 0.275 0 0 0
v -0.449 0.300 0.275 0 0 0
v -0.510 -0.000 0.256 0 0 0
v -0.510 0.300 0.256 0 0 0
v -0.573 -0.000 0.249 0 0 0
v -0.573 0.300 0.249 0 0 0
v -1.250 0.000 0.249 0 0 0
v -1.250 0.300 0.249 0 0 0
v -2.250 0.000 0.249 0 0 0
v -2.250 0.300 0.249 0 0 0
v -3.250 0.000 0.249 0 0 0
v -3.250 0.300 0.249 0 0 0
v -4.250 0.000 0.249 0 0 0
v -4.250 0.300 0.249 0 0 0
v -5.000 0.300 0.249 0 0 0
v -5.000 0.000 0.249 0 0 0
v -5.010 -0.394 1.500 0 0 0
v -5.010 0.334 1.500 0 0 0
v -5.000 0.334 1.500 0 0 0
v -5.000 -0.394 1.500 0 0 0
v -3.000 0.334 1.500 0 0 0
v -3.000 -0.394 1.500 0 0 0
v -2.565 0.334 1.526 0 0 0
v -2.565 -0.394 1.526 0 0 0
v -2.231 0.334 1.597 0 0 0
v -2.231 -0.394 1.597 0 0 0
v -1.993 0.334 1.700 0 0 0
v -1.993 -0.394 1.700 0 0 0
v -1.827 0.334 1.827 0 0 0
v -1.827 -0.394 1.827 0 0 0
v -1.700 -0.394 1.993 0 0 0
v -1.700 0.334 1.993 0 0 0
v -1.597 -0.394 2.231 0 0 0
v -1.597 0.334 2.231 0 0 0
v -1.526 -0.394 2.565 0 0 0
v -1.526 0.334 2.565 0 0 0
v -1.500 -0.394 3.000 0 0 0
v -1.500 0.334 3.000 0 0 0
v -1.500 -0.394 5.000 0 0 0
v -1.500 0.334 5.000 0 0 0
v -1.500 -0.394 5.010 0 0 0
v -1.500 0.334 5.010 0 0 0
v 0.000 -0.000 0.000 0 0 0
v 0.000 0.300 0.000 0 0 0
v -1.250 0.000 0.000 0 0 0
v -1.250 0.300 0.000 0 0 0
v -2.250 0.000 0.000 0 0 0
v -2.250 0.300 0.000 0 0 0
v -3.250 0.000 0.000 0 0 0
v -3.250 0.300 0.000 0 0 0
v -4.250 0.300 0.000 0 0 0
v -4.250 0.000 0.000 0 0 0
v -5.000 0.000 0.000 0 0 0
v -5.000 0.300 0.000 0 0 0
v 0.000 0.300 5.000 0 0 0
v -0.249 0.300 5.000 0 0 0
v 0.000 0.300 4.250 0 0 0
v -0.249 0.300 4.250 0 0 0
v -0.249 0.300 3.250 0 0 0
v 0.000 0.300 3.250 0 0 0
v -0.249 0.300 2.250 0 0 0
v 0.000 0.300 2.250 0 0 0
v -0.000 0.300 1.250 0 0 0
v -0.249 0.300 1.250 0 0 0
v -0.249 0.300 0.573 0 0 0
v 0.000 0.300 0.000 0 0 0
v -0.256 0.300 0.510 0 0 0
v -0.275 0.300 0.449 0 0 0
v -0.304 0.300 0.394 0 0 0
v -0.345 0.300 0.345 0 0 0
v -0.394 0.300 0.304 0 0 0
v -0.449 0.300 0.275 0 0 0
v -0.510 0.300 0.256 0 0 0
v -0.573 0.300 0.249 0 0 0
v -1.250 0.300 0.000 0 0 0
v -1.250 0.300 0.249 0 0 0
v -2.250 0.300 0.249 0 0 0
v -2.250 0.300 0.000 0 0 0
v -3.250 0.300 0.249 0 0 0
v -3.250 0.300 0.000 0 0 0
v -4.250 0.300 0.249 0 0 0
v -4.250 0.300 0.000 0 0 0
v -5.000 0.300 0.000 0 0 0
v -5.000 0.300 0.249 0 0 0
v 0.000 0.000 5.010 0 0 0
v -1.000 0.000 5.010 0 0 0
v 0.000 0.000 5.000 0 0 0
v -1.000 0.000 5.000 0 0 0
v 0.000 0.000 3.000 0 0 0
v -1.000 0.000 3.000 0 0 0
v -1.031 0.000 2.496 0 0 0
v 0.000 0.000 2.359 0 0 0
v -1.121 0.000 2.077 0 0 0
v 0.000 0.000 1.769 0 0 0
v -1.269 0.000 1.738 0 0 0
v 0.000 -0.000 1.229 0 0 0
v -1.473 0.000 1.473 0 0 0
v 0.000 -0.000 0.000 0 0 0
v -1.229 -0.000 0.000 0 0 0
v -1.738 0.000 1.269 0 0 0
v -1.769 -0.000 0.000 0 0 0
v -2.077 0.000 1.121 0 0 0
v -2.359 0.000 0.000 0 0 0
v -2.496 0.000 1.031 0 0 0
v -3.000 0.000 0.000 0 0 0
v -3.000 0.000 1.000 0 0 0
v -5.000 0.000 1.000 0 0 0
v -5.000 0.000 0.000 0 0 0
v -5.010 0.000 0.000 0 0 0
v -5.010 0.000 1.000 0 0 0
v -1.000 0.000 5.010 0 0 0
v -1.000 0.334 5.010 0 0 0
v -1.000 0.000 5.000 0 0 0
v -1.000 0.334 5.000 0 0 0
v -1.000 0.334 3.000 0 0 0
v -1.000 0.000 3.000 0 0 0
v -1.031 0.334 2.496 0 0 0
v -1.031 0.000 2.496 0 0 0
v -1.121 0.334 2.077 0 0 0
v -1.121 0.000 2.077 0 0 0
v -1.269 0.334 1.738 0 0 0
v -1.269 0.000 1.738 0 0 0
v -1.473 0.000 1.473 0 0 0
v -1.473 0.334 1.473 0 0 0
v -1.738 0.000 1.269 0 0 0
v -1.738 0.334 1.269 0 0 0
v -2.077 0.000 1.121 0 0 0
v -2.077 0.334 1.121 0 0 0
v -2.496 0.000 1.031 0 0 0
v -2.496 0.334 1.031 0 0 0
v -3.000 0.000 1.000 0 0 0
v -3.000 0.334 1.000 0 0 0
v -5.000 0.334 1.000 0 0 0
v -5.000 0.000 1.000 0 0 0
v -5.010 0.000 1.000 0 0 0
v -5.010 0.334 1.000 0 0 0
v -1.000 0.334 5.010 0 0 0
v -1.500 0.334 5.010 0 0 0
v -1.000 0.334 5.000 0 0 0
v -1.500 0.334 5.000 0 0 0
v -1.500 0.334 3.000 0 0 0
v -1.000 0.334 3.000 0 0 0
v -1.526 0.334 2.565 0 0 0
v -1.031 0.334 2.496 0 0 0
v -1.597 0.334 2.231 0 0 0
v -1.121 0.334 2.077 0 0 0
v -1.700 0.334 1.993 0 0 0
v -1.269 0.334 1.738 0 0 0
v -1.827 0.334 1.827 0 0 0
v -1.473 0.334 1.473 0 0 0
v -1.738 0.334 1.269 0 0 0
v -1.993 0.334 1.700 0 0 0
v -2.077 0.334 1.121 0 0 0
v -2.231 0.334 1.597 0 0 0
v -2.496 0.334 1.031 0 0 0
v -2.565 0.334 1.526 0 0 0
v -3.000 0.334 1.000 0 0 0
v -3.000 0.334 1.500 0 0 0
v -5.000 0.334 1.500 0 0 0
v -5.000 0.334 1.000 0 0 0
v -5.010 0.334 1.000 0 0 0
v -5.010 0.334 1.500 0 0 0

# Normal Array
vn 1.000 0.000 0.000
vn 1.000 0.000 0.000
vn 1.000 0.000 -0.000
vn 1.000 0.000 -0.000
vn 1.000 0.000 0.000
vn 1.000 0.000 0.000
vn 1.000 0.000 0.000
vn 1.000 0.000 0.000
vn 1.000 0.000 0.000
vn 1.000 -0.000 0.000
vn -0.773 0.000 0.634
vn -0.773 0.000 0.634
vn -0.882 0.000 0.471
vn -0.882 0.000 0.471
vn -0.957 0.000 0.290
vn -0.957 0.000 0.290
vn -0.993 0.000 0.115
vn -0.993 0.000 0.115
vn -1.000 0.000 -0.000
vn -1.000 0.000 -0.000
vn -1.000 0.000 0.000
vn -1.000 0.000 0.000
vn -1.000 0.000 -0.000
vn -1.000 0.000 -0.000
vn -1.000 0.000 -0.000
vn -1.000 0.000 -0.000
vn -1.000 0.000 0.000
vn -1.000 -0.000 -0.000
vn -0.634 0.000 0.773
vn -0.634 0.000 0.773
vn -0.471 0.000 0.882
vn -0.471 0.000 0.882
vn -0.290 0.000 0.957
vn -0.290 0.000 0.957
vn -0.115 0.000 0.993
vn -0.115 0.000 0.993
vn 0.000 0.000 1.000
vn 0.000 0.000 1.000
vn 0.000 0.000 1.000
vn 0.000 0.000 1.000
vn 0.000 0.000 1.000
vn 0.000 0.000 1.000
vn 0.000 0.000 1.000
vn -0.000 0.000 1.000
vn -0.000 0.000 1.000
vn 0.000 0.000 1.000
vn 0.000 -0.000 1.000
vn 0.000 -0.000 1.000
vn 0.000 -0.000 1.000
vn 0.000 -0.000 1.000
vn -0.059 -0.000 0.998
vn -0.059 -0.000 0.998
vn -0.208 -0.000 0.978
vn -0.208 -0.000 0.978
vn -0.395 -0.000 0.919
vn -0.395 -0.000 0.919
vn -0.606 -0.000 0.795
vn -0.606 -0.000 0.795
vn -0.795 -0.000 0.606
vn -0.795 -0.000 0.606
vn -0.919 -0.000 0.395
vn -0.919 -0.000 0.395
vn -0.978 -0.000 0.208
vn -0.978 -0.000 0.208
vn -0.998 -0.000 0.059
vn -0.998 -0.000 0.059
vn -1.000 -0.000 0.000
vn -1.000 -0.000 0.000
vn -1.000 -0.000 -0.000
vn -1.000 -0.000 -0.000
vn 0.000 -0.000 -1.000
vn -0.000 -0.000 -1.000
vn -0.000 -0.000 -1.000
vn -0.000 -0.000 -1.000
vn -0.000 -0.000 -1.000
vn -0.000 -0.000 -1.000
vn -0.000 -0.000 -1.000
vn 0.000 -0.000 -1.000
vn 0.000 -0.000 -1.000
vn 0.000 -0.000 -1.000
vn 0.000 1.000 0.000
vn 0.000 1.000 0.000
vn 0.000 1.000 -0.000
vn 0.000 1.000 -0.000
vn 0.000 1.000 -0.000
vn 0.000 1.000 -0.000
vn 0.000 1.000 -0.000
vn 0.000 1.000 -0.000
vn 0.000 1.000 -0.000
vn 0.000 1.000 -0.000
vn 0.000 1.000 -0.000
vn 0.000 1.000 -0.000
vn 0.000 1.000 -0.000
vn 0.000 1.000 -0.000
vn 0.000 1.000 -0.000
vn 0.000 1.000 -0.000
vn 0.000 1.000 -0.000
vn 0.000 1.000 -0.000
vn 0.000 1.000 -0.000
vn 0.000 1.000 -0.000
vn 0.000 1.000 -0.000
vn 0.000 1.000 -0.000
vn 0.000 1.000 -0.000
vn 0.000 1.000 -0.000
vn 0.000 1.000 -0.000
vn 0.000 1.000 -0.000
vn 0.000 1.000 -0.000
vn 0.000 1.000 -0.000
vn 0.000 1.000 -0.000
vn 0.000 1.000 -0.000
vn 0.000 1.000 -0.000
vn 0.000 1.000 -0.000
vn 0.000 1.000 -0.000
vn 0.000 1.000 -0.000
vn -0.000 1.000 -0.000
vn 0.000 1.000 -0.000
vn 0.000 1.000 -0.000
vn 0.000 1.000 -0.000
vn 0.000 1.000 -0.000
vn 0.000 1.000 -0.000
vn 0.000 1.000 -0.000
vn 0.000 1.000 -0.000
vn 0.000 1.000 -0.000
vn 0.000 1.000 -0.000
vn 0.000 1.000 -0.000
vn 0.000 1.000 -0.000
vn 0.000 1.000 -0.000
vn 0.000 1.000 -0.000
vn 0.000 1.000 -0.000
vn 0.000 1.000 -0.000
vn 0.000 1.000 -0.000
vn 0.000 1.000 -0.000
vn 1.000 -0.000 0.000
vn 1.000 0.000 0.000
vn 1.000 -0.000 0.000
vn 1.000 0.000 0.000
vn 0.998 0.000 -0.061
vn 0.998 0.000 -0.061
vn 0.977 0.000 -0.211
vn 0.977 0.000 -0.211
vn 0.917 0.000 -0.400
vn 0.917 -0.000 -0.400
vn 0.793 -0.000 -0.609
vn 0.793 -0.000 -0.609
vn 0.609 -0.000 -0.793
vn 0.609 -0.000 -0.793
vn 0.400 -0.000 -0.917
vn 0.400 -0.000 -0.917
vn 0.211 -0.000 -0.977
vn 0.211 -0.000 -0.977
vn 0.061 -0.000 -0.998
vn 0.061 -0.000 -0.998
vn -0.000 -0.000 -1.000
vn 0.000 -0.000 -1.000
vn 0.000 -0.000 -1.000
vn 0.000 -0.000 -1.000
vn -0.000 1.000 0.000
vn -0.000 1.000 0.000
vn -0.000 1.000 -0.000
vn -0.000 1.000 -0.000
vn -0.000 1.000 -0.000
vn -0.000 1.000 -0.000
vn -0.000 1.000 -0.000
vn -0.000 1.000 -0.000
vn -0.000 1.000 -0.000
vn -0.000 1.000 -0.000
vn -0.000 1.000 0.000
vn -0.000 1.000 -0.000
vn 0.000 1.000 0.000
vn 0.000 1.000 0.000
vn 0.000 1.000 0.000
vn 0.000 1.000 0.000
vn 0.000 1.000 0.000
vn 0.000 1.000 0.000
vn 0.000 1.000 0.000
vn 0.000 1.000 0.000
vn 0.000 1.000 0.000
vn 0.000 1.000 0.000
vn -0.000 1.000 0.000
vn -0.000 1.000 0.000

# Facets
f 1//1 3//1 2//1
f 4//2 3//2 1//2
f 4//3 5//3 3//3
f 6//4 5//4 4//4
f 6//5 7//5 5//5
f 8//6 7//6 6//6
f 8//7 9//7 7//7
f 10//8 9//8 8//8
f 11//9 9//9 10//9
f 12//10 9//10 11//10
f 13//11 15//11 14//11
f 16//12 15//12 13//12
f 16//13 17//13 15//13
f 15//14 17//14 18//14
f 17//15 19//15 18//15
f 18//16 19//16 20//16
f 19//17 21//17 20//17
f 20//18 21//18 22//18
f 21//19 23//19 22//19
f 22//20 23//20 24//20
f 23//21 25//21 24//21
f 24//22 25//22 26//22
f 25//23 27//23 26//23
f 26//24 27//24 28//24
f 27//25 29//25 28//25
f 28//26 29//26 30//26
f 31//27 30//27 29//27
f 32//28 30//28 31//28
f 33//29 35//29 34//29
f 36//30 35//30 33//30
f 36//31 33//31 37//31
f 37//32 33//32 38//32
f 37//33 38//33 39//33
f 39//34 38//34 40//34
f 39//35 40//35 41//35
f 41//36 40//36 42//36
f 42//37 43//37 41//37
f 44//38 43//38 42//38
f 44//39 45//39 43//39
f 46//40 45//40 44//40
f 46//41 47//41 45//41
f 48//42 47//42 46//42
f 48//43 49//43 47//43
f 50//44 49//44 48//44
f 51//45 49//45 50//45
f 52//46 49//46 51//46
f 53//47 55//47 54//47
f 56//48 55//48 53//48
f 56//49 57//49 55//49
f 58//50 57//50 56//50
f 58//51 59//51 57//51
f 60//52 59//52 58//52
f 60//53 61//53 59//53
f 62//54 61//54 60//54
f 62//55 63//55 61//55
f 64//56 63//56 62//56
f 64//57 65//57 63//57
f 66//58 65//58 64//58
f 67//59 65//59 66//59
f 68//60 65//60 67//60
f 69//61 68//61 67//61
f 70//62 68//62 69//62
f 71//63 70//63 69//63
f 72//64 70//64 71//64
f 73//65 72//65 71//65
f 74//66 72//66 73//66
f 73//67 75//67 74//67
f 74//68 75//68 76//68
f 77//69 76//69 75//69
f 78//70 76//70 77//70
f 79//71 81//71 80//71
f 80//72 81//72 82//72
f 81//73 83//73 82//73
f 82//74 83//74 84//74
f 83//75 85//75 84//75
f 84//76 85//76 86//76
f 86//77 85//77 87//77
f 87//78 85//78 88//78
f 89//79 87//79 88//79
f 90//80 87//80 89//80
f 91//81 93//81 92//81
f 92//82 93//82 94//82
f 94//83 93//83 95//83
f 95//84 93//84 96//84
f 95//85 96//85 97//85
f 97//86 96//86 98//86
f 98//87 99//87 97//87
f 97//88 99//88 100//88
f 100//89 99//89 101//89
f 99//90 102//90 101//90
f 101//91 102//91 103//91
f 104//92 103//92 102//92
f 105//93 104//93 102//93
f 106//94 105//94 102//94
f 106//95 102//95 107//95
f 107//96 102//96 108//96
f 108//97 102//97 109//97
f 109//98 102//98 110//98
f 102//99 111//99 110//99
f 111//100 112//100 110//100
f 112//101 111//101 113//101
f 113//102 111//102 114//102
f 113//103 114//103 115//103
f 115//104 114//104 116//104
f 115//105 116//105 117//105
f 117//106 116//106 118//106
f 119//107 117//107 118//107
f 120//108 117//108 119//108
f 121//109 123//109 122//109
f 122//110 123//110 124//110
f 125//111 124//111 123//111
f 126//112 124//112 125//112
f 126//113 125//113 127//113
f 127//114 125//114 128//114
f 127//115 128//115 129//115
f 129//116 128//116 130//116
f 129//117 130//117 131//117
f 131//118 130//118 132//118
f 131//119 132//119 133//119
f 133//120 132//120 134//120
f 134//121 135//121 133//121
f 133//122 135//122 136//122
f 135//123 137//123 136//123
f 136//124 137//124 138//124
f 137//125 139//125 138//125
f 138//126 139//126 140//126
f 139//127 141//127 140//127
f 140//128 141//128 142//128
f 142//129 141//129 143//129
f 143//130 141//130 144//130
f 145//131 143//131 144//131
f 146//132 143//132 145//132
f 147//133 149//133 148//133
f 148//134 149//134 150//134
f 149//135 151//135 150//135
f 152//136 151//136 149//136
f 151//137 152//137 153//137
f 153//138 152//138 154//138
f 153//139 154//139 155//139
f 155//140 154//140 156//140
f 155//141 156//141 157//141
f 157//142 156//142 158//142
f 158//143 159//143 157//143
f 157//144 159//144 160//144
f 159//145 161//145 160//145
f 160//146 161//146 162//146
f 161//147 163//147 162//147
f 162//148 163//148 164//148
f 163//149 165//149 164//149
f 164//150 165//150 166//150
f 165//151 167//151 166//151
f 166//152 167//152 168//152
f 168//153 167//153 169//153
f 169//154 167//154 170//154
f 171//155 169//155 170//155
f 172//156 169//156 171//156
f 173//157 175//157 174//157
f 174//158 175//158 176//158
f 175//159 177//159 176//159
f 178//160 177//160 175//160
f 177//161 178//161 179//161
f 179//162 178//162 180//162
f 179//163 180//163 181//163
f 181//164 180//164 182//164
f 181//165 182//165 183//165
f 183//166 182//166 184//166
f 183//167 184//167 185//167
f 185//168 184//168 186//168
f 186//169 187//169 185//169
f 185//170 187//170 188//170
f 187//171 189//171 188//171
f 188//172 189//172 190//172
f 189//173 191//173 190//173
f 190//174 191//174 192//174
f 191//175 193//175 192//175
f 192//176 193//176 194//176
f 194//177 193//177 195//177
f 195//178 193//178 196//178
f 197//179 195//179 196//179
f 198//180 195//180 197//180

# Thank you for using Spin 3D

