# Created using Spin 3D

# Vertex Array 
v -0.273 0.117 0.273
v -0.356 0.117 0.148
v -0.356 0.000 0.148
v -0.273 -0.000 0.273
v -0.386 0.000 0.000
v -0.148 0.117 0.356
v -0.386 0.117 0.000
v -0.148 -0.000 0.356
v -0.356 -0.000 -0.148
v 0.000 0.117 0.386
v -0.356 0.117 -0.148
v 0.000 0.000 0.386
v -0.273 0.000 -0.273
v 0.148 0.117 0.356
v -0.273 0.117 -0.273
v 0.148 -0.000 0.356
v -0.148 0.000 -0.356
v 0.273 0.117 0.273
v -0.148 0.117 -0.356
v 0.273 -0.000 0.273
v 0.000 -0.000 -0.386
v 0.356 0.117 0.148
v 0.000 0.117 -0.386
v 0.356 0.000 0.148
v 0.148 0.000 -0.356
v 0.386 0.117 0.000
v 0.148 0.117 -0.356
v 0.386 0.000 0.000
v 0.273 0.000 -0.273
v 0.356 0.117 -0.148
v 0.273 0.117 -0.273
v 0.356 -0.000 -0.148
v 0.000 -0.000 0.516
v 0.000 0.117 0.516
v 0.197 0.000 0.476
v 0.197 0.117 0.476
v -0.197 0.117 0.476
v 0.365 -0.000 0.365
v -0.197 0.000 0.476
v 0.365 0.117 0.365
v -0.365 0.117 0.365
v 0.476 -0.000 0.197
v -0.365 -0.000 0.365
v 0.476 0.117 0.197
v -0.476 0.117 0.197
v 0.516 0.000 0.000
v -0.476 -0.000 0.197
v 0.516 0.117 0.000
v -0.516 0.117 0.000
v 0.476 0.000 -0.197
v -0.516 0.000 0.000
v 0.476 0.117 -0.197
v -0.476 0.117 -0.197
v 0.365 0.000 -0.365
v -0.476 0.000 -0.197
v 0.365 0.117 -0.365
v -0.365 0.117 -0.365
v 0.197 -0.000 -0.476
v -0.365 0.000 -0.365
v 0.197 0.117 -0.476
v -0.197 0.117 -0.476
v 0.000 0.000 -0.516
v -0.197 -0.000 -0.476
v 0.000 0.117 -0.516
v -0.365 0.117 -0.365
v -0.197 0.117 -0.476
v -0.148 0.117 -0.356
v -0.273 0.117 -0.273
v 0.000 0.117 -0.386
v -0.476 0.117 -0.197
v 0.000 0.117 -0.516
v -0.356 0.117 -0.148
v 0.148 0.117 -0.356
v -0.516 0.117 0.000
v 0.197 0.117 -0.476
v -0.386 0.117 0.000
v 0.273 0.117 -0.273
v -0.476 0.117 0.197
v 0.365 0.117 -0.365
v -0.356 0.117 0.148
v 0.356 0.117 -0.148
v -0.365 0.117 0.365
v 0.476 0.117 -0.197
v -0.273 0.117 0.273
v 0.386 0.117 0.000
v -0.197 0.117 0.476
v 0.516 0.117 0.000
v -0.148 0.117 0.356
v 0.356 0.117 0.148
v 0.000 0.117 0.516
v 0.476 0.117 0.197
v 0.000 0.117 0.386
v 0.273 0.117 0.273
v 0.197 0.117 0.476
v 0.365 0.117 0.365
v 0.148 0.117 0.356
v -0.365 0.000 -0.365
v -0.273 0.000 -0.273
v -0.148 0.000 -0.356
v -0.197 -0.000 -0.476
v -0.476 0.000 -0.197
v 0.000 -0.000 -0.386
v -0.356 -0.000 -0.148
v 0.000 0.000 -0.516
v -0.516 0.000 0.000
v 0.148 0.000 -0.356
v -0.386 0.000 0.000
v 0.197 -0.000 -0.476
v -0.476 -0.000 0.197
v 0.273 0.000 -0.273
v -0.356 0.000 0.148
v 0.365 0.000 -0.365
v -0.365 -0.000 0.365
v 0.356 -0.000 -0.148
v -0.273 -0.000 0.273
v 0.476 0.000 -0.197
v -0.197 0.000 0.476
v 0.386 0.000 0.000
v -0.148 -0.000 0.356
v 0.516 0.000 0.000
v 0.000 -0.000 0.516
v 0.356 0.000 0.148
v 0.000 0.000 0.386
v 0.476 -0.000 0.197
v 0.197 0.000 0.476
v 0.273 -0.000 0.273
v 0.148 -0.000 0.356
v 0.365 -0.000 0.365

# Normal Array
vn 0.831 -0.000 -0.556
vn 0.831 0.000 -0.556
vn 0.981 -0.000 -0.195
vn 0.556 0.000 -0.831
vn 0.981 0.000 -0.195
vn 0.556 0.000 -0.831
vn 0.981 -0.000 0.195
vn 0.195 0.000 -0.981
vn 0.981 0.000 0.195
vn 0.195 0.000 -0.981
vn 0.831 0.000 0.556
vn -0.195 0.000 -0.981
vn 0.831 0.000 0.556
vn -0.195 0.000 -0.981
vn 0.556 -0.000 0.831
vn -0.556 0.000 -0.831
vn 0.556 0.000 0.831
vn -0.556 0.000 -0.831
vn 0.195 -0.000 0.981
vn -0.831 0.000 -0.556
vn 0.195 0.000 0.981
vn -0.831 -0.000 -0.556
vn -0.195 0.000 0.981
vn -0.981 -0.000 -0.195
vn -0.195 0.000 0.981
vn -0.981 0.000 -0.195
vn -0.556 0.000 0.831
vn -0.981 0.000 0.195
vn -0.556 0.000 0.831
vn -0.981 0.000 0.195
vn -0.831 0.000 0.556
vn -0.831 0.000 0.556
vn 0.195 -0.000 0.981
vn 0.195 0.000 0.981
vn -0.195 0.000 0.981
vn 0.556 -0.000 0.831
vn -0.195 0.000 0.981
vn 0.556 0.000 0.831
vn -0.556 0.000 0.831
vn 0.831 -0.000 0.556
vn -0.556 0.000 0.831
vn 0.831 0.000 0.556
vn -0.831 0.000 0.556
vn 0.981 0.000 0.195
vn -0.831 0.000 0.556
vn 0.981 0.000 0.195
vn -0.981 0.000 0.195
vn 0.981 0.000 -0.195
vn -0.981 0.000 0.195
vn 0.981 -0.000 -0.195
vn -0.981 0.000 -0.195
vn 0.831 -0.000 -0.556
vn -0.981 -0.000 -0.195
vn 0.831 0.000 -0.556
vn -0.831 -0.000 -0.556
vn 0.556 0.000 -0.831
vn -0.831 0.000 -0.556
vn 0.556 0.000 -0.831
vn -0.556 0.000 -0.831
vn 0.195 0.000 -0.981
vn -0.556 0.000 -0.831
vn 0.195 0.000 -0.981
vn -0.195 0.000 -0.981
vn -0.195 0.000 -0.981
vn -0.000 1.000 0.000
vn 0.000 1.000 -0.000
vn 0.000 1.000 -0.000
vn -0.000 1.000 -0.000
vn 0.000 1.000 0.000
vn -0.000 1.000 0.000
vn -0.000 1.000 0.000
vn 0.000 1.000 0.000
vn 0.000 1.000 0.000
vn 0.000 1.000 0.000
vn -0.000 1.000 -0.000
vn 0.000 1.000 0.000
vn 0.000 1.000 -0.000
vn 0.000 1.000 0.000
vn 0.000 1.000 0.000
vn 0.000 1.000 0.000
vn 0.000 1.000 -0.000
vn 0.000 1.000 0.000
vn -0.000 1.000 0.000
vn 0.000 1.000 -0.000
vn 0.000 1.000 -0.000
vn -0.000 1.000 -0.000
vn 0.000 1.000 -0.000
vn 0.000 1.000 0.000
vn 0.000 1.000 0.000
vn -0.000 1.000 0.000
vn -0.000 1.000 0.000
vn 0.000 1.000 0.000
vn -0.000 1.000 -0.000
vn 0.000 1.000 -0.000
vn 0.000 1.000 -0.000
vn 0.000 1.000 0.000
vn -0.000 -1.000 -0.000
vn -0.000 -1.000 0.000
vn -0.000 -1.000 -0.000
vn -0.000 -1.000 0.000
vn -0.000 -1.000 -0.000
vn 0.000 -1.000 -0.000
vn -0.000 -1.000 -0.000
vn 0.000 -1.000 -0.000
vn 0.000 -1.000 0.000
vn -0.000 -1.000 0.000
vn 0.000 -1.000 -0.000
vn -0.000 -1.000 0.000
vn 0.000 -1.000 0.000
vn 0.000 -1.000 0.000
vn 0.000 -1.000 -0.000
vn -0.000 -1.000 -0.000
vn -0.000 -1.000 -0.000
vn 0.000 -1.000 -0.000
vn 0.000 -1.000 0.000
vn 0.000 -1.000 0.000
vn -0.000 -1.000 0.000
vn -0.000 -1.000 -0.000
vn -0.000 -1.000 0.000
vn 0.000 -1.000 0.000
vn 0.000 -1.000 -0.000
vn -0.000 -1.000 -0.000
vn 0.000 -1.000 -0.000
vn -0.000 -1.000 -0.000
vn -0.000 -1.000 0.000
vn -0.000 -1.000 -0.000
vn -0.000 -1.000 -0.000
vn -0.000 -1.000 0.000

# Facets
f 1//1 3//1 2//1
f 4//2 3//2 1//2
f 3//3 5//3 2//3
f 6//4 4//4 1//4
f 2//5 5//5 7//5
f 8//6 4//6 6//6
f 5//7 9//7 7//7
f 10//8 8//8 6//8
f 7//9 9//9 11//9
f 12//10 8//10 10//10
f 9//11 13//11 11//11
f 14//12 12//12 10//12
f 11//13 13//13 15//13
f 16//14 12//14 14//14
f 13//15 17//15 15//15
f 18//16 16//16 14//16
f 15//17 17//17 19//17
f 20//18 16//18 18//18
f 17//19 21//19 19//19
f 22//20 20//20 18//20
f 19//21 21//21 23//21
f 24//22 20//22 22//22
f 21//23 25//23 23//23
f 26//24 24//24 22//24
f 23//25 25//25 27//25
f 28//26 24//26 26//26
f 25//27 29//27 27//27
f 30//28 28//28 26//28
f 27//29 29//29 31//29
f 32//30 28//30 30//30
f 29//31 32//31 31//31
f 31//32 32//32 30//32
f 33//33 35//33 34//33
f 34//34 35//34 36//34
f 37//35 33//35 34//35
f 35//36 38//36 36//36
f 39//37 33//37 37//37
f 36//38 38//38 40//38
f 41//39 39//39 37//39
f 38//40 42//40 40//40
f 43//41 39//41 41//41
f 40//42 42//42 44//42
f 45//43 43//43 41//43
f 42//44 46//44 44//44
f 47//45 43//45 45//45
f 44//46 46//46 48//46
f 49//47 47//47 45//47
f 46//48 50//48 48//48
f 51//49 47//49 49//49
f 48//50 50//50 52//50
f 53//51 51//51 49//51
f 50//52 54//52 52//52
f 55//53 51//53 53//53
f 52//54 54//54 56//54
f 57//55 55//55 53//55
f 54//56 58//56 56//56
f 59//57 55//57 57//57
f 56//58 58//58 60//58
f 61//59 59//59 57//59
f 58//60 62//60 60//60
f 63//61 59//61 61//61
f 60//62 62//62 64//62
f 64//63 63//63 61//63
f 62//64 63//64 64//64
f 65//65 67//65 66//65
f 68//66 67//66 65//66
f 67//67 69//67 66//67
f 70//68 68//68 65//68
f 66//69 69//69 71//69
f 72//70 68//70 70//70
f 69//71 73//71 71//71
f 74//72 72//72 70//72
f 71//73 73//73 75//73
f 76//74 72//74 74//74
f 73//75 77//75 75//75
f 78//76 76//76 74//76
f 75//77 77//77 79//77
f 80//78 76//78 78//78
f 77//79 81//79 79//79
f 82//80 80//80 78//80
f 79//81 81//81 83//81
f 84//82 80//82 82//82
f 81//83 85//83 83//83
f 86//84 84//84 82//84
f 83//85 85//85 87//85
f 88//86 84//86 86//86
f 85//87 89//87 87//87
f 90//88 88//88 86//88
f 87//89 89//89 91//89
f 92//90 88//90 90//90
f 89//91 93//91 91//91
f 94//92 92//92 90//92
f 91//93 93//93 95//93
f 96//94 92//94 94//94
f 93//95 96//95 95//95
f 95//96 96//96 94//96
f 97//97 99//97 98//97
f 100//98 99//98 97//98
f 97//99 98//99 101//99
f 100//100 102//100 99//100
f 101//101 98//101 103//101
f 104//102 102//102 100//102
f 101//103 103//103 105//103
f 104//104 106//104 102//104
f 105//105 103//105 107//105
f 108//106 106//106 104//106
f 105//107 107//107 109//107
f 108//108 110//108 106//108
f 109//109 107//109 111//109
f 112//110 110//110 108//110
f 109//111 111//111 113//111
f 112//112 114//112 110//112
f 113//113 111//113 115//113
f 116//114 114//114 112//114
f 113//115 115//115 117//115
f 116//116 118//116 114//116
f 117//117 115//117 119//117
f 120//118 118//118 116//118
f 117//119 119//119 121//119
f 120//120 122//120 118//120
f 121//121 119//121 123//121
f 124//122 122//122 120//122
f 121//123 123//123 125//123
f 124//124 126//124 122//124
f 125//125 123//125 127//125
f 128//126 126//126 124//126
f 128//127 127//127 126//127
f 125//128 127//128 128//128

# Thank you for using Spin 3D

