# Created using Spin 3D

# Vertex Array 
v 16.406 0.664 -0.146
v 16.358 0.608 -0.146
v 16.358 0.608 0.146
v 16.406 0.664 0.146
v 15.937 1.026 -0.146
v 15.895 0.964 -0.146
v 16.358 0.608 -0.146
v 16.406 0.664 -0.146
v 15.937 1.026 0.146
v 15.895 0.964 0.146
v 15.895 0.964 -0.146
v 15.937 1.026 -0.146
v 16.406 0.664 0.146
v 16.358 0.608 0.146
v 15.895 0.964 0.146
v 15.937 1.026 0.146
v 15.895 0.964 0.146
v 16.358 0.608 0.146
v 16.358 0.608 -0.146
v 15.895 0.964 -0.146
v 16.406 0.664 0.146
v 15.937 1.026 0.146
v 15.937 1.026 -0.146
v 16.406 0.664 -0.146
v 15.203 1.458 -0.146
v 15.170 1.392 -0.146
v 15.170 1.392 0.146
v 15.203 1.458 0.146
v 14.667 1.709 -0.146
v 14.639 1.640 -0.146
v 15.170 1.392 -0.146
v 15.203 1.458 -0.146
v 14.667 1.709 0.146
v 14.639 1.640 0.146
v 14.639 1.640 -0.146
v 14.667 1.709 -0.146
v 15.203 1.458 0.146
v 15.170 1.392 0.146
v 14.639 1.640 0.146
v 14.667 1.709 0.146
v 14.639 1.640 0.146
v 15.170 1.392 0.146
v 15.170 1.392 -0.146
v 14.639 1.640 -0.146
v 15.203 1.458 0.146
v 14.667 1.709 0.146
v 14.667 1.709 -0.146
v 15.203 1.458 -0.146
v 13.866 1.996 -0.146
v 13.844 1.925 -0.146
v 13.844 1.925 0.146
v 13.866 1.996 0.146
v 13.296 2.151 -0.146
v 13.278 2.079 -0.146
v 13.844 1.925 -0.146
v 13.866 1.996 -0.146
v 13.296 2.151 0.146
v 13.278 2.079 0.146
v 13.278 2.079 -0.146
v 13.296 2.151 -0.146
v 13.866 1.996 0.146
v 13.844 1.925 0.146
v 13.278 2.079 0.146
v 13.296 2.151 0.146
v 13.278 2.079 0.146
v 13.844 1.925 0.146
v 13.844 1.925 -0.146
v 13.278 2.079 -0.146
v 13.866 1.996 0.146
v 13.296 2.151 0.146
v 13.296 2.151 -0.146
v 13.866 1.996 -0.146
v 12.465 2.328 -0.146
v 12.452 2.255 -0.146
v 12.452 2.255 0.146
v 12.465 2.328 0.146
v 11.883 2.428 -0.146
v 11.873 2.354 -0.146
v 12.452 2.255 -0.146
v 12.465 2.328 -0.146
v 11.883 2.428 0.146
v 11.873 2.354 0.146
v 11.873 2.354 -0.146
v 11.883 2.428 -0.146
v 12.465 2.328 0.146
v 12.452 2.255 0.146
v 11.873 2.354 0.146
v 11.883 2.428 0.146
v 11.873 2.354 0.146
v 12.452 2.255 0.146
v 12.452 2.255 -0.146
v 11.873 2.354 -0.146
v 12.465 2.328 0.146
v 11.883 2.428 0.146
v 11.883 2.428 -0.146
v 12.465 2.328 -0.146
v 11.039 2.520 -0.146
v 11.032 2.446 -0.146
v 11.032 2.446 0.146
v 11.039 2.520 0.146
v 10.450 2.561 -0.146
v 10.446 2.486 -0.146
v 11.032 2.446 -0.146
v 11.039 2.520 -0.146
v 10.450 2.561 0.146
v 10.446 2.486 0.146
v 10.446 2.486 -0.146
v 10.450 2.561 -0.146
v 11.039 2.520 0.146
v 11.032 2.446 0.146
v 10.446 2.486 0.146
v 10.450 2.561 0.146
v 10.446 2.486 0.146
v 11.032 2.446 0.146
v 11.032 2.446 -0.146
v 10.446 2.486 -0.146
v 11.039 2.520 0.146
v 10.450 2.561 0.146
v 10.450 2.561 -0.146
v 11.039 2.520 -0.146
v 9.602 2.594 -0.146
v 9.600 2.520 -0.146
v 9.600 2.520 0.146
v 9.602 2.594 0.146
v 9.012 2.594 -0.146
v 9.013 2.519 -0.146
v 9.600 2.520 -0.146
v 9.602 2.594 -0.146
v 9.012 2.594 0.146
v 9.013 2.519 0.146
v 9.013 2.519 -0.146
v 9.012 2.594 -0.146
v 9.602 2.594 0.146
v 9.600 2.520 0.146
v 9.013 2.519 0.146
v 9.012 2.594 0.146
v 9.013 2.519 0.146
v 9.600 2.520 0.146
v 9.600 2.520 -0.146
v 9.013 2.519 -0.146
v 9.602 2.594 0.146
v 9.012 2.594 0.146
v 9.012 2.594 -0.146
v 9.602 2.594 -0.146
v 8.163 2.577 -0.146
v 8.166 2.502 -0.146
v 8.166 2.502 0.146
v 8.163 2.577 0.146
v 7.575 2.540 -0.146
v 7.580 2.465 -0.146
v 8.166 2.502 -0.146
v 8.163 2.577 -0.146
v 7.575 2.540 0.146
v 7.580 2.465 0.146
v 7.580 2.465 -0.146
v 7.575 2.540 -0.146
v 8.163 2.577 0.146
v 8.166 2.502 0.146
v 7.580 2.465 0.146
v 7.575 2.540 0.146
v 7.580 2.465 0.146
v 8.166 2.502 0.146
v 8.166 2.502 -0.146
v 7.580 2.465 -0.146
v 8.163 2.577 0.146
v 7.575 2.540 0.146
v 7.575 2.540 -0.146
v 8.163 2.577 -0.146
v 6.728 2.472 -0.146
v 6.736 2.398 -0.146
v 6.736 2.398 0.146
v 6.728 2.472 0.146
v 6.143 2.392 -0.146
v 6.154 2.318 -0.146
v 6.736 2.398 -0.146
v 6.728 2.472 -0.146
v 6.143 2.392 0.146
v 6.154 2.318 0.146
v 6.154 2.318 -0.146
v 6.143 2.392 -0.146
v 6.728 2.472 0.146
v 6.736 2.398 0.146
v 6.154 2.318 0.146
v 6.143 2.392 0.146
v 6.154 2.318 0.146
v 6.736 2.398 0.146
v 6.736 2.398 -0.146
v 6.154 2.318 -0.146
v 6.728 2.472 0.146
v 6.143 2.392 0.146
v 6.143 2.392 -0.146
v 6.728 2.472 -0.146
v 5.305 2.255 -0.146
v 5.319 2.181 -0.146
v 5.319 2.181 0.146
v 5.305 2.255 0.146
v 4.727 2.138 -0.146
v 4.743 2.065 -0.146
v 5.319 2.181 -0.146
v 5.305 2.255 -0.146
v 4.727 2.138 0.146
v 4.743 2.065 0.146
v 4.743 2.065 -0.146
v 4.727 2.138 -0.146
v 5.305 2.255 0.146
v 5.319 2.181 0.146
v 4.743 2.065 0.146
v 4.727 2.138 0.146
v 4.743 2.065 0.146
v 5.319 2.181 0.146
v 5.319 2.181 -0.146
v 4.743 2.065 -0.146
v 5.305 2.255 0.146
v 4.727 2.138 0.146
v 4.727 2.138 -0.146
v 5.305 2.255 -0.146
v 3.905 1.922 -0.146
v 3.926 1.851 -0.146
v 3.926 1.851 0.146
v 3.905 1.922 0.146
v 3.343 1.740 -0.146
v 3.367 1.670 -0.146
v 3.926 1.851 -0.146
v 3.905 1.922 -0.146
v 3.343 1.740 0.146
v 3.367 1.670 0.146
v 3.367 1.670 -0.146
v 3.343 1.740 -0.146
v 3.905 1.922 0.146
v 3.926 1.851 0.146
v 3.367 1.670 0.146
v 3.343 1.740 0.146
v 3.367 1.670 0.146
v 3.926 1.851 0.146
v 3.926 1.851 -0.146
v 3.367 1.670 -0.146
v 3.905 1.922 0.146
v 3.343 1.740 0.146
v 3.343 1.740 -0.146
v 3.905 1.922 -0.146
v 2.549 1.437 -0.146
v 2.578 1.368 -0.146
v 2.578 1.368 0.146
v 2.549 1.437 0.146
v 2.013 1.188 -0.146
v 2.046 1.121 -0.146
v 2.578 1.368 -0.146
v 2.549 1.437 -0.146
v 2.013 1.188 0.146
v 2.046 1.121 0.146
v 2.046 1.121 -0.146
v 2.013 1.188 -0.146
v 2.549 1.437 0.146
v 2.578 1.368 0.146
v 2.046 1.121 0.146
v 2.013 1.188 0.146
v 2.046 1.121 0.146
v 2.578 1.368 0.146
v 2.578 1.368 -0.146
v 2.046 1.121 -0.146
v 2.549 1.437 0.146
v 2.013 1.188 0.146
v 2.013 1.188 -0.146
v 2.549 1.437 -0.146
v 1.269 0.775 -0.146
v 1.308 0.711 -0.146
v 1.308 0.711 0.146
v 1.269 0.775 0.146
v 0.771 0.464 -0.146
v 0.807 0.398 -0.146
v 1.308 0.711 -0.146
v 1.269 0.775 -0.146
v 0.771 0.464 0.146
v 0.807 0.398 0.146
v 0.807 0.398 -0.146
v 0.771 0.464 -0.146
v 1.269 0.775 0.146
v 1.308 0.711 0.146
v 0.807 0.398 0.146
v 0.771 0.464 0.146
v 0.807 0.398 0.146
v 1.308 0.711 0.146
v 1.308 0.711 -0.146
v 0.807 0.398 -0.146
v 1.269 0.775 0.146
v 0.771 0.464 0.146
v 0.771 0.464 -0.146
v 1.269 0.775 -0.146
v 17.476 -0.000 -0.197
v 17.476 0.117 -0.197
v 17.365 -0.000 -0.365
v 17.365 0.117 -0.365
v 17.516 0.117 0.000
v 17.197 -0.000 -0.476
v 17.516 -0.000 0.000
v 17.197 0.117 -0.476
v 17.476 0.117 0.197
v 17.000 -0.000 -0.516
v 17.476 -0.000 0.197
v 17.000 0.117 -0.516
v 17.365 0.117 0.365
v 16.803 -0.000 -0.476
v 17.365 -0.000 0.365
v 16.803 0.117 -0.476
v 17.197 0.117 0.476
v 16.635 -0.000 -0.365
v 17.197 -0.000 0.476
v 16.635 0.117 -0.365
v 17.000 0.117 0.516
v 16.524 -0.000 -0.197
v 17.000 -0.000 0.516
v 16.524 0.117 -0.197
v 16.803 0.117 0.476
v 16.484 -0.000 0.000
v 16.803 -0.000 0.476
v 16.484 0.117 0.000
v 16.635 0.117 0.365
v 16.524 -0.000 0.197
v 16.635 -0.000 0.365
v 16.524 0.117 0.197
v 17.386 0.117 0.000
v 17.356 0.117 0.148
v 17.356 -0.000 0.148
v 17.386 -0.000 0.000
v 17.273 -0.000 0.273
v 17.356 0.117 -0.148
v 17.273 0.117 0.273
v 17.356 -0.000 -0.148
v 17.148 -0.000 0.356
v 17.273 0.117 -0.273
v 17.148 0.117 0.356
v 17.273 -0.000 -0.273
v 17.000 -0.000 0.386
v 17.148 0.117 -0.356
v 17.000 0.117 0.386
v 17.148 -0.000 -0.356
v 16.852 -0.000 0.356
v 17.000 0.117 -0.386
v 16.852 0.117 0.356
v 17.000 -0.000 -0.386
v 16.727 -0.000 0.273
v 16.852 0.117 -0.356
v 16.727 0.117 0.273
v 16.852 -0.000 -0.356
v 16.644 -0.000 0.148
v 16.727 0.117 -0.273
v 16.644 0.117 0.148
v 16.727 -0.000 -0.273
v 16.614 -0.000 0.000
v 16.644 0.117 -0.148
v 16.614 0.117 0.000
v 16.644 -0.000 -0.148
v 16.635 0.117 -0.365
v 16.803 0.117 -0.476
v 16.852 0.117 -0.356
v 16.727 0.117 -0.273
v 17.000 0.117 -0.386
v 16.524 0.117 -0.197
v 17.000 0.117 -0.516
v 16.644 0.117 -0.148
v 17.148 0.117 -0.356
v 16.484 0.117 0.000
v 17.197 0.117 -0.476
v 16.614 0.117 0.000
v 17.273 0.117 -0.273
v 16.524 0.117 0.197
v 17.365 0.117 -0.365
v 16.644 0.117 0.148
v 17.356 0.117 -0.148
v 16.635 0.117 0.365
v 17.476 0.117 -0.197
v 16.727 0.117 0.273
v 17.386 0.117 0.000
v 16.803 0.117 0.476
v 17.516 0.117 0.000
v 16.852 0.117 0.356
v 17.356 0.117 0.148
v 17.000 0.117 0.516
v 17.476 0.117 0.197
v 17.000 0.117 0.386
v 17.273 0.117 0.273
v 17.197 0.117 0.476
v 17.365 0.117 0.365
v 17.148 0.117 0.356
v 16.635 -0.000 -0.365
v 16.727 -0.000 -0.273
v 16.852 -0.000 -0.356
v 16.803 -0.000 -0.476
v 16.524 -0.000 -0.197
v 17.000 -0.000 -0.386
v 16.644 -0.000 -0.148
v 17.000 -0.000 -0.516
v 16.484 -0.000 0.000
v 17.148 -0.000 -0.356
v 16.614 -0.000 0.000
v 17.197 -0.000 -0.476
v 16.524 -0.000 0.197
v 17.273 -0.000 -0.273
v 16.644 -0.000 0.148
v 17.365 -0.000 -0.365
v 16.635 -0.000 0.365
v 17.356 -0.000 -0.148
v 16.727 -0.000 0.273
v 17.476 -0.000 -0.197
v 16.803 -0.000 0.476
v 17.386 -0.000 0.000
v 16.852 -0.000 0.356
v 17.516 -0.000 0.000
v 17.000 -0.000 0.516
v 17.356 -0.000 0.148
v 17.000 -0.000 0.386
v 17.476 -0.000 0.197
v 17.197 -0.000 0.476
v 17.273 -0.000 0.273
v 17.148 -0.000 0.356
v 17.365 -0.000 0.365

# Normal Array
vn 0.757 -0.653 0.000
vn 0.757 -0.653 0.000
vn 0.000 0.000 -1.000
vn 0.000 0.000 -1.000
vn -0.825 0.566 0.000
vn -0.825 0.566 0.000
vn -0.000 -0.000 1.000
vn -0.000 -0.000 1.000
vn -0.611 -0.792 0.000
vn -0.611 -0.792 0.000
vn 0.611 0.792 0.000
vn 0.611 0.792 -0.000
vn 0.891 -0.453 0.000
vn 0.891 -0.453 0.000
vn 0.000 -0.000 -1.000
vn 0.000 -0.000 -1.000
vn -0.923 0.384 0.000
vn -0.923 0.384 0.000
vn -0.000 0.000 1.000
vn -0.000 0.000 1.000
vn -0.423 -0.906 0.000
vn -0.423 -0.906 0.000
vn 0.423 0.906 0.000
vn 0.423 0.906 -0.000
vn 0.955 -0.298 0.000
vn 0.955 -0.298 0.000
vn 0.000 0.000 -1.000
vn 0.000 0.000 -1.000
vn -0.969 0.246 0.000
vn -0.969 0.246 0.000
vn -0.000 -0.000 1.000
vn -0.000 -0.000 1.000
vn -0.263 -0.965 0.000
vn -0.263 -0.965 0.000
vn 0.263 0.965 0.000
vn 0.263 0.965 -0.000
vn 0.984 -0.181 -0.000
vn 0.984 -0.181 0.000
vn 0.000 -0.000 -1.000
vn 0.000 0.000 -1.000
vn -0.990 0.139 0.000
vn -0.990 0.139 0.000
vn 0.000 -0.000 1.000
vn 0.000 -0.000 1.000
vn -0.169 -0.986 -0.000
vn -0.169 -0.986 0.000
vn 0.169 0.986 0.000
vn 0.169 0.986 -0.000
vn 0.996 -0.089 0.000
vn 0.996 -0.089 0.000
vn 0.000 0.000 -1.000
vn 0.000 -0.000 -1.000
vn -0.998 0.058 0.000
vn -0.998 0.058 0.000
vn -0.000 0.000 1.000
vn -0.000 -0.000 1.000
vn -0.069 -0.998 0.000
vn -0.069 -0.998 0.000
vn 0.069 0.998 0.000
vn 0.069 0.998 -0.000
vn 1.000 -0.019 0.000
vn 1.000 -0.019 0.000
vn -0.000 0.000 -1.000
vn -0.000 0.000 -1.000
vn -1.000 -0.007 0.000
vn -1.000 -0.007 0.000
vn -0.000 0.000 1.000
vn -0.000 -0.000 1.000
vn 0.001 -1.000 0.000
vn 0.001 -1.000 0.000
vn -0.001 1.000 0.000
vn -0.001 1.000 0.000
vn 0.999 0.042 0.000
vn 0.999 0.042 0.000
vn -0.000 0.000 -1.000
vn -0.000 -0.000 -1.000
vn -0.998 -0.069 0.000
vn -0.998 -0.069 0.000
vn 0.000 0.000 1.000
vn 0.000 -0.000 1.000
vn 0.062 -0.998 0.000
vn 0.062 -0.998 0.000
vn -0.062 0.998 0.000
vn -0.062 0.998 0.000
vn 0.994 0.109 0.000
vn 0.994 0.109 0.000
vn -0.000 0.000 -1.000
vn 0.000 -0.000 -1.000
vn -0.990 -0.140 0.000
vn -0.990 -0.140 0.000
vn 0.000 0.000 1.000
vn 0.000 -0.000 1.000
vn 0.137 -0.991 0.000
vn 0.137 -0.991 0.000
vn -0.137 0.991 0.000
vn -0.137 0.991 0.000
vn 0.982 0.188 0.000
vn 0.982 0.188 0.000
vn -0.000 -0.000 -1.000
vn -0.000 0.000 -1.000
vn -0.975 -0.224 0.000
vn -0.975 -0.224 0.000
vn 0.000 -0.000 1.000
vn -0.000 -0.000 1.000
vn 0.197 -0.980 -0.000
vn 0.197 -0.980 0.000
vn -0.197 0.980 0.000
vn -0.197 0.980 0.000
vn 0.960 0.282 0.000
vn 0.960 0.282 0.000
vn -0.000 -0.000 -1.000
vn -0.000 0.000 -1.000
vn -0.945 -0.326 0.000
vn -0.945 -0.326 0.000
vn 0.000 -0.000 1.000
vn 0.000 0.000 1.000
vn 0.308 -0.951 0.000
vn 0.308 -0.951 0.000
vn -0.308 0.951 0.000
vn -0.308 0.951 0.000
vn 0.919 0.395 0.000
vn 0.919 0.395 0.000
vn -0.000 0.000 -1.000
vn -0.000 -0.000 -1.000
vn -0.895 -0.447 0.000
vn -0.895 -0.447 0.000
vn 0.000 0.000 1.000
vn 0.000 -0.000 1.000
vn 0.421 -0.907 0.000
vn 0.421 -0.907 0.000
vn -0.421 0.907 0.000
vn -0.421 0.907 0.000
vn 0.854 0.520 0.000
vn 0.854 0.520 0.000
vn -0.000 -0.000 -1.000
vn -0.000 0.000 -1.000
vn -0.880 -0.476 -0.000
vn -0.880 -0.476 -0.000
vn 0.000 -0.000 1.000
vn 0.000 0.000 1.000
vn 0.529 -0.848 0.000
vn 0.529 -0.848 -0.000
vn -0.530 0.848 0.000
vn -0.530 0.848 0.000
vn 0.831 -0.000 -0.556
vn 0.831 0.000 -0.556
vn 0.981 -0.000 -0.195
vn 0.556 0.000 -0.831
vn 0.981 0.000 -0.195
vn 0.556 0.000 -0.831
vn 0.981 0.000 0.195
vn 0.195 0.000 -0.981
vn 0.981 0.000 0.195
vn 0.195 0.000 -0.981
vn 0.831 0.000 0.556
vn -0.195 0.000 -0.981
vn 0.831 -0.000 0.556
vn -0.195 0.000 -0.981
vn 0.556 0.000 0.831
vn -0.556 0.000 -0.831
vn 0.556 -0.000 0.831
vn -0.556 0.000 -0.831
vn 0.195 0.000 0.981
vn -0.831 0.000 -0.556
vn 0.195 -0.000 0.981
vn -0.831 -0.000 -0.556
vn -0.195 0.000 0.981
vn -0.981 -0.000 -0.195
vn -0.195 0.000 0.981
vn -0.981 0.000 -0.195
vn -0.556 0.000 0.831
vn -0.981 0.000 0.195
vn -0.556 0.000 0.831
vn -0.981 0.000 0.195
vn -0.831 0.000 0.556
vn -0.831 0.000 0.556
vn -0.981 -0.000 -0.195
vn -0.981 0.000 -0.195
vn -0.831 -0.000 -0.556
vn -0.981 0.000 0.195
vn -0.831 0.000 -0.556
vn -0.981 0.000 0.195
vn -0.556 0.000 -0.831
vn -0.831 0.000 0.556
vn -0.556 0.000 -0.831
vn -0.831 0.000 0.556
vn -0.195 0.000 -0.981
vn -0.556 0.000 0.831
vn -0.195 0.000 -0.981
vn -0.556 0.000 0.831
vn 0.195 0.000 -0.981
vn -0.195 0.000 0.981
vn 0.195 0.000 -0.981
vn -0.195 0.000 0.981
vn 0.556 0.000 -0.831
vn 0.195 0.000 0.981
vn 0.556 0.000 -0.831
vn 0.195 -0.000 0.981
vn 0.831 0.000 -0.556
vn 0.556 0.000 0.831
vn 0.831 -0.000 -0.556
vn 0.556 -0.000 0.831
vn 0.981 -0.000 -0.195
vn 0.831 0.000 0.556
vn 0.981 0.000 -0.195
vn 0.831 0.000 0.556
vn 0.981 -0.000 0.195
vn 0.981 0.000 0.195
vn -0.000 1.000 0.000
vn 0.000 1.000 0.000
vn 0.000 1.000 0.000
vn 0.000 1.000 0.000
vn -0.000 1.000 0.000
vn 0.000 1.000 0.000
vn -0.000 1.000 0.000
vn 0.000 1.000 0.000
vn 0.000 1.000 0.000
vn 0.000 1.000 0.000
vn -0.000 1.000 0.000
vn 0.000 1.000 0.000
vn 0.000 1.000 0.000
vn 0.000 1.000 0.000
vn -0.000 1.000 0.000
vn 0.000 1.000 0.000
vn 0.000 1.000 -0.000
vn 0.000 1.000 0.000
vn -0.000 1.000 0.000
vn 0.000 1.000 0.000
vn 0.000 1.000 -0.000
vn 0.000 1.000 0.000
vn 0.000 1.000 -0.000
vn 0.000 1.000 0.000
vn 0.000 1.000 0.000
vn 0.000 1.000 -0.000
vn 0.000 1.000 -0.000
vn 0.000 1.000 0.000
vn 0.000 1.000 0.000
vn 0.000 1.000 -0.000
vn 0.000 1.000 -0.000
vn 0.000 1.000 0.000
vn 0.000 -1.000 0.000
vn 0.000 -1.000 -0.000
vn 0.000 -1.000 0.000
vn -0.000 -1.000 -0.000
vn 0.000 -1.000 0.000
vn -0.000 -1.000 0.000
vn 0.000 -1.000 0.000
vn 0.000 -1.000 0.000
vn 0.000 -1.000 0.000
vn 0.000 -1.000 -0.000
vn 0.000 -1.000 0.000
vn 0.000 -1.000 -0.000
vn 0.000 -1.000 0.000
vn -0.000 -1.000 -0.000
vn 0.000 -1.000 0.000
vn 0.000 -1.000 0.000
vn 0.000 -1.000 0.000
vn -0.000 -1.000 0.000
vn 0.000 -1.000 0.000
vn 0.000 -1.000 0.000
vn 0.000 -1.000 -0.000
vn -0.000 -1.000 0.000
vn 0.000 -1.000 0.000
vn 0.000 -1.000 0.000
vn 0.000 -1.000 -0.000
vn 0.000 -1.000 -0.000
vn 0.000 -1.000 0.000
vn -0.000 -1.000 0.000
vn 0.000 -1.000 0.000
vn 0.000 -1.000 -0.000
vn 0.000 -1.000 0.000
vn 0.000 -1.000 -0.000

# Facets
f 1//1 3//1 2//1
f 4//2 3//2 1//2
f 5//3 7//3 6//3
f 8//4 7//4 5//4
f 9//5 11//5 10//5
f 12//6 11//6 9//6
f 13//7 15//7 14//7
f 16//8 15//8 13//8
f 17//9 19//9 18//9
f 20//10 19//10 17//10
f 21//11 23//11 22//11
f 24//12 23//12 21//12
f 25//13 27//13 26//13
f 28//14 27//14 25//14
f 29//15 31//15 30//15
f 32//16 31//16 29//16
f 33//17 35//17 34//17
f 36//18 35//18 33//18
f 37//19 39//19 38//19
f 40//20 39//20 37//20
f 41//21 43//21 42//21
f 44//22 43//22 41//22
f 45//23 47//23 46//23
f 48//24 47//24 45//24
f 49//25 51//25 50//25
f 52//26 51//26 49//26
f 53//27 55//27 54//27
f 56//28 55//28 53//28
f 57//29 59//29 58//29
f 60//30 59//30 57//30
f 61//31 63//31 62//31
f 64//32 63//32 61//32
f 65//33 67//33 66//33
f 68//34 67//34 65//34
f 69//35 71//35 70//35
f 72//36 71//36 69//36
f 73//37 75//37 74//37
f 76//38 75//38 73//38
f 77//39 79//39 78//39
f 80//40 79//40 77//40
f 81//41 83//41 82//41
f 84//42 83//42 81//42
f 85//43 87//43 86//43
f 88//44 87//44 85//44
f 89//45 91//45 90//45
f 92//46 91//46 89//46
f 93//47 95//47 94//47
f 96//48 95//48 93//48
f 97//49 99//49 98//49
f 100//50 99//50 97//50
f 101//51 103//51 102//51
f 104//52 103//52 101//52
f 105//53 107//53 106//53
f 108//54 107//54 105//54
f 109//55 111//55 110//55
f 112//56 111//56 109//56
f 113//57 115//57 114//57
f 116//58 115//58 113//58
f 117//59 119//59 118//59
f 120//60 119//60 117//60
f 121//61 123//61 122//61
f 124//62 123//62 121//62
f 125//63 127//63 126//63
f 128//64 127//64 125//64
f 129//65 131//65 130//65
f 132//66 131//66 129//66
f 133//67 135//67 134//67
f 136//68 135//68 133//68
f 137//69 139//69 138//69
f 140//70 139//70 137//70
f 141//71 143//71 142//71
f 144//72 143//72 141//72
f 145//73 147//73 146//73
f 148//74 147//74 145//74
f 149//75 151//75 150//75
f 152//76 151//76 149//76
f 153//77 155//77 154//77
f 156//78 155//78 153//78
f 157//79 159//79 158//79
f 160//80 159//80 157//80
f 161//81 163//81 162//81
f 164//82 163//82 161//82
f 165//83 167//83 166//83
f 168//84 167//84 165//84
f 169//85 171//85 170//85
f 172//86 171//86 169//86
f 173//87 175//87 174//87
f 176//88 175//88 173//88
f 177//89 179//89 178//89
f 180//90 179//90 177//90
f 181//91 183//91 182//91
f 184//92 183//92 181//92
f 185//93 187//93 186//93
f 188//94 187//94 185//94
f 189//95 191//95 190//95
f 192//96 191//96 189//96
f 193//97 195//97 194//97
f 196//98 195//98 193//98
f 197//99 199//99 198//99
f 200//100 199//100 197//100
f 201//101 203//101 202//101
f 204//102 203//102 201//102
f 205//103 207//103 206//103
f 208//104 207//104 205//104
f 209//105 211//105 210//105
f 212//106 211//106 209//106
f 213//107 215//107 214//107
f 216//108 215//108 213//108
f 217//109 219//109 218//109
f 220//110 219//110 217//110
f 221//111 223//111 222//111
f 224//112 223//112 221//112
f 225//113 227//113 226//113
f 228//114 227//114 225//114
f 229//115 231//115 230//115
f 232//116 231//116 229//116
f 233//117 235//117 234//117
f 236//118 235//118 233//118
f 237//119 239//119 238//119
f 240//120 239//120 237//120
f 241//121 243//121 242//121
f 244//122 243//122 241//122
f 245//123 247//123 246//123
f 248//124 247//124 245//124
f 249//125 251//125 250//125
f 252//126 251//126 249//126
f 253//127 255//127 254//127
f 256//128 255//128 253//128
f 257//129 259//129 258//129
f 260//130 259//130 257//130
f 261//131 263//131 262//131
f 264//132 263//132 261//132
f 265//133 267//133 266//133
f 268//134 267//134 265//134
f 269//135 271//135 270//135
f 272//136 271//136 269//136
f 273//137 275//137 274//137
f 276//138 275//138 273//138
f 277//139 279//139 278//139
f 280//140 279//140 277//140
f 281//141 283//141 282//141
f 284//142 283//142 281//142
f 285//143 287//143 286//143
f 288//144 287//144 285//144
f 289//145 291//145 290//145
f 290//146 291//146 292//146
f 293//147 289//147 290//147
f 291//148 294//148 292//148
f 295//149 289//149 293//149
f 292//150 294//150 296//150
f 297//151 295//151 293//151
f 294//152 298//152 296//152
f 299//153 295//153 297//153
f 296//154 298//154 300//154
f 301//155 299//155 297//155
f 298//156 302//156 300//156
f 303//157 299//157 301//157
f 300//158 302//158 304//158
f 305//159 303//159 301//159
f 302//160 306//160 304//160
f 307//161 303//161 305//161
f 304//162 306//162 308//162
f 309//163 307//163 305//163
f 306//164 310//164 308//164
f 311//165 307//165 309//165
f 308//166 310//166 312//166
f 313//167 311//167 309//167
f 310//168 314//168 312//168
f 315//169 311//169 313//169
f 312//170 314//170 316//170
f 317//171 315//171 313//171
f 314//172 318//172 316//172
f 319//173 315//173 317//173
f 316//174 318//174 320//174
f 320//175 319//175 317//175
f 318//176 319//176 320//176
f 321//177 323//177 322//177
f 324//178 323//178 321//178
f 323//179 325//179 322//179
f 326//180 324//180 321//180
f 322//181 325//181 327//181
f 328//182 324//182 326//182
f 325//183 329//183 327//183
f 330//184 328//184 326//184
f 327//185 329//185 331//185
f 332//186 328//186 330//186
f 329//187 333//187 331//187
f 334//188 332//188 330//188
f 331//189 333//189 335//189
f 336//190 332//190 334//190
f 333//191 337//191 335//191
f 338//192 336//192 334//192
f 335//193 337//193 339//193
f 340//194 336//194 338//194
f 337//195 341//195 339//195
f 342//196 340//196 338//196
f 339//197 341//197 343//197
f 344//198 340//198 342//198
f 341//199 345//199 343//199
f 346//200 344//200 342//200
f 343//201 345//201 347//201
f 348//202 344//202 346//202
f 345//203 349//203 347//203
f 350//204 348//204 346//204
f 347//205 349//205 351//205
f 352//206 348//206 350//206
f 349//207 352//207 351//207
f 351//208 352//208 350//208
f 353//209 355//209 354//209
f 356//210 355//210 353//210
f 355//211 357//211 354//211
f 358//212 356//212 353//212
f 354//213 357//213 359//213
f 360//214 356//214 358//214
f 357//215 361//215 359//215
f 362//216 360//216 358//216
f 359//217 361//217 363//217
f 364//218 360//218 362//218
f 361//219 365//219 363//219
f 366//220 364//220 362//220
f 363//221 365//221 367//221
f 368//222 364//222 366//222
f 365//223 369//223 367//223
f 370//224 368//224 366//224
f 367//225 369//225 371//225
f 372//226 368//226 370//226
f 369//227 373//227 371//227
f 374//228 372//228 370//228
f 371//229 373//229 375//229
f 376//230 372//230 374//230
f 373//231 377//231 375//231
f 378//232 376//232 374//232
f 375//233 377//233 379//233
f 380//234 376//234 378//234
f 377//235 381//235 379//235
f 382//236 380//236 378//236
f 379//237 381//237 383//237
f 384//238 380//238 382//238
f 381//239 384//239 383//239
f 383//240 384//240 382//240
f 385//241 387//241 386//241
f 388//242 387//242 385//242
f 385//243 386//243 389//243
f 388//244 390//244 387//244
f 389//245 386//245 391//245
f 392//246 390//246 388//246
f 389//247 391//247 393//247
f 392//248 394//248 390//248
f 393//249 391//249 395//249
f 396//250 394//250 392//250
f 393//251 395//251 397//251
f 396//252 398//252 394//252
f 397//253 395//253 399//253
f 400//254 398//254 396//254
f 397//255 399//255 401//255
f 400//256 402//256 398//256
f 401//257 399//257 403//257
f 404//258 402//258 400//258
f 401//259 403//259 405//259
f 404//260 406//260 402//260
f 405//261 403//261 407//261
f 408//262 406//262 404//262
f 405//263 407//263 409//263
f 408//264 410//264 406//264
f 409//265 407//265 411//265
f 412//266 410//266 408//266
f 409//267 411//267 413//267
f 412//268 414//268 410//268
f 413//269 411//269 415//269
f 416//270 414//270 412//270
f 416//271 415//271 414//271
f 413//272 415//272 416//272

# Thank you for using Spin 3D

