# Created using Spin 3D

# Vertex Array 
v -0.500 0.202 -0.249 0 0 0
v 0.096 0.202 -0.249 0 0 0
v 0.096 0.198 0.251 0 0 0
v -0.500 0.198 0.251 0 0 0
v -0.500 0.202 -0.249 0 0 0
v -0.500 0.102 -0.249 0 0 0
v 0.096 0.102 -0.249 0 0 0
v 0.096 0.202 -0.249 0 0 0
v 0.763 0.352 -0.239 0 0 0
v 0.763 0.452 -0.238 0 0 0
v -0.500 0.198 0.251 0 0 0
v -0.500 0.098 0.251 0 0 0
v -0.500 0.102 -0.249 0 0 0
v -0.500 0.202 -0.249 0 0 0
v 0.096 0.102 -0.249 0 0 0
v -0.500 0.102 -0.249 0 0 0
v -0.500 0.098 0.251 0 0 0
v 0.096 0.098 0.251 0 0 0
v -0.500 0.198 0.251 0 0 0
v 0.096 0.198 0.251 0 0 0
v -0.500 0.098 0.251 0 0 0
v 0.096 0.098 0.251 0 0 0
v 0.763 0.448 0.262 0 0 0
v 0.763 0.348 0.261 0 0 0
v 0.763 0.452 -0.238 0 0 0
v 0.763 0.352 -0.239 0 0 0
v 0.763 0.348 0.261 0 0 0
v 0.763 0.448 0.262 0 0 0
v 0.763 0.348 0.261 0 0 0
v 0.763 0.352 -0.239 0 0 0
v 0.096 0.102 -0.249 0 0 0
v 0.096 0.098 0.251 0 0 0
v 0.763 0.452 -0.238 0 0 0
v 0.763 0.448 0.262 0 0 0
v 0.096 0.198 0.251 0 0 0
v 0.096 0.202 -0.249 0 0 0
v 0.119 0.403 0.367 0 0 0
v 0.119 -0.002 0.364 0 0 0
v -0.050 -0.003 0.462 0 0 0
v -0.050 0.402 0.464 0 0 0
v -0.219 0.403 0.367 0 0 0
v -0.219 -0.002 0.364 0 0 0
v -0.219 -0.001 0.204 0 0 0
v -0.219 0.404 0.207 0 0 0
v -0.050 0.402 0.464 0 0 0
v -0.050 -0.003 0.462 0 0 0
v -0.219 -0.002 0.364 0 0 0
v -0.219 0.403 0.367 0 0 0
v 0.119 0.404 0.207 0 0 0
v 0.119 -0.001 0.204 0 0 0
v 0.119 -0.002 0.364 0 0 0
v 0.119 0.403 0.367 0 0 0
v -0.219 0.404 0.207 0 0 0
v 0.119 0.404 0.207 0 0 0
v 0.119 0.403 0.367 0 0 0
v -0.219 0.403 0.367 0 0 0
v -0.050 0.402 0.464 0 0 0
v 0.119 -0.001 0.204 0 0 0
v -0.219 -0.001 0.204 0 0 0
v -0.219 -0.002 0.364 0 0 0
v 0.119 -0.002 0.364 0 0 0
v -0.050 -0.003 0.462 0 0 0
v 0.119 0.404 0.207 0 0 0
v -0.219 0.404 0.207 0 0 0
v -0.219 -0.001 0.204 0 0 0
v 0.119 -0.001 0.204 0 0 0
v 0.119 0.407 -0.362 0 0 0
v -0.050 0.408 -0.459 0 0 0
v -0.050 0.003 -0.462 0 0 0
v 0.119 0.002 -0.364 0 0 0
v -0.219 0.407 -0.362 0 0 0
v -0.219 0.406 -0.202 0 0 0
v -0.219 0.001 -0.204 0 0 0
v -0.219 0.002 -0.364 0 0 0
v -0.050 0.408 -0.459 0 0 0
v -0.219 0.407 -0.362 0 0 0
v -0.219 0.002 -0.364 0 0 0
v -0.050 0.003 -0.462 0 0 0
v 0.119 0.406 -0.202 0 0 0
v 0.119 0.407 -0.362 0 0 0
v 0.119 0.002 -0.364 0 0 0
v 0.119 0.001 -0.204 0 0 0
v -0.219 0.407 -0.362 0 0 0
v -0.050 0.408 -0.459 0 0 0
v 0.119 0.407 -0.362 0 0 0
v 0.119 0.406 -0.202 0 0 0
v -0.219 0.406 -0.202 0 0 0
v 0.119 0.002 -0.364 0 0 0
v -0.050 0.003 -0.462 0 0 0
v -0.219 0.002 -0.364 0 0 0
v -0.219 0.001 -0.204 0 0 0
v 0.119 0.001 -0.204 0 0 0
v 0.119 0.406 -0.202 0 0 0
v 0.119 0.001 -0.204 0 0 0
v -0.219 0.001 -0.204 0 0 0
v -0.219 0.406 -0.202 0 0 0

# Normal Array
vn -0.000 1.000 0.007
vn -0.000 1.000 0.007
vn -0.000 0.007 -1.000
vn -0.000 0.007 -1.000
vn 0.014 0.007 -1.000
vn 0.014 0.007 -1.000
vn -1.000 0.000 0.000
vn -1.000 -0.000 0.000
vn 0.000 -1.000 -0.007
vn 0.000 -1.000 -0.007
vn 0.000 -0.007 1.000
vn 0.000 -0.007 1.000
vn -0.014 -0.007 1.000
vn -0.014 -0.007 1.000
vn 1.000 0.000 0.000
vn 1.000 0.000 0.000
vn 0.351 -0.936 -0.006
vn 0.351 -0.936 -0.006
vn -0.351 0.936 0.006
vn -0.351 0.936 0.006
vn 0.500 -0.006 0.866
vn 0.500 -0.006 0.866
vn -1.000 -0.000 -0.000
vn -1.000 -0.000 -0.000
vn -0.500 -0.006 0.866
vn -0.500 -0.006 0.866
vn 1.000 0.000 0.000
vn 1.000 0.000 0.000
vn -0.000 1.000 0.007
vn -0.000 1.000 0.007
vn -0.000 1.000 0.007
vn 0.000 -1.000 -0.007
vn 0.000 -1.000 -0.007
vn 0.000 -1.000 -0.007
vn -0.000 0.007 -1.000
vn -0.000 0.007 -1.000
vn 0.500 0.006 -0.866
vn 0.500 0.006 -0.866
vn -1.000 -0.000 -0.000
vn -1.000 -0.000 -0.000
vn -0.500 0.006 -0.866
vn -0.500 0.006 -0.866
vn 1.000 0.000 0.000
vn 1.000 0.000 0.000
vn -0.000 1.000 0.007
vn -0.000 1.000 0.007
vn -0.000 1.000 0.007
vn 0.000 -1.000 -0.007
vn 0.000 -1.000 -0.007
vn 0.000 -1.000 -0.007
vn 0.000 -0.007 1.000
vn 0.000 -0.007 1.000

# Facets
f 1//1 3//1 2//1
f 4//2 3//2 1//2
f 5//3 7//3 6//3
f 8//4 7//4 5//4
f 7//5 8//5 9//5
f 9//6 8//6 10//6
f 11//7 13//7 12//7
f 14//8 13//8 11//8
f 15//9 17//9 16//9
f 18//10 17//10 15//10
f 19//11 21//11 20//11
f 20//12 21//12 22//12
f 20//13 22//13 23//13
f 23//14 22//14 24//14
f 25//15 27//15 26//15
f 28//16 27//16 25//16
f 29//17 31//17 30//17
f 32//18 31//18 29//18
f 33//19 35//19 34//19
f 36//20 35//20 33//20
f 37//21 39//21 38//21
f 40//22 39//22 37//22
f 41//23 43//23 42//23
f 44//24 43//24 41//24
f 45//25 47//25 46//25
f 48//26 47//26 45//26
f 49//27 51//27 50//27
f 52//28 51//28 49//28
f 53//29 55//29 54//29
f 55//30 53//30 56//30
f 55//31 56//31 57//31
f 58//32 60//32 59//32
f 60//33 58//33 61//33
f 60//34 61//34 62//34
f 63//35 65//35 64//35
f 66//36 65//36 63//36
f 67//37 69//37 68//37
f 70//38 69//38 67//38
f 71//39 73//39 72//39
f 74//40 73//40 71//40
f 75//41 77//41 76//41
f 78//42 77//42 75//42
f 79//43 81//43 80//43
f 82//44 81//44 79//44
f 83//45 85//45 84//45
f 85//46 83//46 86//46
f 86//47 83//47 87//47
f 88//48 90//48 89//48
f 90//49 88//49 91//49
f 91//50 88//50 92//50
f 93//51 95//51 94//51
f 96//52 95//52 93//52

# Thank you for using Spin 3D

