# Created using Spin 3D

# Vertex Array 
v -0.045 -0.256 0.108 0 0 0
v -0.045 -2.302 0.108 0 0 0
v -0.083 -0.256 0.083 0 0 0
v 0.000 -0.256 0.117 0 0 0
v -0.083 -2.302 0.083 0 0 0
v 0.000 -2.302 0.117 0 0 0
v -0.108 -0.256 0.045 0 0 0
v 0.045 -2.302 0.108 0 0 0
v -0.108 -2.302 0.045 0 0 0
v 0.045 -0.256 0.109 0 0 0
v -0.117 -0.256 -0.000 0 0 0
v 0.083 -2.302 0.083 0 0 0
v -0.117 -2.302 -0.000 0 0 0
v 0.083 -0.256 0.083 0 0 0
v -0.108 -0.256 -0.045 0 0 0
v 0.109 -2.302 0.045 0 0 0
v -0.108 -2.302 -0.045 0 0 0
v 0.109 -0.256 0.045 0 0 0
v -0.083 -0.256 -0.083 0 0 0
v 0.118 -2.302 0.000 0 0 0
v -0.083 -2.302 -0.083 0 0 0
v 0.118 -0.256 0.000 0 0 0
v -0.045 -0.256 -0.109 0 0 0
v 0.109 -2.302 -0.045 0 0 0
v -0.045 -2.302 -0.108 0 0 0
v 0.109 -0.256 -0.045 0 0 0
v 0.000 -0.256 -0.117 0 0 0
v 0.083 -2.302 -0.083 0 0 0
v 0.000 -2.302 -0.117 0 0 0
v 0.083 -0.256 -0.083 0 0 0
v 0.045 -0.256 -0.109 0 0 0
v 0.045 -2.302 -0.108 0 0 0

# Normal Array
vn -0.556 0.000 0.831
vn -0.195 0.000 0.981
vn -0.556 0.000 0.831
vn -0.195 0.000 0.981
vn -0.831 0.000 0.556
vn 0.195 0.000 0.981
vn -0.831 0.000 0.556
vn 0.195 -0.000 0.981
vn -0.981 -0.000 0.195
vn 0.556 -0.000 0.831
vn -0.981 0.000 0.195
vn 0.556 -0.000 0.831
vn -0.981 0.000 -0.195
vn 0.831 -0.000 0.556
vn -0.981 -0.000 -0.195
vn 0.831 -0.000 0.556
vn -0.831 -0.000 -0.556
vn 0.981 -0.000 0.195
vn -0.831 0.000 -0.556
vn 0.981 -0.000 0.195
vn -0.556 0.000 -0.831
vn 0.981 -0.000 -0.195
vn -0.556 -0.000 -0.831
vn 0.981 -0.000 -0.195
vn -0.195 -0.000 -0.981
vn 0.831 -0.000 -0.556
vn -0.195 -0.000 -0.981
vn 0.831 -0.000 -0.556
vn 0.195 -0.000 -0.981
vn 0.556 -0.000 -0.831
vn 0.556 -0.000 -0.831
vn 0.195 -0.000 -0.981

# Facets
f 1//1 3//1 2//1
f 1//2 2//2 4//2
f 2//3 3//3 5//3
f 4//4 2//4 6//4
f 3//5 7//5 5//5
f 8//6 4//6 6//6
f 5//7 7//7 9//7
f 10//8 4//8 8//8
f 7//9 11//9 9//9
f 12//10 10//10 8//10
f 9//11 11//11 13//11
f 14//12 10//12 12//12
f 11//13 15//13 13//13
f 16//14 14//14 12//14
f 13//15 15//15 17//15
f 18//16 14//16 16//16
f 15//17 19//17 17//17
f 20//18 18//18 16//18
f 17//19 19//19 21//19
f 22//20 18//20 20//20
f 19//21 23//21 21//21
f 24//22 22//22 20//22
f 21//23 23//23 25//23
f 26//24 22//24 24//24
f 23//25 27//25 25//25
f 28//26 26//26 24//26
f 25//27 27//27 29//27
f 30//28 26//28 28//28
f 27//29 31//29 29//29
f 32//30 30//30 28//30
f 31//31 30//31 32//31
f 29//32 31//32 32//32

# Thank you for using Spin 3D

