# Created using Spin 3D

# Vertex Array 
v 11.002 -0.107 6.979
v 11.200 -0.107 8.980
v 11.200 0.493 8.980
v 11.002 0.493 6.979
v 11.200 0.493 9.998
v 11.200 0.493 8.980
v 11.200 -0.107 8.980
v 11.200 -0.107 9.998
v 10.600 0.493 9.998
v 11.200 0.493 9.998
v 11.200 -0.107 9.998
v 10.600 -0.107 9.998
v 10.600 0.493 8.980
v 10.600 0.493 9.998
v 10.600 -0.107 9.998
v 10.600 -0.107 8.980
v 10.600 -0.107 9.998
v 11.200 -0.107 9.998
v 11.200 -0.107 8.980
v 10.600 -0.107 8.980
v 10.422 -0.107 7.130
v 11.002 -0.107 6.979
v 9.839 -0.107 5.310
v 10.396 -0.107 5.086
v 8.945 -0.107 3.643
v 9.439 -0.107 3.303
v 7.801 -0.107 2.229
v 8.201 -0.107 1.781
v 6.332 -0.107 1.014
v 6.732 -0.107 0.567
v 4.670 -0.107 0.132
v 4.902 -0.107 -0.421
v 2.886 -0.107 -0.417
v 2.973 -0.107 -1.011
v 0.998 -0.107 -0.602
v 1.001 -0.107 -1.202
v -0.001 -0.107 -0.600
v 0.001 -0.107 -1.200
v 10.600 0.493 9.998
v 10.600 0.493 8.980
v 11.200 0.493 9.998
v 11.200 0.493 8.980
v 11.002 0.493 6.979
v 10.422 0.493 7.130
v 10.396 0.493 5.086
v 9.839 0.493 5.310
v 9.439 0.493 3.303
v 8.945 0.493 3.643
v 8.201 0.493 1.781
v 7.801 0.493 2.229
v 6.732 0.493 0.567
v 6.332 0.493 1.014
v 4.902 0.493 -0.421
v 4.670 0.493 0.132
v 2.973 0.493 -1.011
v 2.886 0.493 -0.417
v 1.001 0.493 -1.202
v 0.998 0.493 -0.602
v 0.001 0.493 -1.200
v -0.001 0.493 -0.600
v 9.400 0.493 9.998
v 9.400 0.493 8.980
v 9.400 -0.107 8.980
v 9.400 -0.107 9.998
v 8.800 0.493 9.998
v 9.400 0.493 9.998
v 9.400 -0.107 9.998
v 8.800 -0.107 9.998
v 8.800 0.493 8.980
v 8.800 0.493 9.998
v 8.800 -0.107 9.998
v 8.800 -0.107 8.980
v 8.800 -0.107 9.998
v 9.400 -0.107 9.998
v 9.400 -0.107 8.980
v 8.800 -0.107 8.980
v 8.639 -0.107 7.475
v 9.226 -0.107 7.354
v 8.186 -0.107 5.955
v 8.754 -0.107 5.763
v 7.428 -0.107 4.599
v 7.949 -0.107 4.302
v 6.527 -0.107 3.464
v 6.951 -0.107 3.038
v 5.350 -0.107 2.490
v 5.681 -0.107 1.989
v 3.975 -0.107 1.795
v 4.220 -0.107 1.247
v 2.522 -0.107 1.321
v 2.648 -0.107 0.734
v 0.993 -0.107 1.196
v 0.994 -0.107 0.596
v -0.001 -0.107 1.196
v 0.001 -0.107 0.596
v 8.800 0.493 9.998
v 8.800 0.493 8.980
v 9.400 0.493 9.998
v 9.400 0.493 8.980
v 9.226 0.493 7.354
v 8.639 0.493 7.475
v 8.754 0.493 5.763
v 8.186 0.493 5.955
v 7.949 0.493 4.302
v 7.428 0.493 4.599
v 6.951 0.493 3.038
v 6.527 0.493 3.464
v 5.681 0.493 1.989
v 5.350 0.493 2.490
v 4.220 0.493 1.247
v 3.975 0.493 1.795
v 2.648 0.493 0.734
v 2.522 0.493 1.321
v 0.994 0.493 0.596
v 0.993 0.493 1.196
v 0.001 0.493 0.596
v -0.001 0.493 1.196
v 9.226 -0.107 7.354
v 9.400 -0.107 8.980
v 9.400 0.493 8.980
v 9.226 0.493 7.354
v 8.639 0.493 7.475
v 8.800 0.493 8.980
v 8.800 -0.107 8.980
v 8.639 -0.107 7.475
v 7.949 -0.107 4.302
v 8.754 -0.107 5.763
v 8.754 0.493 5.763
v 7.949 0.493 4.302
v 8.754 -0.107 5.763
v 9.226 -0.107 7.354
v 9.226 0.493 7.354
v 8.754 0.493 5.763
v 8.186 0.493 5.955
v 8.639 0.493 7.475
v 8.639 -0.107 7.475
v 8.186 -0.107 5.955
v 7.428 0.493 4.599
v 8.186 0.493 5.955
v 8.186 -0.107 5.955
v 7.428 -0.107 4.599
v 6.951 -0.107 3.038
v 7.949 -0.107 4.302
v 7.949 0.493 4.302
v 6.951 0.493 3.038
v 6.527 0.493 3.464
v 7.428 0.493 4.599
v 7.428 -0.107 4.599
v 6.527 -0.107 3.464
v 4.220 -0.107 1.247
v 5.681 -0.107 1.989
v 5.681 0.493 1.989
v 4.220 0.493 1.247
v 5.681 -0.107 1.989
v 6.951 -0.107 3.038
v 6.951 0.493 3.038
v 5.681 0.493 1.989
v 5.350 0.493 2.490
v 6.527 0.493 3.464
v 6.527 -0.107 3.464
v 5.350 -0.107 2.490
v 3.975 0.493 1.795
v 5.350 0.493 2.490
v 5.350 -0.107 2.490
v 3.975 -0.107 1.795
v 0.994 -0.107 0.596
v 2.648 -0.107 0.734
v 2.648 0.493 0.734
v 0.994 0.493 0.596
v 2.648 -0.107 0.734
v 4.220 -0.107 1.247
v 4.220 0.493 1.247
v 2.648 0.493 0.734
v 2.522 0.493 1.321
v 3.975 0.493 1.795
v 3.975 -0.107 1.795
v 2.522 -0.107 1.321
v -0.001 0.493 1.196
v 0.993 0.493 1.196
v 0.993 -0.107 1.196
v -0.001 -0.107 1.196
v 0.993 0.493 1.196
v 2.522 0.493 1.321
v 2.522 -0.107 1.321
v 0.993 -0.107 1.196
v 0.001 0.493 0.596
v -0.001 0.493 1.196
v -0.001 -0.107 1.196
v 0.001 -0.107 0.596
v 0.001 -0.107 0.596
v 0.994 -0.107 0.596
v 0.994 0.493 0.596
v 0.001 0.493 0.596
v 10.396 -0.107 5.086
v 11.002 -0.107 6.979
v 11.002 0.493 6.979
v 10.396 0.493 5.086
v 10.422 0.493 7.130
v 10.600 0.493 8.980
v 10.600 -0.107 8.980
v 10.422 -0.107 7.130
v 9.839 0.493 5.310
v 10.422 0.493 7.130
v 10.422 -0.107 7.130
v 9.839 -0.107 5.310
v 9.439 -0.107 3.303
v 10.396 -0.107 5.086
v 10.396 0.493 5.086
v 9.439 0.493 3.303
v 8.945 0.493 3.643
v 9.839 0.493 5.310
v 9.839 -0.107 5.310
v 8.945 -0.107 3.643
v 6.732 -0.107 0.567
v 8.201 -0.107 1.781
v 8.201 0.493 1.781
v 6.732 0.493 0.567
v 8.201 -0.107 1.781
v 9.439 -0.107 3.303
v 9.439 0.493 3.303
v 8.201 0.493 1.781
v 7.801 0.493 2.229
v 8.945 0.493 3.643
v 8.945 -0.107 3.643
v 7.801 -0.107 2.229
v 6.332 0.493 1.014
v 7.801 0.493 2.229
v 7.801 -0.107 2.229
v 6.332 -0.107 1.014
v 4.902 -0.107 -0.421
v 6.732 -0.107 0.567
v 6.732 0.493 0.567
v 4.902 0.493 -0.421
v 4.670 0.493 0.132
v 6.332 0.493 1.014
v 6.332 -0.107 1.014
v 4.670 -0.107 0.132
v 1.001 -0.107 -1.202
v 2.973 -0.107 -1.011
v 2.973 0.493 -1.011
v 1.001 0.493 -1.202
v 2.973 -0.107 -1.011
v 4.902 -0.107 -0.421
v 4.902 0.493 -0.421
v 2.973 0.493 -1.011
v 2.886 0.493 -0.417
v 4.670 0.493 0.132
v 4.670 -0.107 0.132
v 2.886 -0.107 -0.417
v 0.998 0.493 -0.602
v 2.886 0.493 -0.417
v 2.886 -0.107 -0.417
v 0.998 -0.107 -0.602
v 0.001 0.493 -1.200
v -0.001 0.493 -0.600
v -0.001 -0.107 -0.600
v 0.001 -0.107 -1.200
v 0.001 -0.107 -1.200
v 1.001 -0.107 -1.202
v 1.001 0.493 -1.202
v 0.001 0.493 -1.200
v -0.001 0.493 -0.600
v 0.998 0.493 -0.602
v 0.998 -0.107 -0.602
v -0.001 -0.107 -0.600
v 8.345 0.269 2.111
v 8.345 -0.269 2.111
v 6.930 -0.269 3.525
v 6.930 0.269 3.525
v 8.011 0.269 1.777
v 8.345 0.269 2.111
v 6.930 0.269 3.525
v 6.597 0.269 3.191
v 8.011 -0.269 1.777
v 8.011 0.269 1.777
v 6.597 0.269 3.191
v 6.597 -0.269 3.191
v 8.345 -0.269 2.111
v 8.011 -0.269 1.777
v 6.597 -0.269 3.191
v 6.930 -0.269 3.525
v 6.597 -0.269 3.191
v 6.597 0.269 3.191
v 6.930 0.269 3.525
v 6.930 -0.269 3.525
v 8.345 -0.269 2.111
v 8.345 0.269 2.111
v 8.011 0.269 1.777
v 8.011 -0.269 1.777
v 4.032 0.269 -0.506
v 4.032 -0.269 -0.506
v 3.503 -0.269 1.423
v 3.503 0.269 1.423
v 3.577 0.269 -0.631
v 4.032 0.269 -0.506
v 3.503 0.269 1.423
v 3.048 0.269 1.298
v 3.577 -0.269 -0.631
v 3.577 0.269 -0.631
v 3.048 0.269 1.298
v 3.048 -0.269 1.298
v 4.032 -0.269 -0.506
v 3.577 -0.269 -0.631
v 3.048 -0.269 1.298
v 3.503 -0.269 1.423
v 3.048 -0.269 1.298
v 3.048 0.269 1.298
v 3.503 0.269 1.423
v 3.503 -0.269 1.423
v 4.032 -0.269 -0.506
v 4.032 0.269 -0.506
v 3.577 0.269 -0.631
v 3.577 -0.269 -0.631
v 10.692 0.269 6.378
v 10.692 -0.269 6.378
v 8.755 -0.269 6.878
v 8.755 0.269 6.878
v 10.574 0.269 5.921
v 10.692 0.269 6.378
v 8.755 0.269 6.878
v 8.638 0.269 6.421
v 10.574 -0.269 5.921
v 10.574 0.269 5.921
v 8.638 0.269 6.421
v 8.638 -0.269 6.421
v 10.692 -0.269 6.378
v 10.574 -0.269 5.921
v 8.638 -0.269 6.421
v 8.755 -0.269 6.878
v 8.638 -0.269 6.421
v 8.638 0.269 6.421
v 8.755 0.269 6.878
v 8.755 -0.269 6.878
v 10.692 -0.269 6.378
v 10.692 0.269 6.378
v 10.574 0.269 5.921
v 10.574 -0.269 5.921

# Normal Array
vn 0.995 0.000 -0.098
vn 0.995 0.000 -0.098
vn 1.000 0.000 0.000
vn 1.000 -0.000 0.000
vn -0.000 0.000 1.000
vn -0.000 -0.000 1.000
vn -1.000 -0.000 -0.000
vn -1.000 -0.000 -0.000
vn 0.000 -1.000 -0.000
vn 0.000 -1.000 -0.000
vn 0.000 -1.000 -0.000
vn 0.000 -1.000 -0.000
vn 0.000 -1.000 -0.000
vn 0.000 -1.000 -0.000
vn 0.000 -1.000 -0.000
vn 0.000 -1.000 -0.000
vn 0.000 -1.000 -0.000
vn 0.000 -1.000 -0.000
vn 0.000 -1.000 -0.000
vn 0.000 -1.000 -0.000
vn -0.000 -1.000 -0.000
vn -0.000 -1.000 -0.000
vn -0.000 -1.000 -0.000
vn -0.000 -1.000 -0.000
vn -0.000 -1.000 -0.000
vn -0.000 -1.000 -0.000
vn -0.000 -1.000 -0.000
vn -0.000 -1.000 -0.000
vn -0.000 1.000 0.000
vn -0.000 1.000 0.000
vn -0.000 1.000 0.000
vn -0.000 1.000 0.000
vn -0.000 1.000 0.000
vn -0.000 1.000 0.000
vn -0.000 1.000 0.000
vn -0.000 1.000 0.000
vn -0.000 1.000 0.000
vn -0.000 1.000 0.000
vn -0.000 1.000 0.000
vn -0.000 1.000 0.000
vn 0.000 1.000 0.000
vn 0.000 1.000 0.000
vn 0.000 1.000 0.000
vn 0.000 1.000 0.000
vn 0.000 1.000 0.000
vn 0.000 1.000 0.000
vn 0.000 1.000 0.000
vn 0.000 1.000 0.000
vn 1.000 0.000 0.000
vn 1.000 -0.000 0.000
vn -0.000 0.000 1.000
vn -0.000 0.000 1.000
vn -1.000 0.000 -0.000
vn -1.000 0.000 -0.000
vn 0.000 -1.000 -0.000
vn 0.000 -1.000 -0.000
vn 0.000 -1.000 -0.000
vn 0.000 -1.000 -0.000
vn 0.000 -1.000 -0.000
vn 0.000 -1.000 -0.000
vn 0.000 -1.000 -0.000
vn 0.000 -1.000 -0.000
vn 0.000 -1.000 -0.000
vn 0.000 -1.000 -0.000
vn 0.000 -1.000 -0.000
vn 0.000 -1.000 -0.000
vn -0.000 -1.000 -0.000
vn -0.000 -1.000 -0.000
vn 0.000 -1.000 -0.000
vn 0.000 -1.000 -0.000
vn -0.000 -1.000 -0.000
vn -0.000 -1.000 -0.000
vn -0.000 -1.000 -0.000
vn -0.000 -1.000 -0.000
vn -0.000 1.000 0.000
vn -0.000 1.000 0.000
vn -0.000 1.000 0.000
vn -0.000 1.000 0.000
vn -0.000 1.000 0.000
vn -0.000 1.000 0.000
vn -0.000 1.000 0.000
vn -0.000 1.000 0.000
vn -0.000 1.000 0.000
vn -0.000 1.000 0.000
vn -0.000 1.000 0.000
vn -0.000 1.000 0.000
vn 0.000 1.000 0.000
vn 0.000 1.000 0.000
vn -0.000 1.000 0.000
vn -0.000 1.000 0.000
vn 0.000 1.000 0.000
vn 0.000 1.000 0.000
vn 0.000 1.000 0.000
vn 0.000 1.000 0.000
vn 0.994 0.000 -0.106
vn 0.994 0.000 -0.106
vn -0.994 0.000 0.106
vn -0.994 0.000 0.106
vn 0.876 0.000 -0.483
vn 0.876 0.000 -0.483
vn 0.959 0.000 -0.285
vn 0.959 0.000 -0.285
vn -0.958 0.000 0.286
vn -0.958 0.000 0.286
vn -0.873 0.000 0.488
vn -0.873 0.000 0.488
vn 0.785 0.000 -0.620
vn 0.785 0.000 -0.620
vn -0.784 0.000 0.621
vn -0.784 0.000 0.621
vn 0.453 0.000 -0.891
vn 0.453 0.000 -0.891
vn 0.637 0.000 -0.771
vn 0.637 0.000 -0.771
vn -0.637 0.000 0.771
vn -0.637 0.000 0.771
vn -0.451 0.000 0.892
vn -0.451 0.000 0.892
vn 0.083 0.000 -0.997
vn 0.083 0.000 -0.997
vn 0.310 0.000 -0.951
vn 0.310 0.000 -0.951
vn -0.310 0.000 0.951
vn -0.310 0.000 0.951
vn 0.000 0.000 1.000
vn 0.000 -0.000 1.000
vn -0.081 0.000 0.997
vn -0.081 0.000 0.997
vn -1.000 0.000 -0.002
vn -1.000 0.000 -0.002
vn -0.000 0.000 -1.000
vn -0.000 0.000 -1.000
vn 0.952 0.000 -0.305
vn 0.952 0.000 -0.305
vn -0.995 -0.000 0.096
vn -0.995 0.000 0.096
vn -0.952 0.000 0.305
vn -0.952 0.000 0.305
vn 0.881 0.000 -0.473
vn 0.881 0.000 -0.473
vn -0.881 0.000 0.473
vn -0.881 -0.000 0.473
vn 0.637 0.000 -0.771
vn 0.637 0.000 -0.771
vn 0.775 0.000 -0.631
vn 0.775 0.000 -0.631
vn -0.777 -0.000 0.629
vn -0.777 0.000 0.629
vn -0.637 0.000 0.771
vn -0.637 0.000 0.771
vn 0.475 0.000 -0.880
vn 0.475 -0.000 -0.880
vn -0.469 0.000 0.883
vn -0.469 0.000 0.883
vn 0.096 -0.000 -0.995
vn 0.096 0.000 -0.995
vn 0.292 -0.000 -0.956
vn 0.292 -0.000 -0.956
vn -0.294 0.000 0.956
vn -0.294 0.000 0.956
vn -0.097 0.000 0.995
vn -0.097 0.000 0.995
vn -1.000 0.000 -0.005
vn -1.000 0.000 -0.005
vn -0.002 0.000 -1.000
vn -0.002 -0.000 -1.000
vn 0.002 0.000 1.000
vn 0.002 -0.000 1.000
vn 0.707 0.000 0.707
vn 0.707 0.000 0.707
vn -0.000 1.000 -0.000
vn -0.000 1.000 -0.000
vn -0.707 -0.000 -0.707
vn -0.707 -0.000 -0.707
vn 0.000 -1.000 0.000
vn 0.000 -1.000 0.000
vn -0.707 0.000 0.707
vn -0.707 0.000 0.707
vn 0.707 0.000 -0.707
vn 0.707 -0.000 -0.707
vn 0.964 0.000 0.265
vn 0.964 0.000 0.265
vn -0.000 1.000 -0.000
vn -0.000 1.000 -0.000
vn -0.964 -0.000 -0.265
vn -0.964 -0.000 -0.265
vn 0.000 -1.000 0.000
vn 0.000 -1.000 0.000
vn -0.265 0.000 0.964
vn -0.265 0.000 0.964
vn 0.265 0.000 -0.964
vn 0.265 -0.000 -0.964
vn 0.250 0.000 0.968
vn 0.250 0.000 0.968
vn -0.000 1.000 -0.000
vn -0.000 1.000 -0.000
vn -0.250 -0.000 -0.968
vn -0.250 0.000 -0.968
vn 0.000 -1.000 0.000
vn 0.000 -1.000 0.000
vn -0.968 0.000 0.250
vn -0.968 0.000 0.250
vn 0.968 0.000 -0.250
vn 0.968 -0.000 -0.250

# Facets
f 1//1 3//1 2//1
f 4//2 3//2 1//2
f 5//3 7//3 6//3
f 8//4 7//4 5//4
f 9//5 11//5 10//5
f 12//6 11//6 9//6
f 13//7 15//7 14//7
f 16//8 15//8 13//8
f 17//9 19//9 18//9
f 20//10 19//10 17//10
f 21//11 19//11 20//11
f 22//12 19//12 21//12
f 23//13 22//13 21//13
f 24//14 22//14 23//14
f 25//15 24//15 23//15
f 26//16 24//16 25//16
f 27//17 26//17 25//17
f 28//18 26//18 27//18
f 29//19 28//19 27//19
f 30//20 28//20 29//20
f 31//21 30//21 29//21
f 32//22 30//22 31//22
f 33//23 32//23 31//23
f 34//24 32//24 33//24
f 35//25 34//25 33//25
f 36//26 34//26 35//26
f 37//27 36//27 35//27
f 38//28 36//28 37//28
f 39//29 41//29 40//29
f 40//30 41//30 42//30
f 43//31 40//31 42//31
f 44//32 40//32 43//32
f 45//33 44//33 43//33
f 46//34 44//34 45//34
f 47//35 46//35 45//35
f 48//36 46//36 47//36
f 49//37 48//37 47//37
f 50//38 48//38 49//38
f 51//39 50//39 49//39
f 52//40 50//40 51//40
f 53//41 52//41 51//41
f 54//42 52//42 53//42
f 55//43 54//43 53//43
f 56//44 54//44 55//44
f 57//45 56//45 55//45
f 58//46 56//46 57//46
f 59//47 58//47 57//47
f 60//48 58//48 59//48
f 61//49 63//49 62//49
f 64//50 63//50 61//50
f 65//51 67//51 66//51
f 68//52 67//52 65//52
f 69//53 71//53 70//53
f 72//54 71//54 69//54
f 73//55 75//55 74//55
f 76//56 75//56 73//56
f 77//57 75//57 76//57
f 78//58 75//58 77//58
f 79//59 78//59 77//59
f 80//60 78//60 79//60
f 81//61 80//61 79//61
f 82//62 80//62 81//62
f 83//63 82//63 81//63
f 84//64 82//64 83//64
f 85//65 84//65 83//65
f 86//66 84//66 85//66
f 87//67 86//67 85//67
f 88//68 86//68 87//68
f 89//69 88//69 87//69
f 90//70 88//70 89//70
f 91//71 90//71 89//71
f 92//72 90//72 91//72
f 93//73 92//73 91//73
f 94//74 92//74 93//74
f 95//75 97//75 96//75
f 96//76 97//76 98//76
f 99//77 96//77 98//77
f 100//78 96//78 99//78
f 101//79 100//79 99//79
f 102//80 100//80 101//80
f 103//81 102//81 101//81
f 104//82 102//82 103//82
f 105//83 104//83 103//83
f 106//84 104//84 105//84
f 107//85 106//85 105//85
f 108//86 106//86 107//86
f 109//87 108//87 107//87
f 110//88 108//88 109//88
f 111//89 110//89 109//89
f 112//90 110//90 111//90
f 113//91 112//91 111//91
f 114//92 112//92 113//92
f 115//93 114//93 113//93
f 116//94 114//94 115//94
f 117//95 119//95 118//95
f 120//96 119//96 117//96
f 121//97 123//97 122//97
f 124//98 123//98 121//98
f 125//99 127//99 126//99
f 128//100 127//100 125//100
f 129//101 131//101 130//101
f 132//102 131//102 129//102
f 133//103 135//103 134//103
f 136//104 135//104 133//104
f 137//105 139//105 138//105
f 140//106 139//106 137//106
f 141//107 143//107 142//107
f 144//108 143//108 141//108
f 145//109 147//109 146//109
f 148//110 147//110 145//110
f 149//111 151//111 150//111
f 152//112 151//112 149//112
f 153//113 155//113 154//113
f 156//114 155//114 153//114
f 157//115 159//115 158//115
f 160//116 159//116 157//116
f 161//117 163//117 162//117
f 164//118 163//118 161//118
f 165//119 167//119 166//119
f 168//120 167//120 165//120
f 169//121 171//121 170//121
f 172//122 171//122 169//122
f 173//123 175//123 174//123
f 176//124 175//124 173//124
f 177//125 179//125 178//125
f 180//126 179//126 177//126
f 181//127 183//127 182//127
f 184//128 183//128 181//128
f 185//129 187//129 186//129
f 188//130 187//130 185//130
f 189//131 191//131 190//131
f 192//132 191//132 189//132
f 193//133 195//133 194//133
f 196//134 195//134 193//134
f 197//135 199//135 198//135
f 200//136 199//136 197//136
f 201//137 203//137 202//137
f 204//138 203//138 201//138
f 205//139 207//139 206//139
f 208//140 207//140 205//140
f 209//141 211//141 210//141
f 212//142 211//142 209//142
f 213//143 215//143 214//143
f 216//144 215//144 213//144
f 217//145 219//145 218//145
f 220//146 219//146 217//146
f 221//147 223//147 222//147
f 224//148 223//148 221//148
f 225//149 227//149 226//149
f 228//150 227//150 225//150
f 229//151 231//151 230//151
f 232//152 231//152 229//152
f 233//153 235//153 234//153
f 236//154 235//154 233//154
f 237//155 239//155 238//155
f 240//156 239//156 237//156
f 241//157 243//157 242//157
f 244//158 243//158 241//158
f 245//159 247//159 246//159
f 248//160 247//160 245//160
f 249//161 251//161 250//161
f 252//162 251//162 249//162
f 253//163 255//163 254//163
f 256//164 255//164 253//164
f 257//165 259//165 258//165
f 260//166 259//166 257//166
f 261//167 263//167 262//167
f 264//168 263//168 261//168
f 265//169 267//169 266//169
f 268//170 267//170 265//170
f 269//171 271//171 270//171
f 272//172 271//172 269//172
f 273//173 275//173 274//173
f 276//174 275//174 273//174
f 277//175 279//175 278//175
f 280//176 279//176 277//176
f 281//177 283//177 282//177
f 284//178 283//178 281//178
f 285//179 287//179 286//179
f 288//180 287//180 285//180
f 289//181 291//181 290//181
f 292//182 291//182 289//182
f 293//183 295//183 294//183
f 296//184 295//184 293//184
f 297//185 299//185 298//185
f 300//186 299//186 297//186
f 301//187 303//187 302//187
f 304//188 303//188 301//188
f 305//189 307//189 306//189
f 308//190 307//190 305//190
f 309//191 311//191 310//191
f 312//192 311//192 309//192
f 313//193 315//193 314//193
f 316//194 315//194 313//194
f 317//195 319//195 318//195
f 320//196 319//196 317//196
f 321//197 323//197 322//197
f 324//198 323//198 321//198
f 325//199 327//199 326//199
f 328//200 327//200 325//200
f 329//201 331//201 330//201
f 332//202 331//202 329//202
f 333//203 335//203 334//203
f 336//204 335//204 333//204

# Thank you for using Spin 3D

