# Created using Spin 3D

# Vertex Array 
v 20.002 0.493 -1.200
v 20.002 -0.107 -1.200
v 20.002 -0.107 -0.600
v 20.002 0.493 -0.600
v 0.002 0.493 -1.200
v 0.002 -0.107 -1.200
v 20.002 -0.107 -1.200
v 20.002 0.493 -1.200
v 0.002 0.493 -0.600
v 0.002 -0.107 -0.600
v 0.002 -0.107 -1.200
v 0.002 0.493 -1.200
v 20.002 0.493 -0.600
v 20.002 -0.107 -0.600
v 0.002 -0.107 -0.600
v 0.002 0.493 -0.600
v 0.002 -0.107 -0.600
v 20.002 -0.107 -0.600
v 20.002 -0.107 -1.200
v 0.002 -0.107 -1.200
v 20.002 0.493 -0.600
v 0.002 0.493 -0.600
v 0.002 0.493 -1.200
v 20.002 0.493 -1.200
v 20.002 0.493 0.600
v 20.002 -0.107 0.600
v 20.002 -0.107 1.200
v 20.002 0.493 1.200
v 0.002 0.493 0.600
v 0.002 -0.107 0.600
v 20.002 -0.107 0.600
v 20.002 0.493 0.600
v 0.002 0.493 1.200
v 0.002 -0.107 1.200
v 0.002 -0.107 0.600
v 0.002 0.493 0.600
v 20.002 0.493 1.200
v 20.002 -0.107 1.200
v 0.002 -0.107 1.200
v 0.002 0.493 1.200
v 0.002 -0.107 1.200
v 20.002 -0.107 1.200
v 20.002 -0.107 0.600
v 0.002 -0.107 0.600
v 20.002 0.493 1.200
v 0.002 0.493 1.200
v 0.002 0.493 0.600
v 20.002 0.493 0.600
v 5.249 0.282 1.000
v 5.249 0.282 -1.000
v 5.249 -0.282 -1.000
v 5.249 -0.282 1.000
v 4.751 0.282 1.000
v 4.751 0.282 -1.000
v 5.249 0.282 -1.000
v 5.249 0.282 1.000
v 4.751 -0.282 1.000
v 4.751 -0.282 -1.000
v 4.751 0.282 -1.000
v 4.751 0.282 1.000
v 5.249 -0.282 1.000
v 5.249 -0.282 -1.000
v 4.751 -0.282 -1.000
v 4.751 -0.282 1.000
v 4.751 -0.282 -1.000
v 5.249 -0.282 -1.000
v 5.249 0.282 -1.000
v 4.751 0.282 -1.000
v 5.249 -0.282 1.000
v 4.751 -0.282 1.000
v 4.751 0.282 1.000
v 5.249 0.282 1.000
v 15.249 0.282 1.000
v 15.249 0.282 -1.000
v 15.249 -0.282 -1.000
v 15.249 -0.282 1.000
v 14.751 0.282 1.000
v 14.751 0.282 -1.000
v 15.249 0.282 -1.000
v 15.249 0.282 1.000
v 14.751 -0.282 1.000
v 14.751 -0.282 -1.000
v 14.751 0.282 -1.000
v 14.751 0.282 1.000
v 15.249 -0.282 1.000
v 15.249 -0.282 -1.000
v 14.751 -0.282 -1.000
v 14.751 -0.282 1.000
v 14.751 -0.282 -1.000
v 15.249 -0.282 -1.000
v 15.249 0.282 -1.000
v 14.751 0.282 -1.000
v 15.249 -0.282 1.000
v 14.751 -0.282 1.000
v 14.751 0.282 1.000
v 15.249 0.282 1.000
v 10.249 0.282 1.000
v 10.249 -0.282 1.000
v 9.751 0.282 1.000
v 9.751 -0.282 1.000
v 9.751 0.282 -1.000
v 9.751 -0.282 -1.000
v 10.249 0.282 -1.000
v 10.249 -0.282 -1.000
v 9.751 -0.282 1.000
v 10.249 -0.282 1.000
v 9.751 -0.282 -1.000
v 10.249 -0.282 -1.000
v 9.751 0.282 1.000
v 9.751 -0.282 1.000
v 9.751 0.282 -1.000
v 9.751 -0.282 -1.000
v 10.249 0.282 1.000
v 9.751 0.282 1.000
v 10.249 0.282 -1.000
v 9.751 0.282 -1.000
v 10.249 0.282 1.000
v 10.249 0.282 -1.000
v 10.249 -0.282 -1.000
v 10.249 -0.282 1.000

# Normal Array
vn 1.000 0.000 0.000
vn 1.000 0.000 0.000
vn -0.000 -0.000 -1.000
vn -0.000 -0.000 -1.000
vn -1.000 -0.000 0.000
vn -1.000 0.000 0.000
vn 0.000 -0.000 1.000
vn 0.000 -0.000 1.000
vn -0.000 -1.000 -0.000
vn -0.000 -1.000 -0.000
vn 0.000 1.000 0.000
vn 0.000 1.000 0.000
vn 1.000 0.000 -0.000
vn 1.000 0.000 -0.000
vn -0.000 0.000 -1.000
vn -0.000 0.000 -1.000
vn -1.000 0.000 0.000
vn -1.000 -0.000 0.000
vn 0.000 0.000 1.000
vn 0.000 0.000 1.000
vn -0.000 -1.000 -0.000
vn -0.000 -1.000 -0.000
vn 0.000 1.000 0.000
vn 0.000 1.000 0.000
vn 1.000 0.000 0.000
vn 1.000 -0.000 0.000
vn 0.000 1.000 0.000
vn 0.000 1.000 0.000
vn -1.000 0.000 0.000
vn -1.000 -0.000 -0.000
vn 0.000 -1.000 -0.000
vn 0.000 -1.000 0.000
vn 0.000 0.000 -1.000
vn 0.000 0.000 -1.000
vn 0.000 0.000 1.000
vn 0.000 0.000 1.000
vn 1.000 0.000 0.000
vn 1.000 -0.000 0.000
vn 0.000 1.000 0.000
vn 0.000 1.000 0.000
vn -1.000 0.000 0.000
vn -1.000 -0.000 -0.000
vn 0.000 -1.000 -0.000
vn 0.000 -1.000 0.000
vn 0.000 0.000 -1.000
vn 0.000 0.000 -1.000
vn 0.000 0.000 1.000
vn 0.000 0.000 1.000
vn 0.000 0.000 1.000
vn 0.000 0.000 1.000
vn 0.000 0.000 1.000
vn 0.000 0.000 1.000
vn 0.000 0.000 -1.000
vn 0.000 0.000 -1.000
vn 0.000 0.000 -1.000
vn 0.000 0.000 -1.000
vn 0.000 -1.000 0.000
vn 0.000 -1.000 0.000
vn 0.000 -1.000 -0.000
vn 0.000 -1.000 -0.000
vn -1.000 -0.000 -0.000
vn -1.000 -0.000 -0.000
vn -1.000 0.000 0.000
vn -1.000 0.000 0.000
vn 0.000 1.000 0.000
vn 0.000 1.000 0.000
vn 0.000 1.000 0.000
vn 0.000 1.000 0.000
vn 1.000 0.000 0.000
vn 1.000 0.000 0.000
vn 1.000 -0.000 0.000
vn 1.000 -0.000 0.000

# Facets
f 1//1 3//1 2//1
f 4//2 3//2 1//2
f 5//3 7//3 6//3
f 8//4 7//4 5//4
f 9//5 11//5 10//5
f 12//6 11//6 9//6
f 13//7 15//7 14//7
f 16//8 15//8 13//8
f 17//9 19//9 18//9
f 20//10 19//10 17//10
f 21//11 23//11 22//11
f 24//12 23//12 21//12
f 25//13 27//13 26//13
f 28//14 27//14 25//14
f 29//15 31//15 30//15
f 32//16 31//16 29//16
f 33//17 35//17 34//17
f 36//18 35//18 33//18
f 37//19 39//19 38//19
f 40//20 39//20 37//20
f 41//21 43//21 42//21
f 44//22 43//22 41//22
f 45//23 47//23 46//23
f 48//24 47//24 45//24
f 49//25 51//25 50//25
f 52//26 51//26 49//26
f 53//27 55//27 54//27
f 56//28 55//28 53//28
f 57//29 59//29 58//29
f 60//30 59//30 57//30
f 61//31 63//31 62//31
f 64//32 63//32 61//32
f 65//33 67//33 66//33
f 68//34 67//34 65//34
f 69//35 71//35 70//35
f 72//36 71//36 69//36
f 73//37 75//37 74//37
f 76//38 75//38 73//38
f 77//39 79//39 78//39
f 80//40 79//40 77//40
f 81//41 83//41 82//41
f 84//42 83//42 81//42
f 85//43 87//43 86//43
f 88//44 87//44 85//44
f 89//45 91//45 90//45
f 92//46 91//46 89//46
f 93//47 95//47 94//47
f 96//48 95//48 93//48
f 97//49 99//49 98//49
f 97//50 99//50 98//50
f 98//51 99//51 100//51
f 98//52 99//52 100//52
f 101//53 103//53 102//53
f 101//54 103//54 102//54
f 102//55 103//55 104//55
f 102//56 103//56 104//56
f 105//57 107//57 106//57
f 105//58 107//58 106//58
f 106//59 107//59 108//59
f 106//60 107//60 108//60
f 109//61 111//61 110//61
f 109//62 111//62 110//62
f 110//63 111//63 112//63
f 110//64 111//64 112//64
f 113//65 115//65 114//65
f 113//66 115//66 114//66
f 114//67 115//67 116//67
f 114//68 115//68 116//68
f 117//69 119//69 118//69
f 117//70 119//70 118//70
f 120//71 119//71 117//71
f 120//72 119//72 117//72

# Thank you for using Spin 3D

