# Created using Spin 3D

# Vertex Array 
v 0.000 0.028 -0.500 0 0 0
v 0.000 0.172 -0.500 0 0 0
v -0.354 0.172 -0.354 0 0 0
v -0.354 0.028 -0.354 0 0 0
v -0.500 0.172 0.000 0 0 0
v -0.500 0.028 0.000 0 0 0
v 0.500 0.028 0.000 0 0 0
v 0.354 0.028 0.354 0 0 0
v 0.500 0.172 0.000 0 0 0
v 0.354 0.172 0.354 0 0 0
v 0.000 0.028 0.500 0 0 0
v 0.000 0.172 0.500 0 0 0
v -0.012 0.172 0.282 0 0 0
v -0.012 0.028 0.282 0 0 0
v 0.188 0.172 0.200 0 0 0
v 0.188 0.028 0.200 0 0 0
v 0.270 0.172 0.000 0 0 0
v 0.270 0.028 0.000 0 0 0
v -0.354 0.172 -0.354 0 0 0
v 0.000 0.172 -0.500 0 0 0
v -0.012 0.172 -0.282 0 0 0
v -0.212 0.172 -0.200 0 0 0
v -0.500 0.172 0.000 0 0 0
v -0.294 0.172 0.000 0 0 0
v 0.270 0.172 0.000 0 0 0
v 0.500 0.172 0.000 0 0 0
v 0.188 0.172 0.200 0 0 0
v 0.354 0.172 0.354 0 0 0
v -0.012 0.172 0.282 0 0 0
v 0.000 0.172 0.500 0 0 0
v -0.012 0.172 -0.282 0 0 0
v -0.012 0.028 -0.282 0 0 0
v -0.212 0.172 -0.200 0 0 0
v -0.212 0.028 -0.200 0 0 0
v -0.294 0.172 0.000 0 0 0
v -0.294 0.028 0.000 0 0 0
v -0.012 0.028 -0.282 0 0 0
v 0.000 0.028 -0.500 0 0 0
v -0.212 0.028 -0.200 0 0 0
v -0.354 0.028 -0.354 0 0 0
v -0.294 0.028 0.000 0 0 0
v -0.500 0.028 0.000 0 0 0
v -0.012 0.172 -0.282 0 0 0
v 0.000 0.172 -0.500 0 0 0
v 0.000 0.028 -0.500 0 0 0
v -0.012 0.028 -0.282 0 0 0
v 0.354 0.028 0.354 0 0 0
v 0.500 0.028 0.000 0 0 0
v 0.270 0.028 0.000 0 0 0
v 0.188 0.028 0.200 0 0 0
v 0.000 0.028 0.500 0 0 0
v -0.012 0.028 0.282 0 0 0
v -0.294 0.172 0.000 0 0 0
v -0.294 0.028 0.000 0 0 0
v -0.500 0.028 0.000 0 0 0
v -0.500 0.172 0.000 0 0 0
v 0.500 0.118 0.250 0 0 0
v -0.500 0.118 0.250 0 0 0
v -0.500 0.118 -0.250 0 0 0
v 0.500 0.118 -0.250 0 0 0
v 0.500 0.118 0.250 0 0 0
v 0.500 0.018 0.250 0 0 0
v -0.500 0.018 0.250 0 0 0
v -0.500 0.118 0.250 0 0 0
v 0.500 0.118 -0.250 0 0 0
v 0.500 0.018 -0.250 0 0 0
v 0.500 0.018 0.250 0 0 0
v 0.500 0.118 0.250 0 0 0
v -0.500 0.018 0.250 0 0 0
v 0.500 0.018 0.250 0 0 0
v 0.500 0.018 -0.250 0 0 0
v -0.500 0.018 -0.250 0 0 0
v -0.500 0.118 0.250 0 0 0
v -0.500 0.018 0.250 0 0 0
v -0.500 0.018 -0.250 0 0 0
v -0.500 0.118 -0.250 0 0 0
v -0.500 0.118 -0.250 0 0 0
v -0.500 0.018 -0.250 0 0 0
v 0.500 0.018 -0.250 0 0 0
v 0.500 0.118 -0.250 0 0 0
v 0.270 0.172 0.000 0 0 0
v 0.270 0.028 0.000 0 0 0
v 0.500 0.028 0.000 0 0 0
v 0.500 0.172 0.000 0 0 0
v -0.012 0.172 0.282 0 0 0
v 0.000 0.172 0.500 0 0 0
v 0.000 0.028 0.500 0 0 0
v -0.012 0.028 0.282 0 0 0

# Normal Array
vn -0.383 0.000 -0.924
vn -0.383 0.000 -0.924
vn -0.924 0.000 -0.383
vn -0.924 0.000 -0.383
vn 0.924 -0.000 0.383
vn 0.924 -0.000 0.383
vn 0.383 -0.000 0.924
vn 0.383 -0.000 0.924
vn -0.383 0.000 -0.924
vn -0.383 0.000 -0.924
vn -0.924 0.000 -0.383
vn -0.924 0.000 -0.383
vn -0.000 1.000 -0.000
vn -0.000 1.000 -0.000
vn -0.000 1.000 0.000
vn -0.000 1.000 -0.000
vn 0.000 1.000 0.000
vn 0.000 1.000 0.000
vn 0.000 1.000 0.000
vn 0.000 1.000 0.000
vn 0.383 -0.000 0.924
vn 0.383 -0.000 0.924
vn 0.924 -0.000 0.383
vn 0.924 -0.000 0.383
vn -0.000 -1.000 -0.000
vn -0.000 -1.000 -0.000
vn -0.000 -1.000 -0.000
vn -0.000 -1.000 -0.000
vn 0.998 -0.000 0.055
vn 0.998 -0.000 0.055
vn 0.000 -1.000 -0.000
vn 0.000 -1.000 -0.000
vn 0.000 -1.000 0.000
vn 0.000 -1.000 0.000
vn -0.000 -0.000 1.000
vn 0.000 -0.000 1.000
vn 0.000 1.000 0.000
vn 0.000 1.000 0.000
vn 0.000 -0.000 1.000
vn 0.000 -0.000 1.000
vn 1.000 0.000 0.000
vn 1.000 0.000 0.000
vn 0.000 -1.000 -0.000
vn 0.000 -1.000 -0.000
vn -1.000 0.000 0.000
vn -1.000 -0.000 0.000
vn 0.000 0.000 -1.000
vn 0.000 0.000 -1.000
vn -0.000 0.000 -1.000
vn 0.000 0.000 -1.000
vn -0.998 -0.000 0.055
vn -0.998 0.000 0.055

# Facets
f 1//1 3//1 2//1
f 4//2 3//2 1//2
f 4//3 5//3 3//3
f 6//4 5//4 4//4
f 7//5 9//5 8//5
f 8//6 9//6 10//6
f 8//7 10//7 11//7
f 11//8 10//8 12//8
f 13//9 15//9 14//9
f 14//10 15//10 16//10
f 15//11 17//11 16//11
f 16//12 17//12 18//12
f 19//13 21//13 20//13
f 22//14 21//14 19//14
f 23//15 22//15 19//15
f 24//16 22//16 23//16
f 25//17 27//17 26//17
f 26//18 27//18 28//18
f 27//19 29//19 28//19
f 28//20 29//20 30//20
f 31//21 33//21 32//21
f 32//22 33//22 34//22
f 33//23 35//23 34//23
f 34//24 35//24 36//24
f 37//25 39//25 38//25
f 38//26 39//26 40//26
f 39//27 41//27 40//27
f 40//28 41//28 42//28
f 43//29 45//29 44//29
f 46//30 45//30 43//30
f 47//31 49//31 48//31
f 50//32 49//32 47//32
f 51//33 50//33 47//33
f 52//34 50//34 51//34
f 53//35 55//35 54//35
f 56//36 55//36 53//36
f 57//37 59//37 58//37
f 60//38 59//38 57//38
f 61//39 63//39 62//39
f 64//40 63//40 61//40
f 65//41 67//41 66//41
f 68//42 67//42 65//42
f 69//43 71//43 70//43
f 72//44 71//44 69//44
f 73//45 75//45 74//45
f 76//46 75//46 73//46
f 77//47 79//47 78//47
f 80//48 79//48 77//48
f 81//49 83//49 82//49
f 84//50 83//50 81//50
f 85//51 87//51 86//51
f 88//52 87//52 85//52

# Thank you for using Spin 3D

