# Created using Spin 3D

# Vertex Array 
v 0.000 0.028 0.500 0 0 0
v -0.354 0.028 0.354 0 0 0
v 0.000 0.172 0.500 0 0 0
v -0.354 0.172 0.354 0 0 0
v -0.500 0.028 0.000 0 0 0
v -0.500 0.172 0.000 0 0 0
v 0.000 0.028 0.500 0 0 0
v 0.000 0.172 0.500 0 0 0
v 0.354 0.172 0.354 0 0 0
v 0.354 0.028 0.354 0 0 0
v 0.500 0.172 0.000 0 0 0
v 0.500 0.028 0.000 0 0 0
v 0.354 0.172 -0.354 0 0 0
v 0.354 0.028 -0.354 0 0 0
v 0.000 0.172 -0.500 0 0 0
v 0.000 0.028 -0.500 0 0 0
v -0.354 0.172 -0.354 0 0 0
v -0.354 0.028 -0.354 0 0 0
v -0.500 0.172 0.000 0 0 0
v -0.500 0.028 0.000 0 0 0
v -0.294 0.172 0.000 0 0 0
v -0.294 0.028 0.000 0 0 0
v -0.212 0.172 0.200 0 0 0
v -0.212 0.028 0.200 0 0 0
v -0.012 0.172 0.282 0 0 0
v -0.012 0.028 0.282 0 0 0
v 0.188 0.172 0.200 0 0 0
v 0.188 0.028 0.200 0 0 0
v 0.270 0.172 0.000 0 0 0
v 0.270 0.028 0.000 0 0 0
v 0.188 0.172 -0.200 0 0 0
v 0.188 0.028 -0.200 0 0 0
v -0.012 0.172 -0.282 0 0 0
v -0.012 0.028 -0.282 0 0 0
v -0.212 0.172 -0.200 0 0 0
v -0.212 0.028 -0.200 0 0 0
v -0.294 0.172 0.000 0 0 0
v -0.294 0.028 0.000 0 0 0
v -0.354 0.028 0.354 0 0 0
v 0.000 0.028 0.500 0 0 0
v -0.012 0.028 0.282 0 0 0
v -0.212 0.028 0.200 0 0 0
v -0.500 0.028 0.000 0 0 0
v -0.294 0.028 0.000 0 0 0
v -0.354 0.028 -0.354 0 0 0
v -0.212 0.028 -0.200 0 0 0
v 0.000 0.028 -0.500 0 0 0
v -0.012 0.028 -0.282 0 0 0
v 0.354 0.028 -0.354 0 0 0
v 0.188 0.028 -0.200 0 0 0
v 0.500 0.028 0.000 0 0 0
v 0.270 0.028 0.000 0 0 0
v 0.354 0.028 0.354 0 0 0
v 0.188 0.028 0.200 0 0 0
v 0.000 0.028 0.500 0 0 0
v 0.500 0.118 0.250 0 0 0
v -0.500 0.118 0.250 0 0 0
v -0.500 0.118 -0.250 0 0 0
v 0.500 0.118 -0.250 0 0 0
v 0.500 0.118 0.250 0 0 0
v 0.500 0.018 0.250 0 0 0
v -0.500 0.018 0.250 0 0 0
v -0.500 0.118 0.250 0 0 0
v 0.500 0.118 -0.250 0 0 0
v 0.500 0.018 -0.250 0 0 0
v 0.500 0.018 0.250 0 0 0
v 0.500 0.118 0.250 0 0 0
v -0.500 0.018 0.250 0 0 0
v 0.500 0.018 0.250 0 0 0
v 0.500 0.018 -0.250 0 0 0
v -0.500 0.018 -0.250 0 0 0
v -0.500 0.118 0.250 0 0 0
v -0.500 0.018 0.250 0 0 0
v -0.500 0.018 -0.250 0 0 0
v -0.500 0.118 -0.250 0 0 0
v -0.500 0.118 -0.250 0 0 0
v -0.500 0.018 -0.250 0 0 0
v 0.500 0.018 -0.250 0 0 0
v 0.500 0.118 -0.250 0 0 0
v 0.500 0.172 0.000 0 0 0
v 0.354 0.172 0.354 0 0 0
v 0.188 0.172 0.200 0 0 0
v 0.270 0.172 0.000 0 0 0
v -0.012 0.172 0.282 0 0 0
v 0.354 0.172 -0.354 0 0 0
v 0.000 0.172 0.500 0 0 0
v 0.188 0.172 -0.200 0 0 0
v -0.212 0.172 0.200 0 0 0
v 0.000 0.172 -0.500 0 0 0
v -0.354 0.172 0.354 0 0 0
v -0.012 0.172 -0.282 0 0 0
v -0.294 0.172 0.000 0 0 0
v -0.354 0.172 -0.354 0 0 0
v -0.500 0.172 0.000 0 0 0
v -0.212 0.172 -0.200 0 0 0

# Normal Array
vn -0.383 -0.000 0.924
vn -0.383 -0.000 0.924
vn -0.924 -0.000 0.383
vn -0.924 -0.000 0.383
vn 0.383 -0.000 0.924
vn 0.383 -0.000 0.924
vn 0.924 -0.000 0.383
vn 0.924 -0.000 0.383
vn 0.924 0.000 -0.383
vn 0.924 0.000 -0.383
vn 0.383 0.000 -0.924
vn 0.383 0.000 -0.924
vn -0.383 0.000 -0.924
vn -0.383 0.000 -0.924
vn -0.924 0.000 -0.383
vn -0.924 0.000 -0.383
vn 0.924 0.000 -0.383
vn 0.924 0.000 -0.383
vn 0.383 0.000 -0.924
vn 0.383 0.000 -0.924
vn -0.383 0.000 -0.924
vn -0.383 0.000 -0.924
vn -0.924 0.000 -0.383
vn -0.924 0.000 -0.383
vn -0.924 -0.000 0.383
vn -0.924 -0.000 0.383
vn -0.383 -0.000 0.924
vn -0.383 -0.000 0.924
vn 0.383 -0.000 0.924
vn 0.383 -0.000 0.924
vn 0.924 -0.000 0.383
vn 0.924 -0.000 0.383
vn -0.000 -1.000 0.000
vn -0.000 -1.000 0.000
vn -0.000 -1.000 -0.000
vn -0.000 -1.000 -0.000
vn -0.000 -1.000 -0.000
vn -0.000 -1.000 -0.000
vn -0.000 -1.000 -0.000
vn -0.000 -1.000 -0.000
vn 0.000 -1.000 -0.000
vn 0.000 -1.000 -0.000
vn 0.000 -1.000 -0.000
vn 0.000 -1.000 -0.000
vn 0.000 -1.000 -0.000
vn 0.000 -1.000 -0.000
vn 0.000 -1.000 0.000
vn 0.000 -1.000 0.000
vn 0.000 1.000 0.000
vn 0.000 1.000 0.000
vn 0.000 -0.000 1.000
vn 0.000 -0.000 1.000
vn 1.000 0.000 0.000
vn 1.000 0.000 0.000
vn 0.000 -1.000 -0.000
vn 0.000 -1.000 -0.000
vn -1.000 0.000 0.000
vn -1.000 -0.000 0.000
vn 0.000 0.000 -1.000
vn 0.000 0.000 -1.000
vn 0.000 1.000 0.000
vn 0.000 1.000 0.000
vn 0.000 1.000 0.000
vn 0.000 1.000 0.000
vn 0.000 1.000 0.000
vn 0.000 1.000 0.000
vn -0.000 1.000 0.000
vn 0.000 1.000 -0.000
vn -0.000 1.000 0.000
vn 0.000 1.000 -0.000
vn -0.000 1.000 0.000
vn -0.000 1.000 -0.000
vn -0.000 1.000 0.000
vn -0.000 1.000 -0.000
vn -0.000 1.000 -0.000
vn -0.000 1.000 0.000

# Facets
f 1//1 3//1 2//1
f 2//2 3//2 4//2
f 2//3 4//3 5//3
f 5//4 4//4 6//4
f 7//5 9//5 8//5
f 10//6 9//6 7//6
f 10//7 11//7 9//7
f 12//8 11//8 10//8
f 12//9 13//9 11//9
f 14//10 13//10 12//10
f 14//11 15//11 13//11
f 16//12 15//12 14//12
f 16//13 17//13 15//13
f 18//14 17//14 16//14
f 18//15 19//15 17//15
f 20//16 19//16 18//16
f 21//17 23//17 22//17
f 22//18 23//18 24//18
f 23//19 25//19 24//19
f 24//20 25//20 26//20
f 25//21 27//21 26//21
f 26//22 27//22 28//22
f 27//23 29//23 28//23
f 28//24 29//24 30//24
f 29//25 31//25 30//25
f 30//26 31//26 32//26
f 31//27 33//27 32//27
f 32//28 33//28 34//28
f 33//29 35//29 34//29
f 34//30 35//30 36//30
f 35//31 37//31 36//31
f 36//32 37//32 38//32
f 39//33 41//33 40//33
f 42//34 41//34 39//34
f 43//35 42//35 39//35
f 44//36 42//36 43//36
f 45//37 44//37 43//37
f 46//38 44//38 45//38
f 47//39 46//39 45//39
f 48//40 46//40 47//40
f 49//41 48//41 47//41
f 50//42 48//42 49//42
f 51//43 50//43 49//43
f 52//44 50//44 51//44
f 53//45 52//45 51//45
f 54//46 52//46 53//46
f 41//47 54//47 55//47
f 55//48 54//48 53//48
f 56//49 58//49 57//49
f 59//50 58//50 56//50
f 60//51 62//51 61//51
f 63//52 62//52 60//52
f 64//53 66//53 65//53
f 67//54 66//54 64//54
f 68//55 70//55 69//55
f 71//56 70//56 68//56
f 72//57 74//57 73//57
f 75//58 74//58 72//58
f 76//59 78//59 77//59
f 79//60 78//60 76//60
f 80//61 82//61 81//61
f 83//62 82//62 80//62
f 82//63 84//63 81//63
f 85//64 83//64 80//64
f 81//65 84//65 86//65
f 87//66 83//66 85//66
f 84//67 88//67 86//67
f 89//68 87//68 85//68
f 86//69 88//69 90//69
f 91//70 87//70 89//70
f 88//71 92//71 90//71
f 93//72 91//72 89//72
f 90//73 92//73 94//73
f 95//74 91//74 93//74
f 92//75 95//75 94//75
f 94//76 95//76 93//76

# Thank you for using Spin 3D

