# Created using Spin 3D

# Vertex Array 
v -0.019 0.195 -0.226
v 0.019 0.195 -0.226
v 0.034 0.195 -0.224
v -0.070 0.195 -0.215
v 0.048 0.195 -0.221
v 0.063 0.195 -0.218
v 0.126 0.195 -0.188
v -0.117 0.195 -0.194
v -0.158 0.195 -0.162
v 0.176 0.195 -0.143
v 0.009 0.195 -0.153
v 0.062 0.195 -0.140
v 0.211 0.195 -0.082
v 0.097 0.195 -0.118
v 0.125 0.195 -0.088
v 0.145 0.195 -0.051
v 0.210 0.195 -0.063
v 0.202 0.195 -0.049
v 0.157 0.195 -0.041
v 0.186 0.195 -0.038
v 0.171 0.195 -0.037
v -0.203 0.195 -0.135
v -0.042 0.195 -0.147
v -0.165 0.195 -0.173
v -0.091 0.195 -0.122
v -0.203 0.195 -0.178
v -0.173 0.195 -0.184
v -0.200 0.195 -0.185
v -0.181 0.195 -0.190
v -0.191 0.195 -0.191
v -0.203 0.195 -0.091
v -0.079 0.195 -0.120
v -0.067 0.195 -0.117
v -0.060 0.195 -0.109
v -0.060 0.195 -0.100
v -0.064 0.195 -0.090
v -0.202 0.195 -0.048
v -0.178 0.195 -0.038
v -0.196 0.195 -0.040
v -0.188 0.195 -0.037
v 0.178 0.195 0.038
v 0.188 0.195 0.037
v 0.196 0.195 0.040
v 0.140 0.195 0.056
v 0.202 0.195 0.048
v 0.203 0.195 0.091
v 0.102 0.195 0.073
v 0.064 0.195 0.090
v 0.060 0.195 0.100
v 0.203 0.195 0.135
v 0.060 0.195 0.109
v 0.067 0.195 0.117
v 0.079 0.195 0.120
v 0.091 0.195 0.122
v 0.042 0.195 0.147
v 0.158 0.195 0.162
v -0.009 0.195 0.153
v 0.203 0.195 0.178
v 0.165 0.195 0.173
v 0.173 0.195 0.184
v 0.201 0.195 0.183
v 0.191 0.195 0.191
v 0.181 0.195 0.190
v -0.126 0.195 0.188
v 0.117 0.195 0.194
v -0.176 0.195 0.143
v -0.063 0.195 0.218
v 0.070 0.195 0.215
v -0.062 0.195 0.140
v -0.097 0.195 0.118
v 0.019 0.195 0.226
v -0.048 0.195 0.221
v -0.034 0.195 0.224
v -0.019 0.195 0.226
v -0.125 0.195 0.088
v -0.211 0.195 0.082
v -0.210 0.195 0.063
v -0.145 0.195 0.051
v -0.202 0.195 0.049
v -0.157 0.195 0.041
v -0.186 0.195 0.038
v -0.171 0.195 0.037
v -0.181 0.183 -0.190
v -0.191 0.183 -0.191
v -0.200 0.183 -0.185
v -0.173 0.183 -0.184
v -0.203 0.183 -0.178
v -0.165 0.183 -0.173
v -0.203 0.183 -0.135
v -0.158 0.183 -0.162
v 0.009 0.183 -0.153
v -0.042 0.183 -0.147
v -0.091 0.183 -0.122
v -0.203 0.183 -0.091
v -0.079 0.183 -0.120
v -0.067 0.183 -0.117
v -0.060 0.183 -0.109
v -0.060 0.183 -0.100
v -0.064 0.183 -0.090
v -0.202 0.183 -0.048
v -0.178 0.183 -0.038
v -0.196 0.183 -0.040
v -0.188 0.183 -0.037
v 0.176 0.183 -0.143
v 0.062 0.183 -0.140
v 0.126 0.183 -0.188
v -0.117 0.183 -0.194
v 0.211 0.183 -0.082
v -0.070 0.183 -0.215
v 0.097 0.183 -0.118
v 0.125 0.183 -0.088
v 0.063 0.183 -0.218
v 0.145 0.183 -0.051
v 0.210 0.183 -0.063
v 0.202 0.183 -0.049
v 0.157 0.183 -0.041
v 0.186 0.183 -0.038
v 0.171 0.183 -0.037
v 0.048 0.183 -0.221
v 0.034 0.183 -0.224
v 0.019 0.183 -0.226
v -0.019 0.183 -0.226
v 0.196 0.183 0.040
v 0.188 0.183 0.037
v 0.178 0.183 0.038
v 0.140 0.183 0.056
v 0.202 0.183 0.048
v 0.203 0.183 0.091
v 0.102 0.183 0.073
v 0.064 0.183 0.090
v 0.060 0.183 0.100
v 0.203 0.183 0.135
v 0.060 0.183 0.109
v 0.067 0.183 0.117
v 0.079 0.183 0.120
v 0.091 0.183 0.122
v 0.042 0.183 0.147
v 0.158 0.183 0.162
v 0.203 0.183 0.178
v -0.009 0.183 0.153
v 0.165 0.183 0.173
v 0.173 0.183 0.184
v 0.201 0.183 0.183
v 0.191 0.183 0.191
v 0.181 0.183 0.190
v -0.126 0.183 0.188
v 0.117 0.183 0.194
v -0.176 0.183 0.143
v -0.063 0.183 0.218
v 0.070 0.183 0.215
v -0.062 0.183 0.140
v -0.097 0.183 0.118
v 0.019 0.183 0.226
v -0.048 0.183 0.221
v -0.034 0.183 0.224
v -0.019 0.183 0.226
v -0.125 0.183 0.088
v -0.211 0.183 0.082
v -0.210 0.183 0.063
v -0.145 0.183 0.051
v -0.202 0.183 0.049
v -0.157 0.183 0.041
v -0.186 0.183 0.038
v -0.171 0.183 0.037
v -0.202 0.183 -0.048
v -0.202 0.195 -0.048
v -0.196 0.195 -0.040
v -0.196 0.183 -0.040
v 0.196 0.183 0.040
v 0.196 0.195 0.040
v 0.188 0.195 0.037
v 0.188 0.183 0.037
v 0.202 0.183 0.048
v 0.202 0.195 0.048
v 0.196 0.195 0.040
v 0.196 0.183 0.040
v 0.188 0.183 0.037
v 0.188 0.195 0.037
v 0.178 0.195 0.038
v 0.178 0.183 0.038
v 0.140 0.195 0.056
v 0.140 0.183 0.056
v 0.102 0.195 0.073
v 0.102 0.183 0.073
v 0.064 0.195 0.090
v 0.064 0.183 0.090
v -0.157 0.183 0.041
v -0.145 0.183 0.051
v -0.157 0.195 0.041
v -0.145 0.195 0.051
v -0.125 0.183 0.088
v -0.125 0.195 0.088
v -0.097 0.183 0.118
v -0.097 0.195 0.118
v -0.062 0.183 0.140
v -0.062 0.195 0.140
v 0.064 0.183 0.090
v 0.064 0.195 0.090
v 0.060 0.195 0.100
v 0.060 0.183 0.100
v 0.202 0.183 0.048
v 0.203 0.183 0.091
v 0.202 0.195 0.048
v 0.203 0.195 0.091
v 0.203 0.183 0.135
v 0.203 0.195 0.135
v 0.203 0.183 0.178
v 0.203 0.195 0.178
v 0.201 0.183 0.183
v 0.201 0.195 0.183
v -0.210 0.183 0.063
v -0.210 0.195 0.063
v -0.211 0.195 0.082
v -0.211 0.183 0.082
v 0.060 0.183 0.100
v 0.060 0.195 0.100
v 0.060 0.195 0.109
v 0.060 0.183 0.109
v -0.210 0.183 0.063
v -0.202 0.183 0.049
v -0.210 0.195 0.063
v -0.202 0.195 0.049
v -0.186 0.183 0.038
v -0.186 0.195 0.038
v -0.171 0.183 0.037
v -0.171 0.195 0.037
v -0.157 0.183 0.041
v -0.157 0.195 0.041
v 0.060 0.183 0.109
v 0.060 0.195 0.109
v 0.067 0.195 0.117
v 0.067 0.183 0.117
v -0.211 0.183 0.082
v -0.211 0.195 0.082
v -0.176 0.195 0.143
v -0.176 0.183 0.143
v -0.126 0.195 0.188
v -0.126 0.183 0.188
v -0.063 0.195 0.218
v -0.063 0.183 0.218
v 0.091 0.183 0.122
v 0.079 0.183 0.120
v 0.091 0.195 0.122
v 0.079 0.195 0.120
v 0.067 0.183 0.117
v 0.067 0.195 0.117
v -0.062 0.183 0.140
v -0.009 0.183 0.153
v -0.062 0.195 0.140
v -0.009 0.195 0.153
v 0.042 0.183 0.147
v 0.042 0.195 0.147
v 0.091 0.183 0.122
v 0.091 0.195 0.122
v -0.063 0.183 0.218
v -0.063 0.195 0.218
v -0.048 0.195 0.221
v -0.048 0.183 0.221
v -0.034 0.195 0.224
v -0.034 0.183 0.224
v -0.019 0.195 0.226
v -0.019 0.183 0.226
v 0.019 0.195 0.226
v 0.019 0.183 0.226
v 0.070 0.195 0.215
v 0.070 0.183 0.215
v 0.117 0.195 0.194
v 0.117 0.183 0.194
v 0.158 0.195 0.162
v 0.158 0.183 0.162
v -0.181 0.183 -0.190
v -0.181 0.195 -0.190
v -0.191 0.195 -0.191
v -0.191 0.183 -0.191
v 0.158 0.183 0.162
v 0.158 0.195 0.162
v 0.165 0.195 0.173
v 0.165 0.183 0.173
v 0.173 0.195 0.184
v 0.173 0.183 0.184
v 0.181 0.195 0.190
v 0.181 0.183 0.190
v 0.126 0.183 -0.188
v 0.176 0.183 -0.143
v 0.126 0.195 -0.188
v 0.176 0.195 -0.143
v 0.211 0.183 -0.082
v 0.211 0.195 -0.082
v -0.200 0.183 -0.185
v -0.200 0.195 -0.185
v -0.203 0.195 -0.178
v -0.203 0.183 -0.178
v -0.158 0.183 -0.162
v -0.117 0.183 -0.194
v -0.158 0.195 -0.162
v -0.117 0.195 -0.194
v -0.070 0.183 -0.215
v -0.070 0.195 -0.215
v -0.019 0.183 -0.226
v -0.019 0.195 -0.226
v 0.019 0.183 -0.226
v 0.019 0.195 -0.226
v 0.034 0.183 -0.224
v 0.034 0.195 -0.224
v 0.048 0.183 -0.221
v 0.048 0.195 -0.221
v 0.063 0.183 -0.218
v 0.063 0.195 -0.218
v 0.126 0.183 -0.188
v 0.126 0.195 -0.188
v -0.203 0.183 -0.178
v -0.203 0.195 -0.178
v -0.203 0.195 -0.135
v -0.203 0.183 -0.135
v -0.203 0.195 -0.091
v -0.203 0.183 -0.091
v -0.202 0.195 -0.048
v -0.202 0.183 -0.048
v -0.191 0.183 -0.191
v -0.191 0.195 -0.191
v -0.200 0.195 -0.185
v -0.200 0.183 -0.185
v 0.191 0.183 0.191
v 0.191 0.195 0.191
v 0.201 0.195 0.183
v 0.201 0.183 0.183
v -0.158 0.183 -0.162
v -0.158 0.195 -0.162
v -0.165 0.195 -0.173
v -0.165 0.183 -0.173
v -0.173 0.195 -0.184
v -0.173 0.183 -0.184
v -0.181 0.195 -0.190
v -0.181 0.183 -0.190
v -0.196 0.183 -0.040
v -0.196 0.195 -0.040
v -0.188 0.195 -0.037
v -0.188 0.183 -0.037
v -0.188 0.183 -0.037
v -0.188 0.195 -0.037
v -0.178 0.195 -0.038
v -0.178 0.183 -0.038
v -0.064 0.195 -0.090
v -0.064 0.183 -0.090
v -0.064 0.183 -0.090
v -0.064 0.195 -0.090
v -0.060 0.195 -0.100
v -0.060 0.183 -0.100
v 0.062 0.183 -0.140
v 0.009 0.183 -0.153
v 0.062 0.195 -0.140
v 0.009 0.195 -0.153
v -0.042 0.183 -0.147
v -0.042 0.195 -0.147
v -0.091 0.183 -0.122
v -0.091 0.195 -0.122
v -0.067 0.183 -0.117
v -0.067 0.195 -0.117
v -0.079 0.195 -0.120
v -0.079 0.183 -0.120
v -0.091 0.195 -0.122
v -0.091 0.183 -0.122
v -0.060 0.183 -0.109
v -0.060 0.195 -0.109
v -0.067 0.195 -0.117
v -0.067 0.183 -0.117
v 0.062 0.183 -0.140
v 0.062 0.195 -0.140
v 0.097 0.195 -0.118
v 0.097 0.183 -0.118
v 0.125 0.195 -0.088
v 0.125 0.183 -0.088
v 0.145 0.195 -0.051
v 0.145 0.183 -0.051
v 0.157 0.195 -0.041
v 0.157 0.183 -0.041
v 0.171 0.195 -0.037
v 0.171 0.183 -0.037
v -0.060 0.183 -0.100
v -0.060 0.195 -0.100
v -0.060 0.195 -0.109
v -0.060 0.183 -0.109
v 0.171 0.183 -0.037
v 0.171 0.195 -0.037
v 0.186 0.195 -0.038
v 0.186 0.183 -0.038
v 0.202 0.195 -0.049
v 0.202 0.183 -0.049
v 0.211 0.183 -0.082
v 0.210 0.183 -0.063
v 0.211 0.195 -0.082
v 0.210 0.195 -0.063
v 0.202 0.183 -0.049
v 0.202 0.195 -0.049
v 0.181 0.183 0.190
v 0.181 0.195 0.190
v 0.191 0.195 0.191
v 0.191 0.183 0.191

# Normal Array
vn 0.000 1.000 0.000
vn 0.000 1.000 0.000
vn 0.000 1.000 -0.000
vn 0.000 1.000 -0.000
vn 0.000 1.000 -0.000
vn 0.000 1.000 0.000
vn 0.000 1.000 0.000
vn 0.000 1.000 -0.000
vn 0.000 1.000 0.000
vn 0.000 1.000 0.000
vn 0.000 1.000 0.000
vn -0.000 1.000 0.000
vn 0.000 1.000 0.000
vn 0.000 1.000 0.000
vn 0.000 1.000 0.000
vn 0.000 1.000 0.000
vn -0.000 1.000 0.000
vn -0.000 1.000 0.000
vn 0.000 1.000 0.000
vn -0.000 1.000 0.000
vn -0.000 1.000 -0.000
vn -0.000 1.000 0.000
vn -0.000 1.000 0.000
vn -0.000 1.000 0.000
vn 0.000 1.000 -0.000
vn 0.000 1.000 0.000
vn 0.000 1.000 -0.000
vn 0.000 1.000 0.000
vn 0.000 1.000 0.000
vn 0.000 1.000 -0.000
vn 0.000 1.000 -0.000
vn 0.000 1.000 -0.000
vn 0.000 1.000 -0.000
vn 0.000 1.000 0.000
vn 0.000 1.000 0.000
vn 0.000 1.000 0.000
vn -0.000 1.000 0.000
vn 0.000 1.000 0.000
vn -0.000 1.000 0.000
vn -0.000 1.000 0.000
vn 0.000 1.000 0.000
vn 0.000 1.000 -0.000
vn 0.000 1.000 0.000
vn 0.000 1.000 0.000
vn 0.000 1.000 0.000
vn 0.000 1.000 -0.000
vn 0.000 1.000 0.000
vn 0.000 1.000 0.000
vn 0.000 1.000 0.000
vn 0.000 1.000 0.000
vn -0.000 1.000 0.000
vn -0.000 1.000 0.000
vn 0.000 1.000 0.000
vn -0.000 1.000 0.000
vn 0.000 1.000 0.000
vn 0.000 1.000 0.000
vn 0.000 1.000 0.000
vn 0.000 1.000 0.000
vn 0.000 1.000 0.000
vn 0.000 1.000 -0.000
vn 0.000 1.000 0.000
vn 0.000 1.000 0.000
vn 0.000 1.000 0.000
vn 0.000 1.000 0.000
vn 0.000 1.000 -0.000
vn 0.000 1.000 0.000
vn 0.000 1.000 0.000
vn 0.000 1.000 0.000
vn 0.000 1.000 0.000
vn 0.000 1.000 0.000
vn -0.000 1.000 0.000
vn -0.000 1.000 0.000
vn 0.000 1.000 0.000
vn 0.000 1.000 -0.000
vn 0.000 1.000 0.000
vn -0.000 1.000 0.000
vn -0.000 1.000 0.000
vn -0.000 1.000 0.000
vn -0.000 -1.000 0.000
vn 0.000 -1.000 0.000
vn 0.000 -1.000 0.000
vn 0.000 -1.000 0.000
vn 0.000 -1.000 -0.000
vn 0.000 -1.000 -0.000
vn 0.000 -1.000 -0.000
vn 0.000 -1.000 0.000
vn 0.000 -1.000 -0.000
vn 0.000 -1.000 0.000
vn 0.000 -1.000 0.000
vn 0.000 -1.000 0.000
vn 0.000 -1.000 0.000
vn 0.000 -1.000 0.000
vn 0.000 -1.000 0.000
vn 0.000 -1.000 0.000
vn -0.000 -1.000 -0.000
vn 0.000 -1.000 -0.000
vn 0.000 -1.000 0.000
vn 0.000 -1.000 0.000
vn 0.000 -1.000 0.000
vn 0.000 -1.000 0.000
vn 0.000 -1.000 0.000
vn -0.000 -1.000 -0.000
vn 0.000 -1.000 0.000
vn 0.000 -1.000 -0.000
vn 0.000 -1.000 0.000
vn 0.000 -1.000 0.000
vn 0.000 -1.000 0.000
vn 0.000 -1.000 0.000
vn 0.000 -1.000 0.000
vn 0.000 -1.000 -0.000
vn 0.000 -1.000 -0.000
vn 0.000 -1.000 0.000
vn 0.000 -1.000 0.000
vn 0.000 -1.000 0.000
vn 0.000 -1.000 0.000
vn 0.000 -1.000 0.000
vn 0.000 -1.000 0.000
vn 0.000 -1.000 -0.000
vn -0.000 -1.000 -0.000
vn 0.000 -1.000 0.000
vn 0.000 -1.000 0.000
vn 0.000 -1.000 0.000
vn 0.000 -1.000 0.000
vn 0.000 -1.000 0.000
vn 0.000 -1.000 0.000
vn 0.000 -1.000 0.000
vn 0.000 -1.000 0.000
vn 0.000 -1.000 0.000
vn 0.000 -1.000 -0.000
vn 0.000 -1.000 -0.000
vn 0.000 -1.000 -0.000
vn 0.000 -1.000 0.000
vn 0.000 -1.000 0.000
vn 0.000 -1.000 0.000
vn 0.000 -1.000 0.000
vn 0.000 -1.000 0.000
vn 0.000 -1.000 0.000
vn 0.000 -1.000 0.000
vn 0.000 -1.000 0.000
vn 0.000 -1.000 0.000
vn 0.000 -1.000 0.000
vn 0.000 -1.000 0.000
vn 0.000 -1.000 0.000
vn -0.000 -1.000 -0.000
vn 0.000 -1.000 0.000
vn 0.000 -1.000 0.000
vn 0.000 -1.000 0.000
vn 0.000 -1.000 0.000
vn 0.000 -1.000 -0.000
vn 0.000 -1.000 -0.000
vn 0.000 -1.000 0.000
vn 0.000 -1.000 0.000
vn 0.000 -1.000 0.000
vn 0.000 -1.000 -0.000
vn 0.000 -1.000 -0.000
vn 0.000 -1.000 0.000
vn -0.796 0.000 0.606
vn -0.796 -0.000 0.606
vn 0.368 0.000 -0.930
vn 0.368 0.000 -0.930
vn 0.796 0.000 -0.606
vn 0.796 0.000 -0.606
vn -0.156 0.000 -0.988
vn -0.156 0.000 -0.988
vn -0.412 0.000 -0.911
vn -0.412 0.000 -0.911
vn -0.416 0.000 -0.909
vn -0.416 0.000 -0.909
vn -0.420 0.000 -0.908
vn -0.420 0.000 -0.908
vn 0.647 0.000 -0.763
vn 0.647 0.000 -0.763
vn 0.877 0.000 -0.480
vn 0.877 0.000 -0.480
vn 0.728 0.000 -0.685
vn 0.728 0.000 -0.685
vn 0.533 0.000 -0.846
vn 0.533 0.000 -0.846
vn -0.890 0.000 -0.457
vn -0.890 0.000 -0.457
vn 1.000 0.000 -0.022
vn 1.000 0.000 -0.022
vn 1.000 0.000 -0.007
vn 1.000 0.000 -0.007
vn 1.000 -0.000 0.009
vn 1.000 -0.000 0.009
vn 0.959 -0.000 0.285
vn 0.959 -0.000 0.285
vn -1.000 0.000 -0.027
vn -1.000 0.000 -0.027
vn -0.995 -0.000 0.100
vn -0.995 -0.000 0.100
vn -0.874 0.000 -0.486
vn -0.874 0.000 -0.486
vn -0.550 0.000 -0.835
vn -0.550 0.000 -0.835
vn -0.096 0.000 -0.995
vn -0.096 0.000 -0.995
vn 0.298 0.000 -0.955
vn 0.298 0.000 -0.955
vn -0.779 -0.000 0.627
vn -0.779 -0.000 0.627
vn -0.866 -0.000 0.500
vn -0.866 0.000 0.500
vn -0.676 0.000 0.737
vn -0.676 0.000 0.737
vn -0.422 0.000 0.906
vn -0.422 0.000 0.906
vn -0.201 -0.000 0.979
vn -0.201 -0.000 0.979
vn -0.232 -0.000 0.973
vn -0.232 -0.000 0.973
vn 0.231 0.000 -0.973
vn 0.231 0.000 -0.973
vn -0.115 0.000 -0.993
vn -0.115 0.000 -0.993
vn -0.448 0.000 -0.894
vn -0.448 0.000 -0.894
vn -0.239 0.000 0.971
vn -0.239 0.000 0.971
vn -0.190 0.000 0.982
vn -0.190 0.000 0.982
vn -0.141 0.000 0.990
vn -0.141 0.000 0.990
vn 0.000 0.000 1.000
vn 0.000 -0.000 1.000
vn 0.208 -0.000 0.978
vn 0.208 -0.000 0.978
vn 0.417 -0.000 0.909
vn 0.417 -0.000 0.909
vn 0.606 -0.000 0.796
vn 0.606 -0.000 0.796
vn 0.064 0.000 -0.998
vn 0.064 0.000 -0.998
vn -0.816 0.000 0.578
vn -0.816 0.000 0.578
vn -0.832 0.000 0.555
vn -0.832 0.000 0.555
vn -0.608 0.000 0.794
vn -0.608 0.000 0.794
vn 0.676 0.000 -0.737
vn 0.676 0.000 -0.737
vn 0.866 0.000 -0.500
vn 0.866 0.000 -0.500
vn -0.936 0.000 -0.351
vn -0.936 0.000 -0.351
vn -0.606 0.000 -0.796
vn -0.606 0.000 -0.796
vn -0.417 0.000 -0.909
vn -0.417 0.000 -0.909
vn -0.208 0.000 -0.978
vn -0.208 0.000 -0.978
vn 0.000 0.000 -1.000
vn 0.000 0.000 -1.000
vn 0.141 0.000 -0.990
vn 0.141 0.000 -0.990
vn 0.190 0.000 -0.982
vn 0.190 0.000 -0.982
vn 0.239 0.000 -0.971
vn 0.239 0.000 -0.971
vn 0.422 0.000 -0.906
vn 0.422 0.000 -0.906
vn -1.000 0.000 -0.009
vn -1.000 0.000 -0.009
vn -1.000 0.000 0.007
vn -1.000 -0.000 0.007
vn -1.000 -0.000 0.022
vn -1.000 0.000 0.022
vn -0.504 0.000 -0.863
vn -0.504 0.000 -0.863
vn 0.588 -0.000 0.809
vn 0.588 -0.000 0.809
vn 0.816 0.000 -0.578
vn 0.816 0.000 -0.578
vn 0.832 0.000 -0.555
vn 0.832 0.000 -0.555
vn 0.608 0.000 -0.794
vn 0.608 0.000 -0.794
vn -0.368 -0.000 0.930
vn -0.368 -0.000 0.930
vn 0.156 -0.000 0.988
vn 0.156 -0.000 0.988
vn 0.416 -0.000 0.909
vn 0.416 -0.000 0.909
vn 0.890 -0.000 0.457
vn 0.890 -0.000 0.457
vn -0.231 0.000 0.973
vn -0.231 0.000 0.973
vn 0.115 -0.000 0.993
vn 0.115 -0.000 0.993
vn 0.448 -0.000 0.894
vn 0.448 -0.000 0.894
vn 0.232 0.000 -0.973
vn 0.232 0.000 -0.973
vn 0.201 0.000 -0.979
vn 0.201 0.000 -0.979
vn 0.779 0.000 -0.627
vn 0.779 0.000 -0.627
vn -0.533 0.000 0.846
vn -0.533 -0.000 0.846
vn -0.728 -0.000 0.685
vn -0.728 -0.000 0.685
vn -0.877 -0.000 0.480
vn -0.877 -0.000 0.480
vn -0.647 -0.000 0.763
vn -0.647 0.000 0.763
vn -0.298 0.000 0.955
vn -0.298 -0.000 0.955
vn 0.995 0.000 -0.100
vn 0.995 0.000 -0.100
vn 0.096 -0.000 0.995
vn 0.096 -0.000 0.995
vn 0.550 -0.000 0.835
vn 0.550 -0.000 0.835
vn 1.000 -0.000 0.027
vn 1.000 -0.000 0.027
vn 0.874 -0.000 0.486
vn 0.874 -0.000 0.486
vn -0.064 0.000 0.998
vn -0.064 0.000 0.998

# Facets
f 1//1 3//1 2//1
f 3//2 1//2 4//2
f 3//3 4//3 5//3
f 5//4 4//4 6//4
f 6//5 4//5 7//5
f 7//6 4//6 8//6
f 7//7 8//7 9//7
f 7//8 9//8 10//8
f 10//9 9//9 11//9
f 10//10 11//10 12//10
f 10//11 12//11 13//11
f 13//12 12//12 14//12
f 13//13 14//13 15//13
f 13//14 15//14 16//14
f 13//15 16//15 17//15
f 17//16 16//16 18//16
f 18//17 16//17 19//17
f 18//18 19//18 20//18
f 20//19 19//19 21//19
f 9//20 22//20 11//20
f 11//21 22//21 23//21
f 24//22 22//22 9//22
f 23//23 22//23 25//23
f 24//24 26//24 22//24
f 27//25 26//25 24//25
f 27//26 28//26 26//26
f 29//27 28//27 27//27
f 28//28 29//28 30//28
f 25//29 22//29 31//29
f 25//30 31//30 32//30
f 32//31 31//31 33//31
f 33//32 31//32 34//32
f 34//33 31//33 35//33
f 35//34 31//34 36//34
f 36//35 31//35 37//35
f 36//36 37//36 38//36
f 38//37 37//37 39//37
f 38//38 39//38 40//38
f 41//39 43//39 42//39
f 43//40 41//40 44//40
f 43//41 44//41 45//41
f 45//42 44//42 46//42
f 46//43 44//43 47//43
f 46//44 47//44 48//44
f 46//45 48//45 49//45
f 46//46 49//46 50//46
f 50//47 49//47 51//47
f 50//48 51//48 52//48
f 50//49 52//49 53//49
f 50//50 53//50 54//50
f 50//51 54//51 55//51
f 50//52 55//52 56//52
f 56//53 55//53 57//53
f 50//54 56//54 58//54
f 58//55 56//55 59//55
f 58//56 59//56 60//56
f 58//57 60//57 61//57
f 61//58 60//58 62//58
f 62//59 60//59 63//59
f 57//60 64//60 56//60
f 56//61 64//61 65//61
f 57//62 66//62 64//62
f 65//63 64//63 67//63
f 65//64 67//64 68//64
f 69//65 66//65 57//65
f 70//66 66//66 69//66
f 68//67 67//67 71//67
f 71//68 67//68 72//68
f 71//69 72//69 73//69
f 71//70 73//70 74//70
f 75//71 66//71 70//71
f 75//72 76//72 66//72
f 75//73 77//73 76//73
f 78//74 77//74 75//74
f 78//75 79//75 77//75
f 80//76 79//76 78//76
f 80//77 81//77 79//77
f 81//78 80//78 82//78
f 83//79 85//79 84//79
f 85//80 83//80 86//80
f 85//81 86//81 87//81
f 87//82 86//82 88//82
f 87//83 88//83 89//83
f 89//84 88//84 90//84
f 89//85 90//85 91//85
f 89//86 91//86 92//86
f 89//87 92//87 93//87
f 89//88 93//88 94//88
f 94//89 93//89 95//89
f 94//90 95//90 96//90
f 94//91 96//91 97//91
f 94//92 97//92 98//92
f 94//93 98//93 99//93
f 94//94 99//94 100//94
f 100//95 99//95 101//95
f 100//96 101//96 102//96
f 102//97 101//97 103//97
f 90//98 104//98 91//98
f 91//99 104//99 105//99
f 90//100 106//100 104//100
f 107//101 106//101 90//101
f 105//102 104//102 108//102
f 109//103 106//103 107//103
f 105//104 108//104 110//104
f 110//105 108//105 111//105
f 109//106 112//106 106//106
f 111//107 108//107 113//107
f 113//108 108//108 114//108
f 113//109 114//109 115//109
f 113//110 115//110 116//110
f 116//111 115//111 117//111
f 116//112 117//112 118//112
f 109//113 119//113 112//113
f 109//114 120//114 119//114
f 109//115 121//115 120//115
f 121//116 109//116 122//116
f 123//117 125//117 124//117
f 125//118 123//118 126//118
f 126//119 123//119 127//119
f 126//120 127//120 128//120
f 126//121 128//121 129//121
f 129//122 128//122 130//122
f 130//123 128//123 131//123
f 131//124 128//124 132//124
f 131//125 132//125 133//125
f 133//126 132//126 134//126
f 134//127 132//127 135//127
f 135//128 132//128 136//128
f 136//129 132//129 137//129
f 137//130 132//130 138//130
f 138//131 132//131 139//131
f 137//132 138//132 140//132
f 138//133 139//133 141//133
f 141//134 139//134 142//134
f 142//135 139//135 143//135
f 142//136 143//136 144//136
f 142//137 144//137 145//137
f 146//138 140//138 138//138
f 146//139 138//139 147//139
f 148//140 140//140 146//140
f 146//141 147//141 149//141
f 149//142 147//142 150//142
f 148//143 151//143 140//143
f 148//144 152//144 151//144
f 149//145 150//145 153//145
f 149//146 153//146 154//146
f 154//147 153//147 155//147
f 155//148 153//148 156//148
f 148//149 157//149 152//149
f 158//150 157//150 148//150
f 159//151 157//151 158//151
f 159//152 160//152 157//152
f 161//153 160//153 159//153
f 161//154 162//154 160//154
f 163//155 162//155 161//155
f 162//156 163//156 164//156
f 165//157 167//157 166//157
f 168//158 167//158 165//158
f 169//159 171//159 170//159
f 172//160 171//160 169//160
f 173//161 175//161 174//161
f 176//162 175//162 173//162
f 177//163 179//163 178//163
f 180//164 179//164 177//164
f 180//165 181//165 179//165
f 182//166 181//166 180//166
f 182//167 183//167 181//167
f 184//168 183//168 182//168
f 184//169 185//169 183//169
f 186//170 185//170 184//170
f 187//171 189//171 188//171
f 188//172 189//172 190//172
f 188//173 190//173 191//173
f 191//174 190//174 192//174
f 191//175 192//175 193//175
f 193//176 192//176 194//176
f 193//177 194//177 195//177
f 195//178 194//178 196//178
f 197//179 199//179 198//179
f 200//180 199//180 197//180
f 201//181 203//181 202//181
f 202//182 203//182 204//182
f 202//183 204//183 205//183
f 205//184 204//184 206//184
f 205//185 206//185 207//185
f 207//186 206//186 208//186
f 207//187 208//187 209//187
f 209//188 208//188 210//188
f 211//189 213//189 212//189
f 214//190 213//190 211//190
f 215//191 217//191 216//191
f 218//192 217//192 215//192
f 219//193 221//193 220//193
f 220//194 221//194 222//194
f 220//195 222//195 223//195
f 223//196 222//196 224//196
f 223//197 224//197 225//197
f 225//198 224//198 226//198
f 225//199 226//199 227//199
f 227//200 226//200 228//200
f 229//201 231//201 230//201
f 232//202 231//202 229//202
f 233//203 235//203 234//203
f 236//204 235//204 233//204
f 236//205 237//205 235//205
f 238//206 237//206 236//206
f 238//207 239//207 237//207
f 240//208 239//208 238//208
f 241//209 243//209 242//209
f 242//210 243//210 244//210
f 242//211 244//211 245//211
f 245//212 244//212 246//212
f 247//213 249//213 248//213
f 248//214 249//214 250//214
f 248//215 250//215 251//215
f 251//216 250//216 252//216
f 251//217 252//217 253//217
f 253//218 252//218 254//218
f 255//219 257//219 256//219
f 258//220 257//220 255//220
f 258//221 259//221 257//221
f 260//222 259//222 258//222
f 260//223 261//223 259//223
f 262//224 261//224 260//224
f 262//225 263//225 261//225
f 264//226 263//226 262//226
f 264//227 265//227 263//227
f 266//228 265//228 264//228
f 266//229 267//229 265//229
f 268//230 267//230 266//230
f 268//231 269//231 267//231
f 270//232 269//232 268//232
f 271//233 273//233 272//233
f 274//234 273//234 271//234
f 275//235 277//235 276//235
f 278//236 277//236 275//236
f 278//237 279//237 277//237
f 280//238 279//238 278//238
f 280//239 281//239 279//239
f 282//240 281//240 280//240
f 283//241 285//241 284//241
f 284//242 285//242 286//242
f 284//243 286//243 287//243
f 287//244 286//244 288//244
f 289//245 291//245 290//245
f 292//246 291//246 289//246
f 293//247 295//247 294//247
f 294//248 295//248 296//248
f 294//249 296//249 297//249
f 297//250 296//250 298//250
f 297//251 298//251 299//251
f 299//252 298//252 300//252
f 299//253 300//253 301//253
f 301//254 300//254 302//254
f 301//255 302//255 303//255
f 303//256 302//256 304//256
f 303//257 304//257 305//257
f 305//258 304//258 306//258
f 305//259 306//259 307//259
f 307//260 306//260 308//260
f 307//261 308//261 309//261
f 309//262 308//262 310//262
f 311//263 313//263 312//263
f 314//264 313//264 311//264
f 314//265 315//265 313//265
f 316//266 315//266 314//266
f 316//267 317//267 315//267
f 318//268 317//268 316//268
f 319//269 321//269 320//269
f 322//270 321//270 319//270
f 323//271 325//271 324//271
f 326//272 325//272 323//272
f 327//273 329//273 328//273
f 330//274 329//274 327//274
f 330//275 331//275 329//275
f 332//276 331//276 330//276
f 332//277 333//277 331//277
f 334//278 333//278 332//278
f 335//279 337//279 336//279
f 338//280 337//280 335//280
f 339//281 341//281 340//281
f 342//282 341//282 339//282
f 342//283 343//283 341//283
f 344//284 343//284 342//284
f 345//285 347//285 346//285
f 348//286 347//286 345//286
f 349//287 351//287 350//287
f 350//288 351//288 352//288
f 350//289 352//289 353//289
f 353//290 352//290 354//290
f 353//291 354//291 355//291
f 355//292 354//292 356//292
f 357//293 359//293 358//293
f 360//294 359//294 357//294
f 360//295 361//295 359//295
f 362//296 361//296 360//296
f 363//297 365//297 364//297
f 366//298 365//298 363//298
f 367//299 369//299 368//299
f 370//300 369//300 367//300
f 370//301 371//301 369//301
f 372//302 371//302 370//302
f 372//303 373//303 371//303
f 374//304 373//304 372//304
f 374//305 375//305 373//305
f 376//306 375//306 374//306
f 376//307 377//307 375//307
f 378//308 377//308 376//308
f 379//309 381//309 380//309
f 382//310 381//310 379//310
f 383//311 385//311 384//311
f 386//312 385//312 383//312
f 386//313 387//313 385//313
f 388//314 387//314 386//314
f 389//315 391//315 390//315
f 390//316 391//316 392//316
f 390//317 392//317 393//317
f 393//318 392//318 394//318
f 395//319 397//319 396//319
f 398//320 397//320 395//320

# Thank you for using Spin 3D

