# Created using Spin 3D

# Vertex Array 
v 0.188 0.183 0.037
v 0.196 0.183 0.040
v 0.188 0.195 0.037
v 0.196 0.195 0.040
v 0.202 0.183 0.048
v 0.202 0.195 0.048
v 0.203 0.183 0.091
v 0.203 0.195 0.091
v 0.203 0.183 0.135
v 0.203 0.195 0.135
v 0.203 0.183 0.178
v 0.203 0.195 0.178
v 0.201 0.183 0.183
v 0.201 0.195 0.183
v -0.041 0.183 0.180
v -0.034 0.183 0.166
v -0.041 0.195 0.180
v -0.034 0.195 0.166
v -0.023 0.183 0.157
v -0.023 0.195 0.157
v -0.009 0.183 0.153
v -0.009 0.195 0.153
v 0.042 0.183 0.147
v 0.042 0.195 0.147
v 0.091 0.183 0.122
v 0.091 0.195 0.122
v 0.188 0.183 0.037
v 0.188 0.195 0.037
v 0.178 0.195 0.038
v 0.178 0.183 0.038
v 0.140 0.195 0.056
v 0.140 0.183 0.056
v 0.102 0.195 0.073
v 0.102 0.183 0.073
v 0.064 0.195 0.090
v 0.064 0.183 0.090
v 0.060 0.195 0.100
v 0.060 0.183 0.100
v -0.041 0.183 0.180
v -0.041 0.195 0.180
v -0.041 0.195 0.199
v -0.041 0.183 0.199
v -0.033 0.195 0.214
v -0.033 0.183 0.214
v -0.033 0.183 0.214
v -0.033 0.195 0.214
v -0.018 0.195 0.224
v -0.018 0.183 0.224
v 0.019 0.195 0.226
v 0.019 0.183 0.226
v 0.070 0.195 0.215
v 0.070 0.183 0.215
v 0.117 0.195 0.194
v 0.117 0.183 0.194
v 0.158 0.195 0.162
v 0.158 0.183 0.162
v 0.060 0.183 0.100
v 0.060 0.195 0.100
v 0.060 0.195 0.109
v 0.060 0.183 0.109
v 0.067 0.195 0.117
v 0.067 0.183 0.117
v 0.091 0.183 0.122
v 0.079 0.183 0.120
v 0.091 0.195 0.122
v 0.079 0.195 0.120
v 0.067 0.183 0.117
v 0.067 0.195 0.117
v 0.173 0.183 0.184
v 0.165 0.183 0.173
v 0.173 0.195 0.184
v 0.165 0.195 0.173
v 0.158 0.183 0.162
v 0.158 0.195 0.162
v 0.201 0.183 0.183
v 0.191 0.183 0.191
v 0.201 0.195 0.183
v 0.191 0.195 0.191
v 0.181 0.183 0.190
v 0.181 0.195 0.190
v 0.173 0.183 0.184
v 0.173 0.195 0.184
v -0.196 0.183 -0.040
v -0.196 0.195 -0.040
v -0.188 0.195 -0.037
v -0.188 0.183 -0.037
v -0.178 0.195 -0.038
v -0.178 0.183 -0.038
v -0.140 0.195 -0.056
v -0.140 0.183 -0.056
v -0.102 0.195 -0.073
v -0.102 0.183 -0.073
v -0.064 0.195 -0.090
v -0.064 0.183 -0.090
v 0.034 0.183 -0.166
v 0.034 0.195 -0.166
v 0.041 0.195 -0.180
v 0.041 0.183 -0.180
v 0.041 0.195 -0.199
v 0.041 0.183 -0.199
v 0.033 0.195 -0.214
v 0.033 0.183 -0.214
v 0.018 0.195 -0.224
v 0.018 0.183 -0.224
v -0.196 0.183 -0.040
v -0.202 0.183 -0.048
v -0.196 0.195 -0.040
v -0.202 0.195 -0.048
v -0.203 0.183 -0.091
v -0.203 0.195 -0.091
v -0.203 0.183 -0.135
v -0.203 0.195 -0.135
v -0.203 0.183 -0.178
v -0.203 0.195 -0.178
v -0.201 0.183 -0.183
v -0.201 0.195 -0.183
v -0.064 0.183 -0.090
v -0.064 0.195 -0.090
v -0.060 0.195 -0.100
v -0.060 0.183 -0.100
v -0.060 0.195 -0.109
v -0.060 0.183 -0.109
v -0.067 0.195 -0.117
v -0.067 0.183 -0.117
v -0.091 0.183 -0.122
v -0.079 0.183 -0.120
v -0.091 0.195 -0.122
v -0.079 0.195 -0.120
v -0.067 0.183 -0.117
v -0.067 0.195 -0.117
v -0.091 0.183 -0.122
v -0.091 0.195 -0.122
v -0.042 0.195 -0.147
v -0.042 0.183 -0.147
v 0.009 0.195 -0.153
v 0.009 0.183 -0.153
v 0.023 0.195 -0.157
v 0.023 0.183 -0.157
v 0.034 0.195 -0.166
v 0.034 0.183 -0.166
v -0.158 0.183 -0.162
v -0.158 0.195 -0.162
v -0.165 0.195 -0.173
v -0.165 0.183 -0.173
v -0.173 0.195 -0.184
v -0.173 0.183 -0.184
v -0.181 0.195 -0.190
v -0.181 0.183 -0.190
v -0.158 0.183 -0.162
v -0.117 0.183 -0.194
v -0.158 0.195 -0.162
v -0.117 0.195 -0.194
v -0.070 0.183 -0.215
v -0.070 0.195 -0.215
v -0.019 0.183 -0.226
v -0.019 0.195 -0.226
v 0.018 0.183 -0.224
v 0.018 0.195 -0.224
v -0.201 0.183 -0.183
v -0.191 0.183 -0.191
v -0.201 0.195 -0.183
v -0.191 0.195 -0.191
v -0.181 0.183 -0.190
v -0.181 0.195 -0.190
v 0.178 0.195 0.038
v 0.188 0.195 0.037
v 0.196 0.195 0.040
v 0.140 0.195 0.056
v 0.202 0.195 0.048
v 0.203 0.195 0.091
v 0.102 0.195 0.073
v 0.064 0.195 0.090
v 0.060 0.195 0.100
v 0.203 0.195 0.135
v 0.060 0.195 0.109
v 0.067 0.195 0.117
v 0.079 0.195 0.120
v 0.091 0.195 0.122
v 0.042 0.195 0.147
v 0.158 0.195 0.162
v -0.009 0.195 0.153
v -0.023 0.195 0.157
v -0.034 0.195 0.166
v 0.203 0.195 0.178
v 0.165 0.195 0.173
v 0.117 0.195 0.194
v -0.041 0.195 0.180
v -0.041 0.195 0.199
v 0.173 0.195 0.184
v 0.201 0.195 0.183
v 0.191 0.195 0.191
v 0.181 0.195 0.190
v 0.070 0.195 0.215
v -0.033 0.195 0.214
v -0.018 0.195 0.224
v 0.019 0.195 0.226
v -0.070 0.195 -0.215
v -0.019 0.195 -0.226
v 0.018 0.195 -0.224
v 0.033 0.195 -0.214
v -0.117 0.195 -0.194
v 0.041 0.195 -0.199
v 0.041 0.195 -0.180
v -0.158 0.195 -0.162
v 0.034 0.195 -0.166
v 0.023 0.195 -0.157
v -0.203 0.195 -0.135
v 0.009 0.195 -0.153
v -0.042 0.195 -0.147
v -0.091 0.195 -0.122
v -0.165 0.195 -0.173
v -0.203 0.195 -0.178
v -0.203 0.195 -0.091
v -0.201 0.195 -0.183
v -0.173 0.195 -0.184
v -0.181 0.195 -0.190
v -0.191 0.195 -0.191
v -0.079 0.195 -0.120
v -0.067 0.195 -0.117
v -0.060 0.195 -0.109
v -0.060 0.195 -0.100
v -0.064 0.195 -0.090
v -0.202 0.195 -0.048
v -0.102 0.195 -0.073
v -0.140 0.195 -0.056
v -0.178 0.195 -0.038
v -0.196 0.195 -0.040
v -0.188 0.195 -0.037

# Normal Array
vn 0.368 0.000 -0.930
vn 0.368 0.000 -0.930
vn 0.796 0.000 -0.606
vn 0.796 0.000 -0.606
vn 1.000 0.000 -0.022
vn 1.000 0.000 -0.022
vn 1.000 0.000 -0.007
vn 1.000 0.000 -0.007
vn 1.000 -0.000 0.009
vn 1.000 -0.000 0.009
vn 0.959 -0.000 0.285
vn 0.959 -0.000 0.285
vn -0.892 0.000 -0.451
vn -0.892 0.000 -0.451
vn -0.647 0.000 -0.762
vn -0.647 0.000 -0.762
vn -0.298 0.000 -0.954
vn -0.298 0.000 -0.954
vn -0.115 0.000 -0.993
vn -0.115 0.000 -0.993
vn -0.448 0.000 -0.894
vn -0.448 0.000 -0.894
vn -0.156 0.000 -0.988
vn -0.156 0.000 -0.988
vn -0.412 0.000 -0.911
vn -0.412 0.000 -0.911
vn -0.416 0.000 -0.909
vn -0.416 0.000 -0.909
vn -0.420 0.000 -0.908
vn -0.420 0.000 -0.908
vn -0.890 0.000 -0.457
vn -0.890 0.000 -0.457
vn -1.000 0.000 0.017
vn -1.000 0.000 0.017
vn -0.878 0.000 0.478
vn -0.878 0.000 0.478
vn -0.558 0.000 0.830
vn -0.558 0.000 0.830
vn -0.046 0.000 0.999
vn -0.046 0.000 0.999
vn 0.208 -0.000 0.978
vn 0.208 -0.000 0.978
vn 0.417 -0.000 0.909
vn 0.417 -0.000 0.909
vn 0.606 -0.000 0.796
vn 0.606 -0.000 0.796
vn -0.995 -0.000 0.100
vn -0.995 -0.000 0.100
vn -0.779 -0.000 0.627
vn -0.779 -0.000 0.627
vn -0.201 -0.000 0.979
vn -0.201 -0.000 0.979
vn -0.232 -0.000 0.973
vn -0.232 -0.000 0.973
vn -0.832 0.000 0.555
vn -0.832 0.000 0.555
vn -0.816 0.000 0.578
vn -0.816 0.000 0.578
vn 0.588 -0.000 0.809
vn 0.588 -0.000 0.809
vn -0.064 0.000 0.998
vn -0.064 0.000 0.998
vn -0.608 0.000 0.794
vn -0.608 0.000 0.794
vn -0.368 0.000 0.930
vn -0.368 0.000 0.930
vn 0.156 0.000 0.988
vn 0.156 0.000 0.988
vn 0.412 0.000 0.911
vn 0.412 0.000 0.911
vn 0.416 0.000 0.909
vn 0.416 -0.000 0.909
vn 0.420 -0.000 0.908
vn 0.420 -0.000 0.908
vn 0.892 -0.000 0.451
vn 0.892 -0.000 0.451
vn 1.000 0.000 -0.017
vn 1.000 0.000 -0.017
vn 0.878 0.000 -0.478
vn 0.878 -0.000 -0.478
vn 0.558 -0.000 -0.830
vn 0.558 0.000 -0.830
vn -0.796 0.000 0.606
vn -0.796 0.000 0.606
vn -1.000 0.000 0.022
vn -1.000 -0.000 0.022
vn -1.000 -0.000 0.007
vn -1.000 0.000 0.007
vn -1.000 0.000 -0.009
vn -1.000 0.000 -0.009
vn -0.959 0.000 -0.285
vn -0.959 -0.000 -0.285
vn 0.890 -0.000 0.457
vn 0.890 -0.000 0.457
vn 0.995 0.000 -0.100
vn 0.995 0.000 -0.100
vn 0.779 0.000 -0.627
vn 0.779 0.000 -0.627
vn 0.201 0.000 -0.979
vn 0.201 0.000 -0.979
vn 0.232 0.000 -0.973
vn 0.232 0.000 -0.973
vn 0.448 -0.000 0.894
vn 0.448 -0.000 0.894
vn 0.115 -0.000 0.993
vn 0.115 -0.000 0.993
vn 0.298 -0.000 0.954
vn 0.298 -0.000 0.954
vn 0.647 -0.000 0.762
vn 0.647 -0.000 0.762
vn 0.816 0.000 -0.578
vn 0.816 -0.000 -0.578
vn 0.832 -0.000 -0.555
vn 0.832 0.000 -0.555
vn 0.608 0.000 -0.794
vn 0.608 0.000 -0.794
vn -0.606 0.000 -0.796
vn -0.606 0.000 -0.796
vn -0.417 0.000 -0.909
vn -0.417 0.000 -0.909
vn -0.208 0.000 -0.978
vn -0.208 0.000 -0.978
vn 0.046 0.000 -0.999
vn 0.046 0.000 -0.999
vn -0.588 -0.000 -0.809
vn -0.588 0.000 -0.809
vn 0.064 0.000 -0.998
vn 0.064 0.000 -0.998
vn -0.000 1.000 0.000
vn -0.000 1.000 0.000
vn 0.000 1.000 0.000
vn 0.000 1.000 -0.000
vn 0.000 1.000 0.000
vn 0.000 1.000 0.000
vn 0.000 1.000 0.000
vn 0.000 1.000 -0.000
vn 0.000 1.000 0.000
vn 0.000 1.000 0.000
vn 0.000 1.000 0.000
vn 0.000 1.000 0.000
vn -0.000 1.000 0.000
vn -0.000 1.000 0.000
vn 0.000 1.000 0.000
vn 0.000 1.000 0.000
vn 0.000 1.000 0.000
vn -0.000 1.000 0.000
vn 0.000 1.000 0.000
vn 0.000 1.000 0.000
vn 0.000 1.000 0.000
vn 0.000 1.000 0.000
vn 0.000 1.000 0.000
vn 0.000 1.000 0.000
vn 0.000 1.000 0.000
vn 0.000 1.000 0.000
vn 0.000 1.000 0.000
vn 0.000 1.000 0.000
vn 0.000 1.000 0.000
vn 0.000 1.000 0.000
vn 0.000 1.000 0.000
vn 0.000 1.000 -0.000
vn 0.000 1.000 0.000
vn 0.000 1.000 -0.000
vn 0.000 1.000 -0.000
vn 0.000 1.000 0.000
vn 0.000 1.000 0.000
vn 0.000 1.000 0.000
vn 0.000 1.000 -0.000
vn 0.000 1.000 0.000
vn 0.000 1.000 0.000
vn 0.000 1.000 0.000
vn 0.000 1.000 -0.000
vn 0.000 1.000 0.000
vn 0.000 1.000 0.000
vn 0.000 1.000 0.000
vn 0.000 1.000 -0.000
vn 0.000 1.000 -0.000
vn 0.000 1.000 0.000
vn 0.000 1.000 -0.000
vn 0.000 1.000 -0.000
vn 0.000 1.000 -0.000
vn 0.000 1.000 -0.000
vn 0.000 1.000 0.000
vn 0.000 1.000 0.000
vn 0.000 1.000 0.000
vn 0.000 1.000 0.000
vn 0.000 1.000 0.000
vn 0.000 1.000 0.000
vn 0.000 1.000 0.000

# Facets
f 1//1 3//1 2//1
f 2//2 3//2 4//2
f 2//3 4//3 5//3
f 5//4 4//4 6//4
f 5//5 6//5 7//5
f 7//6 6//6 8//6
f 7//7 8//7 9//7
f 9//8 8//8 10//8
f 9//9 10//9 11//9
f 11//10 10//10 12//10
f 11//11 12//11 13//11
f 13//12 12//12 14//12
f 15//13 17//13 16//13
f 16//14 17//14 18//14
f 16//15 18//15 19//15
f 19//16 18//16 20//16
f 19//17 20//17 21//17
f 21//18 20//18 22//18
f 21//19 22//19 23//19
f 23//20 22//20 24//20
f 23//21 24//21 25//21
f 25//22 24//22 26//22
f 27//23 29//23 28//23
f 30//24 29//24 27//24
f 30//25 31//25 29//25
f 32//26 31//26 30//26
f 32//27 33//27 31//27
f 34//28 33//28 32//28
f 34//29 35//29 33//29
f 36//30 35//30 34//30
f 36//31 37//31 35//31
f 38//32 37//32 36//32
f 39//33 41//33 40//33
f 42//34 41//34 39//34
f 42//35 43//35 41//35
f 44//36 43//36 42//36
f 45//37 47//37 46//37
f 48//38 47//38 45//38
f 48//39 49//39 47//39
f 50//40 49//40 48//40
f 50//41 51//41 49//41
f 52//42 51//42 50//42
f 52//43 53//43 51//43
f 54//44 53//44 52//44
f 54//45 55//45 53//45
f 56//46 55//46 54//46
f 57//47 59//47 58//47
f 60//48 59//48 57//48
f 60//49 61//49 59//49
f 62//50 61//50 60//50
f 63//51 65//51 64//51
f 64//52 65//52 66//52
f 64//53 66//53 67//53
f 67//54 66//54 68//54
f 69//55 71//55 70//55
f 70//56 71//56 72//56
f 70//57 72//57 73//57
f 73//58 72//58 74//58
f 75//59 77//59 76//59
f 76//60 77//60 78//60
f 76//61 78//61 79//61
f 79//62 78//62 80//62
f 79//63 80//63 81//63
f 81//64 80//64 82//64
f 83//65 85//65 84//65
f 86//66 85//66 83//66
f 86//67 87//67 85//67
f 88//68 87//68 86//68
f 88//69 89//69 87//69
f 90//70 89//70 88//70
f 90//71 91//71 89//71
f 92//72 91//72 90//72
f 92//73 93//73 91//73
f 94//74 93//74 92//74
f 95//75 97//75 96//75
f 98//76 97//76 95//76
f 98//77 99//77 97//77
f 100//78 99//78 98//78
f 100//79 101//79 99//79
f 102//80 101//80 100//80
f 102//81 103//81 101//81
f 104//82 103//82 102//82
f 105//83 107//83 106//83
f 106//84 107//84 108//84
f 106//85 108//85 109//85
f 109//86 108//86 110//86
f 109//87 110//87 111//87
f 111//88 110//88 112//88
f 111//89 112//89 113//89
f 113//90 112//90 114//90
f 113//91 114//91 115//91
f 115//92 114//92 116//92
f 117//93 119//93 118//93
f 120//94 119//94 117//94
f 120//95 121//95 119//95
f 122//96 121//96 120//96
f 122//97 123//97 121//97
f 124//98 123//98 122//98
f 125//99 127//99 126//99
f 126//100 127//100 128//100
f 126//101 128//101 129//101
f 129//102 128//102 130//102
f 131//103 133//103 132//103
f 134//104 133//104 131//104
f 134//105 135//105 133//105
f 136//106 135//106 134//106
f 136//107 137//107 135//107
f 138//108 137//108 136//108
f 138//109 139//109 137//109
f 140//110 139//110 138//110
f 141//111 143//111 142//111
f 144//112 143//112 141//112
f 144//113 145//113 143//113
f 146//114 145//114 144//114
f 146//115 147//115 145//115
f 148//116 147//116 146//116
f 149//117 151//117 150//117
f 150//118 151//118 152//118
f 150//119 152//119 153//119
f 153//120 152//120 154//120
f 153//121 154//121 155//121
f 155//122 154//122 156//122
f 155//123 156//123 157//123
f 157//124 156//124 158//124
f 159//125 161//125 160//125
f 160//126 161//126 162//126
f 160//127 162//127 163//127
f 163//128 162//128 164//128
f 165//129 167//129 166//129
f 167//130 165//130 168//130
f 167//131 168//131 169//131
f 169//132 168//132 170//132
f 170//133 168//133 171//133
f 170//134 171//134 172//134
f 170//135 172//135 173//135
f 170//136 173//136 174//136
f 174//137 173//137 175//137
f 174//138 175//138 176//138
f 174//139 176//139 177//139
f 174//140 177//140 178//140
f 174//141 178//141 179//141
f 174//142 179//142 180//142
f 180//143 179//143 181//143
f 180//144 181//144 182//144
f 183//145 180//145 182//145
f 174//146 180//146 184//146
f 184//147 180//147 185//147
f 180//148 183//148 186//148
f 186//149 183//149 187//149
f 186//150 187//150 188//150
f 184//151 185//151 189//151
f 184//152 189//152 190//152
f 190//153 189//153 191//153
f 191//154 189//154 192//154
f 186//155 188//155 193//155
f 193//156 188//156 194//156
f 193//157 194//157 195//157
f 193//158 195//158 196//158
f 197//159 199//159 198//159
f 199//160 197//160 200//160
f 200//161 197//161 201//161
f 200//162 201//162 202//162
f 202//163 201//163 203//163
f 203//164 201//164 204//164
f 203//165 204//165 205//165
f 205//166 204//166 206//166
f 204//167 207//167 206//167
f 206//168 207//168 208//168
f 208//169 207//169 209//169
f 209//170 207//170 210//170
f 211//171 207//171 204//171
f 211//172 212//172 207//172
f 210//173 207//173 213//173
f 211//174 214//174 212//174
f 215//175 214//175 211//175
f 216//176 214//176 215//176
f 214//177 216//177 217//177
f 210//178 213//178 218//178
f 218//179 213//179 219//179
f 219//180 213//180 220//180
f 220//181 213//181 221//181
f 221//182 213//182 222//182
f 222//183 213//183 223//183
f 222//184 223//184 224//184
f 224//185 223//185 225//185
f 225//186 223//186 226//186
f 226//187 223//187 227//187
f 226//188 227//188 228//188

# Thank you for using Spin 3D

