# Created using Spin 3D

# Vertex Array 
v -0.000 0.020 -0.175 0 0 0
v -0.034 0.020 -0.172 0 0 0
v -0.000 0.000 -0.175 0 0 0
v -0.034 0.000 -0.172 0 0 0
v -0.067 0.020 -0.162 0 0 0
v -0.067 0.000 -0.162 0 0 0
v -0.097 0.020 -0.146 0 0 0
v -0.097 0.000 -0.146 0 0 0
v -0.124 0.020 -0.124 0 0 0
v -0.124 0.000 -0.124 0 0 0
v -0.146 0.020 -0.097 0 0 0
v -0.146 0.000 -0.097 0 0 0
v -0.162 0.020 -0.067 0 0 0
v -0.162 0.000 -0.067 0 0 0
v -0.172 0.020 -0.034 0 0 0
v -0.172 0.000 -0.034 0 0 0
v -0.175 0.020 -0.000 0 0 0
v -0.175 -0.000 0.000 0 0 0
v -0.172 0.020 0.034 0 0 0
v -0.172 -0.000 0.034 0 0 0
v -0.162 0.020 0.067 0 0 0
v -0.162 -0.000 0.067 0 0 0
v -0.146 0.020 0.097 0 0 0
v -0.146 -0.000 0.097 0 0 0
v -0.124 0.020 0.124 0 0 0
v -0.124 -0.000 0.124 0 0 0
v -0.097 0.020 0.146 0 0 0
v -0.097 -0.000 0.146 0 0 0
v -0.067 0.020 0.162 0 0 0
v -0.067 -0.000 0.162 0 0 0
v -0.034 0.020 0.172 0 0 0
v -0.034 -0.000 0.172 0 0 0
v 0.000 0.020 0.175 0 0 0
v 0.000 -0.000 0.175 0 0 0
v -0.034 0.020 -0.172 0 0 0
v -0.000 0.020 -0.175 0 0 0
v 0.000 0.020 0.175 0 0 0
v -0.067 0.020 -0.162 0 0 0
v -0.097 0.020 -0.146 0 0 0
v -0.124 0.020 -0.124 0 0 0
v -0.146 0.020 -0.097 0 0 0
v -0.162 0.020 -0.067 0 0 0
v -0.172 0.020 -0.034 0 0 0
v -0.175 0.020 -0.000 0 0 0
v -0.172 0.020 0.034 0 0 0
v -0.162 0.020 0.067 0 0 0
v -0.146 0.020 0.097 0 0 0
v -0.124 0.020 0.124 0 0 0
v -0.097 0.020 0.146 0 0 0
v -0.067 0.020 0.162 0 0 0
v -0.034 0.020 0.172 0 0 0
v 0.000 -0.000 0.175 0 0 0
v 0.000 0.020 0.175 0 0 0
v -0.000 0.020 -0.175 0 0 0
v -0.000 0.000 -0.175 0 0 0

# Normal Array
vn -0.098 -0.000 -0.995
vn -0.098 -0.000 -0.995
vn -0.290 -0.000 -0.957
vn -0.290 -0.000 -0.957
vn -0.471 -0.000 -0.882
vn -0.471 -0.000 -0.882
vn -0.634 -0.000 -0.773
vn -0.634 -0.000 -0.773
vn -0.773 -0.000 -0.634
vn -0.773 -0.000 -0.634
vn -0.882 -0.000 -0.471
vn -0.882 -0.000 -0.471
vn -0.957 -0.000 -0.290
vn -0.957 -0.000 -0.290
vn -0.995 -0.000 -0.098
vn -0.995 -0.000 -0.098
vn -0.995 0.000 0.098
vn -0.995 0.000 0.098
vn -0.957 0.000 0.290
vn -0.957 0.000 0.290
vn -0.882 0.000 0.471
vn -0.882 0.000 0.471
vn -0.773 0.000 0.634
vn -0.773 0.000 0.634
vn -0.634 0.000 0.773
vn -0.634 0.000 0.773
vn -0.471 0.000 0.882
vn -0.471 0.000 0.882
vn -0.290 0.000 0.957
vn -0.290 0.000 0.957
vn -0.098 0.000 0.995
vn -0.098 0.000 0.995
vn 0.000 1.000 0.000
vn 0.000 1.000 0.000
vn -0.000 1.000 0.000
vn 0.000 1.000 0.000
vn -0.000 1.000 0.000
vn 0.000 1.000 0.000
vn -0.000 1.000 0.000
vn -0.000 1.000 0.000
vn -0.000 1.000 0.000
vn -0.000 1.000 0.000
vn 0.000 1.000 -0.000
vn -0.000 1.000 0.000
vn 0.000 1.000 -0.000
vn -0.000 1.000 0.000
vn 0.000 1.000 0.000
vn 1.000 -0.000 -0.000
vn 1.000 -0.000 -0.000

# Facets
f 1//1 3//1 2//1
f 2//2 3//2 4//2
f 2//3 4//3 5//3
f 5//4 4//4 6//4
f 5//5 6//5 7//5
f 7//6 6//6 8//6
f 7//7 8//7 9//7
f 9//8 8//8 10//8
f 9//9 10//9 11//9
f 11//10 10//10 12//10
f 11//11 12//11 13//11
f 13//12 12//12 14//12
f 13//13 14//13 15//13
f 15//14 14//14 16//14
f 15//15 16//15 17//15
f 17//16 16//16 18//16
f 17//17 18//17 19//17
f 19//18 18//18 20//18
f 19//19 20//19 21//19
f 21//20 20//20 22//20
f 21//21 22//21 23//21
f 23//22 22//22 24//22
f 23//23 24//23 25//23
f 25//24 24//24 26//24
f 25//25 26//25 27//25
f 27//26 26//26 28//26
f 27//27 28//27 29//27
f 29//28 28//28 30//28
f 29//29 30//29 31//29
f 31//30 30//30 32//30
f 31//31 32//31 33//31
f 33//32 32//32 34//32
f 35//33 37//33 36//33
f 37//34 35//34 38//34
f 37//35 38//35 39//35
f 37//36 39//36 40//36
f 37//37 40//37 41//37
f 37//38 41//38 42//38
f 37//39 42//39 43//39
f 37//40 43//40 44//40
f 37//41 44//41 45//41
f 37//42 45//42 46//42
f 37//43 46//43 47//43
f 37//44 47//44 48//44
f 37//45 48//45 49//45
f 37//46 49//46 50//46
f 37//47 50//47 51//47
f 52//48 54//48 53//48
f 55//49 54//49 52//49

# Thank you for using Spin 3D

