# Created using Spin 3D

# Vertex Array 
v 0.216 0.130 0.500 0 0 0
v 0.284 0.130 0.500 0 0 0
v 0.284 0.130 -0.500 0 0 0
v 0.216 0.130 -0.500 0 0 0
v 0.284 0.260 0.500 0 0 0
v 0.216 0.260 0.500 0 0 0
v 0.216 0.260 -0.500 0 0 0
v 0.284 0.260 -0.500 0 0 0
v 0.216 0.260 0.500 0 0 0
v 0.216 0.130 0.500 0 0 0
v 0.216 0.130 -0.500 0 0 0
v 0.216 0.260 -0.500 0 0 0
v 0.284 0.130 -0.500 0 0 0
v 0.284 0.130 0.500 0 0 0
v 0.284 0.260 0.500 0 0 0
v 0.284 0.260 -0.500 0 0 0
v 0.250 0.130 -0.500 0 0 0
v -0.250 0.130 -0.500 0 0 0
v -0.250 0.130 -0.250 0 0 0
v 0.250 0.130 -0.250 0 0 0
v 0.250 0.130 0.000 0 0 0
v -0.250 0.130 0.000 0 0 0
v -0.250 0.130 0.250 0 0 0
v 0.250 0.130 0.250 0 0 0
v -0.250 0.130 0.500 0 0 0
v 0.250 0.130 0.500 0 0 0
v -0.250 0.200 -0.500 0 0 0
v 0.250 0.200 -0.500 0 0 0
v 0.250 0.200 -0.250 0 0 0
v -0.250 0.200 -0.250 0 0 0
v -0.500 0.130 -0.216 0 0 0
v -0.500 0.260 -0.216 0 0 0
v -0.316 0.260 -0.216 0 0 0
v -0.316 0.130 -0.216 0 0 0
v -0.278 0.260 -0.224 0 0 0
v -0.278 0.130 -0.224 0 0 0
v -0.246 0.260 -0.245 0 0 0
v -0.246 0.130 -0.245 0 0 0
v -0.224 0.260 -0.278 0 0 0
v -0.224 0.130 -0.278 0 0 0
v -0.216 0.260 -0.316 0 0 0
v -0.216 0.130 -0.316 0 0 0
v -0.216 0.130 -0.500 0 0 0
v -0.216 0.260 -0.500 0 0 0
v -0.278 0.130 0.224 0 0 0
v -0.316 0.130 0.216 0 0 0
v -0.500 0.130 0.216 0 0 0
v -0.500 0.130 0.284 0 0 0
v -0.245 0.130 0.245 0 0 0
v -0.224 0.130 0.278 0 0 0
v -0.318 0.130 0.284 0 0 0
v -0.305 0.130 0.286 0 0 0
v -0.216 0.130 0.316 0 0 0
v -0.294 0.130 0.294 0 0 0
v -0.286 0.130 0.305 0 0 0
v -0.284 0.130 0.318 0 0 0
v -0.216 0.130 0.500 0 0 0
v -0.284 0.130 0.500 0 0 0
v -0.500 0.260 -0.284 0 0 0
v -0.500 0.130 -0.284 0 0 0
v -0.318 0.130 -0.284 0 0 0
v -0.318 0.260 -0.284 0 0 0
v -0.305 0.130 -0.287 0 0 0
v -0.305 0.260 -0.286 0 0 0
v -0.294 0.130 -0.294 0 0 0
v -0.294 0.260 -0.294 0 0 0
v -0.284 0.130 -0.318 0 0 0
v -0.284 0.130 -0.500 0 0 0
v -0.284 0.260 -0.500 0 0 0
v -0.284 0.260 -0.318 0 0 0
v -0.287 0.260 -0.305 0 0 0
v -0.286 0.130 -0.305 0 0 0
v -0.294 0.260 -0.294 0 0 0
v -0.294 0.130 -0.294 0 0 0
v -0.284 0.260 -0.500 0 0 0
v -0.216 0.260 -0.500 0 0 0
v -0.216 0.260 -0.316 0 0 0
v -0.284 0.260 -0.318 0 0 0
v -0.287 0.260 -0.305 0 0 0
v -0.224 0.260 -0.278 0 0 0
v -0.294 0.260 -0.294 0 0 0
v -0.305 0.260 -0.286 0 0 0
v -0.318 0.260 -0.284 0 0 0
v -0.500 0.260 -0.216 0 0 0
v -0.500 0.260 -0.284 0 0 0
v -0.246 0.260 -0.245 0 0 0
v -0.278 0.260 -0.224 0 0 0
v -0.316 0.260 -0.216 0 0 0
v -0.250 0.130 0.000 0 0 0
v -0.250 0.130 -0.250 0 0 0
v -0.500 0.130 -0.250 0 0 0
v -0.500 0.130 0.250 0 0 0
v -0.250 0.130 0.250 0 0 0
v -0.500 0.200 -0.250 0 0 0
v -0.250 0.200 -0.250 0 0 0
v -0.250 0.200 0.000 0 0 0
v -0.500 0.200 0.250 0 0 0
v -0.250 0.200 0.250 0 0 0
v -0.216 0.260 0.500 0 0 0
v -0.284 0.260 0.500 0 0 0
v -0.284 0.260 0.318 0 0 0
v -0.216 0.260 0.316 0 0 0
v -0.286 0.260 0.305 0 0 0
v -0.294 0.260 0.294 0 0 0
v -0.305 0.260 0.286 0 0 0
v -0.224 0.260 0.278 0 0 0
v -0.318 0.260 0.284 0 0 0
v -0.500 0.260 0.284 0 0 0
v -0.245 0.260 0.245 0 0 0
v -0.278 0.260 0.224 0 0 0
v -0.316 0.260 0.216 0 0 0
v -0.500 0.260 0.216 0 0 0
v -0.284 0.130 0.500 0 0 0
v -0.284 0.130 0.318 0 0 0
v -0.284 0.260 0.500 0 0 0
v -0.284 0.260 0.318 0 0 0
v -0.286 0.130 0.305 0 0 0
v -0.286 0.260 0.305 0 0 0
v -0.294 0.130 0.294 0 0 0
v -0.294 0.260 0.294 0 0 0
v -0.500 0.130 0.284 0 0 0
v -0.500 0.260 0.284 0 0 0
v -0.318 0.130 0.284 0 0 0
v -0.318 0.260 0.284 0 0 0
v -0.305 0.260 0.286 0 0 0
v -0.305 0.130 0.286 0 0 0
v -0.294 0.260 0.294 0 0 0
v -0.294 0.130 0.294 0 0 0
v -0.500 0.260 0.216 0 0 0
v -0.500 0.130 0.216 0 0 0
v -0.316 0.260 0.216 0 0 0
v -0.316 0.130 0.216 0 0 0
v -0.278 0.130 0.224 0 0 0
v -0.278 0.260 0.224 0 0 0
v -0.245 0.130 0.245 0 0 0
v -0.245 0.260 0.245 0 0 0
v -0.216 0.260 0.500 0 0 0
v -0.216 0.260 0.316 0 0 0
v -0.216 0.130 0.500 0 0 0
v -0.216 0.130 0.316 0 0 0
v -0.224 0.260 0.278 0 0 0
v -0.224 0.130 0.278 0 0 0
v -0.245 0.260 0.245 0 0 0
v -0.245 0.130 0.245 0 0 0
v -0.250 0.200 0.500 0 0 0
v -0.250 0.200 0.250 0 0 0
v 0.250 0.200 0.500 0 0 0
v 0.250 0.200 0.250 0 0 0
v -0.250 0.200 0.000 0 0 0
v 0.250 0.200 0.000 0 0 0
v -0.250 0.200 -0.250 0 0 0
v 0.250 0.200 -0.250 0 0 0
v 0.250 0.200 0.000 0 0 0
v -0.250 0.200 0.000 0 0 0
v -0.318 0.130 -0.284 0 0 0
v -0.500 0.130 -0.284 0 0 0
v -0.500 0.130 -0.216 0 0 0
v -0.224 0.130 -0.278 0 0 0
v -0.305 0.130 -0.287 0 0 0
v -0.294 0.130 -0.294 0 0 0
v -0.286 0.130 -0.305 0 0 0
v -0.246 0.130 -0.245 0 0 0
v -0.278 0.130 -0.224 0 0 0
v -0.316 0.130 -0.216 0 0 0
v -0.216 0.130 -0.316 0 0 0
v -0.284 0.130 -0.318 0 0 0
v -0.284 0.130 -0.500 0 0 0
v -0.216 0.130 -0.500 0 0 0

# Normal Array
vn -0.000 -1.000 -0.000
vn -0.000 -1.000 -0.000
vn 0.000 1.000 0.000
vn -0.000 1.000 0.000
vn -1.000 -0.001 -0.000
vn -1.000 -0.000 -0.000
vn 1.000 0.000 0.000
vn 1.000 0.000 0.000
vn 0.000 -1.000 0.000
vn 0.000 -1.000 -0.000
vn 0.000 -1.000 -0.000
vn 0.000 -1.000 -0.000
vn 0.000 -1.000 -0.000
vn 0.000 -1.000 -0.000
vn 0.000 -1.000 -0.000
vn 0.000 -1.000 0.000
vn -0.000 1.000 0.000
vn -0.000 1.000 -0.000
vn -0.000 -0.000 1.000
vn -0.000 -0.000 1.000
vn 0.195 -0.000 0.981
vn 0.195 -0.000 0.981
vn 0.555 -0.000 0.832
vn 0.555 -0.000 0.832
vn 0.831 -0.000 0.556
vn 0.831 -0.000 0.556
vn 0.981 -0.000 0.196
vn 0.981 -0.000 0.195
vn 1.000 -0.000 0.000
vn 1.000 -0.001 0.001
vn 0.000 -1.000 0.000
vn 0.000 -1.000 0.000
vn 0.000 -1.000 0.000
vn 0.000 -1.000 0.000
vn -0.000 -1.000 -0.000
vn 0.000 -1.000 -0.000
vn 0.000 -1.000 0.000
vn 0.000 -1.000 -0.000
vn 0.000 -1.000 0.000
vn 0.000 -1.000 -0.000
vn 0.000 -1.000 0.000
vn 0.000 -1.000 0.000
vn 0.000 0.000 -1.000
vn 0.000 0.001 -1.000
vn -0.195 0.000 -0.981
vn -0.195 0.000 -0.981
vn -0.556 -0.000 -0.831
vn -0.555 -0.000 -0.832
vn -1.000 0.000 0.000
vn -1.000 -0.001 -0.001
vn -0.981 -0.001 -0.196
vn -0.981 -0.001 -0.195
vn -0.831 -0.001 -0.556
vn -0.831 -0.001 -0.556
vn -0.000 1.000 -0.000
vn -0.000 1.000 -0.000
vn -0.000 1.000 -0.000
vn -0.000 1.000 -0.000
vn 0.000 1.000 -0.000
vn 0.000 1.000 -0.000
vn 0.000 1.000 0.000
vn 0.000 1.000 -0.000
vn 0.000 1.000 0.000
vn 0.000 1.000 0.000
vn 0.000 1.000 -0.000
vn 0.000 1.000 -0.000
vn -0.000 -1.000 -0.000
vn -0.000 -1.000 -0.000
vn -0.000 -1.000 -0.000
vn -0.000 1.000 0.000
vn -0.000 1.000 0.000
vn -0.000 1.000 0.000
vn 0.000 1.000 -0.000
vn -0.000 1.000 -0.000
vn -0.000 1.000 0.000
vn -0.000 1.000 -0.000
vn 0.000 1.000 -0.000
vn -0.000 1.000 -0.000
vn -0.000 1.000 0.000
vn -0.000 1.000 0.000
vn -0.000 1.000 -0.000
vn -0.000 1.000 0.000
vn -0.000 1.000 -0.000
vn -0.000 1.000 0.000
vn -1.000 0.000 -0.000
vn -1.000 0.000 -0.000
vn -0.981 -0.000 0.195
vn -0.981 -0.000 0.195
vn -0.832 -0.000 0.555
vn -0.832 -0.000 0.555
vn 0.000 -0.000 1.000
vn 0.000 -0.000 1.000
vn -0.195 -0.000 0.981
vn -0.195 -0.000 0.981
vn -0.556 -0.000 0.831
vn -0.556 -0.000 0.831
vn 0.000 -0.001 -1.000
vn -0.000 -0.000 -1.000
vn 0.195 -0.000 -0.981
vn 0.195 -0.000 -0.981
vn 0.556 -0.000 -0.831
vn 0.556 -0.000 -0.831
vn 1.000 -0.000 0.000
vn 1.000 0.000 0.000
vn 0.981 0.000 -0.195
vn 0.981 -0.000 -0.195
vn 0.832 -0.000 -0.555
vn 0.832 -0.000 -0.555
vn -0.000 1.000 0.000
vn -0.000 1.000 0.000
vn -0.000 1.000 0.000
vn -0.000 1.000 0.000
vn -0.000 1.000 0.000
vn -0.000 1.000 0.000
vn -0.000 -1.000 0.000
vn -0.000 -1.000 0.000
vn 0.000 -1.000 0.000
vn -0.000 -1.000 0.000
vn 0.000 -1.000 0.000
vn -0.000 -1.000 -0.000
vn -0.000 -1.000 -0.000
vn -0.000 -1.000 -0.000
vn 0.000 -1.000 0.000
vn 0.000 -1.000 0.000
vn 0.000 -1.000 0.000
vn 0.000 -1.000 -0.000

# Facets
f 1//1 3//1 2//1
f 4//2 3//2 1//2
f 5//3 7//3 6//3
f 8//4 7//4 5//4
f 9//5 11//5 10//5
f 12//6 11//6 9//6
f 13//7 15//7 14//7
f 16//8 15//8 13//8
f 17//9 19//9 18//9
f 19//10 17//10 20//10
f 19//11 20//11 21//11
f 19//12 21//12 22//12
f 22//13 21//13 23//13
f 23//14 21//14 24//14
f 23//15 24//15 25//15
f 25//16 24//16 26//16
f 27//17 29//17 28//17
f 30//18 29//18 27//18
f 31//19 33//19 32//19
f 34//20 33//20 31//20
f 34//21 35//21 33//21
f 36//22 35//22 34//22
f 36//23 37//23 35//23
f 38//24 37//24 36//24
f 38//25 39//25 37//25
f 40//26 39//26 38//26
f 40//27 41//27 39//27
f 42//28 41//28 40//28
f 42//29 43//29 41//29
f 41//30 43//30 44//30
f 45//31 47//31 46//31
f 47//32 45//32 48//32
f 48//33 45//33 49//33
f 48//34 49//34 50//34
f 48//35 50//35 51//35
f 50//36 52//36 51//36
f 52//37 50//37 53//37
f 52//38 53//38 54//38
f 54//39 53//39 55//39
f 55//40 53//40 56//40
f 56//41 53//41 57//41
f 56//42 57//42 58//42
f 59//43 61//43 60//43
f 62//44 61//44 59//44
f 62//45 63//45 61//45
f 64//46 63//46 62//46
f 64//47 65//47 63//47
f 66//48 65//48 64//48
f 67//49 69//49 68//49
f 70//50 69//50 67//50
f 70//51 67//51 71//51
f 71//52 67//52 72//52
f 71//53 72//53 73//53
f 73//54 72//54 74//54
f 75//55 77//55 76//55
f 77//56 75//56 78//56
f 77//57 78//57 79//57
f 77//58 79//58 80//58
f 80//59 79//59 81//59
f 80//60 81//60 82//60
f 80//61 82//61 83//61
f 83//62 84//62 80//62
f 84//63 83//63 85//63
f 80//64 84//64 86//64
f 86//65 84//65 87//65
f 87//66 84//66 88//66
f 89//67 91//67 90//67
f 91//68 89//68 92//68
f 92//69 89//69 93//69
f 94//70 96//70 95//70
f 96//71 94//71 97//71
f 96//72 97//72 98//72
f 99//73 101//73 100//73
f 102//74 101//74 99//74
f 102//75 103//75 101//75
f 102//76 104//76 103//76
f 102//77 105//77 104//77
f 106//78 105//78 102//78
f 105//79 106//79 107//79
f 106//80 108//80 107//80
f 109//81 108//81 106//81
f 110//82 108//82 109//82
f 111//83 108//83 110//83
f 108//84 111//84 112//84
f 113//85 115//85 114//85
f 114//86 115//86 116//86
f 116//87 117//87 114//87
f 118//88 117//88 116//88
f 118//89 119//89 117//89
f 120//90 119//90 118//90
f 121//91 123//91 122//91
f 122//92 123//92 124//92
f 124//93 123//93 125//93
f 125//94 123//94 126//94
f 125//95 126//95 127//95
f 127//96 126//96 128//96
f 129//97 131//97 130//97
f 130//98 131//98 132//98
f 132//99 131//99 133//99
f 133//100 131//100 134//100
f 133//101 134//101 135//101
f 135//102 134//102 136//102
f 137//103 139//103 138//103
f 138//104 139//104 140//104
f 140//105 141//105 138//105
f 142//106 141//106 140//106
f 142//107 143//107 141//107
f 144//108 143//108 142//108
f 145//109 147//109 146//109
f 146//110 147//110 148//110
f 146//111 148//111 149//111
f 149//112 148//112 150//112
f 151//113 153//113 152//113
f 154//114 153//114 151//114
f 155//115 157//115 156//115
f 157//116 155//116 158//116
f 159//117 158//117 155//117
f 160//118 158//118 159//118
f 161//119 158//119 160//119
f 157//120 158//120 162//120
f 157//121 162//121 163//121
f 157//122 163//122 164//122
f 161//123 165//123 158//123
f 166//124 165//124 161//124
f 167//125 165//125 166//125
f 165//126 167//126 168//126

# Thank you for using Spin 3D

