# Created using Spin 3D

# Vertex Array 
v -0.500 0.200 -0.250 0 0 0
v 0.500 0.200 -0.250 0 0 0
v 0.500 0.200 0.250 0 0 0
v -0.500 0.200 0.250 0 0 0
v -0.500 0.260 -0.475 0 0 0
v -0.500 0.260 -0.250 0 0 0
v -0.500 0.200 -0.250 0 0 0
v -0.500 0.100 -0.475 0 0 0
v -0.500 0.100 0.475 0 0 0
v -0.500 0.200 0.250 0 0 0
v -0.500 0.260 0.475 0 0 0
v -0.500 0.260 0.250 0 0 0
v 0.034 1.100 0.250 0 0 0
v -0.500 1.100 0.250 0 0 0
v -0.500 1.200 0.250 0 0 0
v 0.034 1.200 0.250 0 0 0
v -0.500 0.100 -0.475 0 0 0
v -0.500 0.100 0.475 0 0 0
v 0.500 0.100 0.475 0 0 0
v 0.500 0.100 -0.475 0 0 0
v -0.500 1.200 0.250 0 0 0
v -0.500 1.200 -0.250 0 0 0
v 0.034 1.200 -0.250 0 0 0
v 0.211 1.200 -0.177 0 0 0
v 0.284 1.200 0.000 0 0 0
v 0.211 1.200 0.177 0 0 0
v 0.034 1.200 0.250 0 0 0
v -0.500 0.260 -0.250 0 0 0
v 0.500 0.260 -0.250 0 0 0
v 0.500 0.200 -0.250 0 0 0
v -0.500 0.200 -0.250 0 0 0
v 0.500 0.260 0.475 0 0 0
v 0.500 0.260 0.250 0 0 0
v 0.500 0.200 0.250 0 0 0
v 0.500 0.100 0.475 0 0 0
v 0.500 0.200 -0.250 0 0 0
v 0.500 0.100 -0.475 0 0 0
v 0.500 0.260 -0.475 0 0 0
v 0.500 0.260 -0.250 0 0 0
v 0.500 0.260 0.475 0 0 0
v 0.500 0.100 0.475 0 0 0
v -0.500 0.100 0.475 0 0 0
v -0.500 0.260 0.475 0 0 0
v 0.500 0.260 0.475 0 0 0
v -0.500 0.260 0.475 0 0 0
v -0.500 0.260 0.250 0 0 0
v 0.500 0.260 0.250 0 0 0
v -0.500 0.260 -0.475 0 0 0
v 0.500 0.260 -0.475 0 0 0
v 0.500 0.260 -0.250 0 0 0
v -0.500 0.260 -0.250 0 0 0
v -0.500 0.260 -0.475 0 0 0
v -0.500 0.100 -0.475 0 0 0
v 0.500 0.100 -0.475 0 0 0
v 0.500 0.260 -0.475 0 0 0
v 0.500 0.260 0.250 0 0 0
v -0.500 0.260 0.250 0 0 0
v -0.500 0.200 0.250 0 0 0
v 0.500 0.200 0.250 0 0 0
v 0.034 1.100 -0.250 0 0 0
v -0.500 1.100 -0.250 0 0 0
v -0.500 1.100 0.250 0 0 0
v 0.211 1.100 -0.177 0 0 0
v 0.284 1.100 0.000 0 0 0
v 0.211 1.100 0.177 0 0 0
v 0.034 1.100 0.250 0 0 0
v -0.500 1.200 0.250 0 0 0
v -0.500 1.100 0.250 0 0 0
v -0.500 1.100 -0.250 0 0 0
v -0.500 1.200 -0.250 0 0 0
v 0.034 1.200 -0.250 0 0 0
v -0.500 1.200 -0.250 0 0 0
v -0.500 1.100 -0.250 0 0 0
v 0.034 1.100 -0.250 0 0 0
v 0.211 1.100 0.177 0 0 0
v 0.211 1.200 0.177 0 0 0
v 0.284 1.200 0.000 0 0 0
v 0.284 1.100 0.000 0 0 0
v 0.034 1.100 0.250 0 0 0
v 0.034 1.200 0.250 0 0 0
v 0.211 1.200 0.177 0 0 0
v 0.211 1.100 0.177 0 0 0
v 0.211 1.100 -0.177 0 0 0
v 0.211 1.200 -0.177 0 0 0
v 0.034 1.200 -0.250 0 0 0
v 0.034 1.100 -0.250 0 0 0
v 0.284 1.100 0.000 0 0 0
v 0.284 1.200 0.000 0 0 0
v 0.211 1.200 -0.177 0 0 0
v 0.211 1.100 -0.177 0 0 0
v -0.000 0.197 -0.348 0 0 0
v 0.000 0.293 -0.348 0 0 0
v -0.246 0.293 -0.246 0 0 0
v -0.246 0.197 -0.246 0 0 0
v -0.246 0.197 -0.246 0 0 0
v -0.246 0.293 -0.246 0 0 0
v -0.348 0.293 0.000 0 0 0
v -0.348 0.197 0.000 0 0 0
v -0.348 0.197 0.000 0 0 0
v -0.348 0.293 0.000 0 0 0
v -0.246 0.293 0.246 0 0 0
v -0.246 0.197 0.247 0 0 0
v -0.246 0.197 0.247 0 0 0
v -0.246 0.293 0.246 0 0 0
v 0.000 0.293 0.348 0 0 0
v -0.000 0.197 0.349 0 0 0
v -0.000 0.197 0.349 0 0 0
v 0.000 0.293 0.348 0 0 0
v 0.246 0.293 0.246 0 0 0
v 0.246 0.197 0.247 0 0 0
v 0.246 0.197 0.247 0 0 0
v 0.246 0.293 0.246 0 0 0
v 0.348 0.293 0.000 0 0 0
v 0.348 0.197 0.000 0 0 0
v -0.246 0.293 -0.246 0 0 0
v 0.000 0.293 -0.348 0 0 0
v 0.246 0.293 -0.246 0 0 0
v -0.348 0.293 0.000 0 0 0
v 0.348 0.293 0.000 0 0 0
v -0.246 0.293 0.246 0 0 0
v 0.246 0.293 0.246 0 0 0
v 0.000 0.293 0.348 0 0 0
v 0.348 0.197 0.000 0 0 0
v 0.348 0.293 0.000 0 0 0
v 0.246 0.293 -0.246 0 0 0
v 0.246 0.197 -0.246 0 0 0
v 0.246 0.197 -0.246 0 0 0
v 0.246 0.293 -0.246 0 0 0
v 0.000 0.293 -0.348 0 0 0
v -0.000 0.197 -0.348 0 0 0
v -0.188 0.001 0.386 0 0 0
v -0.336 0.001 0.389 0 0 0
v -0.328 1.238 0.380 0 0 0
v -0.197 1.238 0.378 0 0 0
v -0.191 0.001 0.238 0 0 0
v -0.188 0.001 0.386 0 0 0
v -0.197 1.238 0.378 0 0 0
v -0.200 1.238 0.247 0 0 0
v -0.200 1.238 0.247 0 0 0
v -0.330 1.238 0.250 0 0 0
v -0.339 0.001 0.242 0 0 0
v -0.191 0.001 0.238 0 0 0
v -0.339 0.001 0.242 0 0 0
v -0.330 1.238 0.250 0 0 0
v -0.328 1.238 0.380 0 0 0
v -0.336 0.001 0.389 0 0 0
v -0.200 1.238 0.247 0 0 0
v -0.197 1.238 0.378 0 0 0
v -0.328 1.238 0.380 0 0 0
v -0.330 1.238 0.250 0 0 0
v -0.331 0.001 -0.241 0 0 0
v -0.334 0.001 -0.389 0 0 0
v -0.325 1.238 -0.380 0 0 0
v -0.323 1.238 -0.250 0 0 0
v -0.183 0.001 -0.244 0 0 0
v -0.331 0.001 -0.241 0 0 0
v -0.323 1.238 -0.250 0 0 0
v -0.192 1.238 -0.252 0 0 0
v -0.192 1.238 -0.252 0 0 0
v -0.195 1.238 -0.383 0 0 0
v -0.186 0.001 -0.392 0 0 0
v -0.183 0.001 -0.244 0 0 0
v -0.186 0.001 -0.392 0 0 0
v -0.195 1.238 -0.383 0 0 0
v -0.325 1.238 -0.380 0 0 0
v -0.334 0.001 -0.389 0 0 0
v -0.192 1.238 -0.252 0 0 0
v -0.323 1.238 -0.250 0 0 0
v -0.325 1.238 -0.380 0 0 0
v -0.195 1.238 -0.383 0 0 0

# Normal Array
vn 0.000 1.000 -0.000
vn 0.000 1.000 -0.000
vn -1.000 -0.000 -0.000
vn -1.000 -0.000 -0.000
vn -1.000 0.000 -0.000
vn -1.000 0.000 -0.000
vn -1.000 -0.000 -0.000
vn -1.000 -0.000 -0.000
vn -0.000 0.000 1.000
vn -0.000 0.000 1.000
vn -0.000 -1.000 0.000
vn -0.000 -1.000 0.000
vn 0.000 1.000 -0.000
vn 0.000 1.000 -0.000
vn -0.000 1.000 -0.000
vn -0.000 1.000 -0.000
vn 0.000 1.000 0.000
vn -0.000 0.000 1.000
vn -0.000 0.000 1.000
vn 1.000 0.000 0.000
vn 1.000 0.000 0.000
vn 1.000 0.000 0.000
vn 1.000 0.000 0.000
vn 1.000 0.000 0.000
vn 1.000 0.000 0.000
vn -0.000 0.000 1.000
vn -0.000 0.000 1.000
vn 0.000 1.000 -0.000
vn 0.000 1.000 -0.000
vn 0.000 1.000 -0.000
vn 0.000 1.000 -0.000
vn 0.000 -0.000 -1.000
vn 0.000 -0.000 -1.000
vn 0.000 -0.000 -1.000
vn 0.000 -0.000 -1.000
vn -0.000 -1.000 0.000
vn 0.000 -1.000 0.000
vn 0.000 -1.000 0.000
vn 0.000 -1.000 0.000
vn 0.000 -1.000 0.000
vn -1.000 -0.000 -0.000
vn -1.000 -0.000 -0.000
vn 0.000 -0.000 -1.000
vn 0.000 -0.000 -1.000
vn 0.924 0.000 0.383
vn 0.924 0.000 0.383
vn 0.383 0.000 0.924
vn 0.383 0.000 0.924
vn 0.383 -0.000 -0.924
vn 0.383 -0.000 -0.924
vn 0.924 -0.000 -0.383
vn 0.924 -0.000 -0.383
vn -0.383 -0.004 -0.924
vn -0.383 -0.004 -0.924
vn -0.924 -0.002 -0.383
vn -0.924 -0.002 -0.383
vn -0.924 0.002 0.383
vn -0.924 0.002 0.383
vn -0.383 0.004 0.924
vn -0.383 0.004 0.924
vn 0.383 0.004 0.924
vn 0.383 0.004 0.924
vn 0.924 0.002 0.383
vn 0.924 0.002 0.383
vn -0.000 1.000 0.000
vn 0.000 1.000 0.000
vn 0.000 1.000 -0.000
vn 0.000 1.000 0.000
vn 0.000 1.000 0.000
vn -0.000 1.000 0.000
vn 0.924 -0.002 -0.383
vn 0.924 -0.002 -0.383
vn 0.383 -0.004 -0.924
vn 0.383 -0.004 -0.924
vn 0.019 0.007 1.000
vn 0.019 0.007 1.000
vn 1.000 0.007 -0.018
vn 1.000 0.007 -0.018
vn -0.022 0.007 -1.000
vn -0.022 0.007 -1.000
vn -1.000 0.007 0.019
vn -1.000 0.007 0.019
vn -0.000 1.000 -0.000
vn 0.000 1.000 0.000
vn -1.000 0.007 0.019
vn -1.000 0.007 0.019
vn 0.018 0.007 1.000
vn 0.018 0.007 1.000
vn 1.000 0.007 -0.022
vn 1.000 0.007 -0.022
vn -0.019 0.007 -1.000
vn -0.019 0.007 -1.000
vn 0.000 1.000 -0.000
vn -0.000 1.000 0.000

# Facets
f 1//1 3//1 2//1
f 4//2 3//2 1//2
f 5//3 7//3 6//3
f 8//4 7//4 5//4
f 7//5 8//5 9//5
f 9//6 10//6 7//6
f 10//7 9//7 11//7
f 10//8 11//8 12//8
f 13//9 15//9 14//9
f 16//10 15//10 13//10
f 17//11 19//11 18//11
f 20//12 19//12 17//12
f 21//13 23//13 22//13
f 23//14 21//14 24//14
f 24//15 21//15 25//15
f 25//16 21//16 26//16
f 26//17 21//17 27//17
f 28//18 30//18 29//18
f 31//19 30//19 28//19
f 32//20 34//20 33//20
f 35//21 34//21 32//21
f 34//22 35//22 36//22
f 37//23 36//23 35//23
f 36//24 37//24 38//24
f 36//25 38//25 39//25
f 40//26 42//26 41//26
f 43//27 42//27 40//27
f 44//28 46//28 45//28
f 47//29 46//29 44//29
f 48//30 50//30 49//30
f 51//31 50//31 48//31
f 52//32 54//32 53//32
f 55//33 54//33 52//33
f 56//34 58//34 57//34
f 59//35 58//35 56//35
f 60//36 62//36 61//36
f 62//37 60//37 63//37
f 62//38 63//38 64//38
f 62//39 64//39 65//39
f 62//40 65//40 66//40
f 67//41 69//41 68//41
f 70//42 69//42 67//42
f 71//43 73//43 72//43
f 74//44 73//44 71//44
f 75//45 77//45 76//45
f 78//46 77//46 75//46
f 79//47 81//47 80//47
f 82//48 81//48 79//48
f 83//49 85//49 84//49
f 86//50 85//50 83//50
f 87//51 89//51 88//51
f 90//52 89//52 87//52
f 91//53 93//53 92//53
f 94//54 93//54 91//54
f 95//55 97//55 96//55
f 98//56 97//56 95//56
f 99//57 101//57 100//57
f 102//58 101//58 99//58
f 103//59 105//59 104//59
f 106//60 105//60 103//60
f 107//61 109//61 108//61
f 110//62 109//62 107//62
f 111//63 113//63 112//63
f 114//64 113//64 111//64
f 115//65 117//65 116//65
f 117//66 115//66 118//66
f 117//67 118//67 119//67
f 119//68 118//68 120//68
f 119//69 120//69 121//69
f 121//70 120//70 122//70
f 123//71 125//71 124//71
f 126//72 125//72 123//72
f 127//73 129//73 128//73
f 130//74 129//74 127//74
f 131//75 133//75 132//75
f 134//76 133//76 131//76
f 135//77 137//77 136//77
f 138//78 137//78 135//78
f 139//79 141//79 140//79
f 142//80 141//80 139//80
f 143//81 145//81 144//81
f 146//82 145//82 143//82
f 147//83 149//83 148//83
f 150//84 149//84 147//84
f 151//85 153//85 152//85
f 154//86 153//86 151//86
f 155//87 157//87 156//87
f 158//88 157//88 155//88
f 159//89 161//89 160//89
f 162//90 161//90 159//90
f 163//91 165//91 164//91
f 166//92 165//92 163//92
f 167//93 169//93 168//93
f 170//94 169//94 167//94

# Thank you for using Spin 3D

