# Created using Spin 3D

# Vertex Array 
v -0.515 0.036 -0.272 0 0 0
v -0.485 0.036 -0.273 0 0 0
v -0.478 0.036 -0.260 0 0 0
v -0.521 0.036 -0.260 0 0 0
v -0.515 0.036 -0.248 0 0 0
v -0.485 0.036 -0.247 0 0 0
v -0.485 0.000 -0.273 0 0 0
v -0.515 0.000 -0.272 0 0 0
v -0.521 0.000 -0.260 0 0 0
v -0.478 0.000 -0.260 0 0 0
v -0.485 0.000 -0.247 0 0 0
v -0.515 0.000 -0.248 0 0 0
v -0.485 0.036 0.273 0 0 0
v -0.515 0.036 0.272 0 0 0
v -0.478 0.036 0.260 0 0 0
v -0.521 0.036 0.260 0 0 0
v -0.515 0.036 0.248 0 0 0
v -0.485 0.036 0.247 0 0 0
v -0.515 0.000 0.272 0 0 0
v -0.485 0.000 0.273 0 0 0
v -0.521 0.000 0.260 0 0 0
v -0.478 0.000 0.260 0 0 0
v -0.485 0.000 0.247 0 0 0
v -0.515 0.000 0.248 0 0 0
v -0.478 0.036 0.260 0 0 0
v -0.478 0.000 0.260 0 0 0
v -0.485 0.000 0.273 0 0 0
v -0.485 0.000 0.247 0 0 0
v -0.485 0.036 0.273 0 0 0
v -0.485 0.036 0.247 0 0 0
v -0.515 0.000 0.272 0 0 0
v -0.515 0.000 0.248 0 0 0
v -0.515 0.036 0.272 0 0 0
v -0.515 0.036 0.248 0 0 0
v -0.521 0.000 0.260 0 0 0
v -0.521 0.036 0.260 0 0 0
v -0.478 0.000 -0.260 0 0 0
v -0.478 0.036 -0.260 0 0 0
v -0.485 0.000 -0.273 0 0 0
v -0.485 0.000 -0.247 0 0 0
v -0.485 0.036 -0.273 0 0 0
v -0.485 0.036 -0.247 0 0 0
v -0.515 0.000 -0.272 0 0 0
v -0.515 0.000 -0.248 0 0 0
v -0.515 0.036 -0.272 0 0 0
v -0.515 0.036 -0.248 0 0 0
v -0.521 0.000 -0.260 0 0 0
v -0.521 0.036 -0.260 0 0 0
v -0.507 0.142 0.250 0 0 0
v -0.513 0.142 0.260 0 0 0
v -0.513 0.000 0.260 0 0 0
v -0.507 0.142 0.269 0 0 0
v -0.507 0.000 0.250 0 0 0
v -0.507 0.000 0.269 0 0 0
v -0.493 0.142 0.250 0 0 0
v -0.493 0.142 0.269 0 0 0
v -0.493 0.000 0.250 0 0 0
v -0.493 0.000 0.269 0 0 0
v -0.487 0.142 0.260 0 0 0
v -0.487 0.000 0.260 0 0 0
v -0.513 0.142 -0.260 0 0 0
v -0.507 0.142 -0.250 0 0 0
v -0.513 0.000 -0.260 0 0 0
v -0.507 0.142 -0.269 0 0 0
v -0.507 0.000 -0.250 0 0 0
v -0.507 0.000 -0.269 0 0 0
v -0.493 0.142 -0.250 0 0 0
v -0.493 0.142 -0.269 0 0 0
v -0.493 0.000 -0.250 0 0 0
v -0.493 0.000 -0.269 0 0 0
v -0.487 0.142 -0.260 0 0 0
v -0.487 0.000 -0.260 0 0 0

# Normal Array
vn 0.000 1.000 0.000
vn -0.000 1.000 0.000
vn 0.000 1.000 -0.000
vn 0.000 1.000 -0.000
vn 0.000 -1.000 -0.000
vn -0.000 -1.000 -0.000
vn -0.000 -1.000 0.000
vn -0.000 -1.000 0.000
vn -0.000 1.000 0.000
vn 0.000 1.000 0.000
vn -0.000 1.000 0.000
vn 0.000 1.000 0.000
vn 0.000 -1.000 -0.000
vn -0.000 -1.000 -0.000
vn -0.000 -1.000 -0.000
vn -0.000 -1.000 -0.000
vn 0.880 0.000 0.475
vn 0.880 0.000 -0.475
vn 0.880 0.000 0.475
vn 0.880 0.000 -0.475
vn -0.013 0.000 1.000
vn -0.013 0.000 -1.000
vn -0.013 0.000 1.000
vn -0.013 0.000 -1.000
vn -0.882 0.000 0.471
vn -0.882 0.000 -0.471
vn -0.882 0.000 0.471
vn -0.882 0.000 -0.471
vn 0.880 0.000 -0.475
vn 0.880 0.000 0.475
vn 0.880 0.000 -0.475
vn 0.880 0.000 0.475
vn -0.013 0.000 -1.000
vn -0.013 0.000 1.000
vn -0.013 0.000 -1.000
vn -0.013 0.000 1.000
vn -0.882 0.000 -0.471
vn -0.882 0.000 0.471
vn -0.882 0.000 -0.471
vn -0.882 0.000 0.471
vn -0.839 0.000 -0.545
vn -0.839 -0.000 0.545
vn -0.839 0.000 -0.545
vn -0.839 -0.000 0.545
vn 0.000 0.000 -1.000
vn 0.000 -0.000 1.000
vn 0.000 0.000 -1.000
vn 0.000 -0.000 1.000
vn 0.839 0.000 -0.545
vn 0.839 -0.000 0.545
vn 0.839 0.000 -0.545
vn 0.839 -0.000 0.545
vn -0.839 0.000 0.545
vn -0.839 0.000 -0.545
vn -0.839 -0.000 0.545
vn -0.839 0.000 -0.545
vn 0.000 -0.000 1.000
vn 0.000 0.000 -1.000
vn 0.000 -0.000 1.000
vn 0.000 0.000 -1.000
vn 0.839 -0.000 0.545
vn 0.839 0.000 -0.545
vn 0.839 0.000 0.545
vn 0.839 0.000 -0.545

# Facets
f 1//1 3//1 2//1
f 4//2 3//2 1//2
f 5//3 3//3 4//3
f 6//4 3//4 5//4
f 7//5 9//5 8//5
f 10//6 9//6 7//6
f 11//7 9//7 10//7
f 12//8 9//8 11//8
f 13//9 15//9 14//9
f 14//10 15//10 16//10
f 16//11 15//11 17//11
f 17//12 15//12 18//12
f 19//13 21//13 20//13
f 20//14 21//14 22//14
f 22//15 21//15 23//15
f 23//16 21//16 24//16
f 25//17 27//17 26//17
f 26//18 28//18 25//18
f 29//19 27//19 25//19
f 25//20 28//20 30//20
f 29//21 31//21 27//21
f 28//22 32//22 30//22
f 33//23 31//23 29//23
f 30//24 32//24 34//24
f 33//25 35//25 31//25
f 32//26 35//26 34//26
f 36//27 35//27 33//27
f 34//28 35//28 36//28
f 37//29 39//29 38//29
f 38//30 40//30 37//30
f 38//31 39//31 41//31
f 42//32 40//32 38//32
f 39//33 43//33 41//33
f 42//34 44//34 40//34
f 41//35 43//35 45//35
f 46//36 44//36 42//36
f 43//37 47//37 45//37
f 46//38 47//38 44//38
f 45//39 47//39 48//39
f 48//40 47//40 46//40
f 49//41 51//41 50//41
f 50//42 51//42 52//42
f 53//43 51//43 49//43
f 52//44 51//44 54//44
f 49//45 55//45 53//45
f 54//46 56//46 52//46
f 53//47 55//47 57//47
f 58//48 56//48 54//48
f 59//49 57//49 55//49
f 56//50 58//50 59//50
f 60//51 57//51 59//51
f 59//52 58//52 60//52
f 61//53 63//53 62//53
f 64//54 63//54 61//54
f 62//55 63//55 65//55
f 66//56 63//56 64//56
f 65//57 67//57 62//57
f 64//58 68//58 66//58
f 69//59 67//59 65//59
f 66//60 68//60 70//60
f 67//61 69//61 71//61
f 71//62 70//62 68//62
f 71//63 69//63 72//63
f 72//64 70//64 71//64

# Thank you for using Spin 3D

