# Created using Spin 3D

# Vertex Array 
v -0.515 0.200 -0.272 0 0 0
v -0.544 0.200 -0.250 0 0 0
v -0.544 0.142 -0.250 0 0 0
v -0.515 0.142 -0.272 0 0 0
v -0.485 0.200 -0.273 0 0 0
v -0.485 0.142 -0.273 0 0 0
v -0.455 0.200 -0.250 0 0 0
v -0.455 0.142 -0.250 0 0 0
v -0.515 0.200 -0.272 0 0 0
v -0.485 0.200 -0.273 0 0 0
v -0.455 0.200 -0.250 0 0 0
v -0.544 0.200 -0.250 0 0 0
v -0.485 0.142 -0.273 0 0 0
v -0.515 0.142 -0.272 0 0 0
v -0.544 0.142 -0.250 0 0 0
v -0.455 0.142 -0.250 0 0 0
v -0.515 -1.971 -0.272 0 0 0
v -0.485 -1.971 -0.273 0 0 0
v -0.478 -1.971 -0.260 0 0 0
v -0.521 -1.971 -0.260 0 0 0
v -0.515 -1.971 -0.248 0 0 0
v -0.485 -1.971 -0.247 0 0 0
v -0.485 -2.007 -0.273 0 0 0
v -0.515 -2.007 -0.272 0 0 0
v -0.521 -2.007 -0.260 0 0 0
v -0.478 -2.007 -0.260 0 0 0
v -0.485 -2.007 -0.247 0 0 0
v -0.515 -2.007 -0.248 0 0 0
v -0.507 -1.001 -0.269 0 0 0
v -0.493 -1.001 -0.269 0 0 0
v -0.487 -1.001 -0.260 0 0 0
v -0.513 -1.001 -0.260 0 0 0
v -0.493 -1.001 -0.250 0 0 0
v -0.507 -1.001 -0.250 0 0 0
v -0.507 -0.001 -0.269 0 0 0
v -0.493 -0.001 -0.269 0 0 0
v -0.487 -0.001 -0.260 0 0 0
v -0.513 -0.001 -0.260 0 0 0
v -0.493 -0.001 -0.250 0 0 0
v -0.507 -0.001 -0.250 0 0 0
v -0.544 0.200 0.250 0 0 0
v -0.515 0.200 0.272 0 0 0
v -0.544 0.142 0.250 0 0 0
v -0.515 0.142 0.272 0 0 0
v -0.485 0.200 0.273 0 0 0
v -0.485 0.142 0.273 0 0 0
v -0.455 0.200 0.250 0 0 0
v -0.455 0.142 0.250 0 0 0
v -0.515 0.200 0.272 0 0 0
v -0.544 0.200 0.250 0 0 0
v -0.455 0.200 0.250 0 0 0
v -0.485 0.200 0.273 0 0 0
v -0.485 0.142 0.273 0 0 0
v -0.455 0.142 0.250 0 0 0
v -0.544 0.142 0.250 0 0 0
v -0.515 0.142 0.272 0 0 0
v -0.485 -1.971 0.273 0 0 0
v -0.515 -1.971 0.272 0 0 0
v -0.478 -1.971 0.260 0 0 0
v -0.521 -1.971 0.260 0 0 0
v -0.515 -1.971 0.248 0 0 0
v -0.485 -1.971 0.247 0 0 0
v -0.515 -2.007 0.272 0 0 0
v -0.485 -2.007 0.273 0 0 0
v -0.521 -2.007 0.260 0 0 0
v -0.478 -2.007 0.260 0 0 0
v -0.485 -2.007 0.247 0 0 0
v -0.515 -2.007 0.248 0 0 0
v -0.507 -1.001 0.250 0 0 0
v -0.493 -1.001 0.250 0 0 0
v -0.487 -1.001 0.260 0 0 0
v -0.513 -1.001 0.260 0 0 0
v -0.493 -1.001 0.269 0 0 0
v -0.507 -1.001 0.269 0 0 0
v -0.507 -0.001 0.250 0 0 0
v -0.493 -0.001 0.250 0 0 0
v -0.487 -0.001 0.260 0 0 0
v -0.513 -0.001 0.260 0 0 0
v -0.493 -0.001 0.269 0 0 0
v -0.507 -0.001 0.269 0 0 0
v -0.478 -1.971 0.260 0 0 0
v -0.478 -2.007 0.260 0 0 0
v -0.485 -2.007 0.273 0 0 0
v -0.485 -2.007 0.247 0 0 0
v -0.485 -1.971 0.273 0 0 0
v -0.485 -1.971 0.247 0 0 0
v -0.515 -2.007 0.272 0 0 0
v -0.515 -2.007 0.248 0 0 0
v -0.515 -1.971 0.272 0 0 0
v -0.515 -1.971 0.248 0 0 0
v -0.521 -2.007 0.260 0 0 0
v -0.521 -1.971 0.260 0 0 0
v -0.478 -2.007 -0.260 0 0 0
v -0.478 -1.971 -0.260 0 0 0
v -0.485 -2.007 -0.273 0 0 0
v -0.485 -2.007 -0.247 0 0 0
v -0.485 -1.971 -0.273 0 0 0
v -0.485 -1.971 -0.247 0 0 0
v -0.515 -2.007 -0.272 0 0 0
v -0.515 -2.007 -0.248 0 0 0
v -0.515 -1.971 -0.272 0 0 0
v -0.515 -1.971 -0.248 0 0 0
v -0.521 -2.007 -0.260 0 0 0
v -0.521 -1.971 -0.260 0 0 0
v -0.507 0.142 0.250 0 0 0
v -0.513 0.142 0.260 0 0 0
v -0.513 -0.001 0.260 0 0 0
v -0.507 0.142 0.269 0 0 0
v -0.507 -0.001 0.250 0 0 0
v -0.493 0.142 0.250 0 0 0
v -0.507 -0.001 0.269 0 0 0
v -0.493 0.142 0.269 0 0 0
v -0.493 -0.001 0.250 0 0 0
v -0.487 0.142 0.260 0 0 0
v -0.513 -1.001 0.260 0 0 0
v -0.493 -0.001 0.269 0 0 0
v -0.487 -0.001 0.260 0 0 0
v -0.507 -1.001 0.250 0 0 0
v -0.507 -1.001 0.269 0 0 0
v -0.493 -1.001 0.269 0 0 0
v -0.493 -1.001 0.250 0 0 0
v -0.513 -2.007 0.260 0 0 0
v -0.507 -2.007 0.269 0 0 0
v -0.507 -2.007 0.250 0 0 0
v -0.493 -2.007 0.269 0 0 0
v -0.493 -2.007 0.250 0 0 0
v -0.487 -1.001 0.260 0 0 0
v -0.487 -2.007 0.260 0 0 0
v -0.513 0.142 -0.260 0 0 0
v -0.507 0.142 -0.250 0 0 0
v -0.513 -0.001 -0.260 0 0 0
v -0.507 0.142 -0.269 0 0 0
v -0.507 -0.001 -0.250 0 0 0
v -0.493 0.142 -0.250 0 0 0
v -0.507 -0.001 -0.269 0 0 0
v -0.493 0.142 -0.269 0 0 0
v -0.493 -0.001 -0.250 0 0 0
v -0.487 0.142 -0.260 0 0 0
v -0.513 -1.001 -0.260 0 0 0
v -0.493 -0.001 -0.269 0 0 0
v -0.487 -0.001 -0.260 0 0 0
v -0.507 -1.001 -0.250 0 0 0
v -0.507 -1.001 -0.269 0 0 0
v -0.493 -1.001 -0.269 0 0 0
v -0.493 -1.001 -0.250 0 0 0
v -0.513 -2.007 -0.260 0 0 0
v -0.507 -2.007 -0.269 0 0 0
v -0.507 -2.007 -0.250 0 0 0
v -0.493 -2.007 -0.269 0 0 0
v -0.493 -2.007 -0.250 0 0 0
v -0.487 -1.001 -0.260 0 0 0
v -0.487 -2.007 -0.260 0 0 0

# Normal Array
vn -0.607 0.000 -0.795
vn -0.607 0.000 -0.795
vn -0.013 0.000 -1.000
vn -0.013 0.000 -1.000
vn 0.605 0.000 -0.796
vn 0.605 0.000 -0.796
vn -0.000 1.000 0.000
vn 0.000 1.000 0.000
vn 0.000 -1.000 0.000
vn -0.000 -1.000 0.000
vn -0.000 1.000 0.000
vn -0.000 1.000 0.000
vn 0.000 1.000 0.000
vn 0.000 1.000 0.000
vn 0.000 -1.000 0.000
vn -0.000 -1.000 0.000
vn 0.000 -1.000 -0.000
vn 0.000 -1.000 -0.000
vn 0.000 1.000 0.000
vn 0.000 1.000 0.000
vn 0.000 1.000 0.000
vn 0.000 1.000 0.000
vn -0.000 1.000 0.000
vn 0.000 1.000 -0.000
vn 0.000 1.000 -0.000
vn -0.000 1.000 0.000
vn -0.607 0.000 0.795
vn -0.607 0.000 0.795
vn -0.013 0.000 1.000
vn -0.013 0.000 1.000
vn 0.605 0.000 0.796
vn 0.605 0.000 0.796
vn 0.000 1.000 0.000
vn 0.000 1.000 0.000
vn 0.000 -1.000 -0.000
vn 0.000 -1.000 -0.000
vn 0.000 1.000 0.000
vn 0.000 1.000 0.000
vn -0.000 1.000 0.000
vn -0.000 1.000 0.000
vn 0.000 -1.000 -0.000
vn 0.000 -1.000 -0.000
vn -0.000 -1.000 0.000
vn 0.000 -1.000 0.000
vn 0.000 1.000 0.000
vn 0.000 1.000 0.000
vn 0.000 1.000 0.000
vn 0.000 1.000 0.000
vn -0.000 1.000 0.000
vn 0.000 1.000 -0.000
vn 0.000 1.000 -0.000
vn -0.000 1.000 0.000
vn 0.880 0.000 0.475
vn 0.880 0.000 -0.475
vn 0.880 0.000 0.475
vn 0.880 0.000 -0.475
vn -0.013 0.000 1.000
vn -0.013 0.000 -1.000
vn -0.013 0.000 1.000
vn -0.013 0.000 -1.000
vn -0.882 0.000 0.471
vn -0.882 0.000 -0.471
vn -0.882 0.000 0.471
vn -0.882 0.000 -0.471
vn 0.880 0.000 -0.475
vn 0.880 0.000 0.475
vn 0.880 0.000 -0.475
vn 0.880 0.000 0.475
vn -0.013 0.000 -1.000
vn -0.013 0.000 1.000
vn -0.013 0.000 -1.000
vn -0.013 0.000 1.000
vn -0.882 0.000 -0.471
vn -0.882 0.000 0.471
vn -0.882 0.000 -0.471
vn -0.882 0.000 0.471
vn -0.839 0.000 -0.545
vn -0.839 -0.000 0.545
vn -0.839 0.000 -0.545
vn 0.000 0.000 -1.000
vn -0.839 -0.000 0.545
vn 0.000 -0.000 1.000
vn -0.000 0.000 -1.000
vn 0.839 0.000 -0.545
vn -0.839 0.000 -0.545
vn -0.839 -0.000 0.545
vn 0.839 -0.000 0.545
vn 0.000 -0.000 1.000
vn 0.839 0.000 -0.545
vn 0.839 -0.000 0.545
vn -0.000 0.000 -1.000
vn -0.839 0.000 -0.545
vn 0.000 -0.000 1.000
vn -0.839 -0.000 0.545
vn 0.839 -0.000 0.545
vn 0.000 -0.000 1.000
vn 0.839 0.000 -0.545
vn 0.000 0.000 -1.000
vn -0.839 -0.000 0.545
vn -0.839 0.000 -0.545
vn -0.839 -0.000 0.545
vn 0.000 -0.000 1.000
vn -0.839 0.000 -0.545
vn 0.000 0.000 -1.000
vn 0.000 -0.000 1.000
vn 0.000 0.000 -1.000
vn 0.839 -0.000 0.545
vn 0.839 -0.000 0.545
vn 0.839 0.000 -0.545
vn 0.839 0.000 -0.545
vn 0.839 -0.000 0.545
vn 0.839 0.000 -0.545
vn -0.839 0.000 0.545
vn -0.839 0.000 -0.545
vn -0.839 0.000 0.545
vn 0.000 0.000 1.000
vn -0.839 0.000 -0.545
vn 0.000 0.000 -1.000
vn 0.000 -0.000 1.000
vn 0.839 0.000 0.545
vn -0.839 0.000 0.545
vn -0.839 0.000 -0.545
vn 0.839 0.000 -0.545
vn 0.000 0.000 -1.000
vn 0.839 0.000 0.545
vn 0.839 0.000 -0.545
vn 0.000 -0.000 1.000
vn -0.839 -0.000 0.545
vn 0.000 0.000 -1.000
vn -0.839 0.000 -0.545
vn 0.839 0.000 -0.545
vn 0.000 0.000 -1.000
vn 0.839 -0.000 0.545
vn 0.000 -0.000 1.000
vn -0.839 0.000 -0.545
vn -0.839 0.000 0.545
vn -0.839 0.000 -0.545
vn 0.000 0.000 -1.000
vn -0.839 -0.000 0.545
vn 0.000 -0.000 1.000
vn 0.000 0.000 -1.000
vn 0.000 -0.000 1.000
vn 0.839 0.000 -0.545
vn 0.839 0.000 -0.545
vn 0.839 0.000 0.545
vn 0.839 -0.000 0.545
vn 0.839 0.000 -0.545
vn 0.839 0.000 0.545

# Facets
f 1//1 3//1 2//1
f 4//2 3//2 1//2
f 5//3 4//3 1//3
f 6//4 4//4 5//4
f 7//5 6//5 5//5
f 8//6 6//6 7//6
f 9//7 11//7 10//7
f 12//8 11//8 9//8
f 13//9 15//9 14//9
f 16//10 15//10 13//10
f 17//11 19//11 18//11
f 20//12 19//12 17//12
f 21//13 19//13 20//13
f 22//14 19//14 21//14
f 23//15 25//15 24//15
f 26//16 25//16 23//16
f 27//17 25//17 26//17
f 28//18 25//18 27//18
f 29//19 31//19 30//19
f 31//20 29//20 32//20
f 31//21 32//21 33//21
f 33//22 32//22 34//22
f 35//23 37//23 36//23
f 37//24 35//24 38//24
f 37//25 38//25 39//25
f 39//26 38//26 40//26
f 41//27 43//27 42//27
f 42//28 43//28 44//28
f 42//29 44//29 45//29
f 45//30 44//30 46//30
f 45//31 46//31 47//31
f 47//32 46//32 48//32
f 49//33 51//33 50//33
f 52//34 51//34 49//34
f 53//35 55//35 54//35
f 56//36 55//36 53//36
f 57//37 59//37 58//37
f 58//38 59//38 60//38
f 60//39 59//39 61//39
f 61//40 59//40 62//40
f 63//41 65//41 64//41
f 64//42 65//42 66//42
f 66//43 65//43 67//43
f 67//44 65//44 68//44
f 69//45 71//45 70//45
f 71//46 69//46 72//46
f 71//47 72//47 73//47
f 73//48 72//48 74//48
f 75//49 77//49 76//49
f 77//50 75//50 78//50
f 77//51 78//51 79//51
f 79//52 78//52 80//52
f 81//53 83//53 82//53
f 82//54 84//54 81//54
f 85//55 83//55 81//55
f 81//56 84//56 86//56
f 85//57 87//57 83//57
f 84//58 88//58 86//58
f 89//59 87//59 85//59
f 86//60 88//60 90//60
f 89//61 91//61 87//61
f 88//62 91//62 90//62
f 92//63 91//63 89//63
f 90//64 91//64 92//64
f 93//65 95//65 94//65
f 94//66 96//66 93//66
f 94//67 95//67 97//67
f 98//68 96//68 94//68
f 95//69 99//69 97//69
f 98//70 100//70 96//70
f 97//71 99//71 101//71
f 102//72 100//72 98//72
f 99//73 103//73 101//73
f 102//74 103//74 100//74
f 101//75 103//75 104//75
f 104//76 103//76 102//76
f 105//77 107//77 106//77
f 106//78 107//78 108//78
f 109//79 107//79 105//79
f 105//80 110//80 109//80
f 108//81 107//81 111//81
f 111//82 112//82 108//82
f 109//83 110//83 113//83
f 114//84 113//84 110//84
f 109//85 115//85 107//85
f 107//86 115//86 111//86
f 112//87 116//87 114//87
f 116//88 112//88 111//88
f 117//89 113//89 114//89
f 114//90 116//90 117//90
f 109//91 113//91 118//91
f 118//92 115//92 109//92
f 119//93 116//93 111//93
f 111//94 115//94 119//94
f 116//95 120//95 117//95
f 120//96 116//96 119//96
f 117//97 121//97 113//97
f 118//98 113//98 121//98
f 115//99 122//99 119//99
f 118//100 122//100 115//100
f 119//101 122//101 123//101
f 123//102 120//102 119//102
f 124//103 122//103 118//103
f 118//104 121//104 124//104
f 125//105 120//105 123//105
f 124//106 121//106 126//106
f 117//107 120//107 127//107
f 120//108 125//108 127//108
f 127//109 121//109 117//109
f 127//110 126//110 121//110
f 127//111 125//111 128//111
f 128//112 126//112 127//112
f 129//113 131//113 130//113
f 132//114 131//114 129//114
f 130//115 131//115 133//115
f 133//116 134//116 130//116
f 135//117 131//117 132//117
f 132//118 136//118 135//118
f 137//119 134//119 133//119
f 134//120 137//120 138//120
f 131//121 139//121 133//121
f 135//122 139//122 131//122
f 138//123 140//123 136//123
f 135//124 136//124 140//124
f 138//125 137//125 141//125
f 141//126 140//126 138//126
f 142//127 137//127 133//127
f 133//128 139//128 142//128
f 135//129 140//129 143//129
f 143//130 139//130 135//130
f 141//131 144//131 140//131
f 143//132 140//132 144//132
f 137//133 145//133 141//133
f 145//134 137//134 142//134
f 143//135 146//135 139//135
f 139//136 146//136 142//136
f 147//137 146//137 143//137
f 143//138 144//138 147//138
f 142//139 146//139 148//139
f 148//140 145//140 142//140
f 147//141 144//141 149//141
f 150//142 145//142 148//142
f 151//143 144//143 141//143
f 151//144 149//144 144//144
f 141//145 145//145 151//145
f 145//146 150//146 151//146
f 152//147 149//147 151//147
f 151//148 150//148 152//148

# Thank you for using Spin 3D

