# Created using Spin 3D

# Vertex Array 
v -0.507 0.142 0.250 0 0 0
v -0.513 0.142 0.260 0 0 0
v -0.513 -2.001 0.260 0 0 0
v -0.507 0.142 0.269 0 0 0
v -0.507 -2.001 0.250 0 0 0
v -0.493 0.142 0.250 0 0 0
v -0.507 -2.001 0.269 0 0 0
v -0.493 0.142 0.269 0 0 0
v -0.493 -2.001 0.250 0 0 0
v -0.487 0.142 0.260 0 0 0
v -0.513 -3.007 0.260 0 0 0
v -0.507 -3.007 0.250 0 0 0
v -0.507 -3.007 0.269 0 0 0
v -0.493 -3.007 0.250 0 0 0
v -0.493 -2.001 0.269 0 0 0
v -0.493 -3.007 0.269 0 0 0
v -0.487 -2.001 0.260 0 0 0
v -0.487 -3.007 0.260 0 0 0
v -0.513 0.142 -0.260 0 0 0
v -0.507 0.142 -0.250 0 0 0
v -0.513 -2.001 -0.260 0 0 0
v -0.507 0.142 -0.269 0 0 0
v -0.507 -2.001 -0.250 0 0 0
v -0.493 0.142 -0.250 0 0 0
v -0.507 -2.001 -0.269 0 0 0
v -0.493 0.142 -0.269 0 0 0
v -0.493 -2.001 -0.250 0 0 0
v -0.487 0.142 -0.260 0 0 0
v -0.513 -3.007 -0.260 0 0 0
v -0.507 -3.007 -0.250 0 0 0
v -0.507 -3.007 -0.269 0 0 0
v -0.493 -3.007 -0.250 0 0 0
v -0.493 -2.001 -0.269 0 0 0
v -0.493 -3.007 -0.269 0 0 0
v -0.487 -2.001 -0.260 0 0 0
v -0.487 -3.007 -0.260 0 0 0

# Normal Array
vn -0.839 0.000 -0.545
vn -0.839 -0.000 0.545
vn -0.839 0.000 -0.545
vn 0.000 0.000 -1.000
vn -0.839 -0.000 0.545
vn 0.000 -0.000 1.000
vn 0.000 0.000 -1.000
vn 0.839 0.000 -0.545
vn -0.839 0.000 -0.545
vn -0.839 -0.000 0.545
vn -0.839 0.000 -0.545
vn 0.000 0.000 -1.000
vn -0.839 -0.000 0.545
vn 0.000 0.000 -1.000
vn 0.000 -0.000 1.000
vn 0.000 -0.000 1.000
vn 0.839 -0.000 0.545
vn 0.000 -0.000 1.000
vn 0.839 0.000 -0.545
vn 0.839 0.000 -0.545
vn 0.839 -0.000 0.545
vn 0.839 -0.000 0.545
vn 0.839 0.000 -0.545
vn 0.839 -0.000 0.545
vn -0.839 -0.000 0.545
vn -0.839 0.000 -0.545
vn -0.839 -0.000 0.545
vn 0.000 -0.000 1.000
vn -0.839 0.000 -0.545
vn 0.000 0.000 -1.000
vn 0.000 -0.000 1.000
vn 0.839 -0.000 0.545
vn -0.839 0.000 0.545
vn -0.839 -0.000 -0.545
vn -0.839 0.000 0.545
vn 0.000 0.000 1.000
vn -0.839 -0.000 -0.545
vn 0.000 0.000 1.000
vn 0.000 0.000 -1.000
vn 0.000 -0.000 -1.000
vn 0.839 0.000 -0.545
vn 0.000 -0.000 -1.000
vn 0.839 -0.000 0.545
vn 0.839 0.000 0.545
vn 0.839 0.000 -0.545
vn 0.839 -0.000 -0.545
vn 0.839 0.000 0.545
vn 0.839 -0.000 -0.545

# Facets
f 1//1 3//1 2//1
f 2//2 3//2 4//2
f 5//3 3//3 1//3
f 1//4 6//4 5//4
f 4//5 3//5 7//5
f 7//6 8//6 4//6
f 5//7 6//7 9//7
f 10//8 9//8 6//8
f 5//9 11//9 3//9
f 3//10 11//10 7//10
f 12//11 11//11 5//11
f 5//12 9//12 12//12
f 7//13 11//13 13//13
f 12//14 9//14 14//14
f 15//15 8//15 7//15
f 13//16 15//16 7//16
f 8//17 15//17 10//17
f 16//18 15//18 13//18
f 17//19 9//19 10//19
f 17//20 14//20 9//20
f 10//21 15//21 17//21
f 15//22 16//22 17//22
f 18//23 14//23 17//23
f 17//24 16//24 18//24
f 19//25 21//25 20//25
f 22//26 21//26 19//26
f 20//27 21//27 23//27
f 23//28 24//28 20//28
f 25//29 21//29 22//29
f 22//30 26//30 25//30
f 27//31 24//31 23//31
f 24//32 27//32 28//32
f 21//33 29//33 23//33
f 25//34 29//34 21//34
f 23//35 29//35 30//35
f 30//36 27//36 23//36
f 31//37 29//37 25//37
f 32//38 27//38 30//38
f 25//39 26//39 33//39
f 25//40 33//40 31//40
f 28//41 33//41 26//41
f 31//42 33//42 34//42
f 28//43 27//43 35//43
f 27//44 32//44 35//44
f 35//45 33//45 28//45
f 35//46 34//46 33//46
f 35//47 32//47 36//47
f 36//48 34//48 35//48

# Thank you for using Spin 3D

