# Created using Spin 3D

# Vertex Array 
v 0.359 0.100 0.359 0 0 0
v 0.334 0.100 0.368 0 0 0
v 0.297 0.100 0.362 0 0 0
v 0.249 0.100 0.341 0 0 0
v 0.323 0.100 0.337 0 0 0
v 0.369 0.100 0.334 0 0 0
v 0.307 0.100 0.334 0 0 0
v 0.287 0.100 0.326 0 0 0
v 0.209 0.100 0.320 0 0 0
v 0.000 0.100 0.171 0 0 0
v -0.030 0.100 0.191 0 0 0
v 0.000 0.100 -0.000 0 0 0
v -0.030 0.100 -0.030 0 0 0
v 0.333 0.100 0.333 0 0 0
v 0.336 0.100 0.323 0 0 0
v 0.334 0.100 0.307 0 0 0
v 0.363 0.100 0.297 0 0 0
v 0.170 0.100 -0.000 0 0 0
v 0.197 0.100 -0.030 0 0 0
v 0.322 0.100 0.209 0 0 0
v 0.325 0.100 0.287 0 0 0
v 0.343 0.100 0.249 0 0 0
v 0.001 0.012 -0.030 0 0 0
v 0.166 0.012 -0.030 0 0 0
v 0.166 0.084 -0.030 0 0 0
v 0.001 0.084 -0.030 0 0 0
v 0.000 0.100 -0.000 0 0 0
v 0.170 0.100 -0.000 0 0 0
v 0.325 0.100 0.287 0 0 0
v 0.000 0.100 0.171 0 0 0
v 0.287 0.100 0.326 0 0 0
v 0.334 0.100 0.307 0 0 0
v 0.336 0.100 0.323 0 0 0
v 0.333 0.100 0.333 0 0 0
v 0.307 0.100 0.334 0 0 0
v 0.323 0.100 0.337 0 0 0
v 0.322 0.100 0.209 0 0 0
v 0.197 0.100 -0.030 0 0 0
v 0.197 -0.000 -0.030 0 0 0
v 0.322 0.000 0.209 0 0 0
v 0.343 0.100 0.249 0 0 0
v 0.343 0.000 0.249 0 0 0
v 0.363 0.000 0.297 0 0 0
v 0.363 0.100 0.297 0 0 0
v 0.369 0.000 0.334 0 0 0
v 0.369 0.100 0.334 0 0 0
v 0.209 0.000 0.320 0 0 0
v -0.030 -0.000 0.191 0 0 0
v -0.030 0.100 0.191 0 0 0
v 0.209 0.100 0.320 0 0 0
v 0.249 0.000 0.341 0 0 0
v 0.249 0.100 0.341 0 0 0
v 0.297 0.100 0.362 0 0 0
v 0.297 0.000 0.362 0 0 0
v 0.334 0.100 0.368 0 0 0
v 0.334 0.000 0.368 0 0 0
v 0.359 0.000 0.359 0 0 0
v 0.359 0.100 0.359 0 0 0
v 0.369 0.100 0.334 0 0 0
v 0.369 0.000 0.334 0 0 0
v 0.334 0.000 0.368 0 0 0
v 0.334 0.100 0.368 0 0 0
v 0.359 0.100 0.359 0 0 0
v 0.359 0.000 0.359 0 0 0
v -0.030 0.084 0.160 0 0 0
v -0.030 0.012 0.160 0 0 0
v -0.030 0.012 0.001 0 0 0
v -0.030 0.084 0.001 0 0 0
v 0.166 0.084 -0.030 0 0 0
v 0.166 0.012 -0.030 0 0 0
v 0.197 -0.000 -0.030 0 0 0
v 0.001 0.012 -0.030 0 0 0
v 0.197 0.100 -0.030 0 0 0
v -0.030 0.000 -0.030 0 0 0
v 0.001 0.084 -0.030 0 0 0
v -0.030 0.100 -0.030 0 0 0
v -0.030 -0.000 0.191 0 0 0
v -0.030 0.012 0.160 0 0 0
v -0.030 0.100 0.191 0 0 0
v -0.030 0.084 0.160 0 0 0
v -0.030 0.012 0.001 0 0 0
v -0.030 0.100 -0.030 0 0 0
v -0.030 0.000 -0.030 0 0 0
v -0.030 0.084 0.001 0 0 0

# Normal Array
vn 0.000 1.000 0.000
vn 0.000 1.000 0.000
vn 0.000 1.000 -0.000
vn -0.000 1.000 -0.000
vn 0.000 1.000 -0.000
vn 0.000 1.000 -0.000
vn 0.000 1.000 -0.000
vn 0.000 1.000 -0.000
vn 0.000 1.000 -0.000
vn 0.000 1.000 -0.000
vn 0.000 1.000 0.000
vn -0.000 1.000 -0.000
vn -0.000 1.000 -0.000
vn -0.000 1.000 0.000
vn -0.000 1.000 0.000
vn 0.000 1.000 0.000
vn 0.000 1.000 0.000
vn -0.000 1.000 0.000
vn -0.000 1.000 0.000
vn -0.000 1.000 0.000
vn -0.000 1.000 0.000
vn -0.000 1.000 0.000
vn 0.000 0.000 -1.000
vn 0.000 0.000 -1.000
vn 0.000 1.000 0.000
vn 0.000 1.000 0.000
vn 0.000 1.000 0.000
vn 0.000 1.000 -0.000
vn 0.000 1.000 -0.000
vn 0.000 1.000 0.000
vn 0.000 1.000 0.000
vn 0.000 1.000 0.000
vn 0.886 0.000 -0.464
vn 0.886 -0.000 -0.464
vn 0.886 -0.000 -0.464
vn 0.886 0.000 -0.464
vn 0.921 0.000 -0.390
vn 0.921 0.000 -0.390
vn 0.990 0.000 -0.143
vn 0.990 0.000 -0.143
vn -0.475 0.000 0.880
vn -0.475 0.000 0.880
vn -0.475 0.000 0.880
vn -0.475 0.000 0.880
vn -0.401 0.000 0.916
vn -0.401 0.000 0.916
vn -0.155 0.000 0.988
vn -0.155 0.000 0.988
vn 0.927 -0.000 0.375
vn 0.927 -0.000 0.375
vn 0.364 0.000 0.931
vn 0.364 -0.000 0.931
vn -1.000 -0.000 0.000
vn -1.000 -0.000 0.000
vn 0.000 0.000 -1.000
vn 0.000 0.000 -1.000
vn -0.000 -0.000 -1.000
vn 0.000 -0.000 -1.000
vn 0.000 -0.000 -1.000
vn -0.000 0.000 -1.000
vn 0.000 -0.000 -1.000
vn 0.000 0.000 -1.000
vn -1.000 0.000 0.000
vn -1.000 0.000 0.000
vn -1.000 -0.000 -0.000
vn -1.000 0.000 -0.000
vn -1.000 0.000 0.000
vn -1.000 0.000 0.000
vn -1.000 0.000 0.000
vn -1.000 -0.000 0.000

# Facets
f 1//1 3//1 2//1
f 1//2 4//2 3//2
f 1//3 5//3 4//3
f 6//4 5//4 1//4
f 7//5 4//5 5//5
f 8//6 4//6 7//6
f 4//7 8//7 9//7
f 8//8 10//8 9//8
f 9//9 10//9 11//9
f 12//10 11//10 10//10
f 12//11 13//11 11//11
f 6//12 14//12 5//12
f 6//13 15//13 14//13
f 6//14 16//14 15//14
f 17//15 16//15 6//15
f 13//16 12//16 18//16
f 18//17 19//17 13//17
f 19//18 18//18 20//18
f 17//19 21//19 16//19
f 20//20 18//20 21//20
f 22//21 21//21 17//21
f 21//22 22//22 20//22
f 23//23 25//23 24//23
f 26//24 25//24 23//24
f 27//25 29//25 28//25
f 29//26 27//26 30//26
f 29//27 30//27 31//27
f 29//28 31//28 32//28
f 32//29 31//29 33//29
f 33//30 31//30 34//30
f 34//31 31//31 35//31
f 34//32 35//32 36//32
f 37//33 39//33 38//33
f 40//34 39//34 37//34
f 41//35 40//35 37//35
f 42//36 40//36 41//36
f 42//37 41//37 43//37
f 43//38 41//38 44//38
f 43//39 44//39 45//39
f 45//40 44//40 46//40
f 47//41 49//41 48//41
f 50//42 49//42 47//42
f 51//43 50//43 47//43
f 52//44 50//44 51//44
f 51//45 53//45 52//45
f 54//46 53//46 51//46
f 54//47 55//47 53//47
f 56//48 55//48 54//48
f 57//49 59//49 58//49
f 60//50 59//50 57//50
f 61//51 63//51 62//51
f 64//52 63//52 61//52
f 65//53 67//53 66//53
f 68//54 67//54 65//54
f 69//55 71//55 70//55
f 71//56 72//56 70//56
f 73//57 71//57 69//57
f 74//58 72//58 71//58
f 75//59 73//59 69//59
f 74//60 76//60 72//60
f 76//61 73//61 75//61
f 72//62 76//62 75//62
f 77//63 79//63 78//63
f 78//64 79//64 80//64
f 78//65 81//65 77//65
f 79//66 82//66 80//66
f 77//67 81//67 83//67
f 80//68 82//68 84//68
f 84//69 83//69 81//69
f 82//70 83//70 84//70

# Thank you for using Spin 3D

