# Created using Spin 3D

# Vertex Array 
v 0.000 -0.000 5.127
v -1.813 1.813 4.440
v 0.000 2.563 4.440
v 0.000 4.440 2.563
v -3.140 3.140 2.563
v -2.563 -0.000 4.440
v 0.000 -0.000 5.127
v 3.140 3.140 2.563
v 1.813 1.813 4.440
v 0.000 -0.000 5.127
v 4.440 -0.000 2.563
v 2.563 -0.000 4.440
v 0.000 -0.000 5.127
v 5.127 -0.000 -0.000
v 3.625 3.625 -0.000
v 4.440 -0.000 -2.563
v 0.000 5.127 -0.000
v 3.140 3.140 -2.563
v 2.563 -0.000 -4.440
v 1.813 1.813 -4.440
v 0.000 -0.000 -5.127
v 0.000 4.440 -2.563
v -3.625 3.625 -0.000
v 0.000 2.563 -4.440
v 0.000 -0.000 -5.127
v -3.140 3.140 -2.563
v -4.440 -0.000 2.563
v -1.813 1.813 -4.440
v 0.000 -0.000 -5.127
v -5.127 -0.000 -0.000
v -1.813 -1.813 4.440
v 0.000 -0.000 5.127
v -4.440 -0.000 -2.563
v -3.140 -3.140 2.563
v -2.563 -0.000 -4.440
v 0.000 -0.000 -5.127
v -3.625 -3.625 -0.000
v 0.000 -2.563 4.440
v 0.000 -0.000 5.127
v -3.140 -3.140 -2.563
v -0.000 -4.440 2.563
v -1.813 -1.813 -4.440
v 0.000 -0.000 -5.127
v 0.000 -5.127 -0.000
v 1.813 -1.813 4.440
v 0.000 -0.000 5.127
v -0.000 -4.440 -2.563
v 3.140 -3.140 2.563
v 2.563 -0.000 4.440
v 0.000 -0.000 5.127
v 4.440 -0.000 2.563
v 3.625 -3.625 -0.000
v 5.127 -0.000 -0.000
v 3.140 -3.140 -2.563
v 4.440 -0.000 -2.563
v 0.000 -2.563 -4.440
v 0.000 -0.000 -5.127
v 1.813 -1.813 -4.440
v 0.000 -0.000 -5.127
v 2.563 -0.000 -4.440
v 0.000 -0.000 -5.127

# Normal Array
vn -0.107 0.257 0.960
vn -0.281 0.679 0.679
vn -0.281 0.679 0.679
vn -0.679 0.281 0.679
vn -0.257 0.107 0.960
vn 0.281 0.679 0.679
vn 0.281 0.679 0.679
vn 0.107 0.257 0.960
vn 0.679 0.281 0.679
vn 0.679 0.281 0.679
vn 0.257 0.107 0.960
vn 0.897 0.371 0.240
vn 0.897 0.371 0.240
vn 0.371 0.897 0.240
vn 0.897 0.371 -0.240
vn 0.371 0.897 0.240
vn -0.371 0.897 0.240
vn 0.897 0.371 -0.240
vn 0.371 0.897 -0.240
vn 0.679 0.281 -0.679
vn 0.679 0.281 -0.679
vn 0.257 0.107 -0.960
vn 0.371 0.897 -0.240
vn 0.281 0.679 -0.679
vn -0.371 0.897 0.240
vn -0.371 0.897 -0.240
vn 0.281 0.679 -0.679
vn 0.107 0.257 -0.960
vn -0.281 0.679 -0.679
vn -0.371 0.897 -0.240
vn -0.897 0.371 0.240
vn -0.679 0.281 0.679
vn -0.281 0.679 -0.679
vn -0.107 0.257 -0.960
vn -0.897 0.371 -0.240
vn -0.897 0.371 0.240
vn -0.679 -0.281 0.679
vn -0.257 -0.107 0.960
vn -0.679 0.281 -0.679
vn -0.897 0.371 -0.240
vn -0.679 -0.281 0.679
vn -0.897 -0.371 0.240
vn -0.679 0.281 -0.679
vn -0.257 0.107 -0.960
vn -0.897 -0.371 -0.240
vn -0.897 -0.371 0.240
vn -0.281 -0.679 0.679
vn -0.107 -0.257 0.960
vn -0.679 -0.281 -0.679
vn -0.897 -0.371 -0.240
vn -0.281 -0.679 0.679
vn -0.371 -0.897 0.240
vn -0.679 -0.281 -0.679
vn -0.257 -0.107 -0.960
vn -0.371 -0.897 -0.240
vn -0.371 -0.897 0.240
vn 0.281 -0.679 0.679
vn 0.107 -0.257 0.960
vn -0.281 -0.679 -0.679
vn -0.371 -0.897 -0.240
vn 0.281 -0.679 0.679
vn 0.371 -0.897 0.240
vn 0.679 -0.281 0.679
vn 0.257 -0.107 0.960
vn 0.679 -0.281 0.679
vn 0.371 -0.897 0.240
vn 0.897 -0.371 0.240
vn 0.371 -0.897 -0.240
vn 0.897 -0.371 0.240
vn 0.897 -0.371 -0.240
vn 0.371 -0.897 -0.240
vn 0.897 -0.371 -0.240
vn -0.281 -0.679 -0.679
vn 0.281 -0.679 -0.679
vn -0.107 -0.257 -0.960
vn 0.679 -0.281 -0.679
vn 0.281 -0.679 -0.679
vn 0.107 -0.257 -0.960
vn 0.679 -0.281 -0.679
vn 0.257 -0.107 -0.960

# Facets
f 1//1 3//1 2//1
f 3//2 4//2 2//2
f 2//3 4//3 5//3
f 2//4 5//4 6//4
f 7//5 2//5 6//5
f 3//6 8//6 4//6
f 9//7 8//7 3//7
f 10//8 9//8 3//8
f 9//9 11//9 8//9
f 12//10 11//10 9//10
f 13//11 12//11 9//11
f 11//12 14//12 8//12
f 8//13 14//13 15//13
f 8//14 15//14 4//14
f 14//15 16//15 15//15
f 4//16 15//16 17//16
f 4//17 17//17 5//17
f 15//18 16//18 18//18
f 15//19 18//19 17//19
f 16//20 19//20 18//20
f 18//21 19//21 20//21
f 19//22 21//22 20//22
f 17//23 18//23 22//23
f 18//24 20//24 22//24
f 5//25 17//25 23//25
f 17//26 22//26 23//26
f 22//27 20//27 24//27
f 20//28 25//28 24//28
f 22//29 24//29 26//29
f 23//30 22//30 26//30
f 5//31 23//31 27//31
f 6//32 5//32 27//32
f 26//33 24//33 28//33
f 24//34 29//34 28//34
f 23//35 26//35 30//35
f 27//36 23//36 30//36
f 6//37 27//37 31//37
f 32//38 6//38 31//38
f 26//39 28//39 33//39
f 30//40 26//40 33//40
f 31//41 27//41 34//41
f 27//42 30//42 34//42
f 33//43 28//43 35//43
f 28//44 36//44 35//44
f 30//45 33//45 37//45
f 34//46 30//46 37//46
f 31//47 34//47 38//47
f 39//48 31//48 38//48
f 33//49 35//49 40//49
f 37//50 33//50 40//50
f 38//51 34//51 41//51
f 34//52 37//52 41//52
f 40//53 35//53 42//53
f 35//54 43//54 42//54
f 37//55 40//55 44//55
f 41//56 37//56 44//56
f 38//57 41//57 45//57
f 46//58 38//58 45//58
f 40//59 42//59 47//59
f 44//60 40//60 47//60
f 45//61 41//61 48//61
f 41//62 44//62 48//62
f 45//63 48//63 49//63
f 50//64 45//64 49//64
f 49//65 48//65 51//65
f 48//66 44//66 52//66
f 48//67 52//67 51//67
f 44//68 47//68 52//68
f 51//69 52//69 53//69
f 52//70 54//70 53//70
f 52//71 47//71 54//71
f 53//72 54//72 55//72
f 47//73 42//73 56//73
f 47//74 56//74 54//74
f 42//75 57//75 56//75
f 54//76 58//76 55//76
f 54//77 56//77 58//77
f 56//78 59//78 58//78
f 55//79 58//79 60//79
f 58//80 61//80 60//80

# Thank you for using Spin 3D

