# Created using Spin 3D

# Vertex Array 
v -0.143 0.000 -0.197 0 0 0
v 0.143 -0.000 -0.197 0 0 0
v 0.155 -0.000 -0.196 0 0 0
v -0.155 0.000 -0.196 0 0 0
v 0.167 -0.000 -0.192 0 0 0
v -0.167 0.000 -0.192 0 0 0
v 0.177 -0.000 -0.185 0 0 0
v -0.177 0.000 -0.185 0 0 0
v 0.185 -0.000 -0.177 0 0 0
v -0.185 0.000 -0.177 0 0 0
v 0.192 -0.000 -0.167 0 0 0
v -0.192 0.000 -0.167 0 0 0
v 0.196 -0.000 -0.155 0 0 0
v -0.196 0.000 -0.155 0 0 0
v 0.197 -0.000 -0.143 0 0 0
v -0.197 0.000 -0.143 0 0 0
v 0.197 -0.000 0.143 0 0 0
v -0.197 0.000 0.143 0 0 0
v 0.196 -0.000 0.155 0 0 0
v -0.196 0.000 0.155 0 0 0
v 0.192 -0.000 0.167 0 0 0
v -0.192 0.000 0.167 0 0 0
v 0.185 -0.000 0.177 0 0 0
v -0.185 0.000 0.177 0 0 0
v 0.177 -0.000 0.185 0 0 0
v -0.177 0.000 0.185 0 0 0
v 0.167 -0.000 0.192 0 0 0
v -0.167 0.000 0.192 0 0 0
v 0.155 -0.000 0.196 0 0 0
v -0.155 0.000 0.196 0 0 0
v 0.143 -0.000 0.197 0 0 0
v -0.143 0.000 0.197 0 0 0
v 0.143 -0.058 -0.197 0 0 0
v -0.143 -0.058 -0.197 0 0 0
v -0.155 -0.058 -0.196 0 0 0
v 0.155 -0.058 -0.196 0 0 0
v -0.167 -0.058 -0.192 0 0 0
v 0.167 -0.058 -0.192 0 0 0
v -0.177 -0.058 -0.185 0 0 0
v 0.177 -0.058 -0.185 0 0 0
v -0.185 -0.058 -0.177 0 0 0
v 0.185 -0.058 -0.177 0 0 0
v -0.192 -0.058 -0.167 0 0 0
v 0.192 -0.058 -0.167 0 0 0
v -0.196 -0.058 -0.155 0 0 0
v 0.196 -0.058 -0.155 0 0 0
v -0.197 -0.058 -0.143 0 0 0
v 0.197 -0.058 -0.143 0 0 0
v -0.197 -0.058 0.143 0 0 0
v 0.197 -0.058 0.143 0 0 0
v -0.196 -0.058 0.155 0 0 0
v 0.196 -0.058 0.155 0 0 0
v -0.192 -0.058 0.167 0 0 0
v 0.192 -0.058 0.167 0 0 0
v -0.185 -0.058 0.177 0 0 0
v 0.185 -0.058 0.177 0 0 0
v -0.177 -0.058 0.185 0 0 0
v 0.177 -0.058 0.185 0 0 0
v -0.167 -0.058 0.192 0 0 0
v 0.167 -0.058 0.192 0 0 0
v -0.155 -0.058 0.196 0 0 0
v 0.155 -0.058 0.196 0 0 0
v -0.143 -0.058 0.197 0 0 0
v 0.143 -0.058 0.197 0 0 0
v 0.143 -0.000 -0.197 0 0 0
v 0.143 -0.058 -0.197 0 0 0
v 0.155 -0.000 -0.196 0 0 0
v -0.143 0.000 -0.197 0 0 0
v 0.155 -0.058 -0.196 0 0 0
v -0.143 -0.058 -0.197 0 0 0
v 0.167 -0.000 -0.192 0 0 0
v -0.155 -0.058 -0.196 0 0 0
v 0.167 -0.058 -0.192 0 0 0
v -0.155 0.000 -0.196 0 0 0
v 0.177 -0.000 -0.185 0 0 0
v -0.167 -0.058 -0.192 0 0 0
v 0.177 -0.058 -0.185 0 0 0
v -0.167 0.000 -0.192 0 0 0
v 0.185 -0.000 -0.177 0 0 0
v -0.177 -0.058 -0.185 0 0 0
v 0.185 -0.058 -0.177 0 0 0
v -0.177 0.000 -0.185 0 0 0
v 0.192 -0.000 -0.167 0 0 0
v -0.185 -0.058 -0.177 0 0 0
v 0.192 -0.058 -0.167 0 0 0
v -0.185 0.000 -0.177 0 0 0
v 0.196 -0.000 -0.155 0 0 0
v -0.192 -0.058 -0.167 0 0 0
v 0.196 -0.058 -0.155 0 0 0
v -0.192 0.000 -0.167 0 0 0
v 0.197 -0.000 -0.143 0 0 0
v -0.196 -0.058 -0.155 0 0 0
v 0.197 -0.058 -0.143 0 0 0
v -0.196 0.000 -0.155 0 0 0
v 0.197 -0.000 0.143 0 0 0
v 0.197 -0.058 0.143 0 0 0
v 0.196 -0.000 0.155 0 0 0
v 0.196 -0.058 0.155 0 0 0
v 0.192 -0.000 0.167 0 0 0
v 0.192 -0.058 0.167 0 0 0
v 0.185 -0.000 0.177 0 0 0
v 0.185 -0.058 0.177 0 0 0
v 0.177 -0.000 0.185 0 0 0
v 0.177 -0.058 0.185 0 0 0
v 0.167 -0.000 0.192 0 0 0
v 0.167 -0.058 0.192 0 0 0
v 0.155 -0.000 0.196 0 0 0
v 0.155 -0.058 0.196 0 0 0
v 0.143 -0.000 0.197 0 0 0
v 0.143 -0.058 0.197 0 0 0
v -0.143 -0.058 0.197 0 0 0
v -0.143 0.000 0.197 0 0 0
v -0.155 0.000 0.196 0 0 0
v -0.155 -0.058 0.196 0 0 0
v -0.167 0.000 0.192 0 0 0
v -0.167 -0.058 0.192 0 0 0
v -0.177 0.000 0.185 0 0 0
v -0.177 -0.058 0.185 0 0 0
v -0.185 0.000 0.177 0 0 0
v -0.185 -0.058 0.177 0 0 0
v -0.192 0.000 0.167 0 0 0
v -0.192 -0.058 0.167 0 0 0
v -0.196 0.000 0.155 0 0 0
v -0.196 -0.058 0.155 0 0 0
v -0.197 0.000 0.143 0 0 0
v -0.197 -0.058 0.143 0 0 0
v -0.197 -0.058 -0.143 0 0 0
v -0.197 0.000 -0.143 0 0 0

# Normal Array
vn 0.000 1.000 -0.000
vn 0.000 1.000 -0.000
vn 0.000 1.000 0.000
vn 0.000 1.000 -0.000
vn 0.000 1.000 -0.000
vn 0.000 1.000 0.000
vn 0.000 1.000 0.000
vn 0.000 1.000 -0.000
vn 0.000 1.000 0.000
vn 0.000 1.000 -0.000
vn 0.000 1.000 -0.000
vn 0.000 1.000 0.000
vn 0.000 1.000 -0.000
vn 0.000 1.000 0.000
vn 0.000 1.000 -0.000
vn 0.000 1.000 0.000
vn 0.000 1.000 0.000
vn 0.000 1.000 -0.000
vn 0.000 1.000 0.000
vn 0.000 1.000 0.000
vn 0.000 1.000 -0.000
vn 0.000 1.000 0.000
vn 0.000 1.000 -0.000
vn 0.000 1.000 0.000
vn 0.000 1.000 0.000
vn 0.000 1.000 -0.000
vn 0.000 1.000 -0.000
vn 0.000 1.000 -0.000
vn 0.000 1.000 0.000
vn 0.000 1.000 -0.000
vn -0.000 -1.000 -0.000
vn -0.000 -1.000 0.000
vn -0.000 -1.000 -0.000
vn -0.000 -1.000 0.000
vn -0.000 -1.000 -0.000
vn -0.000 -1.000 0.000
vn -0.000 -1.000 0.000
vn -0.000 -1.000 -0.000
vn -0.000 -1.000 0.000
vn -0.000 -1.000 -0.000
vn -0.000 -1.000 -0.000
vn -0.000 -1.000 0.000
vn -0.000 -1.000 -0.000
vn -0.000 -1.000 0.000
vn -0.000 -1.000 0.000
vn -0.000 -1.000 0.000
vn -0.000 -1.000 0.000
vn -0.000 -1.000 -0.000
vn -0.000 -1.000 0.000
vn -0.000 -1.000 -0.000
vn -0.000 -1.000 -0.000
vn -0.000 -1.000 0.000
vn -0.000 -1.000 -0.000
vn -0.000 -1.000 0.000
vn -0.000 -1.000 0.000
vn -0.000 -1.000 -0.000
vn -0.000 -1.000 0.000
vn -0.000 -1.000 -0.000
vn -0.000 -1.000 0.000
vn -0.000 -1.000 -0.000
vn 0.112 -0.000 -0.994
vn -0.000 0.000 -1.000
vn 0.112 -0.000 -0.994
vn 0.000 -0.000 -1.000
vn 0.330 -0.000 -0.944
vn -0.112 0.000 -0.994
vn 0.330 -0.000 -0.944
vn -0.112 0.000 -0.994
vn 0.532 -0.000 -0.847
vn -0.330 0.000 -0.944
vn 0.532 -0.000 -0.847
vn -0.330 0.000 -0.944
vn 0.707 -0.000 -0.707
vn -0.532 0.000 -0.847
vn 0.707 -0.000 -0.707
vn -0.532 0.000 -0.847
vn 0.847 -0.000 -0.532
vn -0.707 0.000 -0.707
vn 0.847 -0.000 -0.532
vn -0.707 0.000 -0.707
vn 0.944 -0.000 -0.330
vn -0.847 0.000 -0.532
vn 0.944 -0.000 -0.330
vn -0.847 0.000 -0.532
vn 0.994 -0.000 -0.112
vn -0.944 0.000 -0.330
vn 0.994 -0.000 -0.112
vn -0.944 0.000 -0.330
vn 1.000 -0.000 0.000
vn 1.000 -0.000 0.000
vn 0.994 -0.000 0.112
vn 0.994 -0.000 0.112
vn 0.944 -0.000 0.330
vn 0.944 -0.000 0.330
vn 0.847 -0.000 0.532
vn 0.847 -0.000 0.532
vn 0.707 -0.000 0.707
vn 0.707 -0.000 0.707
vn 0.532 -0.000 0.847
vn 0.532 -0.000 0.847
vn 0.330 -0.000 0.944
vn 0.330 -0.000 0.944
vn 0.112 -0.000 0.994
vn 0.112 -0.000 0.994
vn 0.000 0.000 1.000
vn 0.000 0.000 1.000
vn -0.112 0.000 0.994
vn -0.112 0.000 0.994
vn -0.330 0.000 0.944
vn -0.330 0.000 0.944
vn -0.532 0.000 0.847
vn -0.532 0.000 0.847
vn -0.707 0.000 0.707
vn -0.707 0.000 0.707
vn -0.847 0.000 0.532
vn -0.847 0.000 0.532
vn -0.944 0.000 0.330
vn -0.944 0.000 0.330
vn -0.994 0.000 0.112
vn -0.994 0.000 0.112
vn -1.000 0.000 0.000
vn -1.000 0.000 0.000
vn -0.994 0.000 -0.112
vn -0.994 0.000 -0.112

# Facets
f 1//1 3//1 2//1
f 3//2 1//2 4//2
f 3//3 4//3 5//3
f 5//4 4//4 6//4
f 5//5 6//5 7//5
f 7//6 6//6 8//6
f 7//7 8//7 9//7
f 9//8 8//8 10//8
f 9//9 10//9 11//9
f 11//10 10//10 12//10
f 11//11 12//11 13//11
f 13//12 12//12 14//12
f 13//13 14//13 15//13
f 15//14 14//14 16//14
f 15//15 16//15 17//15
f 17//16 16//16 18//16
f 17//17 18//17 19//17
f 19//18 18//18 20//18
f 19//19 20//19 21//19
f 21//20 20//20 22//20
f 21//21 22//21 23//21
f 23//22 22//22 24//22
f 23//23 24//23 25//23
f 25//24 24//24 26//24
f 25//25 26//25 27//25
f 27//26 26//26 28//26
f 27//27 28//27 29//27
f 29//28 28//28 30//28
f 29//29 30//29 31//29
f 31//30 30//30 32//30
f 33//31 35//31 34//31
f 35//32 33//32 36//32
f 35//33 36//33 37//33
f 37//34 36//34 38//34
f 37//35 38//35 39//35
f 39//36 38//36 40//36
f 39//37 40//37 41//37
f 41//38 40//38 42//38
f 41//39 42//39 43//39
f 43//40 42//40 44//40
f 43//41 44//41 45//41
f 45//42 44//42 46//42
f 45//43 46//43 47//43
f 47//44 46//44 48//44
f 47//45 48//45 49//45
f 49//46 48//46 50//46
f 49//47 50//47 51//47
f 51//48 50//48 52//48
f 51//49 52//49 53//49
f 53//50 52//50 54//50
f 53//51 54//51 55//51
f 55//52 54//52 56//52
f 55//53 56//53 57//53
f 57//54 56//54 58//54
f 57//55 58//55 59//55
f 59//56 58//56 60//56
f 59//57 60//57 61//57
f 61//58 60//58 62//58
f 61//59 62//59 63//59
f 63//60 62//60 64//60
f 65//61 67//61 66//61
f 65//62 66//62 68//62
f 66//63 67//63 69//63
f 68//64 66//64 70//64
f 67//65 71//65 69//65
f 72//66 68//66 70//66
f 69//67 71//67 73//67
f 74//68 68//68 72//68
f 71//69 75//69 73//69
f 76//70 74//70 72//70
f 73//71 75//71 77//71
f 78//72 74//72 76//72
f 75//73 79//73 77//73
f 80//74 78//74 76//74
f 77//75 79//75 81//75
f 82//76 78//76 80//76
f 79//77 83//77 81//77
f 84//78 82//78 80//78
f 81//79 83//79 85//79
f 86//80 82//80 84//80
f 83//81 87//81 85//81
f 88//82 86//82 84//82
f 85//83 87//83 89//83
f 90//84 86//84 88//84
f 87//85 91//85 89//85
f 92//86 90//86 88//86
f 89//87 91//87 93//87
f 94//88 90//88 92//88
f 95//89 93//89 91//89
f 96//90 93//90 95//90
f 97//91 96//91 95//91
f 98//92 96//92 97//92
f 99//93 98//93 97//93
f 100//94 98//94 99//94
f 101//95 100//95 99//95
f 102//96 100//96 101//96
f 103//97 102//97 101//97
f 104//98 102//98 103//98
f 105//99 104//99 103//99
f 106//100 104//100 105//100
f 107//101 106//101 105//101
f 108//102 106//102 107//102
f 109//103 108//103 107//103
f 110//104 108//104 109//104
f 109//105 111//105 110//105
f 112//106 111//106 109//106
f 113//107 111//107 112//107
f 114//108 111//108 113//108
f 115//109 114//109 113//109
f 116//110 114//110 115//110
f 117//111 116//111 115//111
f 118//112 116//112 117//112
f 119//113 118//113 117//113
f 120//114 118//114 119//114
f 121//115 120//115 119//115
f 122//116 120//116 121//116
f 123//117 122//117 121//117
f 124//118 122//118 123//118
f 125//119 124//119 123//119
f 126//120 124//120 125//120
f 125//121 127//121 126//121
f 128//122 127//122 125//122
f 128//123 94//123 127//123
f 127//124 94//124 92//124

# Thank you for using Spin 3D

