# Created using Spin 3D

# Vertex Array 
v -0.500 0.000 -0.500
v 0.500 -0.000 -0.500
v 0.500 -0.000 0.500
v -0.500 0.000 0.200
v -0.491 0.000 0.273
v -0.467 0.000 0.339
v -0.427 0.000 0.397
v -0.365 0.000 0.452
v -0.291 0.000 0.487
v -0.200 0.000 0.500
v -0.500 -1.000 0.200
v -0.500 -1.000 -0.500
v -0.500 0.000 -0.500
v -0.500 0.000 0.200
v -0.491 -1.000 0.273
v -0.491 0.000 0.273
v -0.467 -1.000 0.339
v -0.467 0.000 0.339
v -0.427 -1.000 0.397
v -0.427 0.000 0.397
v -0.365 -1.000 0.452
v -0.365 0.000 0.452
v -0.291 -1.000 0.487
v -0.291 0.000 0.487
v -0.200 -1.000 0.500
v -0.200 0.000 0.500
v 0.500 -1.000 0.500
v 0.500 -0.000 0.500
v -0.500 -1.000 0.500
v -0.500 -1.000 0.200
v -0.491 -1.000 0.273
v -0.467 -1.000 0.339
v -0.427 -1.000 0.397
v -0.365 -1.000 0.452
v -0.291 -1.000 0.487
v -0.200 -1.000 0.500

# Normal Array
vn 0.000 1.000 -0.000
vn 0.000 1.000 -0.000
vn 0.000 1.000 0.000
vn 0.000 1.000 0.000
vn 0.000 1.000 0.000
vn 0.000 1.000 0.000
vn 0.000 1.000 -0.000
vn 0.000 1.000 -0.000
vn -1.000 0.000 0.000
vn -1.000 0.000 0.000
vn -0.992 0.000 0.125
vn -0.992 0.000 0.125
vn -0.940 0.000 0.341
vn -0.940 0.000 0.341
vn -0.824 0.000 0.567
vn -0.824 0.000 0.567
vn -0.661 0.000 0.750
vn -0.661 0.000 0.750
vn -0.433 0.000 0.901
vn -0.433 0.000 0.901
vn -0.141 0.000 0.990
vn -0.141 0.000 0.990
vn 0.000 -0.000 1.000
vn 0.000 -0.000 1.000
vn 0.000 1.000 0.000
vn 0.000 1.000 -0.000
vn 0.000 1.000 -0.000
vn 0.000 1.000 -0.000
vn 0.000 1.000 -0.000
vn 0.000 1.000 0.000

# Facets
f 1//1 3//1 2//1
f 3//2 1//2 4//2
f 3//3 4//3 5//3
f 3//4 5//4 6//4
f 3//5 6//5 7//5
f 3//6 7//6 8//6
f 3//7 8//7 9//7
f 3//8 9//8 10//8
f 11//9 13//9 12//9
f 14//10 13//10 11//10
f 15//11 14//11 11//11
f 16//12 14//12 15//12
f 17//13 16//13 15//13
f 18//14 16//14 17//14
f 19//15 18//15 17//15
f 20//16 18//16 19//16
f 21//17 20//17 19//17
f 22//18 20//18 21//18
f 23//19 22//19 21//19
f 24//20 22//20 23//20
f 25//21 24//21 23//21
f 26//22 24//22 25//22
f 27//23 26//23 25//23
f 28//24 26//24 27//24
f 29//25 31//25 30//25
f 31//26 29//26 32//26
f 32//27 29//27 33//27
f 33//28 29//28 34//28
f 34//29 29//29 35//29
f 35//30 29//30 36//30

# Thank you for using Spin 3D

