# Created using Spin 3D

# Vertex Array 
v -0.098 -0.337 0.137 0 0 0
v 0.098 -0.337 0.137 0 0 0
v 0.250 0.100 0.350 0 0 0
v -0.250 0.100 0.350 0 0 0
v -0.250 0.200 0.500 0 0 0
v -0.250 0.200 0.350 0 0 0
v 0.250 0.200 0.350 0 0 0
v 0.250 0.200 0.500 0 0 0
v 0.250 0.100 0.350 0 0 0
v 0.250 0.100 0.500 0 0 0
v 0.250 0.200 0.500 0 0 0
v 0.250 0.200 0.350 0 0 0
v 0.250 0.200 0.350 0 0 0
v -0.250 0.200 0.350 0 0 0
v -0.250 0.100 0.350 0 0 0
v 0.250 0.100 0.350 0 0 0
v 0.470 0.150 0.470 0 0 0
v 0.470 0.150 -0.470 0 0 0
v 0.470 -0.856 -0.470 0 0 0
v 0.470 -0.856 0.470 0 0 0
v -0.470 0.150 -0.470 0 0 0
v -0.470 -0.856 -0.470 0 0 0
v 0.470 -0.856 -0.470 0 0 0
v 0.470 0.150 -0.470 0 0 0
v -0.250 0.200 0.500 0 0 0
v 0.250 0.200 0.500 0 0 0
v 0.250 0.100 0.500 0 0 0
v -0.250 0.100 0.500 0 0 0
v -0.098 -0.337 -0.196 0 0 0
v -0.250 0.100 -0.500 0 0 0
v -0.250 0.100 -0.350 0 0 0
v -0.098 -0.337 -0.137 0 0 0
v 0.374 0.001 -0.374 0 0 0
v -0.374 0.001 -0.374 0 0 0
v -0.374 0.150 -0.374 0 0 0
v 0.374 0.150 -0.374 0 0 0
v -0.098 -0.337 0.196 0 0 0
v -0.250 0.100 0.500 0 0 0
v 0.250 0.100 0.500 0 0 0
v 0.098 -0.337 0.196 0 0 0
v -0.250 0.200 -0.350 0 0 0
v -0.250 0.200 -0.500 0 0 0
v 0.250 0.200 -0.500 0 0 0
v 0.250 0.200 -0.350 0 0 0
v -0.470 0.150 0.470 0 0 0
v 0.470 0.150 0.470 0 0 0
v 0.470 -0.856 0.470 0 0 0
v -0.470 -0.856 0.470 0 0 0
v 0.374 0.001 0.374 0 0 0
v 0.374 0.150 0.374 0 0 0
v -0.374 0.150 0.374 0 0 0
v -0.374 0.001 0.374 0 0 0
v -0.350 0.200 0.250 0 0 0
v -0.350 0.100 0.250 0 0 0
v -0.500 0.100 0.250 0 0 0
v -0.500 0.200 0.250 0 0 0
v 0.098 -0.337 0.137 0 0 0
v 0.098 -0.337 0.196 0 0 0
v 0.250 0.100 0.500 0 0 0
v 0.250 0.100 0.350 0 0 0
v -0.350 0.200 -0.250 0 0 0
v -0.500 0.200 -0.250 0 0 0
v -0.500 0.100 -0.250 0 0 0
v -0.350 0.100 -0.250 0 0 0
v -0.350 0.100 0.250 0 0 0
v -0.350 0.100 -0.250 0 0 0
v -0.137 -0.337 -0.098 0 0 0
v -0.137 -0.337 0.098 0 0 0
v -0.196 -0.337 0.098 0 0 0
v -0.500 0.100 0.250 0 0 0
v -0.350 0.100 0.250 0 0 0
v -0.137 -0.337 0.098 0 0 0
v -0.470 -0.856 0.470 0 0 0
v -0.470 -0.856 -0.470 0 0 0
v -0.470 0.150 -0.470 0 0 0
v -0.470 0.150 0.470 0 0 0
v -0.470 0.150 0.000 0 0 0
v -0.196 -0.337 -0.098 0 0 0
v -0.137 -0.337 -0.098 0 0 0
v -0.350 0.100 -0.250 0 0 0
v -0.500 0.100 -0.250 0 0 0
v 0.250 0.200 -0.350 0 0 0
v 0.250 0.200 -0.500 0 0 0
v 0.250 0.100 -0.500 0 0 0
v 0.250 0.100 -0.350 0 0 0
v 0.350 0.100 -0.250 0 0 0
v 0.500 0.100 -0.250 0 0 0
v 0.500 0.200 -0.250 0 0 0
v 0.350 0.200 -0.250 0 0 0
v 0.500 0.100 0.250 0 0 0
v 0.500 0.200 0.250 0 0 0
v 0.500 0.200 -0.250 0 0 0
v 0.500 0.100 -0.250 0 0 0
v 0.500 0.200 0.250 0 0 0
v 0.350 0.200 0.250 0 0 0
v 0.350 0.200 -0.250 0 0 0
v 0.500 0.200 -0.250 0 0 0
v 0.350 0.200 -0.250 0 0 0
v 0.350 0.200 0.250 0 0 0
v 0.350 0.100 0.250 0 0 0
v 0.350 0.100 -0.250 0 0 0
v -0.500 0.200 0.250 0 0 0
v -0.500 0.100 0.250 0 0 0
v -0.500 0.100 -0.250 0 0 0
v -0.500 0.200 -0.250 0 0 0
v 0.137 -0.337 -0.098 0 0 0
v 0.196 -0.337 -0.098 0 0 0
v 0.500 0.100 -0.250 0 0 0
v 0.350 0.100 -0.250 0 0 0
v 0.374 0.001 0.374 0 0 0
v -0.374 0.001 0.374 0 0 0
v -0.374 0.001 -0.374 0 0 0
v 0.374 0.001 -0.374 0 0 0
v 0.374 0.001 0.374 0 0 0
v 0.374 0.001 -0.374 0 0 0
v 0.374 0.150 -0.374 0 0 0
v 0.374 0.150 0.374 0 0 0
v -0.350 0.200 0.250 0 0 0
v -0.500 0.200 0.250 0 0 0
v -0.500 0.200 -0.250 0 0 0
v -0.350 0.200 -0.250 0 0 0
v -0.374 0.001 -0.374 0 0 0
v -0.374 0.001 0.374 0 0 0
v -0.374 0.150 0.374 0 0 0
v -0.374 0.150 -0.374 0 0 0
v -0.374 0.150 0.000 0 0 0
v 0.196 -0.337 0.098 0 0 0
v 0.500 0.100 0.250 0 0 0
v 0.500 0.100 -0.250 0 0 0
v 0.196 -0.337 -0.098 0 0 0
v -0.350 0.200 0.250 0 0 0
v -0.350 0.200 -0.250 0 0 0
v -0.350 0.100 -0.250 0 0 0
v -0.350 0.100 0.250 0 0 0
v 0.350 0.100 0.250 0 0 0
v 0.350 0.200 0.250 0 0 0
v 0.500 0.200 0.250 0 0 0
v 0.500 0.100 0.250 0 0 0
v 0.137 -0.337 0.098 0 0 0
v 0.350 0.100 0.250 0 0 0
v 0.500 0.100 0.250 0 0 0
v 0.196 -0.337 0.098 0 0 0
v -0.250 0.200 -0.350 0 0 0
v -0.250 0.100 -0.350 0 0 0
v -0.250 0.100 -0.500 0 0 0
v -0.250 0.200 -0.500 0 0 0
v -0.196 -0.337 0.098 0 0 0
v -0.196 -0.337 -0.098 0 0 0
v -0.500 0.100 -0.250 0 0 0
v -0.500 0.100 0.250 0 0 0
v -0.098 -0.337 -0.137 0 0 0
v -0.250 0.100 -0.350 0 0 0
v 0.250 0.100 -0.350 0 0 0
v 0.098 -0.337 -0.137 0 0 0
v 0.098 -0.337 -0.196 0 0 0
v 0.098 -0.337 -0.137 0 0 0
v 0.250 0.100 -0.350 0 0 0
v 0.250 0.100 -0.500 0 0 0
v -0.250 0.200 -0.350 0 0 0
v 0.250 0.200 -0.350 0 0 0
v 0.250 0.100 -0.350 0 0 0
v -0.250 0.100 -0.350 0 0 0
v -0.250 0.200 -0.500 0 0 0
v -0.250 0.100 -0.500 0 0 0
v 0.250 0.100 -0.500 0 0 0
v 0.250 0.200 -0.500 0 0 0
v 0.137 -0.337 0.098 0 0 0
v 0.137 -0.337 -0.098 0 0 0
v 0.350 0.100 -0.250 0 0 0
v 0.350 0.100 0.250 0 0 0
v -0.250 0.100 0.350 0 0 0
v -0.250 0.200 0.350 0 0 0
v -0.250 0.200 0.500 0 0 0
v -0.250 0.100 0.500 0 0 0
v -0.098 -0.337 0.137 0 0 0
v -0.250 0.100 0.350 0 0 0
v -0.250 0.100 0.500 0 0 0
v -0.098 -0.337 0.196 0 0 0
v -0.098 -0.337 -0.196 0 0 0
v 0.098 -0.337 -0.196 0 0 0
v 0.250 0.100 -0.500 0 0 0
v -0.250 0.100 -0.500 0 0 0
v 0.374 0.150 -0.374 0 0 0
v -0.470 0.150 -0.470 0 0 0
v 0.470 0.150 -0.470 0 0 0
v 0.470 0.150 0.470 0 0 0
v -0.374 0.150 -0.374 0 0 0
v 0.374 0.150 0.374 0 0 0
v -0.470 0.150 0.000 0 0 0
v -0.374 0.150 0.000 0 0 0
v -0.374 0.150 0.374 0 0 0
v -0.470 0.150 0.470 0 0 0

# Normal Array
vn -0.000 0.438 -0.899
vn -0.000 0.438 -0.899
vn -0.000 1.000 -0.000
vn -0.000 1.000 -0.000
vn 1.000 0.000 0.000
vn 1.000 -0.000 0.000
vn -0.000 -0.000 -1.000
vn -0.000 0.000 -1.000
vn 1.000 0.000 0.000
vn 1.000 -0.000 0.000
vn 0.000 -0.000 -1.000
vn 0.000 -0.000 -1.000
vn -0.000 0.000 1.000
vn 0.000 0.000 1.000
vn -0.944 -0.329 0.000
vn -0.944 -0.329 0.000
vn -0.000 0.000 1.000
vn -0.000 0.000 1.000
vn 0.000 -0.572 0.820
vn 0.000 -0.572 0.820
vn -0.000 1.000 -0.000
vn -0.000 1.000 -0.000
vn 0.000 -0.000 1.000
vn 0.000 -0.000 1.000
vn -0.000 0.000 -1.000
vn -0.000 0.000 -1.000
vn 0.000 -0.000 1.000
vn 0.000 -0.000 1.000
vn 0.944 -0.329 0.000
vn 0.944 -0.329 0.000
vn 0.000 -0.000 -1.000
vn 0.000 -0.000 -1.000
vn 0.899 0.438 0.000
vn 0.899 0.438 0.000
vn 0.000 -0.329 0.944
vn 0.000 -0.329 0.944
vn -1.000 0.000 0.000
vn -1.000 0.000 0.000
vn -0.928 -0.371 0.000
vn 0.000 -0.329 -0.944
vn 0.000 -0.329 -0.944
vn 1.000 -0.000 0.000
vn 1.000 -0.000 0.000
vn 0.000 0.000 -1.000
vn 0.000 -0.000 -1.000
vn 1.000 -0.000 0.000
vn 1.000 -0.000 -0.000
vn 0.000 1.000 0.000
vn 0.000 1.000 -0.000
vn -1.000 0.000 0.000
vn -1.000 0.000 0.000
vn -1.000 0.000 -0.000
vn -1.000 0.000 0.000
vn 0.000 -0.329 -0.944
vn 0.000 -0.329 -0.944
vn 0.000 1.000 0.000
vn 0.000 1.000 -0.000
vn -1.000 0.000 0.000
vn -1.000 0.000 -0.000
vn 0.000 1.000 0.000
vn 0.000 1.000 -0.000
vn 1.000 0.000 0.000
vn 1.000 0.000 0.000
vn 0.894 0.447 0.000
vn 0.820 -0.572 -0.000
vn 0.820 -0.572 0.000
vn 1.000 0.000 0.000
vn 1.000 -0.000 0.000
vn 0.000 -0.000 1.000
vn 0.000 -0.000 1.000
vn 0.000 -0.329 0.944
vn 0.000 -0.329 0.944
vn -1.000 -0.000 0.000
vn -1.000 -0.000 0.000
vn -0.820 -0.572 -0.000
vn -0.820 -0.572 -0.000
vn -0.000 0.438 0.899
vn -0.000 0.438 0.899
vn 0.944 -0.329 0.000
vn 0.944 -0.329 0.000
vn -0.000 0.000 1.000
vn -0.000 -0.000 1.000
vn 0.000 0.000 -1.000
vn -0.000 0.000 -1.000
vn -0.899 0.438 0.000
vn -0.899 0.438 0.000
vn -1.000 -0.000 0.000
vn -1.000 -0.000 0.000
vn -0.944 -0.329 0.000
vn -0.944 -0.329 0.000
vn 0.000 -0.572 -0.820
vn 0.000 -0.572 -0.820
vn -0.000 1.000 -0.000
vn 0.000 1.000 -0.000
vn -0.000 1.000 -0.000
vn 0.000 1.000 0.000
vn 0.000 1.000 -0.000
vn 0.000 1.000 -0.000
vn -0.000 1.000 0.000
vn -0.000 1.000 0.000
vn -0.000 1.000 0.000
vn 0.000 1.000 0.000

# Facets
f 1//1 3//1 2//1
f 4//2 3//2 1//2
f 5//3 7//3 6//3
f 8//4 7//4 5//4
f 9//5 11//5 10//5
f 12//6 11//6 9//6
f 13//7 15//7 14//7
f 16//8 15//8 13//8
f 17//9 19//9 18//9
f 20//10 19//10 17//10
f 21//11 23//11 22//11
f 24//12 23//12 21//12
f 25//13 27//13 26//13
f 28//14 27//14 25//14
f 29//15 31//15 30//15
f 32//16 31//16 29//16
f 33//17 35//17 34//17
f 36//18 35//18 33//18
f 37//19 39//19 38//19
f 40//20 39//20 37//20
f 41//21 43//21 42//21
f 44//22 43//22 41//22
f 45//23 47//23 46//23
f 48//24 47//24 45//24
f 49//25 51//25 50//25
f 52//26 51//26 49//26
f 53//27 55//27 54//27
f 56//28 55//28 53//28
f 57//29 59//29 58//29
f 60//30 59//30 57//30
f 61//31 63//31 62//31
f 64//32 63//32 61//32
f 65//33 67//33 66//33
f 68//34 67//34 65//34
f 69//35 71//35 70//35
f 72//36 71//36 69//36
f 73//37 75//37 74//37
f 75//38 73//38 76//38
f 75//39 76//39 77//39
f 78//40 80//40 79//40
f 81//41 80//41 78//41
f 82//42 84//42 83//42
f 85//43 84//43 82//43
f 86//44 88//44 87//44
f 89//45 88//45 86//45
f 90//46 92//46 91//46
f 93//47 92//47 90//47
f 94//48 96//48 95//48
f 97//49 96//49 94//49
f 98//50 100//50 99//50
f 101//51 100//51 98//51
f 102//52 104//52 103//52
f 105//53 104//53 102//53
f 106//54 108//54 107//54
f 109//55 108//55 106//55
f 110//56 112//56 111//56
f 113//57 112//57 110//57
f 114//58 116//58 115//58
f 117//59 116//59 114//59
f 118//60 120//60 119//60
f 121//61 120//61 118//61
f 122//62 124//62 123//62
f 124//63 122//63 125//63
f 124//64 125//64 126//64
f 127//65 129//65 128//65
f 130//66 129//66 127//66
f 131//67 133//67 132//67
f 134//68 133//68 131//68
f 135//69 137//69 136//69
f 138//70 137//70 135//70
f 139//71 141//71 140//71
f 142//72 141//72 139//72
f 143//73 145//73 144//73
f 146//74 145//74 143//74
f 147//75 149//75 148//75
f 150//76 149//76 147//76
f 151//77 153//77 152//77
f 154//78 153//78 151//78
f 155//79 157//79 156//79
f 158//80 157//80 155//80
f 159//81 161//81 160//81
f 162//82 161//82 159//82
f 163//83 165//83 164//83
f 166//84 165//84 163//84
f 167//85 169//85 168//85
f 170//86 169//86 167//86
f 171//87 173//87 172//87
f 174//88 173//88 171//88
f 175//89 177//89 176//89
f 178//90 177//90 175//90
f 179//91 181//91 180//91
f 182//92 181//92 179//92
f 183//93 185//93 184//93
f 185//94 183//94 186//94
f 183//95 184//95 187//95
f 186//96 183//96 188//96
f 189//97 187//97 184//97
f 187//98 189//98 190//98
f 191//99 186//99 188//99
f 189//100 191//100 190//100
f 191//101 192//101 186//101
f 191//102 189//102 192//102

# Thank you for using Spin 3D

