# Created using Spin 3D

# Vertex Array 
v 0.380 0.057 0.250 0 0 0
v 0.380 0.144 0.250 0 0 0
v 0.384 0.165 0.250 0 0 0
v 0.500 0.057 0.250 0 0 0
v 0.397 0.184 0.250 0 0 0
v 0.415 0.196 0.250 0 0 0
v 0.436 0.200 0.250 0 0 0
v 0.500 0.200 0.250 0 0 0
v 0.380 0.144 -0.250 0 0 0
v 0.380 0.057 -0.250 0 0 0
v 0.500 0.057 -0.250 0 0 0
v 0.384 0.165 -0.250 0 0 0
v 0.397 0.184 -0.250 0 0 0
v 0.415 0.196 -0.250 0 0 0
v 0.436 0.200 -0.250 0 0 0
v 0.500 0.200 -0.250 0 0 0
v 0.276 -0.162 -0.138 0 0 0
v 0.210 -0.162 -0.138 0 0 0
v 0.210 -0.162 0.138 0 0 0
v 0.276 -0.162 0.138 0 0 0
v 0.276 -0.162 0.138 0 0 0
v 0.500 0.057 0.250 0 0 0
v 0.500 0.057 -0.250 0 0 0
v 0.276 -0.162 -0.138 0 0 0
v 0.210 -0.162 -0.138 0 0 0
v 0.380 0.057 -0.250 0 0 0
v 0.380 0.057 0.250 0 0 0
v 0.210 -0.162 0.138 0 0 0
v 0.210 -0.162 0.138 0 0 0
v 0.380 0.057 0.250 0 0 0
v 0.500 0.057 0.250 0 0 0
v 0.276 -0.162 0.138 0 0 0
v 0.276 -0.162 -0.138 0 0 0
v 0.500 0.057 -0.250 0 0 0
v 0.380 0.057 -0.250 0 0 0
v 0.210 -0.162 -0.138 0 0 0
v 0.380 0.057 0.250 0 0 0
v 0.380 0.057 -0.250 0 0 0
v 0.380 0.144 0.250 0 0 0
v 0.380 0.144 -0.250 0 0 0
v 0.384 0.165 0.250 0 0 0
v 0.384 0.165 -0.250 0 0 0
v 0.397 0.184 0.250 0 0 0
v 0.397 0.184 -0.250 0 0 0
v 0.415 0.196 0.250 0 0 0
v 0.415 0.196 -0.250 0 0 0
v 0.436 0.200 0.250 0 0 0
v 0.436 0.200 -0.250 0 0 0
v 0.436 0.200 -0.250 0 0 0
v 0.500 0.200 -0.250 0 0 0
v 0.500 0.200 0.250 0 0 0
v 0.436 0.200 0.250 0 0 0
v 0.500 0.200 -0.250 0 0 0
v 0.500 0.057 -0.250 0 0 0
v 0.500 0.057 0.250 0 0 0
v 0.500 0.200 0.250 0 0 0

# Normal Array
vn -0.002 0.000 1.000
vn -0.002 -0.000 1.000
vn -0.002 -0.000 1.000
vn -0.002 -0.000 1.000
vn -0.002 -0.000 1.000
vn -0.002 0.000 1.000
vn 0.000 0.000 -1.000
vn 0.000 0.000 -1.000
vn 0.000 0.000 -1.000
vn 0.000 0.000 -1.000
vn 0.000 0.000 -1.000
vn 0.000 0.000 -1.000
vn -0.000 -1.000 0.000
vn 0.000 -1.000 -0.000
vn 0.699 -0.716 -0.000
vn 0.699 -0.716 0.000
vn -0.789 0.614 -0.000
vn -0.789 0.614 -0.000
vn -0.002 -0.453 0.891
vn -0.000 -0.455 0.890
vn 0.000 -0.455 -0.890
vn 0.000 -0.455 -0.890
vn -1.000 0.000 -0.000
vn -1.000 0.000 -0.000
vn -0.981 0.195 -0.000
vn -0.981 0.195 -0.000
vn -0.831 0.556 -0.000
vn -0.831 0.556 -0.000
vn -0.556 0.831 -0.000
vn -0.556 0.831 -0.000
vn -0.195 0.981 -0.000
vn -0.195 0.981 -0.000
vn -0.000 1.000 0.000
vn 0.000 1.000 -0.000
vn 1.000 -0.001 -0.000
vn 1.000 -0.001 -0.000

# Facets
f 1//1 3//1 2//1
f 3//2 1//2 4//2
f 3//3 4//3 5//3
f 5//4 4//4 6//4
f 6//5 4//5 7//5
f 7//6 4//6 8//6
f 9//7 11//7 10//7
f 11//8 9//8 12//8
f 11//9 12//9 13//9
f 11//10 13//10 14//10
f 11//11 14//11 15//11
f 11//12 15//12 16//12
f 17//13 19//13 18//13
f 20//14 19//14 17//14
f 21//15 23//15 22//15
f 24//16 23//16 21//16
f 25//17 27//17 26//17
f 28//18 27//18 25//18
f 29//19 31//19 30//19
f 32//20 31//20 29//20
f 33//21 35//21 34//21
f 36//22 35//22 33//22
f 37//23 39//23 38//23
f 38//24 39//24 40//24
f 41//25 40//25 39//25
f 42//26 40//26 41//26
f 43//27 42//27 41//27
f 44//28 42//28 43//28
f 45//29 44//29 43//29
f 46//30 44//30 45//30
f 47//31 46//31 45//31
f 48//32 46//32 47//32
f 49//33 51//33 50//33
f 52//34 51//34 49//34
f 53//35 55//35 54//35
f 56//36 55//36 53//36

# Thank you for using Spin 3D

