# Created using Spin 3D

# Vertex Array 
v 0.000 -2.768 0.879 0 0 0
v 1.739 -2.768 0.879 0 0 0
v 1.739 -2.768 1.140 0 0 0
v 0.000 -2.768 1.140 0 0 0
v -1.739 -2.768 1.140 0 0 0
v -1.739 -2.768 0.879 0 0 0
v 0.000 -0.506 0.879 0 0 0
v -1.739 -0.506 0.879 0 0 0
v -1.739 -0.506 1.140 0 0 0
v 0.000 -0.506 1.140 0 0 0
v 1.739 -0.506 1.140 0 0 0
v 1.739 -0.506 0.879 0 0 0
v 1.739 -0.506 0.879 0 0 0
v 1.739 -0.506 1.140 0 0 0
v 1.739 -1.649 1.140 0 0 0
v 1.739 -1.649 0.879 0 0 0
v 1.739 -2.768 1.140 0 0 0
v 1.739 -2.768 0.879 0 0 0
v -1.739 -1.649 0.879 0 0 0
v -1.739 -0.506 0.879 0 0 0
v 0.000 -0.506 0.879 0 0 0
v 0.000 -1.649 0.879 0 0 0
v 1.739 -1.649 0.879 0 0 0
v 1.739 -0.506 0.879 0 0 0
v -1.739 -1.649 0.879 0 0 0
v -1.739 -2.768 0.879 0 0 0
v -1.739 -2.768 1.140 0 0 0
v -1.739 -1.649 1.140 0 0 0
v -1.739 -0.506 0.879 0 0 0
v -1.739 -0.506 1.140 0 0 0
v -1.739 -1.649 0.999 0 0 0
v -1.739 -1.649 0.879 0 0 0
v 0.000 -1.649 0.879 0 0 0
v 0.000 -1.649 0.999 0 0 0
v -1.739 -1.652 1.033 0 0 0
v 1.739 -1.649 0.999 0 0 0
v 1.739 -1.649 0.879 0 0 0
v 0.000 -1.652 1.033 0 0 0
v -1.739 -1.662 1.065 0 0 0
v 1.739 -1.652 1.033 0 0 0
v 0.000 -1.662 1.065 0 0 0
v 1.739 -1.662 1.065 0 0 0
v -1.739 -1.678 1.095 0 0 0
v 1.739 -1.678 1.095 0 0 0
v 0.000 -1.678 1.095 0 0 0
v -1.739 -1.699 1.121 0 0 0
v 1.739 -1.699 1.121 0 0 0
v 0.000 -1.699 1.121 0 0 0
v -1.739 -1.725 1.142 0 0 0
v 1.739 -1.725 1.142 0 0 0
v 0.000 -1.725 1.142 0 0 0
v -1.739 -1.755 1.158 0 0 0
v 1.739 -1.755 1.158 0 0 0
v 0.000 -1.755 1.158 0 0 0
v -1.739 -1.788 1.168 0 0 0
v 0.000 -1.788 1.168 0 0 0
v 1.739 -1.788 1.168 0 0 0
v 1.739 -1.821 1.172 0 0 0
v -1.739 -1.821 1.172 0 0 0
v 0.000 -1.821 1.172 0 0 0
v 1.739 -2.596 1.172 0 0 0
v 0.000 -2.596 1.172 0 0 0
v -1.739 -2.596 1.172 0 0 0
v -1.739 -2.629 1.168 0 0 0
v 0.000 -2.629 1.168 0 0 0
v 1.739 -2.629 1.168 0 0 0
v -1.739 -2.662 1.158 0 0 0
v 0.000 -2.662 1.158 0 0 0
v 1.739 -2.662 1.158 0 0 0
v -1.739 -2.691 1.142 0 0 0
v 0.000 -2.691 1.142 0 0 0
v 1.739 -2.691 1.142 0 0 0
v -1.739 -2.718 1.121 0 0 0
v 0.000 -2.718 1.121 0 0 0
v 0.000 -2.739 1.095 0 0 0
v 1.739 -2.718 1.121 0 0 0
v -1.739 -2.739 1.095 0 0 0
v 1.739 -2.739 1.095 0 0 0
v -1.739 -2.755 1.065 0 0 0
v 1.739 -2.755 1.065 0 0 0
v 0.000 -2.755 1.065 0 0 0
v -1.739 -2.765 1.033 0 0 0
v 0.000 -2.765 1.033 0 0 0
v 1.739 -2.765 1.033 0 0 0
v -1.739 -2.768 0.999 0 0 0
v 0.000 -2.768 0.999 0 0 0
v -1.739 -2.768 0.879 0 0 0
v 1.739 -2.768 0.999 0 0 0
v 0.000 -2.768 0.879 0 0 0
v 1.739 -2.768 0.879 0 0 0
v 2.000 -3.672 1.140 0 0 0
v 2.000 -3.672 0.505 0 0 0
v 1.739 -3.672 1.140 0 0 0
v 1.739 -3.672 0.505 0 0 0
v -1.739 -3.672 0.505 0 0 0
v -1.739 -3.672 1.140 0 0 0
v -2.000 -3.672 0.505 0 0 0
v -2.000 -3.672 1.140 0 0 0
v 1.739 -2.718 1.121 0 0 0
v 1.739 -2.691 1.142 0 0 0
v 1.739 -2.739 1.095 0 0 0
v 1.739 -2.755 1.065 0 0 0
v 1.739 -2.765 1.033 0 0 0
v 1.739 -2.768 0.999 0 0 0
v 1.739 -2.629 1.168 0 0 0
v 1.739 -2.662 1.158 0 0 0
v 1.739 -2.596 1.172 0 0 0
v 1.739 -2.768 0.879 0 0 0
v 1.739 -1.821 1.172 0 0 0
v 1.739 -1.649 0.879 0 0 0
v 1.739 -1.649 0.999 0 0 0
v 1.739 -1.699 1.121 0 0 0
v 1.739 -1.725 1.142 0 0 0
v 1.739 -1.755 1.158 0 0 0
v 1.739 -1.788 1.168 0 0 0
v 1.739 -1.678 1.095 0 0 0
v 1.739 -1.662 1.065 0 0 0
v 1.739 -1.652 1.033 0 0 0
v -1.739 -1.662 1.065 0 0 0
v -1.739 -1.678 1.095 0 0 0
v -1.739 -1.652 1.033 0 0 0
v -1.739 -1.725 1.142 0 0 0
v -1.739 -1.699 1.121 0 0 0
v -1.739 -1.649 0.999 0 0 0
v -1.739 -1.788 1.168 0 0 0
v -1.739 -1.755 1.158 0 0 0
v -1.739 -1.821 1.172 0 0 0
v -1.739 -1.649 0.879 0 0 0
v -1.739 -2.596 1.172 0 0 0
v -1.739 -2.768 0.879 0 0 0
v -1.739 -2.768 0.999 0 0 0
v -1.739 -2.718 1.121 0 0 0
v -1.739 -2.691 1.142 0 0 0
v -1.739 -2.662 1.158 0 0 0
v -1.739 -2.629 1.168 0 0 0
v -1.739 -2.755 1.065 0 0 0
v -1.739 -2.739 1.095 0 0 0
v -1.739 -2.765 1.033 0 0 0
v 1.739 -3.672 1.140 0 0 0
v 1.739 -2.768 1.140 0 0 0
v 2.000 -3.672 1.140 0 0 0
v 0.000 -3.672 1.140 0 0 0
v 1.739 -1.649 1.140 0 0 0
v 0.000 -2.768 1.140 0 0 0
v 2.000 -0.329 1.140 0 0 0
v 1.739 -0.506 1.140 0 0 0
v -1.739 -2.768 1.140 0 0 0
v -1.739 -3.672 1.140 0 0 0
v -2.000 -3.672 1.140 0 0 0
v -1.739 -1.649 1.140 0 0 0
v -2.000 -0.329 1.140 0 0 0
v -1.739 -0.506 1.140 0 0 0
v 0.000 -0.329 1.140 0 0 0
v 0.000 -0.506 1.140 0 0 0

# Normal Array
vn 0.000 1.000 0.000
vn 0.000 1.000 0.000
vn 0.000 1.000 -0.000
vn 0.000 1.000 0.000
vn -0.000 -1.000 0.000
vn -0.000 -1.000 -0.000
vn 0.000 -1.000 -0.000
vn 0.000 -1.000 0.000
vn -1.000 -0.000 0.000
vn -1.000 -0.000 0.000
vn -1.000 -0.000 0.000
vn -1.000 -0.000 0.000
vn -0.000 -0.000 1.000
vn -0.000 -0.000 1.000
vn 0.000 -0.000 1.000
vn 0.000 -0.000 1.000
vn 1.000 -0.000 0.000
vn 1.000 -0.000 0.000
vn 1.000 -0.000 0.000
vn 1.000 -0.000 0.000
vn 0.000 1.000 0.000
vn 0.000 1.000 0.000
vn 0.000 0.995 0.098
vn -0.000 1.000 0.000
vn -0.000 1.000 0.000
vn 0.000 0.995 0.098
vn -0.000 0.995 0.098
vn 0.000 0.957 0.290
vn -0.000 0.995 0.098
vn 0.000 0.957 0.290
vn -0.000 0.957 0.290
vn -0.000 0.957 0.290
vn 0.000 0.882 0.471
vn -0.000 0.882 0.471
vn -0.000 0.882 0.471
vn 0.000 0.882 0.471
vn -0.000 0.773 0.634
vn 0.000 0.773 0.634
vn 0.000 0.773 0.634
vn -0.000 0.773 0.634
vn 0.000 0.634 0.773
vn -0.000 0.634 0.773
vn 0.000 0.634 0.773
vn -0.000 0.634 0.773
vn 0.000 0.471 0.882
vn -0.000 0.471 0.882
vn 0.000 0.471 0.882
vn 0.000 0.471 0.882
vn -0.000 0.290 0.957
vn 0.000 0.290 0.957
vn 0.000 0.290 0.957
vn -0.000 0.290 0.957
vn 0.000 0.098 0.995
vn -0.000 0.098 0.995
vn 0.000 0.098 0.995
vn -0.000 0.098 0.995
vn 0.000 -0.000 1.000
vn -0.000 -0.000 1.000
vn 0.000 -0.000 1.000
vn 0.000 -0.000 1.000
vn 0.000 -0.098 0.995
vn 0.000 -0.098 0.995
vn -0.000 -0.098 0.995
vn 0.000 -0.098 0.995
vn -0.000 -0.290 0.957
vn 0.000 -0.290 0.957
vn 0.000 -0.290 0.957
vn 0.000 -0.290 0.957
vn 0.000 -0.471 0.882
vn 0.000 -0.471 0.882
vn -0.000 -0.471 0.882
vn 0.000 -0.471 0.882
vn -0.000 -0.634 0.773
vn 0.000 -0.634 0.773
vn -0.000 -0.634 0.773
vn -0.000 -0.773 0.634
vn 0.000 -0.634 0.773
vn 0.000 -0.773 0.634
vn -0.000 -0.773 0.634
vn 0.000 -0.773 0.634
vn -0.000 -0.882 0.471
vn 0.000 -0.882 0.471
vn -0.000 -0.882 0.471
vn 0.000 -0.882 0.471
vn -0.000 -0.957 0.290
vn 0.000 -0.957 0.290
vn -0.000 -0.957 0.290
vn 0.000 -0.957 0.290
vn -0.000 -0.995 0.098
vn 0.000 -0.995 0.098
vn 0.000 -0.995 0.098
vn 0.000 -1.000 0.000
vn 0.000 -0.995 0.098
vn 0.000 -1.000 -0.000
vn 0.000 -1.000 0.000
vn 0.000 -1.000 -0.000
vn 0.000 -1.000 -0.000
vn -0.000 -1.000 0.000
vn 0.000 -1.000 0.000
vn 0.000 -1.000 0.000
vn 0.000 -1.000 -0.000
vn 0.000 -1.000 -0.000
vn 1.000 -0.000 0.000
vn 1.000 -0.000 0.000
vn 1.000 -0.000 0.000
vn 1.000 -0.000 0.000
vn 1.000 -0.000 0.000
vn 1.000 -0.000 0.000
vn 1.000 0.000 0.000
vn 1.000 -0.000 0.000
vn 1.000 0.000 -0.000
vn 1.000 0.000 0.000
vn 1.000 0.000 -0.000
vn 1.000 0.000 0.000
vn 1.000 0.000 0.000
vn 1.000 0.000 0.000
vn 1.000 0.000 0.000
vn 1.000 0.000 0.000
vn 1.000 0.000 0.000
vn 1.000 0.000 0.000
vn -1.000 -0.000 -0.000
vn -1.000 -0.000 -0.000
vn -1.000 -0.000 -0.000
vn -1.000 -0.000 -0.000
vn -1.000 -0.000 -0.000
vn -1.000 -0.000 -0.000
vn -1.000 0.000 0.000
vn -1.000 -0.000 -0.000
vn -1.000 0.000 0.000
vn -1.000 0.000 -0.000
vn -1.000 0.000 0.000
vn -1.000 0.000 -0.000
vn -1.000 0.000 0.000
vn -1.000 0.000 0.000
vn -1.000 0.000 -0.000
vn -1.000 0.000 -0.000
vn -1.000 0.000 -0.000
vn -1.000 0.000 -0.000
vn -0.000 -0.000 1.000
vn 0.000 -0.000 1.000
vn -0.000 -0.000 1.000
vn 0.000 -0.000 1.000
vn -0.000 0.000 1.000
vn -0.000 -0.000 1.000
vn 0.000 -0.000 1.000
vn 0.000 -0.000 1.000
vn 0.000 -0.000 1.000
vn 0.000 -0.000 1.000
vn 0.000 0.000 1.000
vn 0.000 -0.000 1.000
vn 0.000 -0.000 1.000
vn 0.000 -0.000 1.000
vn 0.000 -0.000 1.000
vn -0.000 -0.000 1.000

# Facets
f 1//1 3//1 2//1
f 4//2 3//2 1//2
f 1//3 5//3 4//3
f 6//4 5//4 1//4
f 7//5 9//5 8//5
f 10//6 9//6 7//6
f 7//7 11//7 10//7
f 12//8 11//8 7//8
f 13//9 15//9 14//9
f 16//10 15//10 13//10
f 16//11 17//11 15//11
f 18//12 17//12 16//12
f 19//13 21//13 20//13
f 22//14 21//14 19//14
f 22//15 23//15 21//15
f 21//16 23//16 24//16
f 25//17 27//17 26//17
f 28//18 27//18 25//18
f 29//19 28//19 25//19
f 30//20 28//20 29//20
f 31//21 33//21 32//21
f 34//22 33//22 31//22
f 31//23 35//23 34//23
f 36//24 33//24 34//24
f 37//25 33//25 36//25
f 34//26 35//26 38//26
f 34//27 38//27 36//27
f 35//28 39//28 38//28
f 36//29 38//29 40//29
f 38//30 39//30 41//30
f 38//31 41//31 40//31
f 40//32 41//32 42//32
f 39//33 43//33 41//33
f 41//34 44//34 42//34
f 41//35 43//35 45//35
f 45//36 44//36 41//36
f 43//37 46//37 45//37
f 45//38 47//38 44//38
f 45//39 46//39 48//39
f 48//40 47//40 45//40
f 46//41 49//41 48//41
f 48//42 50//42 47//42
f 48//43 49//43 51//43
f 51//44 50//44 48//44
f 49//45 52//45 51//45
f 51//46 53//46 50//46
f 51//47 52//47 54//47
f 54//48 53//48 51//48
f 52//49 55//49 54//49
f 54//50 56//50 53//50
f 54//51 55//51 56//51
f 53//52 56//52 57//52
f 56//53 58//53 57//53
f 55//54 59//54 56//54
f 60//55 58//55 56//55
f 56//56 59//56 60//56
f 60//57 61//57 58//57
f 59//58 62//58 60//58
f 62//59 61//59 60//59
f 63//60 62//60 59//60
f 63//61 64//61 62//61
f 62//62 65//62 61//62
f 62//63 64//63 65//63
f 61//64 65//64 66//64
f 64//65 67//65 65//65
f 65//66 68//66 66//66
f 65//67 67//67 68//67
f 66//68 68//68 69//68
f 67//69 70//69 68//69
f 68//70 71//70 69//70
f 68//71 70//71 71//71
f 69//72 71//72 72//72
f 70//73 73//73 71//73
f 71//74 74//74 72//74
f 71//75 73//75 74//75
f 73//76 75//76 74//76
f 72//77 74//77 76//77
f 74//78 75//78 76//78
f 77//79 75//79 73//79
f 76//80 75//80 78//80
f 77//81 79//81 75//81
f 75//82 80//82 78//82
f 75//83 79//83 81//83
f 81//84 80//84 75//84
f 79//85 82//85 81//85
f 81//86 83//86 80//86
f 81//87 82//87 83//87
f 80//88 83//88 84//88
f 82//89 85//89 83//89
f 83//90 86//90 84//90
f 83//91 85//91 86//91
f 85//92 87//92 86//92
f 84//93 86//93 88//93
f 86//94 87//94 89//94
f 86//95 89//95 88//95
f 88//96 89//96 90//96
f 91//97 93//97 92//97
f 92//98 93//98 94//98
f 94//99 93//99 95//99
f 95//100 93//100 96//100
f 96//101 97//101 95//101
f 98//102 97//102 96//102
f 99//103 101//103 100//103
f 101//104 102//104 100//104
f 102//105 103//105 100//105
f 103//106 104//106 100//106
f 100//107 104//107 105//107
f 106//108 100//108 105//108
f 107//109 105//109 104//109
f 104//110 108//110 107//110
f 109//111 107//111 108//111
f 108//112 110//112 109//112
f 110//113 111//113 109//113
f 112//114 109//114 111//114
f 112//115 113//115 109//115
f 113//116 114//116 109//116
f 115//117 109//117 114//117
f 116//118 112//118 111//118
f 117//119 116//119 111//119
f 118//120 117//120 111//120
f 119//121 121//121 120//121
f 120//122 121//122 122//122
f 123//123 120//123 122//123
f 121//124 124//124 122//124
f 122//125 124//125 125//125
f 126//126 122//126 125//126
f 127//127 125//127 124//127
f 124//128 128//128 127//128
f 129//129 127//129 128//129
f 128//130 130//130 129//130
f 130//131 131//131 129//131
f 132//132 129//132 131//132
f 132//133 133//133 129//133
f 133//134 134//134 129//134
f 135//135 129//135 134//135
f 136//136 132//136 131//136
f 137//137 132//137 136//137
f 138//138 136//138 131//138
f 139//139 141//139 140//139
f 139//140 140//140 142//140
f 141//141 143//141 140//141
f 142//142 140//142 144//142
f 141//143 145//143 143//143
f 146//144 143//144 145//144
f 147//145 142//145 144//145
f 148//146 142//146 147//146
f 149//147 148//147 147//147
f 147//148 150//148 149//148
f 150//149 151//149 149//149
f 150//150 152//150 151//150
f 145//151 153//151 146//151
f 153//152 151//152 152//152
f 153//153 154//153 146//153
f 154//154 153//154 152//154

# Thank you for using Spin 3D

