# Created using Spin 3D

# Vertex Array 
v 2.000 -7.216 -0.460 0 0 0
v -2.000 -7.216 -0.460 0 0 0
v -2.000 -6.221 -0.460 0 0 0
v 2.000 -6.221 -0.460 0 0 0
v 2.000 -3.672 -0.460 0 0 0
v -2.000 -3.672 -0.460 0 0 0
v 2.000 -7.672 0.041 0 0 0
v -2.000 -7.672 0.041 0 0 0
v -2.000 -7.215 0.041 0 0 0
v 2.000 -7.215 0.041 0 0 0
v 2.000 -7.672 0.041 0 0 0
v 2.000 -7.672 -0.335 0 0 0
v -2.000 -7.672 0.041 0 0 0
v -2.000 -7.672 -0.335 0 0 0
v 2.000 -7.672 -0.791 0 0 0
v -2.000 -7.672 -0.791 0 0 0
v 2.000 -7.215 -0.335 0 0 0
v 2.000 -7.215 0.041 0 0 0
v -2.000 -7.215 0.041 0 0 0
v -2.000 -7.215 -0.335 0 0 0
v -2.000 -6.945 -0.335 0 0 0
v 2.000 -6.945 -0.335 0 0 0
v 2.000 -7.215 -0.335 0 0 0
v -2.000 -7.215 -0.335 0 0 0
v 2.000 -3.672 -0.460 0 0 0
v -2.000 -3.672 -0.460 0 0 0
v -2.000 -3.672 0.505 0 0 0
v 2.000 -3.672 0.505 0 0 0
v 2.000 -6.945 -0.791 0 0 0
v 2.000 -6.945 -0.335 0 0 0
v -2.000 -6.945 -0.335 0 0 0
v -2.000 -6.945 -0.791 0 0 0

# Normal Array
vn 0.000 0.000 1.000
vn 0.000 0.000 1.000
vn 0.000 0.000 1.000
vn 0.000 0.000 1.000
vn 0.000 0.000 1.000
vn 0.000 0.000 1.000
vn -0.000 -1.000 0.000
vn 0.000 -1.000 0.000
vn -0.000 -1.000 0.000
vn 0.000 -1.000 0.000
vn 0.000 1.000 -0.000
vn -0.000 1.000 0.000
vn 0.000 0.000 1.000
vn 0.000 -0.000 1.000
vn 0.000 -1.000 0.000
vn 0.000 -1.000 0.000
vn -0.000 1.000 -0.000
vn -0.000 1.000 -0.000

# Facets
f 1//1 3//1 2//1
f 4//2 3//2 1//2
f 5//3 3//3 4//3
f 6//4 3//4 5//4
f 7//5 9//5 8//5
f 10//6 9//6 7//6
f 11//7 13//7 12//7
f 12//8 13//8 14//8
f 12//9 14//9 15//9
f 15//10 14//10 16//10
f 17//11 19//11 18//11
f 20//12 19//12 17//12
f 21//13 23//13 22//13
f 24//14 23//14 21//14
f 25//15 27//15 26//15
f 28//16 27//16 25//16
f 29//17 31//17 30//17
f 32//18 31//18 29//18

# Thank you for using Spin 3D

